<svg xmlns="http://www.w3.org/2000/svg" xmlns:xlink="http://www.w3.org/1999/xlink" width="250.585" height="83" viewBox="0 0 250.585 83">
  <defs>
    <clipPath id="clip-path">
      <rect id="Rectangle_6" data-name="Rectangle 6" width="81.15" height="27.158" fill="none"/>
    </clipPath>
    <clipPath id="clip-path-2">
      <rect id="Rectangle_7" data-name="Rectangle 7" width="45.996" height="25.691" transform="translate(0 2.408) rotate(-3.001)" fill="none"/>
    </clipPath>
    <clipPath id="clip-path-3">
      <rect id="Rectangle_10" data-name="Rectangle 10" width="250.585" height="83" fill="none"/>
    </clipPath>
  </defs>
  <g id="eDNA_logo" data-name="eDNA logo" transform="translate(80 476)">
    <g id="Group_8" data-name="Group 8" transform="translate(-80 -476)">
      <g id="Group_3" data-name="Group 3" transform="translate(169.146 27.367)">
        <g id="Group_2" data-name="Group 2" clip-path="url(#clip-path)">
          <path id="Path_6" data-name="Path 6" d="M795.006,138.49a.794.794,0,0,0,.657.565c.037,0,.11-.109.11-.145a.684.684,0,0,0-.767-.42m28.811.073c-.11-.128-.2-.347-.347-.4-.183-.074-.256.146-.329.292-.092.219.055.328.236.291.147-.018.347.056.439-.182m-26.638.238c-.311-.421-.439-.713-.841-.713s-.127.11-.109.147c.091.383.42.42.95.566m41.736.8c.42.018.694.218.9-.073a.3.3,0,0,0-.147-.421c-.4-.164-.438.237-.748.493m-7.686,7.8a.527.527,0,0,1-.164.036c.182.657.347,1.3.529,1.954.036-.018.091-.018.127-.036-.164-.639-.327-1.3-.493-1.954m-27.916-7.1c.183-.036.439.036.476-.219.036-.237-.165-.329-.384-.274-.183.038-.493-.073-.512.238,0,.256.256.238.42.256m2.886.438c-.147.036-.42-.22-.4.147a.494.494,0,0,0,.474.456c.238,0,.329-.183.329-.383,0-.329-.22-.256-.4-.22m-17.363,5.312c-.657-.492-1.461-.309-2.191-.529a6.979,6.979,0,0,0,2.191.529M836.4,139.64c.383-.055.748.091.877-.292a.343.343,0,0,0-.274-.437c-.347,0-.457.347-.6.73M818.85,142.6c.748-.164.621-.656.53-1.259-.329.42-.6.748-.53,1.259m16.669-3.084c.256-.018.4-.129.385-.4-.018-.182.036-.438-.238-.42s-.365.274-.42.512c-.037.2.073.311.273.311m-48.692,5.623a3.452,3.452,0,0,0-2.081-.438,6.162,6.162,0,0,0,2.081.438m16.815-3.469c.092-.4.365-.694.074-.986-.165-.165-.512,0-.566.127-.146.365.238.53.493.859m31.6-3.1c.055-.274-.129-.383-.347-.456-.183-.056-.365.018-.383.2a.649.649,0,0,0,.329.657c.237.091.309-.22.4-.4m-12.635-1.077c-.127.036-.365.055-.274.274.092.255.183.583.494.6.182.018.219-.274.256-.456.036-.311-.2-.384-.475-.42m-1.388-4.237a3.673,3.673,0,0,0-.712,2.21c.237-.749.474-1.479.712-2.21m14.3,11.046a1.355,1.355,0,0,0-.4.675c-.036.22.092.292.292.274.347-.018.42-.274.456-.529.037-.2-.091-.347-.347-.421m-5.641,3.378a7.858,7.858,0,0,0,.657,2.41,7.865,7.865,0,0,0-.657-2.41M826.008,139c.2-.054.51.036.474-.274-.018-.218-.146-.529-.4-.511-.274.018-.347.365-.42.585-.091.237.2.146.347.2m-5.7-5.586a4.286,4.286,0,0,0-.548,1.99,4.361,4.361,0,0,0,.548-1.99m-7.942,5.258c.2-.073.547.072.529-.311-.018-.236-.091-.621-.383-.583-.256.036-.383.4-.456.656-.092.256.145.238.31.238m35.365,4.62c.055-.31.565-.53.2-.859-.146-.127-.493-.256-.639,0-.255.42.256.567.439.859m-50.41,4.436a.472.472,0,0,0,.456-.438c.038-.22-.018-.474-.273-.492a.531.531,0,0,0-.53.474.4.4,0,0,0,.347.456m34.416-.529a.75.75,0,0,0-.183.073,9.228,9.228,0,0,0,1.023,2.538c-.274-.876-.567-1.753-.84-2.61m-10.973-9.458c.383.238.438.6.675.9.237-.293.493-.548.274-.9s-.548-.218-.95,0m-30.2,7.523a3.175,3.175,0,0,0,1.5.42c.109-.018.091-.164.018-.236a1.874,1.874,0,0,0-1.46-.329.265.265,0,0,1-.055.146m4.911-7.978a.5.5,0,0,0-.383.512c.036.291.347.4.583.438.274.037.274-.2.274-.4a.5.5,0,0,0-.474-.548m-10.7,1.059a3.6,3.6,0,0,1,1.662.877c.091.109.31.218.4-.018.091-.2-.109-.22-.238-.256a1.23,1.23,0,0,1-.547-.42c-.256-.365-.658-.457-1.279-.184m46.649,12.178c-.256-.985-.53-1.971-.786-2.957l-.164.054a8.068,8.068,0,0,0,.949,2.9M799.3,138.964c.2-.072.584.055.529-.365-.036-.31-.218-.675-.529-.657-.383.018-.383.493-.457.785-.091.365.274.147.457.237m-1.771-1.059c.036-.42-.129-.712-.494-.712s-.565.22-.511.474a1.058,1.058,0,0,0,.73.712c.31.074.238-.329.274-.474m4.655,3.633c.109-.329.183-.638-.054-.821-.274-.22-.274-.292.036-.4.127-.036.238-.147.109-.238a.813.813,0,0,0-.657-.145c-.146.036-.255.054-.2.182.164.475.055,1.133.766,1.424m17.893-9.75a10.765,10.765,0,0,0-1.041,3.4c.073.018.127.036.2.055.274-1.15.548-2.3.841-3.451m9.165,6.72c-.383-.365-.511-.018-.676.254-.055.092-.164.238-.018.311.237.092.548.22.712-.036.147-.237.457-.256.548-.529.055-.2.274-.383.127-.585-.164-.219-.4,0-.565.036-.421.091.127.329-.129.548m-41.061-.347c.218-.054.329-.311.492-.183.347.274.566.073.73-.182.128-.2-.091-.421-.237-.548-.238-.22-.53-.091-.786.036-.146.073-.037.4-.274.292-.182-.091-.383-.109-.365.109,0,.22.256.383.439.475m30.436-7.65a16.935,16.935,0,0,0-.822,4.454c.365-1.46.512-2.975.822-4.454m.712.128c-.365,1.369-.712,2.757-1.077,4.126-.038.127-.074.329.091.365.236.073.274-.145.292-.31.182-1.388.6-2.757.694-4.181m-2.994,4.09c.091.018.183.018.274.036.218-1.753.42-3.523.639-5.276a30.221,30.221,0,0,0-.913,5.24m.785.091c.365-1.789.639-3.578.913-5.387a21.509,21.509,0,0,0-.913,5.387m.494,12.379c0-.073.018-.165.018-.238a20.777,20.777,0,0,1-2.811-.365c-.183-.018-.53-.256-.476.238.037.292-.073.676.439.621.93-.092,1.88-.183,2.83-.256m-30.052-6.518a1.829,1.829,0,0,0-.767-1.1,3.024,3.024,0,0,1-.365,2.392c.474.018.62-.256.8-.457.146-.164.292-.329.548-.237.529.2.6-.11.493-.494-.073-.254,0-.565-.165-.785-.456.055-.091.585-.547.676m9.658,4.673c-.091-.127-.036-.4-.329-.456-.694-.127-1.99,1.059-1.936,1.753.018.256.2.256.365.183.548-.274,1.1-.566,1.607-.877a.658.658,0,0,0,.292-.6m7.942,1.06a36.817,36.817,0,0,0-4.674-1.333,4.626,4.626,0,0,0-1-.018c-.42.018-.4.347-.42.62-.018.31.219.329.438.329,1.9,0,3.761.292,5.66.4m-18.915-5.842c-.036-1.1-.639-1.809-1.533-1.771a1.633,1.633,0,0,0-1.3,1.569c.036.877.876,1.808,1.607,1.771.529-.018,1.241-.95,1.223-1.569m7.979.73c-.639-.365-.894-1.169-1.734-1.206-.182,0-.383.183-.51,0-.11-.128-.147-.329-.347-.109-.165.182-.018.292.091.42,1.059,1.188,1.771,2.63,2.848,3.816.712.785.968.95,1.917.457a.478.478,0,0,0,.237-.713,15.983,15.983,0,0,0-1.916-2.993c-.11-.147-.238-.347-.457-.256-.291.109,0,.347-.127.585m-9.713,2.318a2.524,2.524,0,0,0,1.771.676c-.6-.219-1.186-.456-1.771-.676a4.336,4.336,0,0,1-1.022-1.113,17.213,17.213,0,0,0,2.1.95,18.385,18.385,0,0,0,5.97,1.022c.165-.018.439-.109.475.146.036.183-.292.074-.347.238.347.165.8.109,1,.492.237.458-.092.694-.383.95-.092.073,0,.183.073.238.109.073.164.073.292-.036a.939.939,0,0,0,.091-1.388,20.481,20.481,0,0,0-2.739-3.652,2.3,2.3,0,0,1-.694-.93,2.27,2.27,0,0,1,.274.091,19.414,19.414,0,0,1,3.049,3.761c.329.529.894.949.876,1.68,0,.255.183.327.456.273.9-.164,1.169-.8.566-1.57a19.122,19.122,0,0,1-1.99-2.7,5.673,5.673,0,0,0-1.388-1.9c-.109-.073-.146-.273-.4-.2a.916.916,0,0,1-1.1-.4,1.37,1.37,0,0,0-1.807-.092c.767.274.785.968.785,1.571a1.156,1.156,0,0,1-.986,1.168c-.492.11-.968.238-1.479.329a3.352,3.352,0,0,1-2.3-.237,2.046,2.046,0,0,1-.8-2.958c.073-.127.274-.2.2-.419-.366-.036-.548.329-.913.31a18.028,18.028,0,0,1,5.294-1.972,1.253,1.253,0,0,0-.766-.036,23.2,23.2,0,0,0-4.82,1.424,3.581,3.581,0,0,0-1.88,1.206c-.639.565-.6.766.109,1.2.73.456,1.607.585,2.227,1.315a3.275,3.275,0,0,0,1.972,1.241m13.694.457c-.018.438-.092.894-.074,1.333a.454.454,0,0,0,.475.438c.329-.055.274-.347.218-.566a6.772,6.772,0,0,0-.255-.8c.493.4.6.073.583-.347-.018-.456.092-1.132-.511-1.132s-.474.62-.438,1.077m13.309-5.751a1.311,1.311,0,0,0,.785-1.315.541.541,0,0,0-.4-.365c-.218-.073-.274.128-.4.22-.511.329-.109.712-.091,1.077-.274-.2-.53-.492-.785.018v-.566c-.019-.255.018-.584-.292-.675s-.512.218-.712.4c-.22.182.036.438.018.676-.694-.238-.421.493-.694.712-.129.091.036.218.2.236.347.036.73.147.748-.419.219.219.4.128.6-.036a.441.441,0,0,0,.475.474c.291,0,.529-.109.547-.437m-9.768-.018c0,.22-.128.512.237.548a.892.892,0,0,0,.8-.128c.164-.182,0-.4-.091-.584-.238-.4-.494-.712-.749,0-.037.055-.146.109-.2.164a3.107,3.107,0,0,1,.091-.4.886.886,0,0,0-.164-.913c-.365-.347-.512.128-.786.183-.091.018-.182.055-.273.073a1.8,1.8,0,0,1-.329-.145c-.238-.165-.421-.4-.712-.056a.529.529,0,0,0,.018.8,4.108,4.108,0,0,1,.438.658.844.844,0,0,0,1.114.347c.494-.165.147-.548.147-.84a2.452,2.452,0,0,1,.456.292m5.2-.694c-.329.055-.329.474-.621.566.018-.072.018-.147.036-.2.11-.438.256-.968-.256-1.186-.456-.183-.511.42-.767.657-.073.109-.127.237-.237.42a4.649,4.649,0,0,0-.128-.676c-.091-.2-.164-.53-.474-.4-.274.127-.639.292-.456.748.055.128.109.256.163.4-.621-.584-.584.256-.877.4,0-.347.2-.693.074-1.04-.11-.274-.292-.547-.621-.438-.2.073-.438.365-.31.566.238.347.31.858.858.912-.055.256-.018.494.31.494.329.018.749.145.84-.383.292.511.821.42,1.223.309.365-.091.018-.492.055-.748.147.128.31.274.457.4.036.128,0,.274.2.311.584.128.73-.055.639-.876.256.311.475.475.676-.054.147-.4.147-.859-.238-.986-.347-.11-.42.365-.529.658-.036.036-.018.091-.018.145m1.533.4c.439.328.457-.091.548-.31.091-.237.347-.493.036-.767-.109-.091-.219-.036-.329-.018-.839.184-.256.712-.256,1.1-.182-.073-.365-.383-.584-.055a1.875,1.875,0,0,0-.383.73c-.019.2.309.128.474.128.347-.018.493-.238.475-.585v-.219Zm10.352.566c.11.2.292.109.457.109s.4.018.438-.237a.269.269,0,0,0-.146-.292c-.219-.128-.291.073-.4.182-.127.073-.237.165-.347.238.092-.238.2-.474.292-.712a.781.781,0,0,0,0-.749c-.073-.11-.2-.4-.329-.128-.109.22-.694.092-.42.476.256.347.256.766.456,1.113m-20.485-.4c-.2-.036-.365-.439-.584-.092-.127.22-.291.493-.146.731s.438.182.658.128c.474-.128.127-.474.146-.712.676.091.439-.42.42-.694-.018-.22-.182-.585-.492-.456-.329.127-.383.456-.146.785a2.474,2.474,0,0,0,.146.31m22.074.128c-.036.31.091.438.4.4.256-.036.219-.2.146-.365-.164-.4-.365-.145-.547-.036-.018-.256,0-.511-.036-.767a.3.3,0,0,0-.42-.256c-.183.054-.457.147-.366.347.165.31.238.822.822.676m-2.739.127c.182.328.456.366.694.147.256-.238.055-.493-.091-.73-.328.127-.274.547-.6.584-.146-.309.658-.767-.165-.949.092-.219.421-.238.384-.6-.494.183-1,.274-.786.986-.493-.109-.365.529-.73.584a2.18,2.18,0,0,1,.109-.494c.311-.585-.529-.547-.511-1,0-.127-.128,0-.183.055-.365.31.074.548.074.84s.109.164,0,.274c-.22-.11-.238-.585-.639-.4-.091-.254.127-.712-.129-.767a1.069,1.069,0,0,0-.876.2c-.2.2-.091.365.036.565.073.147.109.311.165.457-.347-.347-.932-.53-.768-1.205.036-.109-.055-.255-.255-.237a.641.641,0,0,0-.512.931c.109.2.2.439.311.639.31.512.821.53,1.3.073.4-.054.4-.547.73-.675.036.365-.311.566-.4.877.565.347,1.041-.036,1.551-.165a.513.513,0,0,0,.785.2c.292-.219-.091-.51-.073-.767.292.109.365.42.585.584m15.647.584c.146-.018.292-.018.456-.036-.073.329.074.474.4.474s.383.038.365-.2c-.018-.329-.147-.6-.548-.6.073-.566-.329-.566-.675-.474-.474.109-.018.383-.037.583a1.09,1.09,0,0,1,.037.256c-.22-.091-.2-.712-.621-.328-.127.11-.4.4-.146.6.31.238.621.109.767-.274m-12.379,3.414c.092-.073.347-.2.147-.237-.238-.055-.365-.511-.676-.218-.183.164-.347.42-.165.62.219.238.421-.036.6-.164.091.4-.31.492-.456.749-.256-.2-.4.036-.567.165-.128-.548-.365-.585-.712-.147-.529-.384-.566.11-.73.4-.054.129-.109.31-.274.292-.218-.037-.146-.255-.182-.42.2.055.42-.054.365-.2-.22-.6.511-1.35-.31-1.807-.383.476-.785.986-.146,1.625s.074.274.092.4c-.238-.238-.383-.748-.877-.292-.018-.292-.657-.566.018-.858.129-.055.073-.256.018-.4-.127-.274-.365-.548-.639-.365a.743.743,0,0,0-.273,1c.128.256.347.457.31.768-.4-.439-.6-.147-.785.255a4.558,4.558,0,0,0,.036-1.406c-.036-.164.256-.584-.365-.493-.529.073-.565.383-.547.73a1.966,1.966,0,0,0,.255.657.425.425,0,0,0-.638.018c-.018-.256.037-.566-.421-.438-.182.055-.365-.018-.164-.238.127-.127.091-.2,0-.292-.091-.109-.2-.091-.31-.018a.247.247,0,0,0-.128.292c.073.238.128.456.2.694-.2-.127-.329,0-.456.146-.329-.456-.2-1.1-.494-1.606-.492.438-.948.8-.492,1.46-.164-.091-.31-.109-.438.055-.165-.383-.329-.749-.494-1.132,0,0,.036-.036.056-.036.565-.036.218-.256.073-.4-.274-.292-.4.109-.457.182a.947.947,0,0,0,0,1.333.538.538,0,0,0-.62.164c.036-.4-.2-.767-.11-1.168a.416.416,0,0,0-.474-.493.531.531,0,0,0-.456.529,4.465,4.465,0,0,0,.127.841c-.109.036-.22.091-.329.127.055-.585-.694-.913-.456-1.551.018-.038-.11-.165-.183-.183-.109-.036-.164.054-.2.146-.183.457-.6.895-.165,1.425-.456-.02-.456-.347-.529-.694-.056-.292-.183-.657-.53-.675-.383-.038-.456.365-.566.638a5.863,5.863,0,0,0-.182.9c-.256-.676-.183-1.369-.712-1.644-.859.2-.055,1.151-.8,1.48-.074-.639,0-1.3-.694-1.754.109.494-.274.694-.384,1.041-.164.494.494.585.53,1-.274-.091-.456-.492-.749-.127a3.463,3.463,0,0,0-.238-1.3c-.109-.182-.2-.42-.438-.4-.219.018-.2.292-.31.42a.82.82,0,0,0,.109,1.115c-.493-.22-.31.328-.584.51a2.24,2.24,0,0,0-.731-2.3,1.288,1.288,0,0,0-.291,1.187c.073.292-.074.383-.256.51-.055-.255-.091-.51-.147-.766-.036-.2-.055-.492-.365-.383-.273.091-.511.292-.42.639a2.6,2.6,0,0,0,.238.51c-.165-.073-.365-.347-.456.092a7.538,7.538,0,0,0-.128,1.132c-.055.73.018.821.712.73.42-.055.2-.567.566-.694.329.511.657,1.132,1.388,1.168a9.864,9.864,0,0,1,2.154.676c.821.2.859.238.913-.658.237.4.474.822.73,1.224a.438.438,0,0,0,.4.256c.2-.018.238-.219.274-.385.037-.291.055-.583.091-.948a1.554,1.554,0,0,1,.383.694c-.585.365-.238.968-.383,1.461-.054.164.256.492.548.474.329-.018.383-.347.347-.6a4.985,4.985,0,0,0-.238-.9c.219.109.31.4.584.419a.774.774,0,0,0,.694.932c.383.018.329-.512.31-.859v-.2l.291.292c.074.329.219.712.6.658.42-.056.347-.494.383-.8h.329c-.055.329.165.53.347.749.219.274.512.2.53-.073.073-.857.912-1.478.676-2.41.091.055.2.092.292.147a11.011,11.011,0,0,1-.274,1.1c-.292.748-.311.73.274,1.351a.818.818,0,0,0,.4-.712c-.036-.457.255-.292.456-.292-.055.238-.091.474.183.621a.466.466,0,0,0,.529-.036.586.586,0,0,0,.109-.657c-.036-.183-.091-.365-.145-.548.584.127.986.018.857-.712.11.018.2.036.311.055-.055.2.054.347.128.53.109.237.236.42.51.383s.274-.31.293-.494a8.571,8.571,0,0,0-.018-.966c.146.182.164.438.4.547.091.238.183.494.256.73.055.183.091.4.347.365s.329-.255.347-.474a10.3,10.3,0,0,0,.036-1.059c.311.474.4-.018.566-.147a3.63,3.63,0,0,1-.11.475,1.036,1.036,0,0,0,.694,1.37c0,.365.037.839.439.857.456,0,.383-.511.4-.857v-.292l.292.292c.164.365.329.894.73.839.492-.055.347-.639.383-1.022.073.092.182.147.237.256.4.858.584.913,1.369.438.913.292.986.238.986-.676.128.11.274.256.439.036.036.31.018.675.474.657.4-.018.383-.347.4-.62v-.22c.274.311.329.932.95.767.493-.127.31-.566.347-.894.146.073.256.255.438.146,0,.2-.2.4.018.584.2.182.383-.018.585-.056.621-.109.292-.51.256-.821.2.091.273.438.6.274-.109.511.22.438.53.42.547-.037.4-.383.292-.694a1.309,1.309,0,0,0,.73.22c.256.018.6.255.73-.22.182.147.256.073.365-.109a1.491,1.491,0,0,0-.238-1.752c.129.109.256.2.383.329.238.218.2.584.365.839.147.238.256.6.657.512.365-.074.475-.347.457-.694V145.1a.237.237,0,0,1,.2.255c-.055.385.036.585.494.494.438-.073.62-.274.583-.712-.018-.183-.255-.347-.091-.585.147.109.274.2.4.31.073.238-.255.585.2.712a.658.658,0,0,0,.767-.22c.31-.365-.055-.656-.128-.966.474.329.694.127.749-.365a3.805,3.805,0,0,0-.018-.639c.109.018.218.018.311.036-.165.6.292.894.62,1.26.093.62.421.182.621.128.712-.2-.073-.53.036-.749.383-.147.31.657.768.311.109.273.218.529.493.127.054-.073.036-.164.183-.127.474.109.492.109.547-.347a5.387,5.387,0,0,0,.018-.768c.11.129.22.274.329.4.073.565.347.894.95.657.493-.182,0-.62.182-.912h.147a.76.76,0,0,0,.091.347c.147.218.274.547.639.42.347-.109.365-.4.293-.694a.882.882,0,0,1,0-.219.46.46,0,0,0,.438,0,.566.566,0,0,0,.31.768c.365.164.365-.2.474-.365.22-.31.31.018.439.073.529.274.821.182.767-.475a.462.462,0,0,0,.438.018.452.452,0,0,0,.4.621c.383.073.4-.237.438-.492.11.054.2.091.31.146a.438.438,0,0,0,.639.2c.347-.183.036-.4.054-.621.439.073.165,1.113.877.712.639-.365-.073-.712-.165-1.059-.109-.456-.493-.365-.748-.256-.438.183-.018.421.036.621a.554.554,0,0,0-.6.183c-.018-.347.273-.8-.237-.968-.347-.109-.548.164-.6.511-.109.054-.2.111-.31.165a.365.365,0,0,0-.036-.2c-.128-.31-.347-.474-.657-.31-.383.2,0,.383.055.566.019.073.056.127.074.2-.22-.238-.53-.347-.748-.658-.421-.566-.822-.074-1.115.365-.054-.238.055-.585-.329-.621-.2-.018-.51,0-.583.109-.165.238.182.383.255.6.018.073.055.127.074.2-.238-.128-.383-.457-.73-.274-.019-.238.164-.621-.347-.53-.292.055-.731-.036-.494.53a2.058,2.058,0,0,1-.328.036c-.018-.274,0-.585-.4-.6-.311-.018-.566.018-.566.42-.2,0-.292.129-.42.238-.109-.2.238-.548-.182-.621-.256-.036-.53,0-.548.365-.347-.182-.4.183-.584.311-.018-.274-.036-.585-.4-.529-.329.055-.164.329-.145.511-.2-.127-.4-.256-.585,0-.018-.238.018-.493-.329-.529-.274-.018-.383.127-.365.383-.274-.2-.438-.018-.6.164.018-.383-.145-.694-.547-.694s-.128.329-.165.512a.545.545,0,0,0-.42,0c-.31-.694-.584-.292-.857.036-.476-.093-.457.456-.768.583,0-.218.347-.474-.036-.638-.127-.056-.4-.2-.474.055-.128.438-.475.182-.566.109-.4-.365-.676-.365-.894.165a2.021,2.021,0,0,1-.914-1.534,1.633,1.633,0,0,0-.256,1.662c-.237-.055-.492-.256-.712.036-.036-.474-.347-.474-.694-.383-.2.055-.383.145-.583.22-.274-.4-.9-.585-.639-1.333-.748.474-.238.93-.219,1.369-.256-.183-.42-.018-.6.127a.8.8,0,0,0-.018-.292c-.127-.311-.347-.749-.676-.639-.383.128-.073.512,0,.8-.182-.018-.365-.092-.51.109-.037.055-.183.2-.165.091.055-.438-.6-.529-.291-1.131a1.167,1.167,0,0,0-.439.968c-.255-.092-.492-.147-.584-.512s-.512-.109-.786-.2c-.091-.036-.127.255-.018.347.675.529.6,1.388.913,2.063-.585-.476-.548.347-.877.419a10.165,10.165,0,0,0,.365-1.059.84.84,0,0,0-.785-1.1,2.473,2.473,0,0,0-.256-.9m6.062-3.852a1.373,1.373,0,0,1,0-.274c.054-.22.2-.456-.147-.585a.288.288,0,0,0-.383.092c-.164.273.074.438.183.62.073.165.2.165.347.147-.109.438.2.456.493.42.566-.073.165-.474.238-.712.256.018.22.4.585.42-.036-.311.365-.511.091-.839a.311.311,0,0,0-.365-.129c-.329.074-.274.329-.31.567-.31-.091-.511.127-.73.274m4.308.018c.092-.474-.329-.42-.565-.53-.274-.109-.238.11-.256.274a.672.672,0,0,0-.639.639c-.037.311.31.2.493.238.42.055.328-.274.365-.512.237.146.4-.109.6-.109.074.238-.474.474,0,.694.165.073.421.091.475-.145.073-.347-.018-.639-.475-.549m8.2,7.632c-2.045.639-4.072,1.059-5.294,2.9-.6.913-1.369,1.716-2.027,2.593-.109.146-.256.292-.383.438-.329.383-.548.311-.8-.109a14.438,14.438,0,0,1-1.771-3.981c-.255-.894-.329-.876-1.259-.766-2.081.256-4.181.438-6.281.639-1.388.127-2.794.2-4.255.31a1.538,1.538,0,0,1,.42,2.282,13.593,13.593,0,0,1-2.172,2.739c-.365.365-.438,0-.529-.218a19.09,19.09,0,0,1-1.224-3.743,1.034,1.034,0,0,0-1.223-.931c-3.305.072-6.591.11-9.9.129a64.021,64.021,0,0,1-16.943-2.265,14.063,14.063,0,0,1-4.418-2.027c-.237-.164-.639-.31-.474-.694.146-.329.474-.055.712-.091a6.627,6.627,0,0,1,1.57.127,12.648,12.648,0,0,0-2.574-1.971c-.6-.292-1.333-.621-1.278-1.388.054-.749.768-1.133,1.406-1.406a26.177,26.177,0,0,1,7.5-2.081,179.27,179.27,0,0,1,20.047-1.1c2.1-.018,4.217-.055,6.317-.055s.766-.109.859-.694a45.019,45.019,0,0,1,1.551-6.554,10.558,10.558,0,0,1,.785-1.862c.859,1.26,1.7,2.446,2.484,3.651a30.354,30.354,0,0,0,2.647,3.652,4.48,4.48,0,0,0,1.133.877c.8.492.821.474.219,1.15-.073.091-.237.182-.091.292.22.164.31.474.675.474.6,0,1.186.091,1.789.109a133.677,133.677,0,0,1,13.493,1.26,58.272,58.272,0,0,0,6.409.712,17.139,17.139,0,0,0,4.984-.913c2.612-.694,5.2-1.46,7.851-1.971.273-.055.6-.238.8.055.164.22-.018.511-.127.748a7.555,7.555,0,0,1-5.532,4.729c.583.329,1.2.347,1.753.6,2.027.968,3.068,2.72,3.943,4.638.183.42-.036.585-.438.529a12.051,12.051,0,0,1-1.625-.218q-5.067-1.206-10.1-2.465a16.867,16.867,0,0,0-4.492-.183,23.928,23.928,0,0,0-4.82.675c-.219.055-.529.018-.566.329-.036.292.274.347.476.492a3.459,3.459,0,0,0,.767.548" transform="translate(-779.32 -126.367)" fill="#030382"/>
          <path id="Path_7" data-name="Path 7" d="M782.958,185.349c.492-.018,1.022.091,1.224-.566.037-.127.182-.347.365-.182a.447.447,0,0,1,.073.585,1.405,1.405,0,0,1-1.662.164" transform="translate(-782.097 -171.838)" fill="#030382"/>
          <path id="Path_8" data-name="Path 8" d="M888.079,203.353c.274-.073.256-.4.438-.548-.036.53-.383,1.1.129,1.589-.932.073-.439-.658-.567-1.041" transform="translate(-864.378 -186.136)" fill="#030382"/>
          <path id="Path_9" data-name="Path 9" d="M913.449,205.58c-.109.474.31.73.42,1.113-.347-.347-.547-.036-.748.183a3.577,3.577,0,0,0,.036-1.46c.109.054.2.109.292.164" transform="translate(-883.996 -188.18)" fill="#030382"/>
          <path id="Path_10" data-name="Path 10" d="M801.719,188.034a.989.989,0,0,1-.694.986.948.948,0,0,1-1.15-.328.961.961,0,0,1,0-1.188c.347-.492.858-.164,1.3-.255.292-.092.494.4.53.785Z" transform="translate(-795.18 -173.939)" fill="#030382"/>
          <path id="Path_11" data-name="Path 11" d="M991.772,204.973a4.083,4.083,0,0,1,.438-.145c-.565.675.092,1.1.329,1.606-.274-.036-.438-.657-.785-.182-.274.347-.566.73-.091,1.168a.8.8,0,0,1,.127.311c-.876-.127-.6-.766-.585-1.3.621-.329.512-.93.566-1.46" transform="translate(-945.084 -187.72)" fill="#030382"/>
          <path id="Path_12" data-name="Path 12" d="M999.549,206.17c-.311.585.183.9.438,1.3-.293-.018-.565-.53-.93,0,.255-.439-.038-1,.492-1.3" transform="translate(-951.273 -188.77)" fill="#030382"/>
          <path id="Path_13" data-name="Path 13" d="M960.331,204.741c.127.109.256.22.456.145-.292.786.129,1.3.694,1.753,0,.183,0,.366.018.548-.4.145-.365.675-.712.859.092-.421.421-.768.31-1.224a1.106,1.106,0,0,0-.383-.748.139.139,0,0,0-.219.091c-.091.347-.547.6-.309,1.041.109.183.219.365.309.548-.492-.512-.583.182-.876.292a2.687,2.687,0,0,0,.145-1.734c.256.255.384.109.512-.147a2.239,2.239,0,0,0,.055-1.424" transform="translate(-920.399 -187.652)" fill="#030382"/>
          <path id="Path_14" data-name="Path 14" d="M950.583,203.9c.146-.145.292-.292.438-.42a1.671,1.671,0,0,0,.292,1.88c-.347-.365-.657-.383-.858.129.036-.53.073-1.059.127-1.589" transform="translate(-913.225 -186.664)" fill="#030382"/>
          <path id="Path_15" data-name="Path 15" d="M923.21,210.078c.055-.456.091-.9.146-1.351.585-.256.457-.821.548-1.3.109.2.2.383.311.584a2.542,2.542,0,0,0-.657,1.26,1.663,1.663,0,0,1-.347.8" transform="translate(-891.896 -189.757)" fill="#030382"/>
          <path id="Path_16" data-name="Path 16" d="M931.49,205.581l.274.274c-.2.4.274.547.329.858-.183-.091-.383-.274-.512.073a.8.8,0,0,1-.383.494,3.875,3.875,0,0,0,.292-1.7" transform="translate(-898.149 -188.309)" fill="#030382"/>
          <path id="Path_17" data-name="Path 17" d="M987.534,204.378c.2-.018.292-.2.42-.31a1.446,1.446,0,0,0,.292,1.734c-.274-.128-.511-.6-.876-.091.054-.438.109-.877.163-1.333" transform="translate(-942.124 -187.125)" fill="#030382"/>
          <path id="Path_18" data-name="Path 18" d="M980.13,208.931c-.2-.073-.383-.438-.6-.164-.2.255-.51.529-.365.93a3.385,3.385,0,0,0,.256.512c-.8-.183-.548-.841-.585-1.351.165.164.311.218.4-.055.092-.256.183-.53.274-.786.183.311.53.53.621.913" transform="translate(-935.432 -190.217)" fill="#030382"/>
          <path id="Path_19" data-name="Path 19" d="M917.442,208.574c-.639-.548-.584.274-.877.438a3.722,3.722,0,0,0,.147-1.9c.383.109.383-.183.42-.4.036-.384.018-.75.036-1.133a3.889,3.889,0,0,0,.292.274.991.991,0,0,0,.145.6,1.521,1.521,0,0,0-.164,2.118" transform="translate(-886.693 -188.308)" fill="#030382"/>
        </g>
      </g>
      <g id="Group_5" data-name="Group 5" transform="translate(0 0)">
        <g id="Group_4" data-name="Group 4" transform="translate(0)" clip-path="url(#clip-path-2)">
          <path id="Path_20" data-name="Path 20" d="M92.574,14.366c0-.015,0-.03.013-.031s.023,0,.031.014a1.442,1.442,0,0,0,.2.226c.023.014.017.05,0,.073a.038.038,0,0,1-.059,0,.985.985,0,0,1-.184-.286m2.141,5.612c0,.023,0,.059-.026.06a.07.07,0,0,1-.076-.048.443.443,0,0,0-.085-.209c-.016-.014-.009-.036,0-.052a.028.028,0,0,1,.044.006.533.533,0,0,1,.139.243M83.161,22.216a.256.256,0,0,1,.017-.1c.007-.023-.026-.073.026-.075s.053.041.048.078a1.349,1.349,0,0,0,.008.295c0,.015,0,.044-.019.045s-.031-.027-.039-.042a.85.85,0,0,0-.033-.19h-.007ZM75.128,25.65c0,.03,0,.059-.025.068a.052.052,0,0,1-.068-.033,2.305,2.305,0,0,1-.073-.248.047.047,0,0,1,.006-.03c.007-.008.023,0,.031.006a.379.379,0,0,1,.13.237M92.943,15.632a.163.163,0,0,1,.129.045c.031.02.083.041.049.086s-.066.018-.1-.009a.157.157,0,0,0-.141-.023c-.03,0-.073.033-.09-.01s.034-.06.07-.071a.318.318,0,0,0,.073-.018Zm-17.7,9.185a.374.374,0,0,1,.146-.192.062.062,0,0,1,.06.019.044.044,0,0,1,0,.058,1.2,1.2,0,0,1-.117.155c-.042.047-.043.024-.066.01a.051.051,0,0,1-.024-.043Zm24.972-12.285c0-.03.019-.046.048-.061l.323-.172c.023,0,.058-.033.074,0s-.011.06-.041.069a.783.783,0,0,0-.345.18c-.015,0-.028.017-.045,0v-.022Zm-9.493,3.208c0-.03.02-.039.043-.032.082.025.172.042.255.075.031.014.032.043.018.073s-.034.046-.057.033c-.053-.034-.119-.031-.173-.058a.189.189,0,0,1-.085-.084Zm-8.883,2.585a2.131,2.131,0,0,1,.681.164c-.238-.025-.45-.124-.681-.164m-3.867,4c0-.036-.019-.081.017-.1s.06.026.077.063.041.086.065.13.019.073-.032.09a.065.065,0,0,1-.1-.047c-.01-.043-.021-.094-.03-.139m7.126-3.55a.84.84,0,0,0,.042.1c.017.036.072.085.065.1-.033.068-.068-.033-.111-.009-.086.042-.178-.013-.265.015-.03,0-.052-.006-.047-.042s.027-.053.05-.04c.045.02.075.033.11-.006.014-.016.03,0,.044.013.049.072.068.033.088-.019a.682.682,0,0,0,.024-.113m-2.085,1.942a.1.1,0,0,1,.077.063,1.953,1.953,0,0,1,.074.424c0,.015,0,.03-.019.038a.043.043,0,0,1-.046-.019.22.22,0,0,1-.026-.065,4.161,4.161,0,0,0-.059-.425Zm4.6,6.812c-.036,0-.039-.034-.025-.057a3.774,3.774,0,0,1,.39-.449.021.021,0,0,0,.015-.008c.015,0,.036-.017.051,0s0,.036-.013.044a3.225,3.225,0,0,0-.362.411.3.3,0,0,0-.049.055h-.008ZM81.37,19.6a.757.757,0,0,0-.03.142c-.011.059-.041.06-.08.018s-.065-.1-.139-.1-.059-.012-.046-.05.041-.068.072-.04c.061.041.082.01.117-.028a.057.057,0,0,1,.073-.019.077.077,0,0,1,.033.073m8.281-5.324c-.036,0-.073,0-.09-.032s-.026-.088.009-.1c.088-.034.166-.09.263-.066a.071.071,0,0,1,.063.064.056.056,0,0,1-.041.06.661.661,0,0,1-.2.069h-.008Zm5.3-.136a.129.129,0,0,1-.155-.125c0-.089.063-.071.115-.073.1-.006.18.05.183.116s-.063.084-.137.081Zm-16.9,6.092c.1.372-.172,1.1-.39,1.151a1.612,1.612,0,0,0,.39-1.151m14.624-3.107c-.015,0-.036.009-.046-.012a.037.037,0,0,1,.021-.046.221.221,0,0,1,.115-.058,1.1,1.1,0,0,0,.462-.075.047.047,0,0,1,.075.025c.009.044-.019.06-.056.069l-.14.008a3.042,3.042,0,0,1-.431.082ZM80.54,18.964c-.052,0-.075-.012-.076-.033,0-.038.027-.047.057-.048a1.038,1.038,0,0,0,.415-.117.9.9,0,0,1,.138-.052c.022,0,.05-.017.059.013a.046.046,0,0,1-.034.045,2.328,2.328,0,0,1-.558.192m.606,3.535c-.045,0-.053-.034-.07-.063-.146-.258-.264-.532-.424-.783a.157.157,0,0,0-.017-.036c0-.022-.017-.043.012-.052s.031.02.032.035c.094.254.3.443.4.688a.331.331,0,0,1,.056.2h.007Zm12.75-8.7a1.733,1.733,0,0,1,.192.012c.038.006.075.025.071.071s-.042.053-.079.063a.14.14,0,0,1-.059,0,.232.232,0,0,0-.226.034.225.225,0,0,1-.116.051c-.015,0-.036.009-.045-.012a.067.067,0,0,1,.012-.046.459.459,0,0,1,.257-.175ZM81.327,22.438c0-.023,0-.038.013-.046.043-.024.209.048.2.1a.407.407,0,0,0,.074.292.068.068,0,0,1-.01.089c-.028.016-.046-.019-.068-.033-.1-.084-.093-.232-.172-.324-.016-.02-.025-.057-.041-.078Zm4.986-.845c.116.1.259.171.383.267.084.063.155.14.232.209s.046.05.026.081-.058,0-.089-.01c-.008,0-.015-.007-.023-.014-.172-.183-.4-.3-.53-.527ZM94.9,14.769c.23-.131.484-.217.729-.327a.074.074,0,0,1,.09.025c.025.035.026.065-.025.067a1.825,1.825,0,0,0-.515.175.693.693,0,0,1-.279.051Zm-2.053,3.239a.673.673,0,0,1,.215.01c.044.012.119.016.108.091s-.078.085-.135.089a.119.119,0,0,1-.1-.025.315.315,0,0,0-.268-.059c-.023,0-.045,0-.054-.027s.021-.038.034-.047a.354.354,0,0,1,.19-.039h.008Zm-10.16,1.477a.594.594,0,0,0,.143.473c.008.014.009.028.017.043.045.131.088.268.132.4,0,.022.017.043,0,.059-.03.016-.046-.02-.055-.042-.017-.043,0-.1-.036-.138-.1-.158-.165-.331-.248-.5a.28.28,0,0,1,.051-.291h-.007Zm-.529.043a.359.359,0,0,0-.038-.139c-.027-.109.028-.164.133-.14a.286.286,0,0,0,.082,0,.084.084,0,0,1,.073,0,.322.322,0,0,1,.073.255c-.021.038-.048.068-.088.012-.072-.092-.139-.1-.235.02M88.369,21.8a.186.186,0,0,1-.112-.039c-.2-.13-.363-.3-.548-.444-.016-.015-.046-.035-.032-.058s.051,0,.067.019a2.655,2.655,0,0,0,.39.253,1.522,1.522,0,0,1,.246.187.054.054,0,0,1,.025.058c-.006.022-.028.016-.043.024Zm3.7,2.59a.091.091,0,0,1,.064.093,3.479,3.479,0,0,1,.08.387,4.02,4.02,0,0,1,.036.42c.008.14.006.1-.061.092s-.063-.056-.057-.1a.941.941,0,0,0-.008-.288,5.6,5.6,0,0,0-.068-.6ZM79.663,20.14c.051,0,.1,0,.114.052.018.066.088.122.055.19a.216.216,0,0,1-.323.054c-.038-.027-.061-.056,0-.089a.093.093,0,0,0,.053-.106c0-.066.04-.1.106-.1m2.947,1.824-.015-.287c0-.023,0-.059.026-.06s.039.034.04.057l0,.058a5.866,5.866,0,0,1-.032.814,2.664,2.664,0,0,0-.082.544c.009.184-.006.038-.035.039s-.03-.012-.039-.027a.314.314,0,0,1,0-.081,3.14,3.14,0,0,0,.13-1.049h.007Zm-3.626-.415a.026.026,0,0,0,.021-.009,5.1,5.1,0,0,1,.655,1.244c-.007,0-.014.008-.021.016-.222-.417-.436-.835-.656-1.244ZM91.9,26.2a.71.71,0,0,1,.091-.249c.014-.015.027-.038.042-.039a.127.127,0,0,0,.115-.065c.02-.031.043-.017.052.011a.544.544,0,0,1-.1.426c-.028.024-.056.048-.087.019s-.119-.023-.116-.1Zm-.783-6.348c-.209-.049-.43-.038-.641-.107a.4.4,0,0,1-.052-.027c-.024-.02-.047-.049-.034-.08s.05-.032.08-.033a2.838,2.838,0,0,1,.44.073,1.006,1.006,0,0,1,.233.091c.016.013.037.02.032.05s-.027.031-.05.032ZM74.747,26.7a.984.984,0,0,1-.034-.242c0-.156.073-.307.064-.462s.048-.224.027-.341c0-.03,0-.073.033-.075s.039.042.048.072a.721.721,0,0,1,.015.28.887.887,0,0,0-.045.268c.009.168-.08.314-.085.485l-.02.023ZM78.6,23.592a2.254,2.254,0,0,1,.251,1.139,4.957,4.957,0,0,1-.251-1.139m14.725-.882c0,.074,0,.081-.073.151-.028.024-.009.1-.063.084s-.018-.065-.012-.1c-.085-.076-.041-.211-.134-.288-.077-.069-.045-.175-.006-.258.006-.023,0-.059.033-.068s.045.019.069.041a1.22,1.22,0,0,1,.192.432Zm-2.271-1.92c0,.059-.018.082-.071.063a.415.415,0,0,1-.237-.15.924.924,0,0,0-.36-.239,2.6,2.6,0,0,1-.25-.135c-.023-.014-.061-.033-.041-.064s.059-.01.082,0a.864.864,0,0,0,.226.092,1.464,1.464,0,0,1,.586.316c.171.154.047.064.057.1v.014Zm-1.614.217a.036.036,0,0,1,.027-.038.063.063,0,0,1,.06.018.95.95,0,0,0,.306.2c.2.115.4.215.6.323a.482.482,0,0,1,.139.1c.031.035.092.076.051.13s-.082,0-.119-.023c-.206-.123-.4-.259-.611-.382a2.45,2.45,0,0,1-.4-.274.12.12,0,0,1-.047-.057Zm8.478-7.49c.059,0,.119.024.121.045,0,.045-.034.053-.063.071a.468.468,0,0,1-.086.041,5.375,5.375,0,0,0-.918.388.643.643,0,0,1-.306.083.128.128,0,0,0-.1.034c-.035.024-.064.056-.116.036-.015,0-.023-.014-.017-.03.019-.052.064-.061.107-.072a5.765,5.765,0,0,0,1.077-.455c.1-.05.209-.1.3-.142m-5.806,7.3c0-.03-.018-.066.017-.082s.054.019.069.04a3.206,3.206,0,0,1,.39.548,2.659,2.659,0,0,1,.254.467.152.152,0,0,1-.036.149c-.021.016-.043.032-.066.018a.06.06,0,0,1-.04-.057.811.811,0,0,0-.175-.4.906.906,0,0,1-.115-.2,1.153,1.153,0,0,0-.256-.379.191.191,0,0,1-.058-.115h.015ZM81.876,14.883a2.515,2.515,0,0,1,.522-.042h.008a.2.2,0,0,0,.191-.024c.1-.065.138-.052.165.065.01.051.026.065.076.033.028-.016.057-.033.074,0a.141.141,0,0,0,.195.063c.036-.009.074,0,.076.041s-.034.053-.064.054l-.221.013c-.074,0-.159.052-.224-.048-.008-.015-.036,0-.058.01a.132.132,0,0,1-.181-.057.176.176,0,0,0-.224-.04c-.136.074-.218.056-.35-.071h.015Zm-6.116,14.1a.621.621,0,0,1,.033.2c0,.03,0,.081.041.078s.049-.053.04-.09c0-.059-.022-.117-.024-.176-.011-.206-.007-.406-.017-.612l-.017-.324a.187.187,0,0,1,.05-.158.361.361,0,0,1,.034.213.576.576,0,0,0,.011.229.979.979,0,0,1,.035.389c0,.1-.019.185-.015.282a1.26,1.26,0,0,1-.091.662c-.007.015,0,.051-.034.045s-.039-.034-.04-.057a2.686,2.686,0,0,1-.022-.693Zm-1.385-2.9c-.006-.11-.015-.28-.009-.451,0-.036.01-.082.065-.04s.1.024.131-.03a.339.339,0,0,0,.074-.144c0-.036.019-.06.057-.055s.032.05.026.08a1.577,1.577,0,0,0-.076.374.181.181,0,0,1-.032.1.446.446,0,0,0-.04.239,2.762,2.762,0,0,1-.035.437c0,.038,0,.089-.048.084s-.061-.041-.077-.077-.01-.051-.011-.073l-.024-.457Zm1.6.433a.755.755,0,0,1-.021.141c-.011.067-.048.091-.113.1s-.083-.033-.093-.084-.02-.1-.094-.1-.038-.028-.04-.058a.538.538,0,0,0-.083-.313.135.135,0,0,1,0-.178.356.356,0,0,0,.1-.108c.041-.061.085-.064.125,0,.024.042.041.086.066.129a2.1,2.1,0,0,1,.157.465M91.358,13.72l-.066,0c-.03,0-.074,0-.084-.041s.042-.047.072-.055c.093-.042.2-.033.29-.1a1.065,1.065,0,0,1,.324-.149,4.327,4.327,0,0,0,.737-.18c.028-.016.067.011.083.048s0,.051-.018.075a.176.176,0,0,1-.1.064,4.669,4.669,0,0,1-.53.175,4.5,4.5,0,0,1-.707.163m-3.664,5.5c.047-.113.09-.13.159-.059a.943.943,0,0,0,.448.234.548.548,0,0,1,.1.032,1.884,1.884,0,0,0,.6.272.261.261,0,0,1,.122.075c.016.014.031.02.025.043s-.036.016-.059.017a.838.838,0,0,1-.36-.121,2.151,2.151,0,0,0-.242-.106c-.052-.019-.117.006-.192-.019-.166-.058-.319-.147-.477-.211a.649.649,0,0,1-.183-.1c-.139-.112-.158-.206-.068-.314.015-.016.028-.039.051-.025s.016.036,0,.059-.013.023-.02.038c-.02.045-.033.083.035.109.023.006.039.035.063.063Zm-1.359.832c-.081.011-.136-.044-.2-.034a.167.167,0,0,1-.143-.059,1.641,1.641,0,0,0-.341-.3.868.868,0,0,1-.354-.684c0-.015,0-.03.014-.038a.028.028,0,0,1,.038.013c.025.058.093.092.06.175a.526.526,0,0,1,.129-.1.207.207,0,0,1,.147-.016c.036,0,0,.059.019.088.034.088.032.191.094.262a.242.242,0,0,1,.074.137.813.813,0,0,0,.187.315,1.745,1.745,0,0,0,.272.244Zm-10.908,8.2c-.007,0-.014.008-.028.009a.123.123,0,0,0-.13-.067c-.03,0-.046-.027-.055-.057s-.026-.072-.042-.108-.033-.065-.076-.048a.071.071,0,0,0-.033.09.341.341,0,0,1,.04.19,2.2,2.2,0,0,0,.073.69.686.686,0,0,1,.014.243c-.013.06-.047.114-.007.17a.038.038,0,0,1-.026.052c-.03.009-.046-.011-.053-.034a.327.327,0,0,1-.012-.206.138.138,0,0,0,0-.1c-.085-.358-.118-.726-.2-1.083a.226.226,0,0,1,.02-.187.419.419,0,0,0,.08-.159c.045-.112.09-.13.166-.075s.154.11.152.221a.564.564,0,0,0,.03.161c.027.094.048.19.067.292Zm-.83-3.029c-.066.01-.127-.031-.187-.042s-.069-.041-.034-.088c.1-.13.1-.307.221-.424a.073.073,0,0,0,.011-.06.174.174,0,0,1,.141-.148.207.207,0,0,0,.144-.059c.064-.055.251.017.271.09a.258.258,0,0,1-.133.28.571.571,0,0,0-.226.2c-.069.077-.041.076-.016.112.04.065,0,.089-.053.106a1.236,1.236,0,0,0-.154.038ZM76.054,22.6a.888.888,0,0,0-.3-.022.566.566,0,0,1-.164-.036c-.09-.032-.154-.109-.257-.119-.045,0-.055-.049-.034-.086s.049-.047.08-.026.069.056.1.009c.028-.031,0-.074-.006-.11a.112.112,0,0,1,.051-.165c.1-.05.121-.1.078-.2-.017-.043,0-.1.046-.106s.124-.028.185.013c.046.034.067.019.065-.04s0-.052.026-.053a.052.052,0,0,1,.055.049c0,.059.033.072.075.033s.074,0,.1.024.055.057.034.086a1.474,1.474,0,0,0-.11.434c-.006.03-.018.06-.056.063-.074,0-.1.042-.091.1s.061.027.1.017.1,0,.106.061-.048.061-.107.072ZM75.8,18.835a.213.213,0,0,1,.044-.142,1.634,1.634,0,0,0,.072-.174c.046-.106.069-.24.191-.306a.065.065,0,0,0,.034-.06c-.006-.1.009-.111.107-.073a.458.458,0,0,1,.1.054c.038.02.054.056.034.086-.055.084-.008.133.06.167.031.02.068.041.07.077a1,1,0,0,1,.051.286,1.087,1.087,0,0,0,.116.5.168.168,0,0,1-.006.178c-.077.085-.1.2-.171.274-.02.031-.041.054-.086.042a.587.587,0,0,1-.357-.344,1.793,1.793,0,0,1-.1-.4c0-.038-.019-.073-.064-.071-.081,0-.061-.064-.079-.107H75.8Zm5.982.558c-.14.007-.19-.094-.224-.2-.026-.058-.079-.107-.069-.189s-.03-.139-.113-.178c-.114-.046-.126-.148-.014-.25-.026.068.006.11.031.162.017.035.035.1.085.076s.025-.083.015-.134c0-.014-.023-.027-.032-.042s-.039-.035-.017-.058a.048.048,0,0,1,.073-.011c.024.02.045.019.074,0,.065-.041.082,0,.091.053a.367.367,0,0,0,.022.125c.024.035.078.078.043.108s-.068-.026-.092-.061c-.008-.007-.016-.021-.031-.014s-.014.016-.012.031c0,.044.134.177.178.175.1-.006.076.048.05.1a.685.685,0,0,1-.048.076c-.02.038-.026.075.033.072s.045,0,.039.027a.325.325,0,0,0,.076.181.137.137,0,0,1,.022.14c-.013.038,0,.051.04.064.09.018.162.11.142.177a.1.1,0,0,0,.052.138.133.133,0,0,1,.061.189.077.077,0,0,0,0,.081,1.749,1.749,0,0,1,.108.231.291.291,0,0,1-.03.3c.024.022.051-.025.067,0a.056.056,0,0,1-.011.059c-.013.038-.033.068-.047.106-.025.09.009.177.076.188a.374.374,0,0,0-.06.107c-.012.037-.025.083-.039.121.045,0,.059,0,.067.011a.33.33,0,0,1-.157.244c-.022,0-.059,0-.052-.019a.281.281,0,0,0-.064-.226c-.008-.022.02-.031.034-.046s.035-.046,0-.059c-.173-.043-.1-.2-.142-.3-.017-.043,0-.1-.038-.16-.016-.021-.025-.058-.041-.086.051,0,.082.025.125,0a.91.91,0,0,1-.266-.3c.051,0,.083.047.126.023,0-.051-.04-.065-.071-.085s-.106-.045-.08-.091.074,0,.113.016a.025.025,0,0,1,.015.007c.015,0,.03.012.044,0s0-.038-.025-.043a.244.244,0,0,1-.123-.1c-.024-.028-.034-.072,0-.081.094-.035.048-.077.024-.119-.008-.015-.032-.035-.018-.059s.043-.017.066-.01.023.006.037.013a.052.052,0,0,0,.065-.033c.013-.038,0-.045-.04-.057a.622.622,0,0,1-.137-.074c-.039-.027-.071-.063,0-.089.035-.016.035-.031,0-.051-.015-.014-.037-.02-.053-.042-.025-.042-.119-.031-.1-.1s.089,0,.139-.036h.015Zm-4.35-2.542a1.566,1.566,0,0,1,.213-.728.291.291,0,0,1,.112-.117.211.211,0,0,0,.057-.061,1.542,1.542,0,0,1,.2-.24.8.8,0,0,1,.294-.148.066.066,0,0,1,.075.018.046.046,0,0,1-.011.059c-.022.024-.049.048-.026.076a.1.1,0,0,0,.1.031c.109-.042.233-.056.334-.106.028-.016.057-.032.082,0s-.013.052-.042.061a2.031,2.031,0,0,1-.2.055c-.1.013-.173.1-.267.117a.112.112,0,0,0-.106.1c-.031.121-.091.226-.115.354a1.369,1.369,0,0,0-.051.423,1.361,1.361,0,0,1,.02.25c-.017.238.04.471.023.715,0,.045-.018.067-.047.106a.282.282,0,0,1-.288.133.124.124,0,0,1-.122-.06.732.732,0,0,1-.113-.312c-.035-.249-.077-.5-.126-.731m3.163,2.863a.1.1,0,0,1,0,.066c0,.03-.018.067.012.081s.043-.025.065-.041a.126.126,0,0,1,.035-.024c.023,0,.024.028.025.043a.694.694,0,0,1-.016.126c0,.03,0,.059.026.073s.043-.025.057-.048.026-.06.057-.032.01.051,0,.073a.194.194,0,0,0-.03.142c0,.044.033.065.075.041s.055-.1.107-.079.02.094.059.13a.123.123,0,0,1,.008.155,1.877,1.877,0,0,0-.088.174c.066-.018.106-.1.16-.045a.143.143,0,0,1,0,.176.778.778,0,0,0-.046.121c-.007.023-.027.053,0,.067s.043-.017.057-.033.027-.054.058-.033.017.051,0,.074-.063.069-.046.106c.056.085.008.155-.033.231-.014.023-.026.045,0,.074.058-.025.055-.091.09-.123.014-.016.028-.031.043-.017s.009.03.01.044a.533.533,0,0,1-.057.18c.088-.019.094-.013.078.077-.006.03-.019.06,0,.089.078.084.081.129,0,.207-.028.031-.042.047,0,.081s.048.064-.019.06c-.021,0-.051,0-.057.033a.065.065,0,0,0,.04.057c.023.014.052.019.04.049-.033.083.026.073.077.078.067.011.063.064.065.115s-.033.076-.084.078a.217.217,0,0,1-.176-.257c.007-.021.006-.044-.017-.05-.082-.012-.093-.084-.118-.134-.033-.073-.013-.1.069-.092a.123.123,0,0,1,.052.012c.03,0,.052,0,.05-.04s-.018-.05-.047-.041a.2.2,0,0,0-.066.018.179.179,0,0,1-.21-.079,1.594,1.594,0,0,0-.221-.395c-.031-.035-.048-.064.026-.075.03,0,.065-.025.026-.052-.084-.056-.053-.175-.138-.23-.023-.014-.017-.058.012-.074s.051,0,.043-.032-.032-.028-.055-.042a.4.4,0,0,1-.2-.181c-.024-.036,0-.089-.036-.124-.055-.064-.06-.167-.151-.214a.042.042,0,0,1-.017-.043.407.407,0,0,0-.036-.279v-.015a.368.368,0,0,0-.09-.3.218.218,0,0,1-.059-.159c0-.044-.025-.051-.06-.019s-.081.019-.1-.025c-.025-.065-.063-.063-.119-.038-.023.008-.051.025-.067,0s.02-.039.042-.046c.051-.01.057-.04.032-.083s-.018-.066.034-.068a.846.846,0,0,1,.239.047c.044.012.039.049.011.088-.014.016-.051,0-.057.048a.107.107,0,0,1,.123.082c.009.022.04.05.053.026.053-.113.088-.012.118.009.055.049.093.076.133-.007.019-.045.064-.041.074.01s.059.138.018.214c-.013.023-.019.052,0,.066s.043-.017.064-.033a.062.062,0,0,0,.03-.009h.007Zm.183-4.678a.882.882,0,0,1-.14-.008.1.1,0,0,0-.114.1,2.5,2.5,0,0,0-.076.521.079.079,0,0,1-.011.059.53.53,0,0,0-.057.336,3.757,3.757,0,0,1-.007.717.245.245,0,0,0,.009.163.045.045,0,0,1-.033.068.151.151,0,0,0-.077.218c.009.028.01.065-.026.075s-.031-.035-.04-.057-.018-.066-.063-.064-.042.032-.049.054c-.019.052-.042.047-.066,0-.04-.065-.076-.041-.118,0-.064.055-.135.1-.206.151-.028.023-.065.046-.1.019s-.018-.065-.02-.1.024-.1-.015-.139a.3.3,0,0,1-.055-.338c.013-.045.041-.075.038-.119-.009-.178.026-.349.033-.519a3.327,3.327,0,0,1,.109-.722c.012-.052.016-.111.1-.109.045,0,.035-.039.033-.068A.6.6,0,0,1,80,14.833a.329.329,0,0,0,.1-.144.157.157,0,0,1,.112-.124,1.8,1.8,0,0,0,.166-.075.545.545,0,0,1,.373-.072c.075.018.091.055.035.109-.077.071-.058.173-.1.256a.04.04,0,0,0,.033.057.355.355,0,0,0,.231.033.182.182,0,0,1,.249.113c.009.028.032.05,0,.081a.057.057,0,0,1-.074,0,.854.854,0,0,0-.334-.041h-.015Zm4.108.168a1.54,1.54,0,0,1-.094.456c-.014.015-.027.039-.041.054a.856.856,0,0,0-.226.345.145.145,0,0,1-.076.085.262.262,0,0,0-.1.078,3.419,3.419,0,0,0-.272.31c-.078.092-.122.22-.237.277a.087.087,0,0,0-.048.076c-.02.172-.167.193-.283.244a.072.072,0,0,1-.09-.025c-.024-.035,0-.066.017-.09a.2.2,0,0,0,.068-.107.115.115,0,0,1,.12-.1c.066,0,.051,0,.073-.018s.073-.026.056-.069-.052-.019-.082-.01c-.14.014-.271.043-.322.208a.046.046,0,0,1-.057.04c-.03-.006-.017-.043-.018-.065a1.858,1.858,0,0,1,.031-.275c.027-.179.092-.352.1-.537a.151.151,0,0,1,.018-.06c.143-.245.217-.514.337-.764a1.358,1.358,0,0,0,.162-.585.06.06,0,0,1,.019-.059,1.207,1.207,0,0,1,.176-.172,3.186,3.186,0,0,1,.619-.3l.052,0c.015,0,.036,0,.044.019a.383.383,0,0,1,0,.325.076.076,0,0,0-.019.06.166.166,0,0,0,.208.166c.074,0,.09.01.056.079s0,.074.056.064a.072.072,0,0,0,.07-.048c.031-.127.162-.171.207-.284a.082.082,0,0,1,.1-.042c.045.012.054.049.064.085a.185.185,0,0,0,.019.088c.01.051.055.056.092.055s.066,0,.063-.056c-.012-.081.041-.083.092-.085a.188.188,0,0,0,.2-.114.067.067,0,0,1,.072-.049c.038.006.045.027.063.064a.654.654,0,0,1,.038.294c0,.051-.041.068-.084.085s-.059,0-.083-.04c-.065-.107-.146-.1-.222,0a.123.123,0,0,1-.137.059c-.1-.046-.117.006-.135.081s-.266.147-.32.1a.143.143,0,0,0-.216-.033c-.115.065-.143.082-.13.214Zm2.86.729c.051,0,.124-.028.148.022s-.063.063-.091.094h-.007c-.12.094-.122.088-.216-.033-.04-.05-.068-.181-.2-.1-.02.016-.038-.02-.047-.05s-.032-.057-.084-.055a.1.1,0,0,1-.123-.1.227.227,0,0,0-.1-.142.085.085,0,0,1-.048-.064c-.008-.163-.217-.2-.211-.366,0,0-.015-.014-.023-.014a.259.259,0,0,1-.09-.32c0-.008.006-.023,0-.038s-.023-.006-.03,0c-.078.048-.175.045-.246.1s-.1.027-.122-.06.035-.178.031-.267a.262.262,0,0,1,.127-.25c.035-.024.056-.055.032-.1a.122.122,0,0,1,.042-.173.268.268,0,0,0,.11-.146c.036-.15.145-.192.268-.235a.474.474,0,0,1,.315-.047.31.31,0,0,0,.279-.036.258.258,0,0,1,.244,0,.222.222,0,0,1,.058.263.2.2,0,0,0-.015.148.185.185,0,0,1-.008.126c-.034.061,0,.081.056.079a.182.182,0,0,0,.074-.012c.08-.019.154-.023.2.072.025.057.068.04.1.009s.034-.047.056-.063.084-.093.111.017c0,.036.047.034.067.01.048-.083.107-.079.19-.053a.2.2,0,0,0,.11-.006,1.969,1.969,0,0,0,.352-.063c.043-.017.108-.035.127.052,0,.036.039.027.068.025a.774.774,0,0,0,.124-.021c.023,0,.051-.018.067.012s0,.043-.012.067a.227.227,0,0,1-.3.067.525.525,0,0,0-.151-.066c-.044-.013-.066,0-.056.047a.133.133,0,0,1-.074.137c-.065.04-.137.073-.2.106-.043.025-.067,0-.091-.039a.042.042,0,0,1,.011-.067c.021-.016.058-.018.033-.061s-.052-.019-.082-.01-.085.049-.131.022c-.107-.061-.118,0-.145.082-.018.059-.035.157-.14.14a.219.219,0,0,0-.211.048h-.008c-.058.018-.041.061-.039.106a4.73,4.73,0,0,1,.076.469.5.5,0,0,0,.259.43c.076.04.065.115.039.175s-.073.026-.117.014a.29.29,0,0,0-.223-.025.337.337,0,0,1-.3.016.045.045,0,0,0-.051.01c-.014.023,0,.028.017.043a.2.2,0,0,0,.2.063m-6.037,7.71c0-.089-.017-.176-.028-.264a.5.5,0,0,0-.064-.226c0-.007-.016-.021-.017-.036,0-.036-.034-.086.01-.1s.053.042.063.071a1.757,1.757,0,0,1,.088.268c0,.067.063.071.116.09.038.02.133.016.107.083s-.082-.01-.126-.015-.053-.034-.09-.018a.2.2,0,0,0,.123.068.516.516,0,0,1,.183.116c.063.071.081,0,.116-.028.05-.04,0-.051-.026-.073s-.061-.049-.092-.076a.078.078,0,0,1-.013-.1.8.8,0,0,0,.077-.506.07.07,0,0,1,.012-.052.133.133,0,0,1,.076.188v.015c.042.086,0,.207.082.291.039.042.048.072.014.117-.007.016-.02.031,0,.052.058-.018.077-.071.1-.116s.048-.069.078-.041c.093.076.177.006.234-.042.085-.064.124-.169.195-.239.1-.109.047-.239.122-.347.023,0,.032.028.033.05a.5.5,0,0,0,.085.225.027.027,0,0,0,.031.027c.023,0,.021-.023.02-.046a.186.186,0,0,1,0-.066c0-.044.032-.083.08-.033.071.077.1.031.145-.031a.773.773,0,0,0,.1-.381c.012-.052.033-.091.084-.086a2.531,2.531,0,0,0,.81-.2.734.734,0,0,0,.216-.092,1.075,1.075,0,0,1,.309-.172.433.433,0,0,0,.133-.125c.118-.139.228-.286.363-.417.027-.032.092-.065.052-.122a.159.159,0,0,0-.181-.064.474.474,0,0,0-.234.182,4.155,4.155,0,0,1-.485.475.919.919,0,0,1-.434.171c-.152.038-.3.119-.449.164a.26.26,0,0,1-.132.015.092.092,0,0,0-.109.035c-.014.016-.027.039-.05.017s-.017-.035-.011-.058c0,0,0-.015.007-.016.121-.1.107-.22.071-.357-.039-.176-.049-.353-.079-.528,0-.044-.056-.079-.058-.123a.443.443,0,0,0-.09-.3.047.047,0,0,1,0-.052c.013-.016.037,0,.052,0,.031.02.04.065.091.055-.01-.059-.055-.071-.093-.1a.2.2,0,0,1-.106-.178c0-.1,0-.192-.08-.255a.1.1,0,0,1-.017-.05.1.1,0,0,0-.058-.116.263.263,0,0,1-.09-.172c0-.015,0-.038.011-.045.065-.033.034-.068,0-.089s-.076-.063-.027-.116a.083.083,0,0,0,.012-.06A.252.252,0,0,1,83,19.5a.191.191,0,0,0,.015-.156,2.7,2.7,0,0,1-.082-.417c0-.089.059-.158.076-.24.006-.037.05-.032.08-.034a.24.24,0,0,0,.222-.13c.048-.091.131-.051.2-.04s.042.078.044.123c.035-.017.041-.054.061-.078a.046.046,0,0,1,.051-.017.029.029,0,0,1,.017.043c-.012.06-.016.111.079.114.052,0,.107.2.112.282.011.222-.074.432-.055.653a.828.828,0,0,0,.058.271.067.067,0,0,0,.04.057c.037,0,.035-.032.049-.061.026-.068.044-.143.063-.21.007-.015.006-.044.035-.046s.023.027.032.042a1.7,1.7,0,0,0,.5.758,1.284,1.284,0,0,1,.1.127c.025.035.069.048.1.076.085.076.212.078.289.14a1.41,1.41,0,0,1,.38.341.517.517,0,0,0,.123.1c.177.145.326.307.5.461.155.14.324.272.494.4a.187.187,0,0,1,.038.3c-.131.184-.246.389-.36.587a6.482,6.482,0,0,1-.37.552c-.124.184-.247.36-.385.537a2.112,2.112,0,0,1-.578.534.32.32,0,0,1-.2.032c-.067-.011-.127-.03-.2-.041,0,.051.047.057.072.092-.036.024-.067,0-.1,0a.562.562,0,0,0-.489.107.256.256,0,0,1-.174.053.343.343,0,0,0-.269.088.531.531,0,0,1-.295.141.442.442,0,0,0-.211.056c-.036.017-.052,0-.083-.025-.176-.116-.317-.279-.494-.4s-.363-.291-.533-.445-.023-.02-.038-.027-.039-.027-.059,0,0,.038,0,.052c.132.126.208.3.377.408a.955.955,0,0,1,.363.454.306.306,0,0,0,.314.2,1.61,1.61,0,0,1,.274.023.168.168,0,0,0,.2-.069.083.083,0,0,1,.072-.041,1.337,1.337,0,0,0,.565-.067,6.838,6.838,0,0,1,.746-.142l.044,0c.022,0,.043-.009.042-.039s-.039-.028-.06-.027l-.372.086c-.015,0-.028.016-.043.017-.038,0-.082,0-.1-.032s.034-.053.063-.063a1.2,1.2,0,0,1,.352-.069c.147-.008.285-.052.432-.06s.188-.076.234-.182c.013-.038.026-.06.064-.063a.163.163,0,0,0,.134-.1c.041-.076.1-.139.137-.207.109-.162.249-.308.36-.47a5.482,5.482,0,0,0,.483-.786c.039-.1.124-.169.155-.281,0-.015.014-.031,0-.044h-.023a7.519,7.519,0,0,1-.431.643c-.041.061-.051.143-.1.2a.544.544,0,0,1-.171.119c-.024-.027,0-.043.011-.059.2-.373.472-.719.667-1.091.027-.047.048-.077.081,0s.069.056.114.053.034-.055.033-.083a.083.083,0,0,1,.1-.094c.059,0,.081-.019.1-.072a.246.246,0,0,0-.1-.3c-.3-.242-.6-.492-.9-.743a4.9,4.9,0,0,1-.528-.5,3.972,3.972,0,0,0-.387-.326,3.789,3.789,0,0,1-.771-.772.545.545,0,0,1-.127-.3c0-.03-.012-.089.057-.048.015.007.03.014.036,0s0-.03,0-.045c-.057-.093-.036-.145.057-.2a.047.047,0,0,1,.044,0,.028.028,0,0,1,0,.044c-.015.016-.028.024-.035.039a.047.047,0,0,0,0,.045.027.027,0,0,0,.043-.009c.027-.054.054-.107.021-.164a.511.511,0,0,1-.026-.206c0-.066,0-.044.027-.045s.024.02.025.043c0,.066.019.094.085.076.043-.009.059.011.061.049,0,.14.109.26.066.41-.006.031.009.044.04.05a.126.126,0,0,1,.1.113.062.062,0,0,0,.032.05,1.7,1.7,0,0,1,.362.4c.064.092.183.123.276.2.177.154.39.268.582.406.008.007.023.02.031.02.147-.008.233.091.333.167.184.131.4.215.595.346.4.281.833.532,1.2.852.054.042.063.071.028.139a.461.461,0,0,0-.078.315.288.288,0,0,1-.09.263,2.894,2.894,0,0,0-.283.384c-.068.1-.183.165-.237.279-.079.159-.254.234-.356.388a2.306,2.306,0,0,1-.476.52c-.156.126-.272.309-.42.442-.282.244-.565.488-.855.725a1.546,1.546,0,0,1-.121.11c-.049.039-.093.041-.1-.032a.07.07,0,0,0-.084-.063,2.251,2.251,0,0,0-.622.107c-.131.043-.271.066-.394.116-.274.118-.566.185-.841.3-.023,0-.036.017-.057.048a.383.383,0,0,0,.088-.013,2.97,2.97,0,0,1,.506-.071.153.153,0,0,0,.081-.019.923.923,0,0,1,.4-.05.6.6,0,0,0,.228-.027.225.225,0,0,1,.117-.02,3.046,3.046,0,0,0,.572-.074.973.973,0,0,0,.239-.086,2.195,2.195,0,0,0,.7-.465,1.463,1.463,0,0,0,.281-.281c.027-.045.094-.042.137-.074a1.818,1.818,0,0,0,.288-.3.586.586,0,0,1,.241-.182.079.079,0,0,0,.064-.063.34.34,0,0,1,.116-.183.437.437,0,0,0,.116-.183.447.447,0,0,1,.172-.246,1.908,1.908,0,0,0,.258-.28.417.417,0,0,1,.056-.061.045.045,0,0,1,.059,0,.038.038,0,0,1,.01.058c0,.015-.014.024-.021.039-.033.068-.127.1-.092.211.018.066-.066.136-.107.2a.283.283,0,0,0-.039.112c-.01.09-.089.138-.122.214-.006.023-.043.032-.041.061.019.08-.03.134-.064.195a5.239,5.239,0,0,1-.39.589,3.95,3.95,0,0,1-.424.355c-.255.213-.543.375-.789.588a.959.959,0,0,1-.654.211c-.531.014-1.058.1-1.58.149-.015,0-.038,0-.036.017s.016.028.032.043a.416.416,0,0,0,.157.035,3.268,3.268,0,0,0,.546-.014l.413-.022a1.245,1.245,0,0,1,.439.066.6.6,0,0,0,.441-.024,1.069,1.069,0,0,1,.16-.052.833.833,0,0,0,.478-.327.93.93,0,0,1,.248-.2c.158-.083.284-.207.434-.3a2.7,2.7,0,0,1,.5-.322.481.481,0,0,0,.274-.265.871.871,0,0,1,.113-.242c.014-.016.027-.039,0-.052a.035.035,0,0,0-.042.025.7.7,0,0,0-.053.114.55.55,0,0,1-.144.2.071.071,0,0,1-.081.019c-.031-.02-.01-.051,0-.074.025-.075.058-.151.083-.233a.04.04,0,0,1,.021-.031c.149-.1.177-.268.251-.4a.091.091,0,0,1,.042-.047c.065-.025.064-.063.052-.129a.227.227,0,0,1,.094-.182.4.4,0,0,0,.165-.215c.044-.158.132-.3.183-.461a1.306,1.306,0,0,0,.063-.357.113.113,0,0,0-.075.114c.007.133-.083.241-.084.374,0,.036-.034.047-.072.033a.066.066,0,0,1-.042-.086c.094-.322.129-.656.215-.978.006-.037,0-.089.063-.085s.047.057.056.093v.015c0,.038-.01.1.027.094s.041-.061.039-.1c-.006-.111.018-.223.013-.34a.489.489,0,0,0-.173-.331q-.266-.208-.553-.392c-.253-.164-.519-.312-.778-.469-.068-.041-.163-.02-.218-.092a4.465,4.465,0,0,0-.456-.374.819.819,0,0,0-.191-.124.043.043,0,0,1-.032-.049c.007-.023.028-.017.051-.018a.282.282,0,0,0,.131-.028l.045,0c.182.078.395.06.576.154a1.8,1.8,0,0,1,.341.16.216.216,0,0,0,.122.059,1.112,1.112,0,0,1,.433.11,1.34,1.34,0,0,1,.3.14,1.141,1.141,0,0,0,.273.126c.052.019.127.052.108.1s-.081,0-.125,0a.49.49,0,0,1-.182-.086c-.015-.007-.031-.028-.052-.006s0,.038.01.045a3.016,3.016,0,0,0,.595.508c.084.04.086.1.032.175a.436.436,0,0,0-.075.4.281.281,0,0,1-.007.156c0,.03-.033.075,0,.088s.057-.04.071-.069a2.841,2.841,0,0,1,.144-.355c.026-.053.054-.106.08-.152a.182.182,0,0,0-.05-.263.38.38,0,0,1-.109-.112.872.872,0,0,0-.234-.231.035.035,0,0,1-.017-.044c.028-.023.059,0,.089,0,.221.114.453.183.666.3a3.588,3.588,0,0,0,.37.158.526.526,0,0,1,.278.214.68.68,0,0,0,.193.167.114.114,0,0,1,.057.108.625.625,0,0,1-.071.329.225.225,0,0,0-.032.112.938.938,0,0,1-.081.284,6.8,6.8,0,0,1-.295.71c-.082.145-.125.3-.2.454-.134.273-.29.532-.446.792-.082.138-.141.273-.23.411a2.4,2.4,0,0,1-.3.459.6.6,0,0,0-.088.152,5.707,5.707,0,0,1-.7.908c-.336.372-.7.717-1.059,1.075-.092.093-.144.222-.266.288-.015.008-.028.031-.042.032-.133.007-.232.093-.364.115a3.485,3.485,0,0,0-.859.251c-.022,0-.043.017-.065.018a3.3,3.3,0,0,0-.705.222,9.4,9.4,0,0,0-.983.413c-.015,0-.022.009-.036.017-.05.032-.115.058-.1.139s.085.069.137.081a1.556,1.556,0,0,0,.611-.039,7.227,7.227,0,0,0,.8-.19,7.392,7.392,0,0,0,.776-.284,1.286,1.286,0,0,1,.233-.057.684.684,0,0,0,.29-.11c.114-.088.254-.081.377-.139a2.582,2.582,0,0,0,.661-.507,9.692,9.692,0,0,0,1.135-1.315,4.623,4.623,0,0,0,.306-.489c.108-.2.216-.4.331-.6.081-.152.146-.31.212-.469a.616.616,0,0,1,.087-.152,1.117,1.117,0,0,0,.171-.282c.026-.061.091-.094.117-.155.053-.114.1-.226.144-.34,0-.007,0-.021.007-.021a.767.767,0,0,0,.173-.5,1.535,1.535,0,0,1,.134-.391c.091-.249.151-.51.256-.76a2.127,2.127,0,0,0,.077-.218c.025-.075.084-.093.139-.03s.068.026.079-.018c.013-.06.06-.122.006-.185-.016-.014,0-.044,0-.059a.741.741,0,0,0,.03-.282.179.179,0,0,0-.082-.137,1.52,1.52,0,0,0-.261-.185.2.2,0,0,1-.115-.223.512.512,0,0,0-.189-.5.133.133,0,0,0-.142-.03c-.057.033-.032.083-.023.134a1.582,1.582,0,0,1,.072.366c0,.045.04.064.057.1a.373.373,0,0,1-.271-.1,1.247,1.247,0,0,0-.587-.346.808.808,0,0,1-.334-.167,2.828,2.828,0,0,0-.668-.341.569.569,0,0,0-.247-.055c-.03,0-.059,0-.075-.025a.081.081,0,0,0-.1-.017c-.035.017-.066,0-.1-.017a2.266,2.266,0,0,0-.616-.218.546.546,0,0,1-.335-.182.327.327,0,0,0-.108-.1.628.628,0,0,1-.182-.234.155.155,0,0,1,.014-.171c0-.015.013-.023.028-.016s.015.014.024.028c.009.184.184.286.258.437a.094.094,0,0,0,.061.041c.03,0,.068.018.081-.011s-.009-.045-.025-.065a2.084,2.084,0,0,1-.328-.6c0-.022-.024-.035,0-.066.056.078.154.11.189.211a.158.158,0,0,0,.13.075.122.122,0,0,1,.1.068,2.068,2.068,0,0,0,1.025.8.071.071,0,0,0,.094-.027.074.074,0,0,0-.035-.094.784.784,0,0,0-.265-.126.947.947,0,0,1-.5-.248c-.031-.035-.085-.084-.043-.123s.1.01.129.046a.853.853,0,0,0,.14.14.133.133,0,0,0,.127.031.118.118,0,0,1,.1.039,1.836,1.836,0,0,0,.537.223.718.718,0,0,0,.358.069c.036,0,.075.033.121.045.181.072.367.114.548.179a4.247,4.247,0,0,1,.722.242c.128.067.264.119.393.179a3.445,3.445,0,0,1,.488.3.175.175,0,0,1,.048.056c.126.312.254.63.359.95a2.4,2.4,0,0,1,.123.5c.076.61.247,1.2.367,1.8.059.3.1.607.136.915a.607.607,0,0,0,.043.256.112.112,0,0,1-.01.1,3.752,3.752,0,0,0-.329.638,6.6,6.6,0,0,0-.385.973c-.019.06-.06.13,0,.171s.11-.014.16-.046a.781.781,0,0,0,.211-.2c.09-.1.181-.193.272-.295a1.3,1.3,0,0,0,.391-.855.954.954,0,0,1,.069-.373.777.777,0,0,0-.011-.487c-.084-.35-.162-.693-.254-1.043a3.809,3.809,0,0,0-.17-.56c-.009-.03-.018-.066-.027-.094-.049-.367-.156-.715-.211-1.083a3.394,3.394,0,0,0-.222-.7c-.076-.2-.147-.4-.238-.586-.008-.022-.017-.051,0-.066.064-.056.024-.1-.008-.163a.921.921,0,0,0-.4-.363,4.526,4.526,0,0,0-.813-.312l-.7-.23c-.09-.032-.057-.1-.038-.152s.066-.018.1-.006a.27.27,0,0,1,.152.1.414.414,0,0,0,.272.118c.023,0,.044.006.058-.017s-.017-.045-.039-.05a.867.867,0,0,1-.2-.07,2.2,2.2,0,0,1,.312.027,3.154,3.154,0,0,0,.467.057,4.548,4.548,0,0,1,.523.113c.044.006.09.025.134.031a.378.378,0,0,1,.344.344.772.772,0,0,0,.2.381c.016.02.044.012.067.011.074,0,.113.031.1.1s.028.117.116.1c.036,0,.038.02.047.042.026.086.053.167.08.254a.189.189,0,0,0,.11.127.19.19,0,0,1,.085.084c.112.164.224.335.337.5a.964.964,0,0,0,.159.229c.046.042.031.146.026.22a.428.428,0,0,0,.011.214c.051.116.051.256.166.346.053.042.051.123.012.207.086-.042.1.009.122.067a1.547,1.547,0,0,0,.164.316,2.941,2.941,0,0,1,.188.478c.017.043.027.094.044.137s.04.057.074.012a.368.368,0,0,0,.092-.226.235.235,0,0,1,.049-.18.325.325,0,0,0,.026-.208c-.01-.2-.065-.4-.09-.594-.016-.155-.118-.275-.125-.422s-.088-.114-.135-.177c-.056-.087-.069-.2-.155-.273s-.055-.2-.112-.3a.519.519,0,0,1-.025-.058c-.073-.107-.073-.114.06-.121,0-.052-.048-.05-.084-.055a.237.237,0,0,1-.162-.125.494.494,0,0,0-.111-.134c-.023-.028-.054-.057-.019-.088a.073.073,0,0,1,.1.009.611.611,0,0,0,.077.063.63.63,0,0,0-.159-.206.611.611,0,0,1-.244-.3.03.03,0,0,0-.031-.027,1.363,1.363,0,0,1-.424-.347c-.11-.127-.248-.224-.357-.337a2.686,2.686,0,0,0-.249-.238c-.154-.11-.273-.274-.481-.3-.164-.02-.322-.072-.492-.084a4.064,4.064,0,0,1-.59-.132,1.494,1.494,0,0,0-.537-.1,1.2,1.2,0,0,1-.353-.1c-.044-.013-.082-.025-.119-.039-.015,0-.031-.021-.025-.043s.03-.008.044,0H88.9c.044.019.114.06.133,0s-.063-.063-.1-.083a.674.674,0,0,0-.1-.047.07.07,0,0,1-.049-.071.192.192,0,0,0-.025-.2c.069.056.124.112.22.085,0-.059-.078-.085-.061-.174.04.049.078.091.11.126s.069.064.1,0c.006-.03.019-.052.057-.04.067.018.066-.011.056-.063a.578.578,0,0,1-.008-.162c.053.034.07.092.1.135s.085.076.142.021c.007-.008.02-.023.028-.024.076.048.163.007.238.025.127.038.247.075.375.113.188.057.368.129.556.2.091.032.195.049.293.073.037.014.082.018.1.061.043.109.139.111.228.114a.122.122,0,0,1,.138.082c.009.043.061.056.093.084a6.186,6.186,0,0,0,.479.4,3.074,3.074,0,0,1,.246.193,4.8,4.8,0,0,1,.39.385,1.165,1.165,0,0,1,.27.348c.033.073.122.082.163.147.1.157.243.29.356.447a2.4,2.4,0,0,0,.306.361c.117.1.048.064.072.1s.017.044.033.05c.183.124.261.334.4.489a.637.637,0,0,1,.092.2c.009.028.011.065.048.056s.027-.045.033-.068l-.006-.1a1.414,1.414,0,0,0-.152-.383.805.805,0,0,1-.085-.225,3.922,3.922,0,0,0-.333-.581.3.3,0,0,1-.041-.064c-.035-.249-.245-.3-.425-.362-.127-.046-.134-.038-.119-.164a.1.1,0,0,0-.05-.108,8.065,8.065,0,0,1-.618-.522,5.472,5.472,0,0,1-.627-.543c-.127-.164-.322-.213-.475-.338-.016-.013-.047-.027-.061-.041-.093-.224-.315-.234-.5-.313a2.678,2.678,0,0,1-.476-.19.2.2,0,0,1-.093-.083.165.165,0,0,1,.135.045.688.688,0,0,0,.316.116c.03,0,.067.011.08-.034a.065.065,0,0,0-.048-.071.356.356,0,0,1-.123-.083c-.032-.042-.026-.072.033-.075s.14-.007.174.08.13.074.22.1c-.018-.058-.077-.063-.094-.112.059,0,.117-.022.176-.024s.054.034.04.072,0,.066.057.085a.443.443,0,0,0,.259.031c.2-.01.382.091.58.066.089,0,.158-.083.255-.073.007,0,.013-.016.013-.031a.047.047,0,0,0-.046-.041c-.089,0-.092-.055-.088-.122,0-.015-.017-.035,0-.044a.06.06,0,0,1,.06.011c.1.165.281.163.439.214a.232.232,0,0,1,.162.124,1.258,1.258,0,0,1,.13.363c.012.1.1.15.139.243a6.035,6.035,0,0,0,.341.6.951.951,0,0,1,.094.247.113.113,0,0,0,.057.085c.015.007.031.021.052.013a.033.033,0,0,0,.019-.046,2.678,2.678,0,0,0-.173-.479.606.606,0,0,1-.11-.267.775.775,0,0,0-.08-.255c-.032-.05-.028-.124-.053-.174a1.717,1.717,0,0,1-.1-.32.784.784,0,0,0-.144-.214.365.365,0,0,0-.331-.116c.1-.006.212-.041.3.043a.941.941,0,0,0,.192.145.11.11,0,0,0,.09.024c-.018-.065-.085-.084-.124-.118s-.068-.034-.041-.072a.067.067,0,0,1,.089,0,.2.2,0,0,1,.126.156c0,.081,0,.036,0,.051.017.036.02.1.065.1s.011-.067.009-.1a.085.085,0,0,1,.025-.083.358.358,0,0,1,.033.213.088.088,0,0,0,.058.115c.008,0,.023.006.023.014.028.117.142.163.2.248a.175.175,0,0,0,.212.084.1.1,0,0,1,.044.006.045.045,0,0,1,0,.059.089.089,0,0,0,.006.11c.04.042.013.088.007.132s-.018.06.012.074.035-.024.057-.04.011-.075.056-.063.018.051.026.08a.191.191,0,0,1,0,.178c.044,0,.033-.076.078-.049s.025.065.019.094a1.228,1.228,0,0,1-.089.279c-.006.023-.026.053,0,.066s.043-.024.049-.055a.15.15,0,0,1,.011-.059.039.039,0,0,1,.05-.032c.023.006.017.028.017.043a.377.377,0,0,0,.023.154c0,.023.01.045.04.042s.02-.031.019-.052a.284.284,0,0,1,0-.081,1.588,1.588,0,0,1,.319.427.106.106,0,0,1-.017.1.141.141,0,0,0,.01.2.087.087,0,0,1,.026.073,1.775,1.775,0,0,0,.048.345.133.133,0,0,0,.154.11c.036,0,.035-.032.041-.055.017-.1-.01-.2.082-.27.008,0,.006-.03,0-.044-.034-.08,0-.074.064-.055.038.012.059,0,.05-.04a.325.325,0,0,1,.03-.142c.026-.054-.012-.1-.058-.123A.427.427,0,0,1,95,20.259a1.668,1.668,0,0,0-.193-.44c-.008-.015-.016-.03-.025-.051s-.032-.057,0-.081.046.013.068.018c.074.019.1.114.184.145a.4.4,0,0,0-.155-.28c-.078-.069-.054-.026-.081,0a.072.072,0,0,1-.121-.038c-.009-.038,0-.059.042-.055.022,0,.038.013.082.025a.168.168,0,0,0-.131-.1.071.071,0,0,1-.076-.041,3.23,3.23,0,0,0-.62-.838c-.086-.092-.193-.16-.264-.253s-.215-.151-.266-.281c-.034-.088-.144-.074-.219-.1a1.27,1.27,0,0,0-.445-.02c-.147.008-.4.014-.6.024-.331.017-.662.034-.987.044-.184,0-.367.026-.552.028a.273.273,0,0,1-.082,0,.049.049,0,0,1-.046-.05.053.053,0,0,1,.041-.053.4.4,0,0,1,.183-.032,2.993,2.993,0,0,0,.575-.044c.3-.06.6-.032.9-.092a.2.2,0,0,1,.218.077c.048.064.187.042.236-.019.09-.124.072-.174-.084-.2a.73.73,0,0,1-.217-.048c0-.036.035-.045.057-.047.043-.017.1-.006.115-.073.013-.038.08-.026.118,0,.053.049.134.023.188.057a.046.046,0,0,0,.043-.01c.025-.082.078-.056.137-.051a.3.3,0,0,0,.117-.021.256.256,0,0,1,.211-.055c.1.009.189-.055.287-.016h.03c.032-.1.137-.081.2-.122.035-.024.072-.04.091-.085a.067.067,0,0,1,.079-.049c.1,0,.166-.075.253-.131-.083-.018-.124.05-.19.039.009-.1.106-.093.154-.163a1.868,1.868,0,0,0-.286.044l-.349.107a.086.086,0,0,1-.109-.1c.018-.068.043-.025.058-.018a.362.362,0,0,0,.177-.009c.036-.009.065-.018.077-.064s.078-.056.131-.051c0,.044-.042.047-.048.092.147-.023.251-.139.407-.125-.017-.051-.053-.042-.083-.048s-.044,0-.045-.019.012-.031.027-.045a.4.4,0,0,0,.14-.148c.012-.031.04-.076,0-.1s-.051.017-.073.033a.306.306,0,0,1-.13.066c-.022,0-.051.01-.059-.012-.057-.1-.1-.04-.148.008-.028.023-.064.047-.1.072a.046.046,0,0,1-.052,0c-.016-.021.006-.03.02-.045s.078-.048.089-.123c-.151.06-.2.232-.363.256a.181.181,0,0,1,.1-.154c.021-.016.058-.025.034-.054s-.045,0-.066.012c-.065.033-.09.108-.148.148-.014.016-.034.053-.057.025s0-.044.025-.067.1-.058.084-.1-.065.026-.11.02a.19.19,0,0,0-.195.077c-.028.031-.082-.01-.1.019-.084.086-.25.021-.317.157,0,.015-.028.017-.036,0a.027.027,0,0,1,.012-.038c.007-.008.022-.016.028-.024s.034-.039.011-.059-.045,0-.058.017c-.034.047-.063.077-.111.021,0-.008-.036-.006-.043,0-.07.063-.163,0-.234.056.048-.091.126-.147.166-.23.026-.046.053-.092.015-.141a.037.037,0,0,1,.018-.06c.03-.009.038.013.047.034.02.1.056.086.111.024s.065-.04.1-.049a1.78,1.78,0,0,0,.334-.107.74.74,0,0,1,.419-.036A.8.8,0,0,0,94,15.99c.058-.025.109-.035.157.036.032.05.238.024.272-.03.021-.031,0-.044,0-.066s.011-.067.027-.046c.064.085.149.036.225.061a1.056,1.056,0,0,0,.309-.016c.1-.006.049-.032.063-.069s.048-.063.081,0,.053.041.09.032l.265-.035c.051,0,.094-.013.076-.085,0-.023-.009-.044.012-.06s.038.013.053.027a.1.1,0,0,0,.112.031l.764-.2c.015,0,.038,0,.044-.017.039-.1.122-.073.189-.055s.074,0,.056-.054c0-.03,0-.051.026-.06a.039.039,0,0,1,.047.042c0,.051.032.042.061.026a2.35,2.35,0,0,1,.32-.1c.065-.018.122-.073.2-.056.023,0,.035-.024.042-.053s-.006-.089.04-.076,0,.059,0,.089c.037.012.066,0,.1-.006s.073-.018.063-.069c0-.03,0-.066.033-.083s.044.012.06.041a.055.055,0,0,0,.083.018c.043-.017.109-.02.106-.094s.012-.067.049-.04c.1.069.17.014.234-.049a.238.238,0,0,1,.13-.066,1.782,1.782,0,0,0,.367-.167,4.633,4.633,0,0,0,.652-.389,2.638,2.638,0,0,0,.5-.373c.118-.124.254-.234.38-.359a4.9,4.9,0,0,0,.677-.745c.1-.152.183-.32.279-.472a6.328,6.328,0,0,0,.317-.719,6.732,6.732,0,0,0,.208-.661,3.312,3.312,0,0,0,.133-.709,2.522,2.522,0,0,0-.077-.911,4.238,4.238,0,0,0-.4-.925,1.281,1.281,0,0,0-.258-.274c-.063-.064-.119-.157-.223-.173-.023,0-.024-.028-.025-.043s0-.052-.025-.058a.29.29,0,0,1-.2-.145c0-.023-.058,0-.08.018-.035.032-.011.067.019.088a1.511,1.511,0,0,1,.123.1c.229.26.449.523.655.8.08.107.072.225.121.327a.549.549,0,0,1,.071.218c0,.081,0,.036.024.035.119.023.08.107.053.167s-.039.112.038.152a.068.068,0,0,1,.026.073,6.388,6.388,0,0,0-.08.743,2.949,2.949,0,0,1-.134.672c-.026.075-.036.157-.063.232a2.594,2.594,0,0,1-.189.476,3.313,3.313,0,0,1-.546.988c-.057.063-.1.132-.152.193-.154.185-.346.328-.513.5a4.642,4.642,0,0,1-.71.562,5.033,5.033,0,0,1-.622.38c-.094.041-.173.1-.266.139a9.017,9.017,0,0,1-.945.426,3.317,3.317,0,0,1-.35.085c-.242.042-.472.157-.713.2-.521.086-1.028.261-1.565.3-.1,0-.191.04-.295.038a.5.5,0,0,1-.29-.045.126.126,0,0,0-.089,0,.2.2,0,0,1-.1-.01c-.022-.006-.045-.019-.039-.042s.021-.031.042-.039a2.046,2.046,0,0,1,.307-.06,2.884,2.884,0,0,0,.414-.14.47.47,0,0,1,.174-.053,1.47,1.47,0,0,0,.465-.143c.116-.043.233-.064.349-.114.245-.109.5-.2.736-.334.15-.082.309-.149.453-.231a1.45,1.45,0,0,1,.389-.2c.145-.037.135-.1.2-.151a.756.756,0,0,1,.264-.162.466.466,0,0,0,.207-.143.076.076,0,0,1,.057-.04c.1.009.159-.068.223-.131s.051-.135-.046-.159l-.082,0c-.028,0-.058,0-.067-.026a.06.06,0,0,1,.019-.059c.02-.024.049-.033.073,0a.441.441,0,0,0,.336.049h.036a3.482,3.482,0,0,1,.834-.155l.052,0a5.391,5.391,0,0,0,.666-.234,2.434,2.434,0,0,0,.319-.142c.02-.016.05-.017.048-.053a.986.986,0,0,0-.408.094.427.427,0,0,1-.189.061.161.161,0,0,0-.1.035c-.022.016-.05.032-.074,0-.047-.057-.082-.026-.1.027s-.061.078-.131.036c-.023-.014-.06-.019-.09-.033a.2.2,0,0,1,.115-.065c.255-.073.5-.166.747-.261.188-.069.35-.2.547-.258.03,0,.058-.025.049-.053s-.046-.027-.067-.026a.422.422,0,0,0-.225.085,2.682,2.682,0,0,1-.3.134c-.022,0-.057.04-.074,0s.019-.052.041-.068c.072-.049.151-.075.223-.115s.142-.118.246-.109c.015,0,.028-.017.035-.039a.373.373,0,0,1,.225-.211.211.211,0,0,0,.1-.08.1.1,0,0,0,.024-.1c0-.022-.031-.027-.053-.026a.1.1,0,0,0-.1.072c-.01.089-.048.084-.109.042a.118.118,0,0,0-.173.068c-.026.075-.034.053-.072.056l-.051,0a2.625,2.625,0,0,1-.307.194c-.015,0-.02.03-.043.031a4.767,4.767,0,0,0-.645.374c-.123.058-.236.131-.351.2-.015,0-.022.016-.038,0a.866.866,0,0,0-.466.106,3.513,3.513,0,0,1-.389.064c.255-.086.316-.326.431-.524a6.232,6.232,0,0,0,.3-.806,1.845,1.845,0,0,0,.13-.627.622.622,0,0,0-.033-.346c-.016-.028,0-.059,0-.089,0-.066.023-.134-.068-.166-.03-.014-.031-.028,0-.045.079-.056.06-.128.019-.193a.077.077,0,0,1,0-.1c.047-.083-.009-.169-.028-.249a4.153,4.153,0,0,0-.282-.879,4.251,4.251,0,0,1-.225-.49,3.983,3.983,0,0,0-.49-.765,4.349,4.349,0,0,0-.427-.531c-.11-.119-.191-.263-.308-.367a.287.287,0,0,1-.106-.2c0-.082,0-.074-.042-.086s-.066,0-.085.049-.05.032-.082,0A.141.141,0,0,1,97,6.579c.01-.1-.03-.139-.126-.164a1.566,1.566,0,0,1-.221-.114c-.038-.021-.09-.025-.113-.046-.085-.069-.183-.094-.267-.156-.053-.034-.078-.092-.151-.066s-.052-.019-.068-.041a.113.113,0,0,0-.158-.058c-.015,0-.028.016-.044-.006a.387.387,0,0,0-.34-.144h-.03c-.048-.064-.129-.059-.182-.093a1.141,1.141,0,0,0-.271-.082.145.145,0,0,1-.076-.056.1.1,0,0,0-.1-.039.042.042,0,0,0-.042.047.111.111,0,0,0,.064.085.426.426,0,0,0,.256.09c.1-.006.052,0,.068.018a3.021,3.021,0,0,0,.363.166c.023.006.045.027.066,0,.063-.077.058-.018.068.026s.017.05.047.049a4.351,4.351,0,0,1,.747.294.453.453,0,0,1,.152.11.857.857,0,0,0,.268.177.059.059,0,0,1,.041.08c0,.021-.012.038-.042.046s-.038-.013-.046-.035a.091.091,0,0,0-.13-.067c-.073.019-.164-.035-.218.049,0,.015-.03,0-.044,0a.569.569,0,0,0-.415-.03.4.4,0,0,1-.1-.017c-.068-.019-.135-.046-.175.053-.019.052-.064.048-.082-.011-.017-.043-.033-.072-.084-.061s-.1.006-.115.065c0,.023,0,.044-.034.053s-.031-.027-.039-.042c-.018-.066-.077-.055-.122-.052-.073.01-.018.074-.024.1-.012.059.047.041.076.04a7.007,7.007,0,0,1,.789-.011c.3.014.607.027.905.071.059.011.1.039.1.1a.187.187,0,0,0,.11.142c.092.055.142.163.22.232a4.254,4.254,0,0,1,.537.667c.064.085.127.177.2.263a2.94,2.94,0,0,1,.327.573,4.029,4.029,0,0,1,.19.537,5.539,5.539,0,0,1,.18.6,3.546,3.546,0,0,1,.085.785l.023.443a.921.921,0,0,1-.047.379,5.153,5.153,0,0,1-.234.744,2.324,2.324,0,0,1-.472.719.118.118,0,0,0-.048.069c-.017.1-.09.115-.163.134-.314.075-.628.143-.933.241a.549.549,0,0,1-.288.015.8.8,0,0,0-.549.088c-.035.024-.058.018-.054-.034.012-.074-.024-.043-.053-.026a.652.652,0,0,0-.084.071c-.03.016-.049.069-.082,0-.016-.036-.066,0-.1.019s-.066.144-.145.038h-.015c-.068.107-.225.056-.286.177-.014.03-.057.04-.1.042a.218.218,0,0,1-.272-.111c-.115-.215-.308-.236-.535-.187a.208.208,0,0,0-.162.149c-.026.075-.069.085-.138.066a.225.225,0,0,1-.067-.018.662.662,0,0,0-.571.1c-.244.138-.456.312-.709.436-.036.017-.078.056-.109.02a.389.389,0,0,1-.127-.163.066.066,0,0,1,.048-.069.472.472,0,0,0,.254-.242.162.162,0,0,1,.107-.08,5.5,5.5,0,0,1,.946-.256l.052,0a1,1,0,0,1,.67-.035,1.4,1.4,0,0,0,.258,0c.074,0,.065-.033.048-.084s-.085-.069-.131-.1a2.224,2.224,0,0,1,.549.046c.036,0,.074.018.1.016s.082,0,.085-.064a.071.071,0,0,1,.085-.063,3.555,3.555,0,0,0,.479-.025c.163-.009.09.009.117-.028.026-.053-.026-.081-.051-.131a.9.9,0,0,0,.312-.119,1.151,1.151,0,0,0,.408-.243c.134-.117.275-.235.418-.347a1.123,1.123,0,0,0,.326-.394c.014-.023.042-.039.011-.059s-.051,0-.066,0a1.791,1.791,0,0,0-.208.114c-.243.145-.48.3-.724.437a2.34,2.34,0,0,1-.528.213c-.023,0-.051.017-.067,0s0-.038.013-.06.041-.061.01-.089a.07.07,0,0,0-.1,0l-.651.256c-.023,0-.05.032-.074,0s0-.052.01-.075a.068.068,0,0,1,.02-.038c.014-.023.027-.053,0-.074s-.059-.012-.088,0a.043.043,0,0,0-.043.024,1.348,1.348,0,0,1-.522.19c-.066.018-.082-.018-.057-.085.013-.031.056-.069.025-.1s-.067-.012-.1.006a2.866,2.866,0,0,0-.554.125.111.111,0,0,1-.118.006c-.039-.034,0-.066.017-.1.007-.015.014-.03,0-.044a.047.047,0,0,0-.066,0c-.151.09-.321.1-.472.173a.512.512,0,0,1-.138.044l-.051,0c-.015,0,0-.036,0-.052.019-.045.084-.092.038-.134s-.1.006-.155.023a3.508,3.508,0,0,1-.611.173c-.023,0-.043.017-.059,0s0-.044,0-.066a.422.422,0,0,1,.027-.053c.013-.031.026-.06,0-.089s-.06-.019-.09-.01c-.065.026-.137.052-.2.085-.143.081-.312.1-.448.178a.1.1,0,0,1-.111-.009.174.174,0,0,0-.178-.027c-.372.078-.748.1-1.122.169a.092.092,0,0,1-.082-.026c-.048-.064-.121-.044-.187-.034a4.724,4.724,0,0,0-.626.188,2.922,2.922,0,0,1-.822.229c-.339.032-.681.116-1.02.126a12.651,12.651,0,0,0-1.284.157,5.732,5.732,0,0,0-1.16.274,8.362,8.362,0,0,0-1.086.427.259.259,0,0,0-.078.049c-.133.14-.276.081-.433.052-.178-.035-.364-.056-.544-.083l-.512-.061a.39.39,0,0,0-.207.01.351.351,0,0,1-.311-.013.9.9,0,0,0-.469-.057,8.988,8.988,0,0,0-1.169.231,1.852,1.852,0,0,0-.828.42.086.086,0,0,1-.08.034.451.451,0,0,0-.2.018,2.877,2.877,0,0,0-.57.273,5.671,5.671,0,0,0-.555.385,3.194,3.194,0,0,0-.745.74c-.061.239-.262.346-.432.48a1.844,1.844,0,0,0-.284.348c-.16.2-.289.421-.448.621-.061.085-.1.19-.156.274a4.269,4.269,0,0,0-.428.7.69.69,0,0,0-.056.349c0,.074.007.133-.073.174a.078.078,0,0,0-.041.061,7.491,7.491,0,0,0-.188.918c-.038.423-.1.847-.156,1.264a2.284,2.284,0,0,0-.021.859.954.954,0,0,1-.1.618c-.065.166-.123.339-.2.505-.164.4-.334.8-.505,1.2a.914.914,0,0,0-.042.467c0,.03,0,.052.033.065a.108.108,0,0,1,.052.152,3.024,3.024,0,0,0-.053.97l.017.324c.061.6.108,1.214.148,1.824a1.249,1.249,0,0,0,.2.6,3.74,3.74,0,0,1,.3.678c.078.225.207.425.3.643.075.158.2.292.282.45a.065.065,0,0,0,.084.04c.073-.019.1.024.115.082a.92.92,0,0,0,.172.316.261.261,0,0,0,.2.086c.073,0,.071-.064.075-.115a2.12,2.12,0,0,0,0-.488c-.061-.477-.05-.958-.075-1.443a11.4,11.4,0,0,1,.035-1.3,6.666,6.666,0,0,0-.027-.943.427.427,0,0,0-.027-.1.181.181,0,0,1,.013-.192.448.448,0,0,0,.021-.3,2.528,2.528,0,0,0-.311-.841c-.024-.043-.025-.065.033-.083A.3.3,0,0,0,76,25.479c.055-.092.156-.134.2-.232.02-.039.064-.041.117-.022-.071-.069-.043-.108.022-.156a1.038,1.038,0,0,0,.247-.346c.082-.136.172-.259.254-.39.108-.2.231-.388.323-.593a1.075,1.075,0,0,1,.16-.333.023.023,0,0,0,.006-.015c-.024-.176.118-.295.168-.453.007-.023.019-.06.058-.04a.06.06,0,0,1,.04.072c-.015.126,0,.141.133.141.11-.006.134.015.132.126-.014.576.134,1.145.165,1.719s.072.24.172.323.008.007.016.014a.438.438,0,0,0,.26-.088.085.085,0,0,0,0-.125,2.243,2.243,0,0,1-.279-.813,4.6,4.6,0,0,0-.1-.548.224.224,0,0,1,0-.155c.045.013.039.042.04.064.061.315.136.629.19.943a1.052,1.052,0,0,0,.145.355c.065.107.136.214.2.329a.115.115,0,0,0,.092.048c.074.018.16-.031.231.047.024.028.028-.016.042-.04A1.323,1.323,0,0,0,79.1,24.8c-.009-.176.019-.052.057-.04a.186.186,0,0,0,.111.016.2.2,0,0,0-.107-.068c-.046-.019-.076-.055-.064-.1s.065-.019.1-.014.045.035.082.01a.2.2,0,0,0-.123-.082.083.083,0,0,1-.06-.019.105.105,0,0,1-.034-.1c.019-.038.045.006.074,0s.044.013.066-.01c-.04-.042-.121-.031-.152-.089-.017-.028-.055-.056-.035-.093s.066-.011.1,0a.076.076,0,0,0,.082.01.97.97,0,0,0-.154-.11.159.159,0,0,1-.08-.114.563.563,0,0,0-.06-.159c-.033-.073-.059-.138.059-.143,0-.045-.047-.035-.069-.041a.079.079,0,0,1-.076-.063c-.01-.036.026-.046.049-.055s.035-.017.034-.039-.023-.02-.046-.019-.066.01-.06-.027.036-.024.058-.025a.074.074,0,0,0,.072-.048c.006-.023.019-.046,0-.059s-.036,0-.051,0-.036.016-.051.017a.076.076,0,0,1-.067-.018c-.017-.03.013-.046.034-.054s.043-.017.042-.046-.039-.021-.061-.027-.03,0-.036,0a1.21,1.21,0,0,0-.114-.187c-.016-.028.043-.032.064-.063-.134-.015-.14-.118-.159-.221,0-.022,0-.059-.018-.065-.107-.053-.1-.135-.093-.232,0-.059.015-.133-.047-.175a.043.043,0,0,1,0-.043c.057-.048.069-.085-.026-.088a.041.041,0,0,1-.04-.035c0-.021.021-.031.035-.039.073-.018.049-.055.01-.089s-.078-.092-.16-.1c-.052,0-.108-.083-.176-.117-.038-.013.015-.148.065-.18a.581.581,0,0,0,.057-.033c.022-.016.034-.068.064-.055s-.012.052,0,.073a.171.171,0,0,0,.056.078c.016.022.044.006.035-.016-.01-.051.024-.119-.038-.162-.031-.02-.025-.05,0-.073a.051.051,0,0,1,.081,0,.174.174,0,0,0,.172.035.083.083,0,0,1,.073.129.585.585,0,0,0,.018.354c.011.066.036.132.056.2.057-.033.018-.083.044-.129a.121.121,0,0,1,.05.1,2.1,2.1,0,0,1,0,.3.361.361,0,0,0,.121.318.289.289,0,0,0-.023-.154c-.016-.021-.04-.05,0-.066a.057.057,0,0,1,.075.018.333.333,0,0,1,.083.18c0,.074.025.183.036.272a.375.375,0,0,0,.069.188,1.089,1.089,0,0,1,.117.393c.048.2.132.406.165.619a.223.223,0,0,0,.112.157c.039.02.076.033.1-.006.049-.055.088-.026.134.023-.065-.255-.13-.488-.193-.729a.025.025,0,0,0,.021-.008.626.626,0,0,1,.108.231,1.133,1.133,0,0,0,.251.437c.086.092.139.1.238.017a.07.07,0,0,1,.1,0c.031.02.048.057.092.061,0-.045-.033-.057-.063-.071a.336.336,0,0,1-.1-.313c.012-.037.042-.032.065-.018.076.041.173.05.236.121.008.015.031.021.06.012-.011-.074-.092-.069-.132-.111a.138.138,0,0,0-.06-.026c-.119-.031-.217-.071-.211-.225a.252.252,0,0,0-.067-.167.29.29,0,0,1-.034-.087,2.009,2.009,0,0,0-.17-.545.057.057,0,0,1,.018-.083.079.079,0,0,1,.1,0c.039.027.069.063.121.052a.066.066,0,0,0,.051-.017c.014-.023-.009-.028-.017-.043a.522.522,0,0,0-.259-.157c-.015-.006-.038,0-.052-.019-.039-.02-.069-.048-.064-.092s.057-.033.093-.034.038.013.059,0c-.031-.035-.067-.026-.1-.032s-.081,0-.084-.047.042-.04.072-.041.052,0,.05-.032-.031-.028-.052-.027a.14.14,0,0,1-.143-.051c0-.008-.024-.021-.017-.028.04-.106-.073-.13-.1-.2-.008-.022-.039-.042-.01-.066s.038.014.059.013a.6.6,0,0,0,.263.067.239.239,0,0,0-.192-.131.3.3,0,0,1-.3-.25c-.009-.051-.064-.1-.1-.142-.008-.015-.024-.035,0-.059a.046.046,0,0,1,.052,0,.045.045,0,0,1,.03.006c.03,0,.059.011.073-.018s-.032-.035-.047-.042c-.075-.026-.123-.09-.2-.1a.032.032,0,0,1-.031-.028c0-.015.014-.023.035-.031s.066,0,.064-.041-.046-.034-.075-.033-.067,0-.061-.048a.445.445,0,0,0-.084-.2c-.009-.021-.032-.035-.041-.064a1.171,1.171,0,0,0-.085-.217,3.145,3.145,0,0,1-.191-.412.112.112,0,0,0-.017-.043c-.017-.043-.125-.134.047-.106.03,0,.056-.061.1-.012s.1.083.09.165a.131.131,0,0,0,.119.156c.1.025.111.135.172.191.039.035.05.093.116.082h.015c.044.145.25.127.281.288,0,.036.173.073.208.041s.019-.06,0-.089-.058-.115.008-.133c.05-.018.061.056.079.1.026.065.089.143-.034.187-.015,0-.014.023-.006.03.057.1.106.195.163.287.008.022.031.028.06.019a.043.043,0,0,0,.01-.067.773.773,0,0,1-.067-.159.057.057,0,0,1,.033-.083c.043-.017.046.027.055.057a.538.538,0,0,0,.083.18.519.519,0,0,1,.057.234c.008.147-.022.3.089.431a.049.049,0,0,1-.01.082c-.049.047-.054.083.026.08s.06.011.055.049a4.426,4.426,0,0,0,.106.614.46.46,0,0,0,.033.206,4.309,4.309,0,0,0,.132.679c.01.051.04.058.084.063.1,0,.2.026.254-.088a.027.027,0,0,1,.036-.016.073.073,0,0,1,.041.079c-.017.09.052.152.072.233a.043.043,0,0,0,.032.042c.03,0,.035-.024.034-.045a.265.265,0,0,0-.06-.174.634.634,0,0,1-.123-.356c.06.019.071.071.094.106a.75.75,0,0,0,.345.381c.038.012.071.071.1.106s.039.049.075.025.019-.052,0-.074c-.046-.049-.093-.106.032-.112s.027-.032.034-.046c0-.059.016-.119.02-.171v-.015l-.056.061Z" transform="translate(-58.117 -4.317)" fill="#030382"/>
          <path id="Path_21" data-name="Path 21" d="M35.064,4.021c-.009.1.034.086.092.069a6.885,6.885,0,0,1,1.447-.3c.132-.022.263-.051.4-.065a2.251,2.251,0,0,1,.546,0c.282.015.563.023.844.03a3.7,3.7,0,0,1,.564.052c.223.04.446.058.67.1.126.023.26.045.387.06.09.018.18.05.276.06a.379.379,0,0,1,.24.068c.031.028.06.026.074-.011S40.609,4,40.572,4c-.081,0-.145-.089-.231-.055a.057.057,0,0,1-.045-.013.39.39,0,0,0-.313-.057c-.03.009-.044-.006-.053-.034-.018-.058-.063-.071-.122-.06a.29.29,0,0,1-.246-.047.053.053,0,0,0-.031-.013c-.148.007-.284-.067-.424-.067a2.289,2.289,0,0,1-.461-.042c-.09-.025-.176.009-.267-.031-.052-.019-.094.027-.114.1-.019-.1-.084-.077-.144-.089-.1-.032-.211.041-.319-.012h-.03c-.175.024-.347-.011-.516,0a3.227,3.227,0,0,0-.581.059,1.664,1.664,0,0,0-.261.066.713.713,0,0,1-.221.026,1.83,1.83,0,0,0-.338.04c-.036,0-.1-.009-.085.072,0,.028-.035.031-.058,0a.168.168,0,0,0-.164-.014,2.327,2.327,0,0,1-.283.1c-.117.021-.217.071-.335.084-.051,0-.1,0-.122.073-.006.03-.019.038-.043.009-.056-.064-.112-.031-.17-.013-.357.1-.721.2-1.077.307a.976.976,0,0,0-.29.1.18.18,0,0,1-.11.021.152.152,0,0,0-.162.142c-.021-.11-.085-.077-.143-.052a5.3,5.3,0,0,1-.734.239,8.546,8.546,0,0,0-.834.309c-.137.059-.282.1-.42.162-.266.125-.525.257-.8.375a3.675,3.675,0,0,0-.482.247c-.243.152-.487.3-.738.43-.309.156-.611.328-.9.505-.258.147-.516.3-.765.469-.422.266-.812.574-1.218.854a3.643,3.643,0,0,0-.434.311c-.268.235-.585.407-.869.622-.39.308-.772.616-1.163.91-.221.167-.44.341-.652.522s-.425.347-.63.536c-.239.218-.48.423-.735.629s-.5.432-.742.652l-.529.471a5.555,5.555,0,0,0-.519.53c-.147.17-.332.3-.486.461a3.025,3.025,0,0,0-.266.273,9.523,9.523,0,0,1-.743.77c-.288.288-.591.57-.855.879a1,1,0,0,1-.163.149,1.9,1.9,0,0,0-.3.251,11.265,11.265,0,0,1-.838.783c-.488.4-.968.819-1.449,1.228l-.616.5c-.241.19-.482.386-.731.578a9.022,9.022,0,0,1-1.068.75,2.868,2.868,0,0,0-.42.317c-.169.142-.355.263-.533.39-.292.2-.569.414-.845.636a7.316,7.316,0,0,1-.742.511c-.444.282-.887.549-1.322.853a6.244,6.244,0,0,1-1.253.745c-.261.1-.457.3-.711.4-.217.085-.417.206-.643.278a2.854,2.854,0,0,1-.414.14.119.119,0,0,0-.05.017c-.03.016-.073.026-.07.063s.052.019.082.018a1.53,1.53,0,0,0,.736-.2c.143-.074.311-.119.454-.2a.965.965,0,0,0,.243-.152.393.393,0,0,1,.311-.135l.052,0c.342-.232.7-.428,1.043-.661s.685-.479,1.043-.689c.25-.154.532-.272.767-.447.085-.063.17-.126.263-.191a5.236,5.236,0,0,0,.463-.326c.155-.149.357-.233.512-.389a1.449,1.449,0,0,1,.279-.184c.092-.064.177-.127.263-.191.334-.247.693-.457,1.019-.711.213-.166.419-.332.624-.5s.432-.333.638-.506c.283-.229.59-.437.858-.68.4-.369.843-.7,1.244-1.069.106-.094.226-.182.34-.27a5.185,5.185,0,0,0,.543-.515,3.742,3.742,0,0,1,.392-.39,2.323,2.323,0,0,0,.3-.3c.027-.031.048-.069.084-.085a2.583,2.583,0,0,0,.6-.594,4.972,4.972,0,0,1,.415-.383,2.361,2.361,0,0,0,.19-.195c.2-.2.4-.4.58-.614a5.464,5.464,0,0,1,.525-.56c.373-.337.739-.688,1.1-1.039a1.145,1.145,0,0,1,.221-.166,5,5,0,0,0,.615-.505c.262-.221.523-.449.785-.677.191-.165.374-.338.572-.488.178-.127.349-.255.519-.4a2.637,2.637,0,0,1,.3-.251c.158-.09.283-.237.433-.333s.328-.231.485-.35c.234-.175.484-.328.711-.524.127-.11.27-.2.4-.3.221-.151.434-.3.656-.455A.544.544,0,0,0,27,7.56c.014-.03.05-.032.08-.041a.193.193,0,0,0,.142-.1s.013-.031.02-.031c.139-.03.22-.174.366-.2.023,0,.051,0,.065-.025a7.165,7.165,0,0,1,.8-.463c.308-.187.64-.322.941-.522a7.932,7.932,0,0,1,.782-.418,4.618,4.618,0,0,1,.656-.3,3.745,3.745,0,0,0,.557-.228,3.259,3.259,0,0,1,.58-.2c.19-.048.362-.138.552-.184s.415-.11.619-.173.43-.111.647-.189c.276-.1.57-.141.853-.23a2.53,2.53,0,0,1,.325-.121c.044,0,.027-.052.077-.092V4.021Z" transform="translate(-4.016 -2.796)" fill="#030382"/>
          <path id="Path_22" data-name="Path 22" d="M84.683,11.3a.988.988,0,0,0-.254-.039l-.14.008c-.043,0-.1,0-.061.076,0,.015,0,.03-.014.039h-.03c-.088-.135-.208-.041-.312-.028-.162.024-.328.076-.489.115l-.043,0c-.056.061-.114.094-.19.054a.1.1,0,0,0-.05.033.072.072,0,0,1-.1.02c-.007,0-.03-.013-.03-.013-.064.055-.16.038-.225.071-.043.025-.072.048-.117.021l-.052,0a.215.215,0,0,1-.189.046c-.038,0-.043.025-.056.063s-.041.075-.08.048c-.047-.049-.075-.033-.1.006s-.05.032-.074,0c-.053-.041-.1-.046-.124.036-.013.046-.042.047-.08.034-.06-.026-.111-.032-.144.045-.014.03-.035.031-.067,0-.055-.056-.1-.039-.116.035-.013.052-.033.083-.08.026a.1.1,0,0,0-.016-.02.438.438,0,0,0-.288.14c0,.023,0,.044-.027.053s-.031-.014-.046-.027-.025-.058-.061-.041a.131.131,0,0,0-.078.085c-.012.031,0,.074-.032.083s-.039-.035-.048-.064-.039-.02-.051,0c-.026.068-.055.1-.139.045-.038-.021-.1.042-.135.1-.007.015,0,.051-.034.046a.555.555,0,0,0-.378.13.262.262,0,0,1-.152.052.746.746,0,0,0-.216.093c-.137.066-.274.14-.412.191a.705.705,0,0,0-.2.114c-.057.048-.068.122-.167.053-.039-.02-.057.048-.055.091s.009.036-.011.052-.037,0-.045-.019c-.024-.028-.063-.056-.09-.025-.092.093-.217.1-.332.15-.036.017-.088.019-.055.092s-.028.031-.043.024a.191.191,0,0,0-.212.041.625.625,0,0,1-.151.082c-.021,0-.059,0-.065.033-.06.122-.187.1-.273.14-.036.016-.073.026-.033.075a.045.045,0,0,1,0,.059c-.021.016-.037,0-.06-.011a.122.122,0,0,0-.156-.014.04.04,0,0,0-.034.053c0,.022.017.043-.011.059s-.031-.013-.046-.019c-.047-.042-.1-.01-.133.007-.057.025,0,.044,0,.066s-.011.045-.035.032a.242.242,0,0,0-.262.08c-.007,0-.02.016-.035.017a2.579,2.579,0,0,0-.6.223c-.123.059-.237.139-.353.189-.18.083-.352.2-.539.28a.885.885,0,0,0-.316.172.389.389,0,0,1-.122.058.509.509,0,0,0-.116.05c-.1.109-.259.132-.387.22-.243.16-.52.241-.778.381a7.708,7.708,0,0,0-.732.415c-.114.072-.244.123-.358.2h-.015c-.155.008-.259.132-.388.2a4.859,4.859,0,0,0-.538.316c-.135.089-.273.155-.408.235-.1.057-.193.129-.294.185-.358.218-.723.437-1.072.669-.25.168-.5.337-.742.5-.264.176-.545.324-.817.492a6.694,6.694,0,0,0-.813.553,2.687,2.687,0,0,1-.416.237,4.864,4.864,0,0,0-.935.61c-.1.094-.2.188-.3.289,0,.008.009.015.016.021.043-.025.094-.049.145-.082.187-.106.372-.211.552-.324.085-.056.163-.119.249-.168.18-.1.342-.239.53-.33a4.855,4.855,0,0,0,.714-.451c.279-.184.542-.39.836-.546.251-.132.47-.327.713-.481.187-.113.364-.24.557-.354l.623-.365c.208-.122.385-.264.6-.379.281-.14.538-.316.811-.471.129-.073.266-.132.395-.206.093-.049.164-.126.257-.175.359-.182.7-.383,1.041-.587a.943.943,0,0,1,.2-.091,1.951,1.951,0,0,0,.447-.208c.093-.057.2-.084.289-.134.187-.1.374-.189.554-.287a1.49,1.49,0,0,1,.223-.1,2.713,2.713,0,0,0,.41-.221c.194-.106.413-.17.606-.283.158-.089.332-.15.5-.232.238-.124.491-.21.728-.341.195-.106.389-.2.59-.3.173-.083.354-.166.525-.257.216-.107.425-.214.649-.307.13-.058.266-.124.4-.183a3.865,3.865,0,0,1,.552-.2c.086-.026.166-.075.252-.109.267-.124.552-.191.82-.287.3-.1.618-.195.93-.278a5.982,5.982,0,0,1,.721-.185,2.477,2.477,0,0,0,.335-.092,1.615,1.615,0,0,1,.264-.043c.2-.01.378-.108.57-.118s.08-.019.071-.063-.047-.042-.083-.04H84.4c-.037,0-.1.027-.1-.017s.064-.048.115-.05a.134.134,0,0,1,.107.046.173.173,0,0,0,.179.028,8.865,8.865,0,0,1,1.072-.241,5.931,5.931,0,0,0,.629-.115,3.329,3.329,0,0,1,.374-.056,11.257,11.257,0,0,1,1.315-.143l.413-.021c.028,0,.073,0,.064-.04s-.035-.109-.109-.106-.073,0-.071.056,0,.059-.034.061-.045-.027-.054-.057c-.017-.05-.047-.057-.1-.053s-.08.019-.077.077,0,.038-.026.047-.038-.014-.046-.035c-.017-.043-.034-.079-.092-.068s-.057.04-.063.076a.037.037,0,0,1-.027.039c-.023,0-.031-.02-.039-.035-.011-.073-.063-.071-.122-.059-.036,0-.058.017-.056.055s-.011.067-.049.061-.031-.028-.04-.057a.056.056,0,0,0-.048-.057c-.036,0-.073,0-.093.049-.026.068-.054.084-.087,0-.017-.035-.061-.026-.091-.025a.063.063,0,0,0-.063.056c0,.021,0,.051-.034.06s-.046-.019-.055-.049A.068.068,0,0,0,87,10.709c-.044,0-.065.026-.071.071s0,.088-.046.083-.04-.042-.041-.078a.053.053,0,0,0-.063-.049c-.043,0-.1-.009-.107.058l0,.043a.042.042,0,0,1-.035.047c-.022,0-.023-.021-.032-.042a.1.1,0,0,0-.15-.066c-.045.017-.013.044-.012.074s0,.081-.033.083-.039-.042-.04-.072c0-.059-.033-.058-.069-.048a1.573,1.573,0,0,1-.308.045c-.044,0-.081,0-.085.064s-.034.045-.073.018c-.077-.069-.129-.052-.152.046,0,.014-.006.036-.027.038s-.023-.014-.032-.027a.092.092,0,0,0-.15-.044c-.056.063-.092.057-.167.031a.1.1,0,0,0-.143.1.047.047,0,0,1-.034.053c-.03,0-.038-.013-.046-.034s-.018-.066-.063-.049a.09.09,0,0,0-.07.063c-.025.071-.069.083-.131.036a.107.107,0,0,0-.1-.009c-.058.025-.033.075-.044.127Z" transform="translate(-51.527 -8.306)" fill="#030382"/>
          <path id="Path_23" data-name="Path 23" d="M25.464,58.231c-.173.09-.337.2-.5.3-.1.065-.209.1-.308.165a7.568,7.568,0,0,1-1.21.587c-.3.119-.6.224-.9.357-.246.117-.5.218-.745.313-.188.069-.375.152-.572.215a5.728,5.728,0,0,0-.689.235,1.819,1.819,0,0,1-.342.1c-.167.031-.326.1-.494.144-.038.009-.058.025-.042.061s0,.058-.025.067-.059,0-.061-.033c0-.074-.055-.049-.091-.04l-.611.187c-.1.035-.211.048-.313.076a1.212,1.212,0,0,0-.406.147c-.015.008-.043.032-.058.017-.085-.076-.164-.014-.236.006s-.146.045-.218.063c-.043.01-.11.006-.084.086,0,.015-.013.03-.035.039s-.036-.006-.038-.027c-.019-.081-.07-.064-.129-.053a7.521,7.521,0,0,1-.991.126c-.221.012-.45-.006-.678.02a1.812,1.812,0,0,1-.221.026.074.074,0,0,0-.071.071.055.055,0,0,0,.076.041c.085-.057.2.012.278-.067h.036c.131.089.274.015.407.023.074,0,.164.028.235-.034,0-.008.036,0,.059.011s.068.026.09.017a1.413,1.413,0,0,1,.351-.048c.14-.022.279-.036.419-.045a1.7,1.7,0,0,0,.454-.09c.152-.052.214-.012.315-.039.279-.051.554-.14.823-.213s.517-.139.772-.218c.152-.044.3-.1.457-.142s.328-.1.495-.144c.472-.15.945-.3,1.408-.487a3.762,3.762,0,0,0,.759-.321.531.531,0,0,1,.151-.059c.3-.119.606-.268.911-.388a5.007,5.007,0,0,0,.525-.256c.18-.1.366-.2.546-.295a.65.65,0,0,0,.2-.173,3.367,3.367,0,0,1,.315-.32h-.015Z" transform="translate(-12.055 -45.587)" fill="#030382"/>
          <path id="Path_24" data-name="Path 24" d="M108.648,83.086c.023.014.047.042.076.048.142.036.231.165.365.195.007,0,.023.014.031.021.028.116.124.112.214.129a2.41,2.41,0,0,1,.329.086c.174.065.352.071.524.135a.153.153,0,0,0,.081,0c.182-.061.373-.079.546-.155a5.482,5.482,0,0,1,.83-.227,2.434,2.434,0,0,0,.516-.154c.008,0,.015-.008.03-.008.251.016.322-.195.424-.355a3.96,3.96,0,0,0,.406-.849.336.336,0,0,1,.063-.085.831.831,0,0,0,.2-.32c.026-.075-.006-.1-.078-.1a.258.258,0,0,0-.228.175c-.093.189-.188.379-.273.568-.121.243-.248.486-.391.715a.16.16,0,0,1-.136.081,5.491,5.491,0,0,0-1.276.3,3.137,3.137,0,0,0-.354.166.649.649,0,0,1-.307.068.065.065,0,0,1-.052-.012,2.123,2.123,0,0,0-.928-.239.5.5,0,0,1-.338-.1.355.355,0,0,0-.263-.089v.015Z" transform="translate(-85.057 -63.759)" fill="#030382"/>
          <path id="Path_25" data-name="Path 25" d="M147.222,86.008a5.16,5.16,0,0,0-.182-.936c0-.036-.006-.11-.072-.1s-.048.068-.06.114c-.018.089-.006.184-.075.262s-.01.082.007.126a1.771,1.771,0,0,1,.076.342c0,.059.007.118.082.137.015,0,.031.02.032.042s-.022.016-.036.017a.1.1,0,0,0-.085.056,6.494,6.494,0,0,0-.381.627,7.2,7.2,0,0,0-.341.682c0,.015-.014.03-.019.045-.013.052-.024.119.015.147s.072-.034.108-.058a.67.67,0,0,0,.118-.132c.035-.039.053-.1.13-.051.039.028.058-.032.078-.063a2.138,2.138,0,0,0,.11-.3,2.147,2.147,0,0,1,.283-.509c.033-.061.06-.122.093-.182.027-.045-.026-.073-.035-.109s-.017-.043,0-.059.028,0,.043,0c.129.052.129.045.114-.088Z" transform="translate(-114.42 -66.521)" fill="#030382"/>
          <path id="Path_26" data-name="Path 26" d="M202.46,31.137c-.026-.073-.077-.063-.127-.046-.4.111-.793.241-1.184.388a2.93,2.93,0,0,0-.331.172c-.021.016-.05.033-.041.069s.045.019.068.026c.173.049.33-.048.49-.079a3.778,3.778,0,0,1,1.112-.058,3.923,3.923,0,0,1,.836.149.468.468,0,0,1,.082.017s.007,0,.028-.016a1.11,1.11,0,0,0-.347-.144c-.224-.033-.448-.079-.67-.1a3.516,3.516,0,0,0-.62.01.635.635,0,0,0-.308.053c-.028.016-.079.026-.09-.025s.034-.061.063-.077a3,3,0,0,1,.785-.24,3.521,3.521,0,0,1,.549-.089c.169-.008.338-.047.5-.048.021,0,.044,0,.05-.032a.041.041,0,0,0-.047-.035c-.11.006-.215-.025-.325-.013l-.346.018c-.082,0-.089,0-.135.1Z" transform="translate(-157.18 -24.285)" fill="#030382"/>
          <path id="Path_27" data-name="Path 27" d="M180.374,10.837c-.018.082.019.088.085.077l.184-.01c.059,0,.1.01.092-.064s0-.023.021-.024.023.014.031.028c.065.107.1.121.211.092a.405.405,0,0,1,.1.017c.067.012.152.088.19-.04a.1.1,0,0,1,.03-.016c.015,0,.023.02.024.035-.011.075.033.073.084.063a.222.222,0,0,1,.165.035c.038.028.091.063.108-.035.012-.059.058-.025.067,0,.042.109.116.119.211.092a.078.078,0,0,1,.068.034c.047.042.084.061.132-.007.014-.016.02-.031.043-.025s.016.028.017.051c-.012.067.034.072.077.063s.081,0,.112.039a.338.338,0,0,0,.266.133c.044,0,.081,0,.113.039a.246.246,0,0,0,.1.053.363.363,0,0,1,.167.1s.016.021.031.02c.15.03.231.158.345.233.053.034.084.04.125-.007s.018-.082-.027-.109a9.205,9.205,0,0,0-.868-.5,3.776,3.776,0,0,0-1.029-.316c-.313-.05-.619-.108-.932-.158-.059-.012-.119-.023-.122.066a.048.048,0,0,1-.057.04.042.042,0,0,1-.04-.042c0-.059-.019-.1-.093-.091s-.048.068-.052.114Z" transform="translate(-141.189 -8.377)" fill="#030382"/>
          <path id="Path_28" data-name="Path 28" d="M201.785,35.16c-.113-.031-.191-.123-.31-.154-.142-.036-.282-.015-.424-.044a.62.62,0,0,0-.347,0c-.057.025-.125-.008-.191.01a6.964,6.964,0,0,0-.87.164.314.314,0,0,0-.2.158c.19-.055.364-.108.532-.147a4.158,4.158,0,0,1,1.272-.118,1.97,1.97,0,0,1,.538.134Z" transform="translate(-156.137 -27.352)" fill="#030382"/>
          <path id="Path_29" data-name="Path 29" d="M200.254,37.262a1.515,1.515,0,0,0-.41-.06.776.776,0,0,1-.185,0c-.052-.012-.094.019-.147.008-.125.007-.249.035-.374.041s-.126-.015-.175.04c0,0-.015.015-.022.016-.112-.039-.189.054-.292.066s-.121.1-.168.157c-.022.031.016.036.039.035a.852.852,0,0,0,.181-.061,2.675,2.675,0,0,1,1.17-.224,3.052,3.052,0,0,1,.37.01v-.022Z" transform="translate(-155.379 -29.118)" fill="#030382"/>
          <path id="Path_30" data-name="Path 30" d="M131.025,77.344c-.156-.007-.185.127-.232.22-.041.075.008.147.063.21a.108.108,0,0,0,.184-.017c.04-.068.1-.131.13-.2.073-.159.033-.216-.136-.207h-.008Z" transform="translate(-102.381 -60.55)" fill="#030382"/>
          <path id="Path_31" data-name="Path 31" d="M132.919,74.2a.168.168,0,0,0-.274-.148.246.246,0,0,1-.094.027c-.03,0-.044,0-.058.025s0,.044.026.065a.464.464,0,0,0,.13.082.27.27,0,0,1,.106.053.093.093,0,0,0,.119.009.1.1,0,0,0,.046-.114" transform="translate(-103.72 -57.946)" fill="#030382"/>
          <path id="Path_32" data-name="Path 32" d="M127.538,74.716a.525.525,0,0,0-.173.083c-.022.016-.013.038,0,.059a.19.19,0,0,1,.04.064c.026.081.072.1.135.052a.414.414,0,0,0,.077-.077c.027-.039.093-.065.06-.122s-.091-.04-.143-.052Z" transform="translate(-99.7 -58.492)" fill="#030382"/>
          <path id="Path_33" data-name="Path 33" d="M100.765,85.94c-.022,0-.051,0-.057.033a.048.048,0,0,0,.047.049c.1-.006.143.059.177.146a.041.041,0,0,0,.06.026c.028-.016.006-.036,0-.059-.038-.152-.091-.195-.224-.195" transform="translate(-78.841 -67.279)" fill="#030382"/>
        </g>
      </g>
      <g id="Group_7" data-name="Group 7" transform="translate(0 0)">
        <g id="Group_6" data-name="Group 6" clip-path="url(#clip-path-3)">
          <path id="Path_34" data-name="Path 34" d="M87.48,121.53c-2.6-2.6-4.326-6.739-4.326-13.258,0-5.8,1.724-10.248,4.67-13.2a14.3,14.3,0,0,1,10.437-4.043c4.419,0,7.93,1.347,10.437,3.855,3.134,3.134,4.733,7.742,4.733,14.542v2.164H93.246a5.047,5.047,0,0,0,1.473,3.6,6.208,6.208,0,0,0,4.482,1.66,8.393,8.393,0,0,0,6.958-2.82l6.143,6.142c-3.448,3.449-6.989,5.329-13.258,5.329-5.328,0-8.933-1.348-11.565-3.981m15.8-16.768a5.693,5.693,0,0,0-1.473-3.95,5.424,5.424,0,0,0-7.083,0,5.69,5.69,0,0,0-1.473,3.95Z" transform="translate(-65.098 -71.267)" fill="#030382"/>
          <path id="Path_35" data-name="Path 35" d="M237.329,42.53h16.549c3.761,0,8.4.815,11.847,4.263,4.639,4.639,4.827,7.836,4.827,18.053s-.188,13.415-4.827,18.053c-3.448,3.448-8.087,4.263-11.847,4.263H237.329Zm15.42,34.854a6.522,6.522,0,0,0,4.858-1.567c1.787-1.787,1.975-3.322,1.975-10.97s-.188-9.183-1.975-10.969a6.522,6.522,0,0,0-4.858-1.567H248.3V77.384Z" transform="translate(-185.797 -33.295)" fill="#030382"/>
          <path id="Path_36" data-name="Path 36" d="M408.251,42.531h9.591l14.292,22.442V42.531H443.1V87.163h-9.591L419.221,64.721V87.163h-10.97Z" transform="translate(-319.605 -33.296)" fill="#030382"/>
          <path id="Path_37" data-name="Path 37" d="M588.487,42.531h8.4l16.235,44.632H601.649l-2.161-6.644h-13.6l-2.162,6.644H572.251Zm8.055,28.836-3.855-11.91-3.855,11.91Z" transform="translate(-447.995 -33.296)" fill="#030382"/>
          <path id="Path_38" data-name="Path 38" d="M104.314,283.968H94.8q-4.529,0-6.36-1.566t-1.83-5.53V257.1h17.7v4.681H91.858v6.3h8.718l-.377,4.68H91.858V276.5a2.755,2.755,0,0,0,.717,2.189,4.161,4.161,0,0,0,2.6.6h9.134Z" transform="translate(-67.806 -201.271)" fill="#030382"/>
          <path id="Path_39" data-name="Path 39" d="M202.37,283.968h-6.492l-5.623-9.36-5.548,9.36h-6.492l9.021-13.776-8.455-13.1h6.454l5.02,8.681,5.1-8.681h6.417l-8.455,13.1Z" transform="translate(-139.518 -201.271)" fill="#030382"/>
          <path id="Path_40" data-name="Path 40" d="M319.985,259.416q2.322,2.321,2.321,6.813t-2.321,6.812a8.851,8.851,0,0,1-6.548,2.321h-5.171v8.606H303.02V257.1h10.417a8.856,8.856,0,0,1,6.548,2.321m-2.925,6.813q0-4.453-3.887-4.454h-4.907v8.87h4.907a3.865,3.865,0,0,0,2.887-1.02,4.747,4.747,0,0,0,1-3.4" transform="translate(-237.224 -201.271)" fill="#030382"/>
          <path id="Path_41" data-name="Path 41" d="M429.882,283.968H420.37q-4.529,0-6.36-1.566t-1.83-5.53V257.1h17.7v4.681H417.426v6.3h8.718l-.377,4.68h-8.341V276.5a2.755,2.755,0,0,0,.717,2.189,4.161,4.161,0,0,0,2.6.6h9.134Z" transform="translate(-322.681 -201.271)" fill="#030382"/>
          <path id="Path_42" data-name="Path 42" d="M537.612,270.419l.038,2.905a21.967,21.967,0,0,1-.679,4.643,7.808,7.808,0,0,1-2.076,3.434q-2.568,2.567-7.474,2.567-5.774,0-7.926-1.528t-2.152-5.53V257.1H527.8a9.594,9.594,0,0,1,7.1,2.567,8.458,8.458,0,0,1,2.453,5.057,48.3,48.3,0,0,1,.264,5.7m-5.454,4.811a39.186,39.186,0,0,0,.208-4.774,37.233,37.233,0,0,0-.208-4.7,4.6,4.6,0,0,0-.925-2.321,4.779,4.779,0,0,0-3.925-1.66H522.59v14.871a2.163,2.163,0,0,0,1.019,2.076,8.206,8.206,0,0,0,3.642.565,4.845,4.845,0,0,0,3.982-1.66,4.689,4.689,0,0,0,.925-2.4" transform="translate(-405.011 -201.271)" fill="#030382"/>
          <rect id="Rectangle_8" data-name="Rectangle 8" width="5.246" height="26.873" transform="translate(137.206 55.824)" fill="#030382"/>
          <path id="Path_43" data-name="Path 43" d="M694.624,261.775h-7.208v22.193h-5.247V261.775H675v-4.681h19.626Z" transform="translate(-528.432 -201.271)" fill="#030382"/>
          <rect id="Rectangle_9" data-name="Rectangle 9" width="5.247" height="26.873" transform="translate(170.268 55.824)" fill="#030382"/>
          <path id="Path_44" data-name="Path 44" d="M850.893,268.469v2.038q0,6.757-2.548,9.813t-8.171,3.058q-5.625,0-8.134-3.058t-2.509-9.926v-1.963q0-6.264,2.547-9.322t8.077-3.058q5.53,0,8.134,3.1t2.6,9.322m-5.246,1.925V269a15.151,15.151,0,0,0-.906-5.774q-1.056-2.491-4.529-2.491-3.51,0-4.567,2.491a15.217,15.217,0,0,0-.869,5.774v1.4q0,4.87,1.359,6.567a4.165,4.165,0,0,0,1.566,1.226,6.405,6.405,0,0,0,4.964.019A4.4,4.4,0,0,0,844.25,277a5.063,5.063,0,0,0,.869-1.887,17.594,17.594,0,0,0,.529-4.718" transform="translate(-649.411 -200.454)" fill="#030382"/>
          <path id="Path_45" data-name="Path 45" d="M968.7,257.1v24.156a3.175,3.175,0,0,1-.755,2.132,2.269,2.269,0,0,1-1.773.887q-2.606,0-4.265-3.02l-9.285-14.531v17.249h-5.247V257.1h5.058l11.021,17.589V257.1Z" transform="translate(-741.667 -201.271)" fill="#030382"/>
          <path id="Path_46" data-name="Path 46" d="M1081.25,275.225a7.157,7.157,0,0,1-2.792,5.982,11.287,11.287,0,0,1-7.134,2.17,12.929,12.929,0,0,1-6.643-1.887,7.587,7.587,0,0,1-2.6-2.775,8.139,8.139,0,0,1-1.019-4.1l4.756-.226a3.58,3.58,0,0,0,1.736,3.171,6.9,6.9,0,0,0,3.85,1.132q4.716,0,4.717-3.321,0-2.717-3.208-3.209l-4.378-.452a9.274,9.274,0,0,1-5.208-2.34,7.771,7.771,0,0,1,.83-11.059,10.608,10.608,0,0,1,6.964-2.265,10.264,10.264,0,0,1,6.775,2.133,6.817,6.817,0,0,1,2.566,5.492l-4.681.225q-.64-3.282-4.415-3.283a5.871,5.871,0,0,0-3.6.982,2.854,2.854,0,0,0-1.3,2.32,2.582,2.582,0,0,0,.943,2.114,4.561,4.561,0,0,0,2.34.963l4.3.453q7.207.981,7.208,7.775" transform="translate(-830.665 -200.453)" fill="#030382"/>
        </g>
      </g>
    </g>
  </g>
</svg>
