<?xml version="1.0" encoding="UTF-8"?>
<svg id="Layer_1" xmlns="http://www.w3.org/2000/svg" xmlns:xlink="http://www.w3.org/1999/xlink" version="1.1" viewBox="0 0 107.7 101.2">
  <!-- Generator: Adobe Illustrator 30.2.1, SVG Export Plug-In . SVG Version: 2.1.1 Build 1)  -->
  <defs>
    <style>
      .st0 {
        fill: none;
      }

      .st1 {
        fill: #0069b4;
      }

      .st2 {
        clip-path: url(#clippath-1);
      }

      .st3 {
        clip-path: url(#clippath-2);
      }

      .st4 {
        clip-path: url(#clippath);
      }
    </style>
    <clipPath id="clippath">
      <rect class="st0" width="107.7" height="101.2"/>
    </clipPath>
    <clipPath id="clippath-1">
      <rect class="st0" width="107.7" height="101.2"/>
    </clipPath>
    <clipPath id="clippath-2">
      <rect class="st0" width="107.7" height="101.2"/>
    </clipPath>
  </defs>
  <g class="st4">
    <path id="Path_81" class="st1" d="M105.9,0c0,12.8,0,25.6,0,38.5H.3V0C35.5,0,70.7,0,105.9,0M60.2,1.2h-7v36.2h51.6V1.2h-44.6M19.4,29.8h-7.8v1.1h30.4v-1.1h-22.5M19.2,28.1h-6.4v1.1h27.7v-1.1h-21.4M18.4,11.2c2.7-.8,5.4-1.6,8.1-2.5.2,0,.3,0,.5,0,3.7,1.1,7.4,2.2,11.1,3.4.4.1.7.2,1.2.3,0-.3,0-.6,0-.9,0-.2,0-.3-.3-.4-4-1.2-8-2.4-12-3.7-.2,0-.3,0-.5,0-1.7.5-3.4,1-5.1,1.6-2.3.7-4.5,1.4-6.8,2.1-.1,0-.3.2-.3.3,0,.3,0,.7,0,1,1.4-.4,2.7-.8,4.1-1.3M36.8,27.4h2.4v-1.1H14.2v1.1h22.5M36.9,14.2h2.3v-1H14.2v1h22.7M36.9,12.4c-3.3-1-6.6-2-9.9-3-.2,0-.4,0-.6,0-2.1.6-4.2,1.3-6.3,1.9-1.2.4-2.5.8-3.7,1.1,1,0,2,0,2.9,0,0,0,.1,0,.2,0,2.3-.7,4.6-1.4,6.9-2,.2,0,.4,0,.6,0,1.8.5,3.6,1.1,5.4,1.6.5.2,1.1.4,1.6.4.9,0,1.9,0,2.8,0M36,23c0,.6,0,1.2,0,1.8,0,.4.2.8.6.9.5.2,1,0,1.1-.6,0-.1,0-.3,0-.4v-9.1c0-.7-.3-.9-.9-.9-.6,0-.9.3-.9,1v7.3M16.8,17.3v7.3c0,.2,0,.5-.2.5s-.2-.3-.2-.5c0-3.2,0-6.4,0-9.5v-.3h-.7s0,0,0,.1c0,3.3,0,6.6,0,10,0,.4.3.8.7.9,0,0,.1,0,.2,0,.6,0,.8-.3.8-.9v-9.7c0-.1,0-.2,0-.3h-.7v2.5M20.4,21.1v-1.2h0c.2,2,.4,3.9.6,5.8h.5v-10.9h-.6v5.1h0c-.2-1.7-.4-3.4-.6-5.1h-.5v10.9h.5v-4.6M28.8,17.5v.5h.7v-1.1c0-.5,0-1,0-1.5,0-.4-.4-.6-.9-.6-.4,0-.8.3-.8.7-.1,1.3,0,2.7.3,4,.6,1.7.8,3.5.7,5.3,0,.1,0,.3,0,.4h-.2c0-.1,0-.3,0-.5,0-.8,0-1.6,0-2.5h-.7c0,0,0,.1,0,.1v2.6c0,.4.2.7.6.8,0,0,0,0,.1,0,.6,0,.9-.2,1-.7.1-1.4,0-2.8-.3-4.1-.6-1.7-.8-3.4-.7-5.2,0-.1,0-.2.1-.3,0,.1.2.2.2.3,0,.6,0,1.2,0,1.8M33.6,24.2v-2h-.7v2.6c0,0,0,.2-.2.3,0,0-.2-.1-.3-.2,0,0,0-.2,0-.3v-8.7c0-.2,0-.5.2-.5s.2.3.2.5c0,.7,0,1.4,0,2.2h.7v-2.4c0,0,0-.1,0-.2,0-.4-.5-.7-1-.6,0,0,0,0,0,0-.4,0-.7.4-.7.8v9.4c0,.4.3.7.6.7,0,0,0,0,0,0,.5,0,.9-.1,1-.6,0-.3,0-.7,0-1M24,24.6v1.1h1.7v-.6h-.9v-4.9c.2,0,.5,0,.7,0v-.6h-.7v-4.3h.7v-.5h-1.5v9.8h0Z"/>
    <path id="Path_82" class="st1" d="M107.6,57.1c0,.4-.2.9-.3,1.3-.3,1.2-.9,2.2-1.6,3.2-.8,1-1.9,1.9-3.1,2.4-.8.4-1.7.6-2.6.7-1.4.2-2.7,0-4-.5-1.4-.5-2.6-1.4-3.5-2.5-1-1.1-1.6-2.5-1.9-4,0-.9,0-1.8,0-2.6,0-.9.3-1.8.8-2.6.5-1,1.2-2,2.1-2.7,1-.9,2.3-1.5,3.6-1.8,1.7-.4,3.6-.3,5.3.4,1.1.4,2.1,1.1,3,2,1.1,1.2,1.9,2.7,2.2,4.3,0,.2,0,.4.1.6,0,.7,0,1.4,0,2.1M103,57.5c.2-.7.3-1.4.1-2.1-.4-1.9-2-3.3-3.9-3.4-1.2,0-2.3.4-3.1,1.2-.9.9-1.4,2.2-1.2,3.5.1,1.2.8,2.2,1.7,2.9,1,.7,2.2,1,3.4.7,1.4-.3,2.5-1.4,3-2.7h0Z"/>
    <path id="Path_83" class="st1" d="M0,86.4c0-.3.1-.5.2-.7.2-1,1.1-1.8,2.1-2,1.5-.4,3,.4,3.4,1.9,0,0,0,.2,0,.2.3.9.2,1.9-.1,2.8-.4,1-1.4,1.8-2.5,1.8-.6,0-1.2,0-1.8-.4-.7-.5-1.2-1.3-1.3-2.2,0-.4,0-.9,0-1.3M1.4,87.9c.1.3.2.5.4.8.4.7,1.3.9,1.9.5.2,0,.3-.2.4-.3.7-1,.7-2.3.2-3.4-.4-.7-1.3-1-2-.6-.2.1-.4.3-.6.5-.4.8-.5,1.7-.3,2.6h0Z"/>
    <path id="Path_84" class="st1" d="M0,97.2c.1-.5.3-1.1.6-1.5.5-.8,1.4-1.2,2.3-1.2.6,0,1.1,0,1.7.1,0,0,.2,0,.2.1,0,.4-.2.7-.3,1-.9-.5-2.1-.4-2.9.5-.7.9-.7,2.2,0,3.2.7.8,1.9,1,2.9.5,0,.3.1.7.2,1.1-.3,0-.5.1-.8.2-.5,0-1,0-1.5,0-.9,0-1.7-.6-2.1-1.4-.2-.4-.3-.7-.4-1.1v-1.3H0Z"/>
    <path id="Path_85" class="st1" d="M6.9,101.2c-.8-.2-1.4-.8-1.6-1.6-.3-.9,0-2,.6-2.7.3-.3.6-.5,1-.5.7-.2,1.4,0,1.9.3.5.3.8.9.9,1.5.2.8,0,1.6-.4,2.2-.3.4-.8.7-1.3.8-.4,0-.7,0-1.1,0M6.5,98c-.2.6-.1,1.4.3,1.9.3.4.8.5,1.1.2,0,0,.1,0,.1-.1.5-.6.6-1.4.3-2,0-.4-.4-.7-.9-.7-.5,0-.8.2-1,.8h0Z"/>
    <path id="Path_86" class="st1" d="M38.9,101.2c-.5-.2-.9-.5-1.3-.9-.4-.6-.5-1.3-.4-2,0-.9.7-1.7,1.6-2,1.1-.4,2.4.1,2.8,1.3,0,0,0,.2,0,.3.3.9.1,1.9-.6,2.6-.3.3-.7.5-1.1.7-.4,0-.8,0-1.2,0M40.4,99.6c.3-.6.3-1.3,0-1.9-.1-.3-.4-.5-.7-.5-.3,0-.7.1-.9.4-.4.6-.4,1.4,0,2,.1.4.6.6,1,.5.3,0,.6-.3.7-.6"/>
    <path id="Path_87" class="st1" d="M32.2,101.2c-.3,0-.6-.2-.8-.3,0-.3.2-.6.2-.9.1,0,.2.1.4.2.4,0,.7.1,1.1.1.2,0,.3-.2.4-.3,0-.2,0-.4-.2-.5-.3-.2-.6-.3-.9-.4-.6-.2-.9-.9-.8-1.5.2-.6.7-1.1,1.4-1.1.5,0,.9,0,1.4.2.2,0,.2.2.2.3,0,.2-.1.4-.2.5-.4,0-.8,0-1.2-.1-.1,0-.3.2-.3.4s.1.3.3.4c.3.2.6.3.9.4.6.2.9.8.8,1.4,0,.7-.6,1.2-1.3,1.3-.4,0-.8,0-1.2,0h0Z"/>
    <path id="Path_88" class="st1" d="M28.6,101.2c-.2,0-.4-.1-.6-.2,0,0-.2-.2-.2-.2,0-.2.1-.5.2-.7.5,0,.9.2,1.3.2.3,0,.5-.1.6-.4,0,0,0,0,0,0,0-.3-.2-.5-.5-.6-.3-.2-.6-.3-.9-.5-.4-.2-.7-.7-.6-1.2,0-.6.4-1.1,1-1.3.6-.2,1.3-.1,1.9.2,0,.3-.1.6-.2.9-.3-.1-.5-.2-.8-.2-.2,0-.5,0-.6.2,0,.1-.1.3,0,.4.1.2.3.3.5.4.3.2.7.3,1,.6.6.5.6,1.4.1,1.9-.2.2-.4.3-.7.4,0,0-.2,0-.2,0-.4,0-.8,0-1.2,0Z"/>
    <path id="Path_89" class="st1" d="M46.1,58.9c.5,1.1,1.7,1.9,2.9,1.8.7,0,1.5,0,2.1-.4.5-.3.9-.7,1.2-1.3,0,0,.2-.2.2-.2.5,0,.9,0,1.4.1.6,0,1.1.1,1.7.2s1.1.1,1.7.2c-.2.7-.5,1.4-.9,2-1.1,1.7-2.9,2.8-4.9,3.1-.9.1-1.8.2-2.7.2-1.5,0-2.9-.3-4.2-.9-1.6-.9-2.9-2.3-3.6-4-.4-1-.6-2.1-.7-3.2,0-1.7.3-3.4,1.1-5,1.1-2,3-3.4,5.2-3.8,1-.2,2.1-.3,3.1-.2,1.8,0,3.5.7,4.9,1.8,1.4,1.1,2.3,2.7,2.6,4.4.2,1.1.3,2.2.3,3.3h-12.1c.2.6.3,1.2.5,1.9M46.2,53c0,.3-.2.6-.3.8h6.9c-.3-1.4-1.5-2.5-2.9-2.6-1.5-.3-2.9.5-3.6,1.8"/>
    <path id="Path_90" class="st1" d="M30.5,47.7c0,0,.2,0,.3,0,1.5,0,3,.3,4.3,1.1,1.1.7,1.8,1.9,2,3.2.2,1,.2,2,.2,2.9,0,3,0,5.9,0,8.9v.4h-5.3v-.4c0-2.7,0-5.4,0-8.1,0-.7,0-1.4-.3-2.1-.3-.8-1.1-1.4-2-1.5-.8-.1-1.6,0-2.2.5-.7.5-1.1,1.2-1.3,2-.1.6-.2,1.3-.2,1.9,0,2.4,0,4.8,0,7.3v.4h-5.2v-16.1h5.2v1.9c1.1-1.4,2.7-2.2,4.5-2.2Z"/>
    <path id="Path_91" class="st1" d="M5.5,48.1c0,.1,0,.2,0,.4,0,3,0,6.1,0,9.1,0,1.4,1.1,2.6,2.5,2.7.8.1,1.7,0,2.4-.5.6-.4,1-1,1.1-1.7,0-.3,0-.7,0-1v-9h5.3v.4c0,3.3,0,6.6,0,9.9,0,1.2-.3,2.4-1.1,3.4-.8,1.1-2,1.9-3.3,2.4-1,.3-2,.5-3,.5-.8,0-1.6,0-2.4,0-1.7,0-3.4-.7-4.7-1.7-1.2-.9-1.9-2.3-2-3.7,0-.6,0-1.2,0-1.9,0-3,0-5.9,0-8.9v-.4h5.2,0Z"/>
    <path id="Path_92" class="st1" d="M61.3,60.2c.3-.5.5-.9.8-1.3.4.3.7.5,1.1.8.9.6,1.9.9,3,.9.6,0,1.2-.2,1.7-.6.4-.4.4-1.3-.2-1.6-.6-.3-1.3-.5-2-.7-.8-.3-1.5-.5-2.3-.8-1.3-.5-2.2-1.7-2.4-3.1-.2-.9,0-1.9.3-2.8.7-1.7,2.2-2.9,4-3.2.9-.2,1.9-.3,2.8-.2,1.6,0,3.2.5,4.6,1.4-.7,1.1-1.4,2.2-2,3.3-.6-.2-1.1-.5-1.7-.7-.7-.3-1.4-.3-2.1,0-.2,0-.4.2-.6.4-.3.3-.4.7,0,1,0,.1.2.2.3.2.7.3,1.3.5,2,.7,1.1.3,2.2.7,3.2,1.4,1,.7,1.6,1.8,1.6,3,0,1.1-.1,2.2-.6,3.2-.8,1.6-2.4,2.8-4.2,3.1-.8.1-1.5.2-2.3.2-2,0-4-.6-5.6-1.7-.1,0-.3-.2-.4-.3-.4-.3-.4-.4-.1-.8.4-.6.7-1.2,1.1-1.8h0Z"/>
    <path id="Path_93" class="st1" d="M79.4,48.8c3-1.9,6.8-1.7,9.7.3-.7,1.4-1.3,2.8-2,4.2-.9-1-2.2-1.5-3.5-1.4-1.1.1-2.2.7-2.8,1.6-1.4,1.8-1.1,4.5.8,5.9,1.7,1.3,4.2,1.1,5.6-.5.6,1.4,1.3,2.7,1.9,4.1-.8.6-1.6,1-2.5,1.3-.9.3-1.8.4-2.8.4-1.5,0-3-.5-4.3-1.3-1.4-.9-2.5-2.1-3.3-3.6-.4-.9-.7-1.8-.8-2.8-.1-1.2,0-2.4.4-3.6.4-1.1.9-2.1,1.7-3,.6-.6,1.2-1.2,1.9-1.6h0Z"/>
    <path id="Path_94" class="st1" d="M45.7,76.8v-2h.5c.3,0,.5.2.5.6.3-.5.8-.8,1.4-.7.5,0,1,.3,1.2.8.4-.7,1.4-1,2.2-.6.5.3.8.8.8,1.4,0,1.1,0,2.2,0,3.3h-1.2c0-.9,0-1.7,0-2.6,0-.3-.1-.6-.3-.9-.2-.3-.5-.4-.8-.2,0,0-.1,0-.2.1-.2.2-.4.5-.4.8,0,.9,0,1.9,0,2.8h-1.2v-.4c0-.9,0-1.8,0-2.7,0-.4-.3-.7-.7-.7,0,0,0,0,0,0-.4,0-.7.4-.8.9v2.9h-1.2v-2.7h0Z"/>
    <path id="Path_95" class="st1" d="M10.5,97.5v-1.2h.5c.3,0,.5.2.5.6.3-.5.8-.8,1.4-.7.5,0,1,.3,1.2.8.4-.8,1.4-1,2.2-.6.5.3.8.8.8,1.4,0,1.1,0,2.2,0,3.3h-1.2c0-.9,0-1.7,0-2.6,0-.4,0-.7-.3-1-.2-.2-.5-.2-.7-.1-.3.1-.5.5-.5.8,0,.9,0,1.7,0,2.6v.4h-1.1v-.4c0-.9,0-1.8,0-2.7,0-.5-.3-.8-.7-.7-.4,0-.7.4-.8.9v2.9h-1.2v-3.6h0Z"/>
    <path id="Path_96" class="st1" d="M24.8,97.8c0,.8,0,1.5,0,2.2,0,.3,0,.7,0,1.1h-1.2c0-.4,0-.9,0-1.3,0-.6,0-1.2,0-1.8,0-.4-.3-.6-.6-.6,0,0,0,0,0,0-.4,0-.7.3-.8.7,0,.3,0,.7,0,1.1,0,.7,0,1.4,0,2.1h-1.2v-.9c0-.6,0-1.2,0-1.8,0-.3,0-.5-.2-.7-.2-.3-.6-.4-.9-.3,0,0-.2.1-.2.2-.2.2-.2.5-.3.8,0,.9,0,1.8,0,2.7h-1.2v-4.7h1c0,.2,0,.3,0,.6.3-.5.8-.7,1.4-.7.6,0,1.1.3,1.3.8.4-.7,1.3-1,2.1-.7.6.3.9.8.9,1.4h0Z"/>
    <path id="Path_97" class="st1" d="M19.6,80.4c1,.3,1.9-.1,1.8-1.6-.4.5-1.1.7-1.8.5-.7-.2-1.2-.7-1.3-1.4-.3-.9-.1-1.9.4-2.7.6-.8,1.8-1,2.6-.3,0,0,0,0,.1.1,0,0,0,0,.1.1v-.5h1.1c0,.3,0,.5,0,.8,0,1.2,0,2.5,0,3.7,0,.6-.2,1.2-.6,1.6-.6.5-1.4.8-2.2.6-.4,0-.8-.2-1.2-.3.1-.4.2-.7.3-1,.3,0,.5.2.8.3M21.2,78.1c0-.3.1-.5.2-.8,0-.3,0-.5,0-.8,0-.4-.3-.8-.7-.9-.4,0-.8.1-1,.4-.3.4-.4.9-.3,1.4,0,.4.3.8.8,1,.4.1.8,0,1-.3h0Z"/>
    <path id="Path_98" class="st1" d="M31.6,92.3c-.5,0-1-.2-1.6-.3.1-.4.2-.7.3-1.1.7.3,1.5.6,2.2,0,.4-.3.4-.8.4-1.4-.3.3-.7.6-1.1.6-.8.1-1.5-.3-1.9-1-.5-1-.4-2.3.3-3.2.7-.8,1.9-.9,2.7-.2,0,0,0,0,0,0,0-.2,0-.3,0-.4h1c0,1.5,0,3,0,4.5,0,.8-.4,1.7-1.2,2-.4.1-.9.2-1.3.3M32.9,88.6v-1.2c0-.4-.3-.8-.7-.9-.4,0-.8.1-1,.5-.3.5-.3,1.2,0,1.7.1.4.6.7,1,.6.4,0,.7-.4.8-.7h0Z"/>
    <path id="Path_99" class="st1" d="M42.7,87.7v-2.1h1c0,.2,0,.3.1.5.2-.2.5-.4.8-.5,1-.4,2.1.1,2.4,1.1,0,.2,0,.3.1.5.1.6,0,1.3-.2,1.9-.4,1-1.5,1.5-2.5,1.2-.2,0-.4-.2-.5-.3v2.2h-1.2v-4.4M46,87.8c0-.3-.2-.5-.3-.8-.1-.4-.5-.6-.9-.5-.5,0-.9.6-.9,1.1v.9c0,.5.4.9.8.9.4,0,.8-.1,1-.5.1-.4.2-.8.3-1.2h0Z"/>
    <path id="Path_100" class="st1" d="M50.9,88.1c0-.3,0-.6,0-.8,0-.4-.4-.8-.8-.7-.5,0-.8.4-.8.9,0,.8,0,1.7,0,2.6v.4h-1.2v-6.9h1.2v2.7c.3-.3.7-.6,1.2-.6.8-.1,1.5.4,1.6,1.1,0,.2,0,.4,0,.7,0,1,0,2,0,3h-1.2v-2.2h0Z"/>
    <path id="Path_101" class="st1" d="M28.8,89.4c-.5.8-1.5,1.2-2.4,1-.8,0-1.4-.6-1.6-1.4-.4-.9-.2-1.9.3-2.7.3-.5.9-.8,1.5-.8.4,0,.9,0,1.3.1.8.3,1.3,1,1.4,1.8.1.7,0,1.4-.3,1.9M27.4,86.6c-.4-.3-.9-.2-1.3.1-.5.7-.5,1.7,0,2.4.3.4.8.4,1.2.2.8-.7.8-1.9.1-2.7h0Z"/>
    <path id="Path_102" class="st1" d="M23.9,75.4c.9-.9,2.4-1,3.4-.2.3.3.5.7.6,1.2.2,1.2,0,2.4-1.3,3-1.1.6-2.4.1-3-1-.1-.2-.2-.4-.2-.7-.2-.8,0-1.7.5-2.3M25.6,78.7c.4,0,.7-.3.8-.6.3-.6.3-1.3,0-1.9-.1-.3-.4-.5-.7-.6-.4,0-.7,0-.9.4-.3.5-.4,1.1-.2,1.7,0,.5.5.9,1,1h0Z"/>
    <path id="Path_103" class="st1" d="M40.6,77.2v-2.4h1.1v.6c.3-.4.8-.7,1.3-.7.8-.2,1.5.3,1.7,1.1,0,0,0,.1,0,.2.1,1.2,0,2.3,0,3.5h-1.1c0,0,0-.2,0-.3v-2.6c0-.4-.2-.8-.6-.9-.4-.1-.7,0-.9.4-.1.2-.2.5-.2.8,0,.9,0,1.7,0,2.6h-1.2v-2.3h0Z"/>
    <path id="Path_104" class="st1" d="M61.5,79.5h-.5c0-.7,0-1.4,0-2.2,0-.3,0-.7,0-1,0-.4-.3-.6-.7-.6-.4,0-.7.2-.8.6,0,.2-.1.4-.1.6,0,.9,0,1.8,0,2.7h-1.2v-4.7h1.1v.6c.3-.4.7-.7,1.2-.7.4,0,.9,0,1.3.3.4.4.7.9.6,1.4,0,1,0,2,0,3.1h-.7Z"/>
    <path id="Path_105" class="st1" d="M22.2,85.4c.6,0,1.1.3,1.4.8.1.2.2.5.3.8,0,1.1,0,2.2,0,3.3h-1.2c0,0,0-.2,0-.3v-2.6c0-.6-.3-.9-.8-.9-.5,0-.9.4-.9.9,0,0,0,0,0,0v2.7s0,0,0,0h-1.2v-4.7h1c0,.2,0,.3.1.6.3-.4.8-.7,1.3-.7h0Z"/>
    <path id="Path_106" class="st1" d="M38.6,86.6c0,0-.2,0-.2,0,0-.2-.1-.5-.2-.7.4-.3.9-.4,1.5-.4.5,0,1,0,1.4.3.4.2.6.6.6,1.1,0,1.1,0,2.3,0,3.4h-1c0-.1,0-.3,0-.4-.3.2-.5.3-.8.4-.7.3-1.6,0-1.9-.7-.4-.8,0-1.7.7-2,0,0,0,0,0,0,.6-.2,1.2-.3,1.8-.5,0-.6-.5-.8-1.1-.7-.3,0-.6.2-.9.3M40.3,89.2c.2-.4.3-.8.2-1.2-.4,0-.7.2-1,.3-.3,0-.5.4-.4.7,0,.3.2.5.4.6,0,0,0,0,0,0,.3,0,.5-.1.7-.3h0Z"/>
    <path id="Path_107" class="st1" d="M69.3,75.1c.4.4.5.9.5,1.4,0,.7,0,1.3,0,2v1h-1.1c0-.1,0-.2,0-.4-.4.3-.9.5-1.4.5-.8,0-1.4-.6-1.5-1.4,0-.2,0-.4.1-.6.3-.6.8-1,1.4-1.1.4,0,.7,0,1.1-.1,0-.3,0-.6-.3-.7-.6-.3-1.1,0-1.7.2,0-.2-.2-.5-.2-.7,0,0,0-.2.1-.2.2-.1.5-.2.7-.3.5-.1,1-.1,1.5,0,.2,0,.4.2.6.4M67.2,77.8c0,.2,0,.4,0,.6.2.3.6.4.9.2,0,0,0,0,.1-.1.5-.4.3-.8.3-1.3-.5.1-1.1,0-1.4.6Z"/>
    <path id="Path_108" class="st1" d="M17.1,86.4c-.6-.1-1.2,0-1.7.3,0-.3-.2-.6-.3-.9.3-.1.6-.2,1-.3.6-.2,1.3,0,1.9.2.5.3.7.8.7,1.3,0,.6,0,1.3,0,1.9,0,.4,0,.8,0,1.3h-1.1c0-.1,0-.3,0-.5-.4.4-1,.7-1.6.6-.6,0-1.1-.6-1.2-1.2-.1-.9.5-1.8,1.4-1.9,0,0,.1,0,.2,0,.4,0,.7,0,1.1-.1,0-.3-.1-.6-.5-.7M17.2,89.3c.5-.3.4-.8.4-1.4-.3,0-.7.1-1,.3-.3.1-.5.5-.4.8,0,0,0,.1,0,.2.2.4.5.4,1,.1h0Z"/>
    <path id="Path_109" class="st1" d="M46.1,96.6c.4.3.6.8.6,1.3,0,1,0,2.1,0,3.1h-1.2c0-.8,0-1.6,0-2.4,0-.3,0-.5-.1-.8,0-.4-.5-.6-.8-.6-.4,0-.8.4-.8.9v2.9h-1.2v-4.7h1c0,.2,0,.3.1.5.6-.7,1.7-.9,2.4-.3h0Z"/>
    <path id="Path_110" class="st1" d="M4.9,74.7c.6-.1,1.2,0,1.5.6.2.4.4.9.4,1.3,0,1,0,1.9,0,2.9h-1.2v-.9c0-.7,0-1.3,0-2,0-.6-.3-.9-.9-.9-.4,0-.7.4-.8.8,0,.7,0,1.3,0,2,0,.3,0,.7,0,1.1h-1.2v-4.7h1v.4c.4-.2.8-.3,1.2-.5h0Z"/>
    <path id="Path_111" class="st1" d="M13.2,85.5c.8.3,1.3,1,1.3,1.8v.9h-3c.1,1.1,1,1.3,2.6.9,0,.2.1.5.2.7,0,0,0,.2-.1.2-.9.4-1.9.3-2.8,0-.6-.4-1-1-1-1.7-.1-.8.1-1.5.6-2.2.3-.4.8-.7,1.3-.7.3,0,.6,0,1,0M13.4,87.1c-.2-.6-.5-.8-1-.7-.5,0-.7.3-.9,1.1h1.8v-.3Z"/>
    <path id="Path_112" class="st1" d="M34.5,77.5h-.7c-.1.4.3.9.7,1,.5.2,1.1.2,1.7,0,.2,0,.2,0,.3.2,0,.2,0,.4.1.7-1,.4-2.2.4-3.1-.2-.5-.3-.8-.8-.8-1.4-.1-.7,0-1.4.3-2.1.3-.6.9-1,1.6-1,.8-.2,1.6.2,1.9,1,.3.6.4,1.2.3,1.9h-2.3M34.6,75.5c-.5.1-.9.6-.8,1.1h1.8c0-.5-.2-1-.7-1.1,0,0-.2,0-.2,0"/>
    <path id="Path_113" class="st1" d="M54.8,77.5h-.5c.3,1.1.9,1.4,2.6.9,0,.2.1.5.2.7,0,.1,0,.2-.2.3-.8.3-1.7.3-2.5,0-.6-.2-1.1-.7-1.2-1.4-.3-.9,0-1.8.5-2.6.3-.4.8-.7,1.4-.8.5,0,1,0,1.5.3.5.3.8.9.8,1.5,0,.3,0,.7,0,1h-2.5M54.4,76.6h1.9c0-.1,0-.2,0-.3,0-.5-.5-.8-1-.8-.1,0-.2,0-.3,0-.3.2-.5.6-.5,1"/>
    <path id="Path_114" class="st1" d="M13.4,78.6c.2,0,.4,0,.6-.1,0,0,0,0,.1,0,0,.2.2.5.2.7,0,0,0,.2-.1.2-.8.3-1.7.3-2.5,0-.7-.3-1.2-.9-1.2-1.6-.2-.8,0-1.6.4-2.2.3-.5.9-.9,1.5-.9.7-.1,1.4.1,1.8.7.2.4.4.8.5,1.3,0,.3,0,.6,0,.9h-3c0,.4.2.9.6,1,.4,0,.8.1,1.2.1M12.5,76.6h1c0-.5-.2-1-.7-1.1-.6,0-1,.3-1.1,1.1h.9,0Z"/>
    <path id="Path_115" class="st1" d="M31.5,77.8c-.2.5-.4,1-.6,1.5,0,0,0,0,0,0-.4,0-.7,0-1.1,0-.1,0-.2-.2-.3-.3-.3-.9-.6-1.8-.9-2.7-.2-.6-.4-1.2-.6-1.8h1.3c.2.6.4,1.1.5,1.7.2.6.3,1.1.5,1.7l1-3.3h1.3c-.4,1-.7,2-1.1,3.1h0Z"/>
    <path id="Path_116" class="st1" d="M65.6,74.9v.8h-1.1v1.6c0,.2,0,.5,0,.7,0,.3.2.6.5.6.1,0,.2,0,.3,0,0,0,.1,0,.2,0v1c-.4,0-.9,0-1.3,0-.5-.1-.8-.5-.8-1.1,0-.8,0-1.6,0-2.5v-.3c-.2,0-.4,0-.6,0v-.9h.5v-1.1c.4-.1.8-.2,1.2-.3v1.3c.3,0,.6,0,.8,0,0,0,.2,0,.2.2h0Z"/>
    <path id="Path_117" class="st1" d="M55.1,87.1c.3-1,1.1-1.6,2.1-1.6.4,0,.8,0,1.2,0,.1,0,.2.1.2.2,0,0,0,0,0,0,0,.2-.1.5-.2.7-.7-.3-1.4-.3-1.9.4-.3.6-.4,1.3,0,1.8.5.6,1.3.8,2,.4,0,.3.1.5.2.8,0,0,0,.2-.2.2-.9.3-1.9.2-2.7-.3-.4-.3-.6-.7-.7-1.2-.1-.5-.1-1.1,0-1.7Z"/>
    <path id="Path_118" class="st1" d="M7.9,74.2v-.5c.4,0,.7-.2,1.1-.3v1.3h1.1v.9h-1.1c0,.8,0,1.6,0,2.4,0,.5.4.6,1,.5v1c-.5.2-1.1.1-1.6,0-.4-.2-.6-.6-.6-1.1,0-.9,0-1.7,0-2.6,0,0,0,0,0,0h-.6v-.9h.6v-.6h0Z"/>
    <path id="Path_119" class="st1" d="M6.7,86.6c.7-1.1,2.2-1.5,3.4-.9,0,.3-.2.6-.2.9-.4,0-.8,0-1.1,0-.8.2-1.3.9-1.1,1.7,0,0,0,0,0,.1.1.7.8,1.2,1.5,1.1,0,0,.2,0,.3,0,.4-.1.4-.1.5.4,0,.1,0,.3,0,.4-.9.4-1.9.3-2.7-.2-.6-.4-1-1.2-1-1.9,0-.5,0-1,.3-1.5Z"/>
  </g>
  <path id="Path_121" class="st1" d="M70.8,72.6v6.9h1.2v-6.9h-1.2Z"/>
  <path id="Path_122" class="st1" d="M.3,73v6.5h1.2v-6.5H.3Z"/>
  <g class="st2">
    <path id="Path_123" class="st1" d="M15.7,74.7h.6c0,.2,0,.4.1.7.3-.6.9-.9,1.5-.7v1.1c-.2,0-.4,0-.6,0-.5.2-.8.6-.7,1.1v2.5h-1.2v-4.7c.1,0,.2,0,.3,0h0Z"/>
    <path id="Path_124" class="st1" d="M37.8,74.7h.8c0,.2,0,.4,0,.7.5-.5.9-1,1.6-.7v1.1c-.1,0-.2,0-.3,0-.6,0-1,.4-1,1,0,0,0,0,0,0v2.6h-1.2v-4.7s.1,0,.2,0h0Z"/>
    <path id="Path_125" class="st1" d="M36.4,87.4c0,.1,0,.3,0,.4v2.5h-1.2v-4.7h1c0,.2,0,.4,0,.7.4-.5.9-1,1.6-.8v1.1c-.6,0-1.1,0-1.3.7h0Z"/>
  </g>
  <path id="Path_127" class="st1" d="M53.1,85.6v4.7h1.2v-4.7h-1.2ZM53.1,89.1h0s0,0,0,0Z"/>
  <path id="Path_128" class="st1" d="M35.3,96.4v4.7h1.2v-4.7h-1.2Z"/>
  <path id="Path_129" class="st1" d="M25.8,96.4v4.7h1.2v-4.7h-1.2ZM25.8,99h0s0,0,0,0Z"/>
  <g class="st3">
    <path id="Path_130" class="st1" d="M36.2,94.4c.2.2.3.3.4.5,0,.3-.1.7-.4.8,0,0-.1,0-.2,0-.3,0-.7-.2-.7-.5,0,0,0,0,0-.1,0-.4.2-.7.6-.7,0,0,0,0,0,0h.2"/>
    <path id="Path_131" class="st1" d="M53,84c.1-.4.6-.5.9-.4,0,0,0,0,0,0,.3.1.5.5.3.9,0,0,0,0,0,0-.1.3-.4.4-.7.4-.3,0-.6-.3-.6-.6v-.4h0Z"/>
    <path id="Path_132" class="st1" d="M27.1,94.8c0,.3,0,.6-.3.8-.2.2-.6.2-.8,0-.2-.2-.3-.5-.2-.7.1-.2.3-.4.5-.5.3,0,.7,0,.8.4h0Z"/>
    <path id="Path_133" class="st1" d="M75.2,30.6c-1.6-.5-3.1-1.4-4.3-2.5-1.7-1.6-2.9-3.6-3.5-5.9-.2-.8-.3-1.6-.3-2.4-.1-1.5.1-3.1.6-4.5.5-1.3,1.1-2.5,2-3.6,1.1-1.4,2.5-2.5,4.1-3.2,1.2-.6,2.5-1,3.8-1,.8,0,1.6,0,2.3,0,1.3,0,2.6.4,3.8.9,1.5.6,2.9,1.6,4,2.8,1.4,1.5,2.3,3.2,2.8,5.2.3,1.3.4,2.6.3,3.9,0,1.3-.4,2.6-.9,3.8-1.3,3-3.7,5.3-6.8,6.4-1.7.6-3.5.9-5.3.7-.9-.1-1.8-.3-2.7-.6M79.2,14.9h1v1c0,.2,0,.3.3.3.4,0,.9.2,1.3.4.7.5,1.5.7,2.3.6.3,0,.6,0,.9.1,1.3.2,2.5.7,3.6,1.4.7.5,1.4,1,2.1,1.6,0-1.1-.1-2.2-.2-3.3-.2-1.3-.7-2.5-1.4-3.7-.7-1.1-1.5-2.1-2.5-2.9-1-.9-2.1-1.5-3.3-2-1.3-.5-2.8-.8-4.2-.8-.5,0-1,0-1.4.1-1.1.1-2.2.4-3.2.9-1.5.7-2.9,1.7-4,2.9-.5.7-1.1,1.4-1.5,2.2-.9,1.5-1.4,3.2-1.4,5,0,.9,0,1.9.3,2.8.4,2.1,1.4,4.1,3,5.7,1,1,2.2,1.9,3.5,2.5,1.4.7,3,1,4.6,1,.6,0,1.2,0,1.7-.1,1.1-.1,2.1-.4,3.1-.9,1.7-.8,3.2-1.9,4.3-3.3.8-1,1.5-2.2,1.9-3.5,0-.1,0-.3,0-.4-.3-.4-.7-.8-1.1-1.2-.9-.9-2-1.5-3.1-1.9-.4-.1-.8-.3-1.2-.4,0,0,0,0,0,.1.2.2.4.4.6.5,1.5.4,2.9,1.3,3.9,2.6.2.3.5.6.7.9-1.9,5.2-7.3,8.2-12.7,7.2-4.3-.7-7.7-4-8.8-8.2.6,0,1.1.1,1.7.2.9.1,1.8,0,2.7-.3.1,0,.3-.2.2-.3,0-.4.1-.7.2-1.1.6-2.2,2.3-4,4.6-4.5.3,0,.3-.1.3-.4,0-.3,0-.7,0-1h1.3M81.1,16.9c-.4-.1-.8-.2-1.2-.3,0,0-.2-.2-.2-.3,0-.4,0-.7,0-1.1h-1.4c0,.4,0,.7,0,1.1,0,.1-.1.2-.2.3-1,.1-2,.6-2.8,1.3-1.6,1.3-2.4,3.3-2,5.3.2,1.1.6,2.1,1.4,3,.9,1.1,2.3,1.8,3.7,2v.5h1.4v-.5c.8-.1,1.6-.4,2.3-.8,1-.6,1.8-1.5,2.3-2.6.5-1,.6-2,.5-3.1-.2-1.2-.7-2.3-1.4-3.1-.6-.7-1.4-1.2-2.2-1.6M70.4,26c.1.1.2.2.3.3.8,1,1.9,1.9,3.1,2.5,1.8,1,3.8,1.4,5.8,1.3.6,0,1.2-.1,1.8-.2,2-.4,3.9-1.5,5.3-2.9.5-.5.9-1,1.3-1.5.4-.6.7-1.2,1.1-1.9h-1.9c-.2.4-.4.8-.6,1.2-1,1.8-2.5,3.3-4.4,4.1-1.6.7-3.3.9-5,.4-1.7-.4-3.2-1.3-4.3-2.6-.8-.9-1.5-1.9-1.9-3.1,0,0-.1-.2-.2-.2-.6,0-1.1,0-1.7,0,0,0,0,0,0,.1.5.8,1,1.5,1.5,2.4M87.3,22.8c-.6-.6-1.3-1.1-2.1-1.4,0,.5,0,.8.5,1.1.4.2.8.5,1.1.9.1-.4.5-.1.7-.2,0,0-.1-.2-.2-.3M85,24.2c-.2.3-.1.5.1.7.2.2.4.4.5.7.4-.5.4-.7,0-1.2-.2-.2-.3-.3-.5-.5,0,.1,0,.2-.1.4M84.1,27.2c.3-.4,0-.7-.2-1-.2.2-.4.4-.6.6.1.2.2.5.4.7.1-.1.3-.2.4-.3M73.5,25.3c0-.1-.1-.3-.2-.4-.4.1-.7.2-1.1.3.1.2.3.4.4.5.3-.1.6-.2.9-.3,0,0,0,0,0-.2M72.6,23.5c-.4,0-.7.2-1.2.3.2.2.3.4.4.4.4,0,.8-.2,1.2-.3,0-.2,0-.3,0-.5-.1,0-.2,0-.4,0M75.7,27.6c-.3,0-.6.1-.9.2.6.5.9.5,1.4,0-.1,0-.3-.2-.5-.2M73.5,26.6c0,0,0,.1,0,.2.1,0,.3.3.4.2.2,0,.5-.2.7-.3-.1-.2-.2-.3-.3-.5-.2.1-.4.2-.7.3"/>
    <path id="Path_134" class="st1" d="M36.7,21.3v-5.4c0-.1,0-.2,0-.4,0,0,.1-.1.2-.1,0,0,.2,0,.2.1,0,0,0,.2,0,.2v9c0,.1,0,.2-.1.3-.2.1-.3,0-.3-.3v-3.5h0Z"/>
    <path id="Path_135" class="st1" d="M77.8,13.7c0-.1,0-.2,0-.4,0-.6.4-1.1.9-1.2.4,0,.9,0,1.2.4.4.5.3,1.1,0,1.6-.4.5-1.2.5-1.7,0,0,0-.2-.2-.2-.3,0,0,0-.2-.1-.3M78.6,14c.3.2.7.2,1,0,.3-.3.3-.7.1-1-.2-.3-.6-.4-.9-.3-.4.2-.6.6-.4,1,0,.1.1.2.2.3h0Z"/>
    <path id="Path_136" class="st1" d="M79.7,20.9v-4c2.1.3,3.7,1.8,4.1,3.8.3,1.5,0,3-1,4.1-.7.8-1.6,1.4-2.7,1.7-.3,0-.4,0-.4-.3v-5.3M80.5,21.8c-.4,0-.4.4-.3.8,1.1-.5,2.2-.8,3.4-.8,0-.3,0-.5,0-.7-1,0-2,.3-2.9.7M81.1,23.3c-.2,0-.4.1-.6.2-.3,0-.4.2-.3.5,0,0,0,.2,0,.3.5-.1.9-.2,1.4-.3.5,0,1,0,1.5,0,0-.2.2-.4.4-.8-.8,0-1.5.2-2.2.3M81.4,19.4c-.3.1-.6.2-.9.3-.4.2-.4.2-.3.7.8-.5,1.8-.7,2.7-.8-.1-.3-.2-.6-.6-.4-.3.1-.6.1-.9.2M81.2,25.3c-.2,0-.4,0-.6.1q-.5.1-.4.7c.5-.3,1-.5,1.5-.8,0,0,0,0,0,0h-.5M80.2,17.9c.2,0,.5-.1.7-.2,0,0,0,0,0,0-.2,0-.4-.1-.7-.2,0,.2,0,.3,0,.5Z"/>
    <path id="Path_137" class="st1" d="M78.3,24.1v2.5c-2.3-.3-4.1-2.2-4.2-4.5-.2-2.6,1.7-4.9,4.2-5.2v7.3M77.9,17.5c0-.3-.2,0-.3,0-1.1.3-2,1.1-2.5,2-.2.5-.5,1-.6,1.5,0,0,.2,0,.2,0,1-.6,2-1.2,3-1.8,0,0,.1-.2.1-.3,0-.4,0-.8,0-1.3M75.8,22.2c-.4.2-.7.3-1.1.5,0,.1,0,.3.1.5,1-.5,1.9-1,2.8-1.5.3-.2.3-.4.3-.7-.7.4-1.4.7-2.1,1.1M77.9,23c-.9.4-1.8.8-2.7,1.2.1.2.2.3.4.5.6-.3,1.3-.6,1.9-.9.3,0,.5-.4.4-.7,0,0,0,0,0,0M77.9,24.9c0,0,0-.2,0-.3-.6.3-1.1.5-1.7.7.1,0,.3.2.4.2.3.2,1.2-.2,1.3-.6"/>
  </g>
</svg>