<?xml version="1.0" encoding="UTF-8"?>
<svg id="Layer_1" xmlns="http://www.w3.org/2000/svg" version="1.1" viewBox="0 0 1652.4 673">
  <!-- Generator: Adobe Illustrator 30.5.1, SVG Export Plug-In . SVG Version: 2.1.4 Build 3)  -->
  <defs>
    <style>
      .st0 {
        fill-rule: evenodd;
      }

      .st0, .st1 {
        fill: #fff;
      }

      .st2 {
        isolation: isolate;
      }
    </style>
  </defs>
  <g>
    <path id="path2" class="st1" d="M702,1c.2,85,.2,170.1.2,255.3H1.5V1.3c233.4-.2,466.9-.2,700.6-.2M398.4,8.7h-46.4v240h342.4V8.7h-296.1M127.7,198.7h-52.1v7h201.6v-7H127.7M126.8,186.9h-42.4v7.1h184v-7.1H126.7M121.1,75c18-5.5,35.9-10.9,53.9-16.3,1-.3,2.2-.3,3.2,0,24.6,7.4,49.1,14.9,73.7,22.3,2.5.7,5,1.5,7.7,2.3,0-2.1-.1-4,0-5.8.1-1.6-.6-2-1.9-2.4-26.5-8.1-53-16.3-79.5-24.4-1-.3-2.4-.3-3.4,0-11.3,3.4-22.6,6.9-33.9,10.4-15.1,4.6-30.1,9.3-45.2,13.9-.8.2-1.9,1.1-2,1.7-.3,2,0,4.1,0,6.5,9.2-2.8,18.1-5.5,27.4-8.3M243.3,182.4h16.1v-7H93.8v7h149.5M244.2,94.7h15.1v-6.9H93.8v6.9h150.4M243.9,82.8c-21.8-6.7-43.6-13.5-65.4-20.1-1.2-.4-2.7-.4-3.9,0-14,4.2-27.9,8.5-41.8,12.7-8.2,2.5-16.5,5-24.7,7.5,6.5.3,13,.3,19.5.3s.9-.2,1.4-.4c15.2-4.5,30.3-9.1,45.5-13.5,1.2-.4,2.7-.4,3.9,0,12,3.6,23.9,7.3,35.9,10.9,3.6,1.1,7.1,2.7,10.7,3,6.2.5,12.5,0,18.8-.3M237.9,153.6v12.2c0,3.2,1.6,5.2,4.3,5.7,4.7.9,7.7-1.6,7.7-6.4v-60.1c0-4.3-2-6.3-6.3-6.1-3.9,0-5.8,2.2-5.8,6.6v48.1M110.5,115.9v48.7c0,1.2.5,3-1.4,3s-1.1-2-1.1-3v-63.2c0-21,0-1.5,0-2.3h-4.4c0,.3-.2.5-.2.6v66.1c0,4,2.3,5.9,6.2,5.8,3.7,0,5.4-2,5.4-6v-64.4c0-.7,0-1.4,0-2.1h-4.4v16.9M134.2,140.7v-7.9h.3c1.3,12.9,2.6,25.8,3.9,38.7h3.6v-72.4h-3.7v33.5h-.4c-1.3-11.2-2.5-22.4-3.8-33.6h-3.3v72.4h3.3v-30.7M190.4,116.8v3.5h4.7v-7.2c0-3.4,0-6.8-.3-10.2-.3-2.9-2.4-4.1-5.8-4-2.9,0-5.3,1.9-5.3,4.5,0,8.9-1.1,17.8,1.9,26.5,4,11.3,5.5,22.9,4.7,34.9,0,1-.4,1.9-.5,2.9h-1.1c-.2-1-.6-2-.6-3v-16.4h-4.4v18.1c0,3.3,1.7,5.1,4.9,5.3,3.7.2,6.3-1.4,6.4-4.8,0-9.2,1.1-18.5-1.9-27.4-3.8-11.2-5.8-22.6-4.8-34.4,0-.7.6-1.5.9-2.2.4.7,1.2,1.4,1.2,2.1.1,3.8,0,7.6,0,11.9M222.4,161.2v-13h-4.6v17.5c0,.6-.6,1.2-1,1.9-.6-.5-1.3-1-1.7-1.6-.3-.5-.1-1.2-.1-1.9v-58c0-1.3-.4-3.4,1.6-3.3,2,0,1.2,2.1,1.2,3.3v14.3h4.6v-16.1c0-.4-.2-.8-.3-1.2-.9-3.2-3.1-4.6-6.7-4.1-2.7.3-4.4,2.2-4.4,5.3v62.3c0,2.9,1.7,4.7,4.4,5,3.5.4,5.9-.8,6.6-3.7.4-2,.3-4.1.5-6.6M158.2,164.1v7.3h11.1v-3.8h-5.9v-32.4c1.6,0,3-.1,4.5-.2v-4c-1.6,0-3-.2-4.5-.3v-28.1h4.5v-3.6h-9.7v65.1h0Z"/>
    <path id="path83" class="st1" d="M498.4,204c-10.8-3.7-20.3-9.2-28.6-16.9-11.7-10.7-19.3-23.7-23.2-38.9-1.4-5.2-1.6-10.8-2-16.2-.8-10.2.8-20.1,4.2-29.8,3.1-8.6,7.5-16.5,13.3-23.6,7.6-9.1,16.5-16.4,27.3-21.4,8-3.7,16.3-6.5,25.2-7,5.1-.2,10.3-.8,15.4-.4,8.6.6,17,2.7,24.9,6.1,10.1,4.4,18.9,10.6,26.4,18.6,9.2,9.9,15.4,21.3,18.9,34.3,2.3,8.6,2.8,17.4,2.3,26.2-.5,8.7-2.8,17.1-6.2,25.2-4.6,10.8-11.5,20-20.2,27.9-7.2,6.5-15.5,11.3-24.6,14.8-11.4,4.4-23.3,5.6-35.3,4.6-5.9-.5-11.7-2.4-17.7-3.7M524.4,99.4h6.4v7c0,1.3.3,1.8,1.7,2.2,2.9.7,6,1.4,8.5,3,4.8,2.9,9.6,5,15.4,4.2,1.8-.2,3.8.6,5.7.9,8.7,1.2,16.6,4.4,23.8,9.2,4.7,3.1,9,6.8,14,10.6-.5-7.4-.4-14.7-1.6-21.9-1.4-8.6-4.7-16.8-9.2-24.4-4.4-7.4-9.9-13.8-16.3-19.4-6.5-5.7-13.9-10-22.1-13.2-9-3.5-18.3-4.8-27.8-5.3-3.2-.2-6.4.5-9.6.9-7.4.8-14.5,2.9-21.2,5.9-10.1,4.6-19.2,10.7-26.2,19.5-3.6,4.5-7,9.3-10,14.3-6,10.2-8.7,21.4-9.2,33.1-.2,6.1.8,12.3,1.8,18.4,2.5,14.6,9.6,26.9,19.8,37.6,6.7,7,14.6,12.3,23.4,16.4,9.7,4.5,19.9,6.5,30.5,6.9,3.8.2,7.7-.5,11.5-.9,7.1-.8,14-2.8,20.5-5.8,11.2-5.1,20.8-12.5,28.6-22.1,5.7-7,9.9-14.8,12.8-23.3.2-.7,0-1.9-.4-2.4-2.3-2.6-4.7-5.2-7.2-7.7-5.9-5.9-13-9.9-20.6-12.9-2.6-1.1-5.5-1.6-8.2-2.4-.2.3-.3.6-.5.9,1.3,1,2.4,2.6,3.9,3,10.3,3.4,19.4,8.5,26.1,17.3,1.5,2,3.2,3.8,4.8,5.8-11.3,31.4-44.2,54.3-84,47.6-31-5.3-53.5-30.4-58.4-54.3,3.8.4,7.6.7,11.3,1.4,6.2,1.1,12.1,0,17.9-1.9,1.1-.4,1.5-.9,1.7-2.1.2-2.5.8-4.9,1.4-7.3,2-8.1,6.2-14.9,12.5-20.5,5.2-4.6,11.3-7.7,18-9.2,1.7-.4,2-1,2-2.4v-6.7h8.4M537.2,112.8c-2.7-.7-5.4-1.2-8.1-2-.5,0-1-1.1-1-1.8,0-2.4,0-4.7,0-7.1h-9.1c0,2.4,0,4.8,0,7,0,.7-.9,1.7-1.5,1.8-6.9,1.1-13.2,3.8-18.4,8.4-10.6,9.3-15.5,20.8-13.6,35.1,1,7.5,4.1,14,9,19.6,6.4,7.4,14.6,11.7,24.5,13.1v3.1h9v-3c5.4-1,10.4-2.5,15.1-5.3,6.9-4.2,12.1-9.9,15.3-17.1,2.9-6.4,4.2-13.3,3.1-20.5-1.2-7.9-4.2-14.9-9.5-20.8-4-4.6-9-7.7-14.8-10.3M466.5,173.1c.7.7,1.5,1.4,2.1,2.2,5.6,7,12.5,12.5,20.4,16.7,12,6.4,24.7,9.7,38.3,8.6,4-.3,8-.6,11.8-1.5,13.6-3.1,25.4-9.5,35.2-19.4,3-3.1,5.9-6.3,8.3-9.9,2.7-3.9,4.8-8.2,7.3-12.6h-12.4c-1.4,2.8-2.7,5.5-4.1,8.1-6.7,12.4-16.3,21.8-29.3,27.4-10.7,4.7-21.8,5.6-33.1,2.9-11.3-2.7-20.8-8.7-28.6-17.4-5.5-6.1-9.8-12.8-12.8-20.4-.2-.5-1-1.1-1.5-1.1h-11c-.2.2-.4.4-.6.7,3.3,5.1,6.6,10.3,9.9,15.7M578.2,152.2c-3.8-4.2-8.3-7.4-13.8-9.2-.3,3.1,0,5.4,3.3,7,2.7,1.3,4.9,3.8,7.3,5.8.7-2.7,3.1-.7,4.4-1.7-.3-.6-.6-1.1-1.2-1.9M562.8,161.2c-1.3,1.8-.9,3.1.7,4.6,1.4,1.3,2.4,3,3.5,4.4,2.8-3.6,2.8-4.6-.2-7.9-1-1.1-2-2.2-3.2-3.6-.4,1-.6,1.5-.8,2.4M556.9,181.5c2.2-2.8-.5-4.4-1.3-6.5-1.4,1.4-2.7,2.6-3.9,3.8.8,1.7,1.6,3.3,2.3,5,.9-.7,1.7-1.3,2.9-2.2M487,168.3c-.4-.9-.8-1.8-1.2-2.5-2.6.7-5,1.4-7.6,2.2.9,1.3,1.7,2.4,2.5,3.6,2.1-.7,4.1-1.3,6-2,.2,0,.3-.6.2-1.2M480.6,156.7c-2.5.5-4.9,1.1-8.1,1.8,1.2,1,2,2.4,2.8,2.4,2.8-.3,5.5-1.1,8.2-1.7-.2-1.2-.4-2-.5-3-.8.2-1.3.4-2.3.6M501.5,183.8c-1.9.4-3.7.9-6,1.4,4,3.3,5.7,3.2,9,0-.9-.5-1.8-1-3-1.5M487,176.9c-.2.4-.7,1.2-.6,1.2,1,.6,2,1.7,3,1.6,1.5-.2,2.9-1.2,4.5-1.9-.8-1.1-1.5-2-2.2-3-1.5.7-2.9,1.3-4.6,2.1h0Z"/>
    <path id="path84" class="st1" d="M242.5,141.9v-35.8c0-.8,0-1.6.2-2.4.2-.4.9-1,1.4-.9.5,0,1.1.5,1.4,1,.3.4.2,1.1.2,1.6v59.7c0,.8-.2,1.8-.7,2.3-1,.9-2.3-.2-2.3-2.1v-23.4h-.2Z"/>
    <path id="path95" class="st1" d="M515.7,91.9v-2.3c-.5-4,2.1-6.9,6.2-8.1,2.4-.7,6.6.8,8,2.8,2.3,3.4,2.2,7.8-.4,10.6-3.5,3.8-9.8,3.7-12.8-1.1-.3-.5-.6-1.1-.9-1.8M520.4,93.5c2.4,1.7,4.4,1.4,6.5-.3,2-1.7,1.9-5.1,1-6.5-1.3-2-4.1-2.9-6.3-2.1-3.6,1.4-4.3,5.7-1.2,8.9Z"/>
    <path id="path96" class="st1" d="M528,139.5v-26.5c13,1.1,24.9,12.4,27.3,25.5,1.9,10.3-.2,19.3-6.8,27.5-4.7,5.8-10.8,9.1-17.9,11-2,.5-2.6,0-2.6-2.3v-35.3M533.3,145.4c-2.9.7-2.5,2.8-2.2,5.1,7.2-3,14.3-5.4,22.4-5.3-.2-1.7-.4-3.2-.6-4.6-6.9.1-13.2,2-19.5,4.9M537.3,155.7c-1.3.3-2.7.7-4,1-1.7.4-2.8,1.3-2.4,3.3,0,.5,0,1.1,0,1.7,3.1-.7,6-1.6,9-2.1,3.1-.4,6.3-.4,9.9-.6.5-1.2,1.3-2.9,2.4-5.2-5.3.6-9.9,1.1-14.9,1.9M539.2,129.4c-1.9.7-3.9,1.3-5.8,2.2-2.7,1.2-2.7,1.3-2.2,4.4,5.7-3.1,11.6-5,18.3-5.2-1-1.7-1.3-3.9-4.2-2.8-1.8.7-3.8.8-6,1.4M537.9,168.6c-1.4.3-2.9.6-4.3,1q-3.1.8-2.5,4.8c3.5-1.7,6.9-3.4,10.2-5.1,0-.2-.2-.5-.3-.7h-3.2M531,119.7c1.5-.5,3-.9,4.5-1.4v-.5c-1.5-.5-2.9-1-4.7-1.5v3.4h.2Z"/>
    <path id="path97" class="st1" d="M518.9,161v16.5c-16.7-2.1-27.2-15.9-28.1-29.9-1.2-18.5,12-32.5,28.1-34.8v48.2M516.1,117.1c-.2-1.8-1.4-.5-1.8-.4-7.3,2.4-12.9,7-16.7,13.5-1.8,3-2.6,6.4-4.1,10.2,1.1-.4,1.4-.4,1.7-.6,6.7-4.1,13.3-8.1,20-12.2.5-.3.9-1.2.9-1.8v-8.7M501.8,148.3c-2.3,1.2-4.7,2.3-7.3,3.6.2.9.5,1.9.8,3.3,6.5-3.5,12.5-6.9,18.8-9.9,2.3-1.1,2.1-2.5,1.8-4.3-4.7,2.4-9.3,4.8-14.2,7.3M516,153.6c-5.9,2.6-11.8,5.1-17.8,7.7.9,1.2,1.6,2.1,2.4,3.1,4.3-2,8.4-4,12.7-5.8,2.3-.9,3.1-2.3,2.6-5M516.1,165.9c0-.7,0-1.3,0-2.2-3.8,1.7-7.3,3.3-11,5,.9.6,1.7,1,2.4,1.5,1.8,1.2,8.2-1.6,8.7-4.2h0Z"/>
  </g>
  <path class="st1" d="M17.1,506.9c0-3.6,0-6.6-.2-9.3h6.6l.4,4.7h.2c1.3-2.4,4.5-5.4,9.5-5.4s10.6,3.5,10.6,13.3v18.5h-7.5v-17.6c0-4.5-1.6-7.9-5.7-7.9s-5.1,2.2-5.9,4.6c-.2.7-.3,1.7-.3,2.5v18.3h-7.6v-21.8h0Z"/>
  <path class="st1" d="M59.4,488.8v8.9h7.2v5.9h-7.2v13.7c0,3.8,1,5.7,3.9,5.7s2.3-.2,2.9-.4v6c-1,.5-2.9.8-5.3.8s-5.1-1-6.5-2.6c-1.6-1.8-2.3-4.6-2.3-8.7v-14.6h-4.3v-5.9h4.3v-7l7.4-1.9h0Z"/>
  <path class="st1" d="M76.1,515.4c.2,5.6,4.4,8.1,9.2,8.1s6-.5,8.3-1.4l1.1,5.4c-2.6,1.1-6.1,1.9-10.4,1.9-9.7,0-15.4-6.2-15.4-15.7s5-16.7,14.6-16.7,12.9,8.3,12.9,15.1,0,2.6-.2,3.3h-20.1ZM89.2,509.9c0-2.9-1.2-7.6-6.2-7.6s-6.6,4.4-6.9,7.6h13.1Z"/>
  <path class="st1" d="M101.6,507.7c0-4.2,0-7.2-.2-10h6.6l.2,5.9h.2c1.5-4.4,5-6.6,8.1-6.6s1.2,0,1.8.2v7.4c-.6-.1-1.3-.3-2.2-.3-3.6,0-6.1,2.4-6.7,5.9,0,.7-.2,1.5-.2,2.4v16.1h-7.5v-21.1h-.1Z"/>
  <path class="st1" d="M149.8,497.7c-.1,2.1-.2,4.7-.2,8.9v17.6c0,6.5-1.3,11.2-4.4,14.1-3.1,2.9-7.4,3.8-11.5,3.8s-7.8-.8-10.4-2.5l1.7-5.9c1.9,1.1,5.1,2.4,8.7,2.4s8.6-2.7,8.6-9.4v-2.7h-.1c-1.7,2.7-4.8,4.6-8.7,4.6-7.4,0-12.7-6.4-12.7-15.2s6.4-16.4,13.5-16.4,7.2,2.3,8.6,4.9h.1l.3-4.1h6.6-.1ZM142,510.1c0-.7,0-1.5-.2-2.1-.8-2.9-2.9-5-6.1-5s-7.4,3.8-7.4,10.2,2.6,9.6,7.3,9.6,5.3-1.9,6.1-4.7c.2-.8.3-1.9.3-2.8v-5.2Z"/>
  <path class="st1" d="M185,512.9c0,11.4-7.7,16.5-15.3,16.5s-15-6.1-15-16,6.4-16.5,15.4-16.5,14.8,6.5,14.8,16M162.5,513.2c0,6,2.8,10.5,7.4,10.5s7.3-4.4,7.3-10.7-2.1-10.4-7.2-10.4-7.5,5.4-7.5,10.5"/>
  <path class="st1" d="M194.2,497.7l4.8,15.8c.9,2.7,1.5,5.2,2,7.8h.2c.6-2.6,1.2-5,2-7.8l4.7-15.8h8l-11.4,31.1h-7.4l-11.1-31.1h8.2Z"/>
  <path class="st1" d="M224,515.4c.2,5.6,4.4,8.1,9.2,8.1s6-.5,8.3-1.4l1.1,5.4c-2.6,1.1-6.1,1.9-10.4,1.9-9.7,0-15.4-6.2-15.4-15.7s5-16.7,14.6-16.7,12.9,8.3,12.9,15.1-.1,2.6-.2,3.3h-20.1ZM237.1,509.9c0-2.9-1.2-7.6-6.2-7.6s-6.6,4.4-6.9,7.6h13.1,0Z"/>
  <path class="st1" d="M249.4,507.7c0-4.2,0-7.2-.2-10h6.6l.2,5.9h.2c1.5-4.4,5-6.6,8.1-6.6s1.2,0,1.8.2v7.4c-.6-.1-1.3-.3-2.2-.3-3.6,0-6.1,2.4-6.7,5.9-.1.7-.2,1.5-.2,2.4v16.1h-7.5v-21.1h0Z"/>
  <path class="st1" d="M270.3,506.9c0-3.6,0-6.6-.2-9.3h6.6l.4,4.7h.2c1.3-2.4,4.5-5.4,9.5-5.4s10.6,3.5,10.6,13.3v18.5h-7.5v-17.6c0-4.5-1.6-7.9-5.7-7.9s-5.1,2.2-5.9,4.6c-.2.7-.3,1.7-.3,2.5v18.3h-7.6v-21.8h-.1Z"/>
  <path class="st1" d="M304.2,506.9c0-3.6,0-6.6-.2-9.3h6.5l.3,4.6h.2c1.5-2.4,4.2-5.3,9.2-5.3s7,2.3,8.3,5.7h.1c1-1.7,2.3-3,3.7-3.9,1.7-1.2,3.6-1.9,6-1.9,5,0,10,3.5,10,13.5v18.3h-7.4v-17.2c0-5.2-1.7-8.2-5.3-8.2s-4.5,1.9-5.3,4.2c-.2.8-.4,1.7-.4,2.6v18.6h-7.4v-18c0-4.3-1.7-7.4-5.1-7.4s-4.7,2.3-5.4,4.5c-.3.8-.4,1.7-.4,2.6v18.4h-7.4v-21.8h0Z"/>
  <path class="st1" d="M360.6,515.4c.2,5.6,4.4,8.1,9.2,8.1s6-.5,8.3-1.4l1.1,5.4c-2.6,1.1-6.1,1.9-10.4,1.9-9.7,0-15.4-6.2-15.4-15.7s5-16.7,14.6-16.7,12.9,8.3,12.9,15.1-.1,2.6-.2,3.3h-20.1ZM373.7,509.9c0-2.9-1.2-7.6-6.2-7.6s-6.6,4.4-6.9,7.6h13.1Z"/>
  <path class="st1" d="M386.1,506.9c0-3.6,0-6.6-.2-9.3h6.6l.4,4.7h.2c1.3-2.4,4.5-5.4,9.5-5.4s10.6,3.5,10.6,13.3v18.5h-7.5v-17.6c0-4.5-1.6-7.9-5.7-7.9s-5.1,2.2-5.9,4.6c-.2.7-.3,1.7-.3,2.5v18.3h-7.6v-21.8h-.1Z"/>
  <path class="st1" d="M428.4,488.8v8.9h7.2v5.9h-7.2v13.7c0,3.8,1,5.7,3.9,5.7s2.3-.2,2.9-.4v6c-1,.5-2.9.8-5.3.8s-5.1-1-6.5-2.6c-1.6-1.8-2.3-4.6-2.3-8.7v-14.6h-4.3v-5.9h4.3v-7l7.4-1.9h-.1Z"/>
  <path class="st1" d="M457.5,528.8l-.5-3.5h-.2c-1.8,2.4-5,4.1-8.8,4.1-6,0-9.4-4.5-9.4-9.3,0-7.9,6.7-11.8,17.7-11.7v-.5c0-2-.8-5.4-6.1-5.4s-6,1-8,2.3l-1.5-5.1c2.2-1.4,6.1-2.7,10.8-2.7,9.6,0,12.3,6.3,12.3,13.1v11.2c0,2.8.1,5.6.4,7.5h-6.8.1ZM456.5,513.6c-5.3,0-10.4,1.1-10.4,5.8s1.9,4.5,4.3,4.5,5.2-2,5.9-4.3c.2-.6.2-1.2.2-1.7v-4.3Z"/>
  <rect class="st1" x="470.7" y="483.4" width="7.6" height="45.3"/>
  <path class="st1" d="M38.8,578.6c0,14.4-8.4,22.7-19.8,22.7s-19-9.3-19-21.9,8-22.5,19.6-22.5,19.2,9.5,19.2,21.8M8,579.2c0,8.7,4.2,15.7,11.5,15.7s11.4-7,11.4-16-3.9-15.8-11.4-15.8-11.5,7.2-11.5,16.1"/>
  <path class="st1" d="M66.4,599.6c-1.6.8-4.7,1.6-8.5,1.6-9.3,0-15.4-6.2-15.4-15.8s6.1-16.6,16.6-16.6,5.6.6,7.3,1.5l-1.3,5.9c-1.2-.6-3-1.2-5.7-1.2-5.8,0-9.2,4.4-9.1,10.1,0,6.4,4,10,9.1,10s4.5-.6,5.9-1.2l1,5.8h.1Z"/>
  <path class="st1" d="M577.8,393.8c-5.3,5.3-12.3,8.2-19.8,8.2-15.5,0-28.1-12.6-28.1-28.1s12.6-28.1,28.1-28.1,14.4,2.9,19.7,8.1l.7.7,12.8-27.2-.5-.3c-9.7-6.8-21-10.5-32.9-10.5-31.4,0-57,25.6-57,57s25.6,57,57,57,23.2-3.6,32.8-10.4l.5-.3-12.6-26.8-.7.7h0Z"/>
  <path class="st1" d="M658.5,316.9c-31.4,0-56.9,25.5-56.9,56.9s25.5,56.9,56.9,56.9,56.9-25.5,56.9-56.9-25.5-56.9-56.9-56.9M658.6,402c-15.4,0-28-12.6-28-28s12.6-28,28-28,28,12.6,28,28-12.6,28-28,28"/>
  <path class="st1" d="M36.2,320.3v58.8c0,4.8.5,12.2,6,17.2,2.4,2.1,6.7,5,14.3,5s11.5-2.2,14.6-5c5-4.8,5.7-12,5.7-17.2v-58.8h34.4v62.2c0,12.2-1.2,23.7-12,34.2-12.2,12-30.1,13.9-42.8,13.9s-30.8-1.9-43-13.9c-9.8-9.6-11.7-20.3-11.7-32v-64.3h34.5Z"/>
  <path class="st1" d="M138.1,320.3h34.4v12.7c10.5-13.4,22.9-15.5,33-15.5s21.5,1.7,30.6,10.8c10,10,10.8,22.7,10.8,31.3v67.4h-34.4v-54.8c0-6.9-.2-15.8-5.7-21.3s-6.9-4.8-13.1-4.8-11.7,2.9-14.4,5.7c-5.7,5.7-6.7,13.4-6.7,20.3v54.8h-34.4v-106.6h-.1Z"/>
  <path class="st1" d="M382.9,379.6h-79.6c0,5.7,2.2,13.4,6.5,18.2,5.3,5.7,12.4,6.7,17.7,6.7s10.3-1,13.9-3.1c.5-.2,4.5-2.9,7.4-8.8l32.5,3.3c-4.8,15.1-14.3,22.9-20.6,26.8-10.3,6.2-21.8,7.9-33.7,7.9s-30.1-2.9-42.6-15.3c-9.3-9.3-16-23.4-16-41.1s5.5-31.1,16.3-42.1c12.9-12.9,28.9-15.3,40.9-15.3s29.2,2.2,42.3,16c12.7,13.4,15.1,30.1,15.1,43.3v3.6h0ZM351.1,359c-.2-1-1.9-7.7-6.9-12.4-3.8-3.6-9.3-6-16.3-6s-14.1,3.6-17.5,6.9c-2.6,2.9-5,6.7-6,11.5h46.7Z"/>
  <path class="st1" d="M469.7,347.5c-5.3-3.1-12.2-6-18.9-6s-7.7,1-9.8,3.1c-1.2,1.2-2.1,3.1-2.1,4.8s1.7,3.8,3.3,4.8c2.4,1.4,6,2.2,10.3,3.6l9.1,2.9c6,1.9,12.2,4.3,17.7,9.3,6.2,5.7,8.4,12.2,8.4,20.3,0,14.1-6.2,23.2-11,28-10.5,10.5-23.4,12.2-34.7,12.2s-29.9-3.1-43.8-15.3l14.6-23.2c3.3,2.9,8.1,6.2,11.7,7.9,4.8,2.4,9.8,3.4,14.3,3.4s7.7,0,10.8-2.4c2.2-1.7,3.6-4.3,3.6-6.9s-.7-4.3-3.8-6.2c-2.4-1.4-5.5-2.4-10.5-3.8l-8.6-2.6c-6.2-1.9-12.7-5.3-17.2-9.8-5-5.3-7.7-11.2-7.7-19.4s4.1-18.9,10.3-24.6c9.6-8.8,22.5-10.8,32.3-10.8,15.8,0,26.8,4.1,35.4,9.1l-13.6,21.8v-.2Z"/>
  <path class="st1" d="M75.7,587.2c.2,5.6,4.4,8.1,9.2,8.1s6-.5,8.3-1.4l1.1,5.4c-2.6,1.1-6.1,1.9-10.4,1.9-9.7,0-15.4-6.2-15.4-15.7s5-16.7,14.6-16.7,12.9,8.3,12.9,15.1,0,2.6-.2,3.3h-20.1ZM88.9,581.7c0-2.9-1.2-7.6-6.2-7.6s-6.6,4.4-6.9,7.6h13.1Z"/>
  <path class="st1" d="M117.9,600.6l-.5-3.5h-.2c-1.8,2.4-5,4.1-8.8,4.1-6,0-9.4-4.5-9.4-9.3,0-7.9,6.7-11.8,17.7-11.7v-.5c0-2-.8-5.4-6.1-5.4s-6,1-8,2.3l-1.5-5.1c2.2-1.4,6.1-2.7,10.8-2.7,9.6,0,12.3,6.3,12.3,13.1v11.2c0,2.8,0,5.6.4,7.5h-6.8,0ZM116.9,585.4c-5.3,0-10.4,1.1-10.4,5.8s1.9,4.5,4.3,4.5,5.2-2,5.9-4.3c.2-.6.2-1.2.2-1.7v-4.3Z"/>
  <path class="st1" d="M131.1,578.7c0-3.6,0-6.6-.2-9.3h6.6l.4,4.7h.2c1.3-2.4,4.5-5.4,9.5-5.4s10.6,3.5,10.6,13.3v18.5h-7.5v-17.6c0-4.5-1.6-7.9-5.7-7.9s-5.1,2.2-5.9,4.6c-.2.7-.3,1.7-.3,2.5v18.3h-7.6v-21.8h-.1Z"/>
  <path class="st1" d="M193.5,584.7c0,11.4-7.7,16.5-15.3,16.5s-15-6.1-15-16,6.4-16.5,15.4-16.5,14.8,6.5,14.8,16M171,585c0,6,2.8,10.5,7.4,10.5s7.3-4.4,7.3-10.7-2.1-10.4-7.2-10.4-7.5,5.4-7.5,10.5"/>
  <path class="st1" d="M226.3,569.5c-.1,2.1-.2,4.7-.2,8.9v17.6c0,6.5-1.3,11.2-4.4,14.1-3.1,2.9-7.4,3.8-11.5,3.8s-7.8-.8-10.4-2.5l1.7-5.9c1.9,1.1,5.1,2.4,8.7,2.4s8.6-2.7,8.6-9.4v-2.7h-.1c-1.7,2.7-4.8,4.6-8.7,4.6-7.4,0-12.7-6.4-12.7-15.2s6.4-16.4,13.5-16.4,7.2,2.3,8.6,4.9h.1l.3-4.1h6.6-.1ZM218.5,581.9c0-.7,0-1.5-.2-2.1-.8-2.9-2.9-5-6.1-5s-7.4,3.8-7.4,10.2,2.6,9.6,7.3,9.6,5.3-1.9,6.1-4.7c.2-.8.3-1.9.3-2.8v-5.2Z"/>
  <path class="st1" d="M233.1,579.5c0-4.2,0-7.2-.2-10h6.6l.2,5.9h.2c1.5-4.4,5-6.6,8.1-6.6s1.2,0,1.8.2v7.4c-.6,0-1.3-.3-2.2-.3-3.6,0-6.1,2.4-6.7,5.9-.1.7-.2,1.5-.2,2.4v16.1h-7.5v-21.1h-.1Z"/>
  <path class="st1" d="M270.6,600.6l-.5-3.5h-.2c-1.8,2.4-5,4.1-8.8,4.1-6,0-9.4-4.5-9.4-9.3,0-7.9,6.7-11.8,17.7-11.7v-.5c0-2-.8-5.4-6.1-5.4s-6,1-8,2.3l-1.5-5.1c2.2-1.4,6.1-2.7,10.8-2.7,9.6,0,12.3,6.3,12.3,13.1v11.2c0,2.8.1,5.6.4,7.5h-6.8.1ZM269.7,585.4c-5.3,0-10.4,1.1-10.4,5.8s1.9,4.5,4.3,4.5,5.2-2,5.9-4.3c.2-.6.2-1.2.2-1.7v-4.3Z"/>
  <path class="st1" d="M283.8,579.8c0-4.1-.1-7.4-.2-10.3h6.6l.4,4.8h.1c2.2-3.5,5.7-5.5,10.2-5.5,6.9,0,12.6,6.1,12.6,15.8s-6.8,16.7-13.6,16.7-6.9-1.7-8.4-4.1h-.1v16.1h-7.5v-33.4h-.1ZM291.4,587.5c0,.8,0,1.5.2,2.2.7,3.2,3.4,5.5,6.6,5.5,4.8,0,7.6-4.1,7.6-10.3s-2.6-10-7.4-10-6,2.4-6.7,5.8c-.2.6-.3,1.3-.3,2v4.8h0Z"/>
  <path class="st1" d="M318.9,555.2h7.6v18.5h.1c.9-1.5,2.1-2.7,3.7-3.6,1.5-.9,3.2-1.4,5.1-1.4,5.1,0,10.4,3.5,10.4,13.5v18.3h-7.5v-17.4c0-4.5-1.6-7.9-5.8-7.9s-5,2-5.8,4.4c-.2.6-.3,1.5-.3,2.4v18.6h-7.6v-45.3h0Z"/>
  <path class="st1" d="M360.8,560.8c0,2.4-1.7,4.2-4.3,4.2s-4.2-1.8-4.2-4.2,1.7-4.3,4.2-4.3,4.2,1.9,4.2,4.3M352.7,569.5h7.6v31.1h-7.6v-31.1Z"/>
  <path class="st1" d="M389.3,599.6c-1.6.8-4.7,1.6-8.5,1.6-9.3,0-15.4-6.2-15.4-15.8s6.1-16.6,16.6-16.6,5.6.6,7.3,1.5l-1.3,5.9c-1.2-.6-3-1.2-5.7-1.2-5.8,0-9.2,4.4-9.1,10.1,0,6.4,4,10,9.1,10s4.5-.6,5.9-1.2l1,5.8h.1Z"/>
  <path class="st1" d="M31.8,671.1c-1.8,1-5.7,1.9-10.7,1.9-13.1,0-21.1-8.6-21.1-21.6s9.4-22.7,22.1-22.7,8.5,1.1,10.1,1.9l-1.7,6.3c-2-.9-4.7-1.7-8.1-1.7-8.4,0-14.5,5.5-14.5,15.8s5.3,15.5,14.4,15.5,6.3-.6,8.2-1.6l1.2,6.2h0Z"/>
  <path class="st1" d="M64.4,656.5c0,11.4-7.7,16.5-15.3,16.5s-15-6.1-15-16,6.4-16.5,15.4-16.5,14.8,6.5,14.8,16M41.9,656.8c0,6,2.8,10.5,7.4,10.5s7.3-4.4,7.3-10.7-2.1-10.4-7.2-10.4-7.5,5.4-7.5,10.5"/>
  <path class="st1" d="M69.6,650.5c0-3.6,0-6.6-.2-9.3h6.5l.3,4.6h.2c1.5-2.4,4.2-5.3,9.2-5.3s7,2.3,8.3,5.7h0c1-1.7,2.3-3,3.7-3.9,1.7-1.2,3.6-1.9,6-1.9,5,0,10,3.5,10,13.5v18.3h-7.4v-17.2c0-5.2-1.7-8.2-5.3-8.2s-4.5,1.9-5.3,4.2c-.2.8-.4,1.7-.4,2.6v18.6h-7.4v-18c0-4.3-1.7-7.4-5.1-7.4s-4.7,2.3-5.4,4.5c-.3.8-.4,1.7-.4,2.6v18.4h-7.4v-21.8h0Z"/>
  <rect class="st1" x="2.1" y="485.7" width="7.5" height="43"/>
  <path class="st1" d="M120.5,650.5c0-3.6,0-6.6-.2-9.3h6.5l.3,4.6h.2c1.5-2.4,4.2-5.3,9.2-5.3s7,2.3,8.3,5.7h.1c1-1.7,2.3-3,3.7-3.9,1.7-1.2,3.6-1.9,6-1.9,5,0,10,3.5,10,13.5v18.3h-7.4v-17.2c0-5.2-1.7-8.2-5.3-8.2s-4.5,1.9-5.3,4.2c-.2.8-.4,1.7-.4,2.6v18.6h-7.4v-18c0-4.3-1.7-7.4-5.1-7.4s-4.7,2.3-5.4,4.5c-.3.8-.4,1.7-.4,2.6v18.4h-7.4v-21.8h0Z"/>
  <path class="st1" d="M179.5,632.6c0,2.4-1.7,4.2-4.3,4.2s-4.2-1.8-4.2-4.2,1.7-4.3,4.2-4.3,4.2,1.9,4.2,4.3M171.4,641.3h7.6v31.1h-7.6v-31.1Z"/>
  <path class="st1" d="M185.7,665.1c1.7,1.1,5,2.2,7.7,2.2s4.8-1.4,4.8-3.5-1.2-3.2-4.9-4.5c-5.8-2.1-8.3-5.4-8.2-9.1,0-5.5,4.4-9.8,11.3-9.8s6.2.9,7.9,1.9l-1.5,5.6c-1.3-.8-3.7-1.8-6.3-1.8s-4.2,1.3-4.2,3.3,1.4,2.9,5.2,4.3c5.4,2,7.9,4.9,8,9.5,0,5.6-4.2,9.7-12.1,9.7s-6.9-.9-9.1-2.2l1.5-5.7h0Z"/>
  <path class="st1" d="M209.9,665.1c1.7,1.1,5,2.2,7.7,2.2s4.8-1.4,4.8-3.5-1.2-3.2-4.9-4.5c-5.8-2.1-8.3-5.4-8.2-9.1,0-5.5,4.4-9.8,11.3-9.8s6.2.9,7.9,1.9l-1.5,5.6c-1.3-.8-3.7-1.8-6.3-1.8s-4.2,1.3-4.2,3.3,1.4,2.9,5.2,4.3c5.4,2,7.9,4.9,8,9.5,0,5.6-4.2,9.7-12.1,9.7s-6.9-.9-9.1-2.2l1.5-5.7h0Z"/>
  <path class="st1" d="M242.7,632.6c0,2.4-1.7,4.2-4.3,4.2s-4.2-1.8-4.2-4.2,1.7-4.3,4.2-4.3,4.2,1.9,4.2,4.3M234.7,641.3h7.6v31.1h-7.6v-31.1Z"/>
  <path class="st1" d="M277.7,656.5c0,11.4-7.7,16.5-15.3,16.5s-15-6.1-15-16,6.4-16.5,15.4-16.5,14.8,6.5,14.8,16M255.2,656.8c0,6,2.8,10.5,7.4,10.5s7.3-4.4,7.3-10.7-2.1-10.4-7.2-10.4-7.5,5.4-7.5,10.5"/>
  <path class="st1" d="M282.9,650.5c0-3.6,0-6.6-.2-9.3h6.6l.4,4.7h.2c1.3-2.4,4.5-5.4,9.5-5.4s10.6,3.5,10.6,13.3v18.5h-7.5v-17.6c0-4.5-1.6-7.9-5.7-7.9s-5.1,2.2-5.9,4.6c-.2.7-.3,1.7-.3,2.5v18.3h-7.6v-21.8h-.1Z"/>
  <g id="g841">
    <path id="path915" class="st1" d="M1227.2,3.3h-4.2v274.8h72.4c24.8,0,45.3-3.4,64.9-20.1,17.2-14.6,26.2-34.8,26.2-58.3s-19.5-58.6-49.3-68.6c16.7-12.4,24.9-29.8,24.9-52.9s-8-44.6-23.7-58.3c-17.2-15.3-38-16.6-57.9-16.6,0,0-53.3,0-53.3,0ZM1273.4,27.7c15.2,0,30.9,0,43.3,7.8,12.7,8,19.9,22.6,19.9,40.2s-5.2,30.1-18,39.3c-12.8,9.2-25.2,9.2-40.8,9.1h-29.5V27.7h25.1ZM1281.5,148.5c19.3,0,39.4.6,54.3,8,15.3,7.5,25.2,24.7,25.2,43.9s-8.6,33.3-24.3,43.8c-14.2,9.6-31.8,9.6-48.8,9.5h-39.6v-105.2h33.2"/>
    <path id="path917" class="st1" d="M1443.7,3.3h-21.2v274.8h25.4V3.3h-4.2"/>
    <path id="path921" class="st0" d="M1109.1,92.9l.7.5.8.4.9.2h1.7l1.3.3,1.6.5.7.3.7.4.3.2.7.4.8.5h0c0,0-.5,0-.5,0h-.3c0,0-.5-.4-.5-.4h-.3c0,0-1-.6-1-.6l-1.6-.4-2.1-.2h0l.5.4,1.2.5,2,.7.5.2.8.4.6.3,1,.5.5.3.4.3.7.5.3.2v.3h0l-1-.3-.5-.2-.6-.3-.9-.4h-.2c0,0-1-.5-1-.5h-.2l-.9-.4-.7-.2-1.1-.3h-1.1c0,0-.2,0-.2,0v.3l.3.3,1.1,1.1,2,1.8.7.5,1,.8.4.3.7.5h.2c0,0,.7.6.7.6h-.6l-1.1-.3-.4-.2-1-.5-.7-.4-1.4-1.2-2.2-2.1-.6-.4-.7-.3h-.4v.3l.2.3.7,1.3.8,1.3.9,1.3.7.7.8.7,1,.7-.2.2h-.7l-.4-.2-.5-.3-1.2-1.1-1.7-2-.5-.7-.2-.3-.8-1.5-.5-.7-.9-1.1-1.1-1h0l.3-.2.6-.6.4-.8v-.3c0,0,.3-.6.3-.6"/>
    <path id="path923" class="st0" d="M1106.8,94.9h0l-.3-.2-.7-.5h-.2c0,0-1.1-.7-1.1-.7l-.3-.2-1.2-.5h-.2l-.9-.5h-.2c0,0-.9-.5-.9-.5l-.5-.3-.5-.3v-.8l.4-1.1.7-.9.4-.3h0c0,0,0,0,0,0l.5.3.9.7.3.2,1.3,1,.3.2.8.6.5.4.9.6,1,.5v.7l-.5.9-.6.6-.3.2h0"/>
    <path id="path925" class="st0" d="M1098.9,90.7l-.7-.2-1-.3-.8-.2v-.9c0,0,.5-1,.5-1l.5-1,.7-.8.5-.5.3-.2.6.3,1.1,1,.2.2v.4c0,0-.7.6-.7.6l-.5.7-.3.8-.2.4-.2.6"/>
    <path id="path927" class="st0" d="M1095.5,89.8l-.7-.2-1-.2h-.8v-.6l.2-.8.4-1.3.7-1.2.8-1.1.9-.8.7-.5h.4c0,0,.4,0,.4,0l.3.4.5,1,.2.5-.7.6-.6.7-.6.9-.4.8-.3.8-.4,1.1"/>
    <path id="path929" class="st0" d="M1097.1,82h-.7c0,0-.8.6-.8.6l-.7.6-.8,1-.3.4-.5.8-.2.4-.3.8v.3c0,0-.4.8-.4.8l-.3,1.1v.5h-.7l-1.3-.2-.7-.2v-.4l.2-1,.4-1.6.3-.9.2-.4.2-.5v-.3c0,0,.7-.9.7-.9v-.2c0,0,.6-.6.6-.6l.9-.8.9-.7.7-.4.8-.3h.6l.3.6.6,1.2.3.6"/>
    <path id="path931" class="st0" d="M1069.7,80.3l.6-1.1.7-.9.2-.3.7-.7v-.2c0,0,1.1-.8,1.1-.8l1-.6,1-.5.6-.2.7-.2h.4v-.3l.2-.6v-.3c0,0,.6-.8.6-.8l.2-.3.8-.8.5-.4.2-.2-.2-.3v-.3l-.2-.3v-1.2c0,0,0-2.4,0-2.4l.4-2.5.4-1.3.2-.5v-.2c0,0,.5-.8.5-.8v-.2c0,0,.4-.4.4-.4l1.1-1.2.3-.3h.5v.4l-.4.7-.7,1.4-.2.5-.5,1.8-.2,2.4v1.1l.3,1.1.5,1.3v.2l.3.2v-.4l.3-.9.3-1v-.2c0,0,.7-1,.7-1l.2-.3.7-.8,1.1-.8.6-.3.7-.2h.7c0,0,1.8-.2,1.8-.2l2,.3,2,.6,2.1.9,2.2,1.1,1,.5.4.2.3.2h.3c0,0,.5.4.5.4h.2c0,0,.9.7.9.7h0l.8.6.8.6,1.5,1.3.9.9,1.2,1.3,1,1.4.4.9v.4h-.2l-.2-.3-.5-.6-1.8-1.8-.6-.5-1.6-1.3-.7-.5-1.4-1-.6-.4-.9-.5-.8-.5-1-.5-.4-.2-.5-.3-1.3-.6-1.2-.5-.8-.3-1.8-.4-1.3-.2h-1.3l-1.6.3-.7.3-.7.5-.5.5-.4.7h0c0,0-.2.8-.2.8l-.2,1.2v.7h.5l.7.2,1.7.6.6.2.4.2h.2c0,0,1,.6,1,.6l2.4,1.5,1.8,1.7,1.1,1.5.2.3v.3l-.4.2h-.3l-.7.4-1.3.9-.9,1-.7.9-.2.3-.3.5-.3.5-.2.4v.2c0,0-.6,1.1-.6,1.1l-.6,2-.3,1v.5c0,0-.8-.2-.8-.2l-1.3-.4-.6-.3-.7-.3-.8-.4-.4-.2-.9-.6-.4-.3-.8-.7-.9-.9-1.5-1.9-1.4-2.2-.3-.5-.2-.2h-.3l-.3.2-.9.9-.2.3-.3.6-.2.4-.3,1.5v2.6c0,0,.4,1.3.4,1.3l.5,1.2.8,1.4,1,1.4,1.4,1.5c.6.7,1.2,1.2,1.7,1.9.6.8,1.7,1.5,2.5,2.1s1.8,1.3,2.6,2c1.1.8,1.8,1.6,2.7,2.6-.5.4-.6.5-1.1.2-.8-.5-7.1-5.1-9.1-6.8l-.5-.4-2-2-1.6-2.1-1.3-2.2-.4-1.1-.3-1.2v-1.2c0,0,0-1.3,0-1.3l.3-1.1.5-1.2.7-1.1.8-.9.9-.8.6-.5-.5.2-1,.5-1.2.8-1.2,1-.3.3-1,1.4-.4.8-.3.7-.5,1.1-.4-.3v-.4c0,0,0-.8,0-.8l.2-.9.2-.6.3-.6.2-.3"/>
    <path id="path933" class="st0" d="M959.9,105.4h-.9l-.7-.2-1,.3h-2.7l-4.2.2h-1.7c0,0-.4,0-.4,0h-7.5c0,0-.8.4-.8.4l.5.3h4l1.8.2h.7l1.2.2,2.9.5,1.4.3,2.7,1.4,1,.5.3.2h0c0,0,0,0,0,0h.4l.2,1.3v.6l.2,1.1v.5l.3,2.3.2.9.3.6.2.8v1.1l.2,1.2v1.1l.2.8.2,1.9.2,1,.2.3,1,1.2.6.8.2.5.5,1,.9,2.2,1.1,2.1.8,1,.6.6,1.4,1.8,1.4,2.1,1.2,1.4,2,1.2.4.2,1.5.8,1.9,1.2,2,.8.8.2,1.1.4.7.2h1.6l.7.3,1.2.3h.3l2.3.5,1.2.2,1.5.2,2.1.2h.6l2,.2h8.4l.2.7v1.6l-.5,2.7v2.3c0,0,0,.5,0,.5v1l.3,1.5.6,2.2v.6l.6,2.3.6,2.9v7c0,0,0,1.6,0,1.6v1.5l.3,1.2v.6c0,0,0,.2,0,.2l.6.8h.6c0-.1,1.4-1.1,1.4-1.1l.9-.8.7-.9v-.3l.3-.2.2-.5.2-.2.3-.8.2-.5v-.3l.5-1.2v-.4c0,0,.4-.4.4-.4v-.3l.3-.3v-.2l.2-.2.2-.5.2-.3.2-.4.3-.3.2-.6.2-.4v-.7l-.2-1.5v-1.5l.2-1.3v-6.9c0,0-.5-.7-.5-.7l-.5-.7-.9-2.2-.3-1.4-.6-3.5v-.7l-.2-1.3h.5l1.2-.3,2.8-.8,3.2-1,1.2-.3.2-.2h.6l.6-.4,1.5-.4h.5l2.9-.6,1.2-.2,1.6-.4h.4l1.3-.4,3.4-1.3,1.5-.4,1.4-.6,1.2-.4,1.5-.5,2.6-.8,1.4-.4,1-.2,4.7-1.1,1.7-.4h1.5c0-.1.7-.1.7-.1l.4-.2,1.1-.6.6-.3h.5v-.2h.7c0-.1.6-.5.6-.5h.3l.6-.6.7-1.2.9-.4,1.1-.6.8-.9.3-.7v-.6l-.7-1-.3-.3h-.4c0,0-.4-.2-.4-.2h-.8v-.8h0l-.5-1.1-1.4-1.1-1.7-.7-3.6-.7-1.7-.6-1-.5-1.3-.2-2.1-.4-2-.5-.8-.5-1.3-.7-2.8-1.4h-.3c0,0-.8-.6-.8-.6l-.4-.3h-.4c0,0-1.6-.5-1.6-.5h-.7c0,0-.5,0-.5,0h-.8c0,0-.7.3-.7.3l-2.8.8-1.4.2h-.5l-2.5.6-1.8.5h-.7l-1.2.2-1.8-.2h-4.8c0,0-1.9,0-1.9,0h-.5l-1.6-.2h-4.8l-1.7.2h-1.5c0,0-2.5.4-2.5.4l-3,.2h-5.4l-1.8-.3h-.7l-2.2-.4h-.6l-1.7-.3h-.4l-1.3-.2h-.4l-1.3-.2h-2.4v-.2h-.9c0,0,0,0,0,0h-.9l-.4-.3-.9-.7-1.6-1.1-1.7-1-1.3-.5h0v.4c0,0,0,1.3,0,1.3,0,0,0,1.4,0,1.4h-.5l-.5-.4-1-.6-1.2-.6-1.7-1.2-.9-.8-.5-.6-.4-.7h0l.3-.2,1-.5.6-.3,2.2-1,4.2-1.5,1.2-.4h.5c0,0,1.7-.9,1.7-.9l-.2-.4-.9-.2-1.8-.2h-1.7l-2.6.2-2.4.2h-.6l-1.2.2h-3.2"/>
    <path id="path935" class="st0" d="M1042.7,205.7l.2.9.2.3.3.5.4.4,1,1,1.1.8.6.5h.3l.2.2,2.9,1.3,1.5.4,7.3,2.2,1.4.2,1.2.3,1.9.3,1.4.8h0l-.5,1-.2.7-.4,1.1v.7l-.3.9v.9l-.4,1.4v1.2l-1.4,5.4-.3.5-.6,1.5-.2.2-.3.8-.9,1.8-.2.7-.5,1-.2.7-.5.7-.6,1.3-.3.4v.5c0,0-.8,1-.8,1l-.2.6-.2.3v.2l-.4.9v.4l-.6.8v1.8c0,0,.7.4.7.4l1.9-.4,1.5-.9.7-.6,1-.7.7-.7,1.1-.9.3-.4.9-.8,2.1-1.9,1.5-1.9.3-.2,1.1-1.2.4-.5.4-.3.9-1.8.4-.5.2-.6.5-.9.2-.4.2-.3v-.5c0,0,.5-.6.5-.6l.3-.9.6-1.1.6-1.8.5-.7.3-.6.4-.4.9-1.2,1.2-.9h.7l.6.2,1,.9h.2l.5.6.3.2.2.3,1.4,1,.3.3,1.1.8.3.4.6.4.9,1.1.6.5.3.5.7.9.2.5,1.1,1.5.3.7.4.5.2.5.4.6.2.8.4.7v.4l.9,1.6.2.7.3.5v.4h.3l.5.7.3.2h.9l.8-.9v-.3l.6-1.6.3-2.3v-1.6l.2-3.1v-.4c0,0-.4-2.5-.4-2.5v-.9c0,0-.5-.7-.5-.7v-.3l-.6-1.4-.3-1.1-.6-1.2v-.4l-.5-.5-.3-.7-.9-1.3-.3-.7-.8-1-.2-.4-.3-.2-.3-.4-.5-.7-.6-.6.5-.4.7-.2,1.9-.9h.5c0-.1.7-.5.7-.5h.3l1.1-.3,2-.7,1.1-.3,1.2-.7.6-.2h.3l1.2-.6,4.1-1.2.9-.2h.6l.8-.3h.9c0-.1,1.7-.8,1.7-.8l.7-.5.4-.7v-.8l-.3-.2-.2-.2h-.3c0-.1-1.4-.9-1.4-.9l-1.4-.3-1-.4h-1.1c0-.1-1.7-.4-1.7-.4h-5.3l-1.5.2h-.8l-1.4.3h-.5l-2.6.4h-1l-1.3.5h-1.1c0,.1-1.6.4-1.6.4h-.7c0-.1-.5-.4-.5-.4l-.2-.6-.2-1v-.9l.6-1.6.3-1.4.4-1.5v-.5l.6-2v-.3l.7-2,.4-1.9.5-.9v-.4l1-1.9,1.2-1.5.8-1.5.5-1.7v-.9l-.5-.6h-.9l-.9.2-4.1,1.6h-.5c0,.1-.9.6-.9.6h-.2v.2h-.4c0,.1-.9.6-.9.6l-.5.5-2.8,2.3-.8,1-1.3,1.3-1.1,1.5h-.2l-.8,1.3-.7,1.6-.6,1.6v1.1l-.4,1.4v.2l-.4,3.4-.2,1.1-.5.9h-.2l-.3.3h-1.1l-.9-.3-2.4-.6-2.6-.3-2.3.2-1.3.2h-.8c0,.1-1.5.3-1.5.3l-1.5.2-1.7.4h-.7l-2,.4h-2.4c0-.1-.4,0-.4,0l-1.5-.2h-.5l-1.1-.2h-.3l-.7-.2h-1.4l-1.1.3-.6.8v.9"/>
    <path id="path937" class="st1" d="M1047.5,0c-78.1,0-141.7,63.2-141.7,140.9s63.6,140.9,141.7,140.9,141.7-63.2,141.7-140.9S1125.6,0,1047.5,0ZM1133.4,61.3c-12.5-3.5-33.2-6.6-57.1-8.1-4.4-12.5-9.7-22.3-15.7-28.3,28.6,3.2,54.1,16.6,72.8,36.4h0ZM1038.7,24.5c2.9-.2,5.8-.4,8.8-.4s4.6,0,6.9.2c6.7,4.5,12.9,14.6,17.9,28.6-8.1-.4-16.4-.7-25-.7s-17.8.3-26.4.7c5-13.9,11.1-24,17.7-28.5h0ZM1032.4,25.1c-5.8,6.1-11.1,15.8-15.4,28.1-22.2,1.4-42.2,4.2-55.1,7.7,18.2-19.2,42.9-32.3,70.5-35.8ZM958.3,65c10.7-3.3,30.9-7,57.7-8.7-2.4,7.3-4.5,15.4-6.2,24.3-28.9-1.6-49.3-5.1-56.9-8.8,1.7-2.3,3.5-4.6,5.4-6.8ZM951.7,208.3c6.1-3.4,26.8-8.3,57-10.7,1.5,8.6,3.3,16.7,5.4,23.9-27.9-1.4-48.5-4.4-58.2-7.8-1.4-1.8-2.8-3.5-4.1-5.4h-.1ZM959.3,217.8c12.5,3.3,33.2,5.6,55.6,6.6,4.3,13.9,9.6,24.8,15.7,31.9-28.3-4.1-53.3-18.1-71.3-38.5h0ZM1144.5,206.5c-6.1-4.5-27.4-9.1-55.1-11.6-.3,1.2-.4,2.1-.4,2.9,30.2,2.7,50,7.9,53.8,11.1-.9,1.3-1.9,2.5-2.8,3.7-6.4,2.8-21.5,5.8-43.4,7.7.4,1,.8,1.9,1.2,2.8,15.6-1.3,29.7-3.4,38.7-6.2-18.5,21.3-44.6,35.9-74,39.6,4.6-5.2,8.7-12.6,12.3-21.8-.9.9-1.9,1.9-3.1,2.9-.8.7-2.3,2-3.9,3.4-3.4,7.1-7.3,12.6-11.3,16-3,.2-5.9.4-9,.4s-7.3-.2-10.9-.5c-6.7-5.8-12.7-17.2-17.5-32.4,9.1.4,18.4.6,27.6.6s8.2,0,12.5-.1c0-.8.3-1.9.4-2.9-4.2,0-8.5.1-12.9.1-10.1,0-19.6-.2-28.5-.6-2.2-7.4-4.1-15.6-5.6-24.5,10.6-.8,22.2-1.2,34.7-1.2s15.9.2,23.3.6c.4-.9.7-1.9,1.1-2.9-7.9-.4-16-.6-24.4-.6-12,0-23.9.5-35.2,1.3-.7-4.5-1.4-9.2-1.9-14-1,1-2.2,1.8-3.7,2.6.5,4,1,7.9,1.6,11.8-27.2,2.2-49.8,6.6-58,11.4-10.1-14.8-16.9-32.1-19.2-50.7,12.2,7.1,38.4,12.1,68.7,14.7.2-1,.3-2,.4-2.9-35.1-3-60.2-9.1-69.5-15.5-.3-3.5-.5-7-.5-10.5,5-3.7,15.3-7.3,29.6-10.3-.5-.9-1-1.8-1.5-2.7-12.3,2.6-22,5.8-28,9.5.6-23.6,8.3-45.4,21.1-63.5,9.1,4.6,32,7.7,58.1,9.3-1.8,10.1-3.2,21-4,32.4,1.3,0,2.6-.2,3.8-.3.8-11.3,2.2-22.1,4-32,11,.6,22.5.9,33.6.9s11.8,0,18.1-.3c0-1,0-2,.2-2.9-5.8.2-11.9.2-18.2.2-11.9,0-22.9-.3-33.1-.8,1.8-9.1,3.9-17.3,6.4-24.7,8.5-.5,17.7-.8,27.4-.8s17.9.3,26,.7c.7,2.2,1.4,4.5,2.1,6.9.9-1.5,1.9-3,2.7-3.7-.3-1-.6-2-.9-2.9,28.7,1.8,49.9,5.9,59.9,9.3,1.6,1.8,3.1,3.7,4.5,5.6-5.1,3-20.1,6.2-42.9,8.3.5.9,1,1.9,1.5,2.8,19.4-1.8,36.2-4.6,43-8.9,13.3,18.6,21.3,41.1,21.7,65.5-11.4-8.3-41.5-14.1-76.4-16.8-.3-6.1-.8-11.9-1.5-17.7-.9,0-1.8-.2-2.4-.6-.5-.3-1-.8-1.6-1.2.7,6.2,1.3,12.6,1.7,19.2-9.2-.6-18.7-.9-28.2-1.1.6.3,1.2.6,1.9,1.1.5.3,1.2,1,1.8,1.9,8.6.2,16.9.6,24.7,1.1.3,5.6.4,11.3.4,17.1,0,8.9-.3,17.6-1,26-11.7.8-24.4,1.2-37.9,1.2s-21.7-.3-31.6-.9c-.2,1-.3,1.9-.5,2.8,10.5.6,21.3,1,32.1,1s25.4-.4,37.7-1.2c-.3,3.4-.7,6.8-1,10.1,1.3-.7,2.6-1.4,3.9-2.2h.2c.3-2.7.6-5.3.8-8.1,34.4-2.5,64.3-8.2,76.2-16.3-2.2,19.3-9.2,37.1-19.7,52.4h-.2ZM1088.2,167.5c.6-8.3.9-16.9.9-25.7s0-11.4-.4-16.9c40.8,3.1,69,10.3,76.3,17.6,0,2.6-.2,5.1-.4,7.6-7.8,7.3-36,14.4-76.4,17.3"/>
    <path id="path919" class="st1" d="M1497.3,71.9c0,21.9,10,39.2,29.6,51.4.3.1,48.4,25.6,48.4,25.6.1,0,4.9,2.4,4.9,2.4,21.9,10.6,46.6,22.6,46.6,48s-28.2,58.8-61.6,58.8-52.2-24.7-60.5-45.5l-1.7-4.1-22.5,10.2,1.3,3.7c13.4,37.1,45,60.2,82.6,60.2s87.8-37.5,87.8-81.8-10.3-42.7-32.4-56.7h-.1c0,0-51.2-26.7-51.2-26.7-.1,0-2.2-1-2.2-1-20.5-9.7-43.7-20.7-43.7-45.1s20.2-46.7,46-46.7,38.1,9.7,50.6,29.5l2.6,4.1,18.5-15.2-1.7-3.1c-13.4-24.1-40.4-39.7-68.9-39.7-42.1,0-72.6,30.2-72.6,71.9"/>
  </g>
  <g id="layer2">
    <g id="text1017" class="st2">
      <g class="st2">
        <path class="st1" d="M919.9,331.2c0-6.3,2.3-11.6,6.9-16.1,4.6-4.5,10.1-6.7,16.5-6.7s11.8,2.3,16.3,6.8,6.8,10,6.8,16.3-2.3,11.8-6.8,16.3c-4.6,4.5-10.1,6.7-16.6,6.7s-10.9-2-15.5-6c-5-4.4-7.5-10.2-7.5-17.3h-.1ZM926.7,331.3c0,4.9,1.7,8.9,4.9,12.1,3.3,3.2,7.1,4.7,11.4,4.7s8.6-1.6,11.8-4.8c3.2-3.3,4.8-7.2,4.8-11.9s-1.6-8.7-4.7-11.9c-3.1-3.2-7-4.8-11.7-4.8s-8.5,1.6-11.7,4.8c-3.2,3.2-4.8,7.1-4.8,11.8h0Z"/>
        <path class="st1" d="M1011,311.6v7.9c-3.9-3.2-7.9-4.9-12-4.9s-8.4,1.6-11.5,4.9-4.7,7.3-4.7,12,1.6,8.6,4.7,11.8c3.1,3.2,7,4.8,11.6,4.8s4.4-.4,6-1.2c.9-.4,1.9-.9,2.9-1.6s2-1.4,3.1-2.4v8.1c-3.8,2.2-7.9,3.3-12.1,3.3-6.3,0-11.8-2.2-16.3-6.6-4.5-4.5-6.7-9.9-6.7-16.2s1.9-10.7,5.6-15.1c4.6-5.4,10.6-8.1,17.9-8.1s7.8,1.1,11.6,3.3h0Z"/>
        <path class="st1" d="M1047.3,315.5h-17.8v10.7h17.3v6.3h-17.3v14.8h17.8v6.3h-24.5v-44.4h24.5v6.3h0Z"/>
        <path class="st1" d="M1085.6,342.8h-19l-4.9,10.8h-7.2l22-47.2,21.2,47.2h-7.3l-4.7-10.8h0ZM1082.8,336.5l-6.6-15.1-6.9,15.1h13.5Z"/>
        <path class="st1" d="M1106.5,353.6v-47.5l32.4,33.9v-30.9h6.7v47.1l-32.4-33.8v31.1h-6.7Z"/>
        <path class="st1" d="M1181.2,353.6v-44.4h6.7c3,0,5.3.2,7.1.7,1.8.5,3.3,1.2,4.5,2.3,1.2,1.1,2.2,2.5,3,4.2.7,1.7,1.1,3.4,1.1,5.2,0,3.2-1.2,5.9-3.7,8.1,2.4.8,4.2,2.2,5.6,4.2s2.1,4.3,2.1,7-1.2,6.4-3.7,8.8c-1.5,1.5-3.1,2.5-5,3.1-2,.6-4.5.8-7.6.8h-10.2,0ZM1187.9,328.3h2.1c2.5,0,4.3-.6,5.5-1.7s1.7-2.7,1.7-4.9-.6-3.7-1.8-4.8c-1.2-1.1-2.9-1.6-5.2-1.6h-2.4v12.9h.1ZM1187.9,347.3h4.1c3,0,5.3-.6,6.7-1.8,1.5-1.3,2.2-2.9,2.2-4.9s-.7-3.5-2.2-4.8c-1.4-1.3-3.9-1.9-7.5-1.9h-3.4v13.4h.1Z"/>
        <path class="st1" d="M1226.1,309.2v44.4h-6.7v-44.4h6.7Z"/>
        <path class="st1" d="M1237.9,331.2c0-6.3,2.3-11.6,6.9-16.1s10.1-6.7,16.5-6.7,11.8,2.3,16.3,6.8,6.8,10,6.8,16.3-2.3,11.8-6.9,16.3-10.1,6.7-16.6,6.7-10.9-2-15.5-6c-5-4.4-7.5-10.2-7.5-17.3h0ZM1244.7,331.3c0,4.9,1.7,8.9,4.9,12.1,3.3,3.2,7.1,4.7,11.4,4.7s8.6-1.6,11.8-4.8c3.2-3.3,4.8-7.2,4.8-11.9s-1.6-8.7-4.7-11.9c-3.1-3.2-7-4.8-11.7-4.8s-8.5,1.6-11.7,4.8c-3.2,3.2-4.8,7.1-4.8,11.8h0Z"/>
        <path class="st1" d="M1296.1,353.6v-44.4h9.3c4.5,0,8,.4,10.6,1.3,2.8.9,5.3,2.3,7.6,4.4,4.6,4.2,6.9,9.7,6.9,16.5s-2.4,12.4-7.2,16.6c-2.4,2.1-4.9,3.6-7.5,4.4-2.5.8-5.9,1.2-10.4,1.2h-9.3ZM1302.8,347.3h3c3,0,5.5-.3,7.5-.9,2-.7,3.8-1.7,5.4-3.2,3.3-3,4.9-6.9,4.9-11.8s-1.6-8.8-4.9-11.9c-2.9-2.7-7.3-4.1-13-4.1h-3v31.8h0Z"/>
        <path class="st1" d="M1349,309.2v44.4h-6.7v-44.4h6.7Z"/>
        <path class="st1" d="M1365.3,309.2l12.3,30.8,12.5-30.8h7.3l-19.9,47.8-19.5-47.8h7.3,0Z"/>
        <path class="st1" d="M1430.8,315.5h-17.8v10.7h17.3v6.3h-17.3v14.8h17.8v6.3h-24.5v-44.4h24.5v6.3h0Z"/>
        <path class="st1" d="M1458,334.7l13.8,18.9h-8.2l-12.7-18.2h-1.2v18.2h-6.7v-44.4h7.9c5.9,0,10.1,1.1,12.7,3.3,2.9,2.5,4.3,5.7,4.3,9.7s-.9,5.9-2.7,8.1c-1.8,2.3-4.2,3.7-7.1,4.3h-.1ZM1449.6,329.6h2.1c6.4,0,9.5-2.4,9.5-7.3s-3.1-6.8-9.3-6.8h-2.4v14.1h.1Z"/>
        <path class="st1" d="M1506.9,315.8l-5.4,3.2c-1-1.8-2-2.9-2.9-3.5-1-.6-2.2-.9-3.7-.9s-3.4.5-4.6,1.6c-1.2,1-1.8,2.3-1.8,3.9s1.6,3.9,4.8,5.2l4.4,1.8c3.6,1.5,6.2,3.2,7.9,5.3,1.7,2.1,2.5,4.7,2.5,7.7s-1.4,7.5-4.1,10.1c-2.7,2.7-6.1,4-10.2,4s-7-1.1-9.6-3.4c-2.5-2.3-4-5.5-4.6-9.6l6.8-1.5c.3,2.6.8,4.4,1.6,5.4,1.4,1.9,3.4,2.9,6,2.9s3.8-.7,5.2-2.1,2.1-3.2,2.1-5.3,0-1.7-.4-2.4c-.2-.7-.6-1.4-1.1-2s-1.2-1.2-2-1.7-1.8-1-2.9-1.5l-4.3-1.8c-6.1-2.6-9.1-6.3-9.1-11.3s1.3-6.1,3.8-8.4,5.7-3.4,9.5-3.4,9.1,2.5,12,7.5v.2Z"/>
        <path class="st1" d="M1526.2,309.2v44.4h-6.7v-44.4h6.7Z"/>
        <path class="st1" d="M1552.5,315.5v38.1h-6.7v-38.1h-10.2v-6.3h27.1v6.3h-10.2Z"/>
        <path class="st1" d="M1583.9,334.4l-14.5-25.2h7.7l10.2,17.8,10.2-17.8h7.7l-14.6,25.2v19.2h-6.7v-19.2h0Z"/>
      </g>
      <g class="st2">
        <path class="st1" d="M928.8,382.9v44.4h-6.7v-44.4h6.7Z"/>
        <path class="st1" d="M942.9,427.3v-47.5l32.4,33.9v-30.9h6.7v47.1l-32.4-33.8v31.1h-6.7Z"/>
        <path class="st1" d="M1018.2,389.2h-15.5v10.7h14.9v6.3h-14.9v21.2h-6.7v-44.4h22.2v6.3h0Z"/>
        <path class="st1" d="M1027.1,404.9c0-6.3,2.3-11.6,6.9-16.1s10.1-6.7,16.5-6.7,11.8,2.3,16.3,6.8,6.8,10,6.8,16.3-2.3,11.8-6.8,16.3c-4.6,4.5-10.1,6.7-16.6,6.7s-10.9-2-15.5-6c-5-4.4-7.5-10.2-7.5-17.3h-.1ZM1033.9,405c0,4.9,1.7,8.9,4.9,12.1,3.3,3.2,7.1,4.7,11.4,4.7s8.6-1.6,11.8-4.8c3.2-3.3,4.8-7.2,4.8-11.9s-1.6-8.7-4.7-11.9c-3.1-3.2-7-4.8-11.7-4.8s-8.5,1.6-11.7,4.8c-3.2,3.2-4.8,7.1-4.8,11.8h0Z"/>
        <path class="st1" d="M1100.4,408.4l13.8,18.9h-8.2l-12.7-18.2h-1.2v18.2h-6.7v-44.4h7.9c5.9,0,10.1,1.1,12.7,3.3,2.9,2.5,4.3,5.7,4.3,9.7s-.9,5.9-2.7,8.1-4.2,3.7-7.1,4.3h-.1ZM1092.1,403.3h2.1c6.3,0,9.5-2.4,9.5-7.3s-3.1-6.8-9.3-6.8h-2.4v14.1h.1Z"/>
        <path class="st1" d="M1122.7,427.3l9.4-47.8,15.3,34.5,15.8-34.5,8.4,47.8h-6.9l-4.3-26.8-13.2,28.9-12.8-28.9-4.8,26.9h-6.9Z"/>
        <path class="st1" d="M1210.3,416.5h-19l-4.9,10.8h-7.2l22-47.2,21.2,47.2h-7.3l-4.7-10.8h0ZM1207.6,410.2l-6.6-15.1-6.9,15.1h13.5Z"/>
        <path class="st1" d="M1241,389.2v38.1h-6.7v-38.1h-10.2v-6.3h27.1v6.3h-10.2Z"/>
        <path class="st1" d="M1267.3,382.9v44.4h-6.7v-44.4h6.7Z"/>
        <path class="st1" d="M1279.1,404.9c0-6.3,2.3-11.6,6.9-16.1s10.1-6.7,16.5-6.7,11.8,2.3,16.3,6.8,6.8,10,6.8,16.3-2.3,11.8-6.9,16.3-10.1,6.7-16.6,6.7-10.9-2-15.5-6c-5-4.4-7.5-10.2-7.5-17.3h0ZM1285.9,405c0,4.9,1.7,8.9,4.9,12.1,3.3,3.2,7.1,4.7,11.4,4.7s8.6-1.6,11.8-4.8c3.2-3.3,4.8-7.2,4.8-11.9s-1.6-8.7-4.7-11.9c-3.1-3.2-7-4.8-11.7-4.8s-8.5,1.6-11.7,4.8c-3.2,3.2-4.8,7.1-4.8,11.8h0Z"/>
        <path class="st1" d="M1337.3,427.3v-47.5l32.4,33.9v-30.9h6.7v47.1l-32.4-33.8v31.1h-6.7Z"/>
        <path class="st1" d="M1437.1,389.5l-5.4,3.2c-1-1.8-2-2.9-2.9-3.5-1-.6-2.2-.9-3.7-.9s-3.4.5-4.6,1.6c-1.2,1-1.8,2.3-1.8,3.9s1.6,3.9,4.8,5.2l4.4,1.8c3.6,1.5,6.2,3.2,7.9,5.3s2.5,4.7,2.5,7.7-1.4,7.5-4.1,10.1c-2.7,2.7-6.1,4-10.2,4s-7-1.1-9.6-3.4c-2.5-2.3-4-5.5-4.6-9.6l6.8-1.5c.3,2.6.8,4.4,1.6,5.4,1.4,1.9,3.4,2.9,6,2.9s3.8-.7,5.2-2.1,2.1-3.2,2.1-5.3,0-1.7-.4-2.4c-.2-.7-.6-1.4-1.1-2s-1.2-1.2-2-1.7-1.8-1-2.9-1.5l-4.3-1.8c-6.1-2.6-9.1-6.3-9.1-11.3s1.3-6.1,3.8-8.4,5.7-3.4,9.5-3.4,9.1,2.5,12,7.5v.2Z"/>
        <path class="st1" d="M1458.3,408.1l-14.5-25.2h7.7l10.2,17.8,10.2-17.8h7.7l-14.6,25.2v19.2h-6.7v-19.2h0Z"/>
        <path class="st1" d="M1511.8,389.5l-5.4,3.2c-1-1.8-2-2.9-2.9-3.5-1-.6-2.2-.9-3.7-.9s-3.4.5-4.6,1.6c-1.2,1-1.8,2.3-1.8,3.9s1.6,3.9,4.8,5.2l4.4,1.8c3.6,1.5,6.2,3.2,7.9,5.3,1.7,2.1,2.5,4.7,2.5,7.7s-1.4,7.5-4.1,10.1c-2.7,2.7-6.1,4-10.2,4s-7-1.1-9.6-3.4c-2.5-2.3-4-5.5-4.6-9.6l6.8-1.5c.3,2.6.8,4.4,1.6,5.4,1.4,1.9,3.4,2.9,6,2.9s3.8-.7,5.2-2.1c1.4-1.4,2.1-3.2,2.1-5.3s0-1.7-.4-2.4c-.2-.7-.6-1.4-1.1-2s-1.2-1.2-2-1.7-1.8-1-2.9-1.5l-4.3-1.8c-6.1-2.6-9.1-6.3-9.1-11.3s1.3-6.1,3.8-8.4,5.7-3.4,9.5-3.4,9.1,2.5,12,7.5v.2Z"/>
        <path class="st1" d="M1537.5,389.2v38.1h-6.7v-38.1h-10.2v-6.3h27.1v6.3h-10.2Z"/>
        <path class="st1" d="M1581.5,389.2h-17.8v10.7h17.3v6.3h-17.3v14.8h17.8v6.3h-24.5v-44.4h24.5v6.3h0Z"/>
        <path class="st1" d="M1592.2,427.3l9.4-47.8,15.2,34.5,15.8-34.5,8.4,47.8h-6.9l-4.3-26.8-13.2,28.9-12.8-28.9-4.8,26.9h-6.9.1Z"/>
      </g>
    </g>
  </g>
</svg>