<?xml version="1.0" encoding="UTF-8"?>
<svg id="Layer_1" xmlns="http://www.w3.org/2000/svg" version="1.1" viewBox="0 0 140 140">
  <!-- Generator: Adobe Illustrator 29.5.1, SVG Export Plug-In . SVG Version: 2.1.0 Build 141)  -->
  <defs>
    <style>
      .st0 {
        fill: #fff;
      }
    </style>
  </defs>
  <path class="st0" d="M138,72c-1.1,36.6-31.1,66-68,66S3.1,108.6,2,72h135.9M140,70H0c0,38.7,31.3,70,70,70s70-31.3,70-70h0Z"/>
  <g>
    <path class="st0" d="M24.4,87.1l3.7,7.8-2.4,1.1-2.4-5-2,.9,2.3,4.9-2.2,1.1-2.3-4.9-3.2,1.5-1.3-2.8,9.8-4.7Z"/>
    <path class="st0" d="M25,100.4c2.6-2.2,6-1.9,8.2.8,2.2,2.6,2,6-.6,8.2-2.6,2.2-6,1.9-8.2-.8-2.2-2.6-2-6,.6-8.2ZM30.7,107.1c1.4-1.2,1.7-2.9.5-4.2-1.1-1.3-2.8-1.4-4.2-.2-1.4,1.2-1.6,2.9-.5,4.2,1.1,1.3,2.8,1.4,4.2.2Z"/>
    <path class="st0" d="M34.6,112.7l3.8-5.5,2.5,1.7-3.6,5.3c-.8,1.2-.6,2.2.6,3,1.2.8,2.2.6,3-.6l3.6-5.3,2.5,1.7-3.8,5.5c-1.6,2.3-4.2,2.6-6.8.8-2.7-1.8-3.4-4.3-1.8-6.7Z"/>
    <path class="st0" d="M49.7,114.4l3,1,2.3,7.6h0s2-6.1,2-6.1l2.9,1-3.4,10.3-3-1-2.3-7.6h0s-2,6.1-2,6.1l-2.9-1,3.4-10.3Z"/>
    <path class="st0" d="M63,118.3l5,.2c3.2.1,5.4,2.2,5.3,5.7-.2,3.6-2.5,5.4-5.8,5.2l-5-.2.4-10.9ZM67.4,126.7c1.8,0,2.8-.7,2.9-2.7,0-1.9-.9-2.8-2.7-2.9h-1.6c0,0-.2,5.5-.2,5.5h1.6Z"/>
    <path class="st0" d="M83.8,126.2l-4.9,1-.3,1.7-3,.6,2.6-11.6,2.8-.6,6.9,9.7-3,.6-.9-1.4ZM82.3,123.9l-2.2-3.3h0s-.7,3.9-.7,3.9l2.9-.6Z"/>
    <path class="st0" d="M89.3,117.4l-3.4,1.5-1.1-2.4,9.7-4.3,1.1,2.4-3.4,1.5,3.3,7.5-2.8,1.2-3.3-7.5Z"/>
    <path class="st0" d="M97.2,110.2l2.5-1.8,6.4,8.8-2.5,1.8-6.4-8.8Z"/>
    <path class="st0" d="M105.7,110.8c-2.5-2.3-2.6-5.7-.3-8.2,2.3-2.5,5.7-2.8,8.2-.4s2.6,5.7.3,8.2c-2.3,2.5-5.7,2.7-8.2.4ZM111.6,104.4c-1.4-1.3-3-1.3-4.2,0-1.2,1.3-1,2.9.4,4.2,1.4,1.3,3.1,1.3,4.2,0,1.2-1.3,1-2.9-.4-4.2Z"/>
    <path class="st0" d="M110.8,96.7l1.4-2.8,7.8-1.1h0s-5.8-3-5.8-3l1.4-2.7,9.7,4.9-1.4,2.8-7.8,1.1h0s5.8,3,5.8,3l-1.4,2.7-9.7-4.9Z"/>
  </g>
  <g>
    <path class="st0" d="M98.5,22.1l-2.9-1.7-1.5,2.6,2.9,1.7c.9.5,1.7.4,2.2-.5.5-.9.2-1.6-.7-2.1Z"/>
    <path class="st0" d="M59.7,15l-2,.3,1.2,6.9,2-.3c2.2-.4,3.2-1.6,2.8-4-.4-2.4-1.8-3.2-4-2.8Z"/>
    <path class="st0" d="M107.2,33.4c-1.8,1.5-2.1,3.6-.7,5.2,1.4,1.7,3.5,1.7,5.2.2,1.8-1.5,2.1-3.6.7-5.2-1.4-1.6-3.5-1.7-5.2-.2Z"/>
    <path class="st0" d="M70,0C31.3,0,0,31.3,0,70h140C140,31.3,108.7,0,70,0ZM29.5,48l-7-2.9h0s5.4,6.8,5.4,6.8l-.5,1.2-8.6.9h0s7,2.9,7,2.9l-1.5,3.5-12.6-5.2,1.6-3.8,9.6-.9h0s-6.2-7.5-6.2-7.5l1.5-3.8,12.6,5.2-1.4,3.5ZM34,41.5l-10.3-8.9,2.5-2.9,10.3,8.9-2.5,2.9ZM47.9,29.8l-9.1-3.8h0s4.3,6.8,4.3,6.8l-3.2,2-7.2-11.5,3.3-2.1,9.1,3.8h0s-4.3-6.8-4.3-6.8l3.2-2,7.2,11.5-3.3,2.1ZM61.9,25.1l-6.1,1.1-2.3-13.4,6.1-1.1c4-.7,7.2,1.2,8,5.5.8,4.5-1.7,7.2-5.7,7.9ZM84.6,15.8l-6.8-1.2-.3,1.9,6.1,1-.5,3-6.1-1.1-.3,2,6.8,1.2-.6,3.3-10.6-1.8,2.3-13.4,10.5,1.8-.6,3.3ZM97.9,28.3h0c0,0,.4,5.5.4,5.5l-3.6-2.1-.2-4.9-1.8-1.1-2.1,3.6-3.3-1.9,6.8-11.8,6.4,3.7c2.6,1.5,3.7,4.1,2.2,6.7-1.1,1.8-2.8,2.5-4.7,2.2ZM104,40.8c-2.8-3.3-2.5-7.5.7-10.3s7.5-2.3,10.3,1c2.8,3.3,2.5,7.5-.7,10.3-3.3,2.8-7.5,2.3-10.3-1ZM121.3,59.2c-4,1.4-7.8-.5-9.3-4.5-1.4-4,.3-7.9,4.3-9.4,4-1.4,7.8.5,9.3,4.5,1.4,4-.3,7.9-4.3,9.4Z"/>
    <path class="st0" d="M117.7,49c-2.2.8-3.2,2.6-2.5,4.6.7,2,2.6,2.8,4.9,2,2.2-.8,3.2-2.6,2.5-4.6-.7-2-2.6-2.8-4.8-2Z"/>
  </g>
</svg>