<svg xmlns="http://www.w3.org/2000/svg" width="230.803" height="216.957" viewBox="0 0 230.803 216.957">
  <g id="intergovernmental-oceanographic-commission-unesco-seeklogo_w" transform="translate(-213.3 -0.6)">
    <path id="Path_281" data-name="Path 281" d="M444.1,123.226v94.316q-72.334,0-144.7-.062a16.221,16.221,0,0,0,2.207-1.4c1.59-1.559,1.713-3.566,1.189-5.572-.8-3.164-3.628-4.044-6.3-3.3a4.462,4.462,0,0,0-3.35,4.183,5.942,5.942,0,0,0,.88,4.276,5.81,5.81,0,0,0,2.64,1.868c-3.921,0-7.826,0-11.793-.062a3.1,3.1,0,0,0,2.655-2.779,2.814,2.814,0,0,0-1.744-3.056,15.157,15.157,0,0,1-1.883-.911c-.278-.17-.633-.587-.6-.849.031-.309.448-.787.725-.787a20.686,20.686,0,0,1,2.64.216c.077-.247.2-.725.386-1.173.17-.4.046-.695-.34-.741a20.826,20.826,0,0,0-2.917-.324,3.229,3.229,0,0,0-2.995,2.423,2.876,2.876,0,0,0,1.744,3.272,12.44,12.44,0,0,1,1.868.942,1.481,1.481,0,0,1,.479,1.111.981.981,0,0,1-.756.664,13.927,13.927,0,0,1-2.377-.309,4.382,4.382,0,0,1-.772-.324c-.185.726-.355,1.343-.525,2.022.556.216,1.127.448,1.7.664-1.652,0-3.3,0-5-.062a1.013,1.013,0,0,1,.448-.216,2.912,2.912,0,0,0,1.173-4.986,12.371,12.371,0,0,0-2.115-1.219,2.91,2.91,0,0,1-1.019-.787c-.139-.216-.077-.834.108-.942a2.374,2.374,0,0,1,1.389-.355,8.079,8.079,0,0,1,1.713.525c.154-.633.309-1.281.463-1.914a5.707,5.707,0,0,0-4.152-.37,3.025,3.025,0,0,0-2.223,2.763,2.468,2.468,0,0,0,1.266,2.47c.648.355,1.343.648,2.007.973.54.262,1.1.648.972,1.3a1.013,1.013,0,0,1-1.189.834c-.911-.123-1.821-.293-2.84-.463a14.943,14.943,0,0,0-.386,1.544c-.015.154.247.417.432.509a8.249,8.249,0,0,0,1.235.4q-21.927,0-43.9-.062a4.828,4.828,0,0,0,2.686-1.791c1.111-1.451,1.065-3.149.88-4.8a4.2,4.2,0,0,0-1.96-3.149,5.1,5.1,0,0,0-4.168-.587,4.759,4.759,0,0,0-2.207,1.158,5.945,5.945,0,0,0-1.25,5.835,4.74,4.74,0,0,0,3.458,3.381c-1.96,0-3.921,0-5.928-.062A14.165,14.165,0,0,1,223.7,217c-.154-.8-.293-1.528-.432-2.269-2.547,1.019-4.909.71-6.252-1.034a5.745,5.745,0,0,1,.077-6.807c1.111-1.4,3.273-2.207,6.175-.973.185-.725.37-1.436.556-2.207a2.1,2.1,0,0,0-.54-.247,28.715,28.715,0,0,0-3.612-.293,6.315,6.315,0,0,0-5,2.655,11.767,11.767,0,0,0-1.358,3.18c0-6.7,0-13.383.062-20.129a6.787,6.787,0,0,0,2.825,4.6,6.094,6.094,0,0,0,3.828.864,5.883,5.883,0,0,0,5.341-3.844,9.558,9.558,0,0,0,.278-5.943c-1.065-3.658-3.766-5.156-7.44-4.461a5.594,5.594,0,0,0-4.446,4.2c-.154.509-.309,1.019-.463,1.544V.6a1.507,1.507,0,0,1,.54.077q.116,41.307.077,82.461h226.6V.661h3.55q0,58.974-.062,117.995a10.033,10.033,0,0,1-.247-1.219,17.959,17.959,0,0,0-4.785-9.231,17.156,17.156,0,0,0-6.344-4.276,18.462,18.462,0,0,0-18.956,3.1,18.632,18.632,0,0,0-4.554,5.866,13.43,13.43,0,0,0-1.636,5.665,32.664,32.664,0,0,0,.062,5.634,17.313,17.313,0,0,0,4,8.613,18.236,18.236,0,0,0,7.61,5.418,17.808,17.808,0,0,0,8.613,1.081,18.476,18.476,0,0,0,5.542-1.528,17.929,17.929,0,0,0,6.668-5.125,17.327,17.327,0,0,0,3.473-6.761c.216-.88.417-1.775.617-2.67m-131.949,3.6c-.34-1.266-.679-2.532-1.05-3.905H336.96a28.563,28.563,0,0,0-.617-7.008,16.676,16.676,0,0,0-5.665-9.509,17.444,17.444,0,0,0-10.419-3.828,24.954,24.954,0,0,0-6.684.417,15.941,15.941,0,0,0-11.253,8.228,21.345,21.345,0,0,0-1.019,17.551,16.674,16.674,0,0,0,7.749,8.66,19.6,19.6,0,0,0,9.061,1.976,32.783,32.783,0,0,0,5.758-.448,14.972,14.972,0,0,0,10.589-6.668,12.83,12.83,0,0,0,1.914-4.23c-1.235-.123-2.424-.216-3.612-.34-1.235-.139-2.454-.309-3.674-.448-1-.123-2.007-.232-3.01-.293a.739.739,0,0,0-.479.34,6.487,6.487,0,0,1-2.578,2.7,9.183,9.183,0,0,1-4.585.8,6.708,6.708,0,0,1-6.3-3.967m-33.636-24c-3.859.015-6.885,1.76-9.509,4.816v-4H257.818v34.5H269.04v-.88c0-5.2-.015-10.389,0-15.591a23.479,23.479,0,0,1,.324-4.168,6.453,6.453,0,0,1,7.394-5.279,5.286,5.286,0,0,1,4.322,3.272,13.468,13.468,0,0,1,.725,4.523c.062,5.758.031,11.515.031,17.289v.834h11.268v-.88c0-6.329.031-12.658-.015-18.987a39.065,39.065,0,0,0-.479-6.3,10.406,10.406,0,0,0-4.291-6.838c-2.748-1.991-5.912-2.393-9.185-2.454-.17,0-.34.093-.648.139m-53.533.772H213.948v20.036c0,1.328.046,2.655.154,3.983a11.311,11.311,0,0,0,4.307,7.965,17.349,17.349,0,0,0,10.1,3.658c1.7.123,3.4,0,5.094.031a20.336,20.336,0,0,0,6.375-1.1,13.679,13.679,0,0,0,7.039-5.063,12.247,12.247,0,0,0,2.254-7.363c.031-7.1,0-14.2,0-21.3v-.787H238v19.264a10.671,10.671,0,0,1-.17,2.115,5.226,5.226,0,0,1-2.3,3.658,7.387,7.387,0,0,1-5.048,1.019,5.649,5.649,0,0,1-5.264-5.7c-.123-6.53-.031-13.059-.046-19.6a1.46,1.46,0,0,0-.262-.818m119.708,26.087c-.787,1.25-1.559,2.5-2.362,3.751-.6.942-.587,1.1.293,1.744.262.185.556.355.818.54a20.567,20.567,0,0,0,12.071,3.658,25.824,25.824,0,0,0,4.986-.448,12.22,12.22,0,0,0,8.969-6.607,14.032,14.032,0,0,0,1.266-6.931,7.991,7.991,0,0,0-3.427-6.36c-2.022-1.575-4.446-2.207-6.838-2.948a41.661,41.661,0,0,1-4.291-1.528,1.593,1.593,0,0,1-.509-2.732,3.475,3.475,0,0,1,1.25-.8,6.558,6.558,0,0,1,4.6.108c1.2.417,2.362.942,3.566,1.42,1.466-2.346,2.917-4.693,4.384-7.054a20.333,20.333,0,0,0-9.879-2.964,21.134,21.134,0,0,0-6.066.417c-3.967.911-6.993,2.917-8.613,6.792a11.112,11.112,0,0,0-.648,5.912,8.6,8.6,0,0,0,5.217,6.668c1.544.741,3.226,1.189,4.847,1.791,1.4.509,2.825.988,4.183,1.59,1.312.571,1.219,2.439.4,3.411a4.4,4.4,0,0,1-3.581,1.3,10.706,10.706,0,0,1-6.437-1.991c-.787-.54-1.559-1.111-2.362-1.683-.617,1-1.173,1.914-1.806,2.933m38.745-24.358a21.945,21.945,0,0,0-4.06,3.519,18.436,18.436,0,0,0-4.415,14.078,18.874,18.874,0,0,0,1.682,6.051,18.11,18.11,0,0,0,6.977,7.749,18.568,18.568,0,0,0,15.112,1.914,17.228,17.228,0,0,0,5.418-2.732c-1.4-2.979-2.779-5.9-4.152-8.845A8.957,8.957,0,0,1,386.2,115.615a8.646,8.646,0,0,1,6.082-3.473,8.74,8.74,0,0,1,7.61,2.9c1.451-3.087,2.84-6.036,4.276-9.061-6.792-4.322-13.646-4.77-20.777-.664m-72.041,59.97v5.727h2.624V164.8a1.975,1.975,0,0,1,1.636-1.9,1.507,1.507,0,0,1,1.59,1.605c.108,1.914.123,3.828.17,5.742v.787h2.47c0-2.038.015-4.029,0-6.036a2.259,2.259,0,0,1,.787-1.729,1.247,1.247,0,0,1,2.038.247,4.578,4.578,0,0,1,.556,1.9c.077,1.868.031,3.736.031,5.619h2.47c0-2.362.062-4.662-.031-6.977a3.385,3.385,0,0,0-1.729-3.01,3.587,3.587,0,0,0-4.677,1.374,2.671,2.671,0,0,0-2.64-1.775,3.192,3.192,0,0,0-2.948,1.544q-.046-1.281-1.173-1.281h-1.173v4.4m-75.638,44.441v7.579h2.624V211.1a1.975,1.975,0,0,1,1.636-1.9,1.507,1.507,0,0,1,1.59,1.605c.108,1.914.123,3.828.17,5.742v.787h2.47v-.787c0-1.821-.015-3.658,0-5.48a1.94,1.94,0,0,1,1.158-1.744,1.252,1.252,0,0,1,1.528.216,2.826,2.826,0,0,1,.695,2.161c.031,1.868,0,3.736,0,5.619h2.47c0-2.377.077-4.723-.031-7.054a3.4,3.4,0,0,0-1.713-2.948,3.587,3.587,0,0,0-4.677,1.374,2.671,2.671,0,0,0-2.64-1.775,3.176,3.176,0,0,0-2.948,1.559q-.046-1.3-1.173-1.3H235.7v2.547m30.734.494c-.185-1.3-.587-2.532-1.914-2.995a3.573,3.573,0,0,0-4.446,1.482,2.7,2.7,0,0,0-2.7-1.791,3.528,3.528,0,0,0-2.948,1.574c-.031-.54-.046-.911-.062-1.266H252.2v10.08h2.5c0-1.976-.046-3.905.031-5.835a3.309,3.309,0,0,1,.556-1.683,1.47,1.47,0,0,1,2.485.108,4.723,4.723,0,0,1,.324,1.605c.046,1.281,0,2.578,0,3.859v1.96h2.47c0-1.513-.015-3.01,0-4.492a11.158,11.158,0,0,1,.17-2.269,1.707,1.707,0,0,1,1.636-1.4,1.382,1.382,0,0,1,1.42,1.374c.139,1.312.139,2.64.17,3.967.015.942,0,1.883,0,2.779h2.624c0-.8.015-1.544,0-2.3-.046-1.559-.093-3.118-.154-4.816m-11.3-37.078c-.494-.185-1-.37-1.559-.571-.2.695-.4,1.358-.633,2.161a15.824,15.824,0,0,0,2.64.679,5.616,5.616,0,0,0,4.785-1.343,4.772,4.772,0,0,0,1.266-3.458c.062-2.655,0-5.295.031-7.95,0-.54.108-1.1.154-1.683H259.47V162a3.636,3.636,0,0,1-.309-.278c-1.451-1.76-4.554-1.142-5.773.509a6.553,6.553,0,0,0-.942,5.7,3.742,3.742,0,0,0,2.825,2.948,3.63,3.63,0,0,0,3.859-1.127c.2,3.087-1.791,3.89-4.029,3.334m25.933,25.47a13.772,13.772,0,0,0,2.794-.54c1.883-.772,2.454-2.47,2.5-4.307.077-3.2.015-6.391.015-9.632h-2.1c-.062.293-.123.571-.185.911a4.038,4.038,0,0,0-5.9.232,6.658,6.658,0,0,0-.617,6.854,3.814,3.814,0,0,0,4,2.038,3.588,3.588,0,0,0,2.331-1.327c-.062,1.189-.077,2.3-.926,2.979-1.544,1.235-3.164.571-4.724-.124-.2.725-.37,1.389-.617,2.285,1.127.232,2.192.432,3.411.648m23.849-9.817V198.2h2.64v-4.677a4.226,4.226,0,0,0,6.591-1.852,6.816,6.816,0,0,0,.34-4.075c-.6-2.84-2.67-4.384-5.48-3.5a9.153,9.153,0,0,0-1.76,1.081c-.077-.324-.17-.71-.247-1.05h-2.084v4.646m17.6.772v4.646h2.47v-6.468a3.99,3.99,0,0,0-.17-1.42,3.137,3.137,0,0,0-3.535-2.423,4.065,4.065,0,0,0-2.5,1.312v-5.711h-2.547v14.711h2.593V187.9a1.972,1.972,0,0,1,1.76-1.868,1.692,1.692,0,0,1,1.775,1.59c.077.571.108,1.158.154,1.883m-47.374,2.64a5.915,5.915,0,0,0,.726-4.106,4.388,4.388,0,0,0-2.917-3.89,7.529,7.529,0,0,0-2.7-.247,3.972,3.972,0,0,0-3.164,1.744,6.068,6.068,0,0,0-.71,5.758,4.107,4.107,0,0,0,3.519,2.933c2.084.262,3.983-.17,5.248-2.207m-10.682-29.792a5.835,5.835,0,0,0-1.081,4.986c.633,3.658,4.121,4.677,6.9,3.535,2.871-1.189,3.134-3.844,2.732-6.391a4.742,4.742,0,0,0-1.328-2.547,5.156,5.156,0,0,0-7.209.417m35.967,3.875v4.8h2.624c0-1.9-.031-3.751.015-5.6a3.335,3.335,0,0,1,.448-1.636,1.676,1.676,0,0,1,1.945-.864A1.952,1.952,0,0,1,306.7,164.9c.015,1.822,0,3.643,0,5.48,0,.216.031.432.031.633h2.423c0-2.532.17-5.048-.062-7.533a3.086,3.086,0,0,0-3.7-2.809,3.967,3.967,0,0,0-2.763,1.574V160.89h-2.285v5.279m44.889,4.909H346.7c0-2.285.062-4.477-.015-6.653a3.909,3.909,0,0,0-1.358-3.072,3.793,3.793,0,0,0-5.279.957v-1.374h-2.269v10.111h2.593c0-1.945-.015-3.828,0-5.727a3.273,3.273,0,0,1,.278-1.219,1.83,1.83,0,0,1,1.775-1.189,1.49,1.49,0,0,1,1.466,1.358,13.084,13.084,0,0,1,.154,2.192c.015,1.528,0,3.056,0,4.631H345.2m-84.5,12.735a3.544,3.544,0,0,0-2.763,1.451c-.093-.432-.154-.818-.232-1.189h-2.13v10.1h2.593a.834.834,0,0,0,.062-.185v-5.866a1.941,1.941,0,0,1,1.9-2.1c.988,0,1.652.787,1.652,2.038v5.48c0,.216.031.432.031.648h2.578c0-2.393.031-4.754-.031-7.1a4.017,4.017,0,0,0-.556-1.683c-.617-1.2-1.775-1.528-3.134-1.59m35.457,2.516a9.419,9.419,0,0,1,1.76-.587c1.189-.154,2.362.355,2.3,1.559a39.274,39.274,0,0,0-3.813,1,3.246,3.246,0,0,0-1.636,4.338,3.124,3.124,0,0,0,4.091,1.574,14.843,14.843,0,0,0,1.7-.88c.015.293.031.571.046.849h2.13c0-2.5.077-4.955-.046-7.394a2.973,2.973,0,0,0-1.389-2.3,4.7,4.7,0,0,0-2.979-.617,6.33,6.33,0,0,0-3.134.864c.154.525.293,1.034.463,1.513.031.077.247.077.509.093m65.774-24.7a7.16,7.16,0,0,0-1.281-.756,6.47,6.47,0,0,0-3.257-.093,5.791,5.791,0,0,0-1.544.556.632.632,0,0,0-.309.509c.093.494.278.988.417,1.466,1.266-.571,2.454-1.158,3.736-.479a1.238,1.238,0,0,1,.71,1.5,19.411,19.411,0,0,0-2.362.247,3.884,3.884,0,0,0-3.056,2.254c-.772,1.837.278,4.523,2.825,4.4a5.574,5.574,0,0,0,2.933-1.081c.015.324.031.6.046.864h2.285v-2.084c0-1.436.046-2.887,0-4.322a3.908,3.908,0,0,0-1.142-2.964M250.038,185.943c.71.293.834.942.942,1.574-.787.077-1.544.123-2.3.247-1.96.293-3.628,1.482-3.427,4.075a2.9,2.9,0,0,0,2.532,2.562,3.779,3.779,0,0,0,3.4-1.2c.062.463.108.725.154,1.019h2.315c-.077-.942-.185-1.852-.2-2.763-.031-1.389.046-2.779-.031-4.168a3.251,3.251,0,0,0-1.528-2.856,5.716,5.716,0,0,0-4-.448,12.261,12.261,0,0,0-2.068.648c.216.71.386,1.3.571,1.914,1.142-.509,2.223-1.081,3.612-.587m62.116,21.765a3.784,3.784,0,0,0-5.2.6c-.093-.37-.17-.741-.262-1.1h-2.115v10.1h2.64v-6.236a2.024,2.024,0,0,1,1.667-1.9,1.627,1.627,0,0,1,1.821,1.266,6.551,6.551,0,0,1,.216,1.652c.031,1.744,0,3.473,0,5.217h2.47c0-2.285.015-4.523,0-6.746a3.752,3.752,0,0,0-1.235-2.856M223.6,160.736c-.849.37-1.683.726-2.562,1.111v-.911h-2.161v10.111h2.485c0-.772-.015-1.513,0-2.254.046-1.42.077-2.856.154-4.276a2.019,2.019,0,0,1,1.667-1.621c1.158-.124,1.821.679,1.868,1.883.062,1.436,0,2.871,0,4.322v1.93h2.624c0-2.115-.015-4.168,0-6.221a5.385,5.385,0,0,0-.8-2.856,3.253,3.253,0,0,0-3.3-1.189m17.922,23.263c-.679-.046-1.358-.139-2.038-.124a3.563,3.563,0,0,0-2.779,1.466,6.209,6.209,0,0,0-1.25,4.615,4.4,4.4,0,0,0,2.207,3.751c1.93,1.065,3.936.787,5.928.185a.573.573,0,0,0,.309-.509c-.077-.509-.232-1-.355-1.5-3.55.864-5.295.262-5.6-2.022h6.468v-1.93c-.031-1.312-.911-3.458-2.856-3.936m45.83-17.273h4.816a6.359,6.359,0,0,0-.587-4c-.942-1.667-1.991-2.177-4.122-2.038a4.2,4.2,0,0,0-3.427,2.146,6.758,6.758,0,0,0-.741,4.4A4,4,0,0,0,285,170.306c2.146,1.436,4.384,1.034,6.684.386-.093-.54-.185-.988-.247-1.451-.046-.386-.124-.494-.587-.37a5.467,5.467,0,0,1-3.612.062c-.772-.309-1.667-1.3-1.42-2.176h1.528m43.546,0h5.31c0-.8.062-1.5,0-2.177a4.223,4.223,0,0,0-1.713-3.2,4.533,4.533,0,0,0-3.118-.664,3.856,3.856,0,0,0-2.9,1.636,6.288,6.288,0,0,0-.988,5.526,4.1,4.1,0,0,0,2.562,2.964,8.3,8.3,0,0,0,5.264,0,.773.773,0,0,0,.432-.571,9.859,9.859,0,0,0-.355-1.482c-3.581.911-5.017.4-5.6-2.007h1.142m-89.052,2.377a15.938,15.938,0,0,1-2.439-.278,2.039,2.039,0,0,1-1.312-2.161h6.391a7.891,7.891,0,0,0-.031-1.822,8.432,8.432,0,0,0-.972-2.7,3.7,3.7,0,0,0-3.766-1.482,4.239,4.239,0,0,0-3.288,1.976,6.345,6.345,0,0,0-.834,4.739,4.12,4.12,0,0,0,2.67,3.442,7.974,7.974,0,0,0,5.418-.123c.123-.046.309-.293.278-.4-.139-.525-.355-1.05-.525-1.574a1.034,1.034,0,0,1-.278.108,11.054,11.054,0,0,0-1.3.278m38.884-1.744c.772-2.161,1.559-4.307,2.346-6.514h-2.779c-.71,2.439-1.42,4.862-2.1,7.178-.324-1.127-.664-2.346-1.034-3.566s-.756-2.423-1.127-3.612h-2.84c.463,1.281.926,2.532,1.358,3.782.679,1.93,1.328,3.875,2.038,5.789.093.232.386.556.587.556a18.425,18.425,0,0,0,2.254-.154c.031,0,.046-.139.077-.2.386-1.05.772-2.115,1.219-3.272m73.183-6.252a1.524,1.524,0,0,0-.525-.262c-.587-.031-1.158,0-1.791,0v-2.871c-.911.216-1.76.417-2.655.633v2.254h-1.173v1.976c.417.015.787.046,1.189.062v.587c.046,1.76.093,3.519.154,5.279a2.214,2.214,0,0,0,1.76,2.254,15.822,15.822,0,0,0,2.84.031v-2.177c-.154.031-.278.031-.4.062-1.034.278-1.683-.17-1.729-1.25-.015-.494,0-.972,0-1.466v-3.4h2.315v-1.713m-22.522,26.242a6.234,6.234,0,0,0-.062,3.489,4.475,4.475,0,0,0,1.528,2.532,6.4,6.4,0,0,0,5.711.648c.154-.046.386-.324.37-.463-.077-.571-.232-1.142-.355-1.729-1.667.54-3.149.633-4.291-.849a3.782,3.782,0,0,1,.046-3.89c1.081-1.544,2.609-1.374,4.183-.8.154-.571.293-1.065.417-1.574a.5.5,0,0,0-.463-.695,19.42,19.42,0,0,0-2.5-.154,4.73,4.73,0,0,0-4.585,3.489M230.156,159.732v1.189H228.8V162.9h1.235c.062.093.093.108.093.139,0,1.852,0,3.7.031,5.557a2.441,2.441,0,0,0,1.219,2.269,4.77,4.77,0,0,0,3.4.185v-2.115c-1.3.37-2.084.031-2.13-1-.077-1.652-.015-3.319-.015-5.063h2.254v-2.022H232.6V158c-.834.216-1.636.417-2.454.617v1.111m-2.454,26.6a6.149,6.149,0,0,0-.633,3.149,4.582,4.582,0,0,0,2.068,4.137,6.333,6.333,0,0,0,5.711.324,5.428,5.428,0,0,0-.062-.942c-.216-1.142-.232-1.142-1.158-.9a2.872,2.872,0,0,1-3.859-2.177c-.37-1.729.556-3.766,2.285-3.859a21.786,21.786,0,0,1,2.423.124c.123-.556.293-1.219.448-1.9-2.9-1.034-5.727-.34-7.24,2.038M367.693,166.37V156.305h-2.578v14.726h2.578V166.37M216.572,157.9v-.818h-2.578v13.954h2.578V157.9m30.193,2.995c-.216,0-.448.031-.664.031v10.1h2.578V165.66a2.3,2.3,0,0,1,1.575-2.408,6.3,6.3,0,0,1,1.343-.124v-2.377c-1.451-.37-2.377.37-3.164,1.528-.108-.525-.185-.942-.293-1.42h-1.374m47.42.031c-.185.015-.37.031-.448.046v10.1h2.64v-5.588a2.211,2.211,0,0,1,2.238-2.238,4.891,4.891,0,0,0,.664-.031V160.8c-1.482-.432-2.362.448-3.334,1.605-.031-.617-.046-1.034-.062-1.513H294.17m-2.887,26.983c.417-1.374,1.513-1.621,2.763-1.528v-2.408c-1.528-.448-2.408.494-3.334,1.621-.031-.6-.046-1.05-.062-1.466h-2.146v10.08h2.64V188.8a6.952,6.952,0,0,1,.139-.942m35.812,3.828v2.5h2.578v-10.08H327.1V191.7m-35.5,22.676v-7.132h-2.578v10.1h2.578v-2.964m-23-1.389v4.353h2.578v-10.08h-2.578V213m22.213-9.972h-.463a1.39,1.39,0,0,0-1.513,1.5,1.457,1.457,0,1,0,2.887-.309,3.274,3.274,0,0,0-.911-1.189m36.136-22.213c0,.232-.015.463,0,.695a1.459,1.459,0,0,0,1.266,1.3,1.647,1.647,0,0,0,1.513-.9,1.4,1.4,0,0,0-.679-1.9,1.488,1.488,0,0,0-2.084.8m-55.71,23.093a1.267,1.267,0,0,0-1.59-.834,2.029,2.029,0,0,0-1.142.972,1.256,1.256,0,0,0,.432,1.575,1.458,1.458,0,0,0,1.744.062c.726-.386.741-1,.571-1.775Z" fill="none"/>
    <path id="Path_282" data-name="Path 282" d="M444.027,1q.116,41.238.077,82.538H217.5V1.077Q330.725.961,444.027,1M345.853,3.47h-15v77.6H441.573V3.47H345.837M258.329,64.922H241.5v2.269h65.187V64.922H258.344m-.324-3.813H244.328v2.3h59.507v-2.3h-45.8m-1.868-36.183c5.8-1.76,11.608-3.535,17.428-5.279a1.96,1.96,0,0,1,1.034,0q11.925,3.589,23.834,7.224c.8.247,1.605.479,2.485.726,0-.695-.046-1.281,0-1.868.046-.509-.2-.664-.617-.787q-12.851-3.936-25.7-7.888a2.033,2.033,0,0,0-1.1,0q-5.488,1.667-10.944,3.365-7.317,2.246-14.618,4.507c-.262.077-.6.355-.633.571a18.575,18.575,0,0,0-.031,2.1c2.964-.911,5.85-1.791,8.86-2.686m39.517,34.732H300.9V57.389H247.369v2.254H295.7m.293-28.356h4.893V29.048H247.354v2.238h48.64m-.108-3.859q-10.558-3.265-21.148-6.514a2.156,2.156,0,0,0-1.25,0q-6.761,2.038-13.522,4.106c-2.655.818-5.326,1.621-7.981,2.423,2.115.108,4.214.108,6.313.093a1.618,1.618,0,0,0,.448-.123q7.363-2.2,14.726-4.384a2.294,2.294,0,0,1,1.25,0c3.875,1.158,7.749,2.346,11.624,3.519a16.874,16.874,0,0,0,3.473.957,44.444,44.444,0,0,0,6.082-.093m-1.945,22.907c0,1.312-.015,2.624,0,3.936a1.692,1.692,0,0,0,1.389,1.852,1.912,1.912,0,0,0,2.5-2.068V34.62c0-1.4-.648-2.022-2.038-1.976-1.266.046-1.868.726-1.868,2.115V50.334m-41.184-12.21V53.869c0,.386.17.972-.432.972-.664,0-.37-.633-.37-.972-.015-6.823,0-13.63,0-20.453v-.741h-1.42a1.221,1.221,0,0,0-.062.2c0,7.132-.015,14.248,0,21.379a1.732,1.732,0,0,0,2.022,1.883c1.189-.031,1.76-.633,1.76-1.93V33.37c0-.232-.015-.448-.031-.679h-1.436V38.14m7.656,8.011V43.589h.108c.417,4.183.849,8.351,1.266,12.519h1.173V32.675h-1.2V43.527h-.124c-.417-3.628-.818-7.255-1.235-10.867h-1.065V56.077h1.065V46.151M278.6,38.433v1.142h1.513V37.229c0-1.1.031-2.207-.077-3.3-.093-.942-.772-1.343-1.868-1.281a1.6,1.6,0,0,0-1.7,1.451c.031,2.871-.355,5.773.617,8.552A27.745,27.745,0,0,1,278.6,53.931a6.555,6.555,0,0,1-.185.926h-.34a5.4,5.4,0,0,1-.185-.972c-.015-1.76,0-3.535,0-5.31h-1.4c0,.139-.031.216-.031.293v5.557a1.526,1.526,0,0,0,1.574,1.7c1.2.077,2.038-.463,2.053-1.559.031-2.964.37-5.974-.633-8.86a27.265,27.265,0,0,1-1.559-11.114,2.56,2.56,0,0,1,.293-.71c.139.232.386.463.386.695.046,1.235.015,2.47.015,3.859m10.373,14.356V48.575h-1.5V54.24c0,.2-.216.4-.324.6a2.574,2.574,0,0,1-.556-.525c-.093-.154-.031-.4-.031-.6V34.96c0-.432-.139-1.1.525-1.065.664.015.37.679.386,1.05.031,1.528,0,3.072,0,4.615h1.5v-5.2a1.584,1.584,0,0,0-.077-.37,1.758,1.758,0,0,0-2.177-1.343,1.6,1.6,0,0,0-1.436,1.713V54.5a1.5,1.5,0,0,0,1.436,1.605c1.127.139,1.914-.262,2.115-1.189a14.724,14.724,0,0,0,.154-2.146m-20.777.942v2.362h3.6V54.842h-1.914v-10.5c.509-.031.988-.046,1.451-.062V43c-.509-.031-.972-.062-1.451-.093V33.833h1.451V32.675h-3.118v21.04Z" transform="translate(-3.552 -0.339)" fill="#fff"/>
    <path id="Path_283" data-name="Path 283" d="M1507.57,681.686c-.2.957-.4,1.852-.617,2.732a17.122,17.122,0,0,1-3.473,6.761,17.808,17.808,0,0,1-6.668,5.125,18.727,18.727,0,0,1-5.542,1.528,17.6,17.6,0,0,1-8.613-1.081,18.236,18.236,0,0,1-7.61-5.418,17.446,17.446,0,0,1-4-8.613,32.652,32.652,0,0,1-.062-5.634,13.431,13.431,0,0,1,1.636-5.665,18.476,18.476,0,0,1,23.51-8.968,17.283,17.283,0,0,1,6.344,4.276,18.07,18.07,0,0,1,4.785,9.231c.077.417.123.849.247,1.3.062,1.466.062,2.917.062,4.43m-9.864.772a8.816,8.816,0,0,0,.309-4.477,9.046,9.046,0,0,0-8.382-7.317,8.384,8.384,0,0,0-6.622,2.578,8.616,8.616,0,0,0-2.624,7.456,8.71,8.71,0,0,0,3.674,6.159,8.374,8.374,0,0,0,7.3,1.436,8.818,8.818,0,0,0,6.329-5.85Z" transform="translate(-1063.467 -558.538)" fill="#fff"/>
    <path id="Path_284" data-name="Path 284" d="M213.5,1168.793c.154-.587.293-1.1.463-1.605a5.573,5.573,0,0,1,4.446-4.2c3.658-.695,6.375.787,7.44,4.461a9.558,9.558,0,0,1-.278,5.943,5.867,5.867,0,0,1-5.341,3.844,6.2,6.2,0,0,1-3.828-.865,6.78,6.78,0,0,1-2.825-4.677c-.062-.957-.062-1.883-.062-2.887m2.917,3.164a15.479,15.479,0,0,0,.756,1.621,3.051,3.051,0,0,0,5.017.34,7.033,7.033,0,0,0,.355-7.3,3.138,3.138,0,0,0-5.434-.124,7.947,7.947,0,0,0-.71,5.48Z" transform="translate(-0.169 -982.819)" fill="#fff"/>
    <path id="Path_285" data-name="Path 285" d="M213.5,1319.095a10.861,10.861,0,0,1,1.358-3.257,6.23,6.23,0,0,1,5-2.655,28.516,28.516,0,0,1,3.612.293,1.693,1.693,0,0,1,.54.247c-.185.756-.37,1.482-.556,2.207-2.9-1.235-5.063-.432-6.174.973a5.745,5.745,0,0,0-.077,6.807c1.343,1.744,3.7,2.053,6.252,1.034.139.741.278,1.467.432,2.269-.6.139-1.158.262-1.729.448a27.831,27.831,0,0,1-3.211,0,5.614,5.614,0,0,1-4.523-3.1c-.37-.772-.617-1.59-.926-2.393v-2.871Z" transform="translate(-0.169 -1109.966)" fill="#fff"/>
    <path id="Path_286" data-name="Path 286" d="M288.188,1348.087a4.743,4.743,0,0,1-3.535-3.38,5.945,5.945,0,0,1,1.25-5.835,4.621,4.621,0,0,1,2.207-1.158,5.1,5.1,0,0,1,4.168.587,4.245,4.245,0,0,1,1.96,3.149c.185,1.652.232,3.35-.88,4.8a4.762,4.762,0,0,1-2.763,1.791c-.8.062-1.574.062-2.423.062m-.834-6.838a4.379,4.379,0,0,0,.587,4.122,1.762,1.762,0,0,0,2.763.17,4.105,4.105,0,0,0,.664-4.368c-.37-1.05-.972-1.574-1.868-1.59a2.063,2.063,0,0,0-2.161,1.667Z" transform="translate(-60.116 -1130.546)" fill="#fff"/>
    <path id="Path_287" data-name="Path 287" d="M733.956,1348.076a5.445,5.445,0,0,1-2.717-1.868,5.867,5.867,0,0,1-.88-4.276,4.43,4.43,0,0,1,3.35-4.183c2.671-.741,5.5.139,6.3,3.3.509,2.007.4,4.013-1.189,5.573a13.274,13.274,0,0,1-2.285,1.4c-.849.062-1.667.062-2.578.062m3.18-3.35a4.475,4.475,0,0,0-.17-4.168,1.728,1.728,0,0,0-1.559-1,1.818,1.818,0,0,0-1.837.942,4.442,4.442,0,0,0-.139,4.384,1.845,1.845,0,0,0,2.146,1.173A2.068,2.068,0,0,0,737.136,1344.742Z" transform="translate(-437.192 -1130.535)" fill="#fff"/>
    <path id="Path_288" data-name="Path 288" d="M650.36,1348.665c-.633-.216-1.2-.448-1.76-.664.17-.679.34-1.3.525-2.022a3.592,3.592,0,0,0,.772.324,13.733,13.733,0,0,0,2.377.309,1.065,1.065,0,0,0,.756-.664,1.457,1.457,0,0,0-.479-1.111,13.2,13.2,0,0,0-1.868-.942,2.876,2.876,0,0,1-1.744-3.273,3.2,3.2,0,0,1,2.995-2.423,18.552,18.552,0,0,1,2.917.324c.37.062.509.34.34.741-.185.448-.309.926-.386,1.173a20.7,20.7,0,0,0-2.64-.216c-.262,0-.679.494-.725.787-.031.262.309.679.6.849a14.117,14.117,0,0,0,1.883.911,2.786,2.786,0,0,1,1.744,3.056,3.087,3.087,0,0,1-2.717,2.779c-.849.062-1.667.062-2.578.062Z" transform="translate(-368.106 -1131.124)" fill="#fff"/>
    <path id="Path_289" data-name="Path 289" d="M600.441,1348.156a8.28,8.28,0,0,1-1.312-.4c-.185-.093-.448-.355-.432-.51a14,14,0,0,1,.386-1.544c1.019.17,1.93.324,2.84.463a1.013,1.013,0,0,0,1.189-.834c.123-.648-.432-1.034-.972-1.3-.664-.324-1.358-.617-2.007-.972a2.408,2.408,0,0,1-1.266-2.47,3.025,3.025,0,0,1,2.223-2.763,5.7,5.7,0,0,1,4.152.37c-.154.633-.309,1.281-.463,1.914a8.357,8.357,0,0,0-1.713-.525,2.463,2.463,0,0,0-1.389.355,1,1,0,0,0-.108.942,3.27,3.27,0,0,0,1.019.787,11.81,11.81,0,0,1,2.115,1.219,2.918,2.918,0,0,1-1.173,4.986,2.783,2.783,0,0,0-.509.216C602.17,1348.156,601.352,1348.156,600.441,1348.156Z" transform="translate(-325.905 -1130.615)" fill="#fff"/>
    <path id="Path_290" data-name="Path 290" d="M786.449,685a6.673,6.673,0,0,0,6.283,3.921,9.182,9.182,0,0,0,4.585-.8,6.312,6.312,0,0,0,2.578-2.7c.093-.154.324-.355.478-.34,1,.062,2.007.185,3.01.293,1.235.139,2.454.309,3.674.448,1.189.123,2.362.232,3.612.34a12.69,12.69,0,0,1-1.914,4.23,14.941,14.941,0,0,1-10.589,6.668,32.776,32.776,0,0,1-5.758.448,19.412,19.412,0,0,1-9.061-1.976,16.674,16.674,0,0,1-7.749-8.66,20.312,20.312,0,0,1-1.4-6.915,19.86,19.86,0,0,1,2.424-10.636,15.941,15.941,0,0,1,11.253-8.228,25,25,0,0,1,6.684-.417,17.346,17.346,0,0,1,10.419,3.828,16.676,16.676,0,0,1,5.665,9.509,29.335,29.335,0,0,1,.617,7.008H785.369c.37,1.374.71,2.64,1.081,3.967m.185-12.565c-.216.6-.448,1.189-.664,1.791h14.788c-1.189-3.658-3.18-5.248-6.313-5.619A7.382,7.382,0,0,0,786.635,672.423Z" transform="translate(-474.296 -558.135)" fill="#fff"/>
    <path id="Path_291" data-name="Path 291" d="M522.546,662.239a4.913,4.913,0,0,1,.571-.139c3.257.062,6.437.463,9.185,2.454a10.37,10.37,0,0,1,4.291,6.838,39.066,39.066,0,0,1,.479,6.3c.062,6.329.015,12.658.015,18.987v.88H525.819v-.834c0-5.758.031-11.515-.031-17.289a12.681,12.681,0,0,0-.726-4.523,5.335,5.335,0,0,0-4.322-3.272,6.412,6.412,0,0,0-4.708,1.065,6.309,6.309,0,0,0-2.686,4.214,25.023,25.023,0,0,0-.324,4.168c-.031,5.2,0,10.389,0,15.591v.88H501.8v-34.5h11.176v4C515.585,664.014,518.625,662.254,522.546,662.239Z" transform="translate(-243.967 -559.389)" fill="#fff"/>
    <path id="Path_292" data-name="Path 292" d="M228.7,668.1a2.244,2.244,0,0,1,.185.818c0,6.53-.077,13.059.046,19.6a5.669,5.669,0,0,0,5.264,5.7,7.32,7.32,0,0,0,5.048-1.019,5.226,5.226,0,0,0,2.3-3.658,12.211,12.211,0,0,0,.17-2.115V668.162h11.268v.787c0,7.1.015,14.2,0,21.3a12.215,12.215,0,0,1-2.254,7.363,13.741,13.741,0,0,1-7.039,5.063,19.9,19.9,0,0,1-6.375,1.1c-1.7,0-3.411.108-5.094-.031a17.349,17.349,0,0,1-10.1-3.658,11.367,11.367,0,0,1-4.307-7.965c-.108-1.328-.154-2.655-.154-3.983-.015-6.375,0-12.75,0-19.141v-.9H228.7Z" transform="translate(-3.684 -564.463)" fill="#fff"/>
    <path id="Path_293" data-name="Path 293" d="M1048.5,688c.587-.973,1.158-1.883,1.76-2.887.8.571,1.559,1.142,2.362,1.682a10.737,10.737,0,0,0,6.437,1.991,4.419,4.419,0,0,0,3.581-1.3c.818-.957.911-2.84-.4-3.411-1.374-.6-2.778-1.081-4.183-1.59-1.621-.6-3.288-1.05-4.847-1.791a8.65,8.65,0,0,1-5.218-6.668,10.961,10.961,0,0,1,.648-5.912c1.605-3.875,4.646-5.881,8.613-6.792a21.134,21.134,0,0,1,6.066-.417,20.334,20.334,0,0,1,9.879,2.964c-1.467,2.346-2.917,4.708-4.384,7.054-1.2-.479-2.362-1-3.566-1.42a6.642,6.642,0,0,0-4.6-.108,3.228,3.228,0,0,0-1.25.8,1.592,1.592,0,0,0,.509,2.732,41.671,41.671,0,0,0,4.291,1.528c2.393.741,4.832,1.389,6.838,2.948a7.95,7.95,0,0,1,3.427,6.36,13.726,13.726,0,0,1-1.266,6.931,12.192,12.192,0,0,1-8.969,6.607,24.565,24.565,0,0,1-4.986.448,20.6,20.6,0,0,1-12.071-3.658c-.262-.185-.556-.355-.818-.54-.9-.648-.911-.8-.293-1.744.8-1.25,1.574-2.5,2.393-3.8Z" transform="translate(-703.855 -558.341)" fill="#fff"/>
    <path id="Path_294" data-name="Path 294" d="M1268.2,663.458c7.07-4.106,13.939-3.643,20.731.664-1.42,3.026-2.825,5.974-4.276,9.061a8.867,8.867,0,0,0-13.692.571,8.957,8.957,0,0,0,13.754,11.454c1.389,2.948,2.763,5.866,4.152,8.845a17.56,17.56,0,0,1-5.418,2.732,18.568,18.568,0,0,1-15.112-1.914,18.2,18.2,0,0,1-6.977-7.749,18.873,18.873,0,0,1-1.682-6.051,18.436,18.436,0,0,1,4.415-14.078,20.884,20.884,0,0,1,4.106-3.519Z" transform="translate(-884.761 -558.139)" fill="#fff"/>
    <path id="Path_295" data-name="Path 295" d="M848.5,1041.885v-4.322h1.173q1.111,0,1.173,1.281a3.222,3.222,0,0,1,2.948-1.544,2.691,2.691,0,0,1,2.64,1.775,3.6,3.6,0,0,1,4.677-1.374,3.451,3.451,0,0,1,1.729,3.01c.093,2.3.031,4.615.031,6.977H860.4c0-1.883.046-3.751-.031-5.619a4.3,4.3,0,0,0-.556-1.9,1.255,1.255,0,0,0-2.038-.247,2.161,2.161,0,0,0-.787,1.729c.031,2.007,0,4,0,6.036h-2.47v-.787c-.046-1.914-.062-3.828-.17-5.742a1.5,1.5,0,0,0-1.59-1.605,2.019,2.019,0,0,0-1.636,1.9v6.221H848.5v-5.8Z" transform="translate(-537.149 -876.672)" fill="#fff"/>
    <path id="Path_296" data-name="Path 296" d="M358.5,1340.032v-2.47h1.173q1.111,0,1.173,1.3a3.206,3.206,0,0,1,2.948-1.559,2.691,2.691,0,0,1,2.64,1.775,3.587,3.587,0,0,1,4.677-1.374,3.371,3.371,0,0,1,1.713,2.948c.108,2.331.031,4.677.031,7.054h-2.47c0-1.883.015-3.751,0-5.619a2.767,2.767,0,0,0-.695-2.161,1.255,1.255,0,0,0-1.528-.216,1.966,1.966,0,0,0-1.158,1.744c-.031,1.822,0,3.658,0,5.48v.787h-2.47v-.787c-.046-1.914-.062-3.828-.17-5.742-.062-1.081-.726-1.667-1.59-1.605a2.019,2.019,0,0,0-1.636,1.9v6.221h-2.624v-7.656Z" transform="translate(-122.787 -1130.364)" fill="#fff"/>
    <path id="Path_297" data-name="Path 297" d="M479.532,1340.812c.046,1.621.108,3.18.154,4.739.015.741,0,1.5,0,2.3h-2.624c0-.911.015-1.852,0-2.779-.031-1.328-.031-2.655-.17-3.967a1.374,1.374,0,0,0-1.42-1.374,1.707,1.707,0,0,0-1.636,1.4,12.384,12.384,0,0,0-.17,2.269c-.031,1.482,0,2.964,0,4.492H471.2v-1.96c0-1.281.031-2.578,0-3.859a4.725,4.725,0,0,0-.324-1.605,1.47,1.47,0,0,0-2.485-.108,3.628,3.628,0,0,0-.556,1.683c-.062,1.929-.031,3.844-.031,5.835h-2.5V1337.8h2.161c.015.355.046.71.062,1.266a3.472,3.472,0,0,1,2.948-1.575,2.68,2.68,0,0,1,2.7,1.791,3.556,3.556,0,0,1,4.446-1.482c1.343.479,1.744,1.7,1.914,3.072Z" transform="translate(-213.101 -1130.526)" fill="#fff"/>
    <path id="Path_298" data-name="Path 298" d="M468.323,1050c2.161.556,4.152-.247,3.952-3.334a3.638,3.638,0,0,1-3.859,1.127,3.742,3.742,0,0,1-2.825-2.948,6.5,6.5,0,0,1,.942-5.7c1.235-1.652,4.322-2.254,5.773-.509a3.649,3.649,0,0,0,.309.278v-1.081h2.346a16.22,16.22,0,0,0-.154,1.682c-.015,2.655.031,5.295-.031,7.95a4.772,4.772,0,0,1-1.266,3.458,5.568,5.568,0,0,1-4.785,1.343,16.228,16.228,0,0,1-2.64-.679c.232-.8.432-1.466.633-2.161.556.2,1.05.386,1.621.571m3.442-4.955a16.057,16.057,0,0,0,.355-1.667,12.252,12.252,0,0,0,0-1.683,2.07,2.07,0,0,0-1.451-1.991,2.112,2.112,0,0,0-2.115.957,3.9,3.9,0,0,0-.556,3.041,2.477,2.477,0,0,0,1.636,2.1,1.866,1.866,0,0,0,2.115-.741Z" transform="translate(-213.129 -876.912)" fill="#fff"/>
    <path id="Path_299" data-name="Path 299" d="M629.286,1202.14c-1.142-.216-2.207-.417-3.334-.648.247-.9.417-1.559.617-2.285,1.559.71,3.18,1.358,4.724.124.849-.679.864-1.791.926-2.979a3.559,3.559,0,0,1-2.331,1.328,3.814,3.814,0,0,1-4-2.038,6.623,6.623,0,0,1,.617-6.854,4.038,4.038,0,0,1,5.9-.232c.062-.339.124-.617.185-.911h2.1c0,3.226.062,6.437-.015,9.632-.046,1.837-.633,3.535-2.5,4.307a13.541,13.541,0,0,1-2.871.54m2.748-8.042v-2.547a1.933,1.933,0,0,0-3.7-.911,4.4,4.4,0,0,0-.185,3.658,1.967,1.967,0,0,0,2.176,1.374,2.139,2.139,0,0,0,1.729-1.574Z" transform="translate(-348.329 -1003.585)" fill="#fff"/>
    <path id="Path_300" data-name="Path 300" d="M806.5,1192.448v-4.569h2.084c.077.339.17.725.247,1.05a7.717,7.717,0,0,1,1.76-1.08c2.825-.88,4.878.664,5.48,3.5a7.043,7.043,0,0,1-.34,4.075,4.224,4.224,0,0,1-6.591,1.852v4.677H806.5v-9.524m7.1.139a15.5,15.5,0,0,0-.617-1.744,1.7,1.7,0,0,0-1.945-1.019,2.252,2.252,0,0,0-1.914,2.346v1.93a2.182,2.182,0,0,0,1.744,2.022,1.982,1.982,0,0,0,2.1-1.019,14.764,14.764,0,0,0,.633-2.5Z" transform="translate(-501.632 -1003.773)" fill="#fff"/>
    <path id="Path_301" data-name="Path 301" d="M886.083,1169.556c-.046-.648-.077-1.235-.154-1.806a1.7,1.7,0,0,0-1.775-1.59,1.972,1.972,0,0,0-1.76,1.868c-.015,1.822,0,3.658,0,5.48v.8H879.8V1159.6h2.547v5.711a4.027,4.027,0,0,1,2.5-1.312,3.137,3.137,0,0,1,3.535,2.423,4.847,4.847,0,0,1,.17,1.42c.015,2.13,0,4.26,0,6.468h-2.47v-4.754Z" transform="translate(-563.618 -980.094)" fill="#fff"/>
    <path id="Path_302" data-name="Path 302" d="M563.257,1196.487c-1.266,1.976-3.164,2.423-5.248,2.161a4.107,4.107,0,0,1-3.519-2.933,6.11,6.11,0,0,1,.71-5.758,3.931,3.931,0,0,1,3.164-1.744,7.5,7.5,0,0,1,2.7.247,4.405,4.405,0,0,1,2.917,3.89,6.009,6.009,0,0,1-.741,4.152m-2.933-5.958a1.984,1.984,0,0,0-2.717.278,4.646,4.646,0,0,0-.031,5.14,1.865,1.865,0,0,0,2.5.417c1.575-.911,1.868-4.168.262-5.85Z" transform="translate(-288.181 -1004.277)" fill="#fff"/>
    <path id="Path_303" data-name="Path 303" d="M537.724,1038.991a5.21,5.21,0,0,1,7.209-.37,4.742,4.742,0,0,1,1.328,2.547c.417,2.547.139,5.2-2.732,6.391-2.779,1.158-6.252.124-6.9-3.535a5.96,5.96,0,0,1,1.081-5.048m3.8,7.085a2.419,2.419,0,0,0,1.791-1.343,4.742,4.742,0,0,0,.062-4.014,1.806,1.806,0,0,0-1.513-1.235,1.941,1.941,0,0,0-2.022.88,4.349,4.349,0,0,0-.479,3.689,2.446,2.446,0,0,0,2.177,2.053Z" transform="translate(-273.299 -876.712)" fill="#fff"/>
    <path id="Path_304" data-name="Path 304" d="M777.5,1043.183v-5.2h2.285v1.358a3.936,3.936,0,0,1,2.763-1.575,3.086,3.086,0,0,1,3.7,2.809c.232,2.485.062,5,.062,7.533h-2.423c0-.2-.031-.417-.031-.633v-5.48a1.958,1.958,0,0,0-1.281-1.991,1.651,1.651,0,0,0-1.945.865,3.334,3.334,0,0,0-.448,1.636c-.046,1.852-.015,3.7-.015,5.6h-2.624v-4.878Z" transform="translate(-477.109 -877.045)" fill="#fff"/>
    <path id="Path_305" data-name="Path 305" d="M1027.248,1047.972h-1.08c0-1.575.016-3.1,0-4.631a14.957,14.957,0,0,0-.154-2.192,1.5,1.5,0,0,0-1.466-1.358,1.8,1.8,0,0,0-1.775,1.189,3.117,3.117,0,0,0-.278,1.219c-.031,1.9,0,3.8,0,5.727H1019.9v-10.111h2.269v1.374a3.793,3.793,0,0,1,5.279-.957,3.886,3.886,0,0,1,1.358,3.072c.077,2.177.016,4.368.016,6.653h-1.544Z" transform="translate(-682.091 -876.894)" fill="#fff"/>
    <path id="Path_306" data-name="Path 306" d="M492.556,1187.216a3.336,3.336,0,0,1,3.072,1.621,4.249,4.249,0,0,1,.556,1.682c.062,2.362.031,4.708.031,7.1h-2.578c0-.2-.031-.417-.031-.648v-5.48c0-1.25-.648-2.038-1.652-2.038a1.932,1.932,0,0,0-1.9,2.1v5.866a.831.831,0,0,1-.062.185H487.4v-10.1h2.13c.077.37.154.741.232,1.189a3.751,3.751,0,0,1,2.809-1.5Z" transform="translate(-231.789 -1003.433)" fill="#fff"/>
    <path id="Path_307" data-name="Path 307" d="M740.831,1190.306c-.2-.031-.417-.031-.448-.108-.17-.494-.309-.988-.463-1.513a6.173,6.173,0,0,1,3.134-.865,4.581,4.581,0,0,1,2.979.618,3,3,0,0,1,1.389,2.3c.124,2.439.046,4.909.046,7.394h-2.13c-.015-.278-.031-.556-.046-.849a11.849,11.849,0,0,1-1.7.88,3.124,3.124,0,0,1-4.091-1.574,3.246,3.246,0,0,1,1.636-4.338,39.319,39.319,0,0,1,3.813-1c.062-1.189-1.111-1.7-2.3-1.559a10.458,10.458,0,0,0-1.821.6m3.7,5.48c.617-.772.463-1.636.4-2.655-.772.2-1.482.34-2.161.571a1.39,1.39,0,0,0-.926,1.451,1.1,1.1,0,0,0,1.127,1.235,4.189,4.189,0,0,0,1.544-.587Z" transform="translate(-444.762 -1003.946)" fill="#fff"/>
    <path id="Path_308" data-name="Path 308" d="M1136.616,1038.474a3.944,3.944,0,0,1,1.112,2.933c.062,1.436,0,2.871,0,4.322v2.084h-2.285c-.016-.262-.031-.525-.046-.864a5.328,5.328,0,0,1-2.933,1.081c-2.547.123-3.6-2.562-2.825-4.4a3.852,3.852,0,0,1,3.056-2.254,19.375,19.375,0,0,1,2.362-.247,1.253,1.253,0,0,0-.71-1.5c-1.281-.679-2.47-.093-3.736.479-.139-.479-.324-.972-.417-1.466a.632.632,0,0,1,.309-.51,6.155,6.155,0,0,1,1.544-.556,6.3,6.3,0,0,1,3.257.093,6.681,6.681,0,0,1,1.312.8m-4.554,5.711a3.339,3.339,0,0,0,.077,1.189,1.459,1.459,0,0,0,2.285.309c.988-.756.617-1.775.679-2.84C1133.992,1043.12,1132.772,1042.858,1132.062,1044.185Z" transform="translate(-774.68 -876.766)" fill="#fff"/>
    <path id="Path_309" data-name="Path 309" d="M425.1,1189.6c-1.328-.463-2.408.093-3.55.6-.185-.618-.355-1.2-.571-1.914a12.262,12.262,0,0,1,2.068-.648,5.633,5.633,0,0,1,4,.448,3.3,3.3,0,0,1,1.528,2.856c.062,1.389,0,2.779.031,4.168.015.911.123,1.806.2,2.763h-2.315c-.046-.293-.077-.556-.154-1.019a3.779,3.779,0,0,1-3.4,1.2,2.918,2.918,0,0,1-2.532-2.562c-.2-2.594,1.451-3.782,3.427-4.075.756-.108,1.513-.154,2.3-.247-.124-.633-.232-1.281-1-1.59m.139,6.175c1.173-.664.772-1.76.864-2.917a16.754,16.754,0,0,0-2.192.556,1.4,1.4,0,0,0-.772,2.115C423.543,1196.273,424.237,1196.381,425.272,1195.764Z" transform="translate(-175.126 -1003.677)" fill="#fff"/>
    <path id="Path_310" data-name="Path 310" d="M811.926,1338.3a3.683,3.683,0,0,1,1.189,2.825c.031,2.238,0,4.461,0,6.746h-2.47c0-1.744.015-3.473,0-5.218a5.916,5.916,0,0,0-.216-1.652,1.627,1.627,0,0,0-1.821-1.266,2.039,2.039,0,0,0-1.667,1.9v6.236H804.3v-10.1h2.115c.077.355.17.741.262,1.1a3.766,3.766,0,0,1,5.233-.556Z" transform="translate(-499.772 -1130.531)" fill="#fff"/>
    <path id="Path_311" data-name="Path 311" d="M254.354,1037.535a3.225,3.225,0,0,1,3.242,1.189,5.464,5.464,0,0,1,.8,2.856c-.031,2.053,0,4.106,0,6.221h-2.624v-1.93c0-1.436.046-2.887,0-4.322-.046-1.2-.71-2.007-1.868-1.883a2.038,2.038,0,0,0-1.667,1.621c-.077,1.42-.124,2.856-.154,4.276-.015.741,0,1.482,0,2.254H249.6V1037.7h2.161v.911c.864-.371,1.713-.741,2.624-1.111Z" transform="translate(-30.697 -876.799)" fill="#fff"/>
    <path id="Path_312" data-name="Path 312" d="M362.483,1188.139c1.883.463,2.779,2.609,2.794,3.921v1.929h-6.468c.309,2.285,2.053,2.887,5.6,2.022a12.4,12.4,0,0,1,.355,1.5.664.664,0,0,1-.309.509c-1.991.6-4,.9-5.928-.185a4.468,4.468,0,0,1-2.207-3.751,6.21,6.21,0,0,1,1.25-4.615,3.608,3.608,0,0,1,2.779-1.466c.679,0,1.358.077,2.1.139m.355,3.257c-.494-1.25-.988-1.621-2.068-1.544-.988.062-1.513.664-1.9,2.269h3.967Z" transform="translate(-120.92 -1004.11)" fill="#fff"/>
    <path id="Path_313" data-name="Path 313" d="M670.289,1043.816h-1.451c-.262.9.633,1.868,1.42,2.177a5.563,5.563,0,0,0,3.612-.062c.448-.124.525-.016.587.37.062.463.154.911.247,1.451-2.3.648-4.538,1.05-6.684-.386a4,4,0,0,1-1.713-3.041,6.664,6.664,0,0,1,.741-4.4,4.132,4.132,0,0,1,3.427-2.146c2.13-.139,3.2.37,4.121,2.038a6.466,6.466,0,0,1,.587,4H670.3m.278-4.168a2.223,2.223,0,0,0-1.775,2.285h3.905A1.962,1.962,0,0,0,670.582,1039.649Z" transform="translate(-383.019 -877.061)" fill="#fff"/>
    <path id="Path_314" data-name="Path 314" d="M954.851,1043.6h-1.081c.587,2.408,2.022,2.917,5.6,2.007a10.317,10.317,0,0,1,.355,1.482.716.716,0,0,1-.432.571,8.093,8.093,0,0,1-5.264,0,4.071,4.071,0,0,1-2.562-2.964,6.4,6.4,0,0,1,.988-5.526,3.882,3.882,0,0,1,2.9-1.636,4.515,4.515,0,0,1,3.118.664,4.151,4.151,0,0,1,1.713,3.2,20.44,20.44,0,0,1,0,2.177H954.8m-.864-1.822h3.983c-.062-.293-.108-.479-.139-.679a1.865,1.865,0,0,0-2.717-1.451A2.324,2.324,0,0,0,953.941,1041.748Z" transform="translate(-624.035 -876.845)" fill="#fff"/>
    <path id="Path_315" data-name="Path 315" d="M363.58,1046.108c.448-.108.849-.154,1.25-.232a2.085,2.085,0,0,0,.278-.108c.185.525.386,1.034.525,1.574.031.108-.154.355-.278.4a7.975,7.975,0,0,1-5.418.124,4.14,4.14,0,0,1-2.67-3.442,6.417,6.417,0,0,1,.834-4.739,4.29,4.29,0,0,1,3.288-1.976,3.7,3.7,0,0,1,3.766,1.482,8.817,8.817,0,0,1,.972,2.7,7.891,7.891,0,0,1,.031,1.822h-6.391a2.061,2.061,0,0,0,1.312,2.161,11.864,11.864,0,0,0,2.5.232m-1.976-4.214h2.053a2.043,2.043,0,0,0-1.559-2.315c-1.312-.108-2.161.679-2.393,2.315h1.914Z" transform="translate(-121.646 -876.99)" fill="#fff"/>
    <path id="Path_316" data-name="Path 316" d="M609.1,1045.76c-.417,1.111-.8,2.161-1.189,3.211-.031.062-.046.2-.077.2a22.115,22.115,0,0,1-2.254.154c-.2,0-.494-.324-.587-.556-.695-1.929-1.358-3.859-2.038-5.789-.432-1.25-.9-2.485-1.358-3.782h2.84c.37,1.189.756,2.393,1.127,3.612s.71,2.439,1.034,3.566c.679-2.315,1.389-4.739,2.1-7.178h2.779c-.787,2.207-1.574,4.353-2.393,6.56Z" transform="translate(-328.361 -878.279)" fill="#fff"/>
    <path id="Path_317" data-name="Path 317" d="M1090.928,1023.611v1.636h-2.315v3.4c0,.494-.016.973,0,1.467a1.214,1.214,0,0,0,1.729,1.25c.123-.031.247-.031.4-.062v2.177a15.834,15.834,0,0,1-2.84-.031,2.238,2.238,0,0,1-1.76-2.254c-.062-1.76-.108-3.52-.154-5.279v-.587c-.4-.016-.772-.046-1.189-.062v-1.976h1.173v-2.254c.9-.216,1.76-.417,2.655-.633v2.871c.618,0,1.2-.015,1.791,0,.17,0,.34.17.525.324Z" transform="translate(-736.973 -862.381)" fill="#fff"/>
    <path id="Path_318" data-name="Path 318" d="M976.875,1191.518a4.728,4.728,0,0,1,4.569-3.427,22.646,22.646,0,0,1,2.5.154.5.5,0,0,1,.463.695c-.123.509-.262,1-.417,1.574-1.574-.571-3.1-.741-4.183.8a3.714,3.714,0,0,0-.046,3.89c1.142,1.482,2.624,1.389,4.291.849.123.587.278,1.142.355,1.729a.615.615,0,0,1-.37.463c-1.991.54-3.952.618-5.711-.648a4.394,4.394,0,0,1-1.528-2.531A6.323,6.323,0,0,1,976.875,1191.518Z" transform="translate(-645.457 -1004.185)" fill="#fff"/>
    <path id="Path_319" data-name="Path 319" d="M315.143,1022.052v-1.034c.818-.2,1.605-.4,2.454-.617v2.84h2.285v2.022h-2.254c0,1.729-.062,3.4.015,5.063.046,1.019.834,1.358,2.13,1v2.115a4.69,4.69,0,0,1-3.4-.185,2.457,2.457,0,0,1-1.219-2.269c-.046-1.852-.015-3.7-.031-5.557,0-.016-.031-.046-.093-.139H313.8v-1.976h1.358v-1.266Z" transform="translate(-84.987 -862.381)" fill="#fff"/>
    <path id="Path_320" data-name="Path 320" d="M303.126,1189.952c1.482-2.315,4.307-3.026,7.209-1.991-.154.679-.324,1.343-.448,1.9a18.729,18.729,0,0,0-2.423-.124c-1.729.108-2.67,2.13-2.285,3.859a2.859,2.859,0,0,0,3.859,2.177c.926-.247.942-.247,1.158.9.046.262.031.556.062.942a6.333,6.333,0,0,1-5.711-.324,4.648,4.648,0,0,1-2.068-4.137,6.127,6.127,0,0,1,.664-3.2Z" transform="translate(-75.409 -1003.684)" fill="#fff"/>
    <path id="Path_321" data-name="Path 321" d="M1199.378,1019.442v4.585H1196.8V1009.3h2.578Z" transform="translate(-831.685 -852.994)" fill="#fff"/>
    <path id="Path_322" data-name="Path 322" d="M220.378,1015.2v13.059H217.8V1014.3h2.578Z" transform="translate(-3.806 -857.223)" fill="#fff"/>
    <path id="Path_323" data-name="Path 323" d="M426.625,1037.881h1.312c.093.463.185.9.293,1.42.787-1.158,1.7-1.9,3.164-1.528v2.377a6.49,6.49,0,0,0-1.343.124,2.3,2.3,0,0,0-1.574,2.408v5.356H425.9v-10.1c.216,0,.448-.031.741-.031Z" transform="translate(-179.783 -876.991)" fill="#fff"/>
    <path id="Path_324" data-name="Path 324" d="M734.909,1037.849h1.636c.016.479.046.9.062,1.513.972-1.158,1.852-2.053,3.334-1.605v2.377a4.868,4.868,0,0,1-.664.031,2.192,2.192,0,0,0-2.238,2.238v5.588H734.4v-10.1c.077,0,.262-.031.525-.046Z" transform="translate(-440.662 -876.959)" fill="#fff"/>
    <path id="Path_325" data-name="Path 325" d="M703.179,1191.759a5.14,5.14,0,0,0-.139.88v5.372H700.4v-10.08h2.146c.015.417.046.865.062,1.467.926-1.127,1.821-2.069,3.334-1.621v2.408c-1.25-.093-2.346.154-2.779,1.59Z" transform="translate(-411.91 -1003.824)" fill="#fff"/>
    <path id="Path_326" data-name="Path 326" d="M950.5,1196.818V1189.3h2.578v10.08H950.5V1196.8Z" transform="translate(-623.404 -1005.209)" fill="#fff"/>
    <path id="Path_327" data-name="Path 327" d="M706.378,1346.509v2.887H703.8v-10.1h2.578Z" transform="translate(-414.785 -1132.055)" fill="#fff"/>
    <path id="Path_328" data-name="Path 328" d="M571.5,1344.965V1339.3h2.578v10.08H571.5v-4.43Z" transform="translate(-302.908 -1132.055)" fill="#fff"/>
    <path id="Path_329" data-name="Path 329" d="M704.591,1312.015a3.426,3.426,0,0,1,.849,1.173,1.457,1.457,0,1,1-2.887.309,1.4,1.4,0,0,1,1.513-1.5C704.221,1312,704.375,1312,704.591,1312.015Z" transform="translate(-413.724 -1108.969)" fill="#fff"/>
    <path id="Path_330" data-name="Path 330" d="M949.431,1162.674a1.487,1.487,0,0,1,2.068-.741,1.394,1.394,0,0,1,.679,1.9,1.59,1.59,0,0,1-1.513.9,1.459,1.459,0,0,1-1.266-1.3c0-.232,0-.463.015-.756Z" transform="translate(-622.474 -981.917)" fill="#fff"/>
    <path id="Path_331" data-name="Path 331" d="M573.064,1312.861c.139.725.108,1.343-.617,1.729a1.483,1.483,0,0,1-1.744-.062,1.293,1.293,0,0,1-.432-1.574,2.088,2.088,0,0,1,1.142-.973,1.331,1.331,0,0,1,1.636.88Z" transform="translate(-301.771 -1108.904)" fill="#fff"/>
    <path id="Path_332" data-name="Path 332" d="M1162.563,152.7a26.011,26.011,0,0,1-9.262-5.464,25.3,25.3,0,0,1-7.5-12.565,31.3,31.3,0,0,1-.664-5.248,23.027,23.027,0,0,1,1.374-9.632,24.7,24.7,0,0,1,4.307-7.626,25.22,25.22,0,0,1,8.814-6.931,21.707,21.707,0,0,1,8.135-2.254,41.366,41.366,0,0,1,4.986-.123,24.326,24.326,0,0,1,8.058,1.991,25.324,25.324,0,0,1,8.536,6.02,25.68,25.68,0,0,1,6.1,11.1,26.1,26.1,0,0,1,.725,8.459,24.409,24.409,0,0,1-2.007,8.135,25.481,25.481,0,0,1-25.9,15.313,45.88,45.88,0,0,1-5.711-1.189m8.444-33.79h2.084v2.254c0,.417.077.6.571.71a9.369,9.369,0,0,1,2.748.957,7.523,7.523,0,0,0,4.97,1.358,7.089,7.089,0,0,1,1.852.278,18.614,18.614,0,0,1,7.718,2.979c1.513,1.019,2.917,2.207,4.523,3.442-.154-2.393-.139-4.77-.525-7.085a22.978,22.978,0,0,0-2.964-7.888,25.44,25.44,0,0,0-5.279-6.267,24.185,24.185,0,0,0-7.132-4.26,27.673,27.673,0,0,0-8.984-1.713,20.86,20.86,0,0,0-3.087.278,21.809,21.809,0,0,0-6.838,1.914,22.4,22.4,0,0,0-8.474,6.313,40.022,40.022,0,0,0-3.226,4.631,22.346,22.346,0,0,0-2.964,10.713,28.887,28.887,0,0,0,.587,5.958,23.1,23.1,0,0,0,6.391,12.148,24.558,24.558,0,0,0,7.564,5.31,25.327,25.327,0,0,0,9.848,2.238,24.8,24.8,0,0,0,3.7-.293,21.523,21.523,0,0,0,6.622-1.868,25.127,25.127,0,0,0,9.246-7.162,24.445,24.445,0,0,0,4.137-7.533.907.907,0,0,0-.124-.772c-.741-.849-1.513-1.683-2.315-2.485a19.417,19.417,0,0,0-6.668-4.183,26.06,26.06,0,0,0-2.655-.756c-.046.093-.108.185-.154.293.417.34.787.834,1.266.988a16.853,16.853,0,0,1,8.444,5.573c.494.633,1.019,1.235,1.559,1.868a24.113,24.113,0,0,1-27.152,15.39c-10.034-1.7-17.289-9.833-18.894-17.536,1.219.139,2.454.232,3.658.448a11.265,11.265,0,0,0,5.8-.633.683.683,0,0,0,.54-.679,17.6,17.6,0,0,1,.432-2.362,13.122,13.122,0,0,1,9.864-9.6c.556-.123.664-.309.648-.787-.015-.71,0-1.42,0-2.176h2.7m4.075,4.338c-.88-.216-1.76-.4-2.609-.648-.154-.046-.324-.37-.34-.571-.046-.756-.016-1.528-.016-2.285h-2.933c0,.787.031,1.544-.016,2.269a.8.8,0,0,1-.463.587,11.547,11.547,0,0,0-5.943,2.7,12.4,12.4,0,0,0-1.482,17.69,12.4,12.4,0,0,0,7.934,4.214v.988h2.917v-.988a14.177,14.177,0,0,0,4.862-1.713,12.216,12.216,0,0,0,4.955-5.542,11.714,11.714,0,0,0,1-6.622,12.9,12.9,0,0,0-3.072-6.746,14.008,14.008,0,0,0-4.785-3.35m-22.877,19.5c.232.247.479.463.695.726a21.053,21.053,0,0,0,6.591,5.4,21.863,21.863,0,0,0,12.4,2.763,28.822,28.822,0,0,0,3.828-.479,22.753,22.753,0,0,0,11.392-6.267,24.244,24.244,0,0,0,2.7-3.2c.864-1.266,1.559-2.655,2.377-4.091h-4c-.463.9-.864,1.775-1.327,2.624a19.48,19.48,0,0,1-9.478,8.876,16.524,16.524,0,0,1-10.713.942,17.928,17.928,0,0,1-9.262-5.619,22.207,22.207,0,0,1-4.152-6.607.627.627,0,0,0-.479-.355c-1.189-.031-2.377-.015-3.566-.015a2.573,2.573,0,0,1-.2.216c1.065,1.667,2.13,3.319,3.211,5.094m36.105-6.761a10.36,10.36,0,0,0-4.461-2.979c-.093,1,0,1.744,1.05,2.254a13.354,13.354,0,0,1,2.362,1.868c.232-.864,1-.232,1.42-.54a5.341,5.341,0,0,0-.386-.6m-4.955,2.917c-.417.571-.293,1,.232,1.482a11.361,11.361,0,0,1,1.142,1.436c.926-1.158.911-1.482-.062-2.547-.324-.355-.648-.71-1.034-1.158a6.7,6.7,0,0,0-.262.787m-1.93,6.56c.71-.9-.17-1.436-.432-2.115-.448.432-.88.849-1.25,1.219.262.54.509,1.081.756,1.605.278-.216.571-.417.926-.71m-22.6-4.26c-.139-.278-.278-.571-.4-.818-.833.247-1.605.463-2.454.71.293.417.556.787.818,1.158.695-.232,1.328-.432,1.96-.664.077-.031.108-.185.077-.386m-2.084-3.751c-.8.17-1.59.355-2.624.571.37.34.664.787.9.756a24.524,24.524,0,0,0,2.655-.571c-.062-.37-.123-.664-.17-.972-.247.077-.432.123-.756.2m6.776,8.783c-.6.139-1.2.293-1.945.463,1.3,1.065,1.852,1.05,2.9.031-.293-.154-.571-.324-.973-.494m-4.693-2.223a3.2,3.2,0,0,0-.2.386c.309.2.664.54.957.509a5.777,5.777,0,0,0,1.466-.6c-.262-.355-.479-.664-.725-.972C1159.877,143.52,1159.429,143.721,1158.874,143.983Z" transform="translate(-787.939 -86.439)" fill="#fff"/>
    <path id="Path_333" data-name="Path 333" d="M722.373,226.742V215.165a2.042,2.042,0,0,1,.062-.756.594.594,0,0,1,.448-.309.687.687,0,0,1,.448.309,1.177,1.177,0,0,1,.046.525v19.3a1.068,1.068,0,0,1-.232.741c-.34.293-.741-.062-.741-.679v-7.564Z" transform="translate(-430.487 -180.544)" fill="#fff"/>
    <path id="Path_334" data-name="Path 334" d="M1294.415,172.441c0-.293,0-.525-.015-.756a2.409,2.409,0,0,1,2.022-2.609,2.8,2.8,0,0,1,2.578.911,2.752,2.752,0,0,1-.124,3.411,2.6,2.6,0,0,1-4.152-.37,5.178,5.178,0,0,1-.293-.587m1.528.525a1.565,1.565,0,0,0,2.115-.108,1.655,1.655,0,0,0-1.729-2.763,1.666,1.666,0,0,0-.37,2.871Z" transform="translate(-914.203 -142.42)" fill="#fff"/>
    <path id="Path_335" data-name="Path 335" d="M1320.5,244.067V235.5a10.354,10.354,0,0,1,8.83,8.258,10.55,10.55,0,0,1-7.981,12.457c-.648.17-.849,0-.849-.741V244.052m1.7,1.945c-.942.216-.818.911-.726,1.636a17.9,17.9,0,0,1,7.255-1.729c-.077-.54-.139-1.019-.216-1.5A15.392,15.392,0,0,0,1322.2,246m1.3,3.3c-.432.108-.865.232-1.312.324-.556.139-.9.417-.756,1.05a3.333,3.333,0,0,1,0,.556c.988-.232,1.945-.525,2.917-.664,1-.139,2.038-.123,3.2-.2.17-.386.417-.926.756-1.7-1.7.2-3.2.37-4.816.617m.633-8.475c-.633.232-1.281.432-1.883.695-.88.4-.864.417-.725,1.436a13.088,13.088,0,0,1,5.9-1.683c-.309-.556-.417-1.266-1.374-.911-.571.216-1.219.262-1.929.463m-.386,12.689c-.463.108-.926.2-1.389.309-.988.247-.988.247-.8,1.544,1.142-.571,2.223-1.1,3.3-1.636-.031-.077-.062-.154-.093-.216h-1.019m-2.254-15.822c.494-.154.972-.293,1.466-.448a.523.523,0,0,1,.016-.154c-.479-.154-.942-.309-1.513-.494C1321.426,237,1321.426,237.275,1321.457,237.677Z" transform="translate(-936.29 -198.641)" fill="#fff"/>
    <path id="Path_336" data-name="Path 336" d="M1251.559,250.675V256a10.4,10.4,0,0,1-9.092-9.663,10.516,10.516,0,0,1,9.092-11.238v15.575m-.926-14.171c-.077-.587-.432-.154-.571-.108a9.682,9.682,0,0,0-5.4,4.368,23.488,23.488,0,0,0-1.328,3.288,2.963,2.963,0,0,0,.54-.185c2.161-1.312,4.322-2.624,6.452-3.952a.861.861,0,0,0,.293-.587c.031-.9,0-1.791,0-2.825M1246,246.585l-2.362,1.158c.077.293.154.6.262,1.081,2.1-1.111,4.06-2.223,6.082-3.211.725-.355.679-.8.6-1.4-1.513.772-3.01,1.544-4.585,2.362m4.6,1.713c-1.914.834-3.813,1.652-5.742,2.485.293.386.525.679.772,1,1.389-.633,2.732-1.3,4.122-1.868a1.247,1.247,0,0,0,.849-1.621m.031,4c0-.216-.031-.432-.046-.71-1.219.556-2.362,1.065-3.55,1.605.309.185.54.324.772.479C1248.394,254.04,1250.478,253.13,1250.633,252.281Z" transform="translate(-870.281 -198.302)" fill="#fff"/>
  </g>
</svg>
