<svg xmlns="http://www.w3.org/2000/svg" xmlns:xlink="http://www.w3.org/1999/xlink" width="317" height="101.206" viewBox="0 0 317 101.206">
  <defs>
    <clipPath id="clip-path">
      <path id="Path_120" data-name="Path 120" d="M0,66.337H107.675V-34.868H0Z" transform="translate(0 34.868)" fill="none"/>
    </clipPath>
    <clipPath id="clip-path-4">
      <path id="Path_185" data-name="Path 185" d="M48.622,66.337H224.5V-34.868H48.622Z" transform="translate(-48.622 34.868)" fill="none"/>
    </clipPath>
  </defs>
  <g id="Group_152" data-name="Group 152" transform="translate(0 34.868)">
    <g id="Group_91" data-name="Group 91" transform="translate(0 -34.868)" clip-path="url(#clip-path)">
      <g id="Group_52" data-name="Group 52" transform="translate(0.324 0.037)">
        <path id="Path_81" data-name="Path 81" d="M69.233,0q.052,19.226.035,38.485H-36.39V.035Q16.4-.017,69.233,0M23.457,1.152h-7v36.18H68.09V1.152H23.449m-40.8,28.654H-25.2v1.057H5.2V29.806H-17.346m-.151-1.779H-23.88V29.1H3.865V28.027H-17.489m-.871-16.87c2.705-.821,5.41-1.649,8.124-2.461a.905.905,0,0,1,.482,0q5.56,1.672,11.114,3.367c.374.116.749.223,1.158.34,0-.325-.02-.6,0-.871.023-.238-.093-.311-.287-.369Q-3.76,9.33-9.753,7.486a.954.954,0,0,0-.511,0q-2.556.775-5.1,1.57-3.409,1.045-6.815,2.1c-.122.035-.282.165-.3.264a8.982,8.982,0,0,0-.015.981c1.382-.427,2.728-.836,4.133-1.254M.066,27.345H2.5V26.291H-22.464v1.054H.072M.208,14.121H2.489V13.079H-22.469v1.042H.208m-.049-1.8Q-4.765,10.8-9.7,9.285a1,1,0,0,0-.583,0q-3.152.949-6.3,1.913c-1.239.383-2.485.758-3.721,1.132.984.049,1.965.049,2.943.044a.8.8,0,0,0,.209-.058q3.431-1.027,6.864-2.043a1.049,1.049,0,0,1,.583,0c1.808.54,3.614,1.091,5.422,1.64a7.849,7.849,0,0,0,1.617.447,20.547,20.547,0,0,0,2.836-.044M-.741,23c0,.612-.006,1.222,0,1.834a.791.791,0,0,0,.647.865.893.893,0,0,0,1.167-.967V15.677c0-.656-.3-.943-.949-.923-.592.023-.871.34-.871.987V23m-19.2-5.692v7.341c0,.18.078.453-.2.453-.308,0-.171-.293-.171-.453-.009-3.181,0-6.357,0-9.538v-.345h-.662a.576.576,0,0,0-.029.1c0,3.323-.009,6.641,0,9.967a.807.807,0,0,0,.94.879c.554-.015.821-.3.821-.9V15.093c0-.107-.006-.209-.015-.316h-.668v2.54m3.57,3.736V19.859h.049c.194,1.951.395,3.892.589,5.837h.549V14.768h-.563V19.83H-15.8c-.194-1.692-.38-3.384-.575-5.068h-.5V25.682h.5v-4.63m8.472-3.6v.534H-7.2V16.893a15.179,15.179,0,0,0-.038-1.541c-.044-.438-.36-.624-.871-.6a.748.748,0,0,0-.792.679,12.092,12.092,0,0,0,.29,3.985A13.018,13.018,0,0,1-7.9,24.68a3.259,3.259,0,0,1-.087.432h-.16a2.483,2.483,0,0,1-.084-.453c-.009-.821,0-1.649,0-2.476h-.656c0,.064-.015.1-.015.136V24.91a.711.711,0,0,0,.734.792c.56.038.949-.215.958-.726a11.939,11.939,0,0,0-.3-4.133,12.707,12.707,0,0,1-.726-5.181,1.125,1.125,0,0,1,.136-.331c.064.107.18.215.18.322.02.578.006,1.152.006,1.8m4.839,6.7V22.184h-.7v2.641c0,.093-.1.186-.151.279a1.149,1.149,0,0,1-.258-.244c-.044-.073-.015-.186-.015-.282V15.833c0-.2-.067-.511.244-.5s.174.316.18.491c.015.711,0,1.431,0,2.151h.7V15.555a.749.749,0,0,0-.038-.174.819.819,0,0,0-1.013-.627.746.746,0,0,0-.67.8v9.393a.7.7,0,0,0,.67.749c.525.064.891-.122.984-.554a6.454,6.454,0,0,0,.073-1m-9.689.438v1.1h1.678V25.1h-.891V20.21c.235-.015.459-.02.676-.029v-.6l-.676-.044V15.308h.676v-.54h-1.454v9.811Z" transform="translate(36.39)" fill="#0069b4"/>
      </g>
      <g id="Group_53" data-name="Group 53" transform="translate(90.537 47.548)">
        <path id="Path_82" data-name="Path 82" d="M11.21,6.294c-.093.447-.186.865-.287,1.274A7.966,7.966,0,0,1,9.3,10.72a8.311,8.311,0,0,1-3.109,2.389,8.747,8.747,0,0,1-2.586.714,8.188,8.188,0,0,1-4.014-.505,8.5,8.5,0,0,1-3.55-2.525A8.121,8.121,0,0,1-5.819,6.776a15.243,15.243,0,0,1-.029-2.627,6.26,6.26,0,0,1,.763-2.641A8.593,8.593,0,0,1-2.963-1.227,8.642,8.642,0,0,1,.621-3.064a8.566,8.566,0,0,1,5.256.389A8.07,8.07,0,0,1,8.836-.681a8.44,8.44,0,0,1,2.229,4.3c.038.194.058.395.116.6.029.685.029,1.361.029,2.067m-4.6.36a4.11,4.11,0,0,0,.145-2.087A4.222,4.222,0,0,0,2.848,1.153a3.908,3.908,0,0,0-3.088,1.2A4.01,4.01,0,0,0-1.466,5.832,4.076,4.076,0,0,0,.247,8.706a3.905,3.905,0,0,0,3.4.668A4.112,4.112,0,0,0,6.6,6.648Z" transform="translate(5.892 3.308)" fill="#0069b4"/>
      </g>
      <g id="Group_54" data-name="Group 54" transform="translate(0.036 83.66)">
        <path id="Path_83" data-name="Path 83" d="M0,1.824c.073-.273.136-.511.215-.749A2.6,2.6,0,0,1,2.29-.881,2.745,2.745,0,0,1,5.759,1.2a4.446,4.446,0,0,1-.131,2.772A2.731,2.731,0,0,1,3.138,5.76a2.907,2.907,0,0,1-1.785-.4A3.165,3.165,0,0,1,.035,3.177C.006,2.73.006,2.3.006,1.83M1.367,3.307a7.146,7.146,0,0,0,.354.755,1.422,1.422,0,0,0,2.339.16,3.286,3.286,0,0,0,.165-3.4A1.462,1.462,0,0,0,1.692.759a3.707,3.707,0,0,0-.331,2.554Z" transform="translate(0 0.959)" fill="#0069b4"/>
      </g>
      <g id="Group_55" data-name="Group 55" transform="translate(0.036 94.481)">
        <path id="Path_84" data-name="Path 84" d="M0,1.808A5.019,5.019,0,0,1,.633.29,2.906,2.906,0,0,1,2.966-.949,13.754,13.754,0,0,1,4.65-.813.818.818,0,0,1,4.9-.7c-.087.354-.174.691-.261,1.03A2.305,2.305,0,0,0,1.765.787a2.674,2.674,0,0,0-.038,3.172,2.377,2.377,0,0,0,2.914.485c.067.345.131.682.2,1.057-.282.064-.54.122-.807.209a12.887,12.887,0,0,1-1.5,0A2.617,2.617,0,0,1,.432,4.264C.258,3.9.145,3.521,0,3.146V1.814Z" transform="translate(0 0.951)" fill="#0069b4"/>
      </g>
      <g id="Group_56" data-name="Group 56" transform="translate(5.138 96.233)">
        <path id="Path_85" data-name="Path 85" d="M1.161,3.231A2.21,2.21,0,0,1-.488,1.655,2.775,2.775,0,0,1,.1-1.065a2.13,2.13,0,0,1,1.03-.54,2.369,2.369,0,0,1,1.942.273A1.973,1.973,0,0,1,3.982.137a2.94,2.94,0,0,1-.409,2.238,2.236,2.236,0,0,1-1.289.836c-.374.026-.734.026-1.129.026M.766.05a2.042,2.042,0,0,0,.273,1.921.821.821,0,0,0,1.289.078A1.909,1.909,0,0,0,2.635.015a.924.924,0,0,0-.871-.743c-.517,0-.8.209-1.007.778Z" transform="translate(0.61 1.698)" fill="#0069b4"/>
      </g>
      <g id="Group_57" data-name="Group 57" transform="translate(37.232 96.232)">
        <path id="Path_86" data-name="Path 86" d="M1.119,3.232A2.531,2.531,0,0,1-.147,2.361,2.732,2.732,0,0,1-.559.367,2.069,2.069,0,0,1,1-1.584,2.2,2.2,0,0,1,3.94-.042a2.534,2.534,0,0,1-.554,2.6,6.176,6.176,0,0,1-1.065.656c-.395.026-.778.026-1.2.026M2.6,1.676A2.089,2.089,0,0,0,2.524-.266.809.809,0,0,0,1.8-.733a.841.841,0,0,0-.856.438A2.07,2.07,0,0,0,.875,1.749a.859.859,0,0,0,1,.549A.969.969,0,0,0,2.6,1.676" transform="translate(0.588 1.699)" fill="#0069b4"/>
      </g>
      <g id="Group_58" data-name="Group 58" transform="translate(31.351 96.283)">
        <path id="Path_87" data-name="Path 87" d="M.538,3.2c-.3-.1-.56-.209-.821-.311.081-.316.16-.6.247-.94a1.8,1.8,0,0,0,.36.151,6.479,6.479,0,0,0,1.106.142.49.49,0,0,0,.354-.308.685.685,0,0,0-.223-.52A6.108,6.108,0,0,0,.689.975,1.341,1.341,0,0,1-.123-.552a1.487,1.487,0,0,1,1.4-1.129,8.607,8.607,0,0,1,1.361.151c.171.029.235.157.157.345-.087.209-.142.432-.18.546a9.543,9.543,0,0,0-1.231-.1c-.122,0-.316.229-.337.366s.142.316.279.395A6.639,6.639,0,0,0,2.2.45a1.3,1.3,0,0,1,.813,1.425A1.436,1.436,0,0,1,1.749,3.169c-.4.029-.778.029-1.2.029Z" transform="translate(0.283 1.681)" fill="#0069b4"/>
      </g>
      <g id="Group_59" data-name="Group 59" transform="translate(27.761 96.239)">
        <path id="Path_88" data-name="Path 88" d="M.533,3.227a4.04,4.04,0,0,1-.612-.186C-.167,3-.288,2.873-.28,2.8a6.023,6.023,0,0,1,.18-.72c.473.078.9.151,1.324.215a.471.471,0,0,0,.554-.389c.058-.3-.2-.482-.453-.6C1.015,1.155.693,1.019.388.853A1.129,1.129,0,0,1-.2-.3,1.41,1.41,0,0,1,.835-1.588a2.645,2.645,0,0,1,1.936.174c-.073.293-.142.6-.215.891a3.8,3.8,0,0,0-.8-.244,1.147,1.147,0,0,0-.65.165.467.467,0,0,0-.049.438,1.526,1.526,0,0,0,.476.369,5.432,5.432,0,0,1,.984.566A1.36,1.36,0,0,1,1.973,3.1a1.462,1.462,0,0,0-.238.1C1.34,3.227.957,3.227.533,3.227Z" transform="translate(0.28 1.696)" fill="#0069b4"/>
      </g>
      <g id="Group_60" data-name="Group 60" transform="translate(40.39 47.514)">
        <path id="Path_89" data-name="Path 89" d="M3.752,7.453A3.113,3.113,0,0,0,6.681,9.281,4.3,4.3,0,0,0,8.82,8.907a2.944,2.944,0,0,0,1.2-1.26c.044-.073.151-.165.223-.16.467.029.935.087,1.4.139.578.064,1.146.142,1.712.206s1.1.11,1.686.16a5.853,5.853,0,0,1-.894,1.971,6.961,6.961,0,0,1-4.937,3.112,15.432,15.432,0,0,1-2.685.209,9.028,9.028,0,0,1-4.223-.923A7.756,7.756,0,0,1-1.307,8.324,9.4,9.4,0,0,1-1.963,5.1,9.267,9.267,0,0,1-.834.141,7.435,7.435,0,0,1,4.414-3.7,11.745,11.745,0,0,1,7.531-3.89,8.089,8.089,0,0,1,12.39-2.105a7.792,7.792,0,0,1,2.641,4.432A13.721,13.721,0,0,1,15.319,5.6H3.247c.174.641.331,1.231.505,1.852m.087-5.86c-.1.282-.209.554-.311.836h6.9A3.281,3.281,0,0,0,7.482-.2,3.442,3.442,0,0,0,3.839,1.587" transform="translate(1.972 3.917)" fill="#0069b4"/>
      </g>
      <g id="Group_61" data-name="Group 61" transform="translate(20.786 47.621)">
        <path id="Path_90" data-name="Path 90" d="M6.341.042a2.567,2.567,0,0,1,.267-.064,7.207,7.207,0,0,1,4.281,1.144,4.842,4.842,0,0,1,2,3.187,18.1,18.1,0,0,1,.221,2.937c.029,2.952.009,5.9.009,8.853v.412H7.868v-.389c0-2.685.015-5.37-.015-8.063a5.918,5.918,0,0,0-.34-2.107A2.483,2.483,0,0,0,5.5,4.425a3,3,0,0,0-2.194.5A2.947,2.947,0,0,0,2.051,6.886,11.437,11.437,0,0,0,1.9,8.831c-.015,2.424,0,4.844,0,7.268v.412H-3.333V.422H1.88V2.288A5.7,5.7,0,0,1,6.341.042Z" transform="translate(3.333 0.022)" fill="#0069b4"/>
      </g>
      <g id="Group_62" data-name="Group 62" transform="translate(0.336 48.052)">
        <path id="Path_91" data-name="Path 91" d="M3.375,0a1.077,1.077,0,0,1,.087.38c0,3.045-.038,6.09.02,9.143a2.643,2.643,0,0,0,2.456,2.656A3.433,3.433,0,0,0,8.292,11.7,2.433,2.433,0,0,0,9.363,10a5.623,5.623,0,0,0,.078-.984V.029H14.7V.395c0,3.312.006,6.624,0,9.932a5.7,5.7,0,0,1-1.051,3.434,6.427,6.427,0,0,1-3.283,2.363,9.322,9.322,0,0,1-2.972.511c-.792,0-1.591.049-2.377-.015A8.091,8.091,0,0,1,.31,14.913,5.293,5.293,0,0,1-1.7,11.2c-.052-.618-.073-1.236-.073-1.855-.006-2.972,0-5.947,0-8.925V0H3.389Z" transform="translate(1.774)" fill="#0069b4"/>
      </g>
      <g id="Group_63" data-name="Group 63" transform="translate(59.929 47.531)">
        <path id="Path_92" data-name="Path 92" d="M.876,8.3c.273-.453.54-.879.821-1.347.374.267.726.534,1.1.787a5.01,5.01,0,0,0,3,.926,2.043,2.043,0,0,0,1.669-.6c.383-.447.427-1.324-.186-1.591-.641-.282-1.295-.5-1.951-.74C4.576,5.446,3.8,5.237,3.07,4.891A4.04,4.04,0,0,1,.638,1.783a5.115,5.115,0,0,1,.3-2.757A5.27,5.27,0,0,1,4.957-4.141a9.883,9.883,0,0,1,2.83-.194,9.5,9.5,0,0,1,4.606,1.382c-.685,1.094-1.361,2.2-2.046,3.289-.56-.221-1.1-.467-1.66-.662A3.1,3.1,0,0,0,6.541-.377,1.485,1.485,0,0,0,5.958,0,.742.742,0,0,0,6.2,1.272a19.941,19.941,0,0,0,2,.711,9.573,9.573,0,0,1,3.187,1.376,3.709,3.709,0,0,1,1.6,2.966,6.415,6.415,0,0,1-.589,3.231,5.69,5.69,0,0,1-4.183,3.08,11.361,11.361,0,0,1-2.325.209,9.616,9.616,0,0,1-5.628-1.7c-.122-.087-.261-.168-.383-.253-.415-.3-.424-.374-.136-.813C.112,9.492.472,8.908.855,8.3Z" transform="translate(0.46 4.36)" fill="#0069b4"/>
      </g>
      <g id="Group_64" data-name="Group 64" transform="translate(75.327 47.514)">
        <path id="Path_93" data-name="Path 93" d="M2.639.867a8.675,8.675,0,0,1,9.665.311C11.642,2.588,10.986,3.961,10.31,5.4A4.064,4.064,0,0,0,6.763,4.048a4.037,4.037,0,0,0-2.836,1.62,4.176,4.176,0,0,0,6.412,5.341c.647,1.376,1.289,2.734,1.936,4.124A8.181,8.181,0,0,1,9.75,16.407a8.781,8.781,0,0,1-2.792.374A8.645,8.645,0,0,1,2.7,15.513,8.492,8.492,0,0,1-.551,11.9a8.828,8.828,0,0,1-.784-2.821A8.679,8.679,0,0,1-.96,5.488,8.572,8.572,0,0,1,.723,2.516,9.813,9.813,0,0,1,2.639.873Z" transform="translate(1.387 0.456)" fill="#0069b4"/>
      </g>
      <g id="Group_65" data-name="Group 65" transform="translate(45.74 74.626)">
        <path id="Path_94" data-name="Path 94" d="M0,1.4V-.614H.546c.345,0,.528.2.549.6A1.5,1.5,0,0,1,2.47-.736,1.254,1.254,0,0,1,3.7.091,1.678,1.678,0,0,1,5.881-.55a1.615,1.615,0,0,1,.807,1.4c.044,1.071.015,2.151.015,3.251H5.55c0-.877.02-1.747-.015-2.618A2.007,2.007,0,0,0,5.277.6.586.586,0,0,0,4.325.486a1,1,0,0,0-.366.807c.015.935,0,1.863,0,2.813H2.807V3.74c-.02-.894-.029-1.785-.078-2.679A.7.7,0,0,0,1.985.315a.935.935,0,0,0-.76.885V4.1H0V1.394Z" transform="translate(0 0.736)" fill="#0069b4"/>
      </g>
      <g id="Group_66" data-name="Group 66" transform="translate(10.472 96.217)">
        <path id="Path_95" data-name="Path 95" d="M0,.835V-.317H.546c.345,0,.528.2.549.607A1.5,1.5,0,0,1,2.47-.439,1.257,1.257,0,0,1,3.7.388,1.671,1.671,0,0,1,5.881-.25a1.568,1.568,0,0,1,.8,1.373c.052,1.088.015,2.183.015,3.289H5.541c0-.877.009-1.747,0-2.618A1.287,1.287,0,0,0,5.219.786.585.585,0,0,0,4.5.684a.92.92,0,0,0-.54.813c-.015.85,0,1.707,0,2.554V4.42H2.815V4.051c-.023-.891-.029-1.785-.081-2.676C2.705.87,2.4.6,1.994.626a.946.946,0,0,0-.763.885v2.9H.006V.841Z" transform="translate(0 0.439)" fill="#0069b4"/>
      </g>
      <g id="Group_67" data-name="Group 67" transform="translate(18.16 96.232)">
        <path id="Path_96" data-name="Path 96" d="M4.349,1.014c.02.755.049,1.483.073,2.209.006.345,0,.7,0,1.074H3.2c0-.427.009-.865,0-1.3-.015-.618-.015-1.236-.078-1.849A.641.641,0,0,0,2.457.509a.8.8,0,0,0-.763.656,5.609,5.609,0,0,0-.078,1.059c-.015.691,0,1.382,0,2.093H.463V3.4c0-.6.015-1.2,0-1.8A2.279,2.279,0,0,0,.312.855.685.685,0,0,0-.846.805a1.689,1.689,0,0,0-.261.784c-.029.9-.015,1.794-.015,2.723H-2.286V-.39h1.007c.006.165.02.334.029.592A1.615,1.615,0,0,1,.123-.533,1.248,1.248,0,0,1,1.383.3,1.662,1.662,0,0,1,3.458-.39a1.516,1.516,0,0,1,.891,1.434Z" transform="translate(2.286 0.533)" fill="#0069b4"/>
      </g>
      <g id="Group_68" data-name="Group 68" transform="translate(18.162 74.646)">
        <path id="Path_97" data-name="Path 97" d="M.914,3.794c1.007.258,1.936-.116,1.843-1.556a1.692,1.692,0,0,1-1.8.525A1.747,1.747,0,0,1-.361,1.391,3.037,3.037,0,0,1,.078-1.265,1.833,1.833,0,0,1,2.771-1.5c.029.035.064.058.142.131v-.505H4.008a7.494,7.494,0,0,0-.073.784c-.006,1.239.015,2.47-.012,3.707a2.23,2.23,0,0,1-.592,1.614A2.6,2.6,0,0,1,1.1,4.853,7.7,7.7,0,0,1-.131,4.534c.11-.374.2-.682.3-1.007.258.093.491.18.755.267m1.605-2.31A6.756,6.756,0,0,0,2.69.706a5.433,5.433,0,0,0,0-.784.962.962,0,0,0-.676-.929A.978.978,0,0,0,1.03-.56,1.82,1.82,0,0,0,.768.856a1.163,1.163,0,0,0,.763.981.874.874,0,0,0,.987-.348Z" transform="translate(0.48 1.994)" fill="#0069b4"/>
      </g>
      <g id="Group_69" data-name="Group 69" transform="translate(29.669 85.427)">
        <path id="Path_98" data-name="Path 98" d="M1.245,4.511c-.534-.1-1.03-.194-1.556-.3.116-.418.194-.729.29-1.065.726.331,1.48.633,2.2.058.4-.316.4-.836.432-1.39a1.649,1.649,0,0,1-1.086.618A1.777,1.777,0,0,1-.34,1.481a3.089,3.089,0,0,1,.29-3.2A1.882,1.882,0,0,1,2.7-1.822c.029-.16.058-.287.087-.424h.978c0,1.5.029,3-.009,4.49A2.009,2.009,0,0,1,2.592,4.253a6.467,6.467,0,0,1-1.341.253M2.534.755V-.435a.987.987,0,0,0-.7-.949A.983.983,0,0,0,.807-.859,2.054,2.054,0,0,0,.72.848a.92.92,0,0,0,1.016.641,1,1,0,0,0,.8-.734Z" transform="translate(0.654 2.371)" fill="#0069b4"/>
      </g>
      <g id="Group_70" data-name="Group 70" transform="translate(42.717 85.443)">
        <path id="Path_99" data-name="Path 99" d="M0,1.481V-.649H.972c.035.16.078.34.113.491a3.559,3.559,0,0,1,.821-.505A1.9,1.9,0,0,1,4.461.97a3.262,3.262,0,0,1-.157,1.9,1.969,1.969,0,0,1-3.074.862V5.916H0V1.475m3.312.064a7.07,7.07,0,0,0-.29-.813A.794.794,0,0,0,2.116.25a1.049,1.049,0,0,0-.891,1.094v.9a1.016,1.016,0,0,0,.813.943.925.925,0,0,0,.978-.476,6.975,6.975,0,0,0,.3-1.167Z" transform="translate(0 0.778)" fill="#0069b4"/>
      </g>
      <g id="Group_71" data-name="Group 71" transform="translate(47.994 83.429)">
        <path id="Path_100" data-name="Path 100" d="M1.92,3.042c-.02-.3-.035-.575-.073-.842a.8.8,0,0,0-.827-.743A.922.922,0,0,0,.2,2.331c-.006.848,0,1.7,0,2.554V5.26H-1.009V-1.6H.178V1.063A1.884,1.884,0,0,1,1.345.45,1.461,1.461,0,0,1,2.991,1.582a2.287,2.287,0,0,1,.081.662c.006.993,0,1.985,0,3.016H1.92v-2.2Z" transform="translate(1.009 1.599)" fill="#0069b4"/>
      </g>
      <g id="Group_72" data-name="Group 72" transform="translate(24.549 85.486)">
        <path id="Path_101" data-name="Path 101" d="M2.8,2.534A2.311,2.311,0,0,1,.356,3.541a1.912,1.912,0,0,1-1.64-1.367A2.838,2.838,0,0,1-.953-.511,1.825,1.825,0,0,1,.522-1.324a3.44,3.44,0,0,1,1.26.116A2.052,2.052,0,0,1,3.143.6,2.808,2.808,0,0,1,2.8,2.539M1.427-.238A.925.925,0,0,0,.162-.108a2.169,2.169,0,0,0-.015,2.4.874.874,0,0,0,1.167.194A1.933,1.933,0,0,0,1.436-.244Z" transform="translate(1.473 1.332)" fill="#0069b4"/>
      </g>
      <g id="Group_73" data-name="Group 73" transform="translate(23.283 74.628)">
        <path id="Path_102" data-name="Path 102" d="M.378.5A2.43,2.43,0,0,1,3.739.329a2.2,2.2,0,0,1,.618,1.19c.194,1.187.067,2.424-1.274,2.978A2.234,2.234,0,0,1-.133,2.848,2.773,2.773,0,0,1,.372.5M2.142,3.8a1.136,1.136,0,0,0,.833-.627A2.212,2.212,0,0,0,3,1.3.843.843,0,0,0,2.3.726a.906.906,0,0,0-.943.409,2.037,2.037,0,0,0-.223,1.721,1.145,1.145,0,0,0,1.016.958Z" transform="translate(0.199 0.264)" fill="#0069b4"/>
      </g>
      <g id="Group_74" data-name="Group 74" transform="translate(40.63 74.657)">
        <path id="Path_103" data-name="Path 103" d="M0,1.663V-.763H1.065v.636A1.828,1.828,0,0,1,2.354-.862,1.438,1.438,0,0,1,4.081.447c.107,1.158.029,2.331.029,3.512H2.981c0-.093-.015-.194-.015-.3V1.109a.915.915,0,0,0-.6-.929.771.771,0,0,0-.908.4,1.576,1.576,0,0,0-.209.763c-.02.862-.006,1.727-.006,2.612H.02V1.683Z" transform="translate(0 0.874)" fill="#0069b4"/>
      </g>
      <g id="Group_75" data-name="Group 75" transform="translate(58.078 74.644)">
        <path id="Path_104" data-name="Path 104" d="M2.245,3.181H1.74c0-.734.009-1.445,0-2.159A7.139,7.139,0,0,0,1.67,0,.7.7,0,0,0,.985-.633a.839.839,0,0,0-.827.554A1.464,1.464,0,0,0,.027.491c-.015.885,0,1.771,0,2.67H-1.18V-1.556H-.123v.641a1.664,1.664,0,0,1,1.187-.74,1.658,1.658,0,0,1,1.274.293A1.808,1.808,0,0,1,2.971.073c.038,1.013.009,2.038.009,3.1H2.26Z" transform="translate(1.18 1.672)" fill="#0069b4"/>
      </g>
      <g id="Group_76" data-name="Group 76" transform="translate(19.751 85.416)">
        <path id="Path_105" data-name="Path 105" d="M1.575,0A1.556,1.556,0,0,1,3.006.758a1.985,1.985,0,0,1,.261.787c.029,1.1.015,2.194.015,3.309H2.08c0-.093-.015-.194-.015-.3V2c0-.583-.3-.949-.772-.949a.9.9,0,0,0-.885.978V4.761a.369.369,0,0,1-.029.087H-.828V.14H.165C.2.314.237.486.272.695A1.744,1.744,0,0,1,1.581,0Z" transform="translate(0.828 0.002)" fill="#0069b4"/>
      </g>
      <g id="Group_77" data-name="Group 77" transform="translate(37.877 85.458)">
        <path id="Path_106" data-name="Path 106" d="M.483.764C.391.749.289.749.274.715.2.482.129.253.06.009a2.848,2.848,0,0,1,1.46-.4,2.124,2.124,0,0,1,1.39.287A1.4,1.4,0,0,1,3.557.964c.058,1.138.02,2.29.02,3.448H2.585c-.006-.128-.015-.258-.02-.395a5.709,5.709,0,0,1-.792.409A1.454,1.454,0,0,1-.135,3.693,1.513,1.513,0,0,1,.629,1.67c.56-.206,1.164-.308,1.776-.467C2.434.648,1.888.41,1.334.477a4.7,4.7,0,0,0-.85.282M2.21,3.312A1.646,1.646,0,0,0,2.4,2.073c-.36.1-.691.16-1.01.267a.648.648,0,0,0-.43.676.515.515,0,0,0,.525.578,1.981,1.981,0,0,0,.72-.276Z" transform="translate(0.254 0.402)" fill="#0069b4"/>
      </g>
      <g id="Group_78" data-name="Group 78" transform="translate(65.957 74.633)">
        <path id="Path_107" data-name="Path 107" d="M2.209.325a1.848,1.848,0,0,1,.52,1.367c.026.67,0,1.338,0,2.014v.972H1.663c-.009-.122-.015-.244-.023-.4A2.464,2.464,0,0,1,.273,4.78,1.44,1.44,0,0,1-1.045,2.728,1.8,1.8,0,0,1,.38,1.677a9.037,9.037,0,0,1,1.1-.113.589.589,0,0,0-.334-.7C.554.548,0,.821-.592,1.088-.656.865-.743.635-.787.4A.3.3,0,0,1-.642.165a2.882,2.882,0,0,1,.72-.258A2.959,2.959,0,0,1,1.6-.05a2.945,2.945,0,0,1,.612.374M.084,2.986a1.573,1.573,0,0,0,.038.554.68.68,0,0,0,1.065.145c.462-.351.287-.827.316-1.324C.984,2.49.418,2.368.084,2.986Z" transform="translate(1.161 0.171)" fill="#0069b4"/>
      </g>
      <g id="Group_79" data-name="Group 79" transform="translate(14.927 85.435)">
        <path id="Path_108" data-name="Path 108" d="M1.44.646A2.123,2.123,0,0,0-.215.928C-.3.641-.38.365-.482.034a5.836,5.836,0,0,1,.964-.3,2.634,2.634,0,0,1,1.863.209,1.542,1.542,0,0,1,.714,1.332c.029.647,0,1.295.015,1.942.006.427.058.842.093,1.289H2.087c-.02-.136-.035-.258-.073-.476a1.755,1.755,0,0,1-1.582.563A1.362,1.362,0,0,1-.749,3.4,1.673,1.673,0,0,1,.85,1.5c.351-.052.705-.073,1.071-.116-.058-.3-.107-.6-.467-.74m.064,2.876c.549-.308.36-.819.4-1.358A7.808,7.808,0,0,0,.9,2.417.655.655,0,0,0,.54,3.4C.714,3.755,1.036,3.807,1.518,3.517Z" transform="translate(0.757 0.34)" fill="#0069b4"/>
      </g>
      <g id="Group_80" data-name="Group 80" transform="translate(42.559 96.231)">
        <path id="Path_109" data-name="Path 109" d="M2.331.246a1.721,1.721,0,0,1,.554,1.318c.015,1.042,0,2.078,0,3.143H1.733c0-.813.009-1.62,0-2.432a2.731,2.731,0,0,0-.1-.769A.755.755,0,0,0,.784.917.95.95,0,0,0,.006,1.8V4.707H-1.225V0h.987C-.2.168-.16.348-.116.513A1.755,1.755,0,0,1,2.325.252Z" transform="translate(1.225 0.129)" fill="#0069b4"/>
      </g>
      <g id="Group_81" data-name="Group 81" transform="translate(2.633 74.636)">
        <path id="Path_110" data-name="Path 110" d="M1.454.026A1.5,1.5,0,0,1,2.966.58,2.557,2.557,0,0,1,3.34,1.913c-.015.958,0,1.913,0,2.9H2.115v-.9c0-.67.023-1.347,0-2.014-.02-.563-.331-.938-.871-.879a.955.955,0,0,0-.778.758C.432,2.438.409,3.106.394,3.767c-.006.345,0,.694,0,1.054H-.764V.1H.243V.531c.4-.174.8-.345,1.225-.52Z" transform="translate(0.764 0.014)" fill="#0069b4"/>
      </g>
      <g id="Group_82" data-name="Group 82" transform="translate(10.314 85.473)">
        <path id="Path_111" data-name="Path 111" d="M1.892.042A1.959,1.959,0,0,1,3.2,1.87v.9H.179c.142,1.065.958,1.347,2.612.943a5.654,5.654,0,0,1,.165.7.307.307,0,0,1-.145.238A3.385,3.385,0,0,1,.049,4.561,2.08,2.08,0,0,1-.979,2.814,2.89,2.89,0,0,1-.4.66,1.683,1.683,0,0,1,.9-.022c.316,0,.633.035.978.064M2.043,1.56C1.814.976,1.581.805,1.079.84.618.869.374,1.151.194,1.9H2.043Z" transform="translate(0.994 0.022)" fill="#0069b4"/>
      </g>
      <g id="Group_83" data-name="Group 83" transform="translate(32.621 74.657)">
        <path id="Path_112" data-name="Path 112" d="M1.24,1.852H.564c-.122.418.3.871.662,1.016a2.61,2.61,0,0,0,1.683-.029c.209-.058.247-.009.276.171.026.218.07.427.113.676A3.517,3.517,0,0,1,.18,3.506a1.867,1.867,0,0,1-.8-1.416A3.1,3.1,0,0,1-.272.038a1.928,1.928,0,0,1,1.6-1,1.714,1.714,0,0,1,1.921.952,3.032,3.032,0,0,1,.273,1.863H1.246M1.376-.093A1.037,1.037,0,0,0,.549.972h1.82A.915.915,0,0,0,1.376-.093" transform="translate(0.652 0.973)" fill="#0069b4"/>
      </g>
      <g id="Group_84" data-name="Group 84" transform="translate(53.135 74.639)">
        <path id="Path_113" data-name="Path 113" d="M1.1,1.864H.6c.276,1.123.943,1.361,2.615.935a5.542,5.542,0,0,1,.165.691.338.338,0,0,1-.2.267,3.758,3.758,0,0,1-2.453,0,1.9,1.9,0,0,1-1.2-1.382A2.978,2.978,0,0,1-.013-.2,1.821,1.821,0,0,1,1.34-.966a2.116,2.116,0,0,1,1.454.311,1.934,1.934,0,0,1,.8,1.489,9.872,9.872,0,0,1,0,1.016H1.082M.678,1H2.533C2.507.862,2.483.778,2.469.682A.869.869,0,0,0,1.2.006,1.084,1.084,0,0,0,.678,1" transform="translate(0.579 0.98)" fill="#0069b4"/>
      </g>
      <g id="Group_85" data-name="Group 85" transform="translate(10.375 74.652)">
        <path id="Path_114" data-name="Path 114" d="M1.965,2.577c.209-.049.395-.073.583-.107a.982.982,0,0,0,.128-.052c.087.247.18.485.247.734.015.052-.073.165-.131.189A3.721,3.721,0,0,1,.267,3.4,1.929,1.929,0,0,1-.978,1.793,2.99,2.99,0,0,1-.589-.418a2,2,0,0,1,1.533-.92A1.728,1.728,0,0,1,2.7-.648,4.077,4.077,0,0,1,3.152.612a3.737,3.737,0,0,1,.015.85H.189A.958.958,0,0,0,.8,2.47a5.61,5.61,0,0,0,1.167.107M1.045.612H2a.953.953,0,0,0-.726-1.08C.662-.517.267-.151.159.612h.891Z" transform="translate(1.033 1.355)" fill="#0069b4"/>
      </g>
      <g id="Group_86" data-name="Group 86" transform="translate(27.97 74.761)">
        <path id="Path_115" data-name="Path 115" d="M2.293,2.005c-.194.52-.374,1.007-.554,1.5-.015.029-.02.093-.035.093-.354.029-.7.078-1.051.073-.1,0-.232-.151-.276-.258-.322-.9-.633-1.8-.949-2.7C-.773.127-.99-.45-1.205-1.054H.119C.293-.5.473.061.644.629s.331,1.138.482,1.663l.981-3.347H3.4C3.033-.024,2.667.975,2.287,2.005Z" transform="translate(1.205 1.054)" fill="#0069b4"/>
      </g>
      <g id="Group_87" data-name="Group 87" transform="translate(62.749 73.408)">
        <path id="Path_116" data-name="Path 116" d="M1.872.982v.763H.792V3.327c0,.232-.006.456,0,.685A.566.566,0,0,0,1.6,4.6c.058-.015.113-.015.186-.029V5.582A7.442,7.442,0,0,1,.461,5.568,1.048,1.048,0,0,1-.36,4.517C-.389,3.7-.409,2.874-.433,2.053V1.78c-.186-.006-.36-.02-.551-.029V.831h.546V-.22C-.02-.322.383-.414.8-.516V.822c.287,0,.56-.006.833,0,.078,0,.16.081.244.154Z" transform="translate(0.984 0.516)" fill="#0069b4"/>
      </g>
      <g id="Group_88" data-name="Group 88" transform="translate(54.958 85.479)">
        <path id="Path_117" data-name="Path 117" d="M.091,1.047a2.2,2.2,0,0,1,2.13-1.6,10.488,10.488,0,0,1,1.167.07A.232.232,0,0,1,3.6-.155c-.058.238-.122.467-.194.734C2.674.313,1.963.234,1.458.954a1.736,1.736,0,0,0-.02,1.814,1.605,1.605,0,0,0,2,.395c.058.273.131.534.165.807a.281.281,0,0,1-.171.215,2.984,2.984,0,0,1-2.665-.3A2.033,2.033,0,0,1,.056,2.7,2.922,2.922,0,0,1,.091,1.047Z" transform="translate(0.048 0.55)" fill="#0069b4"/>
      </g>
      <g id="Group_89" data-name="Group 89" transform="translate(7.254 73.41)">
        <path id="Path_118" data-name="Path 118" d="M.411.5V.022c.38-.093.749-.189,1.144-.287V1.059H2.62V2H1.569c0,.807-.029,1.582.009,2.36.02.476.389.633.993.467v.987A2.181,2.181,0,0,1,.986,5.729,1.151,1.151,0,0,1,.417,4.672C.4,3.807.411,2.945.405,2.08a.576.576,0,0,0-.044-.064H-.216V1.093H.417V.5Z" transform="translate(0.216 0.265)" fill="#0069b4"/>
      </g>
      <g id="Group_90" data-name="Group 90" transform="translate(6.44 85.435)">
        <path id="Path_119" data-name="Path 119" d="M.2.75A2.722,2.722,0,0,1,3.56-.178c-.073.316-.151.627-.209.885A8.921,8.921,0,0,0,2.222.649a1.411,1.411,0,0,0-1.065,1.8,1.332,1.332,0,0,0,1.8,1.016c.432-.116.438-.116.54.418.02.122.015.258.029.438A2.962,2.962,0,0,1,.861,4.17,2.166,2.166,0,0,1-.1,2.239,2.861,2.861,0,0,1,.2.75Z" transform="translate(0.105 0.394)" fill="#0069b4"/>
      </g>
    </g>
    <g id="Group_92" data-name="Group 92" transform="translate(70.808 37.741)">
      <path id="Path_121" data-name="Path 121" d="M0,0V6.867H1.2V0Z" fill="#0069b4"/>
    </g>
    <g id="Group_93" data-name="Group 93" transform="translate(0.345 38.101)">
      <path id="Path_122" data-name="Path 122" d="M0,0V6.507H1.2V0Z" fill="#0069b4"/>
    </g>
    <g id="Group_97" data-name="Group 97" transform="translate(0 -34.868)" clip-path="url(#clip-path)">
      <g id="Group_94" data-name="Group 94" transform="translate(15.322 74.653)">
        <path id="Path_123" data-name="Path 123" d="M.223.062H.835C.879.277.922.48.971.724A1.291,1.291,0,0,1,2.446.013V1.122a3.017,3.017,0,0,0-.627.055A1.076,1.076,0,0,0,1.088,2.3V4.8h-1.2V.091c.1,0,.209-.015.345-.015Z" transform="translate(0.117 0.033)" fill="#0069b4"/>
      </g>
      <g id="Group_95" data-name="Group 95" transform="translate(37.527 74.649)">
        <path id="Path_124" data-name="Path 124" d="M.156.064H.919C.925.288.94.482.948.77,1.4.23,1.81-.188,2.5.021V1.13a2.246,2.246,0,0,1-.308.015A1.023,1.023,0,0,0,1.149,2.189v2.6H-.082V.085C-.044.085.04.07.162.064Z" transform="translate(0.082 0.034)" fill="#0069b4"/>
      </g>
      <g id="Group_96" data-name="Group 96" transform="translate(35.082 85.447)">
        <path id="Path_125" data-name="Path 125" d="M.849,1.252a2.4,2.4,0,0,0-.064.409v2.5H-.446v-4.7h1c.009.194.023.4.029.685.432-.525.85-.967,1.556-.758V.518C1.554.474,1.043.591.843,1.258Z" transform="translate(0.446 0.658)" fill="#0069b4"/>
      </g>
    </g>
    <g id="Group_98" data-name="Group 98" transform="translate(53.082 50.698)">
      <path id="Path_127" data-name="Path 127" d="M0,0V4.7H1.2V0ZM0,3.506V3.5Z" fill="#0069b4"/>
    </g>
    <g id="Group_99" data-name="Group 99" transform="translate(35.326 61.494)">
      <path id="Path_128" data-name="Path 128" d="M0,0V4.708H1.2V0Z" fill="#0069b4"/>
    </g>
    <g id="Group_100" data-name="Group 100" transform="translate(25.804 61.494)">
      <path id="Path_129" data-name="Path 129" d="M0,0V4.7H1.2V0ZM0,2.641V2.633Z" fill="#0069b4"/>
    </g>
    <g id="Group_109" data-name="Group 109" transform="translate(0 -34.868)" clip-path="url(#clip-path)">
      <g id="Group_101" data-name="Group 101" transform="translate(35.236 94.398)">
        <path id="Path_130" data-name="Path 130" d="M.625,0a1.558,1.558,0,0,1,.395.546.638.638,0,0,1-.61.807A.633.633,0,0,1-.324.695.652.652,0,0,1,.381,0C.451,0,.523,0,.625,0" transform="translate(0.328 0.002)" fill="#0069b4"/>
      </g>
      <g id="Group_102" data-name="Group 102" transform="translate(53.002 83.583)">
        <path id="Path_131" data-name="Path 131" d="M.01.28A.693.693,0,0,1,.973-.065.649.649,0,0,1,1.29.82a.741.741,0,0,1-.705.418A.678.678,0,0,1,0,.634C0,.524,0,.417,0,.28Z" transform="translate(0.005 0.147)" fill="#0069b4"/>
      </g>
      <g id="Group_103" data-name="Group 103" transform="translate(25.707 94.391)">
        <path id="Path_132" data-name="Path 132" d="M.889.287C.953.626.938.914.6,1.094a.693.693,0,0,1-.813-.029A.6.6,0,0,1-.414.33.968.968,0,0,1,.12-.123.619.619,0,0,1,.883.287Z" transform="translate(0.467 0.151)" fill="#0069b4"/>
      </g>
      <g id="Group_104" data-name="Group 104" transform="translate(67.085 7.365)">
        <path id="Path_133" data-name="Path 133" d="M5.347,15.247A12.1,12.1,0,0,1,1.028,12.7a11.8,11.8,0,0,1-3.5-5.857A14.964,14.964,0,0,1-2.78,4.395,10.776,10.776,0,0,1-2.138-.1,11.528,11.528,0,0,1-.13-3.654,11.769,11.769,0,0,1,3.98-6.885,10.063,10.063,0,0,1,7.774-7.935,18.832,18.832,0,0,1,10.1-7.993a11.333,11.333,0,0,1,3.756.929,11.8,11.8,0,0,1,3.979,2.807A11.959,11.959,0,0,1,20.678.917a12.15,12.15,0,0,1,.337,3.945,11.342,11.342,0,0,1-.935,3.794A11.961,11.961,0,0,1,13.329,15.1a11.872,11.872,0,0,1-5.326.7,21.388,21.388,0,0,1-2.662-.551M9.277-.516h.972V.534c0,.194.035.282.264.334a4.34,4.34,0,0,1,1.283.444,3.493,3.493,0,0,0,2.316.633,3.343,3.343,0,0,1,.865.131,8.68,8.68,0,0,1,3.6,1.39c.705.473,1.358,1.027,2.107,1.605a32.5,32.5,0,0,0-.244-3.306,10.717,10.717,0,0,0-1.382-3.678A11.9,11.9,0,0,0,16.6-4.833a11.2,11.2,0,0,0-3.326-1.988,12.91,12.91,0,0,0-4.188-.8,9.282,9.282,0,0,0-1.44.131A10.087,10.087,0,0,0,4.456-6.6,10.464,10.464,0,0,0,.5-3.654,19.13,19.13,0,0,0-1-1.495a10.4,10.4,0,0,0-1.382,5,13.256,13.256,0,0,0,.273,2.778A10.747,10.747,0,0,0,.872,11.944,11.448,11.448,0,0,0,4.4,14.42,11.763,11.763,0,0,0,8.99,15.462a11.113,11.113,0,0,0,1.727-.136,10.073,10.073,0,0,0,3.088-.871,11.739,11.739,0,0,0,4.31-3.338A11.478,11.478,0,0,0,20.046,7.6a.424.424,0,0,0-.058-.36c-.345-.4-.705-.787-1.08-1.161A9.084,9.084,0,0,0,15.8,4.133a12.286,12.286,0,0,0-1.239-.351c-.02.044-.049.087-.073.136.194.157.369.389.592.462a7.836,7.836,0,0,1,3.936,2.6c.229.293.476.575.726.871A11.239,11.239,0,0,1,7.083,15.024,11.046,11.046,0,0,1-1.729,6.847c.569.064,1.147.107,1.707.209a5.252,5.252,0,0,0,2.708-.3.312.312,0,0,0,.25-.316,8.423,8.423,0,0,1,.2-1.1A6.111,6.111,0,0,1,7.736.868C8,.81,8.047.723,8.038.5c-.006-.331,0-.662,0-1.016H9.3m1.9,2.023c-.409-.1-.821-.186-1.216-.3-.073-.02-.151-.171-.16-.267C9.8.586,9.817.227,9.817-.128H8.45c0,.369.015.72-.009,1.059a.363.363,0,0,1-.215.273,5.38,5.38,0,0,0-2.772,1.26A5.672,5.672,0,0,0,3.411,7.756a5.641,5.641,0,0,0,1.353,2.958,5.783,5.783,0,0,0,3.7,1.965v.459H9.823v-.459a6.585,6.585,0,0,0,2.27-.8A5.691,5.691,0,0,0,14.4,9.294a5.479,5.479,0,0,0,.467-3.088,6.009,6.009,0,0,0-1.434-3.143A6.5,6.5,0,0,0,11.207,1.5M.541,10.592c.107.113.221.215.322.337a9.812,9.812,0,0,0,3.074,2.519,10.2,10.2,0,0,0,5.779,1.289,13.1,13.1,0,0,0,1.785-.223,10.594,10.594,0,0,0,5.312-2.923,11.208,11.208,0,0,0,1.26-1.489c.4-.589.729-1.239,1.109-1.907H17.317c-.218.418-.4.827-.618,1.222a9.079,9.079,0,0,1-4.421,4.139,7.713,7.713,0,0,1-5,.441,8.381,8.381,0,0,1-4.319-2.621A10.409,10.409,0,0,1,1.028,8.3.285.285,0,0,0,.8,8.13C.25,8.116-.3,8.121-.858,8.121a.954.954,0,0,1-.093.1C-.455,9,.041,9.77.546,10.6M17.381,7.445A4.841,4.841,0,0,0,15.3,6.055c-.041.47,0,.816.491,1.051a6.3,6.3,0,0,1,1.1.871c.11-.4.47-.107.665-.25a3.276,3.276,0,0,0-.18-.282m-2.31,1.361c-.194.264-.136.467.107.691a5.106,5.106,0,0,1,.531.668c.432-.54.427-.691-.029-1.187-.151-.165-.3-.331-.482-.54a3.408,3.408,0,0,0-.122.369m-.9,3.059c.331-.418-.078-.67-.2-.987-.209.2-.412.395-.583.569.122.25.238.5.351.749.131-.1.267-.194.432-.331M3.635,9.877c-.064-.131-.131-.267-.189-.38-.389.113-.749.215-1.144.331.136.194.258.366.383.54.322-.107.618-.2.911-.311.038-.015.052-.087.038-.18M2.662,8.13c-.374.078-.74.165-1.222.264.171.16.308.369.415.354a12.016,12.016,0,0,0,1.239-.267c-.029-.171-.058-.311-.078-.453-.116.035-.2.058-.354.093m3.161,4.1c-.282.064-.563.136-.908.215.607.5.865.491,1.353.015-.136-.07-.264-.151-.453-.229M3.626,11.181a1.849,1.849,0,0,0-.093.18c.145.093.311.253.447.238a2.72,2.72,0,0,0,.682-.282c-.122-.165-.221-.311-.337-.453-.229.1-.438.194-.7.316" transform="translate(2.811 8.014)" fill="#0069b4"/>
      </g>
      <g id="Group_105" data-name="Group 105" transform="translate(36.662 15.375)">
        <path id="Path_134" data-name="Path 134" d="M0,3.864v-5.4a.936.936,0,0,1,.029-.351A.271.271,0,0,1,.24-2.031a.315.315,0,0,1,.209.145.562.562,0,0,1,.02.244v9A.508.508,0,0,1,.361,7.7C.2,7.838.016,7.672.016,7.385V3.858Z" transform="translate(0.001 2.031)" fill="#0069b4"/>
      </g>
      <g id="Group_106" data-name="Group 106" transform="translate(77.834 12.129)">
        <path id="Path_135" data-name="Path 135" d="M.009,1.047C.009.911.009.8,0,.693A1.123,1.123,0,0,1,.944-.523a1.3,1.3,0,0,1,1.2.427,1.283,1.283,0,0,1-.055,1.591A1.213,1.213,0,0,1,.155,1.32a2.363,2.363,0,0,1-.139-.273m.714.244a.731.731,0,0,0,.987-.049A.843.843,0,0,0,1.858.269.833.833,0,0,0,.909-.047.777.777,0,0,0,.735,1.291Z" transform="translate(0.005 0.55)" fill="#0069b4"/>
      </g>
      <g id="Group_107" data-name="Group 107" transform="translate(79.712 16.916)">
        <path id="Path_136" data-name="Path 136" d="M0,2.618V-1.376A4.824,4.824,0,0,1,4.116,2.473,4.891,4.891,0,0,1,3.094,6.62a4.949,4.949,0,0,1-2.7,1.663c-.3.078-.395,0-.395-.345V2.612m.792.906c-.438.1-.383.424-.34.763a8.356,8.356,0,0,1,3.384-.807c-.038-.253-.067-.476-.1-.7a7.139,7.139,0,0,0-2.943.74m.6,1.541c-.2.049-.4.107-.612.151C.525,5.274.366,5.4.432,5.7a1.567,1.567,0,0,1,0,.261c.459-.11.906-.247,1.358-.311.47-.064.952-.058,1.492-.093.078-.18.194-.432.351-.792-.792.093-1.489.171-2.244.287M1.683,1.1c-.293.107-.6.2-.877.322-.412.189-.4.194-.34.67a6.092,6.092,0,0,1,2.749-.784c-.142-.261-.194-.592-.639-.427-.267.1-.569.125-.9.218M1.5,7.015c-.218.049-.432.093-.647.145-.462.113-.462.113-.374.72.531-.267,1.036-.511,1.538-.763-.015-.038-.029-.073-.044-.1H1.5M.447-.363C.676-.433.9-.5,1.129-.572a.192.192,0,0,1,.009-.07C.914-.714.7-.787.432-.874.432-.679.432-.549.447-.363Z" transform="translate(0 1.376)" fill="#0069b4"/>
      </g>
      <g id="Group_108" data-name="Group 108" transform="translate(74.093 16.887)">
        <path id="Path_137" data-name="Path 137" d="M2.787,4.76V7.242a4.85,4.85,0,0,1-4.241-4.5A4.9,4.9,0,0,1,2.787-2.5V4.76M2.355-1.846c-.035-.276-.2-.073-.267-.052A4.525,4.525,0,0,0-.429.139,11,11,0,0,0-1.05,1.672,1.356,1.356,0,0,0-.8,1.585C.21.975,1.217.363,2.212-.255a.419.419,0,0,0,.136-.276c.015-.415,0-.833,0-1.315M.2,2.853c-.351.171-.705.345-1.1.54.035.136.073.282.122.5C.2,3.379,1.109,2.859,2.053,2.4c.34-.165.316-.374.282-.656-.705.36-1.4.72-2.139,1.1m2.145.8C1.449,4.035.564,4.415-.336,4.8c.136.18.244.316.36.467.647-.3,1.274-.6,1.921-.871a.579.579,0,0,0,.395-.755m.015,1.863c0-.1-.015-.2-.02-.331-.569.258-1.1.5-1.657.749.145.084.253.151.36.223.276.18,1.245-.247,1.318-.641" transform="translate(1.465 2.502)" fill="#0069b4"/>
      </g>
    </g>
    <g id="Group_151" data-name="Group 151" transform="translate(141.127 -34.868)" clip-path="url(#clip-path-4)">
      <g id="Group_110" data-name="Group 110" transform="translate(74.595 0.833)">
        <path id="Path_139" data-name="Path 139" d="M9.041,22.383c4.545,0,9.279.145,12.762,1.89a11.348,11.348,0,0,1,5.93,10.321A12.218,12.218,0,0,1,22.027,44.9c-3.352,2.258-7.486,2.247-11.48,2.241l-9.314,0V22.383H9.041M7.131-6.03c3.573,0,7.271,0,10.185,1.837C20.294-2.32,22,1.128,22,5.267c0,4.394-1.228,7.073-4.241,9.245s-5.915,2.157-9.6,2.139l-1.033,0h-5.9V-6.03h5.9M-3.754-11.765h-1V52.874H12.283c5.822,0,10.649-.8,15.267-4.725a17.446,17.446,0,0,0,6.168-13.72A16.681,16.681,0,0,0,22.123,18.3c3.936-2.914,5.863-7.007,5.863-12.446,0-5.883-1.878-10.5-5.579-13.717-4.049-3.6-8.946-3.9-13.616-3.9Z" transform="translate(4.752 11.765)" fill="#0069b4"/>
      </g>
      <g id="Group_111" data-name="Group 111" transform="translate(121.534 0.832)">
        <path id="Path_140" data-name="Path 140" d="M3.269,0H-1.718V64.639H4.267V0Z" transform="translate(1.718)" fill="#0069b4"/>
      </g>
      <g id="Group_112" data-name="Group 112" transform="translate(135.569 0.001)">
        <path id="Path_141" data-name="Path 141" d="M2.563,11.056c0,5.143,2.339,9.2,6.954,12.063.058.035,11.358,6.017,11.358,6.017.026.015,1.161.566,1.161.566,5.126,2.487,10.937,5.309,10.937,11.262,0,7.477-6.621,13.793-14.455,13.793-8.205,0-12.249-5.805-14.193-10.673l-.389-.969L-1.347,45.5l.316.868C2.11,55.081,9.537,60.492,18.35,60.492c11.169,0,20.608-8.792,20.608-19.194,0-5.8-2.421-10.028-7.613-13.305l-.032-.023-12-6.249c-.032-.017-.514-.247-.514-.247C13.993,19.2,8.548,16.614,8.548,10.89A10.768,10.768,0,0,1,19.348-.076c5.05,0,8.931,2.267,11.868,6.928l.6.958L36.16,4.238l-.4-.729A18.624,18.624,0,0,0,19.6-5.811c-9.872,0-17.035,7.094-17.035,16.867" transform="translate(1.347 5.811)" fill="#0069b4"/>
      </g>
      <g id="Group_113" data-name="Group 113" transform="translate(47.447 21.905)">
        <path id="Path_142" data-name="Path 142" d="M.253,0,.416.113.6.2.816.253l.412.02.3.046L1.9.438l.154.075L2.227.6,2.3.639l.171.1.177.116L2.63.882,2.505.848,2.444.816,2.331.758,2.259.723l-.241-.1L1.635.52,1.15.479V.488l.113.081L1.55.682l.467.171L2.143.9l.189.084.139.061.232.125.122.07.1.061.16.131.064.058.012.07-.006.006L2.915,1.5,2.8,1.448l-.148-.067-.218-.1-.055-.029-.232-.1L2.1,1.135l-.2-.084L1.742.993,1.475.914,1.225.891l-.038.02L1.205.99l.052.064.25.264.464.421.16.125.229.189.093.064.154.119.046.029.171.119-.006.009-.151-.015-.25-.064-.084-.035-.247-.128-.154-.1-.34-.282-.511-.5-.131-.1L.8,1.1.709,1.1l.02.075.035.067.163.311.189.3.221.3.168.174.189.177.229.16L1.881,2.7l-.049.006-.113-.026-.1-.046-.113-.081L1.234,2.3.828,1.826.706,1.663.651,1.6.456,1.242.329,1.071.117.821-.133.583-.127.572-.055.525.076.392.175.2.2.136Z" transform="translate(0.133)" fill-rule="evenodd"/>
      </g>
      <g id="Group_114" data-name="Group 114" transform="translate(45.627 20.744)">
        <path id="Path_143" data-name="Path 143" d="M1.086,1.075l.006-.009L1.086,1.06,1.005,1,.837.883.787.86.517.712.451.674.172.558.137.541-.083.451-.133.428l-.2-.1L-.446.265-.562.184-.571.1-.548.01l.1-.267.171-.209.1-.073.035-.026.023.012L0-.478.221-.31.3-.254l.3.232L.668.018.863.158.991.245,1.2.39l.238.122L1.42.674l-.1.2-.145.151L1.1,1.078Z" transform="translate(0.571 0.565)" fill-rule="evenodd"/>
      </g>
      <g id="Group_115" data-name="Group 115" transform="translate(44.839 20.214)">
        <path id="Path_144" data-name="Path 144" d="M.382.778.214.74-.021.671-.2.613-.175.4-.088.16.04-.067.2-.258l.119-.11L.382-.409l.145.073.25.247.041.044L.841.006.786.055.647.2.536.369.455.555.42.645Z" transform="translate(0.201 0.409)" fill-rule="evenodd"/>
      </g>
      <g id="Group_116" data-name="Group 116" transform="translate(44.037 19.569)">
        <path id="Path_145" data-name="Path 145" d="M.386,1.05.221,1.012-.017.969-.2.943l0-.006L-.183.83-.142.644l.1-.3L.116.052.308-.21.505-.4.676-.517l.1-.035L.868-.54l.061.1.11.244.055.128L.92.06.769.217.636.426.549.6.482.783Z" transform="translate(0.203 0.552)" fill-rule="evenodd"/>
      </g>
      <g id="Group_117" data-name="Group 117" transform="translate(43.168 18.801)">
        <path id="Path_146" data-name="Path 146" d="M1.208.36,1.188.336,1.138.345,1.019.377l-.183.1L.662.618l-.2.238L.4.955.3,1.146.25,1.23l-.081.177L.14,1.474l-.07.194L0,1.924l-.017.122-.151,0L-.467,2-.635,1.95l.012-.087.044-.247.1-.374L-.4,1.03-.356.94-.3.833-.266.772-.13.557-.1.511.021.36l.2-.2L.436.005l.174-.1L.79-.166.86-.189H.932l.078.136L1.144.22Z" transform="translate(0.635 0.189)" fill-rule="evenodd"/>
      </g>
      <g id="Group_118" data-name="Group 118" transform="translate(38.347 13.945)">
        <path id="Path_147" data-name="Path 147" d="M.137,3.274l.145-.25L.448,2.81.5,2.734l.165-.168L.7,2.528l.221-.183.232-.151.241-.122.145-.049.16-.052.1-.02L1.806,1.9l.038-.131L1.876,1.7l.107-.177.041-.061.189-.2.122-.1.055-.041-.044-.067L2.328.973,2.305.894,2.279.616,2.3.061l.1-.581.1-.3.052-.128.023-.044.1-.192L2.7-1.242l.067-.107.255-.282.073-.07.032,0,.044-.017.052,0-.015.093-.09.16-.157.331-.052.119-.125.427-.052.554.02.261L2.81.482l.113.3.02.052s.041.041.041.035L3,.769l.055-.2L3.141.346,3.167.3,3.3.064,3.341,0l.174-.186.264-.18.148-.061L4.1-.473l.177-.035.412,0,.459.073L5.629-.3l.5.2.514.253.235.131.1.055.075.044.061.032.107.07.049.026.221.148.035.017.192.131.2.142.363.3.221.206.279.313L9,2.087l.1.215.015.046L9.106,2.4l-.055-.02L9.007,2.34,8.888,2.2,8.47,1.777l-.136-.113-.369-.3-.157-.1-.331-.226L7.341.952,7.12.825l-.2-.107L6.7.6,6.6.555,6.479.491,6.163.357l-.282-.1L5.687.189l-.421-.1L4.955.047l-.3-.006L4.273.1,4.1.186,3.931.311,3.823.43l-.084.16L3.722.618,3.672.781l-.035.282,0,.163.116.015.171.041.4.136.136.061.09.035.052.029.241.119.56.36.415.4.247.366.038.064.017.067-.1.038-.061.017-.165.087-.3.2-.223.226-.151.2-.041.067-.078.125-.067.131-.044.09-.029.049-.1.264L4.6,4.885l-.058.235-.032.128-.16-.041-.3-.1L3.9,5.045l-.154-.078-.189-.1-.1-.055-.2-.145L3.164,4.6l-.2-.171-.218-.218-.36-.453L2.07,3.245l-.075-.128-.038-.044-.075.015-.07.041-.221.2-.055.081-.075.142-.044.1-.081.342L1.33,4.31l.038.3.078.3.116.276.2.34L2,5.855l.328.36a5.926,5.926,0,0,1,.412.444,2.94,2.94,0,0,0,.592.493c.2.145.415.308.615.459a4.676,4.676,0,0,1,.644.6c-.125.093-.151.107-.267.044-.2-.113-1.672-1.2-2.148-1.6l-.119-.1-.467-.476-.383-.5-.3-.511L.8,4.8.729,4.522.7,4.229l.009-.311.061-.261.119-.27.16-.253.177-.206.215-.194s.148-.11.136-.125l-.116.041-.247.107-.293.18-.279.238-.067.081-.229.328-.1.194-.07.165L.05,4.206l-.093-.058-.029-.1.009-.2.044-.206L.03,3.5.1,3.353Z" transform="translate(0.072 1.721)" fill-rule="evenodd"/>
      </g>
      <g id="Group_119" data-name="Group 119" transform="translate(8.02 24.672)">
        <path id="Path_148" data-name="Path 148" d="M3.09.116V.1H3.058V.084H2.933V.07H2.866L2.692.023,2.463.084,1.836.09.849.133.443.157h-.1L.115.174H.01L-.245.186l-.148,0L-.7.2l-.3,0-.432.029-.2.07L-1.5.383l.549.009L-.774.4l.125.006.1,0,.418.038L.03.459.3.49.985.6,1.319.67,1.964,1l.232.122.081.035v.032h.012V1.2h.035v.015h.012v.017H2.37v.015H2.4v.017h.017V1.28h.041l.058.3.012.151.035.261.006.128.058.549.046.206L2.741,3l.041.194L2.8,3.46l.032.287L2.852,4l.015.183.058.444.041.235.046.07.229.284.131.189.055.119.128.241.221.522.255.493.183.247.145.154.319.424.34.5.273.337.459.293.1.046.348.183.456.279.462.177.2.058.253.084.174.058v.015h.029v.017h.064v.015H7.9v.017h.078V9.7h.078v.015h.029v.017h.049v.015l.171.052.276.073.07.006.543.116.284.046.348.046.505.052.136.006.459.032h.157l.223.006h.311l.421-.006.226-.009.165-.012.464-.012.044.168V10.7l-.122.63-.029.549V12l.02.241.061.363.131.522.02.142.125.528.154.682.009.247v.47l-.015.61-.015.325v.125l-.006.258.006.36.078.273.035.151v.044l.151.189.136-.029L14,17.282l.209-.18.171-.218.015-.075.052-.049.038-.122.046-.052.081-.177.055-.107.012-.067.1-.279.026-.1.061-.1.017-.058.058-.07.009-.052.032-.041.046-.116.046-.073.038-.1.061-.073.046-.131.044-.084L15.26,14.8l-.038-.357V14.1l.044-.311L15.26,13.7l.026-.061,0-.087.023-.073V13.32l.017-.3.006-.046-.006-.2.006-.168v-.168l-.012-.046.012-.078-.023-.046-.006-.078L15.2,12l-.122-.154-.215-.508-.064-.325-.134-.833-.009-.157-.029-.3h.119l.287-.081.659-.183.76-.235.282-.067.052-.046.134-.017.151-.067.342-.1.125-.02.685-.116.287-.041.372-.09.09-.012.316-.075.81-.293.345-.1.34-.136.29-.1.351-.11.621-.194.322-.09.226-.052L23.7,7.221l.392-.084.357-.026h.165l.084-.052.27-.131.134-.067-.006-.023H25.2V6.8h.168V6.766l.145-.078.064-.017.151-.134.174-.284.218-.1L26.368,6l.192-.209.058-.163-.009-.148-.154-.244-.061-.067-.1-.032-.1-.012-.2-.02v-.18l.012-.012-.122-.235-.316-.261-.409-.168-.836-.171-.4-.142-.223-.11-.3-.052-.488-.1-.459-.125-.2-.119-.308-.163-.659-.319-.07-.032-.2-.116-.1-.073-.1-.026-.38-.087V2.63L20.4,2.6l-.119.026-.119.006-.189.032-.171.038-.659.2-.34.046-.119,0-.592.134-.432.113-.157.02-.293.023-.427-.052-.189-.006h-.3l-.369.012-.253.015h-.107l-.331.006-.11-.006-.369-.038-.1,0h-.563l-.287.009-.186.006-.406.035-.177.012-.163.017-.578.061-.7.058-.18.012-.279.009h-.1l-.282-.009L10.52,3.37l-.183-.015L9.925,3.3l-.163-.017-.505-.078L9.11,3.193l-.4-.064-.084-.006-.3-.044-.1,0-.3-.032H7.847L7.6,3.03H7.493l-.128-.023V2.992H7.351V2.978H7.319V2.961H7.287V2.946H7.272V2.929H7.24V2.914H7.226V2.9H7.194V2.882H7.176V2.868H7.147V2.85H7.13V2.836H7.116V2.821H7.084V2.8H7.052V2.789l-.046-.017V2.757H6.976V2.743H6.959V2.725H6.927V2.711H6.895V2.7H6.866V2.679H6.834V2.664H6.8V2.647H6.77V2.63H6.741V2.618H6.709V2.6H6.692V2.586H6.66V2.569H6.642L6.535,2.49l-.218-.168-.372-.261-.406-.226-.313-.113v0l.032.093.032.3v.319H5.235V2.426H5.188V2.412H5.174V2.4H5.142V2.38l-.131-.07L4.776,2.18l-.27-.139L4.1,1.768l-.2-.183-.125-.139L3.685,1.28H3.7V1.265h.029V1.248h.015V1.234l.07-.044.235-.125L4.193,1,4.7.766,5.69.409,5.972.325,6.1.3,6.491.107,6.454.023l-.2-.044-.43-.041H5.58l-.151,0-.607.049-.56.058-.145,0L3.83.09H3.757L3.551.1l-.16.009Z" transform="translate(1.624 0.061)" fill-rule="evenodd"/>
      </g>
      <g id="Group_120" data-name="Group 120" transform="translate(32.195 42.656)">
        <path id="Path_149" data-name="Path 149" d="M0,3.79.049,4,.1,4.06l.061.128.1.087L.5,4.5l.267.186.151.119.067.012.041.041.676.308.345.093,1.727.525.331.058.279.07.456.064.337.18-.009.017-.116.212-.041.174L4.9,6.814l-.009.163-.061.206-.02.209-.075.34.012.107-.023.174L4.386,9.281l-.07.125-.131.354L4.142,9.8l-.067.186-.209.421-.049.157-.125.238-.058.168-.122.174-.148.311-.073.1-.032.119-.145.238-.049.151-.058.078,0,.044-.1.218-.02.084-.11.2-.02.212.055.209.131.1.459-.1.36-.212.16-.151.247-.163.168-.168.27-.209.073-.1.215-.192.5-.456L5.738,11,5.8,10.95l.258-.279.093-.128.081-.081.221-.418.093-.119L6.6,9.792l.128-.2.035-.1.061-.07.032-.128.087-.136.081-.215.136-.25.151-.421.116-.165.061-.142.09-.087L7.8,7.6l.29-.212.174-.02.142.061.229.218.061.02.116.125.078.055.044.058.322.238.064.075.253.18.067.093.139.1.215.261.134.119.07.128.16.209.058.11.261.354.073.163.1.125.041.122.1.134.055.194.084.163.017.087.186.369.055.174.078.11.026.087.038.015.116.16.073.052.116,0,.081,0,.2-.2.009-.073.139-.366.058-.537.009-.38.029-.731-.029-.1-.061-.581-.029-.221-.081-.154V8.321l-.136-.34-.064-.264-.131-.284-.02-.1-.087-.116-.078-.163-.223-.313-.07-.163-.183-.232-.055-.1L11.021,6.2l-.064-.093-.107-.163-.131-.131.122-.093.171-.052.447-.209.128-.032.16-.087.073-.006.255-.073.467-.165.255-.061.293-.174.131-.058.078,0,.284-.139.961-.279.209-.049.148-.015.192-.052.221-.026.395-.16.163-.107.1-.157v-.2l-.061-.041-.035-.058L15.8,3.5l-.334-.189-.328-.078-.241-.081-.264-.029-.4-.058-.11.02-.3-.015-.63.012H13l-.342.044-.192.012-.322.07-.119,0-.618.09-.223.023-.316.084-.267.029-.374.061-.171-.026-.122-.075L9.88,3.253l-.049-.226.017-.2.119-.386.07-.319.093-.363.009-.107.128-.473-.006-.064.168-.467.1-.444L10.641,0l.02-.093.218-.447.27-.351.189-.342.128-.4-.009-.218-.11-.134-.2,0-.218.046-.969.372-.128.029-.223.113-.044,0-.023.049-.081.026-.2.119-.119.122L8.49-.581,8.3-.355,8-.044,7.75.307l-.035.02L7.52.62l-.16.374-.145.383-.02.258-.078.34.015.041-.1.8-.055.255-.1.2-.055.012-.061.064-.25.012-.223-.081L5.733,3.14l-.621-.058-.549.035-.293.041-.186.029-.348.052-.351.044-.395.1-.165.015-.459.084-.322.017-.226-.015-.023-.026L1.7,3.465l-.345-.038-.038.015-.07-.032L.984,3.372l-.073.009L.758,3.334l-.139.015L.569,3.32.418,3.314.157,3.4l-.134.186Z" transform="translate(0 1.992)" fill-rule="evenodd"/>
      </g>
      <g id="Group_121" data-name="Group 121" transform="translate(0.001 0.046)">
        <path id="Path_150" data-name="Path 150" d="M28.123,25.836c.136-1.948.209-3.971.209-6.055,0-1.344-.032-2.67-.093-3.968,9.6.72,16.24,2.421,17.938,4.151q-.013.9-.087,1.794c-1.829,1.707-8.455,3.376-17.967,4.078m13.238,9.178c-1.425-1.048-6.447-2.142-12.963-2.734a1.842,1.842,0,0,0-.084.682c7.111.644,11.764,1.861,12.661,2.6-.218.3-.438.592-.665.882-1.515.668-5.059,1.361-10.214,1.8.09.226.189.453.284.665a46.371,46.371,0,0,0,9.1-1.463,27.681,27.681,0,0,1-17.415,9.323,17.452,17.452,0,0,0,2.9-5.117c-.212.209-.447.45-.729.691-.2.165-.537.467-.92.8a11.438,11.438,0,0,1-2.667,3.762c-.694.052-1.4.09-2.1.09q-1.293,0-2.557-.119c-1.576-1.364-3-4.043-4.122-7.616,2.142.09,4.336.136,6.484.136.94,0,1.933-.012,2.949-.032.032-.2.064-.438.1-.691-.987.017-2,.029-3.045.029-2.377,0-4.618-.049-6.7-.136a52.869,52.869,0,0,1-1.318-5.753c2.485-.183,5.225-.293,8.171-.293,1.919,0,3.741.052,5.468.136.084-.223.174-.453.264-.676-1.852-.1-3.773-.151-5.733-.151-2.818,0-5.631.11-8.284.308-.174-1.062-.319-2.168-.447-3.3a3.071,3.071,0,0,1-.862.6q.165,1.419.383,2.766c-6.406.528-11.723,1.547-13.651,2.676A27.186,27.186,0,0,1-8.878,22.963C-6,24.626.146,25.819,7.28,26.423c.044-.238.078-.464.1-.679-8.261-.7-14.17-2.133-16.359-3.651-.075-.813-.119-1.637-.122-2.47,1.181-.871,3.59-1.715,6.963-2.418-.116-.209-.241-.418-.357-.633a21.827,21.827,0,0,0-6.589,2.235A27.177,27.177,0,0,1-4.124,3.867C-1.993,4.958,3.4,5.69,9.544,6.044a71.08,71.08,0,0,0-.952,7.634q.453-.035.906-.061a70.842,70.842,0,0,1,.943-7.523c2.586.134,5.283.2,7.909.2,1.338,0,2.778-.02,4.249-.064a5.068,5.068,0,0,1,.044-.685c-1.37.035-2.8.058-4.293.058-2.8,0-5.4-.073-7.782-.192A47.13,47.13,0,0,1,12.064-.4c2.011-.113,4.162-.18,6.441-.18,2.159,0,4.206.061,6.121.163.171.52.334,1.065.5,1.623a3.79,3.79,0,0,1,.641-.879c-.073-.229-.139-.464-.215-.688A61.59,61.59,0,0,1,39.632,1.83c.366.432.723.868,1.062,1.318C39.5,3.85,35.966,4.61,30.6,5.1c.11.221.229.447.342.659,4.571-.415,8.519-1.091,10.124-2.1a27.171,27.171,0,0,1,5.106,15.407C43.489,17.108,36.4,15.741,28.2,15.129c-.078-1.425-.2-2.81-.345-4.159a1.29,1.29,0,0,1-.575-.142c-.122-.078-.244-.18-.372-.279.168,1.46.3,2.966.389,4.513-2.165-.145-4.4-.221-6.641-.261.131.073.273.151.444.25a1.563,1.563,0,0,1,.421.444c2.029.046,3.976.131,5.814.255.064,1.321.1,2.667.1,4.032,0,2.1-.081,4.142-.229,6.119-2.763.183-5.75.287-8.922.287-2.615,0-5.1-.075-7.436-.2-.041.223-.081.447-.122.665,2.482.139,5.018.226,7.558.226,2.981,0,5.982-.1,8.867-.29-.067.81-.154,1.6-.244,2.383.293-.168.6-.334.926-.52.017-.012.029-.012.046-.023.067-.63.136-1.254.189-1.9C36.163,25.926,43.19,24.6,46,22.687a27.216,27.216,0,0,1-4.641,12.327M-2.2,37.661a71.439,71.439,0,0,0,13.082,1.562,21.069,21.069,0,0,0,3.7,7.494A27.657,27.657,0,0,1-2.2,37.661M-3.99,35.418c1.443-.787,6.3-1.945,13.4-2.528a52.659,52.659,0,0,0,1.266,5.634C4.1,38.2-.742,37.478-3.03,36.683c-.331-.412-.653-.833-.961-1.266M-2.438,1.711A65.989,65.989,0,0,1,11.138-.344,48.6,48.6,0,0,0,9.675,5.368C2.886,4.979-1.912,4.163-3.706,3.3c.4-.546.824-1.077,1.268-1.593M15.007-7.665a18.547,18.547,0,0,0-3.631,6.621A72.872,72.872,0,0,0-1.578.759,27.673,27.673,0,0,1,15.007-7.665m1.469-.145c.685-.052,1.373-.087,2.07-.087.546,0,1.086.02,1.625.052,1.585,1.051,3.033,3.428,4.214,6.728-1.9-.1-3.869-.157-5.881-.157-2.093,0-4.18.064-6.2.174,1.167-3.277,2.6-5.643,4.171-6.711M38.746.846A70.437,70.437,0,0,0,25.311-1.061,18.317,18.317,0,0,0,21.63-7.72,27.643,27.643,0,0,1,38.746.846M18.545-13.58A33.267,33.267,0,0,0-14.782,19.552a33.326,33.326,0,0,0,66.651,0A33.266,33.266,0,0,0,18.545-13.58" transform="translate(14.782 13.58)" fill="#0069b4"/>
      </g>
      <g id="Group_122" data-name="Group 122" transform="translate(3.321 72.592)">
        <path id="Path_151" data-name="Path 151" d="M1.043,3.537a3.785,3.785,0,0,0,1.164,2.85A3.742,3.742,0,0,0,4.88,7.5,3.768,3.768,0,0,0,7.657,6.367a3.859,3.859,0,0,0,1.129-2.8A3.819,3.819,0,0,0,7.669.762,3.677,3.677,0,0,0,4.92-.376,3.717,3.717,0,0,0,2.166.762,3.771,3.771,0,0,0,1.043,3.537m-1.591-.02A5.124,5.124,0,0,1,1.069-.274,5.325,5.325,0,0,1,4.941-1.859a5.236,5.236,0,0,1,3.831,1.6,5.221,5.221,0,0,1,1.605,3.84A5.131,5.131,0,0,1,8.766,7.4,5.387,5.387,0,0,1,4.859,8.979a5.388,5.388,0,0,1-3.634-1.4A5.136,5.136,0,0,1-.548,3.516" transform="translate(0.548 1.859)"/>
      </g>
      <g id="Group_123" data-name="Group 123" transform="translate(16.498 72.584)">
        <path id="Path_152" data-name="Path 152" d="M5.405.5V2.371a4.373,4.373,0,0,0-2.83-1.147A3.6,3.6,0,0,0-.139,2.383,3.906,3.906,0,0,0-1.248,5.2,3.814,3.814,0,0,0-.139,7.976,3.676,3.676,0,0,0,2.584,9.105,3.346,3.346,0,0,0,4,8.835a4.1,4.1,0,0,0,.673-.366,8.563,8.563,0,0,0,.734-.554v1.9a5.7,5.7,0,0,1-2.844.766A5.247,5.247,0,0,1-1.262,9.018,5.188,5.188,0,0,1-2.841,5.213,5.381,5.381,0,0,1-1.52,1.652,5.257,5.257,0,0,1,2.685-.264,5.329,5.329,0,0,1,5.405.5" transform="translate(2.841 0.264)"/>
      </g>
      <g id="Group_124" data-name="Group 124" transform="translate(27.524 72.788)">
        <path id="Path_153" data-name="Path 153" d="M3.78.972H-.411V3.483H3.658V4.966H-.411V8.458H3.78V9.941H-1.987V-.511H3.78Z" transform="translate(1.987 0.511)"/>
      </g>
      <g id="Group_125" data-name="Group 125" transform="translate(34.956 72.131)">
        <path id="Path_154" data-name="Path 154" d="M4.387,4.646,2.837,1.093,1.212,4.646Zm.644,1.483H.556L-.608,8.669h-1.7L2.863-2.442,7.853,8.669H6.126Z" transform="translate(2.306 2.442)"/>
      </g>
      <g id="Group_126" data-name="Group 126" transform="translate(47.211 72.078)">
        <path id="Path_155" data-name="Path 155" d="M0,7.317V-3.846L7.622,4.127V-3.135H9.2V7.953L1.576,0V7.317Z" transform="translate(0 3.846)"/>
      </g>
      <g id="Group_127" data-name="Group 127" transform="translate(64.775 72.789)">
        <path id="Path_156" data-name="Path 156" d="M1.033,5.879h.975a2.407,2.407,0,0,0,1.57-.421,1.451,1.451,0,0,0,.528-1.149A1.485,1.485,0,0,0,3.6,3.171a2.642,2.642,0,0,0-1.768-.453h-.8Zm0-4.482h.493a1.838,1.838,0,0,0,1.292-.389A1.507,1.507,0,0,0,3.227-.138a1.443,1.443,0,0,0-.421-1.12,1.744,1.744,0,0,0-1.219-.383H1.033ZM-.543,7.362V-3.09h1.57A6.919,6.919,0,0,1,2.7-2.927a2.507,2.507,0,0,1,1.062.549,2.821,2.821,0,0,1,.7,1A2.987,2.987,0,0,1,4.722-.164a2.477,2.477,0,0,1-.859,1.9,2.506,2.506,0,0,1,1.312,1A2.8,2.8,0,0,1,5.663,4.37,2.79,2.79,0,0,1,4.8,6.442a2.888,2.888,0,0,1-1.173.723,6.8,6.8,0,0,1-1.779.2Z" transform="translate(0.543 3.09)"/>
      </g>
      <path id="Path_157" data-name="Path 157" d="M75.611.662H74.035V-9.79h1.576Z" transform="translate(-0.273 82.58)"/>
      <g id="Group_128" data-name="Group 128" transform="translate(78.119 72.592)">
        <path id="Path_158" data-name="Path 158" d="M1.043,3.537a3.785,3.785,0,0,0,1.164,2.85A3.742,3.742,0,0,0,4.88,7.5,3.768,3.768,0,0,0,7.657,6.367a3.859,3.859,0,0,0,1.129-2.8A3.819,3.819,0,0,0,7.669.762,3.677,3.677,0,0,0,4.92-.376,3.717,3.717,0,0,0,2.166.762,3.771,3.771,0,0,0,1.043,3.537m-1.591-.02A5.124,5.124,0,0,1,1.069-.274,5.325,5.325,0,0,1,4.941-1.859a5.236,5.236,0,0,1,3.831,1.6,5.221,5.221,0,0,1,1.605,3.84A5.131,5.131,0,0,1,8.766,7.4,5.387,5.387,0,0,1,4.859,8.979a5.388,5.388,0,0,1-3.634-1.4A5.136,5.136,0,0,1-.548,3.516" transform="translate(0.548 1.859)"/>
      </g>
      <g id="Group_129" data-name="Group 129" transform="translate(91.816 72.789)">
        <path id="Path_159" data-name="Path 159" d="M1.035,5.879h.711a5.971,5.971,0,0,0,1.768-.223A3.59,3.59,0,0,0,5.949,2.135,3.625,3.625,0,0,0,4.8-.652a4.352,4.352,0,0,0-3.053-.955H1.035ZM-.544,7.362V-3.09H1.65a8,8,0,0,1,2.49.311A4.647,4.647,0,0,1,5.923-1.743,5,5,0,0,1,7.54,2.135a4.949,4.949,0,0,1-1.686,3.9A4.922,4.922,0,0,1,4.08,7.072a8.148,8.148,0,0,1-2.456.29Z" transform="translate(0.544 3.09)"/>
      </g>
      <path id="Path_160" data-name="Path 160" d="M85.572.662H84V-9.79h1.576Z" transform="translate(18.678 82.58)"/>
      <g id="Group_130" data-name="Group 130" transform="translate(106.354 72.789)">
        <path id="Path_161" data-name="Path 161" d="M1.132,0,4.023,7.242,6.954,0H8.679L3.988,11.236-.6,0Z" transform="translate(0.595)"/>
      </g>
      <g id="Group_131" data-name="Group 131" transform="translate(117.718 72.788)">
        <path id="Path_162" data-name="Path 162" d="M3.78.972H-.408V3.483H3.658V4.966H-.408V8.458H3.78V9.941H-1.987V-.511H3.78Z" transform="translate(1.987 0.511)"/>
      </g>
      <g id="Group_132" data-name="Group 132" transform="translate(126.345 72.791)">
        <path id="Path_163" data-name="Path 163" d="M1.035,3.145h.5q2.238,0,2.241-1.712Q3.778-.174,1.6-.173h-.56ZM3,4.344,6.233,8.8H4.3L1.319,4.521H1.035V8.8H-.544V-1.653H1.3A4.611,4.611,0,0,1,4.3-.875,2.863,2.863,0,0,1,5.313,1.412a2.977,2.977,0,0,1-.636,1.91A2.836,2.836,0,0,1,3,4.344" transform="translate(0.544 1.653)"/>
      </g>
      <g id="Group_133" data-name="Group 133" transform="translate(134.961 72.587)">
        <path id="Path_164" data-name="Path 164" d="M4.216,1.153l-1.28.758A2.193,2.193,0,0,0,2.251,1.1,1.6,1.6,0,0,0,1.38.883a1.626,1.626,0,0,0-1.091.372,1.159,1.159,0,0,0-.432.92c0,.511.38.92,1.138,1.234l1.042.424A4.477,4.477,0,0,1,3.9,5.089a2.841,2.841,0,0,1,.589,1.82,3.2,3.2,0,0,1-.961,2.383,3.3,3.3,0,0,1-2.4.946,3.218,3.218,0,0,1-2.247-.807A3.7,3.7,0,0,1-2.216,7.164l1.6-.351A2.7,2.7,0,0,0-.239,8.084a1.641,1.641,0,0,0,1.422.676,1.645,1.645,0,0,0,1.225-.493A1.7,1.7,0,0,0,2.9,7.016a1.8,1.8,0,0,0-.084-.56,1.426,1.426,0,0,0-.264-.464,2,2,0,0,0-.464-.4,4.41,4.41,0,0,0-.676-.357L.4,4.816Q-1.747,3.91-1.749,2.163A2.518,2.518,0,0,1-.846.192a3.252,3.252,0,0,1,2.238-.8A3.13,3.13,0,0,1,4.216,1.153" transform="translate(2.216 0.606)"/>
      </g>
      <path id="Path_165" data-name="Path 165" d="M99.935.662H98.356V-9.79h1.579Z" transform="translate(45.999 82.58)"/>
      <g id="Group_134" data-name="Group 134" transform="translate(148.139 72.788)">
        <path id="Path_166" data-name="Path 166" d="M2.608.972V9.941H1.029V.972h-2.4V-.511H5V.972Z" transform="translate(1.371 0.511)"/>
      </g>
      <g id="Group_135" data-name="Group 135" transform="translate(156.091 72.79)">
        <path id="Path_167" data-name="Path 167" d="M2.235,3.891l-3.41-5.936H.639L3.028,2.132,5.422-2.045H7.237L3.814,3.891V8.407H2.235Z" transform="translate(1.175 2.045)"/>
      </g>
      <path id="Path_168" data-name="Path 168" d="M51.522,6.632H49.946V-3.82h1.576Z" transform="translate(-46.103 93.938)"/>
      <g id="Group_136" data-name="Group 136" transform="translate(8.721 89.407)">
        <path id="Path_169" data-name="Path 169" d="M0,7.317V-3.846L7.622,4.127V-3.135H9.2V7.953L1.576,0V7.317Z" transform="translate(0 3.846)"/>
      </g>
      <g id="Group_137" data-name="Group 137" transform="translate(21.215 90.117)">
        <path id="Path_170" data-name="Path 170" d="M3.421.972H-.222V3.483H3.293V4.966H-.222V9.941H-1.8V-.511H3.421Z" transform="translate(1.798 0.511)"/>
      </g>
      <g id="Group_138" data-name="Group 138" transform="translate(28.544 89.921)">
        <path id="Path_171" data-name="Path 171" d="M1.043,3.537a3.785,3.785,0,0,0,1.164,2.85A3.742,3.742,0,0,0,4.88,7.5,3.768,3.768,0,0,0,7.657,6.367a3.859,3.859,0,0,0,1.129-2.8A3.819,3.819,0,0,0,7.669.762,3.677,3.677,0,0,0,4.92-.376,3.717,3.717,0,0,0,2.166.762,3.771,3.771,0,0,0,1.043,3.537m-1.591-.02A5.124,5.124,0,0,1,1.069-.274,5.325,5.325,0,0,1,4.941-1.859a5.236,5.236,0,0,1,3.831,1.6,5.221,5.221,0,0,1,1.605,3.84A5.131,5.131,0,0,1,8.766,7.4,5.387,5.387,0,0,1,4.859,8.979a5.388,5.388,0,0,1-3.634-1.4A5.136,5.136,0,0,1-.548,3.516" transform="translate(0.548 1.859)"/>
      </g>
      <g id="Group_139" data-name="Group 139" transform="translate(42.244 90.119)">
        <path id="Path_172" data-name="Path 172" d="M1.033,3.145h.5q2.238,0,2.241-1.712,0-1.607-2.18-1.605H1.033ZM3,4.344,6.232,8.8H4.3L1.318,4.521H1.033V8.8H-.543V-1.653H1.3A4.611,4.611,0,0,1,4.3-.875,2.863,2.863,0,0,1,5.311,1.412a2.977,2.977,0,0,1-.636,1.91A2.836,2.836,0,0,1,3,4.344" transform="translate(0.543 1.653)"/>
      </g>
      <g id="Group_140" data-name="Group 140" transform="translate(51.014 89.334)">
        <path id="Path_173" data-name="Path 173" d="M0,7.365,2.2-3.871,5.788,4.25,9.5-3.871,11.48,7.365H9.863l-1.01-6.31L5.762,7.844,2.755,1.049,1.631,7.365Z" transform="translate(0 3.871)"/>
      </g>
      <g id="Group_141" data-name="Group 141" transform="translate(64.301 89.46)">
        <path id="Path_174" data-name="Path 174" d="M4.387,4.646,2.837,1.093,1.212,4.646Zm.644,1.483H.556L-.608,8.669h-1.7L2.863-2.442,7.853,8.669H6.126Z" transform="translate(2.306 2.442)"/>
      </g>
      <g id="Group_142" data-name="Group 142" transform="translate(74.879 90.117)">
        <path id="Path_175" data-name="Path 175" d="M2.608.972V9.941H1.032V.972h-2.4V-.511H5.006V.972Z" transform="translate(1.371 0.511)"/>
      </g>
      <path id="Path_176" data-name="Path 176" d="M78.95,6.632H77.374V-3.82H78.95Z" transform="translate(6.08 93.938)"/>
      <g id="Group_143" data-name="Group 143" transform="translate(87.811 89.921)">
        <path id="Path_177" data-name="Path 177" d="M1.043,3.537a3.785,3.785,0,0,0,1.164,2.85A3.743,3.743,0,0,0,4.883,7.5,3.755,3.755,0,0,0,7.655,6.367a3.85,3.85,0,0,0,1.132-2.8A3.819,3.819,0,0,0,7.669.762,3.677,3.677,0,0,0,4.92-.376,3.717,3.717,0,0,0,2.166.762,3.771,3.771,0,0,0,1.043,3.537m-1.591-.02A5.124,5.124,0,0,1,1.069-.274,5.325,5.325,0,0,1,4.941-1.859a5.236,5.236,0,0,1,3.831,1.6,5.221,5.221,0,0,1,1.605,3.84A5.131,5.131,0,0,1,8.766,7.4,5.387,5.387,0,0,1,4.859,8.979a5.393,5.393,0,0,1-3.634-1.4A5.136,5.136,0,0,1-.548,3.516" transform="translate(0.548 1.859)"/>
      </g>
      <g id="Group_144" data-name="Group 144" transform="translate(101.509 89.407)">
        <path id="Path_178" data-name="Path 178" d="M0,7.317V-3.846L7.622,4.127V-3.135H9.2V7.953L1.576,0V7.317Z" transform="translate(0 3.846)"/>
      </g>
      <g id="Group_145" data-name="Group 145" transform="translate(118.55 89.916)">
        <path id="Path_179" data-name="Path 179" d="M4.216,1.153l-1.28.758A2.193,2.193,0,0,0,2.251,1.1,1.6,1.6,0,0,0,1.38.883a1.626,1.626,0,0,0-1.091.372,1.159,1.159,0,0,0-.432.92c0,.511.38.92,1.138,1.234l1.042.424A4.477,4.477,0,0,1,3.9,5.089a2.841,2.841,0,0,1,.589,1.82,3.2,3.2,0,0,1-.961,2.383,3.3,3.3,0,0,1-2.4.946,3.218,3.218,0,0,1-2.247-.807A3.7,3.7,0,0,1-2.216,7.164l1.6-.351A2.732,2.732,0,0,0-.239,8.084a1.641,1.641,0,0,0,1.422.676,1.645,1.645,0,0,0,1.225-.493A1.7,1.7,0,0,0,2.9,7.016a1.8,1.8,0,0,0-.084-.56,1.426,1.426,0,0,0-.264-.464,2,2,0,0,0-.464-.4,4.41,4.41,0,0,0-.676-.357L.4,4.816Q-1.747,3.91-1.749,2.163A2.518,2.518,0,0,1-.846.192a3.252,3.252,0,0,1,2.238-.8A3.13,3.13,0,0,1,4.216,1.153" transform="translate(2.216 0.606)"/>
      </g>
      <g id="Group_146" data-name="Group 146" transform="translate(126.552 90.119)">
        <path id="Path_180" data-name="Path 180" d="M2.235,3.891l-3.41-5.936H.639L3.028,2.132,5.422-2.045H7.237L3.812,3.891V8.407H2.235Z" transform="translate(1.175 2.045)"/>
      </g>
      <g id="Group_147" data-name="Group 147" transform="translate(136.121 89.916)">
        <path id="Path_181" data-name="Path 181" d="M4.214,1.153l-1.28.758A2.219,2.219,0,0,0,2.252,1.1,1.616,1.616,0,0,0,1.378.883a1.626,1.626,0,0,0-1.091.372,1.159,1.159,0,0,0-.432.92c0,.511.38.92,1.138,1.234l1.042.424A4.489,4.489,0,0,1,3.9,5.089a2.856,2.856,0,0,1,.586,1.82,3.2,3.2,0,0,1-.961,2.383,3.3,3.3,0,0,1-2.4.946,3.218,3.218,0,0,1-2.247-.807A3.7,3.7,0,0,1-2.215,7.164l1.6-.351A2.7,2.7,0,0,0-.241,8.084a1.641,1.641,0,0,0,1.422.676,1.641,1.641,0,0,0,1.225-.493,1.7,1.7,0,0,0,.488-1.251,1.8,1.8,0,0,0-.084-.56,1.426,1.426,0,0,0-.264-.464,2.047,2.047,0,0,0-.462-.4A4.591,4.591,0,0,0,1.4,5.234L.4,4.816Q-1.749,3.91-1.751,2.163A2.518,2.518,0,0,1-.848.192a3.252,3.252,0,0,1,2.238-.8A3.127,3.127,0,0,1,4.214,1.153" transform="translate(2.215 0.606)"/>
      </g>
      <g id="Group_148" data-name="Group 148" transform="translate(144.614 90.117)">
        <path id="Path_182" data-name="Path 182" d="M2.608.972V9.941H1.029V.972h-2.4V-.511H5V.972Z" transform="translate(1.371 0.511)"/>
      </g>
      <g id="Group_149" data-name="Group 149" transform="translate(153.187 90.117)">
        <path id="Path_183" data-name="Path 183" d="M3.78.972H-.408V3.483H3.658V4.966H-.408V8.458H3.78V9.941H-1.987V-.511H3.78Z" transform="translate(1.987 0.511)"/>
      </g>
      <g id="Group_150" data-name="Group 150" transform="translate(161.451 89.334)">
        <path id="Path_184" data-name="Path 184" d="M0,7.365,2.2-3.871,5.788,4.25,9.5-3.871,11.48,7.365H9.863l-1.01-6.31L5.762,7.844,2.755,1.049,1.631,7.365Z" transform="translate(0 3.871)"/>
      </g>
    </g>
  </g>
</svg>
