<?xml version="1.0" encoding="UTF-8"?>
<svg id="Layer_1" xmlns="http://www.w3.org/2000/svg" version="1.1" viewBox="0 0 32 32">
  <!-- Generator: Adobe Illustrator 30.4.0, SVG Export Plug-In . SVG Version: 2.1.4 Build 226)  -->
  <defs>
    <style>
      .st0 {
        fill: #e5f4ff;
      }

      .st1 {
        fill: #020282;
      }
    </style>
  </defs>
  <rect class="st0" y=".1" width="32" height="31.8" rx="6" ry="6"/>
  <path class="st1" d="M14.3,23.9c0-.2.6-.4.6,0,2.3,4.3-.3,4.6-.6,0h0ZM6.9,18.9c-.6.5-1.3,1.1-1.4,1.7-.7,1.5-3,1.9-3.1,3.4,0,0,.2,0,.2-.2v.2c.5,0,.6-.4.6.3,2.9-1.5,7.1-1.7,10.1-.7.6.6.6,2.2.6,3.2-.3.3-.6.8,0,.9,0-.3,0-.5.2-.6v.7h-.6c1.7,0,5.7,0,7.2-.2-3.5-.6-4.2,0-4.9-3.9,4.8-.6,11.8-3.8,10.7-9.6,0-1.6-2-2.2-2.2-3.7,1.1-1,2.6-1.4,4-1.1,3.2-.6-.6-.8-1.5-1.6-.7-.6-1-1.7-2.1-2.2-2.1-.9-5.1,1.3-3.9,3.7.3.8,1.6,2.8,1,3.4-5.5-1.5-9.8,2.2-14.3,5-.4.2-1,.6-.7.8.3,0,.4.2.5.4h0v.3h-.3Z"/>
</svg>