<?xml version="1.0" encoding="ISO-8859-1" standalone="no"?><svg version="1.1" xmlns="http://www.w3.org/2000/svg" x="0px" y="0px" viewBox="0 0 140 140"><path fill="#FF4F00" d="M70,0C31.34,0,0,31.34,0,70h140C140,31.34,108.66,0,70,0z"></path><path fill="#FFCD00" d="M0,70c0,38.66,31.34,70,70,70c38.66,0,70-31.34,70-70H0z"></path><g class="siteHeader__logoText"><path fill="#000000" d="M24.41,87.13l3.71,7.8l-2.4,1.14l-2.4-5.04l-1.99,0.95l2.33,4.9l-2.24,1.07l-2.33-4.9l-3.19,1.52l-1.31-2.76 L24.41,87.13z"></path><path fill="#000000" d="M25.05,100.41c2.61-2.21,5.99-1.86,8.21,0.77c2.22,2.62,2.02,6.02-0.59,8.23c-2.61,2.21-5.99,1.86-8.21-0.77 C22.23,106.02,22.44,102.62,25.05,100.41z M30.69,107.07c1.44-1.22,1.66-2.86,0.54-4.17c-1.11-1.31-2.77-1.37-4.2-0.15 c-1.44,1.22-1.65,2.87-0.54,4.17C27.6,108.24,29.25,108.29,30.69,107.07z"></path><path fill="#000000" d="M34.64,112.69l3.76-5.52l2.53,1.72l-3.6,5.28c-0.82,1.21-0.61,2.2,0.56,2.99c1.16,0.79,2.16,0.62,2.98-0.59 l3.6-5.28l2.53,1.72l-3.76,5.53c-1.6,2.35-4.17,2.64-6.84,0.81C33.68,117.52,33.03,115.06,34.64,112.69z"></path><path fill="#000000" d="M49.72,114.4l2.97,0.98l2.3,7.55l0.03,0.01l2.02-6.13l2.91,0.96l-3.4,10.34l-2.97-0.98l-2.3-7.55l-0.03-0.01 l-2.02,6.13l-2.91-0.96L49.72,114.4z"></path><path fill="#000000" d="M63.05,118.26l4.99,0.2c3.25,0.13,5.44,2.15,5.3,5.66c-0.15,3.64-2.52,5.35-5.77,5.22l-4.96-0.2 L63.05,118.26z M67.39,126.67c1.79,0.07,2.82-0.71,2.9-2.67c0.08-1.93-0.87-2.82-2.67-2.89l-1.6-0.06l-0.22,5.57L67.39,126.67z"></path><path fill="#000000" d="M83.85,126.2l-4.94,0.99l-0.32,1.67l-3.02,0.61l2.59-11.62l2.79-0.56l6.87,9.73l-3.03,0.61L83.85,126.2z M82.35,123.88l-2.17-3.31l-0.03,0.01l-0.73,3.89L82.35,123.88z"></path><path fill="#000000" d="M89.29,117.44l-3.43,1.52l-1.07-2.43l9.68-4.28l1.07,2.43l-3.45,1.53l3.33,7.52l-2.8,1.24L89.29,117.44z"></path><path fill="#000000" d="M97.16,110.22l2.48-1.79l6.38,8.83l-2.48,1.79L97.16,110.22z"></path><path fill="#000000" d="M105.73,110.85c-2.52-2.32-2.59-5.72-0.26-8.25c2.33-2.53,5.72-2.75,8.24-0.43 c2.52,2.32,2.58,5.72,0.26,8.25C111.64,112.94,108.25,113.16,105.73,110.85z M111.63,104.42c-1.38-1.27-3.04-1.29-4.21-0.02 c-1.16,1.26-1.01,2.92,0.37,4.19c1.39,1.27,3.05,1.28,4.21,0.02C113.18,107.34,113.02,105.7,111.63,104.42z"></path><path fill="#000000" d="M110.84,96.73l1.42-2.78l7.81-1.12l0.02-0.03l-5.75-2.93l1.39-2.73l9.7,4.94l-1.42,2.79l-7.81,1.11 l-0.01,0.03l5.75,2.93l-1.39,2.73L110.84,96.73z"></path><path fill="#000000" d="M11.74,55.27l1.56-3.78l9.62-0.92l0.02-0.04l-6.16-7.45l1.55-3.76l12.59,5.2l-1.44,3.49l-7.01-2.9 l-0.02,0.04l5.43,6.73l-0.51,1.24l-8.59,0.91l-0.02,0.04l7.01,2.9l-1.45,3.51L11.74,55.27z"></path><path fill="#000000" d="M23.74,32.6l2.51-2.9l10.3,8.92l-2.51,2.9L23.74,32.6z"></path><path fill="#000000" d="M32.57,23.36l3.31-2.08l9.1,3.82l0.03-0.02l-4.29-6.83l3.25-2.04l7.24,11.53l-3.31,2.08l-9.1-3.81 l-0.03,0.02l4.29,6.83l-3.24,2.04L32.57,23.36z"></path><path fill="#000000" d="M53.44,12.72l6.14-1.07c4-0.7,7.21,1.19,7.96,5.52c0.78,4.48-1.67,7.19-5.67,7.89l-6.11,1.06L53.44,12.72z M60.94,21.85c2.2-0.38,3.25-1.61,2.83-4.03c-0.41-2.37-1.8-3.22-4.03-2.83l-1.97,0.34l1.19,6.86L60.94,21.85z"></path><path fill="#000000" d="M74.63,10.76l10.54,1.81l-0.56,3.28l-6.77-1.16l-0.32,1.86l6.14,1.05l-0.52,3.01L77,19.55l-0.35,1.99 l6.78,1.17l-0.56,3.28l-10.56-1.82L74.63,10.76z"></path><path fill="#000000" d="M98.21,33.87l-3.61-2.09l-0.19-4.95l-1.85-1.07l-2.1,3.63l-3.31-1.92l6.81-11.77l6.41,3.71 c2.64,1.53,3.73,4.07,2.21,6.69c-1.06,1.83-2.84,2.54-4.69,2.25l-0.03,0.05L98.21,33.87z M99.27,24.18c0.51-0.88,0.18-1.6-0.73-2.12 l-2.87-1.66l-1.5,2.59l2.86,1.65C97.92,25.15,98.76,25.05,99.27,24.18z"></path><path fill="#000000" d="M104.76,30.48c3.26-2.76,7.49-2.32,10.26,0.96c2.77,3.28,2.52,7.51-0.74,10.28 c-3.26,2.76-7.49,2.32-10.26-0.96C101.24,37.48,101.5,33.24,104.76,30.48z M111.81,38.79c1.8-1.52,2.08-3.57,0.68-5.21 c-1.38-1.63-3.46-1.71-5.25-0.19c-1.8,1.52-2.06,3.58-0.68,5.21C107.95,40.25,110.01,40.31,111.81,38.79z"></path><path fill="#000000" d="M116.38,45.34c4.03-1.43,7.83,0.48,9.26,4.53c1.44,4.05-0.3,7.93-4.33,9.36c-4.03,1.43-7.83-0.48-9.26-4.53 C110.61,50.65,112.35,46.77,116.38,45.34z M120.02,55.62c2.22-0.79,3.21-2.6,2.48-4.64c-0.72-2.01-2.63-2.82-4.85-2.03 s-3.19,2.62-2.48,4.64C115.9,55.62,117.81,56.41,120.02,55.62z"></path></g></svg>