<?xml version="1.0" encoding="UTF-8" standalone="no"?>
<svg
   id="Layer_1"
   version="1.1"
   viewBox="0 0 443.47242 147.7499"
   sodipodi:docname="engraulis.svg"
   width="443.47241"
   height="147.74991"
   inkscape:version="1.4.2 (ebf0e940, 2025-05-08)"
   xmlns:inkscape="http://www.inkscape.org/namespaces/inkscape"
   xmlns:sodipodi="http://sodipodi.sourceforge.net/DTD/sodipodi-0.dtd"
   xmlns="http://www.w3.org/2000/svg"
   xmlns:svg="http://www.w3.org/2000/svg">
  <sodipodi:namedview
     id="namedview14"
     pagecolor="#ffffff"
     bordercolor="#000000"
     borderopacity="0.25"
     inkscape:showpageshadow="2"
     inkscape:pageopacity="0.0"
     inkscape:pagecheckerboard="0"
     inkscape:deskcolor="#d1d1d1"
     inkscape:zoom="1.1984796"
     inkscape:cx="229.87459"
     inkscape:cy="250.73435"
     inkscape:window-width="1520"
     inkscape:window-height="1246"
     inkscape:window-x="0"
     inkscape:window-y="25"
     inkscape:window-maximized="0"
     inkscape:current-layer="Layer_1" />
  <!-- Generator: Adobe Illustrator 29.8.2, SVG Export Plug-In . SVG Version: 2.1.1 Build 3)  -->
  <defs
     id="defs1">
    <style
       id="style1">
      .st0 {
        fill: #030382;
      }
    </style>
  </defs>
  <path
     class="st0"
     d="m 329.21592,108.3 c -11.2,3.5 -22.3,5.8 -29,15.9 -3.3,5 -7.5,9.4 -11.1,14.2 -0.6,0.8 -1.4,1.6 -2.1,2.4 -1.8,2.1 -3,1.7 -4.4,-0.6 -4.3,-6.8 -7.6,-14 -9.7,-21.8 -1.4,-4.9 -1.8,-4.8 -6.9,-4.2 -11.4,1.4 -22.9,2.4 -34.4,3.5 -7.6,0.7 -15.3,1.1 -23.3,1.7 4.7,3.9 5.2,7.3 2.3,12.5 -3.2,5.6 -7.4,10.4 -11.9,15 -2,2 -2.4,0 -2.9,-1.2 -3.2,-6.5 -4.9,-13.5 -6.7,-20.5 -1,-3.9 -2.7,-5.2 -6.7,-5.1 -18.1,0.4 -36.1,0.6 -54.2,0.7 -31.500003,0.2 -62.400003,-4.3 -92.800003,-12.4 -8.7,-2.3 -16.8,-6 -24.2,-11.1 -1.3000003,-0.9 -3.5000003,-1.7 -2.6000003,-3.8 0.8,-1.8 2.6000003,-0.3 3.9000003,-0.5 2.9,-0.4 5.6,0.4 8.6,0.7 -4.6,-3.9 -8.7,-8.2 -14.1000003,-10.8 -3.3,-1.6 -7.30000005,-3.4 -7.00000005,-7.6 0.3,-4.1 4.20000005,-6.2 7.70000005,-7.7 C 20.815917,61.7 34.615917,58 48.815917,56.2 c 36.4,-4.6 73.100003,-5.5 109.800003,-6 11.5,-0.1 23.1,-0.3 34.6,-0.3 11.5,0 4.2,-0.6 4.7,-3.8 2.1,-12.1 4.6,-24.2 8.5,-35.9 1.1,-3.3 2.3,-6.6 4.3,-10.2 4.7,6.9 9.3,13.4 13.6,20 4.5,6.9 9,13.8 14.5,20 1.7,1.9 3.9,3.5 6.2,4.8 4.4,2.7 4.5,2.6 1.2,6.3 -0.4,0.5 -1.3,1 -0.5,1.6 1.2,0.9 1.7,2.6 3.7,2.6 3.3,0 6.5,0.5 9.8,0.6 24.8,0.8 49.3,3.6 73.9,6.9 11.7,1.6 23.3,3.6 35.1,3.9 9.4,0.3 18.4,-2.6 27.3,-5 14.3,-3.8 28.5,-8 43,-10.8 1.5,-0.3 3.3,-1.3 4.4,0.3 0.9,1.2 -0.1,2.8 -0.7,4.1 -5.8,13.4 -15.2,22.5 -30.3,25.9 3.2,1.8 6.6,1.9 9.6,3.3 11.1,5.3 16.8,14.9 21.6,25.4 1,2.3 -0.2,3.2 -2.4,2.9 -3,-0.3 -6,-0.5 -8.9,-1.2 -18.5,-4.4 -36.9,-8.9 -55.3,-13.5 -8.2,-2 -16.4,-1.2 -24.6,-1 -8.9,0.3 -17.7,1.6 -26.4,3.7 -1.2,0.3 -2.9,0.1 -3.1,1.8 -0.2,1.6 1.5,1.9 2.6,2.7 1,1.1 2.4,1.9 4.2,3 z m -44.9,-41.8 c 0.5,-2.6 -1.8,-2.3 -3.1,-2.9 -1.5,-0.6 -1.3,0.6 -1.4,1.5 -2.2,0.2 -3.3,1.7 -3.5,3.5 -0.2,1.7 1.7,1.1 2.7,1.3 2.3,0.3 1.8,-1.5 2,-2.8 1.3,0.8 2.2,-0.6 3.3,-0.6 0.4,1.3 -2.6,2.6 0,3.8 0.9,0.4 2.3,0.5 2.6,-0.8 0.4,-1.9 -0.1,-3.5 -2.6,-3 z m -23.6,-0.1 c 0,-0.5 -0.1,-1 0,-1.5 0.3,-1.2 1.1,-2.5 -0.8,-3.2 -0.8,-0.3 -1.6,-0.3 -2.1,0.5 -0.9,1.5 0.4,2.4 1,3.4 0.4,0.9 1.1,0.9 1.9,0.8 -0.6,2.4 1.1,2.5 2.7,2.3 3.1,-0.4 0.9,-2.6 1.3,-3.9 1.4,0.1 1.2,2.2 3.2,2.3 -0.2,-1.7 2,-2.8 0.5,-4.6 -0.5,-0.7 -1.1,-0.9 -2,-0.7 -1.8,0.4 -1.5,1.8 -1.7,3.1 -1.7,-0.5 -2.8,0.7 -4,1.5 z m -33.2,21.1 c 0.5,-0.4 1.9,-1.1 0.8,-1.3 -1.3,-0.3 -2,-2.8 -3.7,-1.2 -1,0.9 -1.9,2.3 -0.9,3.4 1.2,1.3 2.3,-0.2 3.3,-0.9 0.5,2.2 -1.7,2.7 -2.5,4.1 -1.4,-1.1 -2.2,0.2 -3.1,0.9 -0.7,-3 -2,-3.2 -3.9,-0.8 -2.9,-2.1 -3.1,0.6 -4,2.2 -0.3,0.7 -0.6,1.7 -1.5,1.6 -1.2,-0.2 -0.8,-1.4 -1,-2.3 1.1,0.3 2.3,-0.3 2,-1.1 -1.2,-3.3 2.8,-7.4 -1.7,-9.9 -2.1,2.6 -4.3,5.4 -0.8,8.9 3.5,3.5 0.4,1.5 0.5,2.2 -1.3,-1.3 -2.1,-4.1 -4.8,-1.6 -0.1,-1.6 -3.6,-3.1 0.1,-4.7 0.7,-0.3 0.4,-1.4 0.1,-2.2 -0.7,-1.5 -2,-3 -3.5,-2 -1.7,1.1 -2.7,3.3 -1.5,5.5 0.7,1.4 1.9,2.5 1.7,4.2 -2.2,-2.4 -3.3,-0.8 -4.3,1.4 0.3,-2.8 0.7,-5.2 0.2,-7.7 -0.2,-0.9 1.4,-3.2 -2,-2.7 -2.9,0.4 -3.1,2.1 -3,4 0,1.2 0.9,2.4 1.4,3.6 -1.2,-0.9 -2.4,-1.1 -3.5,0.1 -0.1,-1.4 0.2,-3.1 -2.3,-2.4 -1,0.3 -2,-0.1 -0.9,-1.3 0.7,-0.7 0.5,-1.1 0,-1.6 -0.5,-0.6 -1.1,-0.5 -1.7,-0.1 -0.6,0.4 -0.9,0.9 -0.7,1.6 0.4,1.3 0.7,2.5 1.1,3.8 -1.1,-0.7 -1.8,0 -2.5,0.8 -1.8,-2.5 -1.1,-6 -2.7,-8.8 -2.7,2.4 -5.2,4.4 -2.7,8 -0.9,-0.5 -1.7,-0.6 -2.4,0.3 -0.9,-2.1 -1.8,-4.1 -2.7,-6.2 0,0 0.2,-0.2 0.3,-0.2 3.1,-0.2 1.2,-1.4 0.4,-2.2 -1.5,-1.6 -2.2,0.6 -2.5,1 -1.8,2.3 -2.2,4.9 0,7.3 -1.4,-0.6 -2.4,0 -3.4,0.9 0.2,-2.2 -1.1,-4.2 -0.6,-6.4 0.3,-1.5 -0.9,-2.9 -2.6,-2.7 -1.4,0.2 -2.5,1.4 -2.5,2.9 0,1.5 0.4,3.1 0.7,4.6 -0.6,0.2 -1.2,0.5 -1.8,0.7 0.3,-3.2 -3.8,-5 -2.5,-8.5 0.1,-0.2 -0.6,-0.9 -1,-1 -0.6,-0.2 -0.9,0.3 -1.1,0.8 -1,2.5 -3.3,4.9 -0.9,7.8 -2.5,-0.1 -2.5,-1.9 -2.9,-3.8 -0.3,-1.6 -1,-3.6 -2.9,-3.7 -2.1,-0.2 -2.5,2 -3.1,3.5 -0.5,1.3 -0.6,2.8 -1,4.9 -1.4,-3.7 -1,-7.5 -3.9,-9 -4.7,1.1 -0.3,6.3 -4.4,8.1 -0.4,-3.5 0,-7.1 -3.8,-9.6 0.6,2.7 -1.5,3.8 -2.1,5.7 -0.9,2.7 2.7,3.2 2.9,5.5 -1.5,-0.5 -2.5,-2.7 -4.1,-0.7 -0.4,-2.4 0,-4.9 -1.3,-7.1 -0.6,-1 -1.1,-2.3 -2.4,-2.2 -1.2,0.1 -1.1,1.6 -1.7,2.3 -1.7,2.3 -0.9,4.2 0.6,6.1 -2.7,-1.2 -1.7,1.8 -3.2,2.8 0.6,-5 0.2,-9.5 -4,-12.6 -1.6,1.9 -2.2,4.1 -1.6,6.5 0.4,1.6 -0.4,2.1 -1.4,2.8 -0.3,-1.4 -0.5,-2.8 -0.8,-4.2 -0.2,-1.1 -0.3,-2.7 -2,-2.1 -1.5,0.5 -2.8,1.6 -2.3,3.5 0.3,1 0.8,1.9 1.3,2.8 -0.9,-0.4 -2,-1.9 -2.5,0.5 -0.4,2 -0.6,4.1 -0.7,6.2 -0.3,4 0.1,4.5 3.9,4 2.3,-0.3 1.1,-3.1 3.1,-3.8 1.8,2.8 3.6,6.2 7.6,6.4 4.3,0.1 7.8,2.7 11.8,3.7 4.5,1.1 4.7,1.3 5,-3.6 1.3,2.2 2.6,4.5 4,6.7 0.5,0.8 1.2,1.5 2.2,1.4 1.1,-0.1 1.3,-1.2 1.5,-2.1 0.2,-1.6 0.3,-3.2 0.5,-5.2 1.2,1.4 1.8,2.5 2.1,3.8 -3.2,2 -1.3,5.3 -2.1,8 -0.3,0.9 1.4,2.7 3,2.6 1.8,-0.1 2.1,-1.9 1.9,-3.3 -0.2,-1.7 -0.8,-3.3 -1.3,-4.9 1.2,0.6 1.7,2.2 3.2,2.3 -0.5,3.1 1.9,5.1 3.8,5.1 2.1,0.1 1.8,-2.8 1.7,-4.7 v -1.1 l 1.6,1.6 c 0.4,1.8 1.2,3.9 3.3,3.6 2.3,-0.3 1.9,-2.7 2.1,-4.4 h 1.8 c -0.3,1.8 0.9,2.9 1.9,4.1 1.2,1.5 2.8,1.1 2.9,-0.4 0.4,-4.7 5,-8.1 3.7,-13.2 0.5,0.3 1.1,0.5 1.6,0.8 -0.5,2 -0.8,4.1 -1.5,6 -1.6,4.1 -1.7,4 1.5,7.4 1.3,-1 2.4,-2.3 2.2,-3.9 -0.2,-2.5 1.4,-1.6 2.5,-1.6 -0.3,1.3 -0.5,2.6 1,3.4 1,0.5 2.1,0.5 2.9,-0.2 1.2,-1 0.9,-2.4 0.6,-3.6 -0.2,-1 -0.5,-2 -0.8,-3 3.2,0.7 5.4,0.1 4.7,-3.9 0.6,0.1 1.1,0.2 1.7,0.3 -0.3,1.1 0.3,1.9 0.7,2.9 0.6,1.3 1.3,2.3 2.8,2.1 1.5,-0.2 1.5,-1.7 1.6,-2.7 0.2,-1.8 -0.1,-3.5 -0.1,-5.3 0.8,1 0.9,2.4 2.2,3 0.5,1.3 1,2.7 1.4,4 0.3,1 0.5,2.2 1.9,2 1.4,-0.2 1.8,-1.4 1.9,-2.6 0.2,-1.9 0.2,-3.9 0.2,-5.8 1.7,2.6 2.2,-0.1 3.1,-0.8 -0.2,0.9 -0.3,1.8 -0.6,2.6 -1.1,3.3 0.2,5.9 3.8,7.5 0,2 0.2,4.6 2.4,4.7 2.5,0 2.1,-2.8 2.2,-4.7 v -1.6 l 1.6,1.6 c 0.9,2 1.8,4.9 4,4.6 2.7,-0.3 1.9,-3.5 2.1,-5.6 0.4,0.5 1,0.8 1.3,1.4 2.2,4.7 3.2,5 7.5,2.4 5,1.6 5.4,1.3 5.4,-3.7 0.7,0.6 1.5,1.4 2.4,0.2 0.2,1.7 0.1,3.7 2.6,3.6 2.2,-0.1 2.1,-1.9 2.2,-3.4 V 110 c 1.5,1.7 1.8,5.1 5.2,4.2 2.7,-0.7 1.7,-3.1 1.9,-4.9 0.8,0.4 1.4,1.4 2.4,0.8 0,1.1 -1.1,2.2 0.1,3.2 1.1,1 2.1,-0.1 3.2,-0.3 3.4,-0.6 1.6,-2.8 1.4,-4.5 1.1,0.5 1.5,2.4 3.3,1.5 -0.6,2.8 1.2,2.4 2.9,2.3 3,-0.2 2.2,-2.1 1.6,-3.8 1.2,0.9 2.6,1.1 4,1.2 1.4,0.1 3.3,1.4 4,-1.2 1,0.8 1.4,0.4 2,-0.6 2.2,-3.6 0.7,-6.6 -1.3,-9.6 0.7,0.6 1.4,1.1 2.1,1.8 1.3,1.2 1.1,3.2 2,4.6 0.8,1.3 1.4,3.3 3.6,2.8 2,-0.4 2.6,-1.9 2.5,-3.8 v -1.6 c 0.7,0.2 1.2,0.7 1.1,1.4 -0.3,2.1 0.2,3.2 2.7,2.7 2.4,-0.4 3.4,-1.5 3.2,-3.9 -0.1,-1 -1.4,-1.9 -0.5,-3.2 0.8,0.6 1.5,1.1 2.2,1.7 0.4,1.3 -1.4,3.2 1.1,3.9 1.6,0.5 3.1,0.2 4.2,-1.2 1.7,-2 -0.3,-3.6 -0.7,-5.3 2.6,1.8 3.8,0.7 4.1,-2 0.1,-1.1 0,-2.3 -0.1,-3.5 0.6,0.1 1.2,0.1 1.7,0.2 -0.9,3.3 1.6,4.9 3.4,6.9 0.5,3.4 2.3,1 3.4,0.7 3.9,-1.1 -0.4,-2.9 0.2,-4.1 2.1,-0.8 1.7,3.6 4.2,1.7 0.6,1.5 1.2,2.9 2.7,0.7 0.3,-0.4 0.2,-0.9 1,-0.7 2.6,0.6 2.7,0.6 3,-1.9 0.2,-1.4 0.1,-2.8 0.1,-4.2 0.6,0.7 1.2,1.5 1.8,2.2 0.4,3.1 1.9,4.9 5.2,3.6 2.7,-1 0,-3.4 1,-5 h 0.8 c 0.1,0.6 0.1,1.4 0.5,1.9 0.8,1.2 1.5,3 3.5,2.3 1.9,-0.6 2,-2.2 1.6,-3.8 -0.1,-0.4 0,-0.8 0,-1.2 0.8,0.5 1.6,0.3 2.4,0 -0.6,1.9 -0.1,3.4 1.7,4.2 2,0.9 2,-1.1 2.6,-2 1.2,-1.7 1.7,0.1 2.4,0.4 2.9,1.5 4.5,1 4.2,-2.6 0.8,0.5 1.6,0.4 2.4,0.1 -0.5,1.9 0.4,3.1 2.2,3.4 2.1,0.4 2.2,-1.3 2.4,-2.7 0.6,0.3 1.1,0.5 1.7,0.8 0.9,1.4 2,1.9 3.5,1.1 1.9,-1 0.2,-2.2 0.3,-3.4 2.4,0.4 0.9,6.1 4.8,3.9 3.5,-2 -0.4,-3.9 -0.9,-5.8 -0.6,-2.5 -2.7,-2 -4.1,-1.4 -2.4,1 -0.1,2.3 0.2,3.4 -1.3,-0.5 -2.3,0.1 -3.3,1 -0.1,-1.9 1.5,-4.4 -1.3,-5.3 -1.9,-0.6 -3,0.9 -3.3,2.8 -0.6,0.3 -1.1,0.6 -1.7,0.9 0,-0.4 0,-0.8 -0.2,-1.1 -0.7,-1.7 -1.9,-2.6 -3.6,-1.7 -2.1,1.1 0,2.1 0.3,3.1 0.1,0.4 0.3,0.7 0.4,1.1 -1.2,-1.3 -2.9,-1.9 -4.1,-3.6 -2.3,-3.1 -4.5,-0.4 -6.1,2 -0.3,-1.3 0.3,-3.2 -1.8,-3.4 -1.1,-0.1 -2.8,0 -3.2,0.6 -0.9,1.3 1,2.1 1.4,3.3 0.1,0.4 0.3,0.7 0.4,1.1 -1.3,-0.7 -2.1,-2.5 -4,-1.5 -0.1,-1.3 0.9,-3.4 -1.9,-2.9 -1.6,0.3 -4,-0.2 -2.7,2.9 -0.6,0.1 -1.2,0.2 -1.8,0.2 -0.1,-1.5 0,-3.2 -2.2,-3.3 -1.7,-0.1 -3.1,0.1 -3.1,2.3 -1.1,0 -1.6,0.7 -2.3,1.3 -0.6,-1.1 1.3,-3 -1,-3.4 -1.4,-0.2 -2.9,0 -3,2 -1.9,-1 -2.2,1 -3.2,1.7 -0.1,-1.5 -0.2,-3.2 -2.2,-2.9 -1.8,0.3 -0.9,1.8 -0.8,2.8 -1.1,-0.7 -2.2,-1.4 -3.2,0 -0.1,-1.3 0.1,-2.7 -1.8,-2.9 -1.5,-0.1 -2.1,0.7 -2,2.1 -1.5,-1.1 -2.4,-0.1 -3.3,0.9 0.1,-2.1 -0.8,-3.8 -3,-3.8 -2.2,0 -0.7,1.8 -0.9,2.8 -0.8,-0.3 -1.6,-0.3 -2.3,0 -1.7,-3.8 -3.2,-1.6 -4.7,0.2 -2.6,-0.5 -2.5,2.5 -4.2,3.2 0,-1.2 1.9,-2.6 -0.2,-3.5 -0.7,-0.3 -2.2,-1.1 -2.6,0.3 -0.7,2.4 -2.6,1 -3.1,0.6 -2.2,-2 -3.7,-2 -4.9,0.9 -2.6,-2.3 -5.1,-4.7 -5,-8.4 -2.1,2.5 -2.7,6.3 -1.4,9.1 -1.3,-0.3 -2.7,-1.4 -3.9,0.2 -0.2,-2.6 -1.9,-2.6 -3.8,-2.1 -1.1,0.3 -2.1,0.8 -3.2,1.2 -1.5,-2.2 -4.9,-3.2 -3.5,-7.3 -4.1,2.6 -1.3,5.1 -1.2,7.5 -1.4,-1 -2.3,-0.1 -3.3,0.7 0,-0.5 0.1,-1.1 -0.1,-1.6 -0.7,-1.7 -1.9,-4.1 -3.7,-3.5 -2.1,0.7 -0.4,2.8 0,4.4 -1,-0.1 -2,-0.5 -2.8,0.6 -0.2,0.3 -1,1.1 -0.9,0.5 0.3,-2.4 -3.3,-2.9 -1.6,-6.2 -2.3,1.9 -2.2,3.6 -2.4,5.3 -1.4,-0.5 -2.7,-0.8 -3.2,-2.8 -0.5,-2 -2.8,-0.6 -4.3,-1.1 -0.5,-0.2 -0.7,1.4 -0.1,1.9 3.7,2.9 3.3,7.6 5,11.3 -3.2,-2.6 -3,1.9 -4.8,2.3 0.7,-1.9 1.5,-3.8 2,-5.8 0.8,-3.3 -1.1,-5.6 -4.3,-6 -0.2,-2.2 -0.8,-3.6 -1.4,-4.9 z m 67.8,-18.7 c 0.8,-0.1 1.6,-0.1 2.5,-0.2 -0.4,1.8 0.4,2.6 2.2,2.6 1.8,0 2.1,0.2 2,-1.1 -0.1,-1.8 -0.8,-3.3 -3,-3.3 0.4,-3.1 -1.8,-3.1 -3.7,-2.6 -2.6,0.6 -0.1,2.1 -0.2,3.2 0.1,0.4 0.2,0.9 0.2,1.4 -1.2,-0.5 -1.1,-3.9 -3.4,-1.8 -0.7,0.6 -2.2,2.2 -0.8,3.3 1.7,1.3 3.4,0.6 4.2,-1.5 z m -85.7,-3.2 c 1,1.8 2.5,2 3.8,0.8 1.4,-1.3 0.3,-2.7 -0.5,-4 -1.8,0.7 -1.5,3 -3.3,3.2 -0.8,-1.7 3.6,-4.2 -0.9,-5.2 0.5,-1.2 2.3,-1.3 2.1,-3.3 -2.7,1 -5.5,1.5 -4.3,5.4 -2.7,-0.6 -2,2.9 -4,3.2 0.2,-0.9 0.2,-1.9 0.6,-2.7 1.7,-3.2 -2.9,-3 -2.8,-5.5 0,-0.7 -0.7,0 -1,0.3 -2,1.7 0.4,3 0.4,4.6 0,1.6 0.6,0.9 0,1.5 -1.2,-0.6 -1.3,-3.2 -3.5,-2.2 -0.5,-1.4 0.7,-3.9 -0.7,-4.2 -1.3,-0.2 -3.4,-0.2 -4.8,1.1 -1.1,1.1 -0.5,2 0.2,3.1 0.4,0.8 0.6,1.7 0.9,2.5 -1.9,-1.9 -5.1,-2.9 -4.2,-6.6 0.2,-0.6 -0.3,-1.4 -1.4,-1.3 -2.5,0.3 -4,3 -2.8,5.1 0.6,1.1 1.1,2.4 1.7,3.5 1.7,2.8 4.5,2.9 7.1,0.4 2.2,-0.3 2.2,-3 4,-3.7 0.2,2 -1.7,3.1 -2.2,4.8 3.1,1.9 5.7,-0.2 8.5,-0.9 1.1,1.9 2.9,2.1 4.3,1.1 1.6,-1.2 -0.5,-2.8 -0.4,-4.2 1.6,0.6 2,2.3 3.2,3.2 z m 15,-0.7 c -0.2,1.7 0.5,2.4 2.2,2.2 1.4,-0.2 1.2,-1.1 0.8,-2 -0.9,-2.2 -2,-0.8 -3,-0.2 -0.1,-1.4 0,-2.8 -0.2,-4.2 -0.2,-1.2 -1.1,-1.8 -2.3,-1.4 -1,0.3 -2.5,0.8 -2,1.9 0.9,1.7 1.3,4.5 4.5,3.7 z m -120.9,-0.7 c -1.1,-0.2 -2,-2.4 -3.2,-0.5 -0.700003,1.2 -1.600003,2.7 -0.800003,4 0.800003,1.3 2.400003,1 3.600003,0.7 2.6,-0.7 0.7,-2.6 0.8,-3.9 3.7,0.5 2.4,-2.3 2.3,-3.8 -0.1,-1.2 -1,-3.2 -2.7,-2.5 -1.8,0.7 -2.1,2.5 -0.8,4.3 0.2,0.5 0.5,1.2 0.8,1.7 z m 112.2,2.2 c 0.6,1.1 1.6,0.6 2.5,0.6 0.9,0 2.2,0.1 2.4,-1.3 0.1,-0.7 -0.2,-1.3 -0.8,-1.6 -1.2,-0.7 -1.6,0.4 -2.2,1 -0.7,0.4 -1.3,0.9 -1.9,1.3 0.5,-1.3 1.1,-2.6 1.6,-3.9 0.6,-1.4 0.8,-2.8 0,-4.1 -0.4,-0.6 -1.1,-2.2 -1.8,-0.7 -0.6,1.2 -3.8,0.5 -2.3,2.6 1.4,1.9 1.4,4.2 2.5,6.1 z m -56.7,-3.1 c 2.4,1.8 2.5,-0.5 3,-1.7 0.5,-1.3 1.9,-2.7 0.2,-4.2 -0.6,-0.5 -1.2,-0.2 -1.8,-0.1 -4.6,1 -1.4,3.9 -1.4,6 -1,-0.4 -2,-2.1 -3.2,-0.3 -0.8,1.3 -2,2.6 -2.1,4 -0.1,1.1 1.7,0.7 2.6,0.7 1.9,-0.1 2.7,-1.3 2.6,-3.2 v -1.2 0 z m -8.4,-2.2 c -1.8,0.3 -1.8,2.6 -3.4,3.1 0.1,-0.4 0.1,-0.8 0.2,-1.1 0.6,-2.4 1.4,-5.3 -1.4,-6.5 -2.5,-1 -2.8,2.3 -4.2,3.6 -0.4,0.6 -0.7,1.3 -1.3,2.3 -0.3,-1.5 -0.3,-2.7 -0.7,-3.7 -0.5,-1.1 -0.9,-2.9 -2.6,-2.2 -1.5,0.7 -3.5,1.6 -2.5,4.1 0.3,0.7 0.6,1.4 0.9,2.2 -3.4,-3.2 -3.2,1.4 -4.8,2.2 0,-1.9 1.1,-3.8 0.4,-5.7 -0.6,-1.5 -1.6,-3 -3.4,-2.4 -1.1,0.4 -2.4,2 -1.7,3.1 1.3,1.9 1.7,4.7 4.7,5 -0.3,1.4 -0.1,2.7 1.7,2.7 1.8,0.1 4.1,0.8 4.6,-2.1 1.6,2.8 4.5,2.3 6.7,1.7 2,-0.5 0.1,-2.7 0.3,-4.1 0.8,0.7 1.7,1.5 2.5,2.2 0.2,0.7 0,1.5 1.1,1.7 3.2,0.7 4,-0.3 3.5,-4.8 1.4,1.7 2.6,2.6 3.7,-0.3 0.8,-2.2 0.8,-4.7 -1.3,-5.4 -1.9,-0.6 -2.3,2 -2.9,3.6 -0.2,0.2 -0.1,0.5 -0.1,0.8 z m -28.5,3.8 c 0,1.2 -0.7,2.8 1.3,3 1.5,0.2 3.2,0.5 4.4,-0.7 0.9,-1 0,-2.2 -0.5,-3.2 -1.3,-2.2 -2.7,-3.9 -4.1,0 -0.2,0.3 -0.8,0.6 -1.1,0.9 0.1,-0.7 0.3,-1.5 0.5,-2.2 0.4,-1.8 0.6,-3.5 -0.9,-5 -2,-1.9 -2.8,0.7 -4.3,1 -0.5,0.1 -1,0.3 -1.5,0.4 -0.6,-0.3 -1.3,-0.4 -1.8,-0.8 -1.3,-0.9 -2.3,-2.2 -3.9,-0.3 -1.4,1.6 -1.2,2.9 0.1,4.4 0.9,1.1 1.7,2.3 2.4,3.6 1.4,2.6 3.8,2.6 6.1,1.9 2.7,-0.9 0.8,-3 0.8,-4.6 0.9,0.4 1.7,1 2.5,1.6 z m 53.5,0.1 c 2.7,-1 5,-4.9 4.3,-7.2 -0.3,-1.1 -1.2,-1.7 -2.2,-2 -1.2,-0.4 -1.5,0.7 -2.2,1.2 -2.8,1.8 -0.6,3.9 -0.5,5.9 -1.5,-1.1 -2.9,-2.7 -4.3,0.1 v -3.1 c -0.1,-1.4 0.1,-3.2 -1.6,-3.7 -1.7,-0.5 -2.8,1.2 -3.9,2.2 -1.2,1 0.2,2.4 0.1,3.7 -3.8,-1.3 -2.3,2.7 -3.8,3.9 -0.7,0.5 0.2,1.2 1.1,1.3 1.9,0.2 4,0.8 4.1,-2.3 1.2,1.2 2.2,0.7 3.3,-0.2 0.1,1.7 1,2.6 2.6,2.6 1.6,0 2.9,-0.6 3,-2.4 z m -72.9,31.5 c -0.1,2.4 -0.5,4.9 -0.4,7.3 0.1,1.2 1.1,2.6 2.6,2.4 1.8,-0.3 1.5,-1.9 1.2,-3.1 -0.3,-1.5 -0.9,-2.9 -1.4,-4.4 2.7,2.2 3.3,0.4 3.2,-1.9 -0.1,-2.5 0.5,-6.2 -2.8,-6.2 -3.3,0 -2.6,3.4 -2.4,5.9 z M 27.915917,94 c 2.6,2.9 6.1,3.3 9.7,3.7 -3.3,-1.2 -6.5,-2.5 -9.7,-3.7 -2.2,-1.4 -3.6,-3.5 -5.6,-6.1 4.3,1.8 7.6,4.2 11.5,5.2 10.7,2.9 21.3,6.3 32.7,5.6 0.9,-0.1 2.4,-0.6 2.6,0.8 0.2,1 -1.6,0.4 -1.9,1.3 1.9,0.9 4.4,0.6 5.5,2.7 1.3,2.5 -0.5,3.8 -2.1,5.2 -0.5,0.4 0,1 0.4,1.3 0.6,0.4 0.9,0.4 1.6,-0.2 2.8,-2.5 2.2,-5 0.5,-7.6 -4.5,-7 -9,-14.1 -15,-20 -1.4,-1.4 -3,-2.7 -3.8,-5.1 0.8,0.3 1.2,0.3 1.5,0.5 6.6,6.1 11.9,13.2 16.7,20.6 1.8,2.9 4.9,5.2 4.8,9.2 0,1.4 1,1.8 2.5,1.5 4.9,-0.9 6.4,-4.4 3.1,-8.6 -3.9,-4.8 -7.9,-9.4 -10.9,-14.8 -2.1,-3.7 -4,-7.7 -7.6,-10.4 -0.6,-0.4 -0.8,-1.5 -2.2,-1.1 -2.4,0.8 -4.3,0 -6,-2.2 -2.1,-2.7 -8.1,-2.8 -9.9,-0.5 4.2,1.5 4.3,5.3 4.3,8.6 0,3.3 -2,5.6 -5.4,6.4 -2.7,0.6 -5.3,1.3 -8.1,1.8 -4.3,0.7 -8.5,1 -12.6,-1.3 -6.1,-3.5 -8.1,-10.3 -4.4,-16.2 0.4,-0.7 1.5,-1.1 1.1,-2.3 -2,-0.2 -3,1.8 -5,1.7 8.8,-5.2 18.4,-8.4 29,-10.8 -1.9,-0.7 -3.1,-0.4 -4.2,-0.2 -9.1,1.7 -17.9,4.2 -26.4,7.8 -3.8,1.6 -7.9000003,2.8 -10.3000003,6.6 v 0 c -3.50000005,3.1 -3.3,4.2 0.6,6.6 4,2.5 8.8000003,3.2 12.2000003,7.2 2.6,3.3 6.3,6 10.8,6.8 z m 53.2,-12.7 c -3.5,-2 -4.9,-6.4 -9.5,-6.6 -1,0 -2.1,1 -2.8,0 -0.6,-0.7 -0.8,-1.8 -1.9,-0.6 -0.9,1 -0.1,1.6 0.5,2.3 5.8,6.5 9.7,14.4 15.6,20.9 3.9,4.3 5.3,5.2 10.5,2.5 1.7,-0.9 2.1,-2.1 1.3,-3.9 -2.8,-5.9 -6.5,-11.3 -10.5,-16.4 -0.6,-0.8 -1.3,-1.9 -2.5,-1.4 -1.6,0.6 0,1.9 -0.7,3.2 z m -43.7,-4 c -0.2,-6 -3.5,-9.9 -8.4,-9.7 -3.5,0.1 -7.2,4.7 -7.1,8.6 0.2,4.8 4.8,9.9 8.8,9.7 2.9,-0.1 6.8,-5.2 6.7,-8.6 z m 103.600003,32 c -8.5,-2.5 -16.7,-5.9 -25.6,-7.3 -1.8,-0.3 -3.6,-0.2 -5.5,-0.1 -2.3,0.1 -2.2,1.9 -2.3,3.4 -0.1,1.7 1.2,1.8 2.4,1.8 10.4,0 20.6,1.6 31,2.2 z m -43.500003,-5.8 c -0.5,-0.7 -0.2,-2.2 -1.8,-2.5 -3.8,-0.7 -10.9,5.8 -10.6,9.6 0.1,1.4 1.1,1.4 2,1 3,-1.5 6,-3.1 8.8,-4.8 1,-0.7 1.7,-1.8 1.6,-3.3 z m -52.9,-25.6 c -0.8,-2 -1.3,-4.2 -4.2,-6 1.3,5 0.3,9 -2,13.1 2.6,0.1 3.4,-1.4 4.4,-2.5 0.8,-0.9 1.6,-1.8 3,-1.3 2.9,1.1 3.3,-0.6 2.7,-2.7 -0.4,-1.4 0,-3.1 -0.9,-4.3 -2.5,0.3 -0.5,3.2 -3,3.7 z m 164.600003,35.7 c 0,-0.4 0.1,-0.9 0.1,-1.3 -5.3,0.1 -10.2,-1.4 -15.4,-2 -1,-0.1 -2.9,-1.4 -2.6,1.3 0.2,1.6 -0.4,3.7 2.4,3.4 5.1,-0.5 10.3,-1 15.5,-1.4 z m -2.7,-67.8 c 2,-9.8 3.5,-19.6 5,-29.5 -2.6,9.6 -4.9,19.4 -5,29.5 z m -4.3,-0.5 c 0.5,0.1 1,0.1 1.5,0.2 1.2,-9.6 2.3,-19.3 3.5,-28.9 -2,9.5 -4.7,19 -5,28.7 z m 16.4,-22.4 c -2,7.5 -3.9,15.1 -5.9,22.6 -0.2,0.7 -0.4,1.8 0.5,2 1.3,0.4 1.5,-0.8 1.6,-1.7 1,-7.6 3.3,-15.1 3.8,-22.9 z m -3.9,-0.7 c -2.5,8 -4.2,16.1 -4.5,24.4 2,-8 2.8,-16.3 4.5,-24.4 z M 48.015917,64.1 c 1.2,-0.3 1.8,-1.7 2.7,-1 1.9,1.5 3.1,0.4 4,-1 0.7,-1.1 -0.5,-2.3 -1.3,-3 -1.3,-1.2 -2.9,-0.5 -4.3,0.2 -0.8,0.4 -0.2,2.2 -1.5,1.6 -1,-0.5 -2.1,-0.6 -2,0.6 0,1.2 1.4,2.1 2.4,2.6 z M 272.91592,66 c -2.1,-2 -2.8,-0.1 -3.7,1.4 -0.3,0.5 -0.9,1.3 -0.1,1.7 1.3,0.5 3,1.2 3.9,-0.2 0.8,-1.3 2.5,-1.4 3,-2.9 0.3,-1.1 1.5,-2.1 0.7,-3.2 -0.9,-1.2 -2.2,0 -3.1,0.2 -2.3,0.5 0.7,1.8 -0.7,3 z m -50.2,-36.8 c -2.4,6.1 -5.4,12 -5.7,18.6 0.4,0.1 0.7,0.2 1.1,0.3 1.5,-6.3 3,-12.6 4.6,-18.9 z m -98,53.4 c 0.6,-1.8 1,-3.5 -0.3,-4.5 -1.5,-1.2 -1.5,-1.6 0.2,-2.2 0.7,-0.2 1.3,-0.8 0.6,-1.3 -1,-0.6 -2.2,-1.2 -3.6,-0.8 -0.8,0.2 -1.4,0.3 -1.1,1 0.9,2.6 0.3,6.2 4.2,7.8 z M 99.215917,62.7 c 0.2,-2.3 -0.7,-3.9 -2.7,-3.9 -2,0 -3.1,1.2 -2.8,2.6 0.4,1.9 2.3,3.4 4,3.9 1.7,0.4 1.3,-1.8 1.5,-2.6 z m 9.700003,5.8 c 1.1,-0.4 3.2,0.3 2.9,-2 -0.2,-1.7 -1.2,-3.7 -2.9,-3.6 -2.1,0.1 -2.1,2.7 -2.5,4.3 -0.5,2 1.5,0.8 2.5,1.3 z m 176,63.3 c -1.4,-5.4 -2.9,-10.8 -4.3,-16.2 -0.3,0.1 -0.6,0.2 -0.9,0.3 0.7,5.5 2.4,10.8 5.2,15.9 z M 29.415917,65.1 c 4,1.3 6.9,2.4 9.1,4.8 0.5,0.6 1.7,1.2 2.2,-0.1 0.5,-1.1 -0.6,-1.2 -1.3,-1.4 -1.2,-0.5 -2.2,-1.2 -3,-2.3 -1.4,-2 -3.6,-2.5 -7,-1 z m 58.6,-5.8 c -1.3,0.4 -2.2,1.5 -2.1,2.8 0.2,1.6 1.9,2.2 3.2,2.4 1.5,0.2 1.5,-1.1 1.5,-2.2 0,-1.6 -0.7,-2.7 -2.6,-3 z m -26.9,43.7 c 2.8,1.1 5.2,2.6 8.2,2.3 0.6,-0.1 0.5,-0.9 0.1,-1.3 -2.3,-1.9 -5.1,-2.1 -8,-1.8 0,0.1 0,0.3 -0.3,0.8 z M 226.51592,61.8 c 2.1,1.3 2.4,3.3 3.7,4.9 1.3,-1.6 2.7,-3 1.5,-4.9 -1.2,-1.9 -3,-1.2 -5.2,0 z m 60.1,51.8 c -0.3,0.1 -0.7,0.2 -1,0.4 1.4,4.8 2.8,9.6 5.6,13.9 -1.5,-4.8 -3.1,-9.6 -4.6,-14.3 z m -188.500003,2.9 c 1.4,-0.1 2.300003,-1 2.500003,-2.4 0.2,-1.2 -0.1,-2.6 -1.500003,-2.7 -1.5,-0.1 -2.6,1.1 -2.9,2.6 -0.1,1.2 0.5,2.2 1.9,2.5 z M 374.21592,92.2 c 0.3,-1.7 3.1,-2.9 1.1,-4.7 -0.8,-0.7 -2.7,-1.4 -3.5,0 -1.4,2.3 1.4,3.1 2.4,4.7 z m -193.7,-25.3 c 1.1,-0.4 3,0.4 2.9,-1.7 -0.1,-1.3 -0.5,-3.4 -2.1,-3.2 -1.4,0.2 -2.1,2.2 -2.5,3.6 -0.5,1.4 0.8,1.3 1.7,1.3 z m 43.5,-28.8 c -1.7,3.5 -3.1,7 -3,10.9 1.9,-3.5 2.9,-7.1 3,-10.9 z m 31.2,30.6 c 1.1,-0.3 2.8,0.2 2.6,-1.5 -0.1,-1.2 -0.8,-2.9 -2.2,-2.8 -1.5,0.1 -1.9,2 -2.3,3.2 -0.5,1.3 1.1,0.8 1.9,1.1 z m 21.2,47.5 c 0.6,4.6 1.6,9 3.6,13.2 -1,-4.5 -1.2,-9.1 -3.6,-13.2 z m 30.9,-18.5 c -1,1 -1.9,2.2 -2.2,3.7 -0.2,1.2 0.5,1.6 1.6,1.5 1.9,-0.1 2.3,-1.5 2.5,-2.9 0.2,-1.1 -0.5,-1.9 -1.9,-2.3 z m -78.3,-60.5 c -2.2,3.7 -4.3,7.5 -3.9,12.1 1.3,-4.1 2.6,-8.1 3.9,-12.1 z m 7.6,23.2 c -0.7,0.2 -2,0.3 -1.5,1.5 0.5,1.4 1,3.2 2.7,3.3 1,0.1 1.2,-1.5 1.4,-2.5 0.2,-1.7 -1.1,-2.1 -2.6,-2.3 z m 69.2,5.9 c 0.3,-1.5 -0.7,-2.1 -1.9,-2.5 -1,-0.3 -2,0.1 -2.1,1.1 -0.1,1.4 0.5,3.1 1.8,3.6 1.3,0.5 1.7,-1.2 2.2,-2.2 z m -173.1,17 c 0.5,-2.2 2,-3.8 0.4,-5.4 -0.9,-0.9 -2.8,0 -3.1,0.7 -0.8,2 1.3,2.9 2.7,4.7 z m -92.100003,19 c -3.3,-1.7 -6.7,-2.9 -11.4,-2.4 4.2,1.8 7.8,2.1 11.4,2.4 z M 307.31592,71.5 c 1.4,-0.1 2.2,-0.7 2.1,-2.2 -0.1,-1 0.2,-2.4 -1.3,-2.3 -1.5,0.1 -2,1.5 -2.3,2.8 -0.2,1.1 0.4,1.7 1.5,1.7 z m -91.3,16.9 c 4.1,-0.9 3.4,-3.6 2.9,-6.9 -1.8,2.3 -3.3,4.1 -2.9,6.9 z m 96.1,-16.2 c 2.1,-0.3 4.1,0.5 4.8,-1.6 0.3,-1 -0.4,-2.4 -1.5,-2.4 -1.9,0 -2.5,1.9 -3.3,4 z M 51.615917,107.3 c -3.6,-2.7 -8,-1.7 -12,-2.9 3.8,1.9 7.9,2.3 12,2.9 z M 146.71592,78.2 c -0.8,0.2 -2.3,-1.2 -2.2,0.8 0.1,1.3 1.1,2.4 2.6,2.5 1.3,0 1.8,-1 1.8,-2.1 0,-1.8 -1.2,-1.4 -2.2,-1.2 z m -15.8,-2.4 c 1,-0.2 2.4,0.2 2.6,-1.2 0.2,-1.3 -0.9,-1.8 -2.1,-1.5 -1,0.2 -2.7,-0.4 -2.8,1.3 0,1.4 1.4,1.3 2.3,1.4 z m 152.9,38.9 c -0.3,0.1 -0.6,0.2 -0.9,0.2 1,3.6 1.9,7.1 2.9,10.7 0.2,-0.1 0.5,-0.1 0.7,-0.2 -0.9,-3.5 -1.8,-7.1 -2.7,-10.7 z m 42.1,-42.7 c 2.3,0.1 3.8,1.2 4.9,-0.4 0.6,-0.9 -0.1,-2 -0.8,-2.3 -2.2,-0.9 -2.4,1.3 -4.1,2.7 z M 97.315917,67.6 c -1.7,-2.3 -2.4,-3.9 -4.6,-3.9 -2.2,0 -0.7,0.6 -0.6,0.8 0.5,2.1 2.3,2.3 5.2,3.1 z M 243.21592,66.3 c -0.6,-0.7 -1.1,-1.9 -1.9,-2.2 -1,-0.4 -1.4,0.8 -1.8,1.6 -0.5,1.2 0.3,1.8 1.3,1.6 0.8,-0.1 1.9,0.3 2.4,-1 z M 85.415917,65.9 c 0.7,2 2,2.8 3.6,3.1 0.2,0 0.6,-0.6 0.6,-0.8 -0.7,-1.7 -2,-2.4 -4.2,-2.3 z"
     id="path1"
     style="fill:#000000;fill-opacity:1" />
  <path
     class="st0"
     d="m 4.2159167,73.5 c 2.7,-0.1 5.6,0.5 6.7000003,-3.1 0.2,-0.7 1,-1.9 2,-1 0.9,0.8 1.1,2.1 0.4,3.2 -1.4,2.2 -6.5000003,2.6 -9.1000003,0.9 z"
     id="path2"
     style="fill:#000000;fill-opacity:1" />
  <path
     class="st0"
     d="m 129.31592,93.8 c 1.5,-0.4 1.4,-2.2 2.4,-3 -0.2,2.9 -2.1,6 0.7,8.7 -5.1,0.4 -2.4,-3.6 -3.1,-5.7 z"
     id="path3"
     style="fill:#000000;fill-opacity:1" />
  <path
     class="st0"
     d="m 160.81592,94.8 c -0.6,2.6 1.7,4 2.3,6.1 -1.9,-1.9 -3,-0.2 -4.1,1 0.4,-2.7 0.9,-5.3 0.2,-8 0.6,0.3 1.1,0.6 1.6,0.9 z"
     id="path4"
     style="fill:#000000;fill-opacity:1" />
  <path
     class="st0"
     d="m 35.315917,76.7 c 0,2.7 -1.4,4.5 -3.8,5.4 -2.4,0.9 -4.7,0.3 -6.3,-1.8 -1.6,-2.1 -1.4,-4.3 0,-6.5 1.9,-2.7 4.7,-0.9 7.1,-1.4 1.6,-0.5 2.7,2.2 2.9,4.3 z"
     id="path5"
     style="fill:#000000;fill-opacity:1" />
  <path
     class="st0"
     d="m 255.21592,94 c 0.8,-0.3 1.6,-0.6 2.4,-0.8 -3.1,3.7 0.5,6 1.8,8.8 -1.5,-0.2 -2.4,-3.6 -4.3,-1 -1.5,1.9 -3.1,4 -0.5,6.4 0.4,0.4 0.5,1.1 0.7,1.7 -4.8,-0.7 -3.3,-4.2 -3.2,-7.1 3.4,-1.8 2.8,-5.1 3.1,-8 z"
     id="path6"
     style="fill:#000000;fill-opacity:1" />
  <path
     class="st0"
     d="m 263.91592,94.8 c -1.7,3.2 1,4.9 2.4,7.1 -1.6,-0.1 -3.1,-2.9 -5.1,0 1.4,-2.4 -0.2,-5.5 2.7,-7.1 z"
     id="path7"
     style="fill:#000000;fill-opacity:1" />
  <path
     class="st0"
     d="m 218.21592,93.1 c 0.7,0.6 1.4,1.2 2.5,0.8 -1.6,4.3 0.7,7.1 3.8,9.6 0,1 0,2 0.1,3 -2.2,0.8 -2,3.7 -3.9,4.7 0.5,-2.3 2.3,-4.2 1.7,-6.7 -0.3,-1.5 -0.7,-3.1 -2.1,-4.1 -0.5,-0.4 -1.1,0 -1.2,0.5 -0.5,1.9 -3,3.3 -1.7,5.7 0.6,1 1.2,2 1.7,3 -2.7,-2.8 -3.2,1 -4.8,1.6 1.2,-3.1 1.7,-6.2 0.8,-9.5 1.4,1.4 2.1,0.6 2.8,-0.8 1.1,-2.5 0.9,-5.1 0.3,-7.8 z"
     id="path8"
     style="fill:#000000;fill-opacity:1" />
  <path
     class="st0"
     d="m 204.11592,93.9 c 0.8,-0.8 1.6,-1.6 2.4,-2.3 -1.9,3.8 -0.8,7.1 1.6,10.3 -1.9,-2 -3.6,-2.1 -4.7,0.7 0.2,-2.9 0.4,-5.8 0.7,-8.7 z"
     id="path9"
     style="fill:#000000;fill-opacity:1" />
  <path
     class="st0"
     d="m 171.01592,110.8 c 0.3,-2.5 0.5,-4.9 0.8,-7.4 3.2,-1.4 2.5,-4.5 3,-7.1 0.6,1.1 1.1,2.1 1.7,3.2 -1.9,1.9 -3,4.3 -3.6,6.9 -0.3,1.6 -0.8,3.1 -1.9,4.4 z"
     id="path10"
     style="fill:#000000;fill-opacity:1" />
  <path
     class="st0"
     d="m 182.11592,94.1 1.5,1.5 c -1.1,2.2 1.5,3 1.8,4.7 -1,-0.5 -2.1,-1.5 -2.8,0.4 -0.4,1.1 -1,2.2 -2.1,2.7 1.3,-3 1.7,-6.1 1.6,-9.3 z"
     id="path11"
     style="fill:#000000;fill-opacity:1" />
  <path
     class="st0"
     d="m 248.21592,94 c 1.1,-0.1 1.6,-1.1 2.3,-1.7 -2,3.6 -0.7,6.6 1.6,9.5 -1.5,-0.7 -2.8,-3.3 -4.8,-0.5 0.3,-2.4 0.6,-4.8 0.9,-7.3 z"
     id="path12"
     style="fill:#000000;fill-opacity:1" />
  <path
     class="st0"
     d="m 244.31592,102 c -1.1,-0.4 -2.1,-2.4 -3.3,-0.9 -1.1,1.4 -2.8,2.9 -2,5.1 0.3,1 0.9,1.8 1.4,2.8 -4.4,-1 -3,-4.6 -3.2,-7.4 0.9,0.9 1.7,1.2 2.2,-0.3 0.5,-1.4 1,-2.9 1.5,-4.3 1,1.7 2.9,2.9 3.4,5 z"
     id="path13"
     style="fill:#000000;fill-opacity:1" />
  <path
     class="st0"
     d="m 167.91592,110.5 c -3.5,-3 -3.2,1.5 -4.8,2.4 0.5,-3.5 2.1,-6.8 0.8,-10.4 2.1,0.6 2.1,-1 2.3,-2.2 0.2,-2.1 0.1,-4.1 0.2,-6.2 0.5,0.5 1,1 1.6,1.5 -0.1,1.2 0.2,2.3 0.8,3.3 -3.6,3.6 -3.6,7.5 -0.9,11.6 z"
     id="path14"
     style="fill:#000000;fill-opacity:1" />
</svg>
