<svg xmlns="http://www.w3.org/2000/svg" width="391" height="205" viewBox="0 0 391 205">
  <g id="Group_448" data-name="Group 448" transform="translate(-173 -4037)">
    <rect id="Rectangle_55" data-name="Rectangle 55" width="391" height="205" transform="translate(173 4037)" fill="#e5f4ff"/>
    <g id="Layer_1-2" transform="translate(286.583 4077.242)">
      <g id="Group_161" data-name="Group 161" transform="translate(0 0)">
        <path id="Path_249" data-name="Path 249" d="M131.247,91.753c0-.381.032-.762.064-1.143a2.128,2.128,0,0,1,.222-.984c0-.032.064-.1.064-.159,0-.159.127-.381-.064-.445s-.222.191-.254.318a7.107,7.107,0,0,0-.318,1.175c0,.286-.254.318-.476.413-.159.1-.572.1-.445.381s.349-.064.54-.1c.127-.032.222-.159.381-.1a.872.872,0,0,1-.508.318,2.213,2.213,0,0,0-.762.54c-.254.318-.349,0-.508-.1-.222-.159,0-.222.1-.318.127-.127.254-.222.381-.349a.336.336,0,0,0,.032-.413,3.426,3.426,0,0,1-.445-2.159.3.3,0,0,0-.064-.222.578.578,0,0,0-.286.826v.064c-.159.381.032.889-.286,1.27-.159.191-.191.318-.032.508.032.064.1.127,0,.222-.254-.064-.349-.286-.445-.476-.064-.191-.222-.286-.349-.159-.381.349-.762.064-1.016-.127-.381-.254-.572-.7-.889-.984-.476-.445-.254-1.016-.6-1.461-.1,0-.127.127-.127.222a2.122,2.122,0,0,1-.318.984.116.116,0,0,1-.127.127c-.1,0-.1-.1-.1-.191a.863.863,0,0,0,0-.286c-.032-.191-.159-.349-.349-.127-.286.349-.445.159-.635-.1a3.346,3.346,0,0,1-.508-1.619c-.064-.222-.159-.381-.381-.349a11.043,11.043,0,0,1-3.524-.7,3.1,3.1,0,0,1-.953-.349,4.545,4.545,0,0,0-1.365-.667,1.843,1.843,0,0,1-.6-.508c-.54-.572-1.048-1.175-1.651-1.715-.127-.127-.413-.254-.254-.508a.688.688,0,0,1,.762-.318,2.042,2.042,0,0,1,1.048.73,18.041,18.041,0,0,0,2.191,1.937,4,4,0,0,0,1.905.635c.667.127,1.3.445,1.969.6a1.166,1.166,0,0,0,.572.032.394.394,0,0,1,.476.127c.064.064.127.159.222.064.1-.064.064-.159.032-.254,0,0,0-.063-.032-.063-.54-.413-.508-.921-.381-1.524.127-.762.127-1.524.222-2.286,0-.191.222-.349.222-.54a1.911,1.911,0,0,1,.318-1.3.2.2,0,0,0-.032-.222c-.064-.064-.159,0-.222.032-.127.1-.159.286-.381.254.032-.254.222-.318.381-.445a.872.872,0,0,0,.413-.794c0-.413-.064-.826.286-1.111a.459.459,0,0,0,.064-.222.429.429,0,0,1,.222-.508,1.14,1.14,0,0,0,.349-.762c0-.063,0-.159-.064-.191-.286-.127-.159-.286,0-.381.222-.127.318-.286.1-.508a.342.342,0,0,1-.064-.254,1.1,1.1,0,0,0-.222-.826.819.819,0,0,1-.1-.667,11.822,11.822,0,0,0,.254-1.81c0-.381-.286-.667-.381-1.016-.032-.159-.222-.127-.349-.127a1.04,1.04,0,0,1-.984-.508c-.222-.381-.572-.191-.889-.127s-.159.349-.159.54c-.159-.064-.191-.222-.286-.318a.2.2,0,0,0-.222-.064.127.127,0,0,0-.064.191c.064.254.1.476-.318.508-.222,0-.413.889-.413,1.238,0,.953.413,1.842.381,2.794a3.644,3.644,0,0,1-.191,1.175.283.283,0,0,1-.159.254c-.159,0-.159-.127-.222-.254-.127-.286-.222-.6-.318-.889-.032-.064-.032-.191-.159-.191s-.1.127-.127.191a7.286,7.286,0,0,1-1.969,3.366,6.437,6.437,0,0,0-.413.572c-.1.159-.286.222-.413.349-.349.349-.889.381-1.207.667a6.04,6.04,0,0,0-1.556,1.556,2.322,2.322,0,0,1-.508.445c-.73.667-1.334,1.4-2.032,2.1-.635.635-1.334,1.238-2.032,1.842a.8.8,0,0,0-.1,1.3c.6.762,1.143,1.619,1.683,2.445.508.794,1.111,1.524,1.715,2.286.572.762,1.143,1.492,1.778,2.223a9.014,9.014,0,0,0,2.6,2.159,1.345,1.345,0,0,0,.857.1c.286-.064.54-.159.857-.222,0,.222-.191.254-.286.413.159.1.286,0,.413-.032a2.41,2.41,0,0,1,2.127.349,1.1,1.1,0,0,0,.762.191,1.462,1.462,0,0,1,1.175.318,2.3,2.3,0,0,0,1.3.54,1.851,1.851,0,0,1,.921.191c.159.064.222-.032.349-.127.73-.54,1.3-1.27,2.032-1.842.762-.635,1.492-1.334,2.191-2.032s.1-.1.159-.127.159-.127.254,0c.064.063,0,.159,0,.222-.54.572-.826,1.334-1.524,1.842a4.108,4.108,0,0,0-1.461,2.032,1.311,1.311,0,0,1-1.3.921,7.457,7.457,0,0,0-1.175.159.72.72,0,0,1-.857-.254.35.35,0,0,0-.318-.159,5.773,5.773,0,0,1-2.445-.159,28.334,28.334,0,0,0-3.239-.445H118.2c-.1,0-.191-.032-.191-.159s.159-.127.254-.127l1.619.286c.064,0,.127.064.191.064.159,0,.349,0,.413-.159.032-.159-.159-.222-.286-.254a5.063,5.063,0,0,0-1.524-.222c-.635,0-1.238-.159-1.873-.159a1.016,1.016,0,0,1-1.048-.73c-.064-.159-.127-.254-.286-.254a.7.7,0,0,1-.6-.413c-.191-.318-.445-.572-.635-.857-.508-.667-1.143-1.27-1.651-1.937a23.018,23.018,0,0,1-2.254-3.27c-.191-.413-.572-.7-.73-1.175,0-.063-.064-.127,0-.191h.1a32.433,32.433,0,0,0,2,2.667c.191.254.254.6.476.857a2.374,2.374,0,0,0,.762.476c.1-.127,0-.191-.064-.254-.953-1.556-2.191-2.985-3.112-4.541-.127-.191-.222-.318-.349,0s-.286.254-.476.254-.159-.222-.159-.349a.359.359,0,0,0-.445-.381c-.254.032-.349-.064-.445-.286a1.058,1.058,0,0,1,.349-1.3c1.238-1.111,2.477-2.254,3.683-3.4a20.762,20.762,0,0,0,2.159-2.254,17.644,17.644,0,0,1,1.588-1.492,16.412,16.412,0,0,0,3.143-3.493,2.355,2.355,0,0,0,.476-1.334c0-.127.032-.381-.254-.191-.064.032-.127.064-.159,0s0-.127,0-.191c.222-.413.127-.635-.286-.826a.2.2,0,0,0-.191,0,.119.119,0,0,0,0,.191c.064.063.127.1.159.159a.2.2,0,0,1,0,.191.12.12,0,0,1-.191-.032c-.127-.222-.254-.445-.127-.7a2.114,2.114,0,0,0,.064-.889c0-.286,0-.191-.127-.191s-.1.1-.1.191c.032.286-.064.413-.349.349-.191-.032-.254.063-.254.222.032.6-.413,1.143-.191,1.778.032.127-.032.191-.159.222a.543.543,0,0,0-.413.508.267.267,0,0,1-.127.222,7.319,7.319,0,0,0-1.461,1.81c-.254.413-.762.572-1.143.921-.73.7-1.619,1.238-2.413,1.873-.032.032-.1.1-.127.1-.635,0-.984.445-1.4.794-.762.6-1.683,1.016-2.477,1.619-1.651,1.3-3.461,2.477-4.985,3.937-.222.191-.254.318-.1.6a1.969,1.969,0,0,1,.413,1.334,1.247,1.247,0,0,0,.445,1.111,12.355,12.355,0,0,1,1.3,1.588c.318.413.826.667,1.08,1.143.381.667,1.143.953,1.619,1.588A9.812,9.812,0,0,0,109.5,95.5c.7.508,1.238,1.27,1.905,1.81,1.27.984,2.54,1.969,3.842,2.921a6.65,6.65,0,0,0,.54.445c.222.159.413.159.445-.159a.3.3,0,0,1,.349-.286,9.665,9.665,0,0,1,2.7.318c.572.159,1.175.222,1.715.413,1.207.445,2.477.667,3.683,1.08.1,0,.159.064.254.191a1.546,1.546,0,0,1-.381-.032,12.766,12.766,0,0,0-2.191-.191.628.628,0,0,1-.349-.064,3.937,3.937,0,0,0-1.715-.127,2.582,2.582,0,0,1-.984-.064.942.942,0,0,0-.508-.064,13.021,13.021,0,0,1-2.477-.191,4,4,0,0,1-1.048-.318,9.391,9.391,0,0,1-3.112-1.842,6.276,6.276,0,0,1-1.27-1.143c-.127-.191-.413-.159-.6-.286a7.827,7.827,0,0,1-1.3-1.207,2.516,2.516,0,0,0-1.08-.73.337.337,0,0,1-.286-.254,1.47,1.47,0,0,0-.54-.762,1.861,1.861,0,0,1-.54-.762,1.95,1.95,0,0,0-.794-1.016,7.978,7.978,0,0,1-1.175-1.143,1.915,1.915,0,0,0-.254-.254.193.193,0,0,0-.254,0,.165.165,0,0,0-.032.254c0,.064.064.1.1.159.159.286.572.381.445.889-.064.286.318.572.508.857a1.253,1.253,0,0,1,.191.476c.063.381.413.572.572.889.032.1.191.127.191.254-.064.349.159.572.318.826a23.176,23.176,0,0,0,1.81,2.445,16.558,16.558,0,0,0,1.905,1.429c1.143.857,2.413,1.492,3.524,2.35a4.128,4.128,0,0,0,2.858.762c2.286-.063,4.572.191,6.827.286.063,0,.159,0,.159.064,0,.1-.064.127-.127.191a1.766,1.766,0,0,1-.667.191,14.43,14.43,0,0,1-2.35.063h-1.778a5.329,5.329,0,0,0-1.873.381,2.63,2.63,0,0,1-1.905,0,4.487,4.487,0,0,0-.7-.191,3.574,3.574,0,0,1-2.127-1.3,4.054,4.054,0,0,0-1.111-.826c-.7-.318-1.27-.826-1.937-1.207a11.836,11.836,0,0,0-2.223-1.27,2.065,2.065,0,0,1-1.238-1.08,3.894,3.894,0,0,0-.54-1.016c-.063-.063-.127-.159,0-.222a.154.154,0,0,1,.191.1,3.469,3.469,0,0,1,.254.476,2.4,2.4,0,0,0,.667.826.3.3,0,0,0,.349.063c.127-.1.032-.222,0-.318-.127-.318-.286-.635-.413-.984a.17.17,0,0,0-.1-.127c-.667-.381-.826-1.111-1.175-1.683a.371.371,0,0,0-.191-.191c-.286-.1-.286-.254-.254-.54a.968.968,0,0,0-.445-.762,1.708,1.708,0,0,1-.762-.889c-.222-.667-.635-1.27-.889-1.937a5.64,5.64,0,0,1-.349-1.524.491.491,0,0,1,.349.476c0,.572.413,1.016.445,1.588,0,.159.159.191.318.127a.28.28,0,0,0,.159-.381c-.476-1.365-.7-2.794-1.143-4.16-.032-.159-.032-.381-.286-.349-.222,0-.191.254-.222.413v.064c0,.159.064.413-.1.413s-.191-.254-.191-.413c0-.476-.127-.953-.127-1.461a2.086,2.086,0,0,1,.667-1.461q1.1-.953,2.286-1.81c1.048-.762,2.159-1.461,3.239-2.191.286-.191.7-.127.921-.445a19.356,19.356,0,0,1,1.873-1.715,3.614,3.614,0,0,1,.794-.572.191.191,0,0,0,.127-.222c-.032-.1-.127-.064-.222-.064a1.208,1.208,0,0,1-.572-.1h-.191c-.762.381-1.683.349-2.445.794a7.693,7.693,0,0,0-1.429.762c-.159.127-.318.286-.508.286a4.79,4.79,0,0,0-1.842.572,5.806,5.806,0,0,0-1.238.667,4.911,4.911,0,0,1-1.143.6c-.222.1-.54.254-.445.476.1.254.349,0,.54-.032a2,2,0,0,0,.762-.413c.064-.032.127-.127.222-.032.064.063,0,.159-.032.191a13,13,0,0,1-2.445,2.318c-.349.191-.349.445-.1.762a1.881,1.881,0,0,1,.413,1.715,1.206,1.206,0,0,0,.064.667c0,.127.159.318,0,.381-.191.063-.254-.159-.318-.286a12.765,12.765,0,0,0-.7-1.492c-.127-.222-.254-.445-.381-.635a.785.785,0,0,1,.159-1.143,1.712,1.712,0,0,0,.445-.508,3.759,3.759,0,0,1,.953-1.048.141.141,0,0,0,.064-.191c-.127-.1-.254,0-.381.032-.921.54-1.905.889-2.794,1.461a14.1,14.1,0,0,1-1.556.762,2.288,2.288,0,0,0-1.143.984,3.022,3.022,0,0,1-.794.762.5.5,0,0,0-.222.476,2.719,2.719,0,0,0,.381,1.4.945.945,0,0,1,.159.476,4.18,4.18,0,0,0,.413,1.207,28.481,28.481,0,0,0,1.429,2.985c.381.6.6,1.27.953,1.905.635,1.143,1.365,2.223,2.1,3.3.381.572.667,1.143,1.08,1.715a10.126,10.126,0,0,0,1.4,1.905,2.723,2.723,0,0,1,.413.635,24.085,24.085,0,0,0,3.207,3.747c1.524,1.524,3.175,2.921,4.795,4.382.413.381.667.921,1.207,1.175.064.032.127.127.191.127.572,0,1.016.349,1.588.413a15,15,0,0,1,3.747.889c.1,0,.191.063.286.063a14.153,14.153,0,0,1,3.08.794,41.126,41.126,0,0,1,4.318,1.556c.064,0,.1.032.159.064.222.127.508.222.476.572s-.349.318-.572.381a6.7,6.7,0,0,1-2.635-.032,31.615,31.615,0,0,1-3.461-.635,32.259,32.259,0,0,1-3.4-1.048,5.23,5.23,0,0,0-1.016-.191,3,3,0,0,1-1.27-.413c-.508-.349-1.111-.286-1.651-.508A11.124,11.124,0,0,1,108,111.407a41.607,41.607,0,0,1-5.176-5.4,19.287,19.287,0,0,1-1.429-2.032c-.508-.826-1.016-1.683-1.556-2.508-.381-.635-.7-1.3-1.016-1.969a2.723,2.723,0,0,0-.413-.635,4.786,4.786,0,0,1-.794-1.175c-.127-.254-.413-.381-.54-.635-.254-.476-.476-.953-.7-1.429,0-.032,0-.1-.032-.1a3.267,3.267,0,0,1-.857-2.127,6.672,6.672,0,0,0-.667-1.651c-.445-1.048-.762-2.159-1.27-3.207a7.984,7.984,0,0,1-.381-.921c-.127-.318-.381-.381-.6-.1-.191.254-.286.127-.349-.064-.063-.254-.286-.508-.063-.794.063-.064,0-.191-.032-.254a3.1,3.1,0,0,1-.191-1.207.767.767,0,0,1,.318-.6,6.731,6.731,0,0,1,1.08-.857.858.858,0,0,0,.445-.984,2.2,2.2,0,0,1,.7-2.191.558.558,0,0,1,.6-.159c.254.127.159.349.127.572a6.834,6.834,0,0,0-.222,1.588c0,.191-.159.286-.222.445a1.611,1.611,0,0,0,1.143-.476,5.353,5.353,0,0,1,2.445-1.619,3.41,3.41,0,0,0,1.4-.794,12.318,12.318,0,0,1,2.794-1.619,2.464,2.464,0,0,1,1.048-.286c.127,0,.254,0,.318-.127a.349.349,0,0,1,.445-.1c.159.063.286-.032.413-.1a9.818,9.818,0,0,1,2.6-1.08,2.328,2.328,0,0,0,1.4-.857,1.484,1.484,0,0,1,.445-.445,2.718,2.718,0,0,0,.73-1.048.674.674,0,0,0-.1-.73c0-.064-.064-.1-.127-.064-.032,0-.064.064-.1.127,0,.794-.73,1.27-1.016,1.937-.032.1-.159.159-.254.191-.127,0-.286.1-.349-.032-.063-.1.032-.191.1-.286a8.977,8.977,0,0,0,1.27-2.667c0-.1.1-.159,0-.286-.222.349-.635.508-.762.953a.667.667,0,0,1-.54.349.54.54,0,0,0-.413.318,8.831,8.831,0,0,1-4.223,3.651.3.3,0,0,1-.413-.1.312.312,0,0,1,.127-.413,3.423,3.423,0,0,1,1.111-.6,4.063,4.063,0,0,0,2.1-1.175c.127-.159.349-.381.159-.54s-.413.063-.54.222a3.692,3.692,0,0,1-.572.635.563.563,0,0,1-.54.159.533.533,0,0,0-.445.191,7.757,7.757,0,0,1-2.254,1.08,3.1,3.1,0,0,1-1.524.381c-.159,0-.318.159-.508.222-.762.349-1.556.572-2.318.889A17.9,17.9,0,0,0,94.764,80.1c-.54.318-1.111.572-1.651.857a14.437,14.437,0,0,0-2.032,1.4.764.764,0,0,0-.191.254c-.476,1.365-.953,2.762-1.334,4.16a10.263,10.263,0,0,0-.413,2.191c-.191,2.635-.794,5.207-1.175,7.811-.19,1.3-.286,2.635-.381,3.969a2.615,2.615,0,0,1-.127,1.111.486.486,0,0,0,.063.413,15.837,15.837,0,0,1,1.556,2.667,28.016,28.016,0,0,1,1.873,4.1c.1.254.286.54.032.73-.191.159-.476-.032-.7-.159a3.374,3.374,0,0,1-.953-.826c-.413-.413-.826-.794-1.238-1.207a5.6,5.6,0,0,1-1.873-3.588,4.15,4.15,0,0,0-.381-1.588,3.358,3.358,0,0,1-.063-2.1c.286-1.524.54-3.016.857-4.541a16.171,16.171,0,0,1,.6-2.445c.032-.127.064-.286.1-.413.127-1.588.508-3.112.667-4.7a14.353,14.353,0,0,1,.794-3.048c.286-.857.54-1.746.889-2.572.032-.1.063-.222,0-.286-.286-.222-.127-.445,0-.7a3.943,3.943,0,0,1,1.651-1.651,19.459,19.459,0,0,1,3.429-1.524l2.953-1.143c.381-.159.222-.445.127-.667-.1-.254-.286-.063-.445,0a1.165,1.165,0,0,0-.635.445,1.8,1.8,0,0,1-1.143.572c-.1,0-.191.032-.254-.064-.063-.127.064-.191.159-.222a3.793,3.793,0,0,0,.826-.349,9.636,9.636,0,0,0-1.334.191,13.862,13.862,0,0,1-2,.349,19.247,19.247,0,0,0-2.223.6c-.191.032-.381.127-.572.159a1.629,1.629,0,0,0-1.4,1.556,3.318,3.318,0,0,1-.794,1.683c-.063.1-.191.063-.286.063-.318,0-.476.159-.413.476.032.349-.1.508-.476.445-.159,0-.159.1-.191.191-.1.381-.191.73-.286,1.111a.808.808,0,0,1-.445.572.821.821,0,0,0-.349.381c-.445.73-.889,1.492-1.334,2.223a4.2,4.2,0,0,1-.635,1.016c-.191.191-.1.635-.063.953a1.81,1.81,0,0,1,0,.921c-.191.508-.159,1.111-.635,1.524-.222.191-.191.54,0,.889-.381-.159-.445.064-.508.318a6.968,6.968,0,0,1-.635,1.4,12.485,12.485,0,0,0-.7,2.1c-.064.191-.1.413-.159.6s-.159.254-.318.064a1.569,1.569,0,0,1-.445-.953,1.012,1.012,0,0,0-.254-.762,1.4,1.4,0,0,1-.159-.889c0-.857.191-1.715.254-2.572.032-.667.445-1.207.445-1.842s.349-.508.54-.794c.222-.381.254-.889.6-1.207.381-.349.191-.889.413-1.3a2.184,2.184,0,0,0,.1-.254c.286-.476.286-.508-.286-.508,0-.222.191-.222.349-.254a1.007,1.007,0,0,0,.667-.572,2.124,2.124,0,0,1,.445-.6c.1-.127.222-.254.063-.381a.314.314,0,0,0-.445.063,2.578,2.578,0,0,1-.318.286,2.659,2.659,0,0,1,.635-.921,2.6,2.6,0,0,0,.984-1.334.137.137,0,0,1,.127-.127,5.933,5.933,0,0,0,1.746-1.588c.445-.572,1.016-1.016,1.461-1.524a11,11,0,0,1,1.016-1.08c.635-.508,1.111-1.238,2-1.4.7-.127,1.365-.381,2.1-.476a17.294,17.294,0,0,0,2.508-.7,6.339,6.339,0,0,1,2.286-.54,5.19,5.19,0,0,0,1.492-.508c.191-.064.349-.127.508-.191.063,0,.127-.1.1-.191-.032-.063-.127-.032-.191,0H99.3c-.191.1-.476.286-.572.032-.1-.222.254-.286.413-.381a2.626,2.626,0,0,1,.413-.222.3.3,0,0,0,.191-.318.837.837,0,0,1,.063-.857c-.286.254-.508.508-.921.413-.032-.254.318-.381.222-.762-.159.222-.318.413-.445.572-.159.222-.286.286-.413,0-.032-.127-.1-.222-.254-.159-.286.1-.286-.032-.254-.254a2.57,2.57,0,0,0,0-.7c-.222.159-.286.413-.413.6-.159.254-.349.349-.6.127-.032-.032-.1-.1-.127-.1-.318.222-.7.063-1.016.159-.54.191-1.048.381-1.588.572-.794.286-1.556.635-2.35.984-.381.159-.826.254-1.238.381-.159.063-.349.1-.413.286-.159.476-.572.508-.953.54a.522.522,0,0,0-.572.381c-.032.191-.254.254-.381.381a26.582,26.582,0,0,1-1.969,1.81c-.349.286-.7.572-1.016.889a20.713,20.713,0,0,0-1.588,1.746,4.885,4.885,0,0,0-1.08,1.556c-.127.318-.508.381-.667.667-.413.7-.984,1.3-1.429,2a10.4,10.4,0,0,1-1.238,1.619c-.476.476-.191.286-.286.445-.032.1-.063.191-.127.222-.762.572-1.048,1.492-1.619,2.191a2.738,2.738,0,0,0-.349.889c-.032.127-.032.286-.191.254-.127,0-.127-.191-.159-.286V88.9a6.2,6.2,0,0,1,.572-1.683,3.571,3.571,0,0,0,.318-.984,16.291,16.291,0,0,1,1.3-2.572,1.288,1.288,0,0,0,.159-.286c.1-1.08.984-1.334,1.746-1.651.54-.222.572-.191.476-.73a.424.424,0,0,1,.191-.476c.857-.762,1.746-1.524,2.54-2.381a23.807,23.807,0,0,0,2.572-2.477c.508-.73,1.334-.984,1.969-1.556.063-.063.191-.127.254-.191.349-.984,1.3-1.08,2.1-1.461a11.418,11.418,0,0,0,2-.921.876.876,0,0,0,.381-.381.72.72,0,0,0-.572.222,2.947,2.947,0,0,1-1.334.572c-.127,0-.286.063-.349-.127a.282.282,0,0,1,.191-.318,1.529,1.529,0,0,0,.508-.381c.127-.191.1-.318-.159-.318s-.6,0-.73.381-.54.349-.921.476c.064-.254.318-.286.381-.508-.254,0-.508-.063-.762-.063s-.222.159-.159.318c.064.222,0,.286-.222.381a1.93,1.93,0,0,1-1.111.191c-.857,0-1.619.476-2.477.413-.381,0-.7-.318-1.111-.254-.032,0-.064-.064-.064-.127a.2.2,0,0,1,.191-.191c.381,0,.381-.254.349-.54,0-.064.063-.159-.032-.191a.247.247,0,0,0-.254.063c-.381.73-1.175.762-1.842,1.016a1.007,1.007,0,0,0-.667.572,5.409,5.409,0,0,0-.476,1.588c-.032.413-.413.667-.54,1.08a26.111,26.111,0,0,1-1.334,2.667,4.293,4.293,0,0,0-.349,1.08.484.484,0,0,1-.222.381c-.064.032-.127.1-.222.063a.142.142,0,0,1-.1-.191,11.443,11.443,0,0,1,.635-2.1,2.612,2.612,0,0,0,.413-1.175A3.377,3.377,0,0,1,79.9,75.02c.127-.222.1-.54.191-.762a7.623,7.623,0,0,0,.381-1.4,3.306,3.306,0,0,1,.572-.953,1.577,1.577,0,0,1,1.4-.572c-.445,0-.921-.127-1.3.254a4.021,4.021,0,0,1-.794.667.464.464,0,0,1-.381.127c.063-.286.349-.381.508-.54s.286-.159.159-.318a.289.289,0,0,0-.381,0,.843.843,0,0,0-.508.7v.222c-.063.159-.063.445-.254.445s-.063-.286-.063-.445A.378.378,0,0,0,79.3,72.1a1.543,1.543,0,0,0-.1.921.376.376,0,0,1-.222.508c-.032,0-.1.032-.1.064-.1.508-.572.73-.826,1.111a.753.753,0,0,1-.889.413.4.4,0,0,0-.191.032.192.192,0,0,0,0,.254.382.382,0,0,1,0,.476c-.159.191-.032.381,0,.572.032.127.1.254-.032.318s-.159-.1-.254-.159c-.1-.1-.064-.318-.254-.254-.159.032-.064.222-.1.349a.817.817,0,0,0,.064.762c-.191,0-.159-.318-.349-.191-.127.1-.1.286-.064.413a5.26,5.26,0,0,0,.445,1.175c.032.1.127.222,0,.286-.159.063-.191-.1-.222-.222a.6.6,0,0,0-.063-.254.168.168,0,0,0-.222-.127c-.1.032-.063.127-.063.191a1.6,1.6,0,0,1-.064.667c0,.1-.032.191-.159.191s-.1-.127-.1-.222a1.263,1.263,0,0,0,0-.349,6.89,6.89,0,0,0-1.27,1.905.456.456,0,0,0,.1.445.6.6,0,0,1,0,.857.384.384,0,0,0-.1.318,7.9,7.9,0,0,1-.127,1.492.573.573,0,0,1-.635.508c-.159,0-.159-.127-.191-.222-.1-.413,0-.857-.413-1.143-.032,0-.032-.127,0-.191.127-.349,0-.318-.286-.222-.159.064-.254,0-.222-.159a1.424,1.424,0,0,0-.159-.6c-.127-.222.032-.413.222-.54a1.864,1.864,0,0,0,.889-1.27,7.156,7.156,0,0,1,.73-1.937,1.547,1.547,0,0,0,.1-.222c.032-.127.127-.254,0-.349-.127-.127-.191.064-.286.1-.318.1-.413.508-.762.667a1.722,1.722,0,0,1,.6-1.238c.318-.318.222-.127.349,0a.308.308,0,0,0,.508-.191c.032-.159,0-.254-.191-.222-.1,0-.159.064-.349.127a.723.723,0,0,1,.54-.476.3.3,0,0,0,.318-.191A13.971,13.971,0,0,1,77.4,72.511c.349-.413.794-.73,1.08-1.143.318-.476.889-.7,1.08-1.27.127-.381.6-.349.921-.476a5.489,5.489,0,0,1,1.905-.191c.635,0,1.715-.032,2.572-.032,1.429,0,2.858,0,4.255-.032.794-.032,1.588.032,2.381,0a1.191,1.191,0,0,0,.349-.032.212.212,0,0,0,.191-.222.238.238,0,0,0-.191-.222,1.665,1.665,0,0,0-.794-.1,12.854,12.854,0,0,1-2.477-.063c-1.3-.191-2.6,0-3.905-.191a.869.869,0,0,0-.921.381c-.191.286-.794.222-1.016-.032-.413-.508-.349-.73.318-.857a3.052,3.052,0,0,0,.921-.254c0-.159-.159-.191-.254-.191-.191-.064-.413,0-.508-.286-.063-.159-.349-.1-.508.032-.222.222-.572.127-.794.286a.2.2,0,0,1-.191-.032c-.127-.349-.349-.222-.6-.191a1.316,1.316,0,0,1-.508-.063,1.083,1.083,0,0,0-.921-.191c-.413.064-.826-.191-1.238,0h-.127c-.159-.413-.6-.318-.889-.476a.878.878,0,0,1-.413-.349.286.286,0,0,0-.349-.191c-.445.032-.73-.286-1.111-.508.349-.1.54.191.826.127-.063-.413-.476-.381-.7-.667a8.188,8.188,0,0,1,1.238.127l1.524.381a.371.371,0,0,0,.445-.476c-.1-.286-.191-.1-.254-.063a1.548,1.548,0,0,1-.762,0c-.159-.032-.286-.064-.349-.254-.1-.222-.349-.222-.572-.191,0,.191.191.191.222.381-.635-.064-1.111-.54-1.778-.445.064-.222.222-.191.349-.222.064,0,.191,0,.191-.1s-.064-.127-.127-.191a1.651,1.651,0,0,1-.635-.6c-.063-.127-.191-.318-.032-.445.127-.127.222.063.318.127a1.323,1.323,0,0,0,.572.254c.1,0,.222.032.254-.063.222-.445.413-.191.635,0,.127.1.286.191.445.286.064.032.159.063.222,0,.063-.1-.032-.127-.1-.191-.127-.127-.349-.191-.413-.508.667.222.921.953,1.619,1.016a.785.785,0,0,0-.445-.635c-.1-.064-.254-.1-.159-.222.064-.127.191,0,.286.032.286.127.413.445.667.6.064.064.159.222.254.1.127-.127-.032-.191-.127-.286s-.445-.222-.381-.413c.1-.222.286.1.476.063a.821.821,0,0,1,.857.286c.127.127.349-.063.445.063.381.349,1.08.032,1.4.6,0,.063.127.063.159,0a.116.116,0,0,0-.064-.159c-.032-.032-.1-.063-.127-.1-.063-.063-.159-.159-.063-.254s.191,0,.254.064c.159.191.286.318.476.063,0-.032.159-.032.191,0,.318.254.7-.032,1.016.191-.222-.381-.572-.6-.762-.953-.127-.191-.254-.381-.1-.6a.16.16,0,0,0-.1-.254c-.127-.032-.159.063-.191.159-.064.445-.222.381-.476.127s-.286-.159-.445-.191a7.6,7.6,0,0,1-1.461-.381,3.187,3.187,0,0,0-1.81-.063A3.438,3.438,0,0,1,76.7,61.62c-.254-.1-.476-.127-.667.191-.127.222-1.016.159-1.175-.064-.1-.127,0-.191,0-.286s-.063-.286-.127-.191c-.254.381-.635.191-.953.318a4.69,4.69,0,0,1-1.334,0c-.445,0-.222-.127-.286-.286-.1-.191-.222-.254-.349,0-.1.191-.222.191-.381.159l-1.143-.1c-.222,0-.413-.032-.349-.349,0-.1.032-.191-.063-.254s-.159.064-.222.127a.407.407,0,0,1-.476.159l-3.334-.7c-.063,0-.159,0-.191-.063-.191-.413-.54-.286-.826-.191-.222.063-.318,0-.254-.222,0-.127,0-.222-.127-.254a.168.168,0,0,0-.191.191c0,.222-.127.191-.254.127a11.232,11.232,0,0,0-1.4-.349c-.286-.063-.54-.286-.889-.191-.1,0-.159-.1-.191-.222s0-.381-.191-.318c-.254.064,0,.254,0,.381-.159.063-.286,0-.445,0s-.318-.063-.286-.286c0-.127,0-.286-.159-.349s-.191.063-.254.191c-.064.159-.222.159-.349.1-.191-.064-.476-.064-.476-.381s-.064-.286-.222-.159c-.413.318-.73.1-1.016-.159a1.057,1.057,0,0,0-.572-.254,7.792,7.792,0,0,1-1.619-.635,20.951,20.951,0,0,1-2.889-1.524,11.348,11.348,0,0,1-2.223-1.492c-.54-.508-1.143-.953-1.715-1.461a21.491,21.491,0,0,1-3.08-3.048c-.476-.635-.857-1.334-1.3-1.969A26.84,26.84,0,0,1,43.2,44.792,29.6,29.6,0,0,1,42.151,42a14.408,14.408,0,0,1-.73-3.016,10.978,10.978,0,0,1,.127-3.937,18.434,18.434,0,0,1,1.524-4.064,5.564,5.564,0,0,1,1.048-1.238c.254-.286.476-.7.921-.794.1,0,.1-.127.1-.191,0-.1,0-.222.1-.254a1.242,1.242,0,0,0,.826-.667c0-.1.254,0,.349.064.159.127.064.286-.063.381a6.357,6.357,0,0,0-.508.445c-.921,1.175-1.81,2.35-2.635,3.588-.318.476-.254.984-.445,1.429a2.354,2.354,0,0,0-.254.953c0,.349,0,.159-.1.159-.508.127-.318.476-.191.73.127.286.191.476-.127.667a.287.287,0,0,0-.1.318,27.507,27.507,0,0,1,.508,3.175,12.593,12.593,0,0,0,.73,2.858c.127.318.191.667.318.984a11.416,11.416,0,0,0,.921,2,14.3,14.3,0,0,0,2.572,4.128c.254.254.476.54.7.794.7.762,1.556,1.334,2.318,2.032a19.889,19.889,0,0,0,3.175,2.254,20.956,20.956,0,0,0,2.762,1.492c.413.159.762.381,1.175.54a38.874,38.874,0,0,0,4.16,1.619,12.854,12.854,0,0,0,1.524.286c1.048.127,2.064.572,3.112.7a68.546,68.546,0,0,0,6.795.921c.413,0,.826.127,1.27.1a2.135,2.135,0,0,0,1.238-.254.531.531,0,0,1,.381-.032.872.872,0,0,0,.413-.063c.1-.032.191-.1.159-.191,0-.127-.1-.127-.19-.159a9.636,9.636,0,0,0-1.334-.191,11.765,11.765,0,0,1-1.81-.508,2.242,2.242,0,0,0-.762-.191,6.374,6.374,0,0,1-2.032-.508c-.508-.159-1.016-.222-1.524-.413-1.08-.413-2.191-.762-3.239-1.27-.667-.318-1.365-.572-2-.889a6.42,6.42,0,0,0-1.715-.762c-.635-.127-.6-.381-.889-.6a3.249,3.249,0,0,0-1.175-.635,1.977,1.977,0,0,1-.921-.572.324.324,0,0,0-.254-.159c-.445.064-.7-.254-.984-.508-.318-.286-.254-.572.159-.7H57.9c.127,0,.254,0,.286-.127a.263.263,0,0,0-.1-.254c-.1-.1-.222-.127-.318,0a1.905,1.905,0,0,1-1.429.286h-.159c-1.143-.54-2.413-.222-3.62-.476h-.222a23.641,23.641,0,0,1-2.921-.857,10.592,10.592,0,0,1-1.4-.54c-.1-.064-.222-.064-.222-.222a4.3,4.3,0,0,1,1.778.318,1.886,1.886,0,0,0,.826.222.669.669,0,0,1,.445.127c.1.063.222.127.318,0,.191-.254.349-.127.445.1.127.286.286.318.572.127.1-.063.254-.1.381-.159a.864.864,0,0,0-.508-.254c-1.111-.254-2.191-.6-3.27-.953-.826-.254-1.556-.794-2.413-.984-.127,0-.254-.1-.222-.222,0-.159.191-.127.286-.127a1.813,1.813,0,0,1,.984.318,11.012,11.012,0,0,0,1.3.508c.1,0,.254.159.318,0,.064-.127-.1-.222-.191-.286-.318-.191-.667-.286-.984-.445-.349-.159-.635-.476-1.08-.413-.064,0-.127-.064-.159-.159a1.613,1.613,0,0,0-1.016-.857.891.891,0,0,1-.445-.318.45.45,0,0,1-.127-.445c0-.1.127-.127.222-.127a.412.412,0,0,1,.445.286c.064.381.222.349.476.159a.509.509,0,0,1,.762.254c.127.318.159.222.318.222h.222a11.5,11.5,0,0,0,1.365.762c.064,0,.1.127.191.127A20.2,20.2,0,0,1,51.9,48.888c.54.222,1.048.508,1.556.762.064,0,.1.064.159,0A3.741,3.741,0,0,1,55.645,50a15.163,15.163,0,0,0,1.683.191c-1.111-.318-1.429-1.334-1.969-2.159a26.891,26.891,0,0,1-1.492-3.4,7.9,7.9,0,0,1-.7-2.667,2.658,2.658,0,0,1,.064-1.492c.064-.127,0-.254,0-.381,0-.286-.127-.572.254-.73q.191-.1,0-.191c-.349-.222-.286-.54-.127-.826a.334.334,0,0,0,0-.413c-.222-.349,0-.73.063-1.08a18.052,18.052,0,0,1,1.016-3.842,17.962,17.962,0,0,0,.857-2.159,17.089,17.089,0,0,1,1.937-3.4,18.113,18.113,0,0,1,1.715-2.381c.445-.54.762-1.175,1.238-1.651a1.234,1.234,0,0,0,.413-.889c0-.349,0-.318.159-.381.191-.064.286,0,.381.191s.222.127.349,0a.606.606,0,0,0,.191-.508c-.064-.413.1-.6.508-.73a6.939,6.939,0,0,0,.921-.54c.159-.1.381-.127.476-.222.349-.318.762-.445,1.111-.73.222-.159.318-.413.635-.318s.222-.1.286-.191a.492.492,0,0,1,.667-.286c.064,0,.127.063.191-.032a1.664,1.664,0,0,1,1.429-.7h.127c.191-.286.54-.286.762-.445a4.924,4.924,0,0,1,1.143-.413.663.663,0,0,0,.318-.254.408.408,0,0,1,.413-.191.183.183,0,0,1,.191.191c0,.191-.127.286-.254.381a1.837,1.837,0,0,1-1.08.445c-.445,0-.222.032-.286.1a13.879,13.879,0,0,1-1.524.794c-.1.032-.191.127-.286,0-.286-.318-.254-.064-.286.127,0,.127-.063.222-.191.222-1.175.222-2.064,1.016-3.143,1.429a1.954,1.954,0,0,0-.635.508,3.628,3.628,0,0,1-1.111.826.248.248,0,0,0-.159.349q0,.143.191.191c.127,0,.159-.064.191-.159a.387.387,0,0,1,.54-.318c.318.064.7-.191.953.159,0,.064.127,0,.191,0a2.468,2.468,0,0,1,1.778-.222,1.575,1.575,0,0,0,.413-.1c.286-.1.572-.222.762.191.1.222.286.191.349-.064.063-.191.127-.318.349-.286.222,0,.445,0,.508.254,0,.1,0,.191.159.222.127,0,.127-.127.159-.191.064-.286.318-.254.508-.254.318.032.1.318.127.445.063.254-.191.191-.318.191a30.1,30.1,0,0,0-3.4.127c-1.3.127-2.6.254-3.874.508-.254.064-.413.191-.413.445a.809.809,0,0,1-.445.635c-.381.254-.572.73-.889,1.048a18.329,18.329,0,0,0-2.159,2.985c-.254.381-.508.794-.794,1.175a12.662,12.662,0,0,0-1.27,2.54,16.473,16.473,0,0,0-.7,2.35,23.943,23.943,0,0,0-.635,2.6,15.16,15.16,0,0,0-.191,3.4v1.905a3.963,3.963,0,0,0,.286,1.619A21.991,21.991,0,0,0,55.455,46.7a10.074,10.074,0,0,0,2.191,2.985.507.507,0,0,1,.222.286c.1.413.413.476.73.54,1.365.254,2.731.476,4.064.826a2.341,2.341,0,0,0,1.238,0,3.433,3.433,0,0,1,2.381.254c.159.1.254.064.222-.159-.063-.318.1-.191.222-.127a2.979,2.979,0,0,1,.381.286c.127.064.222.286.349,0,.064-.159.286,0,.445.064.191.1.318.6.635.127H68.6c.318.445.984.191,1.27.7.064.127.254.159.445.159a.937.937,0,0,0,1.143-.54c.445-.953,1.27-1.08,2.254-.921a.9.9,0,0,1,.73.6c.127.318.318.349.6.254a1.009,1.009,0,0,0,.286-.1,2.854,2.854,0,0,1,2.477.286c1.08.54,2.032,1.238,3.143,1.715.159.064.349.222.476.064a1.693,1.693,0,0,0,.508-.73.278.278,0,0,0-.222-.286A2.056,2.056,0,0,1,80.571,52a.683.683,0,0,0-.476-.318,23.353,23.353,0,0,0-4.128-.889h-.222a4.3,4.3,0,0,0-2.889,0,6.343,6.343,0,0,1-1.111.063c-.318,0-.286-.127-.222-.349.1-.254.349-.318.54-.445a9.743,9.743,0,0,0-2.35.318c-.159,0-.318.1-.445.1-.191,0-.349,0-.381-.254a.307.307,0,0,0-.381-.254,14.924,14.924,0,0,1-2.064,0c-.7,0-.381.064-.508-.1-.127-.222.1-.349.191-.572a3.841,3.841,0,0,1-1.365-.445,4.964,4.964,0,0,1-1.81-.953c-.6-.476-1.238-.953-1.873-1.4a4.854,4.854,0,0,1-1.492-1.619c-.064-.1-.191-.159-.064-.254.1-.1.222,0,.286,0a8.228,8.228,0,0,1,.921.445c1.08.572,2.127,1.175,3.207,1.715a10,10,0,0,0,2.318.794c.1,0,.222.064.286,0,.064-.1,0-.159-.063-.254-.063-.127-.191-.254-.063-.381a.3.3,0,0,1,.413,0l2.858.953c.1,0,.222.127.318,0,.1-.1,0-.222-.064-.318a.27.27,0,0,0-.1-.159c-.063-.1-.127-.222-.032-.318.1-.127.254-.064.381,0a.19.19,0,0,1,.191.1,5.808,5.808,0,0,0,2.286.7c.286.064.349-.1.222-.381-.063-.127-.254-.286-.127-.413.1-.127.286-.064.445,0a12.375,12.375,0,0,1,2.413.413.487.487,0,0,0,.508,0c.159-.159-.032-.286-.1-.413-.032-.064-.063-.127,0-.191.1-.1.191-.064.286,0,.667.349,1.4.349,2.064.635a2.123,2.123,0,0,0,.6.159h.222c.064,0,0-.159-.032-.222-.1-.191-.381-.381-.191-.572s.445,0,.667.063a14.793,14.793,0,0,0,2.667.6c.1,0,.191.064.254,0,.1-.1,0-.191-.032-.286a1.823,1.823,0,0,0-.127-.222c-.063-.127-.127-.254,0-.381.1-.127.254-.1.381-.063.286.1.6.191.889.318.635.318,1.365.349,1.969.667a.435.435,0,0,0,.476-.064.759.759,0,0,1,.762-.159c1.619.254,3.239.254,4.858.476a.405.405,0,0,0,.349-.127c.191-.286.508-.222.794-.191a20.143,20.143,0,0,1,2.731.667,12.515,12.515,0,0,0,3.588.794c1.461.064,2.953.349,4.414.318a53.827,53.827,0,0,1,5.557.381,24.8,24.8,0,0,1,5.049.921,36.423,36.423,0,0,1,4.763,1.588,1.232,1.232,0,0,1,.349.191c.6.572,1.207.286,1.873.127.762-.191,1.556-.318,2.318-.476l2.191-.381a1.685,1.685,0,0,1,.889,0,1.523,1.523,0,0,0,1.334-.127,3.938,3.938,0,0,1,2-.349,38.379,38.379,0,0,1,5.08.73,7.909,7.909,0,0,1,3.651,1.619.378.378,0,0,0,.349.127,1.957,1.957,0,0,1,.857.032,12.337,12.337,0,0,1,2.508,1.048,24.657,24.657,0,0,1,2.477,1.524,13.829,13.829,0,0,1,3.366,3.016h0c.318,1.016,1.207,1.429,1.969,1.969a7.911,7.911,0,0,1,1.3,1.429c.73.826,1.334,1.746,2.064,2.572.286.349.476.794.73,1.143a18.292,18.292,0,0,1,2,2.921,3.014,3.014,0,0,1,.318,1.492c0,.318,0,.572.349.73a.329.329,0,0,1,.191.254,32.033,32.033,0,0,1,1.016,3.905c.254,1.81.635,3.62.953,5.4a9.717,9.717,0,0,1,.286,3.683,4.113,4.113,0,0,0,.572,2.635c.318.7.6,1.429.953,2.127.794,1.683,1.619,3.366,2.445,5.049a3.952,3.952,0,0,1,.286,2c0,.127,0,.222-.127.286a.464.464,0,0,0-.191.667,13.082,13.082,0,0,1,.445,4.16v1.4c-.127,2.6-.19,5.239-.222,7.874a5.383,5.383,0,0,1-.73,2.635,16.1,16.1,0,0,0-1.143,2.985c-.286.984-.794,1.873-1.143,2.826-.286.7-.794,1.3-1.111,2a.274.274,0,0,1-.349.191c-.318-.064-.413.127-.476.381a4.045,4.045,0,0,1-.667,1.4,1.1,1.1,0,0,1-.826.413c-.318,0-.318-.254-.349-.476a9.3,9.3,0,0,1-.127-2.1c.159-2.064,0-4.128,0-6.223a49.278,49.278,0,0,0-.445-5.557,28.959,28.959,0,0,1-.1-4.064,1.94,1.94,0,0,1,.1-.413.788.788,0,0,0-.1-.826,1.928,1.928,0,0,1-.159-1.27,10.812,10.812,0,0,1,1.143-3.683c.1-.191.1-.286-.159-.349a1.29,1.29,0,0,1-.73-.508c-.254-.381-.7-.54-.921-.953-.1-.159-.286-.159-.508-.064.286-.318.159-.476-.127-.667a4.548,4.548,0,0,1-1.143-1.429c-.381-.572-.794-1.08-1.175-1.619-.508-.826-1.08-1.619-1.524-2.477a4.6,4.6,0,0,0-.762-1.4.111.111,0,0,1-.032-.064c.064-.762-.572-1.238-.826-1.905-.032-.1-.1-.254-.254-.159a.262.262,0,0,0-.159.318c.1.54.032.6-.54.635-.476,0-.572.1-.54.572.191,2.477-.318,4.953-.318,7.43s-.254,1.048-.667,1.429-.032.032-.063.064a1.9,1.9,0,0,1-1.143-.318c-.19-.159-.159-.349-.032-.54a9.768,9.768,0,0,0,1.016-3.556,19.529,19.529,0,0,1,.318-2.381.973.973,0,0,0-.032-.667c-.19.064-.159.191-.159.286-.191,1.365-.445,2.731-.6,4.1a4.54,4.54,0,0,1-.54,1.556c-.254.476-.54.953-.794,1.461a.484.484,0,0,1-.381.222c-.318.1-.7-.1-.984.254-.1.127-.127-.064-.191-.159a5.718,5.718,0,0,1-.413-2.191c0-.762-.1-.222-.254-.159a.808.808,0,0,1-.476.1.836.836,0,0,1,.445-.318c.19-.1.318-.254.254-.445-.1-.222-.286-.063-.445-.032-.127,0-.191.159-.349.063a.843.843,0,0,1,.508-.381.361.361,0,0,0,.254-.1.472.472,0,0,0,.127-.445c-.1-.159-.191.032-.318.032s-.191.064-.286-.032c.159-.191.508-.159.635-.413.064-.127.222-.254.127-.413-.127-.191-.286-.032-.413.032a.317.317,0,0,1-.349.064,4.45,4.45,0,0,1,.635-.508.681.681,0,0,0,.318-.508,2.566,2.566,0,0,1,.222-.7c.127-.318.222-.6-.286-.6,0-.191.191-.159.286-.191a.338.338,0,0,0,.318-.286c.032-.159-.127-.19-.222-.222-.064-.032-.159-.064-.159-.159s.1-.1.19-.1.286.032.254-.127c0-.159-.159-.1-.254-.1a.319.319,0,0,1-.318-.191c-.032-.1-.1-.191,0-.254.064-.064.159,0,.222,0s.159.063.222.063c.1,0,.222,0,.286-.1.064-.127-.064-.191-.159-.222s-.191-.064-.191-.191.159-.1.254-.127a.238.238,0,0,0,.159-.032,5.25,5.25,0,0,1,.445-.826c.064-.127-.191-.127-.286-.254.572-.1.572-.54.635-.984,0-.1,0-.254.064-.286.445-.254.381-.6.349-1.016,0-.254-.1-.572.159-.762a.2.2,0,0,0,0-.191c-.254-.191-.318-.349.1-.381a.17.17,0,0,0,.159-.159c0-.1-.1-.127-.159-.159-.318-.064-.222-.222-.064-.381.222-.191.318-.413.667-.476.222-.032.445-.381.73-.54.159-.064-.1-.635-.318-.762a1.873,1.873,0,0,1-.254-.127c-.1-.063-.159-.286-.286-.222-.159.063.064.222,0,.318a.822.822,0,0,1-.222.349.086.086,0,0,1-.159-.064c.032-.222-.127-.508.127-.7.127-.1.1-.222,0-.318a.224.224,0,0,0-.349,0,.754.754,0,0,1-.73.191.36.36,0,0,0-.286.572,2.5,2.5,0,0,1,0,1.524c-.032.286-.127.572-.19.889-.254-.127-.1-.349-.222-.54a.521.521,0,0,0-.191.445,8.935,8.935,0,0,0,.064,1.3,1.574,1.574,0,0,1-.445,1.4,1.206,1.206,0,0,1,.064-.667c.063-.1.159-.222,0-.286a.247.247,0,0,0-.318.1,1.457,1.457,0,0,0-.318.794c0,.318-.064.794-.1,1.175a1.574,1.574,0,0,1-.254.826,4.679,4.679,0,0,0-.413,1.715c-.159.889-.476,1.778-.572,2.7a.942.942,0,0,1-.445.7c-.159.1-.318.159-.445,0-.222-.222-.381-.1-.572.127.222-1.111.445-2.127.667-3.175a.117.117,0,0,1-.1-.032,2.638,2.638,0,0,0-.413,1.016,4.878,4.878,0,0,1-.984,1.937c-.349.413-.572.445-1.016.127a.3.3,0,0,0-.445.032c-.127.1-.191.254-.381.286,0-.191.127-.254.254-.318a1.456,1.456,0,0,0,.349-1.365c-.063-.159-.19-.127-.286-.064-.318.191-.73.254-.984.572-.032.064-.127.1-.254.064.032-.318.381-.318.54-.508a.639.639,0,0,1,.254-.127c.508-.159.921-.349.857-1.016a1.082,1.082,0,0,1,.254-.73,1.344,1.344,0,0,0,.127-.381,8.751,8.751,0,0,1,.6-2.381.237.237,0,0,0-.1-.349.334.334,0,0,0-.413,0c-.159.127-.286.286-.508.254a.3.3,0,0,1-.222-.064c-.064-.1.032-.127.064-.191a2.266,2.266,0,0,1,1.08-.73c.064-.032.159-.032.222-.1.159-.1.286-.222.254-.413-.064-.222-.254-.127-.413-.127s-.159.063-.254,0c.127-.159.286-.127.445-.159.159,0,.349,0,.349-.222s-.191-.159-.318-.159-.222,0-.222-.127.127-.127.222-.127a.6.6,0,0,0,.6-.254c0-.032.1-.1.064-.127-.191-.445.286-.572.381-.889.032-.1.159-.191.032-.286-.1-.063-.159.064-.254.064a2.545,2.545,0,0,1-1.111.349,1.013,1.013,0,0,1,.794-.6A1.293,1.293,0,0,0,140.9,82.7a1.883,1.883,0,0,1,.381-.635c.032-.064.1-.159,0-.254-.064-.064-.159-.032-.222,0a.24.24,0,0,0-.127.032c-.127,0-.254.063-.318-.064-.032-.127.127-.159.191-.191.318-.127.508-.413.857-.476a.137.137,0,0,0,.127-.127c0-.064-.064-.1-.159-.127-.1,0-.286,0-.286-.159s.19-.159.318-.159.286-.032.254-.222a1.857,1.857,0,0,1,.318-.857c.032-.1.127-.159.159-.286a5.588,5.588,0,0,1,.318-.953,12.686,12.686,0,0,0,.73-1.81.451.451,0,0,1,.064-.191c.063-.191.508-.6-.222-.445-.127,0-.254-.254-.445-.032s-.413.381-.349.73a.569.569,0,0,1-.476.7c-.445.127-.445.6-.7.857-.159.159-.19.413-.476.381h-.064c-.159.635-1.048.6-1.143,1.3,0,.159-.73.349-.889.222s-.1-.254-.032-.381c.064-.191.222-.508-.064-.572-.222-.063-.254.254-.318.445-.1.286-.349.635.19.794.064,0,.064.1.032.127-.222.445-.413.857-.635,1.27-.032.1-.127.127-.254.1a.184.184,0,0,1-.064-.286,3.094,3.094,0,0,0,.254-.7.24.24,0,0,0-.159-.349c-.19-.063-.19.127-.222.254a2.45,2.45,0,0,1-.318.794,2.231,2.231,0,0,0-.191,1.016,2.75,2.75,0,0,1-.286,1.873.212.212,0,0,0,.064.349c.222.191.254.349-.1.349s-.254.064-.222.222a19.1,19.1,0,0,1-.318,2.667,1.974,1.974,0,0,1-.1.889,18.877,18.877,0,0,1-.413,2.953c-.032.222-.159.254-.349.286-.413.032-.857.159-1.111-.318a.116.116,0,0,0-.159-.064.319.319,0,0,0-.159.349c.1.381-.19.667-.254,1.016a.2.2,0,0,1-.127.191c-.127,0-.159-.1-.159-.191a1.13,1.13,0,0,1,.222-.762,2.724,2.724,0,0,0,.445-1.556c-.254.1-.286.318-.381.476a3.23,3.23,0,0,1-1.4,1.715c-.159.064-.286.318-.413.476-.1.1-.159.222-.318.127-.159-.127-.1-.222,0-.318.191-.222.381-.476-.159-.476s-.127-.127-.159-.191c-.032-.254-.1-.508-.127-.73h0v-.063l.254.254ZM103.559,59.969c-.222.032-.54-.1-.635.127-.1.254.286.254.413.381h.032c.54.381.54.349.921-.191.159-.222.254-.794.826-.476.1.063.159-.1.191-.222.032-.191.127-.254.349-.254a.452.452,0,0,0,.508-.445.983.983,0,0,1,.413-.635.365.365,0,0,0,.191-.286c0-.7.889-.889.826-1.619,0,0,.064-.063.1-.063a1.127,1.127,0,0,0,.318-1.4c0-.032-.032-.1,0-.159,0-.064.1-.032.127,0,.349.191.762.159,1.08.381s.445.1.508-.286c.064-.413-.19-.762-.19-1.143a1.134,1.134,0,0,0-.6-1.048c-.159-.1-.254-.222-.159-.413a.523.523,0,0,0-.222-.73,1.168,1.168,0,0,1-.508-.6c-.191-.635-.667-.794-1.207-.953a2.024,2.024,0,0,0-1.365-.127,1.34,1.34,0,0,1-1.207-.1,1.1,1.1,0,0,0-1.048.064.955.955,0,0,0-.191,1.143.9.9,0,0,1,.1.635.8.8,0,0,0,.064.54c.159.254,0,.349-.222.349a.8.8,0,0,1-.318-.032c-.349-.064-.667-.064-.826.349-.1.254-.286.191-.445.064-.1-.064-.159-.191-.254-.254-.159-.064-.381-.381-.476.1,0,.159-.191.159-.286.064-.222-.349-.476-.318-.826-.191a.81.81,0,0,1-.476,0,8.337,8.337,0,0,1-1.524-.191c-.191-.064-.476-.127-.54.254,0,.159-.159.127-.286.127a3.129,3.129,0,0,1-.54-.063c-.1,0-.222-.064-.286.063s0,.191.063.286a.978.978,0,0,0,1.3.222,2.38,2.38,0,0,1,.635-.318c.191-.064.286,0,.254.191a.555.555,0,0,0,.349.572c.286.159.6.286.889.413.191.1.286-.032.381-.191a.18.18,0,0,0-.064-.286c-.1-.063-.254-.063-.159-.254s.222-.1.349-.064c.191.032.381.191.572.064.445-.286.508-.032.635.318.1.254.191.667.635.572a.945.945,0,0,1,.921.159h.032c.254.064.191.254.191.445-.1.667-.191,1.365-.222,2.032a2.137,2.137,0,0,1-1.016,1.905c-.318.191-.254.508-.127.762.127.286.318.1.508.032a1.263,1.263,0,0,1,.953-.159,1.446,1.446,0,0,0,1.3,0,.2.2,0,0,1,.222.032c.064.1,0,.127-.063.191a.84.84,0,0,1-.857.318h0Zm12.129-3.778a6.707,6.707,0,0,0,.508,1.937c.064.064.127.159.191.222a3.639,3.639,0,0,1,1.048,1.429.629.629,0,0,0,.349.349,1.139,1.139,0,0,1,.445.318,15.651,15.651,0,0,1,1.238,1.27c.349.381.572.921,1.08,1.143a.382.382,0,0,1,.222.318c.127.73.762.794,1.27.984a.305.305,0,0,0,.381-.127c.1-.159,0-.286-.1-.381a.891.891,0,0,1-.318-.445.493.493,0,0,0-.54-.413c-.286,0-.222,0-.318-.063-.127-.064-.318-.1-.254-.286.064-.159.222-.1.349-.064.6.032,1.175.127,1.429.826a.2.2,0,0,0,.254.159c.127-.032.064-.191.064-.286a8.2,8.2,0,0,0-.191-1.175c-.159-.762-.476-1.492-.572-2.286a.606.606,0,0,0-.1-.254c-.667-1.016-1.048-2.159-1.619-3.207a5.874,5.874,0,0,1-.826-2.477.263.263,0,0,0-.1-.254,5.441,5.441,0,0,0-.794-.7,13.785,13.785,0,0,0-2.731-1.143h-.222c-.064,0-.159,0-.191.1a1.657,1.657,0,0,0,.1,1.4.313.313,0,0,1,.1.254.716.716,0,0,1-.857.762c-.318,0-.381.064-.222.349s0,.318-.222.286a.319.319,0,0,1-.318-.191c-.159-.54-.73-.7-.953-1.175a.353.353,0,0,0-.445-.159c-.191.064-.222.222-.254.381a.805.805,0,0,1-.064.381c-.032.222-.222.254-.381.254s-.286,0-.286-.222c.032-.349-.191-.349-.413-.349a.81.81,0,0,1-.889-.445.282.282,0,0,0-.318-.191c-.159.032-.191.127-.254.286a2.847,2.847,0,0,0-.1,1.27c0,.222.191.286.381.349.159.032.254-.032.349-.191.254-.476.6-.476.953-.032a.529.529,0,0,0,.6.222c.413-.222.508,0,.6.318.1.286,1.175.572,1.4.349a.613.613,0,0,1,.921-.191c.508.254.635.318.6.889h0v-.1Zm17.622-1.651a4.339,4.339,0,0,0,.6-.063.407.407,0,0,1,.508.381,11.029,11.029,0,0,1,.445,2.223.342.342,0,0,0,.063.254,2.266,2.266,0,0,1,.318,1.429,16.557,16.557,0,0,0,.191,3.08,1.053,1.053,0,0,1,0,.7.193.193,0,0,0,.159.286.655.655,0,0,1,.381.921c-.032.127-.032.286.127.318s.127-.159.159-.254c.032-.127.064-.286.254-.286s.19.127.222.222c.1.222.19.191.286,0,.159-.286.318-.191.508-.032a9.2,9.2,0,0,0,.921.6c.127.1.286.191.445.063.19-.127.064-.286.064-.445-.032-.191-.127-.413.032-.6a1.3,1.3,0,0,0,.159-1.461c-.064-.191-.191-.318-.191-.508,0-.762-.191-1.492-.254-2.223a14.344,14.344,0,0,0-.635-3.08c-.064-.222-.1-.476-.445-.445-.191,0-.159-.159-.159-.286a2.585,2.585,0,0,0-.857-1.842,1.43,1.43,0,0,1-.444-.6.689.689,0,0,0-.508-.508,6.939,6.939,0,0,1-.73-.286,2.379,2.379,0,0,0-1.619-.222c-.318.1-.381.254-.127.476.349.286.286.73.476,1.08a.172.172,0,0,1-.127.254,1.536,1.536,0,0,1-.984.191.785.785,0,0,0-1.048.54c-.032.127-.127.222,0,.349a.241.241,0,0,0,.318,0,3.671,3.671,0,0,1,1.429-.254h.064Zm1.842,20.067c-.064.127,0,.222,0,.286,0,.127.1.286-.032.349s-.191-.1-.286-.159a.423.423,0,0,0-.159-.1c-.1,0-.1.127-.1.191a3.21,3.21,0,0,0,.1.54c0,.127.032.254-.1.318-.159.063-.19-.1-.254-.191s-.127-.254-.254-.127c-.127.1-.032.222,0,.318a.833.833,0,0,1,.159.6c0,.191-.127.286-.318.191s-.254-.413-.476-.318c-.191.1-.064.413-.222.572a.526.526,0,0,0,0,.667,7.489,7.489,0,0,1,.413.73c-.286-.063-.476-.413-.7-.159a.622.622,0,0,0,.032.762,3.529,3.529,0,0,1,.222.508c.032.1.127.222,0,.286s-.191-.063-.254-.127-.127-.222-.254-.127-.064.222,0,.318c.1.127.286.286.222.445-.222.381,0,.667.19.984.064.1.127.191.032.318-.254-.1-.254-.381-.413-.508-.064-.063-.127-.127-.191-.063-.032,0-.032.127-.032.191a2.219,2.219,0,0,0,.286.762c-.381-.063-.413-.032-.318.349.032.127.1.254,0,.381-.318.381-.318.572.064.889.127.127.191.191.032.349-.191.159-.191.286.1.254.1,0,.222,0,.254.127a.283.283,0,0,1-.159.254c-.1.064-.222.1-.159.222.159.349-.1.318-.318.349-.286.063-.254.286-.254.508s.159.318.381.318a.932.932,0,0,0,.7-1.143c-.032-.1-.032-.191.064-.222.349-.064.381-.381.476-.6.127-.318.032-.445-.318-.381a.589.589,0,0,0-.222.063c-.127,0-.222,0-.222-.159s.064-.222.191-.191a.927.927,0,0,1,.286.064.775.775,0,0,0,.889-.381,6.872,6.872,0,0,1,.857-1.746c.127-.159.19-.286-.127-.318-.127,0-.286-.1-.127-.222.349-.254.191-.762.54-1.016.1-.064.064-.254-.064-.318-.064-.032-.222,0-.191-.127,0-.127.127-.127.222-.191a1.737,1.737,0,0,0,.826-.826c.1-.159,0-.381.127-.54.222-.286.222-.73.6-.953.032,0,.1-.127.063-.191a1.753,1.753,0,0,1,.1-1.207V75.4a1.6,1.6,0,0,1,.318-1.3.93.93,0,0,0,.222-.7c0-.191.1-.222.254-.1.191.159.349.063.413-.127.1-.286.254-.286.508-.191.1.032.222.1.286-.032.064-.159-.1-.159-.191-.191-.222-.032-.254-.159-.159-.349.127-.222.064-.286-.159-.286a3.671,3.671,0,0,0-1.016.254c-.191.063-.159.222-.032.381.064.063.222,0,.254.191a.462.462,0,0,0-.508.381c-.032.1-.159.222-.222.127-.254-.476-.381-.032-.508.063-.222.222-.381.349-.572,0-.1-.191-.286-.159-.318.064-.064.286-.222.6-.032.921.064.1.1.222,0,.286-.127.1-.19-.064-.286-.127a.316.316,0,0,1-.127-.032h-.032Zm12.955-13.018a6.753,6.753,0,0,0-1.08-3.08,1.226,1.226,0,0,0-.508-.476.966.966,0,0,1-.254-.254,6.762,6.762,0,0,0-.921-.984,3.465,3.465,0,0,0-1.3-.572.287.287,0,0,0-.318.1c-.064.1,0,.191.064.254.1.1.222.191.127.318a.438.438,0,0,1-.413.159c-.476-.159-1.016-.191-1.461-.381-.127-.064-.254-.127-.349.032-.1.191.064.222.191.254a8.3,8.3,0,0,0,.857.191c.445.032.762.381,1.175.445a.481.481,0,0,1,.476.413c.159.508.445.953.572,1.492a5.864,5.864,0,0,1,.318,1.81,6.046,6.046,0,0,0-.032,1.08c.127,1.016-.064,2.032.064,3.08,0,.191.1.286.222.445a1.229,1.229,0,0,0,1.27.508c.254-.032.381-.064.508-.286a3.1,3.1,0,0,0,.413-1.365c.1-1.08.222-2.159.381-3.175h0ZM129.977,73.5c.6,0,.794-.445.921-.889.1-.254.318-.476.254-.826-.1-.381.1-.6.445-.794.476-.222.508-.667,0-1.08a.766.766,0,0,1-.1.7c-.064.159-.127.445-.349.349-.254-.1-.127-.349-.1-.572,0-.064.1-.127.127-.191.063-.063.159-.159.063-.254a.212.212,0,0,0-.318-.032c-.1.1-.191.1-.318,0-.286-.159-.349.032-.381.254a1.573,1.573,0,0,1-.064.54c-.1.159-.318.349-.159.476.222.159.286-.127.381-.286.032-.032.064-.1.127-.063.064,0,.064.063.064.127,0,.191-.54.794-.73.794-.445,0-.318.222-.191.445a2.746,2.746,0,0,0,.222.318c.1.159.127.318-.127.318s-.191,0-.159.127a1.42,1.42,0,0,1-.286.794.58.58,0,0,0-.063.6c.063.159.032.222-.159.286-.381.1-.667.508-.572.794a.429.429,0,0,1-.19.6.573.573,0,0,0-.222.826.343.343,0,0,1,0,.349,6.826,6.826,0,0,0-.413,1.016,1.254,1.254,0,0,0,.191,1.27c-.1.1-.222-.1-.286.032a.247.247,0,0,0,.064.254c.064.159.159.286.222.445.127.381,0,.762-.286.826a1.533,1.533,0,0,1,.286.445c.064.159.127.349.19.508-.19,0-.254,0-.286.063a1.443,1.443,0,0,0,.73,1.016c.1,0,.254,0,.222-.1a1.214,1.214,0,0,1,.222-.984c.032-.1-.1-.127-.159-.191-.1-.063-.159-.191,0-.254.73-.222.381-.889.54-1.334.064-.191-.032-.445.127-.7.064-.1.1-.254.159-.381-.222,0-.349.127-.54.032a4,4,0,0,0,1.08-1.334c-.222,0-.349.222-.54.127,0-.222.159-.286.286-.381.159-.1.445-.222.318-.413s-.318,0-.476.1a.1.1,0,0,0-.064.032c-.064,0-.127.064-.19,0-.064-.1,0-.159.1-.191a1.062,1.062,0,0,0,.508-.476c.1-.127.127-.318-.032-.349-.413-.127-.222-.318-.127-.508.032-.063.127-.159.064-.254s-.191-.064-.286-.032c-.064,0-.1.032-.159.063a.223.223,0,0,1-.286-.127c-.064-.159,0-.191.159-.254a2.766,2.766,0,0,0,.572-.349c.159-.127.286-.286,0-.381-.159-.064-.159-.127,0-.222.064-.064.159-.1.222-.191.1-.191.508-.159.413-.445-.1-.254-.381,0-.6-.127h-.064Zm25.592-3.747a.932.932,0,0,0-.222-.6,7.619,7.619,0,0,1-.349-.73c-.222-.445-.349-1.016-.889-1.27a.283.283,0,0,1-.159-.254c0-.445-.064-.476-.476-.286a1.8,1.8,0,0,0-.413.254c-.159.1-.222.254-.127.381.254.349.064.572-.222.73-.127.1-.286.191-.286.349a4.28,4.28,0,0,0-.159,1.238,4.64,4.64,0,0,1-.381,2.191.718.718,0,0,0,.064.762c.349.349.476.826.794,1.143.1.127.191.222.381.159a2.528,2.528,0,0,0,1.461-1.556,8.109,8.109,0,0,0,.349-1.746c0-.159.064-.318.254-.318.349,0,.254-.286.318-.476h.064Zm-.254,16.225a3.979,3.979,0,0,1,1.27-.159,2.523,2.523,0,0,0,.7-.191c.381-.159.635-.508,1.08-.572.191,0,.222-.222.127-.381s-.222-.191-.349-.1c-.159.063-.286.254-.445.063-.127-.127-.032-.318,0-.476a.483.483,0,0,0-.254-.7c-.445-.191-.54-.381-.381-.826.064-.191-.032-.445-.222-.445s-.54-.1-.794.1c-.191.159-.286.1-.286-.159s0-.222-.127-.222a.217.217,0,0,0-.222.222c0,.254-.127.318-.318.159-.191-.127-.318,0-.445.127-.127.1-.222.254-.127.381a6.211,6.211,0,0,1,.572,1.842c.032.127.1.254.254.254.318,0,.445.159.413.413s-.254.127-.413.1c-.222,0-.413.032-.445.286,0,.286.222.254.476.286Zm6.858,10.986c.286.032.54-.159.794-.222.286-.064.286-.191.127-.381-.445-.54-.508-1.3-1.048-1.778a.342.342,0,0,1-.064-.254.741.741,0,0,0-.635-.6.915.915,0,0,1-.635-.222c-.286-.222-1.08.127-1.143.445a1.106,1.106,0,0,0,.635,1.175,2.47,2.47,0,0,1,1.016.794c.318.318.19.318.1.476-.159.286,0,.381.254.445a4.927,4.927,0,0,1,.667.127Zm-2.889,13.209c.032,0,.063.032.127.032.127-.191.254-.349.54-.318.127,0,.191-.127.222-.254.064-.159.1-.318.159-.476.064-.127.127-.286.318-.222a.307.307,0,0,1,.159.381,1.468,1.468,0,0,0-.127.826,9.4,9.4,0,0,1-.159,2.985,2.9,2.9,0,0,0,0,1.048c.064.254.222.476.064.73a.169.169,0,0,0,.127.222c.127.032.191-.064.222-.159.032-.286.159-.6,0-.889a.619.619,0,0,1-.032-.413c.286-1.556.349-3.143.6-4.7a.96.96,0,0,0-.127-.794A1.743,1.743,0,0,1,161,107.5c-.222-.476-.413-.54-.73-.286s-.635.508-.6.984a2.477,2.477,0,0,1-.1.7c-.1.413-.159.826-.222,1.27h-.063Zm-48.739-32.8c.349.032.572-.222.857-.191a.737.737,0,0,0,.6-.286,7.094,7.094,0,0,1,1.4-1.365,3.715,3.715,0,0,0,1.365-3.016c0-.064,0-.127-.064-.159a.116.116,0,0,0-.159.063c-.1.254-.381.413-.222.762a2.246,2.246,0,0,0-.572-.381.88.88,0,0,0-.635-.032c-.159,0,0,.254-.064.381-.127.381-.1.826-.349,1.143a1.073,1.073,0,0,0-.286.6,3.481,3.481,0,0,1-.73,1.4,7.349,7.349,0,0,1-1.111,1.111h0Zm-6.033-3.27c-.222-.476-.413-.54-.7-.222a4.052,4.052,0,0,1-1.873,1.111,2.206,2.206,0,0,0-.413.159,8.209,8.209,0,0,1-2.508,1.3,1.128,1.128,0,0,0-.508.349c-.063.064-.127.1-.1.191.032.127.159.064.254.064a3.581,3.581,0,0,0,1.524-.6,10.105,10.105,0,0,1,1.016-.508c.222-.1.508,0,.826-.127.7-.286,1.334-.7,2-1.016a2.775,2.775,0,0,0,.762-.476c.572-.508.635-.921.222-1.365-.063-.064-.127-.159-.222-.1s-.064.159,0,.254c0,.064.064.1.1.159.1.191.159.349-.127.476-.1.032-.159.159-.254.286h0V74.1ZM87.524,51.269h.286c.127,0,.318,0,.349-.191,0-.191-.191-.191-.318-.222-.413-.159-.889-.1-1.27-.381a4.649,4.649,0,0,0-1.429-.572c-1.048-.286-2.191-.127-3.207-.6-.127-.063-.286.064-.349.222-.064.127,0,.222.1.318a.786.786,0,0,0,.445.254,20.971,20.971,0,0,0,2.318.635,20.167,20.167,0,0,0,3.08.54Zm69.029,51.5a3.374,3.374,0,0,0,.127.6c.064.286.222.381.508.413.286,0,.349-.159.381-.381s.064-.445.381-.445.159-.127.159-.254a2.319,2.319,0,0,1,.286-1.365.581.581,0,0,0-.032-.762,1.484,1.484,0,0,1-.445-.445c-.191-.254-.381-.254-.54.032-.1.191-.159.381-.254.572a8.767,8.767,0,0,0-.572,2.032Zm6.763-2.223c0-.476,0-1.207-.064-1.937,0-.159-.064-.349-.286-.159-.254.222-.413.127-.572-.1a1.44,1.44,0,0,1-.349-.6c0-.159-.1-.254-.254-.222-.222.064-.127.222-.1.349a6.876,6.876,0,0,1,.413,1.588.759.759,0,0,0,.159.445,1.906,1.906,0,0,1,.222,1.016,12.094,12.094,0,0,0,.254,1.873c0,.159,0,.381.222.349.191,0,.254-.191.318-.349,0-.1.032-.222.032-.318v-1.969h0Zm-5.3,12.8a2.835,2.835,0,0,0-.1.857c0,.127.032.349-.159.349s-.222-.222-.191-.381c0-.254.064-.508.064-.762,0-.889-.064-1.746-.064-2.635v-1.4a.814.814,0,0,0-.254-.667,1.543,1.543,0,0,0-.1.921,2.566,2.566,0,0,1,0,.984,4.3,4.3,0,0,0-.064,1.683c0,.413.127.794.127,1.207a5.435,5.435,0,0,0,.54,2.826c.032.064.032.222.159.191.127,0,.159-.159.159-.254a11.831,11.831,0,0,0-.064-2.985h0l-.064.064ZM128.548,54.127a10.829,10.829,0,0,0-2.254-.064h-.032a.849.849,0,0,1-.826-.064c-.445-.254-.6-.191-.7.318-.032.222-.1.286-.318.159-.127-.064-.254-.127-.318,0a.614.614,0,0,1-.826.318c-.159-.032-.318,0-.318.191s.159.222.286.222h.953c.318,0,.7.191.953-.254.032-.064.159,0,.254.032a.565.565,0,0,0,.762-.286.757.757,0,0,1,.953-.222c.6.286.953.191,1.492-.381h-.064ZM85.873,81.942c0-.127.064-.286-.1-.349s-.222.1-.286.191a13.252,13.252,0,0,0-1.556,2.445,11.225,11.225,0,0,0-.984,2.064.654.654,0,0,0,.191.635c.1.063.191.127.286.063a.251.251,0,0,0,.159-.254,3.47,3.47,0,0,1,.667-1.746A3.879,3.879,0,0,0,84.7,84.1a5.082,5.082,0,0,1,1.016-1.683.818.818,0,0,0,.222-.508h-.064ZM59.265,51.873c-.254,0-.508.127-.508.222,0,.191.159.222.286.286a1.942,1.942,0,0,0,.381.159A22.654,22.654,0,0,1,63.456,54a2.731,2.731,0,0,0,1.334.286.569.569,0,0,1,.445.127c.159.1.286.222.508.127.064,0,.1-.064.064-.127-.1-.222-.286-.254-.476-.286A24.759,24.759,0,0,1,60.6,52.412c-.445-.191-.921-.381-1.334-.54ZM97.4,82.164a.162.162,0,0,0-.127-.159.263.263,0,0,0-.254.1,4.078,4.078,0,0,1-1.27.921c-.826.54-1.683,1.016-2.508,1.524a2.079,2.079,0,0,0-.572.476c-.127.159-.381.349-.191.572.191.191.349-.032.508-.127.857-.572,1.683-1.207,2.54-1.778a10.851,10.851,0,0,0,1.651-1.27.538.538,0,0,0,.191-.254h0Zm-6.985-.572c0,.254.1.349.318.254a1.829,1.829,0,0,0,.984-.7,3.921,3.921,0,0,1,1.492-1.111,11.479,11.479,0,0,0,1.048-.635c.1-.063.254-.159.159-.286s-.254-.032-.349.032a3.711,3.711,0,0,1-.953.445,6.284,6.284,0,0,0-2.445,1.492c-.7.7-.191.286-.222.445h0v.064Zm-9.335,8.764c0,.318,0,.349.349.635.127.1.063.413.286.349.254-.063.063-.286.032-.413h0c.349-.349.127-.921.508-1.27.318-.318.159-.762-.032-1.111-.032-.1,0-.254-.159-.286-.127,0-.191.1-.286.191a5.243,5.243,0,0,0-.73,1.905h0Zm63.5.476c-.54.572-1.175,4.382-.826,4.953a21.261,21.261,0,0,0,.826-4.953Zm17.273,12.479a4.025,4.025,0,0,0,.1-1.048c-.032-.667-.381-1.3-.381-1.969s-.254-.953-.191-1.461c0-.127,0-.318-.159-.318s-.159.191-.191.318a3.087,3.087,0,0,0,0,1.207,3.708,3.708,0,0,1,.254,1.143c0,.73.413,1.334.476,2.064l.1.1h0ZM89.937,77.56c.889-.254,1.842-.254,2.731-.6a1.383,1.383,0,0,0,.222-.127c.1-.1.191-.222.127-.349-.064-.159-.222-.127-.349-.127a12.305,12.305,0,0,0-1.873.413,4.491,4.491,0,0,0-.984.445c-.064.063-.159.1-.127.222,0,.1.127.127.222.127ZM88,105.025a2.977,2.977,0,0,0-.445-1.048c-.063-.063-.127-.159-.191-.159a.545.545,0,0,1-.508-.254c-.1-.127-.191-.064-.222.064a2.334,2.334,0,0,0,.54,1.81c.127.1.254.191.381.064s.508-.127.476-.445h0Zm54.486-22.893a.117.117,0,0,1-.1-.032,22.124,22.124,0,0,0-2.54,5.493c.032,0,.064.032.1.064.857-1.842,1.683-3.683,2.54-5.493h0Zm-15.495,2.6V83.5c0-.1,0-.254-.127-.254s-.159.159-.159.254v.254a25.5,25.5,0,0,0,.318,3.493,11.56,11.56,0,0,1,.476,2.318c0,.794.032.159.159.159s.127-.064.159-.127a1.287,1.287,0,0,0,0-.349,13.429,13.429,0,0,1-.794-4.477h-.032Zm12.256-8.51c-.222,0-.413.032-.476.254-.064.286-.349.54-.191.826a.923.923,0,0,0,1.4.159c.159-.127.254-.254,0-.381a.408.408,0,0,1-.254-.445c0-.286-.19-.413-.476-.413ZM86.857,97.278a.39.39,0,0,0-.254.413,15.389,15.389,0,0,0-.254,1.683,17.235,17.235,0,0,0-.064,1.81c0,.6,0,.413.286.381.222-.032.254-.254.222-.445a4.052,4.052,0,0,1-.032-1.238,24.367,24.367,0,0,1,.159-2.6Zm15.336-11.97a.8.8,0,0,0,.476-.191c.826-.6,1.492-1.365,2.254-2.032.064-.063.191-.159.127-.254-.127-.127-.222,0-.286.1a11.684,11.684,0,0,1-1.619,1.175,6.6,6.6,0,0,0-1.016.857.24.24,0,0,0-.1.254c.032.1.127.063.191.1Zm26.2-11.145a1.55,1.55,0,0,1,.127-.6c.1-.476-.159-.7-.6-.572a1.287,1.287,0,0,1-.349,0,.369.369,0,0,0-.318,0,1.4,1.4,0,0,0-.254,1.111c.1.159.222.286.381.032.286-.413.572-.445,1.016.032h0ZM126.1,74.1a2.531,2.531,0,0,1-.508,2.064c-.032.064-.032.127-.063.191-.159.572-.318,1.175-.476,1.746,0,.1-.064.191,0,.254.127.064.191-.1.222-.191.064-.191,0-.413.127-.6.381-.7.635-1.461.953-2.191a1.2,1.2,0,0,0-.286-1.238h.032ZM82.095,70.035a2.932,2.932,0,0,0-.921.1c-.191.064-.508.1-.445.413.064.286.349.349.6.349a.5.5,0,0,0,.413-.127,1.364,1.364,0,0,1,1.143-.318c.1,0,.19,0,.222-.127,0-.127-.1-.159-.159-.191A1.511,1.511,0,0,0,82.126,70h-.032ZM72.537,56.572c-1.016-.508-2.127-.826-3.207-1.238a.317.317,0,0,0-.381.127c-.1.159-.1.286.127.286a7.954,7.954,0,0,1,2.254.635,3.009,3.009,0,0,0,1.207.159h0Zm38.452,27.4c-.476.476-1.08.794-1.588,1.238-.349.286-.635.635-.953.953s-.191.222-.1.349c.127.127.254,0,.381-.064.032,0,.064-.032.1-.063a13.947,13.947,0,0,0,2.159-2.381h0Zm21.623,2.508c0-.1,0-.159-.064-.191-.191-.1-.889.254-.826.476a1.756,1.756,0,0,1-.254,1.27.294.294,0,0,0,.063.381c.127.064.191-.1.286-.159.413-.381.349-1.016.667-1.429.064-.1.1-.254.159-.349ZM76.633,52.158a6.545,6.545,0,0,0-.826.1c-.159.032-.318.127-.286.318,0,.191.191.222.349.254a.619.619,0,0,0,.254-.032,1,1,0,0,1,.984.1.992.992,0,0,0,.508.191c.063,0,.159.032.191-.064a.268.268,0,0,0-.063-.191,1.986,1.986,0,0,0-1.143-.7h0ZM133.406,86.7c.191-.032.222-.159.286-.286.572-1.143,1.016-2.35,1.651-3.461a.536.536,0,0,1,.064-.159c0-.1.064-.191-.064-.222-.1,0-.127.1-.127.159-.349,1.111-1.175,1.969-1.588,3.048a1.418,1.418,0,0,0-.19.889h-.032Zm1.81-15.336c.222,0,.318-.063.318-.159,0-.159-.127-.191-.254-.191a4.437,4.437,0,0,1-1.81-.413,4.413,4.413,0,0,0-.6-.191c-.1,0-.222-.063-.254.064a.2.2,0,0,0,.159.191,9.731,9.731,0,0,0,2.445.7ZM82.634,66.193c.063,0,.159.032.19-.063a.154.154,0,0,0-.1-.191.93.93,0,0,0-.508-.222,4.75,4.75,0,0,1-2-.222.207.207,0,0,0-.318.127c-.032.191.1.254.254.286h.6a12.638,12.638,0,0,0,1.873.254h0ZM146.2,76.258c-.349,1.619.984,4.668,1.937,4.858A6.922,6.922,0,0,1,146.2,76.258ZM72.188,53.873c.381,0,.635-.191.635-.572s-.286-.286-.508-.286c-.445,0-.762.254-.762.54s.286.349.6.318Zm22.8-.6c.159,0,.318,0,.381-.159.032-.159.1-.381-.064-.445-.381-.127-.73-.349-1.143-.222a.305.305,0,0,0-.254.286.247.247,0,0,0,.191.254,2.934,2.934,0,0,0,.857.254h.032Zm36.8,21.02a3.348,3.348,0,0,1,.159.6c.064.254.191.254.349.064s.254-.445.572-.445.254-.063.191-.222c-.032-.159-.191-.286-.318-.159-.254.191-.349.063-.508-.1a.246.246,0,0,0-.318-.063.334.334,0,0,0-.127.318Zm-25.052,35.5c.159-.032.159-.159.1-.254a16.145,16.145,0,0,0-1.778-1.842.1.1,0,0,1-.063-.032c-.064,0-.159-.064-.222,0-.063.1,0,.159.064.191a13.779,13.779,0,0,1,1.651,1.683,1.468,1.468,0,0,1,.222.222h.032Zm18.257-30.323a.419.419,0,0,0-.318.286,8.853,8.853,0,0,0-.222,1.842c0,.063,0,.127.1.159a.192.192,0,0,0,.191-.1,1.009,1.009,0,0,0,.1-.286,18.021,18.021,0,0,1,.159-1.842h0v-.063Zm-9.4-7.874a3.449,3.449,0,0,1-.159.445c-.064.159-.286.381-.254.445.159.286.286-.159.476-.063.381.159.762-.1,1.143,0,.127,0,.222-.032.191-.191,0-.127-.127-.222-.222-.159-.191.1-.318.159-.476,0-.064-.064-.127,0-.191.063-.191.318-.286.159-.381-.063a3.238,3.238,0,0,1-.127-.476h0Zm31.434,13.653c0-.159.064-.349-.1-.413-.191-.063-.254.127-.318.286-.1.191-.159.381-.254.572-.032.159-.064.318.159.381a.285.285,0,0,0,.413-.222c.032-.191.063-.413.1-.6ZM129.5,68.923a9.2,9.2,0,0,0-2.889.857C127.627,69.622,128.516,69.146,129.5,68.923ZM90.731,59.811c0-.127-.1-.159-.191-.127-.349.127-.73.222-1.08.381-.127.064-.127.191-.063.318.063.1.159.191.254.127.222-.159.508-.159.73-.286a.821.821,0,0,0,.349-.381h0ZM49.2,48.158c0-.127-.1-.191-.222-.254l-1.429-.667c-.1,0-.254-.127-.318,0-.064.159.063.254.191.286a3.354,3.354,0,0,1,1.524.7c.063,0,.127.063.191,0v-.1h0ZM159.315,95.341a1.616,1.616,0,0,0-.667-.794.263.263,0,0,0-.254.1.193.193,0,0,0,0,.254,5.18,5.18,0,0,0,.54.635c.19.191.19.1.286.032a.226.226,0,0,0,.1-.19h0Zm-78.173-35.5a.7.7,0,0,0-.54.222c-.127.1-.349.191-.191.381.127.159.286.064.413-.063a.693.693,0,0,1,.6-.127c.127,0,.318.127.381-.063.032-.191-.159-.254-.318-.286a1.4,1.4,0,0,1-.318-.063h0ZM159.982,98.9c0,.127,0,.254.127.286a.227.227,0,0,0,.286-.159,10.747,10.747,0,0,0,.254-1.08.191.191,0,0,0-.032-.127c-.032-.032-.1,0-.127.032a1.645,1.645,0,0,0-.508,1.048ZM124.674,85.942a1.014,1.014,0,0,0-.1-.445c-.032-.1.1-.318-.127-.318s-.222.191-.191.349a5.619,5.619,0,0,1,.032,1.27c0,.064,0,.191.1.191s.127-.127.159-.191a3.462,3.462,0,0,1,.1-.826h.032ZM74.506,78.925c0,.1,0,.254.127.254a.306.306,0,0,0,.318-.222,1.884,1.884,0,0,1,.318-.921.157.157,0,0,0-.032-.222.12.12,0,0,0-.191.032,2.32,2.32,0,0,0-.54,1.08h0Zm7.938-24.608c0-.064,0-.127-.063-.127s-.1,0-.127.064a6.233,6.233,0,0,1-.794,1.016c-.1.063-.063.222,0,.318a.165.165,0,0,0,.254,0,4.257,4.257,0,0,0,.73-1.27Z" transform="translate(-31.323 -14.18)" fill="#030382"/>
        <path id="Path_250" data-name="Path 250" d="M159.567,10.023c.063.445-.127.381-.381.318a29.821,29.821,0,0,0-6.287-.984c-.572-.064-1.143-.159-1.715-.191a9.651,9.651,0,0,0-2.35.127c-1.207.127-2.413.222-3.62.318a15.789,15.789,0,0,0-2.413.349c-.953.222-1.905.349-2.858.572-.54.127-1.111.254-1.651.349-.381.1-.762.254-1.175.318a1.642,1.642,0,0,0-1.016.349c-.127.127-.254.127-.318-.032-.1-.159-.063-.318.1-.349.349-.032.6-.413.984-.286a.268.268,0,0,0,.191-.064,1.7,1.7,0,0,1,1.334-.318c.127.032.191-.032.222-.159.064-.254.254-.318.508-.286a1.258,1.258,0,0,0,1.048-.254.241.241,0,0,1,.127-.064c.635,0,1.207-.349,1.81-.381a10.151,10.151,0,0,0,1.969-.286c.381-.127.762,0,1.143-.191.222-.1.413.1.508.381.063-.445.349-.349.6-.413.445-.159.921.127,1.365-.127h.127c.762.064,1.492-.127,2.223-.127a13.693,13.693,0,0,1,2.508.127,7.262,7.262,0,0,1,1.143.222,3.073,3.073,0,0,0,.953.064,7.37,7.37,0,0,1,1.461.1c.159,0,.413-.064.381.286,0,.127.159.127.254,0a.7.7,0,0,1,.7-.1,10.512,10.512,0,0,0,1.238.349c.508.064.953.254,1.461.286.222,0,.445,0,.54.286.032.127.1.159.191.032.222-.286.476-.159.73-.1,1.556.349,3.143.7,4.7,1.08a4.215,4.215,0,0,1,1.27.381.8.8,0,0,0,.476.064.659.659,0,0,1,.73.572c.063-.476.349-.349.6-.254a22.764,22.764,0,0,0,3.207.857,37.362,37.362,0,0,1,3.651,1.143c.6.222,1.238.349,1.842.6,1.175.476,2.318.984,3.524,1.429a16.064,16.064,0,0,1,2.127.953c1.08.6,2.159,1.175,3.27,1.683,1.365.6,2.7,1.27,4,1.969,1.143.572,2.286,1.175,3.4,1.842,1.873,1.048,3.62,2.286,5.43,3.4a15.409,15.409,0,0,1,1.937,1.238c1.207.953,2.6,1.619,3.874,2.477,1.746,1.238,3.461,2.477,5.207,3.651.984.667,1.969,1.365,2.921,2.1.921.73,1.905,1.4,2.826,2.159,1.08.889,2.159,1.715,3.3,2.54s2.254,1.746,3.334,2.635l2.381,1.905a25.244,25.244,0,0,1,2.35,2.159c.667.7,1.492,1.207,2.191,1.873a13.523,13.523,0,0,1,1.207,1.111,39.417,39.417,0,0,0,3.366,3.143c1.3,1.175,2.667,2.318,3.874,3.588a4.338,4.338,0,0,0,.73.6,8.221,8.221,0,0,1,1.334,1.016c1.207,1.111,2.477,2.191,3.778,3.175,2.191,1.619,4.35,3.3,6.509,4.953l2.762,2c1.08.762,2.159,1.556,3.27,2.318a38.675,38.675,0,0,0,4.763,2.985,12.159,12.159,0,0,1,1.873,1.27c.762.572,1.588,1.048,2.381,1.556,1.3.794,2.54,1.651,3.779,2.54a31.724,31.724,0,0,0,3.3,2.032c1.969,1.111,3.937,2.159,5.874,3.366a26.531,26.531,0,0,0,5.557,2.921c1.143.381,2.032,1.175,3.143,1.556.953.318,1.842.794,2.826,1.048a11.766,11.766,0,0,0,1.81.508.589.589,0,0,1,.222.064c.127.064.318.1.318.254s-.222.1-.349.1a6.58,6.58,0,0,1-3.207-.7c-.635-.286-1.365-.445-2-.762a4.057,4.057,0,0,1-1.08-.6,1.683,1.683,0,0,0-1.365-.508h-.222c-1.524-.921-3.112-1.683-4.636-2.6-1.524-.953-3.048-1.905-4.636-2.731-1.111-.6-2.35-1.048-3.4-1.746-.381-.254-.762-.508-1.175-.762a22.669,22.669,0,0,1-2.064-1.3c-.7-.6-1.588-.921-2.286-1.556a6.047,6.047,0,0,0-1.238-.73c-.413-.254-.794-.508-1.175-.762-1.492-.984-3.08-1.81-4.541-2.826-.953-.667-1.873-1.334-2.794-2-.953-.7-1.937-1.334-2.858-2.032-1.27-.921-2.635-1.746-3.842-2.731-1.81-1.492-3.778-2.826-5.588-4.318-.476-.381-1.016-.73-1.524-1.08a22.332,22.332,0,0,1-2.445-2.1,17.114,17.114,0,0,0-1.778-1.588,9.777,9.777,0,0,1-1.365-1.207c-.127-.127-.222-.286-.381-.349a11.049,11.049,0,0,1-2.731-2.413,21.145,21.145,0,0,0-1.873-1.556,10.151,10.151,0,0,1-.857-.794c-.889-.826-1.81-1.619-2.635-2.508a23.081,23.081,0,0,0-2.381-2.286c-1.683-1.365-3.334-2.794-4.953-4.223a5.357,5.357,0,0,0-.984-.667,21.3,21.3,0,0,1-2.762-2.032c-1.175-.889-2.35-1.81-3.525-2.731-.857-.667-1.683-1.365-2.572-1.969-.794-.508-1.556-1.016-2.318-1.588a10.543,10.543,0,0,0-1.334-1.016c-.7-.349-1.27-.953-1.937-1.334-.73-.413-1.461-.921-2.159-1.4-1.048-.7-2.159-1.3-3.175-2.1-.572-.445-1.207-.794-1.81-1.207-.984-.6-1.937-1.207-2.921-1.81a2.37,2.37,0,0,1-.921-.667c-.064-.127-.222-.127-.349-.159a.822.822,0,0,1-.635-.413s-.064-.127-.1-.127c-.6-.1-.984-.7-1.619-.762-.1,0-.222,0-.286-.1a30.769,30.769,0,0,0-3.524-1.81c-1.365-.73-2.826-1.238-4.16-2.032a34.311,34.311,0,0,0-3.461-1.619,20.232,20.232,0,0,0-2.889-1.143,15.91,15.91,0,0,1-2.445-.857,14.461,14.461,0,0,0-2.54-.73c-.826-.159-1.588-.508-2.413-.667-.889-.191-1.81-.381-2.7-.6-.921-.222-1.873-.381-2.826-.667-1.207-.349-2.477-.476-3.715-.794a10.665,10.665,0,0,0-1.429-.445c-.191,0-.127-.222-.349-.381h0v-.1Z" transform="translate(-95.777 -8.592)" fill="#030382"/>
        <path id="Path_251" data-name="Path 251" d="M147.321,33.927a4.08,4.08,0,0,1,1.08-.222h.6c.191,0,.445,0,.286.318,0,.064,0,.127.064.159h.127c.349-.6.889-.222,1.334-.191.7.064,1.429.254,2.127.381h.191c.254.254.508.381.826.191a.4.4,0,0,1,.222.127.311.311,0,0,0,.445.064.465.465,0,0,0,.127-.064c.286.222.7.127.984.254.19.1.318.191.508.064h.222a.95.95,0,0,0,.826.159c.159,0,.191.1.254.254.032.159.191.318.349.191.191-.222.318-.159.445,0,.1.159.222.127.318,0,.222-.191.413-.222.54.127.063.191.191.191.349.127.254-.127.476-.159.635.159q.1.191.286,0c.222-.254.413-.191.508.127.064.222.159.349.349.1a.457.457,0,0,1,.063-.1,1.921,1.921,0,0,1,1.27.54c0,.1,0,.191.127.222.1,0,.127-.063.191-.127.063-.1.1-.254.254-.191a.546.546,0,0,1,.349.349c.064.127,0,.318.159.349.19,0,.159-.159.19-.286.064-.127.159-.1.222,0,.127.286.254.413.6.159.159-.1.445.159.6.381.032.064,0,.222.159.191a2.36,2.36,0,0,1,1.651.476,1.174,1.174,0,0,0,.667.191,3.179,3.179,0,0,1,.953.349c.6.254,1.207.54,1.81.73a2.92,2.92,0,0,1,.889.445c.254.191.318.508.73.191.159-.1.254.191.254.381s-.032.159.064.222c.1,0,.159,0,.191-.1.1-.127.254-.254.381-.127.413.381.953.381,1.461.572.159.064.381.064.254.381s.127.127.191.1a.818.818,0,0,1,.921.127,2.575,2.575,0,0,0,.667.318c.1,0,.254,0,.286.127.286.508.826.381,1.207.54.159.064.318.1.159.318a.193.193,0,0,0,0,.254c.1.064.159,0,.254-.064.191-.222.413-.191.667-.1a.173.173,0,0,1,.159.222c0,.1-.064.191.063.254.1,0,.127-.064.191-.1.191-.191.413-.064.572,0,.254.1,0,.191,0,.286s.064.191.159.127a1.031,1.031,0,0,1,1.143.286c.032,0,.1.063.159.063a11.046,11.046,0,0,1,2.635.826c.54.222,1.048.54,1.556.73.794.318,1.556.762,2.381,1.08a3.791,3.791,0,0,1,1.4.667,1.617,1.617,0,0,0,.54.222,2.407,2.407,0,0,1,.508.191c.476.445,1.143.508,1.715.857,1.08.635,2.286.921,3.429,1.461a34.222,34.222,0,0,1,3.239,1.619c.508.286,1.08.476,1.588.794h.063c.667,0,1.143.508,1.715.762a21.117,21.117,0,0,1,2.381,1.238c.6.349,1.207.6,1.81.921.445.222.857.508,1.3.73,1.588.857,3.207,1.715,4.763,2.635,1.111.667,2.223,1.334,3.3,2,1.175.7,2.413,1.27,3.62,1.937a28.145,28.145,0,0,1,3.62,2.191,11.081,11.081,0,0,0,1.842.921,20.889,20.889,0,0,1,4.16,2.413c.445.381.921.762,1.334,1.175,0,.032-.032.064-.064.1-.191-.1-.413-.191-.635-.318-.826-.413-1.651-.826-2.445-1.27-.381-.222-.73-.476-1.111-.667-.794-.381-1.524-.953-2.35-1.3a20.788,20.788,0,0,1-3.175-1.778c-1.238-.73-2.413-1.556-3.715-2.159-1.111-.508-2.1-1.3-3.175-1.905-.826-.445-1.619-.953-2.477-1.4L208.6,57.456c-.921-.476-1.715-1.048-2.667-1.492-1.238-.54-2.381-1.238-3.588-1.842-.572-.286-1.175-.508-1.746-.794-.413-.191-.73-.508-1.143-.7-1.588-.7-3.08-1.492-4.6-2.286a4.315,4.315,0,0,0-.889-.349A8.245,8.245,0,0,1,192,49.2c-.413-.222-.857-.318-1.27-.508-.826-.381-1.651-.73-2.445-1.111a6.282,6.282,0,0,0-.984-.381,11.824,11.824,0,0,1-1.81-.857c-.857-.413-1.81-.635-2.667-1.08-.7-.349-1.461-.572-2.191-.889-1.048-.476-2.159-.794-3.207-1.3-.857-.413-1.715-.762-2.6-1.143-.762-.318-1.556-.635-2.318-.984-.953-.413-1.873-.826-2.858-1.175-.572-.222-1.175-.476-1.746-.7a16.229,16.229,0,0,0-2.413-.73c-.381-.1-.73-.286-1.111-.413-1.175-.476-2.413-.7-3.588-1.048-1.334-.381-2.7-.7-4.064-.984a26.238,26.238,0,0,0-3.143-.635,10.836,10.836,0,0,1-1.461-.318,7,7,0,0,0-1.143-.127c-.857,0-1.651-.381-2.477-.381s-.349-.064-.318-.254c0-.191.191-.191.349-.191h.032c.159,0,.445.1.413-.1,0-.191-.286-.191-.508-.191a.555.555,0,0,0-.445.222.745.745,0,0,1-.762.159,38.724,38.724,0,0,0-4.668-.794,25.658,25.658,0,0,1-2.731-.349,13.321,13.321,0,0,0-1.619-.159,48.328,48.328,0,0,0-5.684-.318h-1.778c-.127,0-.318,0-.286-.159.032-.222.127-.476.445-.476s.318,0,.318.222,0,.254.159.254.19-.127.222-.254c.064-.222.191-.254.413-.254s.349.064.349.318.032.159.127.191c.127,0,.159-.064.191-.159.064-.191.127-.349.381-.318.222,0,.254.159.286.318a.162.162,0,0,0,.127.159c.1,0,.127-.1.159-.159.032-.318.254-.318.508-.286.159,0,.254.064.254.222s.063.286.222.254c.127,0,.127-.127.159-.254a.241.241,0,0,1,.191-.254c.159,0,.318,0,.413.191.127.286.254.349.381,0,.063-.159.254-.127.381-.127a.272.272,0,0,1,.286.222c0,.1,0,.222.159.254.159,0,.191-.1.222-.222a.368.368,0,0,1,.7.064c0,.159,0,.381.222.349.191,0,.159-.191.159-.349a.225.225,0,0,1,.254-.222c.191,0,.413-.063.476.222V32.4a.178.178,0,0,0,.159.191c.1,0,.1-.1.127-.191a.455.455,0,0,1,.635-.318c.191.064.063.191.063.318s0,.349.159.349.159-.191.159-.318c0-.254.127-.254.286-.222a6.325,6.325,0,0,0,1.334.127c.191,0,.349,0,.381.254.063.254.159.191.318.064.318-.318.54-.254.667.159,0,.063.032.159.127.159s.1-.064.127-.127a.4.4,0,0,1,.635-.222c.254.254.413.222.73.1a.447.447,0,0,1,.635.381.2.2,0,0,0,.159.222c.127,0,.159-.064.191-.159.032-.127.063-.286.254-.222a.377.377,0,0,1,.318.254q.19.445.572.127a.47.47,0,0,1,.413-.064c.254.1.159.318.222.54h0Z" transform="translate(-92.2 -24.431)" fill="#030382"/>
        <path id="Path_252" data-name="Path 252" d="M457.564,155.2c.762.349,1.492.794,2.223,1.175.444.254.921.381,1.365.635a32.757,32.757,0,0,0,5.334,2.254c1.3.445,2.635.826,3.937,1.334,1.08.445,2.191.826,3.271,1.175.826.254,1.651.572,2.508.794a25.081,25.081,0,0,1,3.016.857,7.848,7.848,0,0,0,1.492.349c.73.1,1.429.349,2.159.508.159.032.254.1.191.254,0,.127,0,.254.127.286s.254,0,.254-.159c0-.318.222-.222.381-.191l2.667.667c.445.127.921.159,1.365.254a5.227,5.227,0,0,1,1.778.54c.064.032.19.127.254.063.349-.349.7-.1,1.016-.032.318.032.635.159.953.222.19.032.476,0,.381.349,0,.064.064.127.159.159.1,0,.159-.032.159-.127.063-.349.286-.286.54-.254a32.447,32.447,0,0,0,4.286.318c.953,0,1.937-.127,2.921-.064.318,0,.635.1.953.064a.313.313,0,0,1,.318.286.235.235,0,0,1-.318.191c-.381-.222-.857.1-1.207-.222h-.159c-.54.413-1.175.127-1.746.191-.318.032-.7.159-1.016-.1,0-.032-.159.032-.254.063-.127.032-.286.127-.381.1a6.183,6.183,0,0,0-1.524-.127,17.281,17.281,0,0,0-1.81-.1,7.377,7.377,0,0,1-1.969-.286c-.667-.191-.921,0-1.365-.1-1.207-.159-2.413-.476-3.588-.73-1.111-.222-2.254-.476-3.366-.762-.667-.159-1.334-.349-2-.508-.7-.19-1.429-.349-2.159-.508-2.064-.54-4.128-1.08-6.16-1.778a16.137,16.137,0,0,1-3.334-1.207,2.355,2.355,0,0,0-.667-.222c-1.334-.445-2.667-1.016-4-1.461a21.123,21.123,0,0,1-2.318-.984c-.794-.381-1.619-.762-2.413-1.143a2.715,2.715,0,0,1-.889-.7,13.9,13.9,0,0,0-1.429-1.3h.064Z" transform="translate(-315.378 -108.649)" fill="#030382"/>
        <path id="Path_253" data-name="Path 253" d="M280.953,239.933c-.1.064-.191.19-.318.222-.6.191-.953.762-1.524.921-.032,0-.1.064-.127.1-.1.508-.508.508-.889.6a10.228,10.228,0,0,0-1.4.445c-.73.318-1.492.381-2.223.7a.652.652,0,0,1-.349,0c-.794-.222-1.619-.254-2.381-.54a23.766,23.766,0,0,0-3.62-.794,10.621,10.621,0,0,1-2.254-.54c-.032,0-.063-.032-.127-.032-1.08.127-1.429-.762-1.905-1.429a16.78,16.78,0,0,1-1.937-3.556,1.385,1.385,0,0,0-.286-.349,3.591,3.591,0,0,1-.921-1.334c-.127-.318,0-.445.318-.445a1.1,1.1,0,0,1,1.016.7c.444.794.889,1.588,1.3,2.381.572,1.016,1.175,2.032,1.842,2.985a.688.688,0,0,0,.6.318,23.45,23.45,0,0,1,5.557.984,13.3,13.3,0,0,1,1.556.635,2.819,2.819,0,0,0,1.334.222.3.3,0,0,0,.222-.063,9.094,9.094,0,0,1,3.937-1.238,2.139,2.139,0,0,0,1.429-.508,1.532,1.532,0,0,1,1.111-.445h0v.063Z" transform="translate(-181.03 -162.36)" fill="#030382"/>
        <path id="Path_254" data-name="Path 254" d="M199.976,251.9a21.984,21.984,0,0,1,.572-4.064c0-.159,0-.476.286-.445.254,0,.222.286.286.476.1.381.064.794.381,1.111s.064.349,0,.54a7.712,7.712,0,0,0-.254,1.492c0,.254,0,.508-.318.6-.063,0-.127.1-.127.19s.1.064.159.064a.44.44,0,0,1,.381.222,28.952,28.952,0,0,1,1.778,2.6,31.526,31.526,0,0,1,1.619,2.858c0,.064.063.127.1.19.064.222.127.508-.032.635-.191.159-.318-.127-.476-.222a2.9,2.9,0,0,1-.54-.54c-.159-.159-.254-.413-.572-.191-.159.127-.254-.127-.349-.254a8.972,8.972,0,0,1-.54-1.27,9.224,9.224,0,0,0-1.334-2.127c-.159-.254-.286-.508-.444-.762-.127-.191.1-.318.127-.476,0-.1.063-.191,0-.254s-.127,0-.191,0c-.54.254-.54.222-.508-.349h0Z" transform="translate(-139.615 -171.569)" fill="#030382"/>
        <path id="Path_255" data-name="Path 255" d="M13.774,98.572c.1-.318.318-.286.54-.222,1.746.381,3.461.857,5.176,1.4a12.128,12.128,0,0,1,1.461.667c.1.064.222.127.191.286,0,.159-.191.1-.286.127-.73.254-1.429-.127-2.127-.222a16.177,16.177,0,0,0-4.795,0,17.019,17.019,0,0,0-3.556.826,1.951,1.951,0,0,0-.349.1s-.032,0-.127-.064a4.741,4.741,0,0,1,1.461-.7c.953-.191,1.905-.445,2.858-.572a15,15,0,0,1,2.667-.1,2.721,2.721,0,0,1,1.334.159c.127.064.349.1.381-.127,0-.191-.159-.254-.286-.318a12.937,12.937,0,0,0-3.429-.857A15.161,15.161,0,0,0,12.5,98.7c-.73,0-1.461-.127-2.159-.1-.1,0-.191,0-.222-.127a.178.178,0,0,1,.191-.159c.476,0,.921-.159,1.4-.127H13.2c.349,0,.381,0,.6.381h0Z" transform="translate(-9.9 -69.739)" fill="#030382"/>
        <path id="Path_256" data-name="Path 256" d="M72.233,34.364c.1.349-.064.381-.349.349H71.09c-.254,0-.413.064-.413-.254s0-.1-.1-.1-.1.064-.127.127c-.254.476-.381.54-.889.445a1.939,1.939,0,0,0-.413.1c-.286.063-.635.413-.826-.127a.465.465,0,0,0-.127-.064c-.064,0-.1.1-.1.159.064.318-.127.318-.349.286a.945.945,0,0,0-.7.191c-.159.127-.381.286-.476-.127-.063-.254-.254-.1-.286,0-.159.476-.476.54-.889.445a.333.333,0,0,0-.286.159c-.191.191-.349.286-.572,0-.063-.064-.1-.127-.191-.1-.1.064-.064.127-.064.222.064.286-.127.318-.318.286-.222,0-.349,0-.476.191a1.447,1.447,0,0,1-1.111.635c-.191,0-.349,0-.476.191a1.12,1.12,0,0,1-.413.254,1.532,1.532,0,0,0-.7.476s-.064.1-.127.1c-.635.159-.953.73-1.429,1.08-.222.159-.349.191-.54,0-.159-.191-.1-.349.1-.476a39.221,39.221,0,0,1,3.62-2.35,16.247,16.247,0,0,1,4.35-1.588c1.334-.286,2.635-.6,3.969-.889.254-.064.508-.127.54.254a.2.2,0,0,0,.254.159.178.178,0,0,0,.159-.191c0-.254.064-.445.381-.413.349,0,.222.286.254.476h0l-.1.1Z" transform="translate(-43.148 -25.788)" fill="#030382"/>
        <path id="Path_257" data-name="Path 257" d="M17.8,110.087c.476-.159.794-.572,1.3-.73.6-.191,1.207-.127,1.81-.286a2.646,2.646,0,0,1,1.492-.063c.254.1.54-.063.826,0a30.018,30.018,0,0,1,3.778.508,1.354,1.354,0,0,1,.889.635c-.826-.191-1.588-.381-2.318-.508a17.708,17.708,0,0,0-5.493-.222,8.285,8.285,0,0,0-2.286.7h0Z" transform="translate(-15.292 -77.063)" fill="#030382"/>
        <path id="Path_258" data-name="Path 258" d="M28.5,115.673a6.561,6.561,0,0,1,1.746-.349,3.486,3.486,0,0,0,.794-.063c.222-.063.413.063.635,0,.54,0,1.08.1,1.619.1s.54-.1.762.127c0,0,.064.064.1.064.476-.191.826.191,1.27.222.381,0,.54.381.762.635.1.127-.064.159-.159.159a3.714,3.714,0,0,1-.794-.222,11.559,11.559,0,0,0-5.08-.7,13.365,13.365,0,0,0-1.588.127v-.1Z" transform="translate(-22.594 -81.379)" fill="#030382"/>
        <path id="Path_259" data-name="Path 259" d="M252.79,222.19c.667-.064.826.508,1.048.889.19.318,0,.635-.222.921-.286.286-.54.286-.794-.032-.191-.286-.445-.54-.6-.826-.349-.667-.191-.921.54-.921h.032Z" transform="translate(-175.156 -154.365)" fill="#030382"/>
        <path id="Path_260" data-name="Path 260" d="M246.483,213.523a.721.721,0,0,1,1.143-.7.977.977,0,0,0,.413.1c.127,0,.191,0,.254.1.064.127,0,.19-.1.286a2.084,2.084,0,0,1-.54.381,1.246,1.246,0,0,0-.444.254.389.389,0,0,1-.508.063.408.408,0,0,1-.222-.476Z" transform="translate(-171.358 -147.889)" fill="#030382"/>
        <path id="Path_261" data-name="Path 261" d="M263.535,213.9a2.287,2.287,0,0,1,.762.318c.1.064.064.159,0,.254a.833.833,0,0,0-.159.286c-.1.349-.286.445-.572.254a1.666,1.666,0,0,1-.349-.318c-.127-.159-.413-.254-.286-.508.1-.19.381-.19.6-.254h0Z" transform="translate(-182.567 -148.711)" fill="#030382"/>
        <path id="Path_262" data-name="Path 262" d="M344.583,242.7c.1,0,.222,0,.254.127a.212.212,0,0,1-.191.222c-.444,0-.6.286-.73.667a.18.18,0,0,1-.254.127c-.127-.064-.032-.159,0-.254.127-.667.349-.857.921-.889Z" transform="translate(-237.642 -168.366)" fill="#030382"/>
      </g>
    </g>
  </g>
</svg>
