<svg xmlns="http://www.w3.org/2000/svg" width="391" height="205" viewBox="0 0 391 205">
  <g id="Group_445" data-name="Group 445" transform="translate(-580 -3814)">
    <rect id="Rectangle_53" data-name="Rectangle 53" width="391" height="205" transform="translate(580 3814)" fill="#e5f4ff"/>
    <g id="Group_439" data-name="Group 439" transform="translate(514.444 -381.085)">
      <g id="Engraulis_australis_dk" transform="translate(165.293 4259.393)">
        <path id="Path_231" data-name="Path 231" d="M212.974,217.727c-4.956,1.549-9.869,2.567-12.834,7.036-1.46,2.213-3.319,4.16-4.912,6.284-.266.354-.62.708-.929,1.062-.8.929-1.328.752-1.947-.266a34.954,34.954,0,0,1-4.293-9.647c-.62-2.168-.8-2.124-3.053-1.859-5.045.62-10.134,1.062-15.223,1.549-3.363.31-6.771.487-10.311.752,2.08,1.726,2.3,3.231,1.018,5.532a33.112,33.112,0,0,1-5.266,6.638c-.885.885-1.062,0-1.283-.531a46.3,46.3,0,0,1-2.965-9.072c-.443-1.726-1.195-2.3-2.965-2.257-8.01.177-15.975.266-23.985.31a155.133,155.133,0,0,1-41.067-5.487,34.128,34.128,0,0,1-10.709-4.912c-.575-.4-1.549-.752-1.151-1.682.354-.8,1.151-.133,1.726-.221a15.98,15.98,0,0,1,3.806.31c-2.036-1.726-3.85-3.629-6.24-4.779-1.46-.708-3.231-1.5-3.1-3.363.133-1.814,1.859-2.744,3.408-3.408a63.569,63.569,0,0,1,18.188-5.045c16.108-2.036,32.349-2.434,48.59-2.655,5.089-.044,10.223-.133,15.312-.133s1.859-.266,2.08-1.682a109.05,109.05,0,0,1,3.762-15.887,25.371,25.371,0,0,1,1.9-4.514c2.08,3.053,4.116,5.93,6.018,8.851a73.857,73.857,0,0,0,6.417,8.851,10.843,10.843,0,0,0,2.744,2.124c1.947,1.195,1.991,1.151.531,2.788-.177.221-.575.443-.221.708.531.4.752,1.151,1.637,1.151,1.46,0,2.876.221,4.337.266a324.252,324.252,0,0,1,32.7,3.053,141.3,141.3,0,0,0,15.533,1.726c4.16.133,8.143-1.151,12.081-2.213,6.328-1.682,12.612-3.54,19.029-4.779.664-.133,1.46-.575,1.947.133.4.531-.044,1.239-.31,1.814-2.567,5.93-6.727,9.957-13.409,11.462,1.416.8,2.921.841,4.248,1.46,4.912,2.345,7.435,6.594,9.559,11.24.443,1.018-.089,1.416-1.062,1.283a29.063,29.063,0,0,1-3.939-.531q-12.28-2.921-24.472-5.974c-3.629-.885-7.258-.531-10.886-.443a58.054,58.054,0,0,0-11.683,1.637c-.531.133-1.283.044-1.372.8-.089.708.664.841,1.151,1.195a8.414,8.414,0,0,0,1.859,1.328h0Zm-19.87-18.5c.221-1.151-.8-1.018-1.372-1.283-.664-.266-.575.266-.62.664a1.629,1.629,0,0,0-1.549,1.549c-.089.752.752.487,1.195.575,1.018.133.8-.664.885-1.239.575.354.974-.266,1.46-.266.177.575-1.151,1.151,0,1.682.4.177,1.018.221,1.151-.354C194.431,199.715,194.21,199.007,193.1,199.229Zm-10.444-.044a3.327,3.327,0,0,1,0-.664c.133-.531.487-1.106-.354-1.416a.7.7,0,0,0-.929.221c-.4.664.177,1.062.443,1.5.177.4.487.4.841.354-.266,1.062.487,1.106,1.195,1.018,1.372-.177.4-1.151.575-1.726.62.044.531.974,1.416,1.018-.089-.752.885-1.239.221-2.036a.756.756,0,0,0-.885-.31c-.8.177-.664.8-.752,1.372-.752-.221-1.239.31-1.77.664h0Zm-14.692,9.337c.221-.177.841-.487.354-.575-.575-.133-.885-1.239-1.637-.531-.443.4-.841,1.018-.4,1.5.531.575,1.018-.089,1.46-.4.221.974-.752,1.195-1.106,1.814-.62-.487-.974.089-1.372.4-.31-1.328-.885-1.416-1.726-.354-1.283-.929-1.372.266-1.77.974-.133.31-.266.752-.664.708-.531-.089-.354-.62-.443-1.018.487.133,1.018-.133.885-.487-.531-1.46,1.239-3.275-.752-4.381-.929,1.151-1.9,2.39-.354,3.939s.177.664.221.974c-.575-.575-.929-1.814-2.124-.708-.044-.708-1.593-1.372.044-2.08.31-.133.177-.62.044-.974-.31-.664-.885-1.328-1.549-.885a1.807,1.807,0,0,0-.664,2.434c.31.62.841,1.106.752,1.859-.974-1.062-1.46-.354-1.9.62a11.106,11.106,0,0,0,.089-3.408c-.089-.4.62-1.416-.885-1.195-1.283.177-1.372.929-1.328,1.77a4.755,4.755,0,0,0,.62,1.593,1.035,1.035,0,0,0-1.549.044c-.044-.62.089-1.372-1.018-1.062-.443.133-.885-.044-.4-.575.31-.31.221-.487,0-.708-.221-.266-.487-.221-.752-.044a.6.6,0,0,0-.31.708c.177.575.31,1.106.487,1.682-.487-.31-.8,0-1.106.354-.8-1.106-.487-2.655-1.195-3.894-1.195,1.062-2.3,1.947-1.195,3.54-.4-.221-.752-.266-1.062.133-.4-.929-.8-1.814-1.195-2.744,0,0,.089-.088.133-.088,1.372-.089.531-.62.177-.974-.664-.708-.974.266-1.106.443a2.3,2.3,0,0,0,0,3.231,1.3,1.3,0,0,0-1.5.4c.089-.974-.487-1.859-.266-2.832a1.008,1.008,0,0,0-1.151-1.195,1.291,1.291,0,0,0-1.106,1.283,10.793,10.793,0,0,0,.31,2.036c-.266.089-.531.221-.8.31.133-1.416-1.682-2.213-1.106-3.762.044-.089-.266-.4-.443-.443-.266-.089-.4.133-.487.354-.443,1.106-1.46,2.168-.4,3.452-1.106-.044-1.106-.841-1.283-1.682-.133-.708-.443-1.593-1.283-1.637-.929-.089-1.106.885-1.372,1.549a14.138,14.138,0,0,0-.443,2.168c-.62-1.637-.443-3.319-1.726-3.983-2.08.487-.133,2.788-1.947,3.585-.177-1.549,0-3.142-1.682-4.248.266,1.195-.664,1.682-.929,2.522-.4,1.195,1.195,1.416,1.283,2.434-.664-.221-1.106-1.195-1.814-.31-.177-1.062,0-2.168-.575-3.142-.266-.443-.487-1.018-1.062-.974-.531.044-.487.708-.752,1.018-.752,1.018-.4,1.859.266,2.7-1.195-.531-.752.8-1.416,1.239.266-2.213.089-4.2-1.77-5.576a3.117,3.117,0,0,0-.708,2.876c.177.708-.177.929-.62,1.239-.133-.62-.221-1.239-.354-1.859-.089-.487-.133-1.195-.885-.929-.664.221-1.239.708-1.018,1.549a6.309,6.309,0,0,0,.575,1.239c-.4-.177-.885-.841-1.106.221a18.586,18.586,0,0,0-.31,2.744c-.133,1.77.044,1.991,1.726,1.77,1.018-.133.487-1.372,1.372-1.682.8,1.239,1.593,2.744,3.363,2.832,1.9.044,3.452,1.195,5.222,1.637,1.991.487,2.08.575,2.213-1.593.575.974,1.151,1.991,1.77,2.965a1.061,1.061,0,0,0,.974.62c.487-.044.575-.531.664-.929.089-.708.133-1.416.221-2.3a3.792,3.792,0,0,1,.929,1.682c-1.416.885-.575,2.345-.929,3.54-.133.4.62,1.195,1.328,1.151.8-.044.929-.841.841-1.46a12.037,12.037,0,0,0-.575-2.168c.531.266.752.974,1.416,1.018a1.877,1.877,0,0,0,1.682,2.257c.929.044.8-1.239.752-2.08v-.487l.708.708c.177.8.531,1.726,1.46,1.593,1.018-.133.841-1.195.929-1.947h.8c-.133.8.4,1.283.841,1.814.531.664,1.239.487,1.283-.177.177-2.08,2.213-3.585,1.637-5.841.221.133.487.221.708.354a25.864,25.864,0,0,1-.664,2.655c-.708,1.814-.752,1.77.664,3.275a1.978,1.978,0,0,0,.974-1.726c-.088-1.106.62-.708,1.106-.708-.133.575-.221,1.151.443,1.5a1.129,1.129,0,0,0,1.283-.089c.531-.443.4-1.062.266-1.593-.089-.443-.221-.885-.354-1.328,1.416.31,2.39.044,2.08-1.726.266.044.487.089.752.133-.133.487.133.841.31,1.283.266.575.575,1.018,1.239.929s.664-.752.708-1.195a20.743,20.743,0,0,0-.044-2.345c.354.443.4,1.062.974,1.328.221.575.443,1.195.62,1.77.133.443.221.974.841.885s.8-.62.841-1.151a24.869,24.869,0,0,0,.089-2.567c.752,1.151.974-.044,1.372-.354a8.762,8.762,0,0,1-.266,1.151c-.487,1.46.089,2.611,1.682,3.319,0,.885.089,2.036,1.062,2.08,1.106,0,.929-1.239.974-2.08v-.708l.708.708c.4.885.8,2.168,1.77,2.036,1.195-.133.841-1.549.929-2.478.177.221.443.354.575.62.974,2.08,1.416,2.213,3.319,1.062,2.213.708,2.39.575,2.39-1.637.31.266.664.62,1.062.089.089.752.044,1.637,1.151,1.593.974-.044.929-.841.974-1.5v-.531c.664.752.8,2.257,2.3,1.859,1.195-.31.752-1.372.841-2.168.354.177.62.62,1.062.354,0,.487-.487.974.044,1.416.487.443.929-.044,1.416-.133,1.5-.266.708-1.239.62-1.991.487.221.664,1.062,1.46.664-.266,1.239.531,1.062,1.283,1.018,1.328-.089.974-.929.708-1.682a3.192,3.192,0,0,0,1.77.531c.62.044,1.46.62,1.77-.531.443.354.62.177.885-.266.974-1.593.31-2.921-.575-4.248.31.266.62.487.929.8.575.531.487,1.416.885,2.036.354.575.62,1.46,1.593,1.239.885-.177,1.151-.841,1.106-1.682v-.708a.576.576,0,0,1,.487.62c-.133.929.089,1.416,1.195,1.195,1.062-.177,1.5-.664,1.416-1.726-.044-.443-.62-.841-.221-1.416.354.266.664.487.974.752.177.575-.62,1.416.487,1.726a1.6,1.6,0,0,0,1.859-.531c.752-.885-.133-1.593-.31-2.345,1.151.8,1.682.31,1.814-.885a9.188,9.188,0,0,0-.044-1.549c.266.044.531.044.752.089-.4,1.46.708,2.168,1.5,3.053.221,1.5,1.018.443,1.5.31,1.726-.487-.177-1.283.089-1.814.929-.354.752,1.593,1.859.752.265.664.531,1.283,1.195.31.133-.177.089-.4.443-.31,1.151.266,1.195.266,1.328-.841a13.037,13.037,0,0,0,.044-1.859c.266.31.531.664.8.974.177,1.372.841,2.168,2.3,1.593,1.195-.443,0-1.5.443-2.213h.354a1.831,1.831,0,0,0,.221.841c.354.531.664,1.328,1.549,1.018.841-.266.885-.974.708-1.682a2.133,2.133,0,0,1,0-.531,1.129,1.129,0,0,0,1.062,0,1.367,1.367,0,0,0,.752,1.859c.885.4.885-.487,1.151-.885.531-.752.752.044,1.062.177,1.283.664,1.991.443,1.859-1.151a1.131,1.131,0,0,0,1.062.044,1.1,1.1,0,0,0,.974,1.5c.929.177.974-.575,1.062-1.195.266.133.487.221.752.354a1.06,1.06,0,0,0,1.549.487c.841-.443.089-.974.133-1.5,1.062.177.4,2.7,2.124,1.726,1.549-.885-.177-1.726-.4-2.567-.265-1.106-1.195-.885-1.814-.62-1.062.443-.044,1.018.089,1.5a1.347,1.347,0,0,0-1.46.443c-.044-.841.664-1.947-.575-2.345-.841-.266-1.328.4-1.46,1.239-.266.133-.487.266-.752.4a.875.875,0,0,0-.089-.487c-.31-.752-.841-1.151-1.593-.752-.929.487,0,.929.133,1.372.044.177.133.31.177.487-.531-.575-1.283-.841-1.814-1.593-1.018-1.372-1.991-.177-2.7.885-.133-.575.133-1.416-.8-1.5-.487-.044-1.239,0-1.416.266-.4.575.443.929.62,1.46.044.177.133.31.177.487-.575-.31-.929-1.106-1.77-.664-.044-.575.4-1.5-.841-1.283-.708.133-1.77-.089-1.195,1.283a4.877,4.877,0,0,1-.8.089c-.044-.664,0-1.416-.974-1.46-.752-.044-1.372.044-1.372,1.018-.487,0-.708.31-1.018.575-.266-.487.575-1.328-.443-1.5-.62-.089-1.283,0-1.328.885-.841-.443-.974.443-1.416.752-.044-.664-.089-1.416-.974-1.283-.8.133-.4.8-.354,1.239-.487-.31-.974-.62-1.416,0-.044-.575.044-1.195-.8-1.283-.664-.044-.929.31-.885.929-.664-.487-1.062-.044-1.46.4.044-.929-.354-1.682-1.328-1.682s-.31.8-.4,1.239a1.349,1.349,0,0,0-1.018,0c-.752-1.682-1.416-.708-2.08.089-1.151-.221-1.106,1.106-1.859,1.416,0-.531.841-1.151-.089-1.549-.31-.133-.974-.487-1.151.133-.31,1.062-1.151.443-1.372.266-.974-.885-1.637-.885-2.168.4-1.151-1.018-2.257-2.08-2.213-3.717a3.953,3.953,0,0,0-.62,4.027c-.575-.133-1.195-.62-1.726.089-.089-1.151-.841-1.151-1.682-.929-.487.133-.929.354-1.416.531-.664-.974-2.168-1.416-1.549-3.23-1.814,1.151-.575,2.257-.531,3.319-.62-.443-1.018-.044-1.46.31a1.916,1.916,0,0,0-.044-.708c-.31-.752-.841-1.814-1.637-1.549-.929.31-.177,1.239,0,1.947-.443-.044-.885-.221-1.239.266-.089.133-.443.487-.4.221.133-1.062-1.46-1.283-.708-2.744a2.835,2.835,0,0,0-1.062,2.345c-.62-.221-1.195-.354-1.416-1.239s-1.239-.266-1.9-.487c-.221-.089-.31.62-.044.841,1.637,1.283,1.46,3.363,2.213,5-1.416-1.151-1.328.841-2.124,1.018a25.059,25.059,0,0,0,.885-2.567,2.037,2.037,0,0,0-1.9-2.655,6.041,6.041,0,0,0-.62-2.168h0Zm30-8.275c.354-.044.708-.044,1.106-.089-.177.8.177,1.151.974,1.151s.929.089.885-.487c-.044-.8-.354-1.46-1.328-1.46.177-1.372-.8-1.372-1.637-1.151-1.151.266-.044.929-.089,1.416a2.611,2.611,0,0,1,.089.62c-.531-.221-.487-1.726-1.5-.8-.31.266-.974.974-.354,1.46.752.575,1.5.266,1.859-.664Zm-37.925-1.416c.443.8,1.106.885,1.682.354.62-.575.133-1.195-.221-1.77-.8.31-.664,1.328-1.46,1.416-.354-.752,1.593-1.859-.4-2.3.221-.531,1.018-.575.929-1.46-1.195.443-2.434.664-1.9,2.39-1.195-.266-.885,1.283-1.77,1.416a5.22,5.22,0,0,1,.266-1.195c.752-1.416-1.283-1.328-1.239-2.434,0-.31-.31,0-.443.133-.885.752.177,1.328.177,2.036s.266.4,0,.664c-.531-.266-.575-1.416-1.549-.974-.221-.62.31-1.726-.31-1.859a2.594,2.594,0,0,0-2.124.487c-.487.487-.221.885.089,1.372a11.08,11.08,0,0,1,.4,1.106c-.841-.841-2.257-1.283-1.859-2.921.088-.266-.133-.62-.62-.575a1.556,1.556,0,0,0-1.239,2.257c.266.487.487,1.062.752,1.549.752,1.239,1.991,1.283,3.142.177.974-.133.974-1.328,1.77-1.637.089.885-.752,1.372-.974,2.124,1.372.841,2.522-.089,3.762-.4a1.244,1.244,0,0,0,1.9.487c.708-.531-.221-1.239-.177-1.859.708.266.885,1.018,1.416,1.416h0Zm6.638-.31c-.089.752.221,1.062.974.974.62-.089.531-.487.354-.885-.4-.974-.885-.354-1.328-.089-.044-.62,0-1.239-.089-1.859a.723.723,0,0,0-1.018-.62c-.443.133-1.106.354-.885.841C165.091,197.635,165.268,198.875,166.684,198.521Zm-53.5-.31c-.487-.089-.885-1.062-1.416-.221-.31.531-.708,1.195-.354,1.77s1.062.443,1.593.31c1.151-.31.31-1.151.354-1.726,1.637.221,1.062-1.018,1.018-1.682-.044-.531-.443-1.416-1.195-1.106-.8.31-.929,1.106-.354,1.9a5.761,5.761,0,0,0,.354.752Zm49.652.974c.266.487.708.266,1.106.266s.974.044,1.062-.575a.653.653,0,0,0-.354-.708c-.531-.31-.708.177-.974.443-.31.177-.575.4-.841.575.221-.575.487-1.151.708-1.726a1.887,1.887,0,0,0,0-1.814c-.177-.266-.487-.974-.8-.31-.266.531-1.682.221-1.018,1.151.62.841.62,1.859,1.106,2.7h0Zm-25.092-1.372c1.062.8,1.106-.221,1.328-.752.221-.575.841-1.195.089-1.859-.266-.221-.531-.089-.8-.044-2.036.443-.62,1.726-.62,2.655-.443-.177-.885-.929-1.416-.133a4.567,4.567,0,0,0-.929,1.77c-.044.487.752.31,1.151.31.841-.044,1.195-.575,1.151-1.416v-.531h0Zm-3.717-.974c-.8.133-.8,1.151-1.5,1.372.044-.177.044-.354.089-.487.266-1.062.62-2.345-.62-2.876-1.106-.443-1.239,1.018-1.859,1.593-.177.266-.31.575-.575,1.018a10.859,10.859,0,0,0-.31-1.637c-.221-.487-.4-1.283-1.151-.974-.664.31-1.549.708-1.106,1.814.133.31.266.62.4.974-1.5-1.416-1.416.62-2.124.974,0-.841.487-1.682.177-2.522-.266-.664-.708-1.328-1.5-1.062-.487.177-1.062.885-.752,1.372.575.841.752,2.08,2.08,2.213-.133.62-.044,1.195.752,1.195.8.044,1.814.354,2.036-.929.708,1.239,1.991,1.018,2.965.752.885-.221.044-1.195.133-1.814.354.31.752.664,1.106.974.089.31,0,.664.487.752,1.416.31,1.77-.133,1.549-2.124.62.752,1.151,1.151,1.637-.133.354-.974.354-2.08-.575-2.39-.841-.266-1.018.885-1.283,1.593-.089.089-.044.221-.044.354Zm-12.612,1.682c0,.531-.31,1.239.575,1.328a2.166,2.166,0,0,0,1.947-.31c.4-.443,0-.974-.221-1.416-.575-.974-1.195-1.726-1.814,0-.089.133-.354.266-.487.4a7.709,7.709,0,0,1,.221-.974,2.139,2.139,0,0,0-.4-2.213c-.885-.841-1.239.31-1.9.443-.221.044-.443.133-.664.177a4.344,4.344,0,0,1-.8-.354c-.575-.4-1.018-.974-1.726-.133a1.282,1.282,0,0,0,.044,1.947,9.979,9.979,0,0,1,1.062,1.593,2.045,2.045,0,0,0,2.7.841c1.195-.4.354-1.328.354-2.036a5.863,5.863,0,0,1,1.106.708Zm23.676.044c1.195-.443,2.213-2.168,1.9-3.186a1.315,1.315,0,0,0-.974-.885c-.531-.177-.664.31-.974.531-1.239.8-.266,1.726-.221,2.611-.664-.487-1.283-1.195-1.9.044v-1.372c-.044-.62.044-1.416-.708-1.637s-1.239.531-1.726.974c-.531.443.089,1.062.044,1.637-1.682-.575-1.018,1.195-1.682,1.726-.31.221.089.531.487.575.841.089,1.77.354,1.814-1.018.531.531.974.31,1.46-.089a1.069,1.069,0,0,0,1.151,1.151c.708,0,1.283-.266,1.328-1.062ZM112.828,212.5c-.044,1.062-.221,2.168-.177,3.23A1.1,1.1,0,0,0,113.8,216.8c.8-.133.664-.841.531-1.372a16.517,16.517,0,0,0-.62-1.947c1.195.974,1.46.177,1.416-.841-.044-1.106.221-2.744-1.239-2.744s-1.151,1.5-1.062,2.611h0ZM79.638,211.4c1.151,1.283,2.7,1.46,4.293,1.637-1.46-.531-2.876-1.106-4.293-1.637a10.58,10.58,0,0,1-2.478-2.7c1.9.8,3.363,1.859,5.089,2.3,4.735,1.283,9.426,2.788,14.471,2.478.4-.044,1.062-.266,1.151.354.089.443-.708.177-.841.575.841.4,1.947.266,2.434,1.195.575,1.106-.221,1.682-.929,2.3-.221.177,0,.443.177.575.266.177.4.177.708-.089,1.239-1.106.974-2.213.221-3.363A49.721,49.721,0,0,0,93,206.176a5.607,5.607,0,0,1-1.682-2.257,5.505,5.505,0,0,1,.664.221,46.977,46.977,0,0,1,7.39,9.116c.8,1.283,2.168,2.3,2.124,4.071,0,.62.443.8,1.106.664,2.168-.4,2.832-1.947,1.372-3.806a46.214,46.214,0,0,1-4.824-6.549c-.929-1.637-1.77-3.408-3.363-4.6-.266-.177-.354-.664-.974-.487a2.221,2.221,0,0,1-2.655-.974c-.929-1.195-3.585-1.239-4.381-.221,1.859.664,1.9,2.345,1.9,3.806a2.8,2.8,0,0,1-2.39,2.832c-1.195.266-2.345.575-3.585.8a8.126,8.126,0,0,1-5.576-.575,4.958,4.958,0,0,1-1.947-7.169c.177-.31.664-.487.487-1.018-.885-.089-1.328.8-2.213.752A43.694,43.694,0,0,1,87.294,196a3.036,3.036,0,0,0-1.859-.089,56.278,56.278,0,0,0-11.683,3.452c-1.682.708-3.5,1.239-4.558,2.921h0c-1.549,1.372-1.46,1.859.266,2.921,1.77,1.106,3.894,1.416,5.4,3.186a7.939,7.939,0,0,0,4.779,3.009h0Zm23.543-5.62c-1.549-.885-2.168-2.832-4.2-2.921-.443,0-.929.443-1.239,0-.266-.31-.354-.8-.841-.266-.4.443-.044.708.221,1.018,2.567,2.876,4.293,6.373,6.9,9.249,1.726,1.9,2.345,2.3,4.647,1.106a1.159,1.159,0,0,0,.575-1.726,38.911,38.911,0,0,0-4.647-7.258c-.266-.354-.575-.841-1.106-.62-.708.266,0,.841-.31,1.416h0Zm-19.339-1.77c-.088-2.655-1.549-4.381-3.717-4.293-1.549.044-3.186,2.08-3.142,3.806.088,2.124,2.124,4.381,3.894,4.293C82.16,207.77,83.886,205.513,83.842,204.008Zm45.847,14.161c-3.762-1.106-7.39-2.611-11.329-3.23a11.141,11.141,0,0,0-2.434-.044c-1.018.044-.974.841-1.018,1.5-.044.752.531.8,1.062.8,4.6,0,9.116.708,13.719.974Zm-19.25-2.567c-.221-.31-.089-.974-.8-1.106-1.682-.31-4.824,2.567-4.691,4.248.044.62.487.62.885.443,1.328-.664,2.655-1.372,3.894-2.124a1.59,1.59,0,0,0,.708-1.46h0Zm-23.41-11.329a4.419,4.419,0,0,0-1.859-2.655,7.316,7.316,0,0,1-.885,5.8c1.151.044,1.5-.62,1.947-1.106.354-.4.708-.8,1.328-.575,1.283.487,1.46-.266,1.195-1.195-.177-.62,0-1.372-.4-1.9C87.249,202.769,88.135,204.052,87.028,204.273Zm72.841,15.8c0-.177.044-.4.044-.575-2.345.044-4.514-.62-6.815-.885-.443-.044-1.283-.62-1.151.575.089.708-.177,1.637,1.062,1.5C155.267,220.47,157.568,220.249,159.869,220.072Zm-1.195-30c.885-4.337,1.549-8.674,2.213-13.055A52.032,52.032,0,0,0,158.675,190.068Zm-1.9-.221c.221.044.443.044.664.089.531-4.248,1.018-8.541,1.549-12.789C158.1,181.35,156.9,185.554,156.772,189.847Zm7.258-9.913c-.885,3.319-1.726,6.682-2.611,10-.089.31-.177.8.221.885.575.177.664-.354.708-.752.443-3.363,1.46-6.682,1.682-10.134Zm-1.726-.31a41.126,41.126,0,0,0-1.991,10.8C161.2,186.882,161.551,183.209,162.3,179.624ZM88.533,198.167c.531-.133.8-.752,1.195-.443.841.664,1.372.177,1.77-.443.31-.487-.221-1.018-.575-1.328-.575-.531-1.283-.221-1.9.089-.354.177-.088.974-.664.708-.443-.221-.929-.266-.885.266,0,.531.62.929,1.062,1.151Zm99.526.841c-.929-.885-1.239-.044-1.637.62-.133.221-.4.575-.044.752.575.221,1.328.531,1.726-.089.354-.575,1.106-.62,1.328-1.283.133-.487.664-.929.31-1.416-.4-.531-.974,0-1.372.089-1.018.221.31.8-.31,1.328h0Zm-22.215-16.285c-1.062,2.7-2.39,5.31-2.522,8.231.177.044.31.089.487.133.664-2.788,1.328-5.576,2.036-8.364Zm-43.368,23.631c.266-.8.443-1.549-.133-1.991-.664-.531-.664-.708.089-.974.31-.089.575-.354.266-.575a1.973,1.973,0,0,0-1.593-.354c-.354.089-.62.133-.487.443.4,1.151.133,2.744,1.859,3.452h0Zm-11.285-8.806c.089-1.018-.31-1.726-1.195-1.726s-1.372.531-1.239,1.151a2.569,2.569,0,0,0,1.77,1.726C111.279,198.875,111.1,197.9,111.191,197.547Zm4.293,2.567c.487-.177,1.416.133,1.283-.885-.089-.752-.531-1.637-1.283-1.593-.929.044-.929,1.195-1.106,1.9C114.156,200.423,115.041,199.892,115.483,200.114Zm77.886,28.012c-.62-2.39-1.283-4.779-1.9-7.169l-.4.133a19.643,19.643,0,0,0,2.3,7.036h0ZM80.3,198.609a8.712,8.712,0,0,1,4.027,2.124c.221.266.752.531.974-.044.221-.487-.266-.531-.575-.62a2.989,2.989,0,0,1-1.328-1.018C82.78,198.167,81.806,197.945,80.3,198.609Zm25.933-2.567a1.226,1.226,0,0,0-.929,1.239c.089.708.841.974,1.416,1.062.664.089.664-.487.664-.974a1.2,1.2,0,0,0-1.151-1.328h0Zm-11.9,19.339c1.239.487,2.3,1.151,3.629,1.018.266-.044.221-.4.044-.575a4.543,4.543,0,0,0-3.54-.8A.647.647,0,0,1,94.33,215.381Zm73.2-18.232c.929.575,1.062,1.46,1.637,2.168.575-.708,1.195-1.328.664-2.168S168.5,196.618,167.525,197.149Zm26.6,22.923a1.851,1.851,0,0,0-.443.177,22.423,22.423,0,0,0,2.478,6.151C195.494,224.276,194.785,222.152,194.122,220.072ZM110.7,221.355a1.148,1.148,0,0,0,1.106-1.062c.089-.531-.044-1.151-.664-1.195a1.288,1.288,0,0,0-1.283,1.151A.98.98,0,0,0,110.7,221.355ZM232.888,210.6c.133-.752,1.372-1.283.487-2.08-.354-.31-1.195-.62-1.549,0C231.206,209.54,232.445,209.894,232.888,210.6Zm-85.719-11.2c.487-.177,1.328.177,1.283-.752-.044-.575-.221-1.5-.929-1.416-.62.089-.929.974-1.106,1.593-.221.62.354.575.752.575h0Zm19.25-12.745a10.39,10.39,0,0,0-1.328,4.824A10.536,10.536,0,0,0,166.419,186.661ZM180.226,200.2c.487-.133,1.239.089,1.151-.664-.044-.531-.354-1.283-.974-1.239-.664.044-.841.885-1.018,1.416C179.164,200.291,179.872,200.069,180.226,200.2Zm9.382,21.02a19.088,19.088,0,0,0,1.593,5.841C190.758,225.073,190.67,223.037,189.608,221.223Zm13.674-8.187a3.259,3.259,0,0,0-.974,1.637c-.089.531.221.708.708.664.841-.044,1.018-.664,1.106-1.283.089-.487-.221-.841-.841-1.018Zm-34.651-26.773c-.974,1.637-1.9,3.319-1.726,5.355C167.481,189.8,168.056,188.032,168.632,186.262Zm3.363,10.267c-.31.089-.885.133-.664.664.221.62.443,1.416,1.195,1.46.443.044.531-.664.62-1.106C173.234,196.795,172.659,196.618,171.995,196.529Zm30.623,2.611c.133-.664-.31-.929-.841-1.106-.443-.133-.885.044-.929.487a1.58,1.58,0,0,0,.8,1.593c.575.221.752-.531.974-.974Zm-76.6,7.523c.221-.974.885-1.682.177-2.39-.4-.4-1.239,0-1.372.31-.354.885.575,1.283,1.195,2.08h0Zm-40.757,8.408a8.376,8.376,0,0,0-5.045-1.062A14.956,14.956,0,0,0,85.258,215.071Zm118.024-13.63c.62-.044.974-.31.929-.974-.044-.443.089-1.062-.575-1.018s-.885.664-1.018,1.239c-.089.487.177.752.664.752Zm-40.4,7.479c1.814-.4,1.5-1.593,1.283-3.053C163.365,206.884,162.7,207.681,162.879,208.92Zm42.528-7.169c.929-.133,1.814.221,2.124-.708a.83.83,0,0,0-.664-1.062C206.026,199.981,205.76,200.822,205.406,201.751ZM90.126,217.284c-1.593-1.195-3.54-.752-5.31-1.283A16.963,16.963,0,0,0,90.126,217.284Zm42.085-12.878c-.354.089-1.018-.531-.974.354a1.2,1.2,0,0,0,1.151,1.106c.575,0,.8-.443.8-.929,0-.8-.531-.62-.974-.531h0Zm-6.992-1.062c.443-.089,1.062.089,1.151-.531.089-.575-.4-.8-.929-.664-.443.089-1.195-.177-1.239.575C124.2,203.344,124.821,203.3,125.219,203.344Zm67.664,17.215a1.292,1.292,0,0,1-.4.089c.443,1.593.841,3.142,1.283,4.735.089-.044.221-.044.31-.089C193.679,223.745,193.281,222.152,192.883,220.559Zm18.631-18.9c1.018.044,1.682.531,2.168-.177a.731.731,0,0,0-.354-1.018C212.354,200.069,212.266,201.043,211.513,201.663ZM110.35,199.715c-.752-1.018-1.062-1.726-2.036-1.726s-.31.266-.266.354c.221.929,1.018,1.018,2.3,1.372h0Zm64.566-.575c-.266-.31-.487-.841-.841-.974-.443-.177-.62.354-.8.708-.221.531.133.8.575.708.354-.044.841.133,1.062-.443Zm-69.832-.177a1.924,1.924,0,0,0,1.593,1.372c.089,0,.266-.266.266-.354a1.656,1.656,0,0,0-1.859-1.018h0Z" transform="translate(-67.284 -169.8)" fill="#030382"/>
        <path id="Path_232" data-name="Path 232" d="M71.5,240.835c1.195-.044,2.478.221,2.965-1.372.089-.31.443-.841.885-.443a1.079,1.079,0,0,1,.177,1.416c-.62.974-2.876,1.151-4.027.4Z" transform="translate(-69.634 -208.309)" fill="#030382"/>
        <path id="Path_233" data-name="Path 233" d="M196.542,261.928c.664-.177.62-.974,1.062-1.328-.089,1.283-.929,2.655.31,3.85-2.257.177-1.062-1.593-1.372-2.522Z" transform="translate(-139.315 -220.418)" fill="#030382"/>
        <path id="Path_234" data-name="Path 234" d="M227.1,264.1c-.266,1.151.752,1.77,1.018,2.7-.841-.841-1.328-.089-1.814.443a8.682,8.682,0,0,0,.089-3.54C226.654,263.833,226.875,263.966,227.1,264.1Z" transform="translate(-155.93 -222.146)" fill="#030382"/>
        <path id="Path_235" data-name="Path 235" d="M96.342,244.03a2.394,2.394,0,0,1-1.682,2.39,2.3,2.3,0,0,1-2.788-.8,2.326,2.326,0,0,1,0-2.876c.841-1.195,2.08-.4,3.142-.62.708-.221,1.195.974,1.283,1.9h.044Z" transform="translate(-80.713 -210.087)" fill="#030382"/>
        <path id="Path_236" data-name="Path 236" d="M320.605,263.354a9.952,9.952,0,0,1,1.062-.354c-1.372,1.637.221,2.655.8,3.894-.664-.089-1.062-1.593-1.9-.443-.664.841-1.372,1.77-.221,2.832a1.927,1.927,0,0,1,.31.752c-2.124-.31-1.46-1.859-1.416-3.142C320.738,266.1,320.472,264.637,320.605,263.354Z" transform="translate(-207.663 -221.756)" fill="#030382"/>
        <path id="Path_237" data-name="Path 237" d="M329.695,264.6c-.752,1.416.443,2.168,1.062,3.142-.708-.044-1.372-1.283-2.257,0C329.12,266.68,328.411,265.308,329.695,264.6Z" transform="translate(-212.903 -222.648)" fill="#030382"/>
        <path id="Path_238" data-name="Path 238" d="M283.326,262.9c.31.266.62.531,1.106.354-.708,1.9.31,3.142,1.682,4.248,0,.443,0,.885.044,1.328-.974.354-.885,1.637-1.726,2.08.221-1.018,1.018-1.859.752-2.965a2.693,2.693,0,0,0-.929-1.814.335.335,0,0,0-.531.221c-.221.841-1.328,1.46-.752,2.522.266.443.531.885.752,1.328-1.195-1.239-1.416.443-2.124.708a6.531,6.531,0,0,0,.354-4.2c.62.62.929.266,1.239-.354a5.408,5.408,0,0,0,.133-3.452h0Z" transform="translate(-186.758 -221.7)" fill="#030382"/>
        <path id="Path_239" data-name="Path 239" d="M271.01,262.418c.354-.354.708-.708,1.062-1.018-.841,1.682-.354,3.142.708,4.558-.841-.885-1.593-.929-2.08.31C270.788,264.985,270.877,263.7,271.01,262.418Z" transform="translate(-180.681 -220.864)" fill="#030382"/>
        <path id="Path_240" data-name="Path 240" d="M238.3,272.517c.133-1.106.221-2.168.354-3.275,1.416-.62,1.106-1.991,1.328-3.142.266.487.487.929.752,1.416a6.174,6.174,0,0,0-1.593,3.053A4.041,4.041,0,0,1,238.3,272.517Z" transform="translate(-162.619 -223.484)" fill="#030382"/>
        <path id="Path_241" data-name="Path 241" d="M248.508,263.9l.664.664c-.487.974.664,1.328.8,2.08-.443-.221-.929-.664-1.239.177a1.95,1.95,0,0,1-.929,1.195,9.409,9.409,0,0,0,.708-4.116Z" transform="translate(-167.915 -222.257)" fill="#030382"/>
        <path id="Path_242" data-name="Path 242" d="M315,262.852c.487-.044.708-.487,1.018-.752-.885,1.593-.31,2.921.708,4.2-.664-.31-1.239-1.46-2.124-.221C314.733,265.021,314.866,263.959,315,262.852Z" transform="translate(-205.154 -221.254)" fill="#030382"/>
        <path id="Path_243" data-name="Path 243" d="M307.608,269.013c-.487-.177-.929-1.062-1.46-.4-.487.62-1.239,1.283-.885,2.257a8.086,8.086,0,0,0,.62,1.239c-1.947-.443-1.328-2.036-1.416-3.275.4.4.752.531.974-.133.221-.62.443-1.283.664-1.9.443.752,1.283,1.283,1.5,2.213h0Z" transform="translate(-199.49 -223.874)" fill="#030382"/>
        <path id="Path_244" data-name="Path 244" d="M232.524,271.158c-1.549-1.328-1.416.664-2.124,1.062.221-1.549.929-3.009.354-4.6.929.266.929-.443,1.018-.974.089-.929.044-1.814.089-2.744.221.221.443.443.708.664a2.4,2.4,0,0,0,.354,1.46c-1.593,1.593-1.593,3.319-.4,5.133Z" transform="translate(-158.215 -222.257)" fill="#030382"/>
      </g>
      <g id="Engraulis_australis_dk-2" data-name="Engraulis_australis_dk" transform="translate(165.293 4259.393)">
        <path id="Path_232-2" data-name="Path 232" d="M71.5,240.835c1.195-.044,2.478.221,2.965-1.372.089-.31.443-.841.885-.443a1.079,1.079,0,0,1,.177,1.416c-.62.974-2.876,1.151-4.027.4Z" transform="translate(-69.634 -208.309)" fill="#030382"/>
        <path id="Path_233-2" data-name="Path 233" d="M196.542,261.928c.664-.177.62-.974,1.062-1.328-.089,1.283-.929,2.655.31,3.85-2.257.177-1.062-1.593-1.372-2.522Z" transform="translate(-139.315 -220.418)" fill="#030382"/>
        <path id="Path_234-2" data-name="Path 234" d="M227.1,264.1c-.266,1.151.752,1.77,1.018,2.7-.841-.841-1.328-.089-1.814.443a8.682,8.682,0,0,0,.089-3.54C226.654,263.833,226.875,263.966,227.1,264.1Z" transform="translate(-155.93 -222.146)" fill="#030382"/>
        <path id="Path_235-2" data-name="Path 235" d="M96.342,244.03a2.394,2.394,0,0,1-1.682,2.39,2.3,2.3,0,0,1-2.788-.8,2.326,2.326,0,0,1,0-2.876c.841-1.195,2.08-.4,3.142-.62.708-.221,1.195.974,1.283,1.9h.044Z" transform="translate(-80.713 -210.087)" fill="#030382"/>
        <path id="Path_236-2" data-name="Path 236" d="M320.605,263.354a9.952,9.952,0,0,1,1.062-.354c-1.372,1.637.221,2.655.8,3.894-.664-.089-1.062-1.593-1.9-.443-.664.841-1.372,1.77-.221,2.832a1.927,1.927,0,0,1,.31.752c-2.124-.31-1.46-1.859-1.416-3.142C320.738,266.1,320.472,264.637,320.605,263.354Z" transform="translate(-207.663 -221.756)" fill="#030382"/>
        <path id="Path_237-2" data-name="Path 237" d="M329.695,264.6c-.752,1.416.443,2.168,1.062,3.142-.708-.044-1.372-1.283-2.257,0C329.12,266.68,328.411,265.308,329.695,264.6Z" transform="translate(-212.903 -222.648)" fill="#030382"/>
        <path id="Path_238-2" data-name="Path 238" d="M283.326,262.9c.31.266.62.531,1.106.354-.708,1.9.31,3.142,1.682,4.248,0,.443,0,.885.044,1.328-.974.354-.885,1.637-1.726,2.08.221-1.018,1.018-1.859.752-2.965a2.693,2.693,0,0,0-.929-1.814.335.335,0,0,0-.531.221c-.221.841-1.328,1.46-.752,2.522.266.443.531.885.752,1.328-1.195-1.239-1.416.443-2.124.708a6.531,6.531,0,0,0,.354-4.2c.62.62.929.266,1.239-.354a5.408,5.408,0,0,0,.133-3.452h0Z" transform="translate(-186.758 -221.7)" fill="#030382"/>
        <path id="Path_239-2" data-name="Path 239" d="M271.01,262.418c.354-.354.708-.708,1.062-1.018-.841,1.682-.354,3.142.708,4.558-.841-.885-1.593-.929-2.08.31C270.788,264.985,270.877,263.7,271.01,262.418Z" transform="translate(-180.681 -220.864)" fill="#030382"/>
        <path id="Path_240-2" data-name="Path 240" d="M238.3,272.517c.133-1.106.221-2.168.354-3.275,1.416-.62,1.106-1.991,1.328-3.142.266.487.487.929.752,1.416a6.174,6.174,0,0,0-1.593,3.053A4.041,4.041,0,0,1,238.3,272.517Z" transform="translate(-162.619 -223.484)" fill="#030382"/>
        <path id="Path_241-2" data-name="Path 241" d="M248.508,263.9l.664.664c-.487.974.664,1.328.8,2.08-.443-.221-.929-.664-1.239.177a1.95,1.95,0,0,1-.929,1.195,9.409,9.409,0,0,0,.708-4.116Z" transform="translate(-167.915 -222.257)" fill="#030382"/>
        <path id="Path_242-2" data-name="Path 242" d="M315,262.852c.487-.044.708-.487,1.018-.752-.885,1.593-.31,2.921.708,4.2-.664-.31-1.239-1.46-2.124-.221C314.733,265.021,314.866,263.959,315,262.852Z" transform="translate(-205.154 -221.254)" fill="#030382"/>
        <path id="Path_243-2" data-name="Path 243" d="M307.608,269.013c-.487-.177-.929-1.062-1.46-.4-.487.62-1.239,1.283-.885,2.257a8.086,8.086,0,0,0,.62,1.239c-1.947-.443-1.328-2.036-1.416-3.275.4.4.752.531.974-.133.221-.62.443-1.283.664-1.9.443.752,1.283,1.283,1.5,2.213h0Z" transform="translate(-199.49 -223.874)" fill="#030382"/>
        <path id="Path_244-2" data-name="Path 244" d="M232.524,271.158c-1.549-1.328-1.416.664-2.124,1.062.221-1.549.929-3.009.354-4.6.929.266.929-.443,1.018-.974.089-.929.044-1.814.089-2.744.221.221.443.443.708.664a2.4,2.4,0,0,0,.354,1.46c-1.593,1.593-1.593,3.319-.4,5.133Z" transform="translate(-158.215 -222.257)" fill="#030382"/>
      </g>
    </g>
  </g>
</svg>
