<svg xmlns="http://www.w3.org/2000/svg" width="391" height="205" viewBox="0 0 391 205">
  <g id="Group_441" data-name="Group 441" transform="translate(-173 -3592)">
    <rect id="Rectangle_49" data-name="Rectangle 49" width="391" height="205" transform="translate(173 3592)" fill="#e5f4ff"/>
    <g id="Layer_2" transform="translate(266.485 3648.534)">
      <g id="Layer_1-2" transform="translate(-0.045 0.269)">
        <path id="Path_589" data-name="Path 589" d="M121.862,67.7c-.286.786.643,1.215.357,2.037-1.5-.322-2.431-1.573-3.646-2.323-2.681-1.644-2.681-1.716-5.076.25a9.376,9.376,0,0,1-4.826,2.037,73.63,73.63,0,0,1-11.224.643c-6.184-.107-12.368.071-18.588.322a5.76,5.76,0,0,0-1.573.214,1.275,1.275,0,0,0-1.037.894c-.143.643.322.965.751,1.287a3.723,3.723,0,0,0,.643.357c5.04,2.145,4.611,4.826,3.4,9.044a17.378,17.378,0,0,1-5.433,8.257C74.142,91.966,73.32,92,71.89,90.679a30.1,30.1,0,0,1-2.288-2.5,30.465,30.465,0,0,1-6.72-14.513,3.834,3.834,0,0,0-3.86-3.575c-3.968-.393-7.9-1.072-11.867-1.43a25.349,25.349,0,0,1-9.365-2.645,24.326,24.326,0,0,0-7.828-2.288,65.437,65.437,0,0,1-20.2-6.291A22.866,22.866,0,0,0,5.3,55.649c-2.288-.608-3.646-2.466-4.969-4.218-1.072-1.394.322-3.753,2.18-3.968.5-.071,1.037.322,1.573-.036.179-.393-.143-.536-.357-.715-1.5-1.43-1.43-2.323.107-3.646,4.039-3.4,8.4-6.434,11.617-10.724a6.617,6.617,0,0,1,3.432-2.216c8.186-2.574,16.157-5.791,24.414-8.043a90.091,90.091,0,0,1,11.939-2.252c2.252-.286,2.252-.393,1.644-2.574-.5-1.716-1.323-3.432-.536-5.326.965.357.894,1.251,1.358,1.787.357.429.715.858,1.323.679s.572-.715.643-1.18c.286-2.109.572-4.254.894-6.363a7.407,7.407,0,0,1,.5-1.5A1.365,1.365,0,0,1,62.632,4.5c.751.071.25.751.25,1.18a2.492,2.492,0,0,0,.465,1.5c.643.751,1.108,1.93,2.252,1.752.965-.143.751-1.358,1.037-2.109.679-1.787,1.251-3.61,1.93-5.362C68.781.852,69.1.173,69.924.28c.715.071.822.786.965,1.358a8.872,8.872,0,0,0,1.466,3.61c1.215,1.573,2.395,1.466,3.181-.322.25-.536.429-1.108.679-1.644,1-2.252,1.752-2.359,3.217-.25a10.72,10.72,0,0,0,2.323,2.431c1.108.929,2,.929,2.717-.429a6.612,6.612,0,0,1,.822-1.215,1.3,1.3,0,0,1,2.145-.071c.393.357.643.858,1,1.251,2,2.073,2.609,2.073,4.54-.107A3.549,3.549,0,0,1,94.7,3.5c-.894,2,1,2.109,1.93,2.86a1.737,1.737,0,0,0,2.752-.465c.929-1.358,1.68-1.287,2.717,0,1.716,2.145,2.5,2.109,4.647.393.429-.357.929-.643,1.573-1.072-.071.965-1.144,1.573-.214,2.431,1.716,1.573,3.432,2.609,5.612.572.25,2.717,1.716,3.789,4.075,3.074a1.87,1.87,0,0,1,2.252.536,3.836,3.836,0,0,0,4.754.822c.465-.25,1-.572,1.537-.286a4.827,4.827,0,0,0,5.076-.536c2.288-1.466,4.647-.679,6.863-.179,1.716.393,3.682.286,5.219,1.5.357.286,1.18.071,1.251.751.036.536-.536.715-.894,1-.179.143-.357.322-.822.715a27.442,27.442,0,0,1,5.255-.5c-.107.751-.965.715-1.251,1.537a5.754,5.754,0,0,1,4.826,1.5c.429.429,1.573.286,1.072,1.43-.143.286.25.322.465.357,2,.214,3,1.716,4.218,3.074.751.822,2.145,1,2.717,2.145.786,1.537,2.252,2.359,3.432,3.467,1.644,1.537,1.609,1.966-.25,3.074a2.983,2.983,0,0,0,.429.286c.643.214,1.68-.179,1.859.643s-.715,1.323-1.358,1.716A9.12,9.12,0,0,1,160,36.132a1.96,1.96,0,0,0-1.716.679c3.61,1.394,7.113,1.072,10.616.357,4.218-.858,7.9-3,11.653-4.933a117.845,117.845,0,0,1,13.083-5.719,8.128,8.128,0,0,1,2.609-.572c2.752-.071,2.681.036,3.718,2.609.608,1.5.822,3.253,2.073,4.5a3.756,3.756,0,0,1,.715,2.359c.5,3.11,1.609,6.22,1.251,9.329-.465,3.968-.357,7.935-.786,11.867-.143,1.287-.572,2.538-.679,3.932a11.413,11.413,0,0,1-2.717,6.112,3.512,3.512,0,0,1-3.432,1.037c-3.5-.465-6.506-2.288-9.615-3.753-4.683-2.18-9.329-4.468-14.119-6.47-3-1.251-6.184-1.144-9.294-1.358-6.291-.465-12.4,1.037-18.731,1.966a5.26,5.26,0,0,0,3.432.322c1.537-.179,3.074-.429,4.611-.536,2.609-.179,4.611,1.43,6.684,2.609,1.144.643.822,3.932.071,5.755a10.516,10.516,0,0,1-5.612,6.112,20.183,20.183,0,0,1-11.3,1.859,18.908,18.908,0,0,1-7.256-2.395,6.8,6.8,0,0,0-2.395-.643,34.244,34.244,0,0,1-9.365-2.86,3.366,3.366,0,0,0-1.609-.572Z" transform="translate(0.045 -0.269)" fill="#030382"/>
      </g>
    </g>
  </g>
</svg>
