<svg xmlns="http://www.w3.org/2000/svg" width="391" height="205" viewBox="0 0 391 205">
  <g id="Group_447" data-name="Group 447" transform="translate(-580 -4037)">
    <rect id="Rectangle_56" data-name="Rectangle 56" width="391" height="205" transform="translate(580 4037)" fill="#e5f4ff"/>
    <g id="Acartia_dk" transform="translate(688.304 5207.925)">
      <path id="Path_590" data-name="Path 590" d="M23.5-1137.74a49.538,49.538,0,0,0,1.855,5.285,60.839,60.839,0,0,0,4.7,9.155c1.135,1.88,2.136,3.6,2.222,3.821.33.781-.171,1.257-1.868,1.794-3.393,1.086-6.8,1.208-8.483.305-1.88-1-4.175-3.723-6.054-7.177-.452-.818-.842-1.489-.867-1.489a26.286,26.286,0,0,0,1.428,3.052,18.512,18.512,0,0,0,3.625,4.663,8.026,8.026,0,0,1,1.575,1.843,7.92,7.92,0,0,1-2.954.867c-1.1.183-5,.549-9.143.854-2.185.159-2.185.159-2.466.5-.317.391-.244.6.256.72.574.146.513.208-2.319,2.319-1.636,1.208-3.7,3-2.746,2.38.232-.159.769-.549,1.172-.867a21.5,21.5,0,0,1,4.223-2.649c1.1-.354,1.965-.452,6.689-.806,2.319-.171,4.785-.366,5.493-.427s1.7-.122,2.2-.122h.915l-2.258,2.295a37.224,37.224,0,0,0-3.54,4,36.049,36.049,0,0,0-2.917,4.248c.024.037.854-1.025,1.843-2.344a38.032,38.032,0,0,1,5.3-6.067c2.026-1.855,2.539-2.234,3.3-2.453a47.287,47.287,0,0,1,5.273-1.025c.5,0,.513.012.354.244-.085.134-1.025,1.172-2.075,2.307-1.868,2.014-3.625,3.992-3.991,4.468-.1.134,1.257-1.172,3.027-2.893,3.32-3.271,5.2-4.931,5.676-5.041.146-.024,1.477-.22,2.966-.427s4.773-.732,7.312-1.172,4.7-.781,4.8-.757a18.376,18.376,0,0,1-2.514,2.514c-2.4,2.2-3.345,3.125-2.637,2.588.659-.5,2.588-2.136,3.845-3.259,2.514-2.246,2.844-2.429,4.931-2.771a79.7,79.7,0,0,1,14.159-.269c2.551.281,2.881.33,2.832.476a7.619,7.619,0,0,1-1.428.7c-2.722,1.1-2.942,1.428-.427.623a25.1,25.1,0,0,1,2.563-.684c1.233-.232,1.562-.183,4.248.6A23.2,23.2,0,0,1,78.7-1115.9c1.855,1.1,5.81,4.309,6.189,5.029.159.293.134.366-.33,1.086a12.613,12.613,0,0,0-1.794,5.908c-.317,2.746-.391,3.088-.793,3.711-.867,1.355-.952,1.965-.793,5.493a13.324,13.324,0,0,1-.171,3.54c-.134.842-.281,1.9-.317,2.38s-.183,1.4-.317,2.075-.366,2.1-.537,3.174-.476,2.624-.671,3.454a27.994,27.994,0,0,0-.793,5.884c-.1,1.379-.269,3.247-.378,4.15a8.968,8.968,0,0,0,0,3.027,34.379,34.379,0,0,1,.2,4.468v3.1l.415,1.208c.232.659.537,1.465.671,1.782s.476,1.416.757,2.441a66.971,66.971,0,0,0,2.917,9.118,13.687,13.687,0,0,0,2.417,3.271c1.013,1.123.989,1,.452,2.4a6.749,6.749,0,0,0-.391,2.5l-.073,1.648.879,1.819a16.619,16.619,0,0,1,.867,2.014,11.588,11.588,0,0,1-.305,1.233,38.765,38.765,0,0,0-.83,7.324l-.146,2.624-1.66.562c-3.882,1.33-7.519,3.039-8.63,4.077-.391.354-.671.671-.635.708a16.676,16.676,0,0,0,2.075-.9c1.111-.525,2.429-1.135,2.93-1.343,1.123-.488,5.407-1.941,5.481-1.88a3.584,3.584,0,0,1-.61.769,42.545,42.545,0,0,0-5.847,9.887c-.781,2.148-.281,2.087.83-.11a52.136,52.136,0,0,1,5.151-8.374c.7-.842,1.2-1.172,1.05-.684-.171.549-1.794,7.312-2.014,8.4a42.208,42.208,0,0,0-.708,6.787c-.073,2.222-.012,3.161.208,3.161.146,0,.208-.342.549-3.235.342-2.966.708-5.188,1.477-9.252.7-3.674.964-4.7,1.294-5.053.208-.232.586-.391.586-.256,0,.024-.085.452-.183.964s-.281,2.6-.427,4.638c-.232,3.369-.33,4.6-.745,9.155a20.583,20.583,0,0,0-.085,2.075c.037.622.049.647.183.33a57.559,57.559,0,0,0,1.2-9.435c.1-1.477.244-3.3.317-4.028.2-2.185.415-3.015.647-2.441.134.366.561,3.76.928,7.385.452,4.492.488,4.87.623,4.944.317.208.269-4.065-.073-7.08-.232-1.941-.72-4.919-1.025-6.2l-.232-.964.732-.806a22.014,22.014,0,0,0,1.44-1.868c.708-1.038.891-1.208,1.343-1.208.305,0,.732.562.732.964a5.658,5.658,0,0,0,1.025,2.209,2.423,2.423,0,0,1,.439.964c0,.171-.2,1.684-.427,3.369-.806,5.835-1.062,9.338-.684,9.338.061,0,.171-.342.244-.769.2-1.147,1.074-7.836,1.294-9.911a10.739,10.739,0,0,1,.305-1.929c.049-.061.269-.012.488.1l.391.2L95.7-1015.3c-.049.818-.134,1.977-.2,2.588-.22,2.319-.391,8.8-.293,10.986.085,1.721.122,2.063.2,1.587.122-.842.427-5.053.659-9.094.11-1.843.232-3.8.281-4.333l.1-.977.146.793c.073.439.305,2.051.513,3.6s.586,3.93.842,5.31.549,2.942.623,3.479c.281,1.855.378,1.453.317-1.221a60.732,60.732,0,0,0-1.477-11.95c-.464-1.965-.5-2.453-.183-2.453.6,0,2.917,6.274,3.8,10.253.305,1.416.464,1.794.708,1.745.427-.085.439-.83.024-2.612a32.822,32.822,0,0,0-2.905-7.959c-.952-1.868-1.208-2.466-1.05-2.466a9.481,9.481,0,0,1,2.685,1.611,35.907,35.907,0,0,1,2.649,2.466c1.575,1.6,1.684,1.7,1.611,1.294a7.424,7.424,0,0,0-1.66-3.027,15.275,15.275,0,0,0-4.614-2.832,2.233,2.233,0,0,1-.9-.525,13.441,13.441,0,0,1-.623-2.466,41.855,41.855,0,0,1-.7-4.944,19.778,19.778,0,0,0-.378-2.49,6.17,6.17,0,0,1-.171-2.649,16.428,16.428,0,0,1,.647-1.758l.574-1.343v-1.892l-.012-1.892-.452-1.123c-.244-.623-.452-1.147-.452-1.184a5.2,5.2,0,0,1,.586-.72,16.952,16.952,0,0,0,2.954-5.883c.22-.671.671-1.9,1-2.746a24.783,24.783,0,0,0,1.636-5.3c.244-1.147.623-2.722.842-3.491.745-2.575.732-2.478.732-7.69,0-4.687-.012-4.846-.281-5.591s-.269-.9-.2-2.807a11.63,11.63,0,0,0-.452-4.626c-.146-.391-.33-.9-.415-1.135a17.86,17.86,0,0,1-.293-2.624,10.78,10.78,0,0,0-.561-3.528,49.937,49.937,0,0,1-1.294-5.81,2.265,2.265,0,0,1,.183-1.745c.623-1.55.561-2.991-.232-5.566-.232-.745-.561-2.026-.745-2.844s-.562-2.5-.854-3.723-.562-2.49-.61-2.844c-.085-.61-.073-.623.464-1.135.732-.708,1.953-1.428,5.468-3.186a66.035,66.035,0,0,1,7.446-3.344c4.016-1.489,5.346-1.624,7.934-.781,1.6.525,1.623.452.122-.378a3.578,3.578,0,0,1-.915-.623c0-.354,4.223-.9,9.9-1.294a5.684,5.684,0,0,1,2.441.073,20.072,20.072,0,0,1,4,2.527,12.556,12.556,0,0,0,1.575,1.062c.232,0-.781-.952-2.295-2.173-1.733-1.4-1.929-1.587-1.831-1.733s2.49-.159,7.507.012l4.089.134,4.333.854c6.359,1.245,6.738,1.355,8.117,2.295.269.183.684.427.915.549l.427.207-.488-.427c-.269-.232-.464-.452-.427-.488.085-.085,5.127.781,6.152,1.05a5.667,5.667,0,0,1,1.379.647,22.131,22.131,0,0,1,4.931,5.822c.854,1.453.989,1.465.244,0a20.266,20.266,0,0,0-3.174-4.492l-1.343-1.587.671-.073c.378-.049,2.453-.049,4.614,0,3.235.061,3.967.11,4.187.269.928.647,5.273,6.579,6.3,8.593.2.4.391.659.415.574a14.65,14.65,0,0,0-1.855-3.442c-.427-.635-1.489-2.087-2.368-3.21-1.684-2.161-1.916-2.5-1.782-2.624.037-.049,2-.061,4.358-.037l4.284.024,1.233.83c4.126,2.771,4.858,3.076,1.44.61a11.363,11.363,0,0,1-1.794-1.44c0-.085.22-.305.476-.476.586-.4.659-.586.281-.683-.159-.037-2.209-.122-4.553-.2-4.48-.134-8.459-.329-9.228-.452-.256-.036-.464-.122-.464-.2a53.523,53.523,0,0,1,5.468-5.176,28.876,28.876,0,0,0,2.466-2.246c0-.22-.305.012-3.418,2.649-2.588,2.185-4.406,3.625-5.468,4.345l-.891.6-1.123-.134a70.32,70.32,0,0,1-8.41-1.538c-.586-.208-1.2-.623-1.2-.83,0-.159,1.5-1.355,5.8-4.638,3.552-2.71,10.7-8.5,10.778-8.728.037-.11-.085-.073-.354.11-.745.525-8.178,6.274-10.485,8.117-3.552,2.844-6.2,4.455-7.714,4.7-.854.134-1.514.037-4.016-.6a76.741,76.741,0,0,0-7.678-1.538c-.83-.11-1.538-.22-1.575-.244-.134-.146.208-.488,1.416-1.416.72-.561,2.38-1.867,3.686-2.905s3.174-2.49,4.15-3.222c2-1.5,2.185-1.66,1.636-1.379-.208.11-2.246,1.587-4.529,3.3-5.3,3.955-6.726,5-7.2,5.249-.33.171-.915.2-4.5.183-2.27-.012-4.5-.049-4.956-.1l-.83-.073,1.684-1.55c.928-.854,2.429-2.16,3.332-2.9,1.807-1.489,2.075-1.746,1.526-1.4a52.334,52.334,0,0,0-5.993,4.968l-1.111,1.074h-.72c-.928,0-4.529.305-6.579.537-.867.11-1.709.2-1.868.2-.488,0-.452-.33.122-1.013,1.147-1.379,1.111-1.379-.525-.012a12.123,12.123,0,0,1-1.575,1.172,12.041,12.041,0,0,1-3.3.134.771.771,0,0,1,.244-.342c.415-.366.305-.623-.122-.269-.488.415-1.367.732-4.028,1.44-1.245.342-3.076.854-4.065,1.159a12.045,12.045,0,0,1-1.88.488c-.037-.037-.012-.134.049-.22.72-.928,5.517-7.507,6.2-8.5a11.133,11.133,0,0,0,1.477-2.588c-.024,0-.5.659-1.05,1.477a107.471,107.471,0,0,1-7.617,9.789c-.806.806-.806.806-4.736,2.685a26.824,26.824,0,0,0-5.346,3.186c-1.489,1.147-1.428,1.135-2.6.6a3.849,3.849,0,0,0-2.4-.452,7.59,7.59,0,0,0-2.624.378l-1.221.366-1.221-1.16a26.72,26.72,0,0,0-3.711-3.137,11.574,11.574,0,0,0-2.49-1.282c-.269,0-1.172-1.05-1.44-1.684-.146-.317-.61-1.611-1.038-2.893-1.343-3.967-1.33-2.978.024,1.575a14.551,14.551,0,0,1,.488,1.868c-.037.049-4.76-1.062-5.737-1.355-.452-.122-.5-.2-.867-1.111-.208-.537-.977-2.649-1.7-4.7-1.782-5.078-2.307-6.469-2.417-6.469-.317,0,.024,1.294,1.269,4.858,1.16,3.345,2.319,6.994,2.246,7.068-.049.049-4.638-.7-5.688-.915-.378-.085-.586-.305-1.831-2.063-.769-1.086-1.453-2.026-1.514-2.075-.317-.293,1.074,2.344,1.892,3.6l.256.4-.83-.073c-2.234-.208-3.076-.647-5.114-2.686a17.168,17.168,0,0,1-2.563-3.137c-1.086-1.648-1.5-2.038-.854-.793a16.7,16.7,0,0,0,3.637,4.626l1.941,1.929H59.036a67.132,67.132,0,0,0-7.568.732l-2.612.354-.708-.427a20.676,20.676,0,0,1-6.005-5.81c-.757-.977-1.392-1.77-1.416-1.745a18.667,18.667,0,0,0,1.9,3.039,21.94,21.94,0,0,0,3.857,3.906,10.369,10.369,0,0,1,1.184,1.037,14.194,14.194,0,0,1-1.99.415c-1.1.183-3.576.635-5.529,1.013-3.821.732-5.42.916-6.03.659-.684-.281-2.637-2.673-4.5-5.554a79.416,79.416,0,0,1-5.444-11.437C23.613-1137.837,23.5-1138.069,23.5-1137.74Z" transform="translate(0 0)" fill="#030382"/>
    </g>
  </g>
</svg>
