<svg xmlns="http://www.w3.org/2000/svg" width="391" height="205" viewBox="0 0 391 205">
  <g id="Group_450" data-name="Group 450" transform="translate(-580 -4260)">
    <rect id="Rectangle_59" data-name="Rectangle 59" width="391" height="205" transform="translate(580 4260)" fill="#e5f4ff"/>
    <path id="Doto_cervicenigra_dk" data-name="Doto cervicenigra_dk" d="M46.052,23.841H46.2c0,.4.217.58.109,1.014-.072.326-.362.616-.217.978.435.217.8.688,1.159.8v.145h.181c0,.145,0,.145.109.181.942-.652.8-1.63,2.282-1.594h.8a1.648,1.648,0,0,1-.109.87c-.181.036-.145.109-.254.181a2.706,2.706,0,0,1-.942,0c0-.145,0-.072-.109-.145-.362.362-.906.58-1.159,1.014.326,1.087-.507,2.391-.906,3.152a1.322,1.322,0,0,0-.072,1.051c.072.145.254.072.181.29,1.413.036,1.123,3.08.254,3.406.072.109.036,0,.072.145A3.908,3.908,0,0,0,46.486,37.1c.217.072.4.145.616.217.181-.181.435-.181.507-.254.217-.181.326-.471.543-.652.254-.254.616-.4.87-.652.688-.8-.109-1.159,1.014-1.739l.072-.543-.145-.652V31.015c0-.145-.145-.761-.072-.87a5.183,5.183,0,0,0,.181-.652l.326-.29a4.427,4.427,0,0,0,.507-1.014c.181-.616-.109-1.377.254-1.993.217-.4.507-.761.725-1.159.109-.217.072-.471.181-.725.109-.217.362-.435.435-.725l.145.072c0-.181.072-.217.181-.326l.652-.181c.507-.181.688-.725.978-1.123a2.764,2.764,0,0,1,1.014-.8c.725-.435.833-.725,1.884-.362.036-.145,0-.072.145-.109.8.543,1.63-.145,2.79-.145h.543a2.7,2.7,0,0,1,1.34,1.485c.181.4-.181.8,0,1.087a1.641,1.641,0,0,0-.145,1.377c.036.145-.036.8,0,.833a.572.572,0,0,0,.181.29l.072-.217c.4.109,1.159-.471,1.63-.761.109-.072.652-.072.906-.181a6.338,6.338,0,0,0,1.449-.8c.254-.145.543,0,.833-.181.326-.181.688-.29,1.051-.471l.543-.072c.616-.326,1.159-.942,1.811-1.232,2.21-.906,5.29-2.1,7.97-1.159a5.1,5.1,0,0,1,1.485.507h.29c.072.109.145.181.181.254.072,0,.362,0,.435.072l.072.181c.145.145.761.326.906.435a3.087,3.087,0,0,1,1.159,2.862,4.212,4.212,0,0,1-1.051,1.34c-.145.109-.29.109-.362.29l-.181-.072c-.109.471-1.558.8-1.993,1.014a19.318,19.318,0,0,1-2.355.652h-.942a8.127,8.127,0,0,1-2.21.507,2.6,2.6,0,0,1-.507.181c-.471,0-1.268.725-1.667,1.051l-.181.145c-.109,0,0,0-.109-.072a11.668,11.668,0,0,1-2.464,1.884,1.74,1.74,0,0,1-.145.543,4.487,4.487,0,0,1-1.014,2.971c0,.109.254,1.558.254,1.558-.145.181-.036.4-.181.652a3.541,3.541,0,0,1-2.355,1.594c-.181.507-.072,1.159-.435,1.558a7.021,7.021,0,0,1-1.123.616h-.543c-.072,0-.109.072-.181.145-.362.145-1.087,0-1.522.326l-.652-.109-.362-.072a2.077,2.077,0,0,0-1.377.181c-.181.145-.181.435-.217.543l-.181.072c-.145.145-.217.87-.435,1.051v.58a4.893,4.893,0,0,1-.8,1.268c-.145.145,0,.326-.072.4.109.29.652.761.833,1.123,0,0,.435,1.7.435,1.739a5.665,5.665,0,0,1,.616.906c.29.616-.109,1.449-.217,1.92a2.641,2.641,0,0,0,.145,1.087,6.507,6.507,0,0,1-.29,1.811c-.217.435-.688.8-.906,1.2s0,.543-.072.906a2.378,2.378,0,0,1-.8,1.268l-.29.072-.072.181c-.362.326-1.594.109-1.884.145-.616.036-1.159-.29-1.558.217-.4.471-.4,1.159-.688,1.7a16.737,16.737,0,0,0-1.413,3.333v.543a8.619,8.619,0,0,1-.906,2.355c-.072.109.036.362-.072.471h-.072a5.192,5.192,0,0,1-.362,1.051L50,68.73a17.559,17.559,0,0,1-.29,1.92,3.741,3.741,0,0,1,1.268,1.014c.181.326.145.725.362,1.014.181.254.435.4.58.616a2.321,2.321,0,0,1,2.065.688c.181.181.217.58.4.652-.109.254.145.761,0,1.051-.326.906-.8,1.594-.181,2.464l-.109.072c.326.471-.109,1.811-.725,1.884v.145c-.29.109-.326.362-.507.58-.217.29-1.087.87-1.449.8,0,.145-.145.254-.109.435a4.372,4.372,0,0,0,.29.688c.29.616.145,1.232.471,1.739.109.181.145.507.254.725v.109a6.507,6.507,0,0,1,1.34,1.014,13.119,13.119,0,0,1,.326,2.609c.145,0,.362.181.471.254a9.841,9.841,0,0,0,1.232.4,4.71,4.71,0,0,1,1.014.8l.072.326c.072.109.254.254.217.435a5.612,5.612,0,0,1-1.63,2.753c-.435.507.181,1.268,0,1.884-.29,1.014-.87.87-1.739,1.087a2.4,2.4,0,0,0,.29,1.087,3.977,3.977,0,0,1,.072.906l.181.326c.072.326,0,.725.181,1.014a4.97,4.97,0,0,0,.652.58c-.036.109-.036.072-.145.145.109.145.036.217.254.181l.254.29c.326-.29,1.449.942,1.7,1.123,1.3.978,1.63,2.464,2.391,3.55v.29a8.5,8.5,0,0,0,.8,1.63c1.232-.435,2.609-1.123,3.442.29l.217.072a6.888,6.888,0,0,1,.8,2.1c.072.217-.036.4,0,.543.072.471.145,1.522.543,1.848a13.462,13.462,0,0,0,1.377.8s.29.29.181.29l.507.145a18.628,18.628,0,0,1,2.536,1.956H70a4.945,4.945,0,0,1,.906.725c.145.145.4.109.543.181.109.072.145.217.254.29.109.109.326.109.435.145a4.436,4.436,0,0,1,.942.652,3.36,3.36,0,0,0,.8.29c.254.109.507.4.725.507.652.254,1.159.4,1.848.652.362.145.652.543.906.725.217.109.869.326,1.014.543a1.74,1.74,0,0,1-.072,1.993c-.145.145-.906.435-.906.543-.29,0-1.232-.072-1.2-.362a4.691,4.691,0,0,1-1.485-.58,32.835,32.835,0,0,1-3.7-1.63c-.362-.217-1.956-.761-1.92-.978v-.072c-.507,0-.652-.362-.906-.652,0,0-.8-.326-.906-.362-.145-.072-.29-.254-.435-.326a5.919,5.919,0,0,1-1.956-1.051c-.072-.072-1.087-.326-1.2-.435h0a2.105,2.105,0,0,0-.688.145,9.965,9.965,0,0,1-.906.543h0a3.244,3.244,0,0,1-.833-.072,2.807,2.807,0,0,1-.833.217c.036.072.036.036,0,.145a2.854,2.854,0,0,0-.58.29c-.362.145-1.051-.181-1.449.072-.29.181-.58.543-.87.725-.254.181-.326,0-.616.145-.145.072-.326.217-.507.29h0c-.362.217-1.449.942-1.667.761-.181.109-.29.326-.543.29-.181,0-.87.435-.978.29a1.719,1.719,0,0,1-1.485.326c-.109.036-.072.109-.145.181h-.362a6.614,6.614,0,0,0-1.268.507h0c-.217.036-.906-.072-1.268-.072l.072.072a6.5,6.5,0,0,1-1.884-.435s-.254.072-.29.072c-.471,0-1.123.072-1.485-.254-.145-.109-.29.036-.435,0a1.735,1.735,0,0,1-.543-.4s-.072-.072-.109,0a5.886,5.886,0,0,0-1.051-1.34c-.072,0,0,0-.072.072-.254.145-.29.471-.471.652v-.072a17.87,17.87,0,0,1-1.159,1.7c-.362.652,0,1.558-.435,2.174a5.626,5.626,0,0,1-.833.761c-.217.181-.507.58-.8.652-1.087.181-1.3-.616-2.1-.725-.072.145-.217.145-.326.254-.072.109-.072.254-.181.362-.254.29-.761.616-1.014.942-1.3,1.775-3.08,3.369-4.2,5l-.109-.072c-.036.4-.507.616-.761.833a17.066,17.066,0,0,0-2.174,2.645c-.254.036-.543.58-.761.833-.145.181-.4.326-.543.507-.326.4-.543.833-.833,1.232-.145.181-.362.217-.471.4-.181.254-.254.616-.543.725l.072.145c-.29.109-.362.4-.543.616l-.326.254c-.326.362-.507.87-.833,1.232l-.181.072c-.217.29-.326.58-.543.833h-.217c-.87.688-2.1-.145-2.355-.978-.181-.58.4-1.087.507-1.522.109,0,.036.036.145,0a5,5,0,0,1,1.268-1.7v-.217a8.476,8.476,0,0,1,.906-1.087v-.217c.109-.109.29-.109.435-.29.181-.254.4-.833.543-1.014.543-.725,1.2-1.34,1.63-2.065.072-.109.254-.145.326-.254.181-.181.217-.543.326-.688a7.591,7.591,0,0,0,.58-.8c.072-.109.507-.362.471-.471a8.091,8.091,0,0,1,1.522-1.92c.217-.254.362-.761.725-.869l-.072-.109a12.093,12.093,0,0,0,1.34-1.739,5.88,5.88,0,0,1,.616-1.159,41.152,41.152,0,0,0,2.971-4.021v-.29c.326-.906-.145-2.753.435-3.442.109,0,0,.036.145,0,.109-.471.725-.543,1.087-.8a23.306,23.306,0,0,1,2.609-1.739v-.145c.543-.072,1.413-1.34,1.558-1.739.109-.254.072-.543.145-.688.145-.326-.181-.761,0-.942l-.072-.072a2.9,2.9,0,0,1-.072-.942H40.11v-.145a.658.658,0,0,1-.4.072c0-.181.036-.109-.145-.145a2.717,2.717,0,0,0,0-.543,1.132,1.132,0,0,0,.543-1.3l-.435-.181a1.042,1.042,0,0,1-.725.181c-.362-.072-.326-.507-.362-.688-.217,0-.072-.109-.181-.181-.254-.181-.652-.072-.942-.29h-.688a8.79,8.79,0,0,1-.725-.507c-.58-.29-1.377.362-1.7-.652-.181,0-.29,0-.326.072-.29.217-.326.942-.725,1.014v.145c-.471.326-.652.652-1.2.87H31.2c0-.109-.036-.072-.109-.181h-.761l-.145.145H28.372c-.507-.181-.652-.761-1.051-1.014-.109-.072-.4-.072-.507-.145-.036.109,0,.109-.181.109-.435-.362-1.123-.254-1.63-.688-.688-.58-.29-1.485-.8-2.1a3.923,3.923,0,0,1-2.427-2.246c-.181-.761.435-1.268.543-1.848-.58-.471-1.485-2.464-1.014-3.333.145-.254.8-1.051.8-1.159.181,0,.145-.145.362-.145V94.38h.181c.072-.217.362-.29.471-.471a.95.95,0,0,0,.072-.543,3.184,3.184,0,0,1,.87-1.3c.362-.29,1.087-.145,1.413-.507.362-.362.725-1.232,1.522-1.014.652.181,1.558,1.051,2.065,1.123a.977.977,0,0,1,.254-.29c-.4-.362.507-1.775.761-1.884s.435.109.652.072a4.594,4.594,0,0,0-.145-3.478H29.64c-.145.072-.217.254-.507.181H29.06c-.072,0-.362-.181-.471-.181-.145,0-.507.181-.652.072a1,1,0,0,1-.507-.58,3.975,3.975,0,0,1-1.268.181c-.87.326-1.956.761-2.9.145-.326-.217-.543-.761-.761-1.014l-.4-.217c-.145-.145-.29-.362-.435-.507-.145-.181,0-.4-.109-.652-.254-.507-.761-.942-.725-1.522-.145-.036-1.63-1.014-1.63-1.014-.036-.109,0,0,0-.181-.543,0-.906-1.3-.906-1.884,0-.616.435-.725.761-1.2a6.157,6.157,0,0,1,1.993-1.993,10.8,10.8,0,0,0,2.065-.362,2.568,2.568,0,0,1,.326-1.051c.109-.181.471-1.087.652-.906,1.667-.652,2.21.471,3.3,1.3.181.145.217.435.435.543h.543c.616.507,1.413.326,2.029,1.014.072-.072.109-.109.217-.072-.036-.145-.036-.326.072-.4-.145-.181,0-.87,0-1.087l-.109-.217h.072a7.9,7.9,0,0,1-.471-3.8,11.039,11.039,0,0,0,.833-2.971A4.38,4.38,0,0,0,30,68l-.181-.29c-.072.072,0,.036-.109.072l-.072-.362c-.616-.036-1.449-.761-2.246-.761v-.145c-.362,0-.543-.254-.978-.181-1.014.181-1.811.4-2.645-.362-.362-.326,0-1.594-.072-1.993a5.88,5.88,0,0,1-2.971-1.63c-.109-.109-.8-.58-.652-.761-.145-.217-.507-1.232-.217-1.63a5.177,5.177,0,0,1,.507-.725c.145-.145.254-.072.435-.29v-.181c-1.014-.761-1.667-2.391-.906-3.514,0,0,.833-.652,1.087-.8h.58a4.475,4.475,0,0,1,1.558-.145,7.052,7.052,0,0,0,1.123.254c.072-.362.435-.688.435-.942a2.091,2.091,0,0,1,2.065-1.051c1.485.543,1.449,2.065,2.609,2.826a6.526,6.526,0,0,0,1.993.543c.362.109,1.2-.29,1.159.145h.217c.145.362.435.58.58.942a10.06,10.06,0,0,1,.435,2.5l.217.109h.072c.326-1.123.8-2.5,1.159-3.7.254-.8.8-1.413.652-2.246-.145,0-.145,0-.181-.145h.072c-.109-.072-.217-.507-.29-.725-.181,0-.109-.036-.217,0v-.181h.145c-.471-.181-.58-.58-1.123-.652V51.81c-.362.072-1.558-.725-1.775-.906h-.254l-.8-.543a1.275,1.275,0,0,1-.435-.072,3.156,3.156,0,0,1-1.522-2.645c-.906-.362-2.753-1.7-2.609-2.971,0-.145-.145-.254-.072-.435.072-.326.29-.652.181-.942v-.145A5.748,5.748,0,0,1,25.727,40.4l.181-.833c.072-.181.29-.326.326-.543,0,0-.072-.254-.072-.29-.145,0-.072,0-.145-.072h0a4.142,4.142,0,0,1-.507-.58c-.8-1.413-.58-3.732,1.087-4.239h.652a1.409,1.409,0,0,0-.181-.906,4.742,4.742,0,0,1,.109-1.594V30.8c.435-.833.616-1.485,1.993-1.377a1.726,1.726,0,0,1,1.014.217c.217.145.435.362.652.507h.254c.181.217.29.652.543.761.145.072.29,0,.4,0,0-.109,0-.109.072-.181.145.072,1.268-.435,1.884-.109a2.729,2.729,0,0,1,1.377,2.536c-.036.217.181.906,0,1.014.326.471,1.159.471,1.413.942.072-.072.036-.072.181-.072-.254-.616-.471-2.21.181-2.717-.109-.833-.8-1.739-.326-2.717.254-.507,1.051-.688,1.159-1.268,0-.072-.87-1.775-1.014-1.993-.109-.145.109-.833.145-.906a3.786,3.786,0,0,1,.87-1.522c.145-.145.4-.109.616-.254l.362-.362c.181-.109.435-.181.543-.326.362-.435.036-1.159.543-1.63l-.072-.072c1.377-2.5,3.224-1.014,4.166.8a8.4,8.4,0,0,1,.87.072c.58.217,1.377.761,1.377,1.558Z" transform="translate(702.856 4413.19) rotate(-90)" fill="#030382" fill-rule="evenodd"/>
  </g>
</svg>
