<svg xmlns="http://www.w3.org/2000/svg" width="391" height="205" viewBox="0 0 391 205">
  <g id="Group_443" data-name="Group 443" transform="translate(-986 -3592)">
    <rect id="Rectangle_51" data-name="Rectangle 51" width="391" height="205" transform="translate(986 3592)" fill="#e5f4ff"/>
    <g id="Obelia_geniculata_dk" transform="translate(1149.171 3619.253)">
      <path id="Path_246" data-name="Path 246" d="M179.311,152.942a2.39,2.39,0,0,1,1.068-.752,18.868,18.868,0,0,1,4.2-1.8,2.911,2.911,0,0,1,1.213-.073c.364.073.534.218.51.679a11.737,11.737,0,0,0,.364,3.178,17.885,17.885,0,0,1,.582,3.591c0,1.237-.073,1.237-.388,1.8-.1.17-.1.267.1.364a1.268,1.268,0,0,1,.752,1.31.293.293,0,0,0,.17.315c.049.024.121.073.17.1.51.267.34.971.7,1.237a1.419,1.419,0,0,1,.655,1.213c0,.534.073.34.267.412a.383.383,0,0,1,.194.121c.364.7.97,1.237,1.383,1.917a2.449,2.449,0,0,0,.364.51c.267.218.534.388.873.243.315-.146.34-.461.364-.752a6.7,6.7,0,0,1,.218-1.723,1.6,1.6,0,0,0,.049-1.334.418.418,0,0,1-.049-.291c.631-.776-.218-1.7.218-2.475a.523.523,0,0,0-.049-.267,1.6,1.6,0,0,0-.1-.364c-.243-.485.34-.946.1-1.407a1.314,1.314,0,0,1,0-1.334c.1-.194,0-.315-.146-.412-1.334-.8-1.674-2.184-1.965-3.542-.243-1.116-.34-2.281-.485-3.421a9.574,9.574,0,0,0-1.068-3.13,1,1,0,0,1,.461-1.577,8.262,8.262,0,0,1,3.372-1.019c.412-.049.582-.218.534-.631a3.755,3.755,0,0,0-1.6-3.106,7.6,7.6,0,0,1-3.057-5.071,7.594,7.594,0,0,0-2.911-4.634c-.315-.218-.655-.437-.97-.655-.243-.17-.461-.388-.364-.728.049-.218-.146-.315-.243-.437-.121-.17-.243-.315-.1-.534.146-.194.315-.17.534-.121a7.17,7.17,0,0,1,3.033,1.868,3.124,3.124,0,0,0,.412.388,7.512,7.512,0,0,0-1.407-1.5c-.146-.121-.315-.218-.461-.364-.218-.194-.607-.364-.412-.728.218-.388.607-.243.9-.073a7.113,7.113,0,0,1,2.523,2.426c.243.388.485.728,1.068.655a4.229,4.229,0,0,0-.776-1.5c-.34-.461-.728-.9-1.116-1.359a.871.871,0,0,1-.17-.243c-.121-.243-.267-.485,0-.7a.523.523,0,0,1,.7.049,5.94,5.94,0,0,1,1.48,1.723,9.772,9.772,0,0,1,.995,1.941c.024.121.073.267.267.218.412-.146.631.146.849.388.121-.073.049-.17.024-.267a13.141,13.141,0,0,0-1.626-3.736c-.194-.291-.485-.679-.1-.946s.679.073.922.388a10.738,10.738,0,0,1,2.062,4.974c.218,1.213.291,2.45.388,3.664a1.584,1.584,0,0,0,.121.485c-.049-.873-.121-1.747-.146-2.62a2.808,2.808,0,0,1,.315-1.65.4.4,0,0,0,.049-.243,20,20,0,0,0-.049-4.173,2.132,2.132,0,0,1-.024-.679.479.479,0,0,1,.364-.509c.243-.049.388.146.51.315a.608.608,0,0,1,.1.17,8.588,8.588,0,0,1,.315,3.688,24,24,0,0,0-.437-3.421c-.1.218-.17.388-.218.534-.024.1-.121.218.146.243.218.024.17.34.17.534a8.035,8.035,0,0,0,.073,1.7,9.876,9.876,0,0,1,.024,1.48c.194-.194.049-.412.267-.534.17.291.024.679.194,1.019a21.617,21.617,0,0,1,1.941-5.338c.121-.243.243-.509.558-.388.315.1.291.388.267.655a6.639,6.639,0,0,1-.655,1.917,16.4,16.4,0,0,0-1.043,3.251,3.18,3.18,0,0,0,.9-1.359,11.677,11.677,0,0,1,1.941-3.251,1.5,1.5,0,0,1,.776-.558.455.455,0,0,1,.461.073.45.45,0,0,1,.049.461,4.38,4.38,0,0,1-.582.9,9.867,9.867,0,0,0-2.062,4.755c.607-1.213,1.165-2.45,1.82-3.615a4.521,4.521,0,0,1,1.941-1.989c.1-.049.194-.1.315-.146.315-.121.631-.121.8.218.146.315-.1.534-.315.679a6.629,6.629,0,0,0-2.184,2.378.41.41,0,0,0-.073.243,3.153,3.153,0,0,0,1.092-.946,4.9,4.9,0,0,1,1.626-1.528,1.946,1.946,0,0,1,.825-.267c.146,0,.388.049.364.17-.1.437.243.776.17,1.189-.073.388-.412.582-.728.752a7.72,7.72,0,0,0-1.8,1.868,14.455,14.455,0,0,0-2.014,4.343,8.548,8.548,0,0,1-2.839,4.173,2.063,2.063,0,0,0-.7,1.31c-.121.607-.194,1.213-.291,1.82-.049.315.073.412.388.461a11.03,11.03,0,0,1,3.033.825,2.432,2.432,0,0,1,.849.631.906.906,0,0,1,.146,1.237,13.5,13.5,0,0,0-1.31,4.1,14.41,14.41,0,0,1-.97,3.906,4.293,4.293,0,0,1-1.747,1.965c-.243.146-.364.291-.194.558a.918.918,0,0,1-.1,1.14.486.486,0,0,0-.049.655.917.917,0,0,1-.049,1.019.548.548,0,0,0-.024.631,1.186,1.186,0,0,1-.17,1.286.481.481,0,0,0-.073.607,1.148,1.148,0,0,1-.218,1.359.485.485,0,0,0-.146.558,11.05,11.05,0,0,1,.534,5.022c-.121,2.523-.582,5-.728,7.5a18.663,18.663,0,0,0,.655,5.677,9.2,9.2,0,0,0,.873,2.014.931.931,0,0,0,.267.267.654.654,0,0,1,.34.825c-.073.267-.024.461.243.534a.53.53,0,0,0,.679-.218,2.21,2.21,0,0,0,.267-1.31.564.564,0,0,1,.218-.607.6.6,0,0,0,.267-.679,1.142,1.142,0,0,1,.485-1.116.68.68,0,0,0,.291-.558,1.2,1.2,0,0,1,.607-1.189c.194-.121.194-.267.218-.437a1.279,1.279,0,0,1,.607-1.14c.17-.1.194-.218.194-.412a1.074,1.074,0,0,1,.534-1.019c.243-.146.121-.388.243-.534.461-.631.073-1.189-.121-1.8a6.522,6.522,0,0,1,.146-4.294c.34-1.092.752-2.184,1.116-3.275a1.9,1.9,0,0,1,1.528-1.383,5.06,5.06,0,0,1,2.256,0c.461.121.679-.049.752-.485.024-.073.049-.146.073-.243.121-.388,0-.607-.412-.631-.243-.024-.509-.1-.582-.364a.546.546,0,0,1,.291-.655,4.182,4.182,0,0,0,1.359-1.553,1.684,1.684,0,0,0-.024-1.626c-.073-.194-.267-.194-.461-.17a6.742,6.742,0,0,0-1.917.7,2.741,2.741,0,0,1-2.79-.17c-.315-.17-.655-.412-.51-.849.146-.412.582-.412.922-.34a4.655,4.655,0,0,0,3.3-.558c-.267,0-.509.024-.776,0a8.916,8.916,0,0,1-3.882-.8,2.377,2.377,0,0,1-1.019-.873c-.194-.315-.315-.679.024-.97a.651.651,0,0,1,.922.049c1.407,1.14,3.057,1.043,4.755.946-.437-.243-.9-.485-1.334-.728a7.488,7.488,0,0,1-3.13-2.887,1.263,1.263,0,0,1,.073-1.334.469.469,0,0,1,.776-.1.874.874,0,0,1,.267.34,9.222,9.222,0,0,0,4.076,3.566c.437.243.825.582,1.359.825a6.329,6.329,0,0,0-1.019-2.111c-.461-.607-.946-1.189-1.407-1.8a6.1,6.1,0,0,1-1.043-2.4,1.426,1.426,0,0,1,.1-.9.577.577,0,0,1,1.043-.121,2.329,2.329,0,0,1,.315.655,8.075,8.075,0,0,0,1.6,2.936,9.569,9.569,0,0,1,2.062,4.294c0,.049.049.1.1.218a10.543,10.543,0,0,0-.073-3.712,11.715,11.715,0,0,1-.194-4,1.946,1.946,0,0,1,.267-.825.573.573,0,0,1,.582-.267c.243.024.315.218.388.388a2.792,2.792,0,0,1,.121,1.334,9.871,9.871,0,0,0,.34,3.566,10.965,10.965,0,0,1,.1,3.882c.461-.97.946-1.941,1.407-2.936A38.477,38.477,0,0,1,217.062,152a1.894,1.894,0,0,1,.655-.582.627.627,0,0,1,.679-.024c.243.17.194.437.121.655a8.777,8.777,0,0,1-.679,1.456,25.678,25.678,0,0,0-2.038,4.391,5.27,5.27,0,0,0-.534,1.334c.291-.267.534-.437.728-.631a10.359,10.359,0,0,1,3.736-2.547,18.011,18.011,0,0,0,2.572-1.262,1.1,1.1,0,0,1,.534-.194.539.539,0,0,1,.509.776,2.565,2.565,0,0,1-1.019,1.189,19.027,19.027,0,0,1-2.426,1.237,11.8,11.8,0,0,0-2.645,1.723c-.121.1-.291.17-.267.461a6.883,6.883,0,0,1,1.577-.679,7.711,7.711,0,0,1,5.168-.073,3.488,3.488,0,0,0,2.329,0,.525.525,0,0,1,.655.17.547.547,0,0,1,0,.631,2.157,2.157,0,0,1-1.723.946c-.607-.073-1.213-.146-1.82-.243a10.631,10.631,0,0,0-3.4-.121,2.94,2.94,0,0,0-.776.267,6.772,6.772,0,0,1,3.008.679,7.061,7.061,0,0,1,1.189.655,6.082,6.082,0,0,0,3.154,1.019c.388.024.825.024.922.534.073.34-.437.752-.922.849a4.794,4.794,0,0,1-2.839-.485c-.679-.315-1.334-.679-1.989-1.019a2.567,2.567,0,0,0-.946-.315c-.073.17.049.218.121.291.728.582,1.31,1.31,1.989,1.941a4.08,4.08,0,0,0,1.917,1.068,1.787,1.787,0,0,1,.34.1c.267.121.534.267.51.582a.722.722,0,0,1-.558.655,1.817,1.817,0,0,1-1.189-.024,5.6,5.6,0,0,1-2.038-1.286c-.752-.7-1.5-1.431-2.256-2.135a1.4,1.4,0,0,0-1.019-.534c.728.995,1.116,2.111,1.771,3.081a2.7,2.7,0,0,0,.655.631c.243.17.461.34.267.679a.654.654,0,0,1-.825.34,2.9,2.9,0,0,1-1.213-.776,7.283,7.283,0,0,1-1.334-2.087,7.845,7.845,0,0,0-.752-1.407.39.39,0,0,0-.534-.146c-.752.315-.946.631-.825,1.431a3.8,3.8,0,0,0,.534,1.6.961.961,0,0,1,.17.461c.073.412-.17.655-.607.558a1.874,1.874,0,0,1-1.213-1.237,5.826,5.826,0,0,1-.291-.922c-.049-.218-.146-.291-.315-.121a11.937,11.937,0,0,0-1.917,2.208c-.194.267.073.315.218.437a4.636,4.636,0,0,1,1.941,2.3,1.608,1.608,0,0,1-.412,1.941,10.454,10.454,0,0,0-1.82,2.523,10.625,10.625,0,0,1-1.6,2.014,4.429,4.429,0,0,1-2.6,1.189c-.243.024-.388.1-.412.364-.024.17-.073.388-.243.461-.485.218-.461.679-.655,1.019a3.525,3.525,0,0,0-.558,1.674c-.024.315-.34.51-.631.631-.194.1-.34.17-.291.437a1.059,1.059,0,0,1-.607,1.165c-.194.121-.291.218-.218.461a.8.8,0,0,1-.121.7,8.217,8.217,0,0,0-.825,1.213,1.888,1.888,0,0,0-.243,1.5,15.269,15.269,0,0,1,.485,3.324,14.111,14.111,0,0,1-1.7,6.429,34.547,34.547,0,0,0-2.669,7.4,14.68,14.68,0,0,1-.655,1.989,5.19,5.19,0,0,0-.412,2.572c.024.243-.146.388-.315.534a1.3,1.3,0,0,0-.461.9,18.91,18.91,0,0,1-1.068,3.979,53.024,53.024,0,0,1-3.93,8.516,29.04,29.04,0,0,0-2.5,6.163,2.181,2.181,0,0,0-.1.97c.1.582-.315,1.068-.218,1.65.024.194-.17.34-.34.437a1.342,1.342,0,0,0-.631.995,38.167,38.167,0,0,0-.776,6.405c0,2.159.049,3.057.146,4.61a24.008,24.008,0,0,0,.946,5.241,3.8,3.8,0,0,0,1.48,2.038c.049.048.121.073.17,0a.45.45,0,0,0,.049-.17,3.37,3.37,0,0,1-.146-.461,1.112,1.112,0,0,1-.024-.485c.364-.679.291-1.553.873-2.135a2.491,2.491,0,0,0,.509-.97c.34-1.019.7-2.014,1.068-3.033a34.8,34.8,0,0,1,1.747-4.027c.024-.049.073-.121.1-.17.121-.315.34-.655.291-.946-.049-.243-.558-.194-.752-.51a.475.475,0,0,1,.534,0c.388.218.558,0,.655-.291a9.356,9.356,0,0,0,.97-3.688,20.154,20.154,0,0,0-.17-2.087c-.1-.97-.194-1.941-.267-2.911a3.686,3.686,0,0,0-.243-1.14,1.4,1.4,0,0,1-.049-1.165c.1-.17,0-.34-.073-.509a.9.9,0,0,1,.049-.9,1.269,1.269,0,0,0,.243-1.165.933.933,0,0,1,.412-.873.58.58,0,0,0,.243-.582,1.126,1.126,0,0,1,.7-1.213c.243-.1.291-.218.243-.485a1.216,1.216,0,0,1,.752-1.456.568.568,0,0,0,.388-.534,3.084,3.084,0,0,1,.388-1.237,46.375,46.375,0,0,0,2.62-6.187c1.431-3.736,2.281-7.642,3.494-11.452a25.486,25.486,0,0,1,2.936-6.721,10.467,10.467,0,0,1,5.144-4.222,9.463,9.463,0,0,1,2.281-.437,3.179,3.179,0,0,0,1.82-.849,9.221,9.221,0,0,0,1.674-1.553,1.085,1.085,0,0,1,.534-.315,2.672,2.672,0,0,1,2.814,1.359,1.248,1.248,0,0,1,.049.728c-.1.388-.194.752-.291,1.14a6.327,6.327,0,0,0-.049,3.736,10.223,10.223,0,0,1-1.334,8.613,26.3,26.3,0,0,1-5.386,5.968c-1.359,1.165-2.669,2.353-4.052,3.494a53.7,53.7,0,0,0-5.92,5.338c-1.068,1.213-2.087,2.45-3.13,3.664a2.175,2.175,0,0,1-.849.7c-.364.146-.34.218-.267.51a1.032,1.032,0,0,1-.631,1.286.38.38,0,0,0-.243.485,1.053,1.053,0,0,1-.412,1.116.415.415,0,0,0-.194.558c.1.243.1.34.024.412a2.563,2.563,0,0,0-.388,1.82c0,.607.049,1.14,0,1.723-.024.267.437.34.7.049a2.272,2.272,0,0,0,.849-1.529c0-.655-.024-.364.121-.461.51-.315.607-.946.995-1.31a10.88,10.88,0,0,0,1.043-1.383,8.062,8.062,0,0,1,1.262-1.31c.315-.267.679-.461.849-.873,0,0,.024,0,.024-.049.558-.218.97-.655,1.528-.849a.6.6,0,0,0,.388-.291,9.479,9.479,0,0,1,4.9-4.9c.607-.243,1.189-.509,1.82-.7a2.674,2.674,0,0,1,2.548.558,5.987,5.987,0,0,1,1.8,6.26,3.165,3.165,0,0,1-2.4,2.378,1.874,1.874,0,0,1-.97-.049,6.837,6.837,0,0,0-3.13-.267,11.909,11.909,0,0,1-2.936-.243,1.819,1.819,0,0,0-1.48.631c-.073.1-.1.243-.194.267-.534.17-.607.825-1.068,1.068-.1.049-.121.243-.194.388-.073.17-.121.364-.267.437-.291.146-.291.388-.412.631a6.529,6.529,0,0,0-.558,1.892.84.84,0,0,1-.534.607,1.619,1.619,0,0,0-.849,1.528,13.064,13.064,0,0,1-2.523,6.939c-.121.17-.364.291-.049.558.17.146-.121.485,0,.752.194.437-.267.34-.412.509-.1.1-.218.17-.267.267-.1.17-.073.34.194.267a.5.5,0,0,1,.655.267c.146.243.364.485-.146.582-.073,0-.146.1-.17.17-.17.364-.412.34-.655.073-.17-.17-.267-.218-.388.048-.194.437-.655.243-.995.388-.558.218-.679.534-.291.946.146.17.218.364.073.534s-.243-.048-.364-.121a.966.966,0,0,0-1.334.267,24.86,24.86,0,0,0-1.989,4.416,3.633,3.633,0,0,0-.1,1.019.946.946,0,0,1-.243.776.294.294,0,0,0-.073.364,1.141,1.141,0,0,1-.267,1.092,2.759,2.759,0,0,0-.121,2.5.453.453,0,0,0,.582.218c.218-.049.485-.073.534-.412.1-.509.437-.922.51-1.456.073-.461.582-.607,1.019-.558a4.254,4.254,0,0,1,1.7.558.991.991,0,0,1,.291,1.625.4.4,0,0,0-.121.388.48.48,0,0,1-.073.412c-.388.437-.412,1.068-.752,1.528-.1.146-.024.243.049.34a2.537,2.537,0,0,1-.146,2.645,2.734,2.734,0,0,1-.291.437,4.3,4.3,0,0,0-.97,3.057,6.559,6.559,0,0,0,.995,3.324,9.954,9.954,0,0,1,.509,1.165,6.086,6.086,0,0,0,1.334,1.7c.315.364.631.7.946,1.068.17.17.267.485.582.194.073-.073.194,0,.17.146-.049.388.218.437.485.437a.708.708,0,0,1,.534.17,4.529,4.529,0,0,0,1.941,1.14c.679.17,1.383.34,2.086.461a9.3,9.3,0,0,0,4.877-.558.625.625,0,0,1,.752.218c.024.049.1.1.073.121a1.315,1.315,0,0,0,.17,1.165c.121.267.024.655.461.728a.26.26,0,0,1,.291.267c0,.194-.146.194-.267.243a12.8,12.8,0,0,1-3.882,1.043,13,13,0,0,1-4.44-.315,2.366,2.366,0,0,0-1.14.194c-.243.073-.315.073-.291-.218a.537.537,0,0,0-.437-.534c-1.068-.388-2.111-.825-3.178-1.213a2.678,2.678,0,0,0-1.31-.146c-.17,0-.437.218-.485-.048-.073-.315.267-.218.509-.315-.315-.1-.509-.243-.776,0-.218.17-.437.049-.534-.218-.073-.218-.218-.291-.437-.364a17.378,17.378,0,0,0-5.435-1.019,12.07,12.07,0,0,0-4.974.995c-.146.073-.291.243-.437.1-.194-.17.049-.267.121-.388.121-.218,0-.315-.485-.34.267-.388.752-.412,1.043-.752-.243.1-.485.218-.728.315-.17.073-.51.291-.34-.218-.461-.218,0-.485-.024-.7-.049,0-.073-.049-.1-.049-.17-.048-.364.243-.461,0-.073-.17.194-.267.34-.34a11.776,11.776,0,0,1,5.338-1.431,18.571,18.571,0,0,1,5.046.631c.121,0,.243.121.412,0a24.051,24.051,0,0,1-4.076-6.915,32,32,0,0,1-1.917-6.526,2.459,2.459,0,0,0-1.286-2.038.713.713,0,0,1-.437-.607c0-.509-.267-.946-.315-1.456a2.631,2.631,0,0,0-.728-1.407,31.475,31.475,0,0,1-3.057-4.731,23.179,23.179,0,0,1-2.208-7.521,24.253,24.253,0,0,1,.121-5.629,4.207,4.207,0,0,0-.073-1.456,1.84,1.84,0,0,0-.7-1.14.84.84,0,0,1-.291-1.189c.024-.073.121-.17.073-.218-.534-.364-.437-1.043-.655-1.553a7.384,7.384,0,0,1-.752-1.674.55.55,0,0,0-.267-.388,11.316,11.316,0,0,1-2.159-2.62c-.679-.995-1.431-1.965-2.184-2.911a56.185,56.185,0,0,1-5.9-8.2,7.717,7.717,0,0,1-1.116-4.852,4.118,4.118,0,0,1,.728-1.892,3.894,3.894,0,0,0,.631-2.911,1.276,1.276,0,0,1,.364-1.165,4.074,4.074,0,0,1,3.2-1.286,1.1,1.1,0,0,1,1.019.679,3.535,3.535,0,0,0,1.407,1.456,9.94,9.94,0,0,0,1.31.728,5.977,5.977,0,0,1,3.372,4.27,42.37,42.37,0,0,1,1.068,6.963c.315,3.2.825,6.357,1.456,9.511a1.88,1.88,0,0,1,.049.825c-.073.291-.024.388.121.534a.855.855,0,0,1,.243.655.527.527,0,0,0,.194.437.989.989,0,0,1,.364.9.294.294,0,0,0,.073.315.981.981,0,0,1,.437.873c0,.364.1.218.218.291a.9.9,0,0,1,.461,1.116,3.6,3.6,0,0,0,.364,2.4.622.622,0,0,0,.9.315.668.668,0,0,0,.485-.873.818.818,0,0,1,.291-1.043.528.528,0,0,0,.121-.194,17.7,17.7,0,0,1,1.068-3.324,24.305,24.305,0,0,0,1.165-3.858,17.567,17.567,0,0,0,.218-4.513,10.2,10.2,0,0,1,.534-4.513,8.413,8.413,0,0,1,1.31-2.087c.194-.243.388-.485.558-.728a.864.864,0,0,0-.1-1.165c-.364-.364-.315-.509-.194-.8.1-.243.024-.34-.194-.461a.782.782,0,0,1-.437-.8,1.847,1.847,0,0,0-.267-1.068,11.067,11.067,0,0,0-3.712-4.343,12.625,12.625,0,0,1-4.683-5.847,1.869,1.869,0,0,0-.776-.9,1.063,1.063,0,0,1-.655-.946c0-.461-.1-.243-.267-.291-.485-.146-.849-.388-.849-.97s-.146-.194-.267-.218a1.133,1.133,0,0,1-.922-.946c-.024-.194-.146-.267-.315-.315a1.236,1.236,0,0,1-1.019-1.043.44.44,0,0,0-.34-.364c-.146-.049-.364-.121-.412-.243-.218-.679-.873-.9-1.31-1.359a.7.7,0,0,0-.582-.267,7.946,7.946,0,0,1-4.1-1.48,11.208,11.208,0,0,0-4.537-1.989c-.509-.073-.509-.388-.461-.776.1-.582.073-.582-.509-.607-.291,0-.679.146-.8-.267-.121-.388.218-.582.461-.752a.529.529,0,0,0,.1-.121c-.267-.146-.776-.049-.655-.534.121-.607.7-.534,1.14-.582.048-.194-.121-.218-.194-.291-.146-.146-.267-.315-.146-.509a.419.419,0,0,1,.534-.218,4.925,4.925,0,0,1,1.189.412c.17.1.364.243.631.049a5.834,5.834,0,0,0-1.116-.655,1.807,1.807,0,0,1-.364-.218.5.5,0,0,1-.17-.655.542.542,0,0,1,.631-.243,4.056,4.056,0,0,1,1.189.534c.194.121.364.218.558,0,.218-.243.049-.388-.121-.534-.291-.243-.364-.752-.922-.728.1.51.655.679.873,1.237a3.99,3.99,0,0,1-1.068-1.165.484.484,0,0,1,.073-.631c.17-.194.388-.121.582-.049.218.1.412.243.728.412a2.877,2.877,0,0,1-.194-1.31c.049-.243.073-.509.364-.558.315-.049.461.17.534.461a4.641,4.641,0,0,0,.412,1.237,6.325,6.325,0,0,1-.291-2.014c.024-.315-.024-.728.364-.8.412-.073.51.315.631.631.024.073.024.194.17.243.049-.315.049-.631.121-.946.049-.243.121-.534.412-.534s.412.267.485.534a12.764,12.764,0,0,0,.461,2.329c.121.291.146.728.461.728s.315-.437.437-.679a1.2,1.2,0,0,0,.146-.461c.049-.218.17-.485-.024-.631-.194-.17-.437-.024-.631.1.218.17.146.461-.243.873-.17-.243-.388-.509-.194-.776a1.143,1.143,0,0,1,.97-.461c.388,0,.437.267.509.51a16.9,16.9,0,0,0,2.96,5.119,5.347,5.347,0,0,1,1.334,3.906.271.271,0,0,0,.243.34c.243.049.509.17.558.412a.929.929,0,0,0,.873.752.432.432,0,0,1,.267.194,1.823,1.823,0,0,0,1.165,1.068c.437.146.388.728.607,1.043.194.291.849.146.995.582a2.739,2.739,0,0,0,.97,1.262c.364.34.534.849,1.165.922.218.024.315.34.388.582.218.849.922,1.237,1.626,1.626a.341.341,0,0,0,.412-.073.332.332,0,0,0,.024-.364,1.624,1.624,0,0,0-.34-.461.885.885,0,0,1-.17-1.116c.024-.049.1-.121.073-.17-.291-.873.194-1.8-.267-2.717s-.7-1.7-1.116-2.548a11.85,11.85,0,0,0-1.99-2.863,12.534,12.534,0,0,1-2.766-5.192c-.194-.728-.558-1.31-1.48-1.237a.75.75,0,0,1-.752-.607.669.669,0,0,1,.315-.752,7.463,7.463,0,0,0,1.747-1.747.847.847,0,0,1,.946-.437c.412.1.558.437.631.825A2.905,2.905,0,0,0,182,176.816c.631,0,.291-.049.364-.194a.372.372,0,0,0-.073-.461c-.534-.728-.315-1.262.582-1.359a17.231,17.231,0,0,0,2.5-.364.773.773,0,0,1,.946.946,1.126,1.126,0,0,0,.291,1.019,9.458,9.458,0,0,1,1.892,5.022,31.318,31.318,0,0,1-.17,5.435,11.288,11.288,0,0,0,.17,3.494,5.058,5.058,0,0,0,.34.728c.194.631.291,1.286.437,1.941a.308.308,0,0,1-.024.146,3.35,3.35,0,0,0-.218,2.766,37.763,37.763,0,0,0,3.542,10.166c.218.461.752.825.461,1.456a.323.323,0,0,0,.121.146.8.8,0,0,1,.315.995c-.049.17-.073.388.194.412a.291.291,0,0,0,.291-.364c-.121-.679.388-1.14.534-1.723.024-.146.146-.267.17-.388a25.962,25.962,0,0,0,.946-5.944,20.845,20.845,0,0,0-.437-4.246,34.647,34.647,0,0,1-.194-7.764,1.9,1.9,0,0,0-.34-1.6.379.379,0,0,1-.1-.461c.243-.364,0-.534-.218-.8a14.345,14.345,0,0,1-1.383-2.038,27.158,27.158,0,0,1-2.863-6.478,24.821,24.821,0,0,1-.922-5.168,16.511,16.511,0,0,0-.437-2.232,1.244,1.244,0,0,0-.7-.776c-.461-.267-.776-.607-.631-1.165.049-.17-.049-.194-.17-.218a1.274,1.274,0,0,1-.9-1.116.556.556,0,0,0-.364-.461.95.95,0,0,1-.607-.922c0-.437-.121-.412-.34-.534a1.063,1.063,0,0,1-.607-1.068c.024-.243-.1-.34-.291-.461a1.462,1.462,0,0,1-.849-1.407c.024-.218-.1-.291-.267-.34a7.018,7.018,0,0,1-3.13-2.062,11.236,11.236,0,0,0-3.566-2.742.461.461,0,0,1-.267-.679.634.634,0,0,1,.073-.194,9.992,9.992,0,0,1,3.2-2.839,15.606,15.606,0,0,1-1.359,1.165,5.178,5.178,0,0,0-1.359,1.626c-.073.146-.17.34.024.437s.291-.1.34-.267a1.055,1.055,0,0,1,.34-.51,11.571,11.571,0,0,1,2.45-1.989c.631-.291,1.286-.631,1.917-.946.146-.073.291-.17.461-.073a1.133,1.133,0,0,1-.631.849c-.558.364-1.286.582-1.456,1.383a.212.212,0,0,1-.218.146c-.922-.073-1.237.655-1.626,1.262a6.8,6.8,0,0,0,.752-.194,22.79,22.79,0,0,0,3.615-1.8,12.032,12.032,0,0,0,2.936-2.378c.218-.267.7-.558.437-.922-.243-.364-.728-.17-1.092-.1a16.216,16.216,0,0,0-4.731,1.989,4.577,4.577,0,0,1-.8.315h0Zm7.982,35.349c.17,1.189.51,2.329.607,3.542,0,.146-.024.364.17.34.243-.024.121-.267.1-.412a19.532,19.532,0,0,0-.437-2.378,1.377,1.377,0,0,0-.437-1.092c.1-.437-.194-.8-.267-1.213a35.072,35.072,0,0,0-1.577-5.386,2.5,2.5,0,0,1-.17-2.208,2.054,2.054,0,0,0,.218-.776,6.794,6.794,0,0,1,.825-2.742,1.4,1.4,0,0,0,.121-.946c-.1-.412-.437-.364-.752-.315-.364.049-.218.291-.17.485a5.979,5.979,0,0,1-.291,3.445,3.824,3.824,0,0,0-.146,2.378c.218.873.534,1.7.776,2.548.437,1.6.922,3.178,1.431,4.731Zm-14.12,29.939c-.146.194.024.291.1.412a2.174,2.174,0,0,1,.364.461,2.451,2.451,0,0,0,1.116,1.48c.073,0,.146.121.194.218.34.8,1.068,1.334,1.431,2.111.267.558.728.995,1.019,1.553a4.332,4.332,0,0,0,.995,1.116c.146.146.437.243.582.073.17-.194-.073-.364-.194-.485a7.087,7.087,0,0,1-1.165-1.626c-1.262-2.208-2.717-4.27-4.125-6.381a41.16,41.16,0,0,1-3.445-5.677,6.646,6.646,0,0,1-.728-4.513c.121-.461.073-.679-.485-.7-.679-.049-.849.121-.8.825a3.827,3.827,0,0,1,.121.995,2.935,2.935,0,0,0,.073,1.65A3.164,3.164,0,0,0,169.242,212a.57.57,0,0,1,.17.34,5.978,5.978,0,0,0,1.165,2.062,7.731,7.731,0,0,1,.9,1.359A5.116,5.116,0,0,0,173,217.939c.1.073.243.121.17.291Zm4.149-61.625a10.484,10.484,0,0,1,1.747,1.262c.049.049.1.1.17.024a.158.158,0,0,0,.049-.218c-.267-.388.1-.776-.024-1.189-.049-.146.121-.243.243-.194.218.121.631.146.437.582-.073.17.049.243.17.34.364.267.752.485.752,1.043s.194.194.34.073a13.438,13.438,0,0,1,2.766-1.7c.461-.243.8-.461.582-1.043-.17-.485.121-1.043-.218-1.5a.379.379,0,0,1,.073-.582,3.049,3.049,0,0,0,.655-.922,16.771,16.771,0,0,1-3.591,2.378,13.381,13.381,0,0,1-4.149,1.65Zm8.856,35.058c-.1-.51-.17-1.043-.291-1.553a67.088,67.088,0,0,0-1.917-6.526,6.211,6.211,0,0,0-2.717-3.761,1.832,1.832,0,0,1-.34-.267,23.2,23.2,0,0,0-2.863-2.693.324.324,0,0,1-.17-.412c.194.073.34.315.558.049.194-.243-.024-.315-.121-.437-.243-.267-.315.049-.461.146a5.9,5.9,0,0,0-.607.485c-.243.17-.485.388-.267.679a.57.57,0,0,0,.849.1c.146-.1.243-.146.388-.024.218.194.437.364.679.558.509.388.849.946,1.31,1.359a8.611,8.611,0,0,1,2.475,3.858,18.182,18.182,0,0,0,.607,1.844c.8,1.82,1.553,3.664,2.4,5.459.073.146.194.315-.049.412-.461.194-.1.34.049.437A2.569,2.569,0,0,1,186.177,191.664Zm10.166-42.7.073.146a9.647,9.647,0,0,0,1.359,3.348.257.257,0,0,1,.024.315c-.049.1-.146.218.024.267.218.049.437.121.631-.073.1-.1.146-.267,0-.34-.631-.291-.7-.995-1.068-1.48a6.523,6.523,0,0,1-.631-1.868.16.16,0,0,1,.024-.146c.243-.364.024-.388-.267-.388a17.591,17.591,0,0,1-2.766-.121c-.243-.024-.291.1-.34.291a11.809,11.809,0,0,1-1.771,3.591c-.1.146-.194.243-.049.364a.309.309,0,0,0,.437.024c.364-.412.534-.121.7.146a1.267,1.267,0,0,0,1.068.776,6.536,6.536,0,0,0-1.116-1.189c-.17-.146-.243-.243-.121-.437a14.008,14.008,0,0,0,1.48-3.106c.024-.1.073-.194.194-.146a.184.184,0,0,1,.1.243c-.267.534-.194,1.14-.461,1.674-.461.946-.412,1.14.388,1.771.34.267.534.194.728-.121a3.59,3.59,0,0,0,.388-1.8c.024-.364.291-.752.049-1.14-.121-.17-.17-.291.024-.461.17-.146.34-.218.509-.049.315.291.218-.121.388-.1Zm-.218,55.559c.1,0,.1-.073.121-.146.291-1.165.485-2.329.679-3.518a35.137,35.137,0,0,0,.461-5.022,26.691,26.691,0,0,0-.655-6.357c-.121-.582-.315-1.165-.485-1.723-.049-.121-.1-.243-.267-.243a.183.183,0,0,0-.146.267,4.25,4.25,0,0,1,.073,1.237c.146,0,.073-.267.291-.218a7.255,7.255,0,0,1,0,2.4,12.237,12.237,0,0,0,.073,4.1,25.615,25.615,0,0,1,.364,3.833,24.978,24.978,0,0,1-.315,3.566,5.67,5.67,0,0,0-.194,1.82h0Zm16.813,18.148c.073.291.17.607.607.582.1,0,.218,0,.267.048.315.243.51.049.582-.218a1.154,1.154,0,0,1,.582-.825c.218-.121.315-.776.17-.752-.631,0-.388-.461-.388-.728.024-.461.121-.922-.315-1.262a.258.258,0,0,1-.049-.315c.17-.34-.049-.437-.291-.509a1.25,1.25,0,0,1-.485-.218.724.724,0,0,0-1.019.024,1,1,0,0,0-.291,1.068,4.564,4.564,0,0,1,.631,3.105Zm-14.654-76.546c-1.165.049-1.237.34-1.068,1.14.049.243.073.485.1.728a.229.229,0,0,0,.315.218,8.678,8.678,0,0,0,3.106-.922c.946-.582.922-1.213-.024-1.8-.073-.049-.146-.073-.218-.121a12.174,12.174,0,0,0-2.863-.873c-.17-.024-.437-.121-.485.146-.049.218.194.291.364.315.776.194,1.431.631,2.232.8a.4.4,0,0,1,.34.461c-.049.267-.267.17-.461.146A7.432,7.432,0,0,0,198.283,146.124Zm-8.152,24.723c.267.728-.073,1.48.218,2.159a2.641,2.641,0,0,1,.243-.607.424.424,0,0,1,.437-.243c.194.024.267.17.291.34.049.267.049.51.1.776a9.047,9.047,0,0,0,.607,3.4c.1.17,0,.461.388.34.17-.049.146.121.121.243a1.034,1.034,0,0,0,.315.9,26.359,26.359,0,0,1-.1-5.532,2.642,2.642,0,0,0,.024-.873c-.024-.146-.049-.291-.267-.291A3.588,3.588,0,0,1,190.131,170.847Zm-5.58,69.85a17.377,17.377,0,0,1,.1-2.3,15.459,15.459,0,0,0,.194-2.378c-.024-.485-.17-.8-.7-.873a2.425,2.425,0,0,1-1.965-1.626,11.39,11.39,0,0,1-.679-2.184c-.1-.485-.243-.97-.388-1.456-.073-.267-.291-.267-.509-.267s-.315-.073-.388.121a.306.306,0,0,0,.073.315,3.634,3.634,0,0,1,.776,1.7,2.633,2.633,0,0,0,.534,1.383.848.848,0,0,1,.194.534c.024.655.631.922.97,1.383.218.291.7.412,1.068.582a.884.884,0,0,1,.534,1.068,13.323,13.323,0,0,0-.34,2.4c.024.437-.412.995.34,1.262.1,0,.1.146.194.34h0Zm27.877-69.122c0-.509.049-.995-.412-1.213a5.871,5.871,0,0,1-.873-.437.3.3,0,0,0-.485.146,7.147,7.147,0,0,0-.679,2.329.291.291,0,0,0,.291.364,5.523,5.523,0,0,0,1.553.1c.146-.024.34-.024.388-.218.1-.388.364-.728.218-1.068ZM194.79,183.852c-.073-.291-.146-.582-.243-.873a22.409,22.409,0,0,1-.873-3.979,30.744,30.744,0,0,1-.146-6.842,7.976,7.976,0,0,0-.121-1.31c-.024-.146-.1-.315-.267-.291-.218.049-.1.218-.1.364a4.708,4.708,0,0,1,.049.582c-.024,1.237-.049,2.475-.121,3.712a19,19,0,0,0,.873,6.187,7.56,7.56,0,0,0,.946,2.45ZM181.421,195.23c.024.461.364.558.558.752a3.9,3.9,0,0,0,.873.8,9.015,9.015,0,0,1,1.626.922,1.256,1.256,0,0,0,.534.34,2.87,2.87,0,0,1,2.232,1.917c.776,1.8,1.5,3.615,2.281,5.41a4.6,4.6,0,0,0,1.092,1.8c-.267-.679-.509-1.383-.728-2.087-.558-1.892-1.723-3.518-2.45-5.338a2.652,2.652,0,0,0-1.674-1.7,7.293,7.293,0,0,1-2.378-1.286c-.631-.485-1.237-.97-1.965-1.528h0Zm34.961-3.93c.534.218,1.092.194,1.6.388.558.218.849.7,1.262,1.14a4.016,4.016,0,0,1,.509-1.334.511.511,0,0,0-.218-.825,7.011,7.011,0,0,0-1.359-.655,1.088,1.088,0,0,0-1.456.849c-.049.218-.243.267-.34.437Zm-20.21,15.115c.267-.049.243-.218.291-.315a50.1,50.1,0,0,0,1.286-7.351,18.4,18.4,0,0,0,.1-3.057c-.049-1.092.049-2.159-.1-3.251-.1-.825-.291-1.65-.315-2.5a6.868,6.868,0,0,0-.485-2.111c-.073-.218-.1-.461-.437-.582,1.989,6.429,1.165,12.81-.34,19.167h0Zm-16.134-30.934c-.073-.388,0-.752-.412-.849-.364-.073-.582.146-.776.412a2.316,2.316,0,0,0-.291.388c-.073.1-.267.243-.1.364.17.1.315-.1.34-.243.073-.364.243-.267.412-.1.121.121.243.267.364.388a11.289,11.289,0,0,0,2.693,2.087.833.833,0,0,0,1.286-.485,3.647,3.647,0,0,0,.121-2.159c-.024-.121.024-.291-.194-.291a.839.839,0,0,0-.631.17c-.146.121.024.243.1.34a1.42,1.42,0,0,1,.049,1.723.758.758,0,0,1-1.019.243,7.451,7.451,0,0,1-1.092-.8,3.117,3.117,0,0,1-1.14-1.528,3.616,3.616,0,0,1,.291.34h0Zm2.79,9.656c-.825-2.936-1.989-5.022-3.106-5.507C180.621,181.6,181.3,183.609,182.829,185.137Zm32.05,31.346c.194.146.388.267.582.412a3.523,3.523,0,0,1,1.407,1.747,6.031,6.031,0,0,1,.315,1.65,4.788,4.788,0,0,0,.17,1.189,2.88,2.88,0,0,1-.024,1.965.1.1,0,0,0,.073.146c.8-1.116.8-3.4-.024-5.022a3.57,3.57,0,0,0-2.5-2.087Zm-22.952-6.26a.929.929,0,0,0,.1.873,6.643,6.643,0,0,1,.631,2.378,3.168,3.168,0,0,1-.024,1.068,15.2,15.2,0,0,1-1.116,3.2.2.2,0,0,0,.073.291c.194.146.146-.073.194-.146.315-.315.267-.8.509-1.14a5.217,5.217,0,0,0,.922-2.426c.243-1.553-.631-2.79-1.286-4.1h0Zm-21.908-6.187c-.1.073-.17-.024-.267,0-.291.024-.679.049-.728.34-.049.461-.364.7-.582,1.019-.073.121-.194.243-.1.388a1.131,1.131,0,0,0,1.407-.024c.34-.558.922-.946,1.14-1.6.073-.243.1-.412-.1-.558a.859.859,0,0,0-.995-.146c-.243.17.17.267.194.437.049.073,0,.121,0,.146h.024Zm23.243,62.426c-.34-.849-.7-1.626-1.068-2.45a21.6,21.6,0,0,1-1.431-5.216,8.348,8.348,0,0,0-.631-2.766c-.073-.146-.1-.412-.315-.34s-.146.315-.121.51c.073.291.34.509.364.776a10.664,10.664,0,0,0,.388,2.135,32.627,32.627,0,0,0,1.116,4c.243.631.534,1.213.776,1.82a3.461,3.461,0,0,0,.922,1.528h0Zm16.983-101c-.049-.267-.073-.534-.315-.558s-.243.218-.291.388a2.02,2.02,0,0,0-.1.364,14.232,14.232,0,0,1-2.353,5.289c-.1.146-.388.291-.121.509.291.243.412-.024.607-.17.388-.315.364-.849.631-1.237a8.138,8.138,0,0,0,1.407-3.13A3.654,3.654,0,0,1,210.244,165.461Zm-19.046-13a8.49,8.49,0,0,0,1.965-3.639c.024-.146.073-.267-.121-.291a20.04,20.04,0,0,1-2.3-.582,1.631,1.631,0,0,0,.631.509c.267.146.631.364.485.752a2.136,2.136,0,0,0,.024,1.5c.073.194.17.388-.146.509a1.084,1.084,0,0,0-.534,1.237Zm8.443,37.072a1.27,1.27,0,0,0-.631,1.213c.024.607.049,1.237.121,1.844a25.436,25.436,0,0,1-.024,5.435c-.073.9-.146,1.771-.243,2.79a6.447,6.447,0,0,0,.388-1.237,24.229,24.229,0,0,0,.291-4.949,9.933,9.933,0,0,0-.146-2.548A3.354,3.354,0,0,1,199.642,189.529Zm13.441-16.983a1.31,1.31,0,0,0,.9-1.626,3.989,3.989,0,0,0-1.65-2.256c-.194-.146-.437-.558-.7-.243s.146.534.34.728c.582.631,1.262,1.189,1.286,2.159A7.567,7.567,0,0,1,213.083,172.546Zm-5.071-3.906a.972.972,0,0,0-.631.388c-.485.655-.97.752-1.553.291a.562.562,0,0,1-.243-.34c-.024-.1-.073-.17-.218-.121a.473.473,0,0,0-.291.7,7.83,7.83,0,0,0,.995,1.189c.364.364.607.243.873-.073a4.137,4.137,0,0,0,1.068-2.038h0ZM194.3,141.66c-.049.388.218.7.218,1.068a5.857,5.857,0,0,1-.218,2.159c-.073.218.121.388.024.607-.315.776-.34,1.65-.582,2.45-.073.218.049.291.243.291a.388.388,0,0,0,.461-.315,13.544,13.544,0,0,0,.17-5.92c-.049-.146-.073-.315-.315-.34Zm-7.279,56.457c.024.049.024.121.049.17a35.466,35.466,0,0,1,2.087,4.052c.946,1.8,1.48,3.785,2.4,5.6.049.073.049.218.17.194.146-.049.1-.194.049-.291-.073-.218-.194-.412-.267-.631-.558-1.383-1.092-2.79-1.674-4.173-.461-1.043-.97-2.062-1.5-3.057a6.868,6.868,0,0,0-1.31-1.868Zm1.892,19.628a2.243,2.243,0,0,0,.582-1.237,5.771,5.771,0,0,1,.849-2.742,1.415,1.415,0,0,0,.194-.437c.073-.194.146-.412-.049-.534-.17-.1-.291.1-.388.194a2.988,2.988,0,0,0-.825,1.626c-.073.267-.291.534-.146.8s.194.437-.121.582c-.073.024-.121.17-.121.243a5.254,5.254,0,0,0,.024,1.5h0ZM185.279,243.9a.829.829,0,0,0,.049-.582c-.049-.752-.121-1.528-.121-2.281.024-1.431.073-2.839.17-4.27a6.591,6.591,0,0,0,.024-1.383c-.049-.388-.194-.485-.582-.534a1.743,1.743,0,0,1,.267,1.286,29.486,29.486,0,0,0-.121,4.852,11.9,11.9,0,0,0,.315,2.911Zm5.968-90.957c.073.243.024.7.218.679.437-.073.364.267.485.461.291.51.364,1.189,1.043,1.383a1.115,1.115,0,0,1,.752.679,1.008,1.008,0,0,0,.461.607,4.112,4.112,0,0,0-1.868-3.057,6.715,6.715,0,0,1-1.092-.752Zm15.819,19c-.146-.1-.243-.194-.364-.267-.17-.073-.194.049-.194.17a.246.246,0,0,1-.121.243,7.156,7.156,0,0,1-2.281,1.31c-.121.024-.315.049-.218.218a2.9,2.9,0,0,0,1.019,1.431c.073.049.121.121.218.049a.186.186,0,0,0,.049-.218,2.687,2.687,0,0,0-.315-.97c-.121-.17-.146-.34.121-.412.873-.194,1.334-.922,1.965-1.456,0,.024.049,0,.121-.1h0ZM190.18,131.713c.17.34.485.607.558.995.218,1.068.461,2.135.631,3.2.073.412.194.655.655.607a12.668,12.668,0,0,0-.364-2.135,6.414,6.414,0,0,0-1.043-2.523.324.324,0,0,0-.437-.146h0Zm3.469,13.223c.34.146.34-.024.291-.17-.073-.34-.34-.315-.582-.267a9.221,9.221,0,0,0-2.693.728,2.6,2.6,0,0,0-.9.534.55.55,0,0,0-.17.558.321.321,0,0,0,.17.218c.1.049.17-.073.218-.146a2.492,2.492,0,0,1,1.068-.8c.34-.17.776-.17,1.092-.412.485-.34,1.043-.17,1.5-.243ZM171.11,187.491a2.415,2.415,0,0,0-.1-.9c-.1-.194-.388.024-.582-.073-.073-.024-.146-.049-.243-.073a7.035,7.035,0,0,1-1.7-.728c-.1-.049-.218-.121-.291,0-.073.1.024.194.073.267a8.1,8.1,0,0,0,.8.776c.509.364,1.116.485,1.6.9.291.243.412,0,.437-.17Zm38.358-13.32c-.243-.776-.218-.9.194-.995a.442.442,0,0,0-.534-.243c-.194.049-.121.291-.121.437a4.976,4.976,0,0,0,.073,1.892c.121.34,0,.437-.315.534a6.473,6.473,0,0,0-1.5.51,3.823,3.823,0,0,0,1.213.146c.922-.146,1.068-.315.995-1.237a1.944,1.944,0,0,1,.073-.655.963.963,0,0,0-.024-.582.261.261,0,0,1-.049.194h0Zm-4.731-5.871a2.142,2.142,0,0,1,2.014-1.019,11.155,11.155,0,0,1,1.553.121c.17.024.34.024.364-.194s-.146-.267-.291-.315a5.521,5.521,0,0,0-2.6.024,1.226,1.226,0,0,0-1.043,1.383Zm-14.314,53.085A42,42,0,0,0,187,230.167C188.021,227.183,189.258,224.3,190.422,221.385Zm-5.556-64.827c.024.073.024.146.073.17.412.218.267.437.024.679a2.849,2.849,0,0,1-.412.34,4.479,4.479,0,0,1-1.068.558c-.34.146-.728.534-1.068.267-.582-.437-.534.534-.946.34h-.049c-.267-.024-.437.146-.388.364.049.243.291.121.461.1a11,11,0,0,0,3.2-1.48c.267-.17.534-.388.8-.558s.17-.388.1-.607c-.073-.267-.218-.218-.388-.1-.146.1-.194-.146-.34-.073Zm8.758,9.05h0v.582c-.121.995-.461,1.989-1.844,1.965-.1,0-.218,0-.194.146.024.121-.049.291.146.364a1.367,1.367,0,0,0,1.48-.412,7.01,7.01,0,0,0,.679-2.3,8.665,8.665,0,0,0,.1-1.116c0-.146-.024-.291-.17-.291-.194-.024-.17.146-.17.267v.8h-.024Zm15.382,38.042a.587.587,0,0,0-.34-.631c-.267-.146-.437.024-.655.17a2.387,2.387,0,0,0-.8,1.65.5.5,0,0,0,.267.534.483.483,0,0,0,.51-.049,2.322,2.322,0,0,0,1.019-1.674Zm-2.232-1.747a4.745,4.745,0,0,1,1.334-4.052.978.978,0,0,0-1.092.558,8.286,8.286,0,0,0-.8,2.523c-.024.146-.024.315.1.364.267.121.34.34.461.607Zm13.32-14.557c-.534,0-.946-.024-1.092.412-.146.412.17.7.437.946a2.876,2.876,0,0,0,1.553.607.784.784,0,0,0,.9-.34c.17-.34-.024-.631-.243-.9A2.264,2.264,0,0,0,220.095,187.345Zm-52.381-1.5c.437-.412.121-.607-.194-.8-.291-.194-.631-.267-.825-.558-.121-.17-.194-.024-.267.024a6.662,6.662,0,0,1-.97.631c.752.218,1.5.412,2.256.7h0Zm22.515,15.649c-.607-1.82-1.237-3.615-1.674-5.507C188.433,197,189.5,200.859,190.228,201.49Zm14.242-32.826c-.049.073-.073.1-.073.121a3.4,3.4,0,0,0,1.359,2.839.326.326,0,0,0,.485-.049c.17-.194-.024-.291-.146-.388A4.428,4.428,0,0,1,204.47,168.664Zm-23.461-9c.485.7,1.213.7,1.723,1.068a1.731,1.731,0,0,0,.946.364c.364,0,.17.024.218-.049.049-.1-.024-.146-.073-.218a3.977,3.977,0,0,0-2.814-1.165h0Zm12.81-13.611a1.989,1.989,0,0,1-1.407.315.308.308,0,0,0-.388.194c-.049.17.121.243.243.315a2.642,2.642,0,0,1,1.213.849,4.789,4.789,0,0,0,.34-1.674h0Zm5.993,2.062a11,11,0,0,1-2.135.534c-.243.049-.291.17-.218.364.146.437.291.873.461,1.359.194-.218.461-.412.121-.631s-.073-.267.049-.388c.51-.485,1.262-.631,1.723-1.237h0Zm.364,70.6c.34-.194.34-.631.582-.849.679-.607.7-1.553,1.213-2.256a.205.205,0,0,0,0-.17c-.024-.024-.121-.024-.17-.024a.293.293,0,0,0-.291.34.874.874,0,0,1-.437.825c-.8.51-.607,1.431-.9,2.135Zm-3.858-75.77a14.6,14.6,0,0,0-.049,4.925c.024.218.049.485.34.412.267-.073.121-.34.073-.509a6.691,6.691,0,0,1-.412-2.669,16.048,16.048,0,0,0,.049-2.159Zm-5.9-7.036c.121-.534.267-1.019-.1-1.48-.1-.146-.146-.315-.243-.485-.364-.607-.388-1.407-1.068-1.82-.049-.024-.073-.1-.1-.17-.049-.1-.1-.243-.243-.17-.121.073-.024.194.024.291a1.077,1.077,0,0,0,.194.267,6.365,6.365,0,0,1,1.286,3.057,1.224,1.224,0,0,0,.243.509Zm3.882,22.175c-.1-.194.17-.558-.194-.7a.548.548,0,0,0-.679.049.768.768,0,0,0-.049.9c.17.291.461.558.776.485.291-.049.1-.412.146-.631v-.1Zm-10.7,80.67c.073-.509.17-1.019.243-1.528.049-.364-.243-.509-.461-.607a.43.43,0,0,0-.509.267,1.149,1.149,0,0,0,.388,1.213C183.581,238.246,183.6,238.465,183.6,238.756Zm1.31-75.794c.1-.024.243.049.291-.073s-.049-.218-.17-.243c-.17-.049-.146-.17-.17-.291a1.408,1.408,0,0,0-.437-.752.414.414,0,0,0-.485-.1c-.17.073-.194.243-.194.412A1.182,1.182,0,0,0,184.915,162.962Zm12.179,71.451c.17-.1.1-.243.121-.364a23.593,23.593,0,0,0-.461-4.125c-.024-.121.024-.364-.194-.315-.194.049-.17.243-.146.412.121.582.243,1.165.34,1.771C196.876,232.666,196.973,233.54,197.094,234.413Zm13.029-16.11c.437.121.776.194,1.092.291.218.073.364.024.437-.218a5.312,5.312,0,0,1,.728-1.431c-.849.243-1.334,1.019-2.256,1.359Zm-16.571-3.882c.728-1.092.073-3.106-1.043-4.343C193.018,211.486,193.892,212.82,193.552,214.421Zm18-11.913c-.121.51.121.728.558.776A1.381,1.381,0,0,0,213.4,201.9a.256.256,0,0,0-.218-.218c-.146-.024-.121.121-.146.218a.932.932,0,0,1-.679.8C212.015,202.8,211.821,202.533,211.554,202.509Zm-40.663-17.541c.024-.049.049-.073.073-.121-.34-.243-.655-.51-.995-.7-.291-.17-.485-.509-.849-.534-.218-.024-.267-.073-.194-.267a.349.349,0,0,0-.1-.364c-.1-.121-.194-.291-.388-.243a.416.416,0,0,0-.34.315c-.049.194.146.218.243.315.315.34.8.461,1.14.8a3.719,3.719,0,0,0,1.407.8Zm19.773,32.875a.9.9,0,0,0,.534-.825.346.346,0,0,1,.146-.291c.412-.34.364-.825.364-1.286s-.17-.291-.315-.315-.146.17-.17.267a3.27,3.27,0,0,0-.267,1.262,2.021,2.021,0,0,1-.291,1.189Zm9.559-32.026c-.267.194-.291.461-.388.655-.51.922-.728,1.237-1.844.607h-.1a6.179,6.179,0,0,0,.315.7.353.353,0,0,0,.437.218,2.907,2.907,0,0,0,1.577-2.184Zm-14.411-21.3c.243,0,.412-.024.194-.364-.146-.218-.267-.485-.412-.7a.332.332,0,0,0-.437-.194.4.4,0,0,0-.315.437,1,1,0,0,0,.97.825Zm16.425,26.324c.049-.146-.049-.267-.1-.412-.073-.146-.121-.34-.315-.291a.324.324,0,0,0-.243.412,7.841,7.841,0,0,1,.17,1.674.171.171,0,1,0,.34,0l.146-1.383h0Zm2.572-36.417c-.049.218.1.34.17.461a4.3,4.3,0,0,0,.8.825,8.026,8.026,0,0,0,1.674,1.456c.146.073.315.243.437.049.146-.194-.1-.267-.218-.34a12.816,12.816,0,0,1-1.941-1.48c-.315-.315-.607-.631-.922-.97Zm-10.457,5.435a.629.629,0,0,0-.631-.728c-.388,0-.388.243-.388.485s.461.873.728.849C194.474,160.439,194.232,160.026,194.353,159.857Zm1.844,67.5c.267,0,.558-.049.534-.534-.024-.243-.485-.7-.7-.655a.485.485,0,0,0-.388.631c.049.291,0,.655.558.558ZM212.768,173.1a5.365,5.365,0,0,1-1.383.146,4.726,4.726,0,0,1-1.165-.1c-.291-.049-.388.121-.388.364s-.024.315.121.218c.534-.291,1.14,0,1.65-.267.121-.073.315-.121.412-.049C212.5,173.783,212.573,173.322,212.768,173.1Zm-.922,20.889c.121.655.7.534,1.092.534s.582-.607.873-.946a10.159,10.159,0,0,1-1.965.412Zm3.615,7.327c-.218-1.359.655-2.062,1.577-2.766a1.749,1.749,0,0,0-1.431.995A1.524,1.524,0,0,0,215.461,201.32Zm-31.686-41.876c-.146.024-.461-.024-.267.267a6.624,6.624,0,0,0,1.068,1.116c.17.146.388.049.388-.218,0-.412-.776-1.14-1.189-1.165h0Zm12.786,66.623c-.146-.34-.364-.631.17-.7.194,0,.315-.243.243-.461a.658.658,0,0,0-.485-.485.346.346,0,0,0-.388.218C195.833,225.145,195.954,225.63,196.561,226.067Zm-9.535-42.7a4.081,4.081,0,0,0-.146-1.965c-.024-.243-.364-.243-.509-.243s-.049.243-.024.364c.073.291.17.582.218.873a1.8,1.8,0,0,0,.461.97h0Zm6.357-45.685a10.4,10.4,0,0,0-.534-4.319C193.261,134.746,192.849,136.274,193.382,137.681Zm-21.836,49.276a5.136,5.136,0,0,0,1.82-1.092c.073-.121.1-.243-.024-.34-.1-.073-.17-.024-.243.049a3.074,3.074,0,0,1-1.577.922c-.146.024-.194.17-.17.315C171.353,186.933,171.425,186.981,171.547,186.957Zm26.033,34.961c.049-.267.146-.388.364-.121.243.267.412.146.558-.121a2.277,2.277,0,0,0,.146-.364c.049-.146.243-.315.049-.461a.48.48,0,0,0-.631,0A1.052,1.052,0,0,0,197.58,221.918Zm-10.845-55.948c.267.024.34-.049.243-.243-.146-.267-.315-.534-.485-.8a.318.318,0,0,0-.437-.121c-.194.073-.218.218-.218.388,0,.412.364.728.9.776Zm10.238,58.374c-.243-.437-.121-.631.34-.728.267-.049.388-.364.437-.655a.251.251,0,0,0-.218-.291.824.824,0,0,0-.655.243,1.057,1.057,0,0,0,.1,1.431Zm-12.034-28.677c.655.218.97.146,1.237-.267a1,1,0,0,0-.073-1.334c-.267.607-.146,1.529-1.165,1.6h0Zm9.268-34.064c.17-.485-.121-.582-.485-.631-.243-.024-.364.073-.364.315-.024.364.315.922.607.9C194.377,162.186,194.135,161.8,194.207,161.6Zm-7.376,4.949a1.039,1.039,0,0,0,.995.9c.146-.024.218-.073.121-.218-.17-.291-.364-.558-.558-.849s-.243-.146-.388-.121c-.17,0-.194.146-.17.291ZM217.911,189.6c.437.267.849.437,1.262.655.194.1.412.388.582.218.267-.243-.146-.34-.243-.51a.862.862,0,0,1-.1-.218c-.049-.146-.194-.291-.315-.243-.388.121-.776.315-1.189.1h0Zm-46.1-12.276c-.194.582-.388,1.068-.534,1.528-.049.17-.024.412.194.437.194.024.243-.194.243-.34.024-.34.073-.607.582-.364-.194-.437-.315-.8-.485-1.262Zm23.922-50.78c-.437.049-.509.1-.461.582a19.318,19.318,0,0,1,.1,4.1c0,.121-.146.388.121.388s.121-.267.146-.412a.75.75,0,0,0-.049-.194,2.161,2.161,0,0,1-.049-1.043,7.013,7.013,0,0,0-.024-2.014c-.1-.412-.364-.946.218-1.407ZM223.613,166.6c-.146,0-.291,0-.364.146-.049.121.1.146.17.218a1.2,1.2,0,0,0,1.262.243c.1-.024.243-.024.218-.194,0-.121-.1-.194-.218-.218-.364-.073-.728-.146-1.068-.194h0Z" transform="translate(-162.624 -126.175)" fill="#030382"/>
      <path id="Path_247" data-name="Path 247" d="M348.1,445.406c.024-.073.024-.146.049-.218.1-.243.194-.534.509-.607a.374.374,0,0,1,.388.17c.17.291.024.534-.1.776s-.073.121-.1.17c-.121.146-.243.364-.437.315-.291-.1-.291-.364-.315-.607Z" transform="translate(-303.1 -367.326)" fill="#030382"/>
      <path id="Path_248" data-name="Path 248" d="M396.425,378.983a2.61,2.61,0,0,1,1.65.7.5.5,0,0,1,.17.607c-.1.267-.34.291-.558.267a2.432,2.432,0,0,1-1.626-.752.484.484,0,0,1-.17-.558A.46.46,0,0,1,396.425,378.983Z" transform="translate(-339.27 -317.643)" fill="#030382"/>
    </g>
  </g>
</svg>
