<svg xmlns="http://www.w3.org/2000/svg" width="391" height="205" viewBox="0 0 391 205">
  <g id="Group_449" data-name="Group 449" transform="translate(-986 -4037)">
    <rect id="Rectangle_57" data-name="Rectangle 57" width="391" height="205" transform="translate(986 4037)" fill="#e5f4ff"/>
    <g id="Layer_1-2" transform="translate(1078.886 4099.049)">
      <g id="Group_160" data-name="Group 160">
        <path id="Path_228" data-name="Path 228" d="M153.253,18.712c1.879-1.442,3.8-2.8,5.594-4.37,3.933-3.5,8.61-5.638,13.461-7.43.437-.175.874-.35,1.224.087.393.568-.044.961-.481,1.267-1.4.961-3.1,1.224-4.676,1.836-4.589,1.792-8.129,5.2-11.931,7.91.219.83.612.83.961.83,5.638,0,11.319,1.093,16.826-1.617,4.2-2.054,8.828-2.841,13.461-3.671,4.327-.743,8.566-1.792,12.281-4.283a5.869,5.869,0,0,1,1.18-.568c.568-.175,1.224-.393,1.53.306.306.656-.437.787-.787,1.093-4.37,4.108-9.746,5.944-15.471,7.08a65.509,65.509,0,0,0-10.4,2.491,6.36,6.36,0,0,0-2.841,1.486,4.061,4.061,0,0,0,.219.437c.524.612,2.141.481,1.661,1.53-.393.83-1.7.219-2.36-.175-1.792-1.049-3.453-.7-5.2,0-6.643,2.447-13.417,4.458-20.191,6.425A9.113,9.113,0,0,0,143.07,32.3a10.166,10.166,0,0,0,3.671-.087c8.7-.656,17.263-2.622,26.048-2.491,4.152,0,8.216,1.224,12.412,1.005.656,0,1.4.175,1.442,1.005,0,.83-.743,1.049-1.355,1.093a32.113,32.113,0,0,1-7.386,0,78.523,78.523,0,0,0-21.94.524c-3.54.524-7.08.787-10.62,1.18-.7.087-1.442,0-2.01.918,3.846,1.267,7.6,2.36,11.582,1.4,4.939-1.18,10.052-1.661,14.9-3.234.7-.219,1.967-.35,2.185.35.306,1.049-.874,1.355-1.7,1.573-3.453.961-7.124.568-10.533,1.792a10.752,10.752,0,0,0-2.666.961,11.445,11.445,0,0,1-7.954,2.447c-.612,0-1.486-.087-1.7.656-.175.787.7,1.005,1.224,1.311,5.2,3.016,10.839,3.54,16.651,2.841.568-.087,1.486-.612,1.617.35.087.743-.874.83-1.486,1.005-2.229.612-4.458.262-6.73,0-4.633-.481-9.047-1.53-12.849-4.414-1.093-.83-2.579-1.573-3.5-.219a3.474,3.474,0,0,0,0,4.283c4.239,4.895,8.828,9.309,15.3,11.1.524.131,1.4.131,1.18.918-.175.656-.961.437-1.53.35a21.425,21.425,0,0,1-10.139-5.288c-1.311-1.18-2.535-2.4-3.759-3.671-1.049-1.049-1.879-1.4-2.447.393-.743,2.273-3.365,4.2-2.622,6.512,1.093,3.365,3.89,5.9,6.25,8.566a14.462,14.462,0,0,0,1.486,1.311c.306.262.787.568.437,1.049-.306.393-.83.175-1.224-.044a9.975,9.975,0,0,1-3.627-3.1c-2.1-3.016-5.332-5.244-6.556-8.916-.131-.393-.393-.874-.874-.874s-.787.612-.918,1.093a20.022,20.022,0,0,0-1.4,6.6c-.044,2.666-3.147,4.807-5.55,3.715-2.753-1.224-4.764.481-6.905,1.53-.83.393-.524,1.4-.044,2.142a7.334,7.334,0,0,0,3.016,2.753c.437.219,1.136.393.874,1.049-.262.743-.962.437-1.53.306-1.573-.393-2.447-1.748-3.671-2.666-.962-.743-1.486-2.884-3.19-1.879-1.661.961-1.661,2.972-1.442,4.72a19.622,19.622,0,0,1,.175,2.8c.044,2.054-.961,2.1-2.273,1.311a4.539,4.539,0,0,0-4.589-.044c-.961.437-1.748.874-1.617,2.229.087,1.355-.83,1.53-1.923,1.093-.481-.175-1.049-.743-1.355-.568-3.059,1.4-3.409-1.136-4.283-2.841a6.579,6.579,0,0,0-.481-.961c-.568-.787-.83-2.229-1.879-2.185-1.18.044-1.4,1.442-1.748,2.491-.131.481-.262,1.136-.918,1.049-.787-.087-.787-.83-.656-1.355.481-1.792-.568-2.8-1.967-3.453-1.879-.874-2.884-2.928-4.895-3.584-.524-.175-1.093-.7-1.573-.131-.393.481.087.961.35,1.355C85.9,74.3,87,77.844,89.707,80.335c.481.437,1.005,1.093.306,1.661-.612.524-1.005-.219-1.442-.568a20.566,20.566,0,0,1-1.836-1.573c-1.005-1.005-1.967-2.491-2.447.306-.087.437-.743.83-1.049.568-1.967-1.7-3.584.7-5.463.35-.918-.175-1.836.612-1.093,1.923.219.393.481.83.087,1.18-.393.393-.83,0-1.136-.219-1.267-1.005-2.535-.787-3.89-.087-2.972,1.486-3.016,1.486-4.807-1.4-.087-.175-.306-.262-.481-.393-.612.306.175,1.093-.481,1.267-.524.131-.743-.35-1.005-.656-2.185-2.4-4.414-4.807-6.6-7.211A35.768,35.768,0,0,1,52.6,65.607c-.437,1.224.087,2.185.219,3.147.874,6.031,2.316,11.844,7.08,16.214a3.368,3.368,0,0,1,.612.918c.35.7,1.093,1.573.087,2.054-.787.393-.787-.787-1.093-1.311-1.879-3.016-4.283-5.813-5.376-9.222-1.4-4.37-3.278-8.785-2.1-13.548a1.271,1.271,0,0,0-.83-1.748,1.363,1.363,0,0,0-1.923.918c-1.093,3.977-2.622,7.91-1.661,12.15a2.822,2.822,0,0,1,.175.83c.087.524.087,1.093-.568,1.224s-.83-.437-1.005-.918c-.612-1.967-1.224-3.89-.7-5.987a1.878,1.878,0,0,0-.262-1.967c-.612,3.54-1.267,6.905-.83,10.227a28.4,28.4,0,0,0,3.715,11.582,9.224,9.224,0,0,1,1.093,4.851c0,1.7-.131.918-.7.918s-.568-.437-.612-.787c-.262-3.234-2.316-5.769-3.278-8.741a29.018,29.018,0,0,1,.393-19.23c.568-1.617,1.442-3.322,2.1-4.982.961-2.579,3.1-3.453,5.55-4.108-.524-.83-1.18-.568-1.7-.568-9.4.306-18.705,1.049-28.058,1.967-3.759.393-7.6.306-11.013,2.273a5.746,5.746,0,0,0-1.967,1.311c-4.021,5.332-8,10.751-8.26,17.875,0,1.53.568,2.928.918,5.026A7.329,7.329,0,0,1-.018,79.5c.393-6.206,3.1-11.669,6.293-16.826,1.923-3.1,5.419-4.283,8.916-4.939,10.052-1.879,20.191-2.447,30.374-3.1,3.19-.219,3.89-.7,4.2-3.19.787.35,0,1.442,1.049,1.748a4.522,4.522,0,0,0,0-3.54,6.884,6.884,0,0,1-.087-4.676c.612-3.059.83-6.206,1.617-9.222C55.355,24,62.7,16.44,74.192,12.55c7.386-2.491,14.9-4.5,22.333-6.862,11.45-3.627,21.721-2.01,30.287,6.905a32.065,32.065,0,0,1,3.671,4.021c.568.83,1.355,1.53,2.4,1.136,4.458-1.573,8.828-.175,13.155.437a7.028,7.028,0,0,0,7.473-3.059,77.455,77.455,0,0,1,6.818-8.785A40.762,40.762,0,0,1,168.068.706c.568-.35,1.311-1.093,1.879-.175.393.7-.437,1.136-.962,1.486A45.29,45.29,0,0,0,160.945,8.4c-3.016,3.059-4.807,7.08-8.129,9.877.175.175.306.35.437.481h0v-.044ZM55.836,50.529A27.473,27.473,0,0,1,57.147,40.39c2.884-9.309,8.216-16.52,17.831-19.667,3.8-1.267,7.692-2.142,11.582-3.19a8.177,8.177,0,0,1,4.108-.175c.787.175,1.967.306,2.185-.481.7-2.447,2.71-2.447,4.589-2.972a43.073,43.073,0,0,0,4.72-1.661c1.18-.481,1.7-1.486.481-2.273-1.923-1.267-3.89-3.147-6.381-.83a1.216,1.216,0,0,1-1.005.306c-3.671-1.093-6.73,1.224-10.139,1.7-4.982.7-9.528,3.059-14.335,4.545-6.6,2.01-11.363,6.512-14.685,12.325-4.2,7.342-5.07,15.515-4.5,23.862a3.831,3.831,0,0,0,2.71,3.584c1.267.481,1.967.524,1.748-1.18a34.68,34.68,0,0,1-.175-3.715h0Zm32.691,2.36a8.04,8.04,0,0,0-2.185-6.075,28.37,28.37,0,0,1-4.108-4.152c-.7-1.005-1.18-.83-2.054-.175-1.748,1.267-2.884,3.016-4.327,4.545-1.355,1.4-1.267,3.1.568,3.759a3.927,3.927,0,0,1,2.491,2.491c.568,1.311,1.748,2.622,2.972,2.491,1.18-.131,2.8,0,3.671-.83.656-.7-.393-1.836-.568-2.841-.087-.7-.219-1.355.612-1.617a1.415,1.415,0,0,1,1.661.743c.35.524.262,1.311,1.311,1.7h-.044Zm45.54-31.161a2.825,2.825,0,0,0,.524,2.1c1.224,1.18,1.005,4.37,4.064,3.147,1.836,2.185,3.1.262,4.327-.743a42.728,42.728,0,0,0,3.89-4.064c.918-1.005.83-1.661-.743-1.573a29.77,29.77,0,0,1-6.25-.7,11.474,11.474,0,0,0-4.72.306,1.248,1.248,0,0,0-1.093,1.53h0ZM76.027,57.653a23.268,23.268,0,0,1-.743-2.841,15.818,15.818,0,0,0-1.442-5.856c-.612-1.267-1.267-1.661-2.01-.131a4.053,4.053,0,0,1-1.661,1.661,2.8,2.8,0,0,0-.393,4.414,11.631,11.631,0,0,1,2.229,2.622c.481.83,1.224,1.267,1.7,0,.568-1.442,1.267-.612,2.273.087h.044ZM68.2,54.244h-.087a11.714,11.714,0,0,0-.087-1.748,3.281,3.281,0,0,0-3.977-2.447c-2.316.35-1.573,1.836-1.4,3.278.219,1.748,1.573,2.491,2.666,3.5.524.481.918,1.4,1.7,1.093.787-.262.961-1.267,1.18-2.01a7.408,7.408,0,0,0,0-1.7h0Zm37.1-7.648c.656-.743.393-1.573.656-2.229,1.224-3.016.787-5.07-1.442-7.3-.568-.524-1.093-1.355-2.01-.83-.961.568-.7,1.442-.35,2.316,1.049,2.622,2.054,5.2,3.147,8.042h0Zm21.983-31.86c-.918.568-.961,1.792-1.879,2.36-.437.262-1.879.219-1.005,1.311.7.83,1.311,2.316,2.928,1.442a12.77,12.77,0,0,0,1.617-1.049c.481-.35,1.486-.524,1.005-1.355a8.025,8.025,0,0,0-2.666-2.753h0Zm-67.741,36.1c-.743,0-1.136-1.224-1.923-.612-.83.656-.219,1.486,0,2.229a27.133,27.133,0,0,0,1.136,2.579,1.01,1.01,0,0,0,1.224.7c.568-.175.524-.612.437-1.049-.131-.612.35-1.093.437-1.661.219-1.442.568-2.928-.306-4.37-.961.568-.524,1.573-1.005,2.229h0Z" transform="translate(0.032 -0.09)" fill="#030382"/>
        <path id="Path_229" data-name="Path 229" d="M81.053,148.944a56.942,56.942,0,0,0-6.206,9.134,27.308,27.308,0,0,0-2.884,7.473,11.367,11.367,0,0,1-2.4,5.07c-.262.35-.568.787-1.049.568-.524-.262-.262-.787,0-1.136,1.661-2.229,2.01-4.939,2.8-7.517,1.224-3.977,6.206-11.232,9.746-13.636h0Z" transform="translate(-38.384 -83.864)" fill="#030382"/>
        <path id="Path_230" data-name="Path 230" d="M108.393,181.7c.393,1.005.787,2.01,1.224,2.972.962,2.185,1.836,4.414,3.584,6.206a8.933,8.933,0,0,1,2.142,5.157c0,.437,0,.961-.524,1.049a.721.721,0,0,1-.787-.612c-1.53-4.633-4.458-8.653-5.9-13.33a5.934,5.934,0,0,1-.131-1.267,1.553,1.553,0,0,0,.393-.175Z" transform="translate(-60.786 -102.329)" fill="#030382"/>
      </g>
    </g>
  </g>
</svg>
