<svg xmlns="http://www.w3.org/2000/svg" width="391" height="205" viewBox="0 0 391 205">
  <g id="Group_446" data-name="Group 446" transform="translate(-986 -3814)">
    <rect id="Rectangle_54" data-name="Rectangle 54" width="391" height="205" transform="translate(986 3814)" fill="#e5f4ff"/>
    <g id="Group_440" data-name="Group 440" transform="translate(203.583 -392.215)">
      <g id="Layer_2" transform="translate(882.904 4265.177)">
        <g id="Layer_1-2" transform="translate(0 0)">
          <path id="Path_265" data-name="Path 265" d="M68.151,63.007c2.33,1.6,4.788,1.468,7.023,2.2a6.8,6.8,0,0,1,4.086,8.906A3.972,3.972,0,0,1,75.3,75.9a9.2,9.2,0,0,1-3.447-1.6A62.592,62.592,0,0,1,61.1,63.71,4.658,4.658,0,0,0,58,61.954c-8.874-1.117-17.556-3.192-26.271-5.171-7.054-1.6-12.9-5.363-19.057-8.651-3.862-2.075-7.438-4.565-11.045-6.959C.671,40.535-.765,39.705.767,38.2c.447-.447,0-.766-.223-1.117-.766-1.245-.287-2.075.862-2.713,3.352-1.851,6.735-3.639,10.055-5.522a25.307,25.307,0,0,1,3.958-1.66c6.129-2.075,11.587-5.586,17.556-7.948,4.341-1.724,8.81-3.1,13.279-4.533,2.33-.734,4.341-1.66,5.618-3.958a24.278,24.278,0,0,1,4.245-5.171c1.6-1.6.734-.958,1.117-.319.766,1.309,1.5.543,2.2.064A47.061,47.061,0,0,0,64.257,1.4c.351-.287.638-.734,1.213-.7.383.511-.511,1.181.16,1.564.606.351,1.117-.192,1.6-.415A17.193,17.193,0,0,0,68.886.89c.543-.383,1.021-.8,1.021.383s.543.479.958.415A7.356,7.356,0,0,0,74.28-.1C74.408,1.528,75.3,1.336,76.291.953,76.9.73,77.472.475,78.079.219c.255-.1.67-.192.7.064.1,2.33,1.4.67,2.107.606.67-.064,1.085-.734,1.724.351.479.8,1.66.064,2.49-.223.511-.16.99-.734,1.149.447s.99.255,1.436.128c.67-.223,1.373-1.117,1.819.255.032.1.287.192.415.192,1.149,0,2.234-1.021,3.511.223.319.319,1.915-.511,2.681.638.16.255.734.16,1.053-.032.638-.383,1.245-.7,1.628.287a.515.515,0,0,0,.415.192c1.117-.255,2.266-.958,3.224.351,3.511-.447,7.054-.16,10.566-.766a19.956,19.956,0,0,1,3.1,0c-.67.958-1.6.958-2.139,1.468-.255.255-.7.447-.415.862.287.447.638.192.958-.064.7-.543,1.628-.99,2.011-1.724.319-.606.543-.575,1.021-.575s1.277-.1,1.6.479c.351.67-.383.99-.7,1.436-.223.287-.638.415-.638,1.021a5.77,5.77,0,0,0,2.522-2.011c.351-.447.7-.926,1.309-.67,1.819.766,3.83.83,5.682,1.4,1.245.383,1.149.862.287,1.564a4.253,4.253,0,0,0-1.915,2.33A6.518,6.518,0,0,0,128.609,5.9a1.56,1.56,0,0,1,2.011-.7c3.99.926,8.012,1.724,11.906,3,3.128,1.021,5.554,2.841,6.225,6.288.383,2.011-.83,5.873-3.639,6.767-3,.926-6,1.851-8.97,2.873-1.021.351-2.681.479-2.713,1.532s1.628,1.021,2.618,1.309C144.6,29.618,153,29.746,161.36,25.82a64.734,64.734,0,0,1,15.928-5.043,11.012,11.012,0,0,1,5.841.255c.479.16,1.117.383,1.085.99s-.67.575-1.085.766a10.972,10.972,0,0,0-2.107,1.085c1.373-.479,2.713.1,4.022.064.766,0,.83.287.511.862-.191.351-.383.734-.575,1.117.575.447,1.277-.16,1.947.383-3.511,1.851-7.278,2.873-10.981,4.086a2.165,2.165,0,0,0,1.883,0c2.426-1.277,5.2-1.436,7.661-2.649.319-.16.83-.606.862.255,0,.447.83,1.053-.223,1.4-.415.128-.926.128-1.245.606.926.255,1.628-.575,2.522-.351.128.511-.16.638-.575.7-.255,0-.638,0-.319.447,1.245,1.532-.543,1.085-.99,1.6h2.426c-1.724-.1-1.373,1.66-2.043,2.426a2.5,2.5,0,0,1-2.458.83c-4.022-.223-7.821.958-11.651,1.851a49.919,49.919,0,0,0,9-.766c2.873-.543,5.905-.319,9-.447.064.383.16,1.181.319,2.394-1.245-2.075-2.2-1.756-3.256-.319-.351.479-1.117.223-1.692.287a6.435,6.435,0,0,0-2.681.287H186.9v.479h-5.778l-.064.638a6.165,6.165,0,0,0,2.011.128c2.011-.447,4.022,0,6.033-.128.447,0,.894-.128.862.543,0,.575-.447.575-.8.511-1.756-.383-2.33,2.043-4.086,1.788l1.085.223c-.1.511-.67.351-.862.7.479.223.543.415.511,1.053,0,.415.383.479.607.638.479.319,1.149,0,1.564.543-.223.511-.606.319-.958.319-.7,0-1.628-.287-.606,1.021.894,1.149-1.181.67-.894,1.628,1.181-.032-.191,2.043,1.468,1.947-.7.415-1.181-.064-1.788-.064,0,.479.83.447.575.894-.319.575-.862-.064-1.373.16.926,1.436.83,2.618-.926,3.32-.67.287-.319.7.064.958.99.638.511,1.181,0,1.819a4.175,4.175,0,0,1-3.288,1.309c-3.735.223-7.246-.8-10.757-1.947-4.6-1.532-8.97-3.639-13.5-5.3a26.869,26.869,0,0,0-12.1-1.213c-.99.1-1.947.223-3.192.383,1.277,1.436,2.873,2.011,3.83,3.447,1.756,2.649,1.947,4.469.351,7.182a2.058,2.058,0,0,1-.958.766c-2.618,1.149-5.171,2.426-7.853,3.352a17.731,17.731,0,0,1-5.171.862c-4.533.16-9.1.479-13.662.192-3.256-.223-6.576.16-9.864.255-1.947.064-3.767-.766-5.778-.543-3.192.319-4.214-2.33-5.49-4.469a1.957,1.957,0,0,0-2.394-1.149A113.732,113.732,0,0,1,76.291,63.1c-2.586.064-5.2-.223-8.172-.128h0ZM50.978,30.672c.128,1.085-.479,1.564-1.436,1.724a23.132,23.132,0,0,0-5.65,2.394,1.052,1.052,0,0,0-.638,1.117c2.841-1.532,5.778-2.234,8.651-3.224a6.408,6.408,0,0,1,1.564-.255c.447,0,.575.415.7.766s-.064.447-.383.543c-1.628.575-3.256,1.213-4.916,1.724a16.543,16.543,0,0,0-4.022,1.883c-.734.511-1.436,1.053-1.149,2.2.511,1.883,1.724,2.522,3.575,1.756a6.1,6.1,0,0,1,4.5-.447A12.91,12.91,0,0,1,43.7,43.568c.862.223,1.468,1.021,2.362.958,3.064-.255,5.873-1.053,7.342-4.6.606-1.468,1.213-2.9,1.692-4.437.67-2.107-.032-3.7-2.139-4.373-.67-.223-1.341-.319-2.011-.479a15.058,15.058,0,0,1,1.564-2.586,5.035,5.035,0,0,0,.83-5.49c-.16.7-1.245.926-.447,1.788.192.192.192.447-.1.479-1.181.16-1.117,1.085-1.213,1.915-.032.447-.255.7-.7.638-.415-.064-.447-.415-.383-.734.255-.894-.192-1.245-.99-1.436-.415-.1-.926-.319-.862-.958.575-.287,1.4.83,1.788-.223.192-.575-.447-.894-.83-1.277-.862-.862-1.4.766-2.2.255a.817.817,0,0,0,.1,1.021c1.213,1.053.223,2.043.064,3.128-.447-.16-.192-.415-.255-.575-.415-1.053.032-2.777-1.979-2.617a7.321,7.321,0,0,0-.894.287c-.7.16-1.213.1-.958-.862.064-.287.128-.638-.447-1.213.319,1.277-1.468.894-1.085,1.851.575,1.436-.8,2.234-.862,3.416a.43.43,0,0,1-.447.415h-.128c-.223-.064-.415-.287-.319-.479,1.149-1.692.192-2.011-1.277-2.107-.255,0-.319-.606-.894-.319,1.373,1.373-.1,1.947-.766,2.841-.575-.415-.223-2.107-1.628-1.085-.351.255,0,.958-.606,1.021-.766.064-.351-.575-.479-.894-.1-.223-.383-.1-.575,0-.734.479-2.011.351-1.947,1.788a.772.772,0,0,1-.83.766c.192-.894.67-2.107-1.085-1.277a.981.981,0,0,1-1.373-.255c-.255-.415-.67.064-.894.351a.426.426,0,0,0,0,.638.323.323,0,0,0,.223.128c1.436.575,2.075,2.043,3.479,2.777.99.511,1.117-.7,1.756-.383,1.564.862,3.575.287,4.948,1.756a2.076,2.076,0,0,0-.543-.862c-.192-.223-.575-.351-.319-.766a.8.8,0,0,1,.926-.447c.862.255,1.819,1.053,2.426-.383a.5.5,0,0,1,.415.128c.83,1.117,1.4-.1,2.075-.223.255.383-.319,1.213.383,1.149.862-.064.032-.7.1-1.085.128-.7.575-1.021,1.245-.734.319.128.511.511.926.575.543-1.4,1.149-1.564,2.522-.67a.891.891,0,0,0,.575.192c.319-.064.351-.383.287-.638a5.194,5.194,0,0,0-.415-1.181c-.223-.415-.383-.862.16-1.053.607-.223.351.511.607.7.894.766.064,2.33,1.373,2.873h.032ZM7.885,39.29c1.021.606.734,1.149-.128,1.6a20.344,20.344,0,0,1-1.947.734c-.99.415-1.149.926-.1,1.5s2.139,1.213,3.16,1.851c.7.447,1.277,1.149,2.266.543.255-.16.7-.032.575.415-.192.67.287.83.7,1.053,2.777,1.532,5.618,2.969,8.3,4.66,1.468.926,2.522,1.149,3.671-.287a.568.568,0,0,1,.766-.192l.1.1a3.951,3.951,0,0,1-1.213,1.6c1.117.415,1.373-.7,1.979-1.149.638.543-.064,1.149.255,1.66.383-.319.351-1.085,1.085-.99,0,.926.192.606.862.926.606.287,1.468-.67,1.66.383.064.383,0,.734.415.83.16.032.383-.128.543-.287.287-.319.606-.958.319-1.117-.926-.511-.7-1.436-.99-2.171-.128-.319-.351-.734-.638-.606-1.021.479-1.883-.319-2.809-.287-2.043.064-3.735-1.053-5.65-1.4-.319-.064-.862-.192-.766-.766.415-.192.734.032,1.085.1a54.619,54.619,0,0,0,8.2,1.181c2.777.128,5.905-4.277,4.884-6.863-.1-.255-.287-.511-.575-.479-.447.064-.351.415-.319.734.1.606.319,1.213-.447,1.883.479-1.468-1.053-1.6-1.309-2.49-.223-.766-.192-1.66-1.213-1.819s-1.149.862-1.692,1.277c.319.575,1.5.447,1.053,1.021-.766,1.053-.8,2.554-1.915,3.384-.383-.319-.128-.543,0-.766.128-.351.319-.766-.128-.99a.713.713,0,0,0-.99.223c-.575,1.213-1.5,1.245-2.618.894a2.14,2.14,0,0,0-1.373.319c-.447.192-.99.415-1.373-.16.319-.7,1.6-.67,1.5-1.021-.447-1.468.862-.99,1.341-1.4.575-.447,1.245-.894,1.245-1.724a2.645,2.645,0,0,0-1.213-1.979c-2.586-.415-4.98-1.819-7.757-1.213a22,22,0,0,1-8.172.287c-1.5-.255-.926.383-.606,1.021a1.453,1.453,0,0,1-1.245-.862,7.643,7.643,0,0,0-3.639-2.937c-.606-.287-1.4-.543-1.851.192s.064,1.4.7,1.851a13.293,13.293,0,0,0,4.948,2.075c.447.1.862.16,1.117-.319H7.885Zm57.2-11.4c-1.851-.926-2.139-2.649-2.266-4.469,0-.351.287-.8-.16-.99-.543-.255-.734.319-.926.638a11.246,11.246,0,0,0-.479,1.341c-.16.383-.192,1.213-.8.862-.447-.287-1.277-1.213-.8-1.564.766-.575.223-.862.032-1.213-.128-.255-.415-.575-.766-.351-.383.255-.894.766-.734,1.149.511,1.277-.575,2.171-.638,3.288-.032.415-.223.83.16,1.149,1.277,1.053,2.043,2.266,1.6,4.022a1.285,1.285,0,0,0,.16.766c.223.447.83.862,1.085.575.351-.383.351-.734.83-.192.319.351.83.67.415,1.181-.638.8.223,1.053.383,1.724a2.835,2.835,0,0,0,.894-1.819,1.447,1.447,0,0,1,.7-1.149c.351-.255.638-.575,1.117-.192s.223.638-.064,1.021a4.835,4.835,0,0,0-.67,1.564c-.064.223.223.575.415.83.128.192.223,0,.319-.128.543-.734,1.692-1.021,1.564-2.3-.032-.351.575-1.181.894-.7.479.734,2.394,1.341.67,2.713a.781.781,0,0,0-.16.958A2.5,2.5,0,0,0,69.4,34.151c0-1.117,1.021-.926,1.532-1.245.447-.255.575.734.862.958,1.085.894-.511,1.4-.192,2.107a4.735,4.735,0,0,0,1.628-1.947c.287-.479.638-.926,1.213-.926s.638.511.734.894c.064.319.192.67.575.606s.351-.479.255-.8c-.287-.99.383-1.021.958-.862a1.55,1.55,0,0,1,.351,2.458c-.606.511-.1.958-.1,1.468s.1.479.351.447c.511-.064.67-.543.734-.926.128-.606.67-1.213.351-1.819-.606-1.181.447-1.117.958-1.309.83-.255.926.319,1.149,1.021.287.99-.606,2.49,1.085,3,.1,0,.064.511.1.766-.255.83.415.734.894,1.085,0-.606-.223-1.021.032-1.4,1.085-1.053.511-2.394.638-3.639.064-.7.1-1.436.926-1.628.479-.1,2.171,1.628,2.107,2.139a2.373,2.373,0,0,0,1.053,2.139c.67.511.638-.8,1.245-.894.192,0,.415-.064.575.16,0,.415-.766.479-.447,1.053A3.87,3.87,0,0,0,93.4,38.364c.511-.223.862-.255.958.287.223,1.309.83.958,1.436.383a4.086,4.086,0,0,1,4.245-.99c.511.128,1.021.734,1.6.128,1.277-.99.8.766,1.4.894-.064.319.128.638.383.415.926-.83,1.5,0,2.2.319.638.255.638,1.085,1.277,1.341.351-.447-.032-.83-.032-1.213s.192-.926.734-.543c.958.734,1.947.255,2.937.192.128,0,.223-.16.479-.319l-1.373-.511.447-.447c1.341.255,1.6,0,1.117-1.277-.319-.862-1.053-1.6-1.085-2.586,0-.351-.223-.734.032-1.053a.607.607,0,0,1,.575,0c.543.255.1.638.064.958a2.523,2.523,0,0,0,2.426,2.49,6.194,6.194,0,0,1-.16,1.564c-.511,1.341.575,1.341,1.117,1.117.99-.415,1.436-.255,1.788.734.1.287.543.511.862.67a.471.471,0,0,0,.67-.223h0c.192-.543-.255-.287-.447-.351-.83-.319-.351-.766-.032-1.053a2.581,2.581,0,0,1,2.2-.575c-.16.67-1.149.128-1.149,1.021,1.277.638,1.979-.319,2.713-1.085.255-.255.447-.862.8-.415,1.277,1.6,2.3.894,3.352-.192a.58.58,0,0,1,.734-.064c.351.638-.958,1.213-.16,1.788.383.255.862.83,1.4.479a1.973,1.973,0,0,0,.638-1.883c-.064-1.532.192-2.681,2.426-2.139A1.907,1.907,0,0,0,128.929,39c1.532-.415,2.2-2.3,3.99-2.33-.1.67-.67.766-.958,1.149s-.319.958,0,.958c1.277,0,2.107,1.4,3.447,1.117a2.541,2.541,0,0,1,3.064,1.213c.479-.8.1-1.756,1.117-2.266,1.341-.7,1.4-1.883.351-3.224-.192.606-.447,1.181-.607,1.788a.808.808,0,0,1-1.117.575c-.606-.16-.223-.575-.1-.894a1.158,1.158,0,0,0-.447-1.564c-.16.67-.958.7-1.117,1.277a1.508,1.508,0,0,1-1.6,1.245c.958-.99.223-1.6-.319-2.011-.67-.543-1.979-.223-2.043-1.628,0-.255-.479.16-.7.351-.319.287-.575.128-.8-.128a.426.426,0,0,1,0-.638s.064-.064.1-.064c.958-.734.638-1.947,1.4-2.9-.99.192-1.277,1.436-2.266.83-.128-.064-.383,0-.319.192.1.351.351.766-.287.8-.415,0-.447-.543-.7-.766-.575-.479-1.309-.83-1.724.192-.447,1.085-1.564,1.373-2.2.383s-.766-2.49-2.49-1.277a.628.628,0,0,1-.255-.128c-.8-.638-1.373-.606-2.139.223-.223.223-.351.543-.862.447l.926-2.394c-.83.479-1.628.255-1.915,1.181-.192.7-.67.7-1.213.192a3.969,3.969,0,0,1-1.5-2.011c-.032-.255,0-.575-.383-.606s-.926.606-1.117-.223c-.16-.7.351-1.085.894-1.341.383-.192.734-.319.415-.766a.726.726,0,0,0-.99-.223c-.447.223-.606.67-.862,1.085-.67,1.213-2.777,1.947-3.32,1.149-.83-1.149-1.692-.383-2.394-.128-.734.255-.192,1.117-.223,1.724,0,.287.734.511.128.894a1.068,1.068,0,0,1-.766.064c-.383-.1-.766-.447-.511-.83.606-.926-1.149-1.692-.1-2.618.128-.128-.287-.192-.447-.319-.255-.223-.383-.223-.543.16a2.9,2.9,0,0,0-.287,1.979c.255.766-.1.958-.7,1.053-.894.16-.67-.543-.575-.926a3.253,3.253,0,0,0-.99-3.192l-1.66,1.436c-1.277-1.277,1.053-1.053.862-2.075a2.665,2.665,0,0,1-2.139-.351c-1.213-.638-1.6-.383-1.468.958.032.415-.255.8-.383.734-.894-.543-1.149.351-1.692.638a.751.751,0,0,1-1.117-.192c-.192-.319.128-.606.447-.7,1.277-.383,1.468-1.66,2.33-2.586-1.149.287-2.33,0-2.937.926-.192.319.16.958-.67.926a1.72,1.72,0,0,0-1.6,1.149c-.287.766,1.053.319,1.053,1.053-1.277.415-1.883.064-1.819-1.373,0-.575.351-1.468-.383-1.724s-.894.766-1.341,1.181c-1.085.99.8.862.7,1.532-1.532.447-1.66.894-.511,2.266.383.447.638.958.032,1.085-1.021.192-.926-1.373-1.947-1.532-.351-.064,0-.543.16-.766a3.223,3.223,0,0,0,.415-3.16c-.16-.383-.319-.862-.766-.958-.638-.16-.383.479-.575.734-.351.383-.67.83-.16,1.373.192.192.734.1.511.575-1.628.447-1.628-.575-1.564-1.66,0-.638.032-1.436-.7-1.628-.862-.223-1.021.766-1.4,1.245-.7.862.575.99.862,1.628-2.586,0-1.436,1.756-1.277,3.064a5.814,5.814,0,0,0-1.883-1.085c.319-.67.638-1.341.926-2.011a2.225,2.225,0,0,0-.7-2.9c-.351.958-1.66,1.851.383,2.649-1.532-.1-2.745-.064-2.841,1.692,0,.447-.511.287-.766.255-.383-.064-.319-.383-.223-.606A1.35,1.35,0,0,0,78.4,25.6c.447-.287.894-.447,1.085-.734a1.129,1.129,0,0,0-.192-1.341c-.192-.255-.447-.223-.67,0-.8.606-1.341,3.735-.8,4.629a3.143,3.143,0,0,1,.192,2.777c.447-1.915-2.586-2.745-1.468-4.884.032-.064-.128-.287-.255-.351-.638-.319-.511-.511.032-.8.351-.192.734-.638.192-1.021a.756.756,0,0,0-1.053.1.223.223,0,0,0-.064.128,8.282,8.282,0,0,0-1.053,2.3,1.546,1.546,0,0,1-1.724,1.468c.894-.958.8-2.2,1.053-3.352.192-.8,0-1.692-.83-1.756s-1.213.766-1.213,1.6.128.606-.1.99c-1.021,1.66-.83,2.075,1.117,2.522.1,3,0,3.256-1.341,4.086a2.336,2.336,0,0,1,.223-1.532,2.318,2.318,0,0,0-.223-2.139c-.255-.351-.511-.894-1.085-.83-.479.064-.511.606-.67.99-.223.543-.319,1.181-1.085,1.532.192-1.021.319-1.851-.543-2.458-.734-.543-1.149.192-1.724.383.064-1.277,1.883-3-.99-3.447.319-.543.734-.383,1.085-.415.575-.064.543-.447.415-.83s-.415-.766-.83-.383c-.638.575-1.468.862-1.883,1.851-.606,1.468.638,2.171,1.021,3.256h.064Zm73.258,21.93c1.4-1.085,1.373-2.011-.128-2.809.447-.511.862-.862,1.373-.1.16.255.351.606.734.383a.5.5,0,0,0,.192-.383c0-.383-.319-.511-.575-.67-1.277-.766-2.618,0-3.639.351-1.66.638-2.234-.511-3.256-1.149-.223.287-.479.638-.7.99-.734,1.085-1.373,2.394-2.9.894-.351-.351-.7.032-.958.287s-.67.734-1.053,1.149a4.183,4.183,0,0,0-1.245-2.362c-.575.192-.606,1.341-1.628.766a4.229,4.229,0,0,1-1.915-1.468,4.28,4.28,0,0,1-.575,2.522c-.67-1.66-2.075-1.66-3.192-.255-1.4-.479-2.3-1.373-1.979-3.064-1.341.958-.064,2.362-1.053,3.352a1.541,1.541,0,0,0-1.819-1.021c-1.468.255-2.9.575-4.309-.287-.287-.192-.447.1-.67.223a7.187,7.187,0,0,1-4.118.319c-1.436-.511-2.139-.128-2.49,1.373-.064.255-.032.543-.415.543-.192-1.756-.223-1.851-.766-1.947-.734-.16-1.085.287-1.564.8-.255.255-.319-1.213-1.309-.8a3.832,3.832,0,0,1-2.873.351c-1.277-.415-2.075.543-2.554,1.883-.287-.894,0-1.628-.351-2.266a3.632,3.632,0,0,1-3.639.16c-1.564-.766-1.4.575-1.756,1.468-.287-1.724-.319-1.851-1.979-1.788-1.277.032-2.586-.351-3.83.128a.738.738,0,0,1-.958-.351c-.128-.192-.16-.415.1-.511,1.819-.766,1.053-2.139.766-3.384-.1-.383-.16-.766-.638-.766s-.287.064-.383.192c-.223.415.1.638.351.926a1.5,1.5,0,0,1-.447,2.522A2.5,2.5,0,0,0,78.749,48.1a5.211,5.211,0,0,1-1.117,2.618c-1.277,1.373-1.117,2.681-.16,4.118.128.192.606.319.319.734-.67,0-.8-.511-.99-.926-.543-1.277-1.277-1.245-2.2-.447a4.607,4.607,0,0,1-1.532,1.117c-1.117.319-2.394.287-1.979,2.33-1.532-2.075-2.49-2.2-3.99-.606-.287-.67-.606-1.277-1.4-1.341A29.028,29.028,0,0,1,59.5,54.548c-.7-.192-1.245-.287-1.021.83a1.546,1.546,0,0,1-.7,1.947c.255-1.564.319-2.873-1.5-3.224-.575-.1-.447-.766-.575-1.213-.575-2.266-1.245-4.533-3.288-6-.351-.255-.638-.606-1.117-.511-.766.16-2.586,2.586-2.586,3.479h0c-.99-.192-.734.575-.862,1.085-.128.479-.383,1.5-.638,1.213-1.4-1.692-1.245.479-1.468.67-.575.543-.734,1.564-2.011,1.373,1.021.415,2.171.447,2.075,1.915,0,.351.575.192.894-.064s.223-.862,1.053-.734l-1.979,3.032c.734.128,1.6-.734,1.915.543.128.511.638,0,.7-.479.064-.383-.128-.926.479-1.021.543-.1.67.447.926.766a3.421,3.421,0,0,0,2.841,1.756c1.309,0,.83.192.766-.415-.032-.447-.383-.575-.83-.511-.383.064-.83.543-1.341-.128a2.691,2.691,0,0,0,2.171-1.6c.128-.383.351-.447.734-.319s.543.223.511.67a9.481,9.481,0,0,0,2.043,2.745c1.341.575,1.915.319,2.2-1.213.192-1.117.606-1.564,1.819-.926-1.021.67-1.819,1.341-.606,2.458a1.85,1.85,0,0,0,1.6.511,3.311,3.311,0,0,1,2.649.543,2.075,2.075,0,0,0,2.139.255c.8-.383-.128-1.149.351-1.851.575,1.883,1.851,2.043,3.479,2.171,1.309.1,2.586-.415,3.862,0,1.532.479,1.915.16,1.819-1.5a2.7,2.7,0,0,0,2.171-.064c.83-.192,1.915-.223,2.075.766.223,1.149.926.67,1.436.67s1.341.287,1.309-.83c-.032-1.085,1.053-.128,1.4-.67.1-.128.543-.064.415.192-.447.734-.064.83.511.766s1.245.064,1.181-.862c-.032-.606.511-.543.8-.511.8.064.223.447.1.7-.16.383.032.415.351.479,1.436.223,3.447-1.4,3.32-2.873-.1-1.149.511-1.277,1.373-1.66-.1.351-.064.511-.16.543a1.268,1.268,0,0,0-.255,2.043c.383.415.67,1.277,1.468.926.926-.383.734-1.309.734-2.107a3.076,3.076,0,0,1,0-.766.669.669,0,0,1,.479-.351c.383-.064.383.223.351.511-.032.415-.064.862-.064,1.277s.1.862.638.958a1.1,1.1,0,0,0,1.117-.479,2.33,2.33,0,0,0,.351-1.373c0-.415-.351-1.053.511-1.021.319,0,.7-.255.894.1a.967.967,0,0,1-.319,1.277c-.319.223-.7.383-.447.862s.734.383,1.149.351c.958-.1,1.085-.894,1.213-1.628.064-.383-.192-.83.192-1.213,1.66-1.564,1.724-2.3.415-3.958a.672.672,0,0,1-.223-.7c.1-.223.287-.383.511-.287,1.6.638,3.671-.543,4.788,1.245l-.99,1.181-.1-.128c-.383-.511-.319-1.468-1.309-1.309s-.766,1.117-.99,1.724c-.479,1.373-.128,3-1.468,4.405,1.436-.255,2.49-.319,2.107-1.947-.255-1.053,1.053-1.149,1.532-1.819.415-.543.766.128,1.053.479.543.7.894.511,1.213-.255a1.628,1.628,0,0,0,0-1.66c-.447-.766-.064-1.181.638-1.213,1.181-.064,1.213-.8,1.149-1.66-.032-.511-.128-1.053-.192-1.564l.415-.16a6.168,6.168,0,0,0,2.234,3.99c1.4.99,2.777,2.075,4.565,2.234.862.1,1.756-.16,1.532-1.4l.1-.064a3.117,3.117,0,0,0,.575.543,1.873,1.873,0,0,0,2.458-.351c.638-.67-.064-1.213-.638-1.66s-.638-.479-.192-.926c.7.255.926,1.564,2.043.99.926-.447.415-1.724,1.373-2.2.032.223.064.415.1.606.383,2.586,1.341,3,3.384,1.436.192-.16.351-.223.543-.128.447.223,1.117.766,1.277,0a2.73,2.73,0,0,0,.128-1.692c-.128-.319-.543-.543-.351-.99.511.1,1.085.415,1.053.8-.16,1.5.894,1.373,2.043,1.564-.575-.67-.447-1.756,0-1.564.926.383,1.117-.575,1.724-.606,0,.7-.926,1.149-.447,1.66s1.085-.064,1.564-.351.511.479.83.064c0-.575-.8-.83-.7-1.724.7.958,1.66-.67,2.362.447.128.766,0,1.819.447,2.266a17.142,17.142,0,0,0,6.895,4.341,26.98,26.98,0,0,0-5.171-4.6c-1.245-.8-.99-1.213-.319-2.011h.1ZM36.614,47.781c.862-.99,1.724-2.043,1.021-2.745-.606-.575-1.181-1.468-2.043-1.724-1.053,1.883-.83,4.15-2.33,5.778-.192.192-.128.606-.128.926,0,.83.7,1.724-.638,2.3-.287.128-.479,1.245-.064,1.883a.923.923,0,0,0,.479.383.307.307,0,0,0,.415-.192v-.16c-.415-1.979,1.724-1.979,2.426-3.543.255,1.628,1.341,2.075,2.139,2.777.287.255.415.415.734.064a6.972,6.972,0,0,0,1.724-4.405c0-1.788-.351-3.447,1.851-4.852-3.479,1.117-3.352,1.117-3.416,4.118,0,1.341.128,2.9-.894,4.277-.543-1.341-.8-2.3.223-3.479.958-1.117-.16-1.436-1.564-1.436h.064ZM145.368,41.11c.894-.287,1.628-.734,2.234-.479a8.625,8.625,0,0,0,4.565.543c.415-.032.638-.192.606-.543-.128-.99.383-1.373,1.213-1.851s.7-1.468.192-2.266c-.192-.319-.479-.543-.67-.862a.623.623,0,0,1,.1-.734c.287-.255.447,0,.67.16,1.117.766,1.468.575,1.883-1.181-.67.67-1.117.926-1.851.128-.638-.67-1.5-1.692-2.745-.766-.16.128-.638-.16-.766.287-.1.351.287.351.479.511.99.766,1.021,1.66-.16,2.139-.926.351-.862.766-.351,1.341-.99.479-1.692-1.021-2.266-.383-1.053,1.181-2.586,2.011-3.1,3.99h0ZM20.653,29.3c-1.213-.192-2.362.351-3.607.128a9.825,9.825,0,0,0-7.533,1.5c-.351.223-.894.415-.83.862.1.543.734.447,1.149.638,1.788.83,3.671.351,5.49.543A4.839,4.839,0,0,0,20.653,29.3Zm96.816,26.462c-1.436-.032-2.075.7-1.341,1.851,1.213,1.915,2.522,3.8,4.98,4.277a.847.847,0,0,1,.734.7c.064.351-.319,1.021.447.862s.383-.8.16-1.149c-1.341-2.075-2.745-4.15-4.118-6.225a.852.852,0,0,0-.83-.351h0Zm.862,7.406c-.894-2.139-2.745-3.575-4.022-5.427a1.637,1.637,0,0,0-2.617-.319c-.926.83.255,1.373.734,1.819,1.181,1.085,2.011,2.49,3.735,3.1.638.223.99,1.373,2.2.83h0Zm-3.16,2.266a49.545,49.545,0,0,0-5.458-6.863c-.319-.351-.8-.543-1.085-.1s-.862.99-.319,1.692a20.456,20.456,0,0,0,6.831,5.267Zm5.905-10.342c-.351.128-.766.16-.926.543s.128.7.415.958a3.158,3.158,0,0,1,.862.862c1.277,2.426,3.416,4.118,5.139,6.193a.673.673,0,0,0,.958.16h0c.511-.351,0-.638-.223-.862a45.193,45.193,0,0,1-5.2-7.054c-.255-.415-.447-.862-1.053-.8h0ZM58.448,11.04a2.1,2.1,0,0,0,2.266-.926A34.728,34.728,0,0,1,65.374,4.4c.287-.319,1.085-.67.255-1.213-.543-.351-1.021-.638-1.628.064C62.757,4.624,62.47,6.731,60.65,7.625a.546.546,0,0,0-.223.415c.383,1.341-.543,1.66-1.468,2.043a.9.9,0,0,0-.447.926h-.064Zm72.045,50.275-4.948-6.448a1.255,1.255,0,0,0-1.117-.511c-.7,0-1.085.383-.67.99,1.692,2.522,3.543,4.948,6.7,5.969ZM29.5,34.342c-.638.351-1.053,0-1.532,0a.682.682,0,0,0-.7.67h0a2.452,2.452,0,0,0,.575,1.6.492.492,0,0,0,.67,0h0c1.851-1.883,1.915-5.171,0-6.767-.447-.383-1.021-.83-1.564-.575-.479.223-.543.926-.447,1.468.766.192.862-.862,1.564-.606-.862,2.394-.766,2.681,1.4,4.214h0Zm103.87,25.281a34.343,34.343,0,0,0-4.405-5.81c-.479-.543-1.213-.192-1.788,0-.351.128-.1.447.064.67,1.692,2.171,3.32,4.373,6.161,5.139h-.032ZM79.579,2.23c-.926-.1-1.724-.926-2.426,0-.543.67-1.788,1.213-.894,2.49.255.351.1.8-.479.606-1.819-.543-2.107.99-2.873,1.915a1.847,1.847,0,0,0,2.777-.606c1.021-1.341,2.33-2.394,3.447-3.607a6.6,6.6,0,0,0,.479-.8h0Zm61.416,56.181a8.166,8.166,0,0,0-.351-.766c-1.564-1.724-3.352-3.192-4.756-5.075a1.134,1.134,0,0,0-.511-.351,1.107,1.107,0,0,0-1.213.064c-.415.447.1.766.351,1.021,1.819,1.979,3.32,4.437,6.48,5.075h0Zm11.875-12c.926,1.468,3.064,2.234,4.341,1.6,1.117-.575.415-1.724.638-2.586.16-.543-.192-.99-.575-.926-1.085.192-1.883-.447-2.873-.67a10.889,10.889,0,0,1,1.692,2.522c-1.117-.319-2.043.223-3.224.064h0ZM70.769,2.773C68.981,1.656,67.7,2.8,67.194,4.082c-.543,1.4-1.756,1.979-2.522,3.032-.064.1-.128.16-.192.255-.16.223-.351.479-.064.67.192.128.606.287.734.192,1.085-.8,2.841-1.053,2.617-3-.032-.287.064-.415.287-.415C69.684,4.943,70,3.443,70.769,2.773Zm60.873,49.8a1.869,1.869,0,0,0-.543.319.715.715,0,0,0,.1,1.021,47,47,0,0,0,5.2,5.778c.287.223.606.575.958.255.415-.383-.1-.67-.287-.926a37.241,37.241,0,0,1-4.5-5.937.88.88,0,0,0-.894-.511h0Zm7.98-12.8a.773.773,0,0,0,.862.383c.894-.479,1.6.192,2.394.351.7.128,1.436.67,1.979-.192a1.693,1.693,0,0,0-.287-2.043c-.638-.862-1.66-.7-2.554-.894-.255,1.341-1.756,1.5-2.394,2.426h0Zm-79.8,9.9H72.972c-4.054-1.724-8.651-.894-13.183,0ZM41.115,52.6c0-1.213,1.819-1.373,1.628-2.266-.287-1.309.223-2.49.128-3.7-.032-.415-.192-.894-.7-.958s-.766.351-.926.766c-.128.351-.383.8-.287,1.053.734,1.692-.319,3.384.16,5.139h0ZM56.309,24.256A3.019,3.019,0,0,0,54.585,27c.032.543.1,1.213.575,1.4.67.287.83-.511,1.085-.894a3.589,3.589,0,0,0,.606-3c-.479-1.947-.415-1.979-1.788-.766-.064.064-.032.16-.064.319l1.309.16h0Zm20.653-6.608c-1.117,1.947-1.149,1.979-3.032.958-.479-.255-.766,0-1.149,0-.287,0-.7-.128-.606.383A.6.6,0,0,0,73,19.5c1.564-.734,1.564.606,1.915,1.436.128.319-.415.734.128,1.213a7.3,7.3,0,0,0,.255-.894c.223-1.756,1.309-2.3,2.617-1.245.67.575,1.021.383.99-.319,0-.606.447-.862.83-1.692-1.277,1.085-1.979.415-2.713-.415Z" transform="translate(-0.095 0.1)" fill="#030382"/>
          <path id="Path_266" data-name="Path 266" d="M465.7,178.26c1.245-1.341,2.777-1.277,4.118-1.692.83-.287,1.756.479,2.139,1.277a1.976,1.976,0,0,1-.67,2.426c-.415.319-.766.128-1.181-.1a18.551,18.551,0,0,0-4.373-1.915h0Z" transform="translate(-317.075 -120.133)" fill="#030382"/>
          <path id="Path_267" data-name="Path 267" d="M315.482,112.361c-1.724-1.085-1.756-1.915-.128-3.16.67-.511.99,0,1.213.479.575,1.149,1.149.734,1.532-.064.543-1.149.894-.543,1.245.064s.287,1.564,1.436,1.213c.319-.1.447.192.447.511a.559.559,0,0,1-.447.575,1.236,1.236,0,0,1-1.181-.287c-.383-.415-.223-1.181-1.021-1.436a14.054,14.054,0,0,1-1.724,3c-.575-.1-.1-1.883-1.4-.894Z" transform="translate(-213.908 -74.152)" fill="#030382"/>
          <path id="Path_268" data-name="Path 268" d="M149.448,156.3a13.466,13.466,0,0,0,1.468,1.213c.351.255.958.926.894-.319-.032-.511.319-.447.638-.192.67.511,1.277.926,1.213,2.011-.1,1.341-.958.287-1.373.575-.7.511-1.373,1.053-2.3.16-.319-.319-.83.255-1.149.607-.192.192-.192.734-.638.319a.585.585,0,0,1-.1-.734,1.127,1.127,0,0,1,.415-.447c1.341-.766,1.373-1.915.926-3.192Z" transform="translate(-100.799 -106.376)" fill="#030382"/>
          <path id="Path_269" data-name="Path 269" d="M299.449,160.13c-.128,1.117-2.107,1.66-.064,2.522.064,0,.1.319.064.447-.128.319-.415.223-.67.16-1.373-.351-1.692-1.819-2.713-2.586-.255-.191.319-.862.766-.638,2.394,1.149,2.49-.383,2.49-2.234.16,1.532,2.234,1.692,1.947,3.32-.064.415.575.958-.192,1.213-.607.192-.8-.383-1.021-.8-.16-.319-.287-.67-.575-1.4h0Z" transform="translate(-201.547 -107.397)" fill="#030382"/>
          <path id="Path_270" data-name="Path 270" d="M360.2,159.665a1.417,1.417,0,0,1-.575-.064c-.16-.383.8-.894,0-1.149-.606-.192-.734.607-1.117.958-.128.1-.191.223-.447.479-.223-1.309-1.883-2.043-.958-3.671.575.575.862,1.66,1.628,1.4,1.021-.351.064-1.4.511-2.522.479,1.468,1.564,2.171,2.234,3.1.83,1.117-.766.958-1.245,1.4l-.064.064h0Z" transform="translate(-242.956 -105.559)" fill="#030382"/>
        </g>
      </g>
    </g>
  </g>
</svg>
