<?xml version="1.0" encoding="UTF-8" standalone="no"?>
<svg
   id="Layer_1"
   version="1.1"
   viewBox="0 0 170.59806 438.47698"
   sodipodi:docname="Coryne_eximia_dk.svg"
   width="170.59805"
   height="438.47699"
   inkscape:version="1.4.2 (ebf0e940, 2025-05-08)"
   xmlns:inkscape="http://www.inkscape.org/namespaces/inkscape"
   xmlns:sodipodi="http://sodipodi.sourceforge.net/DTD/sodipodi-0.dtd"
   xmlns="http://www.w3.org/2000/svg"
   xmlns:svg="http://www.w3.org/2000/svg">
  <sodipodi:namedview
     id="namedview41"
     pagecolor="#ffffff"
     bordercolor="#000000"
     borderopacity="0.25"
     inkscape:showpageshadow="2"
     inkscape:pageopacity="0.0"
     inkscape:pagecheckerboard="0"
     inkscape:deskcolor="#d1d1d1"
     inkscape:zoom="1.1984796"
     inkscape:cx="31.289644"
     inkscape:cy="319.98876"
     inkscape:window-width="1864"
     inkscape:window-height="1186"
     inkscape:window-x="0"
     inkscape:window-y="25"
     inkscape:window-maximized="0"
     inkscape:current-layer="Layer_1" />
  <!-- Generator: Adobe Illustrator 29.8.2, SVG Export Plug-In . SVG Version: 2.1.1 Build 3)  -->
  <defs
     id="defs1">
    <style
       id="style1">
      .st0 {
        fill: #030382;
      }
    </style>
  </defs>
  <path
     class="st0"
     d="m 97.947255,344.825 c 0.5,-0.5 0.5,-1.3 1,-1.8 0.2,-0.2 0,-0.3 -0.1,-0.5 -0.2,-0.3 -0.3,-0.5 0.2,-0.5 0.5,0 0.3,-0.1 0.3,-0.3 -0.1,-0.9 0.699995,-1.1 1.199995,-1.5 0.7,-0.6 1.5,-0.2 2.3,-0.3 0.3,-0.1 0.9,0.4 1.2,0.8 0.2,0.3 -0.3,0.3 -0.4,0.4 0.3,0.1 0.6,0 0.9,0 0.3,0 0.3,0.2 0.4,0.4 0.3,0.5 -0.5,1.3 0.4,1.6 h 0.1 c 0,0.6 -0.9,0.2 -0.7,0.8 0.3,0.6 0.2,0.7 -0.4,0.6 -0.1,0 -0.2,0 -0.2,0.1 0.1,0.9 -0.9,0.7 -1.3,1.1 -0.1,0.1 -0.3,0.3 -0.3,0.3 -0.5,-0.2 -1.3,-0.1 -1.5,-0.2 -1,-0.8 -1.799995,-0.1 -2.399995,0.4 -1.5,1.1 -2.6,2.6 -3.3,4.3 -1.6,3.7 -2.7,7.5 -2.9,11.6 -0.1,2.1 -0.2,4.1 0,6.2 0.1,0.6 0.1,0.8 0.7,0.7 0.3,0 0.4,0.2 0.5,0.4 0,0.2 0.1,0.5 0.3,0.7 0.4,0.3 0.9,0.6 0.1,1 -0.6,0.3 0.5,0.9 -0.1,1.2 -0.4,0.2 -0.9,0.1 -0.9,0.8 -0.1,1.4 0.3,2.6 0.5,3.9 0.5,2.8 1.6,5.5 2.2,8.3 0.8,4.3 0.9,8.6 -1,12.7 -0.4,0.9 -0.6,1.9 0.2,2.8 0.3,0.3 0,0.4 -0.3,0.5 -0.5,0.2 -0.8,0.5 -0.8,1.1 0,0.6 -0.1,0.5 -0.4,0.4 -0.9,-0.4 -1.8,0 -2.5,0.4 -2,1.1 -4.1,1.5 -6.3,1.1 -1.7,-0.3 -3.2,-1.2 -4.4,-2.5 3.6,2.3 7.1,2.8 10.9,0.4 -0.7,-0.1 -1.3,0.2 -1.8,0.5 -2,1 -4.1,1 -6.2,0.1 -2,-0.8 -3.5,-2.2 -4.9,-3.8 -0.1,-0.1 -0.2,-0.3 -0.3,-0.3 -1.2,0 -1.3,-1 -1.6,-1.8 -0.2,-0.7 -0.7,-1.3 -1,-2 -0.5,-1.1 -1,-2.3 -1,-3.5 0,-1.2 0,-0.2 -0.1,-0.3 -0.9,-0.6 -0.9,-1.8 -1.8,-2.4 -0.3,-0.2 -0.4,-0.4 0,-0.6 0.5,-0.3 0.7,-0.7 0.6,-1.3 -0.1,-0.4 0.2,-0.5 0.5,-0.4 0.7,0.1 1.5,-0.6 1.5,-1.3 v -1.5 c -0.1,0.1 -0.2,0.3 -0.3,0.3 -0.3,0 -0.2,-0.3 -0.2,-0.5 0.2,-1.7 0.2,-3.4 0.4,-5.1 0.5,-3.4 0.9,-6.7 1.4,-10.1 0,-0.2 0.1,-0.5 0,-0.5 -1.3,-0.4 0,-2 -1.2,-2.4 -0.3,-0.1 0,-0.4 0.3,-0.4 0.5,0 0.7,-0.2 0.7,-0.7 0,-0.5 0.2,-0.5 0.5,-0.4 0.5,0.2 0.7,-0.2 0.7,-0.5 -0.1,-1.5 0.6,-2.9 0.7,-4.4 0.2,-2.4 0.5,-4.7 0.8,-7.1 0,-0.2 0.1,-0.5 -0.2,-0.7 -0.6,0.4 -0.9,1.1 -1.4,1.6 -1.8,2.3 -4.1,3.7 -6.9,4.2 -0.7,0.1 -1.3,0.3 -1.1,1.3 0.1,0.3 -0.1,0.4 -0.4,0.3 -0.4,-0.2 -0.7,-0.1 -1,0.3 -0.2,0.3 -0.5,0.2 -0.6,-0.1 -0.3,-0.4 -0.6,-0.6 -1.2,-0.5 -0.5,0.1 -0.8,0 -0.6,-0.6 0.2,-0.5 -0.2,-0.6 -0.4,-0.8 -1.6,-1.4 -3.4,-2.5 -4.7,-4.3 -0.9,-1.3 -1.6,-2.7 -2,-4.3 -0.1,-0.6 -0.4,-1.3 -0.6,-1.9 0,-0.1 0,-0.2 -0.1,-0.2 -1.1,-0.1 -1.1,-1.3 -1.8,-1.7 -0.4,-0.3 -0.6,-0.5 0,-0.7 0.4,-0.2 0.5,-0.5 0.2,-0.9 -0.2,-0.4 -0.1,-0.6 0.3,-0.6 0.4,0 0.6,-0.3 0.7,-0.8 0.3,-2.2 0.6,-4.5 0.8,-6.7 0.1,-1.4 0,-2.9 -1.2,-3.9 -0.3,-0.3 -0.1,-0.4 0.1,-0.5 0.5,-0.1 0.7,-0.4 0.7,-0.9 0,-0.5 0.2,-0.5 0.5,-0.5 0.7,-0.1 1,-0.5 1.3,-1.1 0.8,-2.1 1.5,-4.2 1.7,-6.4 0.1,-0.8 0,-1.9 -0.5,-2.8 -0.1,-0.1 -0.1,-0.3 0,-0.4 0.6,-0.2 0.8,-0.6 0.8,-1.1 0,-0.5 0,-0.1 0.1,-0.2 1.8,-0.4 1.7,-2.2 2.2,-3.4 0.5,-1.3 0.7,-2.7 1,-4 0.1,-0.5 -0.1,-0.9 -0.4,-1.2 -0.3,-0.4 -0.3,-0.6 0.2,-0.7 0.5,-0.1 0.4,-0.4 0.3,-0.8 -0.3,-0.6 0,-0.8 0.5,-0.5 0.6,0.3 0.6,0 0.8,-0.4 1,-2.7 1.7,-5.5 1.8,-8.4 0,-0.5 0.2,-1 -0.3,-1.3 -0.2,-0.1 -0.1,-0.3 0,-0.4 0.8,-0.7 0.8,-1.3 -0.4,-2 1.3,0.1 1.7,-0.3 1.4,-1.3 v -0.2 c 1,-0.2 1,-1 1.3,-1.6 0.3,-0.6 0.3,-0.7 -0.3,-0.9 -0.2,-0.1 -0.3,-0.3 -0.2,-0.5 0.2,-0.5 0.2,-0.9 -0.3,-1.3 -0.3,-0.2 0,-0.5 0.2,-0.4 0.7,0 0.6,-0.3 0.6,-0.8 -0.3,-2.3 -1.5,-4.4 -2.5,-6.5 -0.3,-0.6 -0.7,-1.1 -0.8,-1.9 0.6,0.1 0.9,0.5 1.1,1 0.7,1.6 1.4,3.1 2.1,4.7 l 0.3,0.6 c 0.3,-0.3 0.1,-0.6 0,-0.8 -0.7,-1.7 -1.4,-3.4 -2.1,-5.1 -0.2,-0.6 -1.3,-1 -1.8,-0.7 -0.4,0.2 -0.6,0.1 -0.7,-0.3 -0.1,-0.6 -0.5,-0.9 -1.1,-0.9 -0.6,0 -0.8,-0.1 -0.4,-0.5 0.7,-0.7 0.4,-1.1 -0.2,-1.5 -0.1,-0.1 -0.2,-0.2 -0.1,-0.5 0.4,-0.1 1.1,0.3 1.2,-0.7 -0.7,0.5 -0.7,0.1 -0.9,-0.4 -1,-2.5 -2.2,-4.8 -3.6,-7 -1.2,-0.2 -0.9,-1.8 -2.1,-2 -0.2,0 -0.1,-0.2 -0.1,-0.3 0.3,-0.9 0,-1.5 -0.8,-2 -0.1,-0.1 -0.2,-0.2 -0.1,-0.3 0.8,-0.8 0,-1.5 -0.2,-2.1 -0.5,-1.2 -1.2,-2.4 -1.8,-3.5 -0.5,-0.9 -1.1,-1.8 -2.3,-2.1 -0.2,-0.1 -0.2,-0.2 -0.2,-0.3 0,-0.6 -0.2,-1.1 -0.8,-1.3 -0.2,-0.1 -0.2,-0.2 -0.2,-0.4 v -0.6 c 0.3,-0.7 -1.1,-0.7 -0.5,-1.6 0.3,-0.6 -0.3,-1.3 -0.6,-1.9 -0.3,-0.6 -0.6,-1.3 -0.9,-1.9 -0.3,-0.6 -0.6,-1.2 -1,-1.8 -0.5,-0.7 -1.7,-0.9 -1.6,-2.1 0,-0.1 -0.3,-0.2 -0.5,-0.3 -0.3,-0.1 -0.4,-0.3 -0.2,-0.5 0.2,-0.2 0.2,-0.4 0.1,-0.6 -0.5,-1.7 -0.6,-3.5 -1.5,-5.1 -0.3,-0.5 -0.5,-1.3 -1.4,-1.2 -0.3,0 -0.3,-0.2 -0.3,-0.4 0.3,-0.9 -0.2,-1.3 -0.8,-1.6 -0.3,-0.1 -0.6,-0.2 -0.2,-0.5 0.6,-0.5 0.2,-1.1 -0.1,-1.4 -0.4,-0.3 -0.3,-0.5 -0.2,-0.9 0.1,-0.5 0,-1.1 -0.2,-1.7 -0.5,-1.5 -1,-3.1 -1.7,-4.6 -1,-2.2 -1.7,-4.5 -2.8,-6.8 -0.5,-1.1 -0.9,-2.3 -1.7,-3.4 -0.5,-0.6 -0.4,-1.6 -1.2,-2 -0.1,-0.1 -0.1,-0.3 0,-0.4 0.3,-0.3 0.2,-0.7 0,-1 -0.3,-0.5 -0.8,-1 -0.1,-1.7 0.7,-0.7 0,-0.5 0,-0.8 -1.1,-3.7 -1.8,-7.5 -2.5,-11.3 -0.1,-0.3 0,-0.6 -0.4,-0.7 -0.4,-0.1 -0.2,-0.4 -0.1,-0.6 0.2,-0.5 0.3,-0.9 -0.3,-1.2 -0.3,-0.1 -0.3,-0.4 0,-0.5 0.5,-0.3 0.4,-0.8 0.5,-1.2 0.2,-1.3 0,-2.7 0.1,-4 0.2,-2.5 0.4,-5.1 0.5,-7.6 0.1,-1.5 0.6,-2.9 0.6,-4.5 0,-1.6 0.1,-0.4 0,-0.4 -0.9,-0.5 0,-1.1 -0.1,-1.5 -0.1,-1.2 1,-1.9 0.9,-3 0,-0.1 0.1,-0.2 0.1,-0.2 1.3,-0.3 1.2,-1.6 1.6,-2.4 2,-4.2 4.2,-8.3 7.2,-11.9 0.6,-0.7 1.3,-1.5 2,-2.1 0.7,-0.6 0.9,-1.3 1,-2.2 0.5,-3.6 0.9,-7.3 1.8,-10.8 0.6,-2.5 1.6,-4.9 2.7,-7.3 0.9,-2.1 2,-4 3.4,-5.8 2.4,-3.1 5,-5.9 8,-8.4 0.6,-0.5 0.7,-0.8 0,-1.2 -4,-2.8 -7.9,-5.8 -11.2,-9.3 -0.9,-1 -1.9,-2 -2.7,-3 -0.4,-0.5 -0.7,-0.6 -1.3,-0.4 -2.9,1 -5.9,1.1 -9,0.6 -2.1,-0.3 -4.2,-0.9 -6.3,-0.5 -2.1,0.4 -4.1,1.2 -5.8,2.3 -4,2.6 -6.7,6.3 -9.2,10.3 -2.3,3.8 -3.8,7.8 -4.9,12 -1.3000003,4.9 -2.4000003,9.9 -2.6000003,15.1 0,0.8 -0.2,1.6 0,2.4 0.2,0.6 0.2,1.2 1.3,1.2 -0.8,0.5 -1,1.1 -0.6,1.7 v 0.7 c 0,0.1 -0.2,0.3 -0.2,0.4 0,1.8 -0.7,3.5 -0.4,5.4 0.3,1.8 0,3.7 0.4,5.5 0.2,1.3 0.4,2.7 0.6,4 0,0.5 0,1.1 0.7000003,1.5 0.3,0.1 0,0.4 0,0.7 0.2,0.8 0.4,1.7 0.4,2.5 0,0.8 0.2,0.3 0,0.3 -1.0000003,1.5 -0.4,3.2 -0.2,4.7 0.5,5 1.3,10 2.6,14.9 0,0.5 0.2,1.1 0.5,1.5 0.5,0.6 1.1,1.1 1,2.1 0,0.3 0.5,0.5 0,1 -0.5,0.5 0,0.6 0.4,0.8 0.2,0.2 0.5,0.4 0,0.6 -0.6,0.2 -0.5,0.5 -0.4,0.9 0.4,2.9 1,5.8 1.6,8.7 0.4,2.1 0.8,4.1 1.5,6.1 0.3,1 0.3,2.3 1.7,2.7 0.1,0 0.1,0.2 0.1,0.3 -0.3,0.6 0.1,1 0.4,1.4 0.2,0.2 0.3,0.4 0.1,0.7 -0.1,0.1 -0.1,0.3 -0.1,0.3 0.8,1 -0.2,1.9 -0.1,2.8 0.1,1 0.3,2.1 0.6,3.1 0.3,1 0.6,2 0.8,3 0.1,0.5 0.3,1 0.4,1.5 0.1,0.3 0.2,0.6 0.5,0.6 0.6,0.1 0.7,0.3 0.4,0.8 -0.1,0.1 0,0.4 0,0.4 0.9,0.5 0.1,1.9 1.3,2.3 -0.9,0.2 -1,0.2 -0.9,1 0.2,2.2 0.7,4.4 1.4,6.5 0.2,0.6 0.1,1.5 1.1,1.7 0.2,0 0.1,0.3 0,0.4 -0.2,0.5 0,0.8 0.5,0.9 0.3,0.1 0.5,0.2 0.2,0.5 -0.6,0.6 -0.3,0.9 0.2,1.2 0.1,0.1 0.4,0.2 0.3,0.4 0,0.2 -0.3,0.2 -0.4,0.2 -0.7,0.1 -0.5,0.6 -0.5,1 0.2,2.2 0.8,4.3 1.7,6.2 0.5,1 0.9,2.1 1.6,3 0.1,0.1 0.1,0.3 0,0.4 0,0.1 -0.1,0.2 -0.1,0.3 0,0.6 1.3,0.9 0.3,1.8 -0.4,0.4 -0.1,1.4 0.1,2.1 0.2,0.7 0.3,1.5 0.5,2.2 0.7,2.5 1.4,5 2.4,7.5 0.2,0.6 0.5,1.2 1.2,1.4 0.2,0.1 0.3,0.2 0.3,0.4 v 0.4 c 0,0.7 0.9,1.1 0.8,1.3 -0.2,0.7 -0.2,1.1 0.3,1.5 0.1,0.1 0.2,0.3 0.1,0.4 -1,0.5 -0.6,1.4 -0.5,2.1 0.4,2.7 1.4,5.2 2.5,7.7 0.2,0.4 0.4,0.8 0.9,0.9 0.1,0 0.3,0.1 0.3,0.2 0.1,1.1 0.9,2.1 0.8,3.3 -0.4,2.6 0.1,5 1,7.4 0.4,1 0.9,1.9 1.6,2.8 0.6,0.6 1.2,1.4 0.9,2.5 v 0.2 c 0.5,0.7 0.2,1.3 0,2 -0.4,1.5 0.1,2.9 0.5,4.3 0.5,2 1.1,4 1.8,6 0.1,0.4 0.3,0.6 0.7,0.8 0.8,0.3 0.9,1.2 1.6,1.7 0.1,0.1 0,0.3 -0.1,0.5 -0.2,0.3 -0.3,0.7 -0.1,1 0.1,0.3 0.2,0.5 -0.2,0.5 -0.6,0 -0.5,0.4 -0.4,0.8 0.4,3 0.6,6 1.5,8.9 0.1,0.3 0.1,0.6 -0.2,1 1.6,-0.4 1.3,1.3 2.1,1.7 0.1,0.1 0,0.3 -0.1,0.4 -0.3,0.3 -0.4,0.6 -0.4,1 0,0.4 0,0.4 -0.1,0.4 -1.2,-0.2 -0.7,0.7 -0.6,1.1 0.2,2.4 0.3,4.7 0.6,7.1 0.1,0.6 0,1.3 0.9,1.5 0.1,0 0.2,0.1 0.2,0.2 0.6,0.8 0.2,2.7 -0.6,3.3 -0.3,0.2 -0.3,0.4 -0.4,0.7 -0.6,2.1 -0.7,4.3 -1,6.4 -0.2,1.2 0.4,2.2 1,3.2 0.2,0.4 0.4,0.6 0,1 v 0 c 0.1,1 -0.3,1.1 -1.1,1.3 -0.7,0.2 -1.5,0.9 -1.8,1.9 -0.7,2.6 -2.4,4.6 -4.3,6.4 -0.5,0.5 -1.4,0.9 -1.7,1.5 -0.4,0.9 -1.1,1.4 -1.6,2.2 -0.2,0.4 -0.3,0.2 -0.6,0.2 -1.2,0.1 -2.1,-0.8 -3.2,-0.9 -3.5,-0.4 -6.6,-1.6 -9.1,-4 -1,-0.9 -2.1,-1.8 -3.2,-2.7 -0.2,-0.1 -0.3,-0.2 -0.5,-0.1 -0.5,0.2 -0.6,0 -0.5,-0.5 0,-0.1 0.1,-0.2 0,-0.2 -1,-0.6 -0.3,-1.5 -0.3,-2.2 0,-0.7 -0.1,-0.4 0,-0.5 0.8,-0.4 0.5,-1.1 0.4,-1.7 0,-2.3 -0.2,-4.6 -0.5,-6.8 -0.1,-0.8 -0.4,-1.9 -1.4,-2.3 -0.1,-0.1 -0.3,-0.1 -0.3,-0.3 0,-0.2 0.1,-0.2 0.2,-0.2 0.7,-0.2 0.8,-0.5 0.4,-1.1 -0.1,-0.2 -0.3,-0.3 -0.1,-0.6 0.2,-0.1 0.3,0 0.5,0.1 0.8,0.3 1,-0.2 1,-0.8 0.2,-2.2 0.5,-4.3 0.4,-6.5 0,-0.7 0.4,-1.5 -0.6,-2 -0.2,-0.1 0,-1.1 0,-1.7 0.6,0.3 1.2,1 1.7,-0.1 0,-0.1 0.2,-0.1 0.3,-0.2 0.2,-0.1 0.4,-0.1 0.3,-0.4 -0.2,-0.4 -0.4,-0.2 -0.6,0 -0.2,0.2 -0.4,0.1 -0.5,-0.1 -0.1,-0.2 -0.2,-0.2 -0.3,0 -0.1,0.5 -0.6,0.6 -0.9,0.9 -0.3,0 -0.7,0 -0.7,-0.4 -0.1,-0.3 0.3,-0.3 0.5,-0.4 0.2,-0.1 0.3,-0.2 0.3,-0.4 0,-0.5 0.4,-0.7 0.9,-0.7 0.5,0 0.8,-0.6 1,-1.1 0.1,-0.3 0,-0.7 0,-1.1 0.1,-1.5 -0.2,-3.1 0.3,-4.6 0.2,-0.5 0,-1.1 -0.1,-1.7 -0.1,1 -0.5,1.9 -0.6,3 -0.3,-1.1 0.1,-2 0.1,-2.8 0,-0.8 0,-1.1 -0.9,-1.4 -0.5,-0.2 -0.6,-1.4 -0.9,-2.1 0.6,-0.2 0.7,-0.7 0.8,-1.2 0,-0.4 0.4,-0.3 0.6,-0.2 0.6,0.2 0.7,0 0.5,-0.5 -0.1,-0.2 -0.2,-0.5 -0.1,-0.7 0.4,-2.3 -0.4,-4.6 -0.4,-6.9 0,-2.3 -0.3,-1 -0.9,-1.1 -0.1,0 -0.4,-0.1 -0.4,-0.1 0,-0.6 -0.1,-1.2 -0.8,-1.4 v 0 c 0.9,-0.4 0.3,-1.6 1.1,-2 v 0 c 1,0.2 1.1,0.1 0.8,-0.8 -0.3,-1.1 -0.7,-2.2 -1.1,-3.2 -0.3,-0.7 -0.4,-1.6 -1.4,-1.6 -1,0 -0.3,-0.3 -0.4,-0.5 -0.7,-1 -1.3,-2.1 -2.4,-2.8 1.5,0.3 2,1.7 3,2.6 -0.5,-1.2 -1.4,-2.2 -2.5,-3 -0.2,-0.2 -0.4,-0.2 -0.7,0 0,0.1 -0.3,0.3 -0.4,0.3 -1,-0.3 -1,0.1 -0.8,0.9 0,0.3 -0.3,0.1 -0.5,0 -0.3,-0.2 -0.5,-0.6 -0.8,0.1 0,0.3 -0.4,0.3 -0.7,0.1 -0.5,-0.4 -1.1,-0.5 -1.7,-0.4 0.2,-0.9 -0.2,-1.1 -0.9,-0.9 -1.5000003,0.4 -3.0000003,0.8 -4.3000003,1.8 -1.8,1.3 -2.6,3.2 -3.2,5.3 0,0.4 0.2,0.3 0.4,0.3 0.4,0 0.6,0.1 0.5,0.5 v 0 c -0.3,0.7 0.8,0.9 0.4,1.4 -0.4,0.4 -0.7,0.6 -0.4,1.2 0,0.3 -0.2,0.3 -0.5,0.3 -0.8,-0.2 -1,0.2 -1,0.8 0,2.6 0,5.2 0.5,7.8 0.3,1.6 0.5,3.1 0.9,4.7 0.4,1.6 0.5,1.6 0.8,2.4 v 0.2 c 1.2,-0.3 1,1.4 1.9,1.5 0.4,0 0.4,0.5 0,0.7 -0.6,0.3 -0.3,0.7 -0.3,1.1 -0.2,3 1.4,5.5 2.1,8.2 0.7,2.8 1.4,5.5 2.1000003,8.3 0.2,0.6 0.3,1.2 1,1.6 0.5,0.3 0.6,1.2 1.4,1.5 v 0.3 c -0.5,0.3 -0.4,0.7 -0.2,1.1 v 0.4 c -0.9,0.2 -0.6,0.9 -0.6,1.4 0,2.3 0.3,4.6 0.4,6.9 0.2,3.6 0.3,7.1 0,10.7 -0.2,2.2 -0.4,4.5 -0.8,6.7 -0.2,0.9 0.6,1.3 1,1.9 0.2,0.3 0.6,0.4 0.3,0.8 0,0.2 0,0.3 0.2,0.4 0.2,0.1 0.4,0.3 0,0.5 -0.2,0.2 -0.3,0.3 0,0.6 0.2,0.3 0,0.4 -0.2,0.5 -0.3,0.1 -0.3,0.2 -0.2,0.5 q 0,0.4 -0.4,0.6 c -0.5,0.3 -0.9,0.5 -1.6,0.3 -0.2,-0.1 -0.3,0.6 -0.9,0.5 -1.1000003,-0.2 -2.1000003,-0.6 -2.6000003,-1.5 -0.2,-0.4 -1.3,-1.1 -0.4,-1.9 v -0.4 c -0.3,-0.4 0,-0.5 0.2,-0.8 0.4,-0.6 0.7,-0.9 1.4,-0.9 0,-0.8 0.4,-0.6 0.9,-0.8 0.4,-0.1 0.5000003,-0.8 0.7000003,-1.3 0.7,-2.3 0.9,-4.8 1.1,-7.2 0.2,-2.5 0.3,-5 0.2,-7.5 -0.2,-2.8 -0.3,-5.6 -0.7,-8.4 0,-0.2 0,-0.6 -0.2,-0.7 -1.0000003,-0.3 -1.2000003,-1.2 -1.8000003,-1.9 -0.2,-0.3 -0.5,-0.4 0,-0.7 0.2,-0.2 0.2,-0.4 0.2,-0.7 0,-0.6 0,-0.7 0.6,-0.5 0.6000003,0.2 0.5000003,-0.1 0.4000003,-0.5 -0.3000003,-1.1 -0.5000003,-2.1 -0.8000003,-3.1 -0.5,-1.8 -0.8,-3.7 -1.4,-5.5 -0.8,-2.6 -1.8,-5.2 -2.7,-7.8 0,-0.1 0,-0.2 -0.3,-0.2 -0.8,0 -1.3,-0.3 -1.5,-0.9 v -0.2 c -1.8,-0.3 0,-1.9 -1,-2.6 -0.2,-0.1 0.3,-0.3 0.5,-0.3 0.8,0 0.8,-0.4 0.7,-1 -0.9,-3.1 -1.6,-6.2 -1.8,-9.4 v -5.1 c 0,-1.7 0,-1.2 -0.79999998,-1.5 -0.2,-0.1 -0.7,-0.1 -0.7,-0.5 0,-0.4 0.5,-0.3 0.79999998,-0.5 -0.19999998,-0.2 -0.29999998,-0.4 -0.49999998,-0.6 -0.4,-0.4 -1,-0.8 0,-1 0.2,0 0.3,-0.2 0.3,-0.4 0,-0.5 0,-0.6 0.49999998,-0.5 0.4,0.1 0.6,-0.3 0.7,-0.6 0.3,-0.7 0.6,-1.5 0.9,-2.2 0.9,-1.8 2.2,-3.1 4,-4.1 1.6,-0.9 3.4000003,-1.4 5.0000003,-2.2 0.5,-0.3 1.1,-0.7 1.7,-1 0.5,-0.3 0.7,-0.3 1,0.1 0.3,0.4 0.6,0.6 1.1,0.5 0.5,-0.1 0.3,0.5 0.7,0.7 1,0.6 2,1.3 2.9,2.3 1.1,1.2 1.9,2.6 2.6,4.1 0.6,1.4 1.2,2.8 1.7,4.3 0.1,0.3 0.2,0.4 0.6,0.3 0.5,-0.1 0.6,0.2 0.8,0.6 0.4,0.8 0.3,1.5 0.3,2.3 0,0.8 -0.1,0.8 -0.7,0.5 -0.1,-0.1 -0.3,0 -0.5,-0.1 0.5,1.2 0.2,2.4 0.3,3.6 0.1,1.8 0.3,3.6 0.3,5.5 0,1.9 0.1,0.4 0.2,0.5 0.8,0.3 0.8,1.4 1.5,1.8 h 0.1 c -0.3,0.7 -0.6,1.4 -1.1,1.8 -0.3,0.2 -0.5,0.4 -0.6,0.8 -0.5,2.7 -0.4,5.3 -0.3,8 0,0.7 -0.1,1.4 1,1 0.3,-0.1 0.5,0.2 0.3,0.5 -0.3,0.6 -0.3,0.9 0.3,1.2 0.3,0.1 0.3,0.4 -0.1,0.5 -0.6,0 -0.6,0.6 -1,0.8 -0.2,0.1 -0.1,0.2 0,0.3 0.2,0.1 0.4,0.3 0.2,0.5 -0.1,0.2 -0.4,0.1 -0.6,0 -0.7,-0.4 -0.7,0 -0.8,0.5 -0.4,2.5 -0.5,5 -0.5,7.5 0,2.5 0,0.7 0.4,0.7 0.4,0 0.4,0.5 0.6,0.6 1,0.7 0.4,1.4 0.2,2.1 -0.1,0.3 0.1,0.6 0.1,1.1 -1.2,-0.5 -1.3,0.2 -1.4,1.1 -0.2,2.3 -0.1,4.7 0.4,7 0,0.2 0.2,0.6 0.3,0.6 1.4,0.1 1,1.6 1.7,2.1 0.3,0.2 0.1,0.4 -0.2,0.5 -0.6,0.2 -0.4,0.5 -0.2,0.9 1.4,2.6 3.6,4.1 6.5,4.7 1,0.2 2,0.8 3.1,0.7 0.4,0 0.8,-0.1 0.6,-0.7 -0.1,-0.4 0,-0.6 0.4,-0.6 0.4,0 0.4,-0.2 0.6,-0.4 0.3,-0.4 0.6,-0.2 0.9,-0.2 0.9,-0.2 1.7,0.5 2.4,0.3 0.8,-0.2 1.6,-0.9 2.1,-1.6 1.1,-1.3 2.2,-2.7 2.5,-4.4 0,-0.3 0.2,-0.5 0.4,-0.9 0.3,0.8 -0.2,1.4 -0.3,2.2 0.8,-0.7 0.8,-1.6 1.2,-2.2 0,-0.1 -0.1,-0.3 -0.1,-0.3 -0.9,-0.1 -0.6,-0.7 -0.5,-1.2 0,-0.2 0.1,-0.4 -0.1,-0.6 -0.6,-0.5 -0.6,-0.8 0.1,-1.1 0.2,-0.1 0.1,-0.3 0,-0.5 -0.4,-0.6 -0.1,-0.8 0.5,-0.6 0.4,0.1 0.6,0.1 0.6,-0.4 0,-0.5 -0.1,-1.2 0.7,-0.5 0.3,0.3 0.5,0.1 0.5,-0.3 0,-0.7 -0.1,-1.3 -0.1,-2 -0.5,0.3 -0.1,1.1 -0.9,1.5 0.5,-1 0.3,-1.9 0.5,-2.7 0.3,-1 0.3,-2.1 0.3,-3.1 0,-1 0.3,-1.4 -0.6,-1.9 -0.3,-0.2 -0.3,-1.1 -0.9,-1.5 -0.1,-0.1 0,-0.3 0.1,-0.4 0.5,-0.2 0.6,-0.6 0.4,-1.1 -0.2,-0.6 0.3,-0.4 0.5,-0.4 0.6,0 0.8,-0.1 0.5,-0.7 -0.3,-0.6 -0.1,-0.8 -0.1,-1.2 0,-2 0,-4.1 -0.4,-6.1 -0.1,-0.5 -0.1,-1 -0.8,-1.1 -0.3,0 -0.2,-0.4 -0.3,-0.6 -0.1,-0.4 -0.2,-0.7 -0.6,-0.8 -0.2,0 -0.5,0 -0.4,-0.3 0,-0.2 0.2,-0.2 0.4,-0.3 0.5,-0.1 0.7,-0.3 0.2,-0.7 -0.1,-0.1 -0.3,-0.2 -0.2,-0.5 0.1,-0.3 0.3,-0.2 0.5,-0.2 0.7,0.1 0.7,-0.3 0.6,-0.8 -0.4,-2.2 -0.7,-4.5 -0.9,-6.7 -0.1,-0.8 -0.4,-1.9 -0.9,-2.4 -0.7,-0.6 -0.9,-1.6 -1.9,-1.9 -0.2,-0.1 -0.4,-0.2 -0.2,-0.4 0.8,-0.6 0.4,-1.3 0,-2 1.1,0.2 1,-0.3 0.8,-1 -0.7,-3 -1.2,-6 -2.1,-8.9 -0.4,-1.3 -0.6,-2.7 -1.3,-3.7 -1.3,-2 -1.3,-4.2 -1.6,-6.4 -0.4,-2.6 -1.1,-5.2 -2.2,-7.6 -0.2,-0.4 -0.4,-1 -1.1,-0.8 -0.4,0.1 -0.4,-0.2 -0.2,-0.4 0.3,-0.5 0.4,-0.9 -0.3,-1.1 -0.3,-0.1 -0.4,-0.3 -0.1,-0.5 0.3,-0.2 0.4,-0.5 0.2,-0.7 -0.9,-0.5 -0.4,-1.3 -0.4,-2 0,-0.7 -0.2,-1.8 -0.4,-2.6 -0.6,-1.8 -0.9,-3.8 -1.9,-5.5 -0.1,-0.2 -0.3,-0.5 -0.4,-0.5 -0.6,-0.1 -0.4,-0.6 -0.6,-0.9 -0.5,-0.8 -0.5,-1.7 -0.7,-2.5 -0.1,-0.4 -0.5,-0.5 -0.1,-1.1 0.3,-0.3 0,-1.1 -0.1,-1.7 -0.7,-2.9 -1.5,-5.8 -2.2,-8.6 -0.2,-0.9 -0.7,-1.6 -1.1,-2.4 -0.1,-0.2 -0.3,-0.3 -0.5,-0.4 -0.5,0 -0.6,-0.3 -0.5,-0.7 0.1,-0.3 0.1,-0.7 -0.2,-0.8 -1.1,-0.3 -0.5,-0.8 -0.1,-1.2 0.1,-0.1 0.2,-0.3 0.1,-0.4 -0.8,-0.3 -0.3,-0.9 -0.3,-1.4 0.1,-0.8 -0.2,-1.6 -0.4,-2.4 -0.5,-1.8 -1,-3.6 -1.6,-5.4 v 0 c -0.1,-0.9 -0.9,0 -1,-0.5 -0.1,-0.4 0.5,-0.9 -0.2,-1.2 -0.1,0 -0.2,-0.1 -0.2,-0.1 0.5,-0.7 -0.3,-1.4 0,-2 0.3,-0.6 0.3,-0.4 0.2,-0.6 -0.5,-2.5 -0.5,-5 -1.5,-7.4 -0.1,-0.3 -0.3,-0.6 -0.6,-0.7 -0.3,-0.1 -0.4,-0.4 -0.3,-0.6 0.1,-0.5 0,-0.9 -0.5,-1.2 -0.1,-0.1 -0.2,-0.3 -0.2,-0.3 0.8,-0.7 -0.3,-1.5 0,-2 0.3,-0.5 0.3,-0.9 0.2,-1.4 -0.7,-2.7 -1.4,-5.5 -2,-8.2 -0.7,-2.8 -1.3,-5.6 -1.9,-8.4 -0.2,-1 -0.3,-2.1 -1.5,-2.5 -0.2,-0.1 0,-0.3 0,-0.5 0.2,-0.6 0.2,-1.1 -0.5,-1.3 -0.2,-0.1 -0.2,-0.3 0,-0.4 0.5,-0.5 0.3,-0.9 -0.2,-1.3 -0.3,-0.3 -0.4,-0.4 0,-0.6 0.5,-0.2 0.4,-0.6 0.4,-1 0,-1.8 -0.5,-3.4 -0.8,-5.2 -0.4,-2.3 -1,-4.5 -1.5,-6.8 -0.2,-1 -0.4,-2 -1.4000003,-2.4 -0.3,-0.1 -0.2,-0.5 -0.2,-0.7 0,-0.3 0,-0.7 -0.3,-0.9 -0.4,-0.2 -0.3,-0.5 0,-0.8 v -0.3 c -0.6,-1.1 0.4,-2 0.2,-3.1 -0.2,-1.1 -0.4,-2.2 -0.5,-3.3 -0.4,-4.6 -1.3,-9.1 -2,-13.6 0,-0.5 0,-1.1 -0.8,-1 0,0 -0.3,-0.1 -0.2,-0.2 0.3,-0.7 -0.2,-1.3 -0.2,-1.9 0,-2.4 0.5,-4.8 0.5,-7.2 v -7.3 c 0,-0.7 0,-1.5 -0.6,-2 -0.2,-0.1 -0.2,-0.3 0,-0.5 0.6,-0.7 0.3,-1.3 -0.2,-2 1.1,-0.1 1.3,-1 1.4,-1.8 0.5,-4.1 1.3,-8.2 2.3,-12.2 1.3000003,-4.7 3.2000003,-9.1 5.6000003,-13.3 2.5,-4.4 5.8,-8.2 9.8,-11.3 3.3,-2.6 7.2,-3.9 11.4,-4.2 1.5,0 2.9,-0.4 4.4,-0.4 1.5,0 0.5,-0.2 0.5,-0.6 0.2,-1.6 1.9,-2.4 3.2,-1.5 0.2,0 0.4,0.3 0.6,0.4 0.4,0.2 0.6,0 0.7,-0.3 0.1,-0.2 -0.1,-0.3 -0.2,-0.4 -1.5,-0.8 -2.9,-0.7 -4.3,0.4 -0.4,0.3 -0.6,0.8 -0.9,1.1 -0.3,-0.4 -0.4,-0.7 0.1,-1.1 0.9,-0.8 1.8,-1.5 3.1,-1.7 0.5,0 0.7,-0.4 0.7,-0.9 0,-5.5 1.5,-10.6 3.4,-15.7 1.6,-4.4 3.7,-8.5 6.1,-12.4 2,-3.3 4.4,-6.2 6.8,-9.2 2.4,-3 5.1,-5.7 8,-8.2 1.3,-1.1 2.7,-2 4.1,-3 2.6,-1.8 5.2,-3.4 8.2,-4.5 3.6,-1.4 7.3,-2.5 11.2,-2.9 3.3,-0.3 6.7,-0.3 10.099995,0 4.9,0.5 9.2,2.7 13.4,4.9 3.1,1.7 6,3.8 8.5,6.3 2.2,2.1 4.3,4.3 5.9,7 1.7,2.8 3.1,5.6 4,8.7 0.1,0.2 0.1,0.4 -0.1,0.6 -0.6,-1.3 -1.3,-2.6 -1.8,-4 -0.7,-2 -1.9,-3.6 -2.9,-5.4 -1,-1.8 -1.1,-1.6 -1.7,-2.4 -0.2,-0.3 -0.4,-0.6 -0.7,-0.4 -0.3,0.3 -0.2,0.7 0.1,0.9 0.1,0 0.2,0 0.3,0.2 0.6,0.5 0.5,0.5 0.3,1.2 -0.1,0.3 0.2,0.6 0.5,0.9 1,1.3 2.3,2.5 2.5,4.3 0,0.5 0.4,0.8 0.7,1.1 0.4,0.5 0.6,0.9 -0.1,1.5 1,0 0.9,0.5 0.9,1.3 -0.1,1 0.5,2 0.8,3.1 0.1,0.4 0.3,0.7 0.1,1.1 -0.2,0.4 -0.2,0.8 0.4,0.8 0.6,0 0.4,0.2 0.3,0.4 -0.7,1.6 0,3 0.2,4.5 v 0.2 c 0.1,1.1 0,1.2 -1.2,1.3 0.3,0.2 0.5,0.5 0.8,0.7 0.3,0.2 0.5,0.4 0.2,0.8 -0.4,0.6 0.3,1.1 0.1,1.8 -0.3,-0.3 -0.5,-0.7 -0.8,0 -0.1,0.3 -0.4,0.4 -0.6,0.5 -0.3,0 -0.6,0.3 -0.7,0.7 -0.1,0.2 -0.1,0.4 0.1,0.5 0.2,0 0.3,0 0.4,-0.2 0.2,-0.2 0.2,-0.7 0.6,-0.4 0.3,0.2 0.4,0.7 0.5,1.1 0,0 -0.1,0.2 -0.2,0.2 -0.4,0 -0.5,0.2 -0.3,0.6 0.3,0.5 0.2,0.8 -0.1,1.2 -0.4,0.5 -0.6,0 -0.9,0 -0.3,-0.2 -0.7,-0.2 -0.9,0.2 -0.2,0.3 0.2,0.5 0.5,0.5 0.6,0 0.7,0.9 1.4,0.9 0,0.4 -0.3,0.3 -0.5,0.5 -0.3,0.2 -0.6,0.4 -0.3,0.8 0.1,0 0.2,0.3 0,0.4 -1,0.8 -0.7,1.7 -0.3,2.7 0.1,0.3 0,0.5 -0.2,0.6 -0.7,0.5 -0.8,1.3 -1,2 -0.1,0.5 0.1,1.3 -0.9,1 -0.3,0 -0.2,0.3 -0.1,0.4 0.1,0.3 0.2,0.6 -0.1,0.7 -1.1,0.4 -0.8,1.9 -1.7,2.5 -0.1,0 -0.1,0.4 0,0.5 0.5,0.9 0.1,1.2 -0.7,1.3 -0.2,0 -0.5,0 -0.5,0.4 0,0.4 0.3,0.4 0.6,0.4 0.3,0 0.5,0 0.4,0.3 0,0.2 -0.3,0.1 -0.5,0.1 -0.9,0 -1.1,0.2 -1,1.2 0,0.2 -0.1,0.3 -0.3,0.4 -0.9,0.7 -1.3,1.6 -1.2,2.8 0.1,1.2 -0.1,1.2 -1.4,0.5 -0.2,0.4 0.3,0.6 0.3,1 -1.1,0 -1.6,0.6 -1.9,1.6 -0.2,0.7 -0.7,1.2 -1.5,0.9 -0.4,0.6 0.9,1.7 -0.7,1.9 1,1.2 -0.6,1.3 -0.9,2 -0.1,0.3 -0.4,0.4 -0.3,0.8 0,0.1 0,0.3 -0.1,0.3 -0.9,0 -0.9,0.9 -1.5,1.3 -0.3,0.2 -0.6,0.4 -0.4,0.8 0.1,0.2 -0.1,0.3 -0.3,0.3 -0.7,0 -1.1,0.4 -1.4,0.8 -0.2,0.3 -0.5,0.5 -0.8,0.7 -0.4,0.2 -1,0.3 -0.7,1.1 0.1,0.2 -0.2,0.4 -0.4,0.4 -1,0.2 -1.6,1 -2.4,1.4 -0.2,0.1 -0.3,0.1 -0.2,0.4 0.4,0.6 0,1 -0.5,1.2 -0.4,0.2 -0.6,0.5 -0.7,0.9 -0.1,0.2 -0.2,0.5 -0.3,0.5 -1,0.4 -1.6,1.4 -2.5,2 -0.2,0.1 -0.3,0.3 -0.6,0.2 -0.8,-0.3 -1,0.8 -1.7,0.6 h -0.1 c 0.5,1.1 -0.3,0.9 -1,1.1 0.5,0.2 0.8,0.4 1.2,0.2 1,-0.5 2.3,-0.5 2.7,-1.8 0.1,-0.3 0.4,-0.3 0.7,-0.2 0.2,0.1 0.3,0.2 0.3,0.4 0,0.3 -0.2,0.4 -0.4,0.5 -1,0.6 -1.9,1.3 -2.9,1.9 -0.3,0.2 -0.5,0.4 -0.3,0.7 0.5,1.2 0.5,2.5 0.4,3.7 -0.2,1.9 0.5,3.5 1.4,5 2.1,3.6 3.7,7.3 4.5,11.4 0.5,2.9 0.6,5.8 0.4,8.7 -0.2,2.1 -0.3,4.3 -0.6,6.4 -0.4,3.3 -1.3,6.5 -2.5,9.6 -1.4,3.5 -2.8,7 -4.1,10.6 -1.1,3.1 -1.9,6.3 -2.499995,9.6 -0.1,0.7 -0.1,1.3 0.1,1.9 0.199995,0.5 0.399995,1 0.199995,1.5 v 0.3 c 0.4,0.5 0.7,0.9 -0.1,1.5 -0.399995,0.3 0.4,0.8 0.6,1.2 h -0.1 c -0.999995,-0.2 -1.599995,0.3 -1.699995,1.6 -0.3,3.4 -0.3,6.7 0.4,10 0.2,1.1 0.4,2.3 1.599995,2.8 0.2,0.1 0.1,0.4 0.1,0.6 0.1,0.9 0.4,1.3 1.2,1.6 -0.7,0.8 -0.5,1.4 0.2,2.1 0.2,0.2 0.4,0.4 0.1,0.6 -0.5,0.3 -0.4,0.7 -0.3,1.1 0.7,3.1 2,5.9 3.4,8.6 1,2.1 2.2,4.1 3.4,6.1 0.6,1 1.7,1.5 2.3,2.5 0.2,0.2 0.5,0.2 0.8,0.2 0.3,0 0.4,0.1 0.3,0.4 -0.6,1 0.2,1.3 0.9,1.7 -0.5,0.4 -0.4,0.8 -0.1,1.3 1.1,1.9 2.5,3.7 3.8,5.5 0.1,0.2 0.3,0.5 0.4,0.4 1,-0.3 0.9,0.5 1,1 0.2,0.7 1.2,0.4 1.2,0.9 0,0.5 -0.1,1 0.5,1.3 0.1,0.1 0.3,0.2 0.2,0.3 -0.4,0.8 0.2,1.4 0.5,2 1,2.1 1.6,4.3 3,6.2 0.5,0.7 0.9,1.4 1.4,2.1 0.4,0.6 1.2,0.9 0.6,1.8 0.5,1.9 0.3,3.9 0.8,5.8 0.2,0.9 0.2,1.9 0.8,2.5 0.6,0.6 0.6,1.2 0.5,1.9 0,0.2 0,0.5 0.1,0.6 0.4,0.3 0.4,0.5 -0.1,0.8 -0.2,0.1 -0.3,0.4 -0.2,0.5 0.6,0.7 0,1.1 -0.2,1.7 -0.5,1.2 0.1,2.5 0.4,3.8 0.1,0.4 0.6,0.1 0.8,0.3 0,0.3 -0.3,0.4 -0.4,0.6 -0.2,0.3 -0.3,0.7 0,0.9 0.5,0.5 1.4,0.8 0,1.3 -0.3,0.1 0.1,0.5 0.3,0.7 0.2,0.2 0.4,0.3 0.3,0.6 -0.1,0.3 -0.4,0.2 -0.6,0.1 -0.4,-0.1 -0.5,0.2 -0.6,0.5 -0.4,1.6 -0.6,3.3 -0.7,5 v 1.1 c 0,0.2 -0.1,0.5 0,0.5 0.8,0.4 0.8,1.2 1.3,1.8 0.1,0.1 0.2,0.1 0.3,0.2 0.1,0.1 0.1,0.3 0,0.3 -1,0.1 -0.2,1.5 -1.1,1.6 -0.9,0 -1.3,0.6 -1.5,1.3 -0.5,1.8 -0.8,3.7 -1,5.6 0.6,-0.1 1.2,-0.1 0.7,0.8 -0.1,0.2 -0.1,0.4 0,0.5 1.2,0.9 -0.6,1.4 -0.3,2.2 0,0.1 -0.6,0 -0.9,0.4 -1.2,1.3 -1.4,3 -1.9,4.6 -0.3,1.1 -0.8,2.2 -0.6,3.4 0,0.3 0,0.6 0.3,0.7 0.5,0.3 1,0.6 0.2,1.1 0,0 -0.1,0.1 0,0.2 0.8,1.1 -0.2,0.9 -0.8,1.3 -0.7,0.5 -1.1,1.2 -1.3,2.1 -0.6,2.5 -1.2,4.9 -1.8,7.4 -0.1,0.3 -0.1,0.6 -0.4,0.7 -0.9,-0.7 0.1,-1.6 -0.3,-2.5 -0.1,0.5 -0.2,0.9 -0.4,1.2 -0.3,0.7 -0.1,1.1 0.7,1.2 0.1,0.5 1,0.1 0.8,0.8 1.6,1.1 -0.2,2.1 -0.1,3.2 0,0.2 -0.2,0.2 -0.3,0.2 -0.9,-0.3 -1,0.3 -1.1,0.8 -0.6,2 -0.8,4.1 -1.1,6.2 -0.1,0.9 -0.2,1.7 -0.3,2.6 -0.1,0.4 0,0.7 0.5,0.7 0.5,0 0.5,0.2 0.5,0.5 0,0.3 0,0.2 0.1,0.3 0.9,0.6 0.4,1.4 0.2,2.1 -0.1,0.3 -0.1,0.4 -0.4,0.4 -1.1,0.2 -1.3,1.2 -1.4,2.1 -0.1,2.6 -0.1,5.3 0.4,7.9 0.1,0.4 0.1,0.7 0.6,0.4 0.4,-0.2 0.7,0 0.7,0.3 0.1,0.7 1.1,0.8 1.1,1.4 -0.1,0.5 -0.6,1 -0.4,1.7 0,0.1 0,0.2 -0.1,0.2 -0.9,0.2 -0.5,0.9 -0.4,1.4 0.8,3.2 2.6,5.9 4.8,8.4 0.3,0.3 0.6,0.6 1.1,0.2 0.5,-0.5 0.9,0.4 1.5,0.2 0.4,-0.1 1.1,0.1 1.1,0.8 0,0.7 0.2,0.5 0.4,0.6 0.5,0.3 0.8,0.5 0,0.9 -0.4,0.2 -0.1,0.4 0.1,0.5 1.1,0.8 2.4,1.1 3.7,1.1 1.3,0 2.1,0.5 3.1,-0.1 0.3,-0.2 1.1,0.1 0.7,-0.8 -0.1,-0.2 0.5,-0.5 0.9,-0.6 0.5,-0.1 0.9,-0.4 1,-0.9 0.3,-0.7 0.9,-1.1 1.3,-1.6 0.4,-0.5 0.2,0.2 0.4,0.3 0.3,-0.5 0.8,-0.8 0.6,-1.6 -0.2,-0.6 0.4,-1 1.3,-0.9 -0.6,-0.4 -0.5,-0.8 -0.4,-1.2 0.1,-0.4 0.4,-0.9 -0.4,-1 -0.3,0 -0.2,-0.3 0,-0.5 0.4,-0.4 0.3,-0.7 -0.1,-1.1 -0.3,-0.3 -0.4,-0.6 0.1,-0.8 0.2,-0.1 0.4,-0.3 0.4,-0.5 0,-0.6 0.1,-0.9 0.8,-0.7 0.2,0.1 0.4,-0.1 0.4,-0.3 0.3,-2.3 0.9,-4.5 0.8,-6.9 -0.1,-1.7 0.1,-3.4 0,-5 -0.2,-1.6 -0.3,-3.3 -0.9,-4.9 0,-0.1 -0.1,-0.3 -0.1,-0.3 -1.1,0 -0.8,-1.4 -1.7,-1.6 -0.3,-0.1 -0.4,-0.3 -0.1,-0.5 0.6,-0.4 0.4,-0.8 0.1,-1.2 -0.2,-0.3 -0.3,-0.6 0.2,-0.6 0.5,0 0.5,-0.2 0.4,-0.6 -0.1,-1 -0.2,-2 -0.2,-3 0,-1 0.3,-0.8 -0.5,-0.8 -0.8,0 -0.1,-0.3 -0.1,-0.5 0,-0.4 0.1,-0.8 0.1,-1.2 0,-0.4 0,-0.4 -0.2,-0.3 -0.1,0 -0.2,0.2 -0.3,0.4 0.4,-1.5 0,-2.9 -0.8,-4.1 0.2,0.9 0.4,1.8 0.7,2.8 -0.5,-1.3 -1.3,-2.5 -1.2,-4 0.1,0.2 0.1,0.4 0.3,0.7 0.3,-0.5 0.1,-0.8 0,-1.2 -0.3,-1.1 -0.9,-2.2 -1,-3.4 0,-0.3 -0.2,-0.6 -0.5,-0.7 -0.2,-0.1 -0.5,-0.2 -0.5,-0.4 -0.1,-0.7 -0.5,-0.8 -1.1,-1 -0.4,-0.2 -0.5,-1.2 -1.2,-1.5 -0.1,0 0.2,-0.3 0.3,-0.4 0.2,-0.2 0.4,-0.4 0.3,-0.7 v -0.3 c 1.2,-0.5 0.9,-1.6 1.1,-2.6 0.5,0.4 0,1.4 0.9,1.5 -0.4,-1.2 -0.4,-2.4 -0.5,-3.6 -0.1,-1.5 -0.4,-3.1 0.1,-4.6 0.1,-0.2 0.1,-0.5 0,-0.8 -0.3,-1.4 0.3,-2.7 0.7,-3.9 0.3,-0.8 0.7,-1.5 1.7,-1.8 0.6,-0.2 1.1,-1 1.8,-1.4 1.8,-1.1 3.7,-1.7 5.8,-1.3 0.5,0.1 1,0.1 1,-0.6 0,-0.7 0.1,-0.2 0.2,-0.3 0.5,-0.4 3.2,0.3 3.3,0.9 0.1,0.6 0.3,1.1 0.5,1.7 0.9,2.4 1.8,4.8 2,7.3 0.3,2.6 0.4,5.3 0.2,7.9 -0.1,2.2 -0.3,4.3 -0.1,6.5 0.1,0.7 0.1,1.9 1.4,2.2 0.4,0.1 0.3,0.3 0,0.5 -0.7,0.5 -0.8,1 -0.2,1.8 -1.4,-0.1 -1.3,0.8 -1.3,1.6 0,1.5 -0.1,3 0.2,4.5 0.4,1.9 1.3,3.6 3.1,4.6 0.3,0.2 0.7,0.1 1.1,0.2 -0.8,0.3 -2.1,-0.1 -2.9,-0.8 -0.9,-0.9 -1.4,-2 -1.8,-3.3 -0.1,-0.3 -0.1,-0.5 -0.4,-0.7 0.3,-1.6 0.1,-3.1 -0.1,-4.8 -0.3,0.4 -0.2,0.8 -0.2,1 -0.2,1.3 0.5,2.5 0.2,3.7 -0.5,-0.8 -0.4,-1.8 -0.5,-2.7 -0.1,-0.9 0.2,-1.9 -0.2,-2.8 -0.1,-0.2 -0.1,-0.5 -0.2,-0.4 -1.1,0.3 -0.7,-0.3 -0.6,-0.8 0.1,-0.3 -0.3,-0.6 -0.7,-0.7 -0.5,-0.1 -0.7,-0.4 -0.1,-0.7 0.3,-0.2 0.3,-0.4 0.2,-0.7 -0.4,-0.9 0,-0.9 0.6,-0.6 0.3,0.1 0.6,0 0.5,-0.4 -0.1,-1.1 0.8,-2 0.7,-3.2 0.7,1 -0.7,2.4 0.6,3.3 0.1,-2.3 -0.6,-4.5 0.2,-6.7 v 0 c 0.3,-1.7 0.2,-3.5 0.1,-5.2 -0.1,-1.8 -0.2,-3.6 -0.7,-5.4 -0.3,-1.1 -0.5,-2.4 -1.1,-3.3 -0.4,-0.6 -1.6,-0.7 -2.4,-0.9 -0.2,0 -0.3,0.3 -0.5,0.6 -0.4,-0.5 -0.7,-1.2 -1.5,-1 -0.5,0.1 -0.4,-0.4 -0.2,-0.7 0.5,-0.6 0.2,-0.8 -0.4,-1.1 -1.8,-0.8 -3.4,-0.1 -5,0.8 -2.1,1.2 -3.1,3.2 -3.7,5.4 -0.8,3 -0.9,6 -0.5,9 0.1,0.8 0.1,1.7 1.2,2 0.1,0 0.2,0.1 0.2,0.2 -0.2,1 0.6,1.2 1.2,1.8 -0.9,0.2 -1.3,0.6 -0.9,1.4 0.1,0.2 -0.1,0.4 -0.3,0.3 -0.8,-0.2 -0.6,0.3 -0.5,0.7 0.4,2.4 1.3,4.7 1.9,7 0.7,2.4 1.4,4.9 2,7.3 0.1,0.5 0.3,0.9 0.5,1.3 0.2,0.5 0.3,0.8 0.9,0.5 0.4,-0.2 0.7,0 0.6,0.4 -0.1,0.7 1,1 0.8,1.3 -0.4,0.6 -0.4,1 -0.1,1.5 0.1,0.3 -0.1,0.4 -0.4,0.3 -1,-0.3 -0.9,0.5 -0.8,1 0.3,1.4 0.4,2.9 0.6,4.4 0.1,1.2 0.2,2.5 0,3.7 -0.2,1.1 0.1,2.1 0,3.1 -0.2,1.7 -0.3,3.4 -0.3,5.1 0,1.7 0.1,1.2 0.8,1.4 0.3,0.1 0.3,0.2 0.2,0.5 -0.1,0.3 -0.1,0.7 0.1,1 0.2,0.4 0.1,0.7 -0.3,0.9 -0.5,0.2 -0.3,0.9 -0.6,1.2 -0.3,0.2 -0.7,-0.1 -1.1,0.3 -1,1 -1.5,2.3 -2.2,3.4 -2.4,3.6 -5.8,5.3 -10.1,5.1 -1.1,0 -2.2,-0.7 -3.3,-0.7 -1.1,0 -1.8,-0.5 -2.7,-0.4 -0.3,0 -0.6,-0.1 -0.7,-0.5 -0.2,-0.5 -0.2,-1.1 -0.8,-1.4 -0.1,-0.1 -0.1,-0.2 -0.1,-0.3 0.4,-1.2 0.2,-2.2 -0.7,-2.9 -0.2,0.3 0.1,0.4 0.2,0.6 0.1,0.2 0.3,0.3 0.2,0.7 -0.5,-0.1 -0.7,-0.5 -0.9,-0.9 -1.7,-2.4 -3.2,-4.8 -4.2,-7.5 -0.4,-1.2 -1.5,-2 -2.6,-2.6 -0.2,-0.1 -0.5,-0.3 -0.1,-0.5 0.7,-0.4 0.5,-0.8 0.2,-1.3 -0.4,-0.5 0,-0.6 0.3,-0.6 0.5,0 0.7,-0.1 0.6,-0.7 -0.1,-3 -0.1,-5.9 -0.3,-8.9 0,-0.7 -0.3,-1.6 -1,-2 -0.4,-0.2 -0.6,-0.4 -0.1,-0.8 0.3,-0.2 0.4,-0.5 0.3,-0.9 -0.2,-0.7 0.1,-0.9 0.7,-0.9 0.6,0 0.4,0 0.4,-0.4 0.6,-2.6 0.5,-5.3 1.2,-7.9 0.2,-0.9 0.2,-1.8 0.2,-2.7 0,-0.9 0,-0.3 -0.1,-0.3 -0.9,0.1 -0.5,-0.5 -0.5,-0.9 0,-0.4 -0.1,-0.6 -0.2,-0.9 -0.2,-0.3 -0.3,-0.6 0.1,-0.7 0.7,-0.2 -0.2,-1 0.4,-1.1 0.4,-0.1 0.9,0.1 1.1,-0.5 0.5,-1.1 1,-2.2 1.3,-3.4 0.1,-0.5 0.2,-1 0.3,-1.5 0.3,0.3 0.1,0.6 0.4,1 0.1,-0.8 0.2,-1.4 0.4,-2.1 -0.9,-0.2 -0.3,-0.7 -0.3,-1.1 0,-0.6 0.2,-1.1 0.3,-1.7 0.1,-0.7 0,-1.4 -0.7,-1.8 -0.2,-0.1 -0.4,-0.2 -0.3,-0.5 0.3,-0.5 0.6,-0.9 0.3,-1.6 -0.1,-0.2 0.2,-0.2 0.4,-0.3 0.7,-0.3 1.3,-0.8 1.7,-1.5 0.3,0.2 0,0.7 0.4,0.9 0.6,-0.6 0.5,-1.4 0.3,-2.1 -0.3,-1.2 0.4,-2.2 0.7,-3.2 0.1,-0.2 0.6,-0.5 0.8,-0.9 0.2,-0.4 0.3,-0.4 0,-0.5 -0.3,-0.1 -0.2,0.3 -0.4,0.4 -0.2,-0.3 -0.1,-0.6 0,-0.8 0.1,-0.4 0.4,-0.9 -0.3,-1.1 -0.2,-0.1 -0.2,-0.3 -0.1,-0.5 0.2,-0.5 0.2,-0.9 -0.3,-1.3 -0.2,-0.1 -0.2,-0.4 0,-0.4 0.6,-0.2 0.6,-0.6 0.5,-1.1 0,-0.2 0.1,-0.3 0.3,-0.3 0.9,0.2 1,-0.5 1.2,-1.1 0.5,-1.6 1,-3.2 1,-4.8 0,-1.6 0.2,-2.1 -1.1,-2.7 0.8,-0.3 1.2,-0.6 0.9,-1.4 -0.1,-0.3 0.2,-0.4 0.4,-0.3 0.3,0 0.5,0.1 0.7,0.2 0.1,-1.1 0.3,-2.1 0.4,-3.1 0.1,-1.2 0.4,-2.3 -0.1,-3.5 -0.2,-0.7 -0.9,-1.1 -0.5,-2 0.1,-0.3 -0.2,-0.9 0,-1.4 0.2,-0.4 -0.4,-0.7 -0.6,-1.2 0.9,0.2 1,-0.4 1,-1 0,-1 0,-2 -0.4,-3 0,-0.1 0,-0.3 -0.1,-0.3 -0.6,-0.4 -0.8,-0.7 -0.5,-1.5 0.2,-0.5 -0.6,-0.3 -0.9,-0.5 -0.1,-0.3 0.1,-0.3 0.2,-0.4 0.8,-0.5 0.7,-1.1 0.3,-1.8 -0.1,-0.2 -0.5,-0.4 -0.1,-0.5 0.6,-0.2 0.5,-0.7 0.6,-1.2 0.1,-1.3 -0.1,-2.6 -0.3,-3.9 -0.1,-0.7 -0.3,-1.4 -1.1,-1.8 -0.2,-0.1 -0.2,-0.2 -0.2,-0.4 0,-0.7 -0.3,-1.2 -0.9,-1.6 0,0 -0.1,0 -0.2,-0.1 0.4,-0.8 -0.5,-1.4 -0.5,-2.1 0,-0.7 0.1,-1.1 -0.1,-1.7 -0.6,-1.5 -1.1,-2.9 -1.8,-4.3 -0.7,-1.4 -0.7,-1.3 -1.7,-0.9 -0.3,0.1 -0.4,-0.2 -0.4,-0.4 -0.1,-0.7 -0.2,-1.4 -1.3,-1.1 -0.3,0.1 -0.5,-0.2 -0.3,-0.5 0.2,-0.2 0.6,-0.5 0.3,-0.8 -1.1,-0.8 -0.5,-2.1 -1.1,-3 -0.6,-1 -1.3,-1.9 -1.9,-2.9 -0.3,-0.5 -0.7,-0.9 -1.1,-1.3 -0.1,-0.1 -0.2,-0.2 -0.3,-0.2 -1,0.4 -1.1,-0.4 -1.5,-1 -0.3,-0.5 -0.4,-0.4 -1.7,-0.5 0.9,-0.9 0.4,-1.6 -0.3,-2.3 -0.2,-0.1 -0.2,-0.3 -0.1,-0.5 0.4,-0.4 0.2,-0.9 0,-1.3 -1,-2.3 -2.6,-4.3 -3.8,-6.5 -0.1,-0.3 -0.3,-0.5 -0.8,-0.2 -0.5,0.4 -0.6,0 -0.6,-0.5 0.1,-0.7 -0.1,-1.1 -0.9,-1.2 -0.4,0 -0.5,-0.2 -0.2,-0.5 0.6,-0.7 0.3,-1.2 -0.4,-1.6 -0.3,-0.2 -0.6,-0.4 -0.1,-0.6 0.7,-0.2 0.4,-0.6 0.3,-1 -0.7,-1.7 -1.3,-3.4 -1.999995,-5.1 -1.5,-3.8 -2.7,-7.7 -3.5,-11.7 -0.1,-0.5 0.1,-1.4 -0.9,-1.3 -0.3,0 -0.2,-0.3 -0.1,-0.5 0.4,-0.6 0.4,-1.2 -0.3,-1.6 -0.4,-0.3 -0.2,-0.4 0,-0.7 0.5,-0.4 0.7,-0.9 0.2,-1.5 -0.1,-0.1 -0.2,-0.3 -0.1,-0.4 1.2,-0.7 0.9,-2 0.9,-3 0.3,-3.6 1,-7.2 1.6,-10.8 0.2,-1 0.4,-2.1 -0.4,-3.1 -0.2,-0.2 0,-0.3 0.2,-0.4 0.2,-0.2 0.6,-0.4 0.5,-0.7 -0.2,-0.9 0.4,-1.3 0.8,-1.9 1.3,-1.4 1.699995,-3.3 2.299995,-5 1.6,-4.6 3.3,-9.2 4.2,-14.1 0.8,-4.3 1.5,-8.6 0.8,-12.9 -0.4,-2.7 -1.2,-5.2 -2.5,-7.6 -1.4,-2.6 -3.299995,-4.7 -5.299995,-6.8 -1.8,-1.9 -3.5,-3.9 -4.8,-6.2 -0.4,-0.7 -0.6,-1.6 -0.9,-2.3 -0.2,-0.4 -0.4,-0.7 -0.9,-0.8 -3,-0.5 -6,-1.1 -8.9,-1.8 -3.2,-0.9 -6.3,-2 -9.3,-3.3 -0.7,-0.3 -1.4,-0.3 -2.2,-0.1 -2.5,0.5 -4,2.1 -5,4.3 -1.5,3.5 -3.1,7 -4.8,10.4 -1.7,3.4 -4.2,6.6 -6.8,9.6 -1.7,1.9 -3.3,3.8 -5.3,5.4 -0.4,0.3 -0.3,0.8 -0.3,1.2 -0.3,5.5 0.5,11 1.7,16.4 0.7,2.9 1.4,5.7 2,8.6 0.5,2.2 1.6,4 3,5.7 0.7,0.9 1.2,1.9 1.5,2.9 0.2,0.6 0.3,1.1 1.2,1.2 -0.6,0.4 -0.6,0.8 -0.4,1.4 1.3,3.2 2.8,6.3 4.5,9.3 0.2,0.3 0.4,0.6 0.7,0.9 1,1.1 1.9,2.3 2.5,3.6 0.2,0.5 0.1,1.1 0.2,1.7 0.6,2.1 1.7,4.1 2.6,6.2 0.9,2.1 1.2,2.7 2,3.9 0.6,1 0.9,2.2 1.9,2.9 0.1,0.1 0.1,0.3 0.1,0.4 -0.2,0.6 -0.2,1.1 0.2,1.6 0.1,0.1 0.2,0.2 0.1,0.3 -0.6,1.2 -0.2,2.5 -0.1,3.7 0.1,2.1 0.4,4.2 1,6.3 0.2,0.7 0.5,1.6 1,2.1 0.6,0.5 0.9,0.8 0.6,1.6 -0.2,0.6 0.6,0.6 1.1,0.8 -0.7,0.4 -1.1,0.8 -0.7,1.6 0.2,0.3 -0.3,0.7 -0.3,1.1 -0.6,2.7 -0.3,5.4 -0.1,8.1 0.1,1.8 0.3,3.6 0.5,5.4 0.1,1 0.5,1.9 0.8,2.9 0.1,0.5 0.5,0.7 1,0.7 -0.2,0.5 -0.7,0.8 -0.6,1.3 0,0.2 -0.1,0.5 0.1,0.6 1.3,0.4 0.3,0.5 -0.1,0.8 -0.5,0.3 -0.5,0.7 -0.2,1.2 0.1,0.2 0.5,0.3 0.5,0.7 -1.4,-0.4 -1.2,0.6 -1.2,1.4 -0.1,2.1 -0.2,4.3 0.7,6.3 0.1,0.4 0.1,0.9 0,1.2 -0.2,0.6 0.8,0.8 0.4,1.2 -0.3,0.4 -0.6,0.7 -0.7,1.2 -0.1,0.3 -0.3,0.6 -0.1,0.9 0.3,0.5 0.9,1 -0.3,0.7 0,0 -0.2,0.2 -0.2,0.4 -0.8,2.2 -1.6,4.4 -1.2,6.8 0.1,0.8 0.3,1.5 0.1,2.3 -0.1,0.6 0.7,0.5 0.9,0.9 -0.1,0.2 -0.2,0.2 -0.4,0.2 -0.3,0 -0.6,-0.1 -0.7,0.2 -0.1,0.3 0.1,0.5 0.2,0.7 0.2,0.2 0.5,0.4 0.3,0.7 -0.2,0.3 -0.4,0 -0.6,-0.1 -0.5,-0.1 -0.6,0.4 -0.7,0.7 -0.1,0.2 -0.4,0.5 0.1,0.7 0.6,0.2 0.3,0.8 0.6,1.1 0.4,0.5 -0.1,0.7 -0.3,1 -0.2,0.7 -0.5,1.4 -0.4,2.3 0.7,3.2 1.6,6.4 2.5,9.6 0.1,0.3 0.2,0.7 0.7,0.8 0.3,0.1 0.7,-0.1 0.8,0.2 0.2,0.6 0.3,1.1 0.6,1.6 0.1,0.1 -0.1,0.3 -0.3,0.4 -0.4,0.3 -0.5,0.6 -0.3,1 0.1,0.1 0.1,0.4 0,0.4 -1.1,0.5 -0.7,1.5 -0.6,2.3 0.3,2.2 0.6,4.4 1.2,6.6 0.1,0.3 0.1,0.7 0.5,0.6 0.7,-0.2 0.6,0.5 0.9,0.8 0.8,0.8 -0.1,1.8 0.3,2.6 0.4,0.8 -0.1,0.3 -0.3,0.3 -0.9,-0.1 -0.9,0.7 -0.8,1.1 0.2,2.7 0.1,5.3 0.6,8 0.1,0.5 0.2,1.1 0.9,1.2 0.3,0 0.5,0.3 0.5,0.6 -0.2,0.8 1,0.9 0.8,1.4 -0.2,0.5 -0.8,0.8 -0.4,1.5 0.1,0.3 -0.2,0.3 -0.4,0.3 -0.6,-0.1 -0.7,0.1 -0.7,0.6 0,3.4 0.3,6.8 0.5,10.3 0,0.2 -0.1,0.5 0.2,0.5 0.2,0.1 0.3,-0.2 0.5,-0.4 1.1,-1.6 1.9,-3.3 2.5,-5.1 0.4,-1.2 0.8,-2.3 1.2,-3.5 0.3,-0.8 -0.4,-1.5 -0.3,-2.3 0,-0.3 -0.4,-0.6 0.2,-0.8 0.2,-0.1 0.2,-0.3 0.1,-0.5 -0.3,-0.7 0,-0.9 0.7,-0.7 0.5,0.1 0.6,0 0.6,-0.6 -0.1,-0.6 0.2,-1.3 0.4,-1.9 0.5,-1.8 0.7,-3.6 0.7,-5.4 0,-1.8 0,-0.9 -0.7,-0.8 -0.4,0.1 -0.5,-0.2 -0.3,-0.5 0.4,-0.5 0.2,-0.8 -0.2,-1 -0.4,-0.3 -0.4,-0.5 0.1,-0.7 0.3,-0.1 0.5,-0.4 0.4,-0.7 -0.2,-0.9 0.1,-0.8 0.7,-0.4 0.1,0.1 0.2,0.1 0.3,0.1 0.3,-2 0.4,-4.1 0.3,-6.1 0,-0.6 -0.1,-1.2 -0.3,-1.8 -0.1,-0.2 -0.1,-0.5 -0.3,-0.4 -0.9,0.2 -0.7,-0.6 -0.9,-1 -0.2,-0.4 -0.1,-0.5 -0.3,-0.7 -0.5,-0.5 -0.5,-0.7 0.2,-0.9 0.1,0 0.1,-0.1 0.1,-0.1 -0.2,-0.8 0.7,-1 0.7,-1.7 0.2,-2.4 -0.6,-4.8 -0.9,-7.1 0,-0.3 -0.1,-0.5 -0.2,-0.8 -0.2,-1.2 -0.3,-1.3 -1.6,-0.9 0.2,-0.9 0,-1.6 -0.8,-2.1 -0.1,-0.1 -0.2,-0.3 -0.1,-0.4 0.4,-0.2 0.7,-0.6 1.2,-0.3 0.2,0.1 0.4,0.4 0.6,0.7 0.1,-0.7 0.6,-0.9 1.1,-1 h -1.6 c -0.3,0 -0.5,0 -0.7,-0.2 -0.1,-0.1 -0.2,-0.3 -0.1,-0.5 0.1,-0.2 0.3,-0.1 0.4,-0.1 0.8,0.3 0.8,-0.2 0.8,-0.7 0.1,-2 -0.2,-3.9 -0.6,-5.8 -0.2,-1.3 -0.6,-2.5 -0.8,-3.8 -0.1,-0.5 -0.3,-0.4 -0.6,-0.4 -0.5,0.1 -0.8,-0.1 -0.6,-0.6 0.1,-0.5 0,-0.8 -0.5,-1 -0.5,-0.2 -0.4,-0.4 0,-0.6 0.3,-0.1 0.5,-0.3 0.5,-0.6 0.1,-0.5 0,-1 0.8,-1 0.8,0 0.2,-0.5 0.3,-0.7 0.4,-1.7 0.6,-3.4 1.2,-5.1 0.5,-1.5 1.2,-2.9 2.4,-4 0.6,-0.5 0.9,-1 -0.1,-1.5 -0.2,-0.1 -0.3,-0.3 -0.2,-0.5 0.1,-0.2 0.3,-0.1 0.5,-0.1 0.3,0 0.6,-0.1 0.5,-0.5 -0.3,-0.7 0.1,-0.6 0.5,-0.4 0.5,0.2 1,0.7 1.2,-0.2 0.1,-0.2 0.4,-0.2 0.5,0 0.5,0.6 1.3,0.6 1.9,0.6 4,0.3 6.1,2.8 7.3,6.3 0.2,0.5 0.3,1 0.4,1.5 0.199995,0.5 0.299995,1 0.999995,0.8 0.1,0 0.3,0 0.3,0.1 0.2,0.6 0.5,1.3 1.1,1.7 0.1,0.1 0,0.3 -0.2,0.4 -0.6,0.4 -0.1,0.9 -0.1,1.3 0,0.6 -0.9,-0.1 -1,0.6 0,0.3 -0.2,0.6 -0.1,0.9 0.2,3 -0.3,5.9 -0.7,8.9 -0.199995,1.6 0.6,2.7 1.3,3.8 0.3,0.4 0.5,0.5 0,0.9 -0.3,0.2 -0.6,0.6 -0.4,0.9 0.3,0.6 0.1,0.7 -0.5,0.8 -0.799995,0.1 -0.899995,0.8 -0.899995,1.4 0,2 0.3,4 1.599995,5.6 0.5,0.6 1.3,0.8 2.1,1 -1.2,0.3 -1.4,0.1 -3.3,-1.7 0.4,1.2 1.6,2.1 2.8,2.2 0.7,0 1.4,0.2 2,-0.1 0.6,-0.3 1.2,-0.6 1.8,-0.9 1.6,-1.1 2.7,-2.5 3.3,-4.4 0.2,-0.5 0.2,-0.9 -0.5,-0.9 -0.7,0 -0.7,-0.3 -0.3,-0.8 0.2,-0.2 0.4,-0.5 0.2,-0.7 -0.5,-0.6 -0.3,-1 0.4,-1.2 0.7,-0.3 -0.2,-1.1 0.2,-1.2 0.5,-0.1 0.8,0 0.9,-0.7 0.7,-4.9 0.5,-9.7 -0.7,-14.5 -0.4,-1.8 -0.8,-3.6 -1.8,-5.2 -0.2,-0.3 -0.3,-1 -1,-0.4 -0.3,0.3 -0.5,-0.2 -0.5,-0.4 -0.1,-0.5 -0.5,-0.6 -0.9,-0.7 -0.6,-0.1 -0.8,-0.4 -0.7,-1 0,-0.3 0,-0.7 -0.1,-0.9 -0.6,-0.8 -0.2,-1 0.6,-1 -1,-2.3 -2.5,-4.1 -4.2,-5.7 -2.499995,-2.3 -5.099995,-4.4 -7.199995,-7.1 -1.1,-1.4 -2.1,-2.9 -3.2,-4.3 -0.3,-0.4 -0.5,-1.3 -1.4,-0.7 -0.5,-0.6 -1.3,-1.1 -1.6,-1.7 -0.1,-0.4 0.2,-1 -0.1,-1.6 -0.3,-0.6 -0.1,-0.4 0.1,-0.5 0.8,-0.2 0.5,-0.7 0.3,-1.1 -0.7,-2 -1.6,-3.9 -2.2,-5.9 -0.8,-2.4 -0.9,-5 -1.2,-7.5 -0.1,-0.7 -0.3,-1.3 -0.9,-1.8 -0.1,-0.1 -0.1,-0.2 -0.2,-0.2 -0.9,0.2 -0.9,-0.6 -1.3,-1.1 -0.5,-0.7 -0.6,-1.3 -0.1,-1.9 0.1,-0.2 0.2,-0.3 0.1,-0.5 -0.2,-0.4 -0.7,-1 0.4,-0.9 0.2,0 0.2,-0.2 0.1,-0.3 -0.1,-0.1 -0.1,-0.4 0.1,-0.4 1,0.1 1.9,-0.9 3,-0.3 0.5,0.3 1.3,0.5 1.4,0.9 0.2,0.5 1.2,0.6 0.7,1.4 -0.2,0.4 0.7,0.3 0.4,0.8 -0.2,0.4 0.3,1.1 -0.6,1.1 v 0.2 c 0,0.5 0.2,1 -0.6,0.7 -0.2,0.7 -0.9,1 -0.9,1.7 -0.1,2.1 0,4.1 0.5,6.2 0.6,2.5 1.7,4.9 2.8,7.2 0.3,0.7 1.1,0.8 1.6,1.3 0.5,0.4 0.8,0.6 0.9,1.4 0.3,1.4 -0.1,3 1.1,4.3 1,1.1 1.8,2.4 2.7,3.6 1.7,2 3.799995,3.5 5.599995,5.3 1.5,1.4 3,2.9 4,4.7 0.2,0.4 0.5,0.8 0.9,1.2 0.4,0.4 0.4,0.5 0.8,0.3 0.3,-0.2 0.5,0.1 0.7,0.3 0.3,0.3 0.6,0.6 1,0.7 0.1,0 0.2,0.1 0.2,0.1 0.1,0.8 0.7,1.7 0.5,2.2 -0.4,1 -0.1,1.8 0.2,2.7 1.1,2.8 1.9,5.7 2.3,8.6 0.4,2.9 0.4,5.8 0.2,8.7 -0.1,0.9 -0.1,1.8 0,2.7 0,0.6 0.1,1.2 1,1.3 0.2,0 0.3,0.1 0.2,0.3 -0.2,0.6 -0.1,1.1 0.3,1.6 0.2,0.2 0.1,0.4 -0.2,0.6 -0.7,0.3 -1.1,0.8 -0.9,1.8 -1.1,-1 -1.3,0 -1.7,0.5 -1,1.7 -2.1,3.4 -4,4.3 -2.1,1 -4.3,1.4 -6.4,-0.1 -0.8,-0.6 -1.199995,-1.3 -1.599995,-2.2 -0.6,-1.6 -0.8,-3.3 -1.1,-5 -0.2,-1.1 -0.6,-2.2 -1.6,-2.9 -0.3,-0.2 -0.3,-0.4 0,-0.6 0.5,-0.2 0.6,-0.6 0.3,-1 -0.3,-0.5 -0.1,-0.6 0.4,-0.4 0.7,0.2 1,0 1.2,-0.8 0.7,-3.3 0.9,-6.7 1,-10 0,-0.4 -0.1,-0.7 -0.2,-1.1 0,-0.1 -0.1,-0.4 -0.2,-0.3 -1,0.5 -0.8,-0.3 -0.9,-0.7 -0.1,-0.3 -0.2,-0.7 -0.4,-0.8 -0.8,-0.3 -0.7,-0.6 -0.1,-1 0.6,-0.4 0.3,-0.8 0.1,-1.3 -0.1,-0.3 -0.2,-0.6 0.3,-0.5 0.5,0.1 0.3,-0.2 0.3,-0.4 -0.5,-1.8 -1,-3.6 -2.4,-4.9 -0.7,-0.6 -1.5,-1 -2.3,-1.2 -0.8,-0.3 -1.8,0.7 -1.7,1.6 0.1,0.4 -0.1,0.5 -0.4,0.4 -0.5,-0.3 -0.8,-0.1 -0.9,0.4 -0.1,0.3 -0.2,0.2 -0.5,0.1 -1,-0.6 -1.8,-0.4 -2.5,0.5 -0.9,1.1 -1.3,2.5 -1.6,3.8 -0.2,0.8 -0.4,1.6 -0.4,2.4 0,0.8 -0.3,1.4 0.6,1.7 0.2,0.1 0.2,0.5 0.3,0.7 0.1,0.4 0.2,0.8 0.7,0.8 0.5,0 0.4,0.1 0.4,0.3 0,0.2 -0.2,0.3 -0.3,0.4 -0.3,0.2 -0.8,0.3 -0.4,0.9 0.2,0.3 -0.2,0.4 -0.4,0.4 -0.7,-0.2 -0.7,0.2 -0.7,0.7 0,2.9 0.6,5.7 1,8.5 0.2,1.2 1.3,1.8 1.7,2.8 0.1,0.2 0.5,0.4 0.3,0.5 -1.1,0.4 -0.2,1.6 -1,2.3 -0.3,0.3 -0.1,1.3 0,2 0.2,2.2 0.5,4.3 0.9,6.4 0.1,0.6 0.2,1.1 1,1.2 0.3,0.1 0.4,0.3 0.4,0.6 0,0.3 0,0.6 0.2,0.8 0.5,0.4 0.7,0.8 -0.2,1.1 -0.1,0 -0.2,0.2 -0.2,0.3 0.3,0.9 -0.9,1 -0.8,1.8 0,0.7 -0.2,1.5 -0.2,2.2 v 4.7 c 0,0.2 -0.1,0.5 0.2,0.5 0.7,0 0.9,0.4 0.9,1 0,0.6 0,0.4 0.1,0.5 0.6,0.5 0.5,0.8 -0.2,1.2 -0.3,0.2 -0.2,0.6 0,0.9 0.1,0.1 0.3,0.3 0.1,0.5 -0.1,0.1 -0.3,0.1 -0.4,0 -0.7,-0.4 -0.9,0.1 -1.1,0.6 -0.6,1.9 -0.7,3.8 -0.9,5.8 0,0.3 0,0.6 -0.1,0.8 -0.3,0.7 -0.4,1.1 0.6,1.1 1,0 0.5,0.2 0.3,0.5 -0.3,0.6 0.1,0.9 0.7,1.2 -0.6,0.4 -1.1,0.7 -0.9,1.4 0,0.2 -0.3,0.3 -0.5,0.3 -0.7,0 -1,0.4 -1.2,0.9 -0.5,1 -0.9,2 -1.2,3.1 -0.7,2.2 -2,4.1 -3.1,6.1 -0.4,0.8 -1,1.6 0.1,2.4 h 0.1 c 0,0.2 -1.1,1.8 -1.1,1.7 -0.7,-0.1 -0.8,0.3 -0.9,0.8 -0.4,3.2 -0.7,6.4 -1.1,9.7 -0.1,1 -0.3,2 -0.5,3 -0.1,0.8 -0.1,1.5 0.6,2 0.2,0.2 0.2,0.4 0.2,0.6 0,0.3 0.1,0.6 0.4,0.9 0.4,0.3 0.3,0.5 -0.1,0.6 -0.1,0 -0.2,0.1 -0.3,0.1 -0.6,0.2 0.2,1.8 -1.2,1.3 -0.6,0.6 -0.7,1.4 -0.8,2.2 -0.6,4.1 -1.2,8.1 -1.7,12.2 -0.1,1.1 -0.2,2.2 -0.2,3.3 0,1.1 -0.1,0.9 0.6,1 0.2,0 0.3,0.2 0.2,0.3 -0.1,0.8 0.4,1.2 1,1.6 0.5,0.3 0.4,0.5 -0.1,0.6 -0.5,0.1 -0.8,0.3 -0.5,0.9 0.1,0.1 0.1,0.3 -0.1,0.4 -1.2,0.2 -0.7,1.1 -0.7,1.7 0,2 0.8,3.8 1.9,5.5 1.1,1.8 2.6,3.4 4.4,4.5 2.7,1.6 4.8,1.2 7.4,-0.3 0.7,-0.4 0.3,-0.9 0,-1.3 -0.4,-0.5 -0.3,-0.6 0.2,-0.8 0.1,0 0.4,-0.1 0.4,-0.2 0,-1.2 0.8,-0.8 1.5,-0.9 0.6,0 1,-0.5 1.3,-1 0.8,-1.4 1.1,-3 1.3,-4.6 0.2,-2.2 0,-4.4 -0.3,-6.6 -0.1,-1 -0.4,-1.9 -0.7,-2.9 -1,-3.2 -1.9,-6.5 -2.4,-9.9 -0.1,-0.5 -0.2,-1.1 -0.9,-1.2 -0.3,-0.1 -0.4,-0.3 -0.4,-0.6 0.1,-0.3 0,-0.5 -0.2,-0.7 -0.4,-0.4 -0.7,-0.7 0,-1 h 0.1 c -0.2,-1.1 0.5,-1 1.1,-1 -0.3,-4 0.4,-7.9 1,-11.7 0.3,0 0.1,0.5 0.5,0.6 -0.5,-1.4 -0.1,-2.6 0.8,-3.6 -0.5,-0.1 -0.4,0.2 -0.7,0.2 0.1,-0.9 0.5,-1.7 0.8,-2.8 0.2,0.7 -0.1,1.2 -0.1,1.8 0.5,-0.8 0.9,-1.6 1,-2.4 0.3,-2.5 1.8,-4.3 3.5,-6 0.1,-1.1 0.3,-1.2 0.5,-1.2 -0.1,0.9 -1.2,1.1 -1.6,2.2 0.8,-0.7 1.3,-1.1 1.9,-1.7 0.3,-0.3 0,-0.4 -0.3,-0.5 h -0.3 z m -43.5,-239.1 c 0.1,-0.4 0,-0.7 -0.5,-0.7 -0.5,0 -0.4,0.1 -0.4,0.3 0,0.5 0.4,0.4 0.7,0.4 h 0.2 c 0.2,0.4 1.3,0.7 1.6,0.5 0.2,-0.1 0.3,-0.3 0,-0.5 -0.6,-0.4 -1.1,-0.1 -1.6,0 z m 19.1,7.4 c 1.4,-0.2 2.3,-1.5 3.8,-1.6 -0.7,-0.7 -1.3,-0.7 -1.8,0.1 -0.3,0.4 -0.7,0.6 -1.1,0.8 -0.4,0.2 -0.7,0.3 -0.9,0.7 -0.6,0.1 -1.1,0.4 -1.4,1 0.6,-0.2 1.3,0 1.4,-1 z m -13.5,-9 c 0.4,0.5 0.9,0.6 1.5,0.6 -0.5,-0.4 -1,-0.6 -1.5,-0.6 -0.6,-0.7 -1.5,-0.6 -2.2,-1 -0.3,-0.1 -0.6,0 -0.9,0.1 -0.2,0.1 -0.3,0.2 -0.2,0.4 0.1,0.2 0.4,0.3 0.5,0.2 0.5,-1 0.9,0 1.4,0 -0.1,0.4 -0.9,0.1 -0.6,0.7 0.2,0.4 0.6,0.1 0.8,-0.1 0.4,-0.3 0.8,-0.3 1.2,-0.3 z m -26.2,93.2 c -0.1,-1 0.1,-2 -0.4,-3 0,0.5 -0.7,0.7 -0.5,1.1 0.3,0.6 0.3,1.4 0.9,1.9 -0.6,1.4 -0.7,2.8 0,4.3 0.5,-0.7 0.8,-2.8 0.5,-2.9 -0.3,0 -0.3,0.4 -0.6,0.4 0,-0.7 0.7,-1.2 0.1,-1.8 z m 49.6,-83.6 c -0.5,0.1 -0.9,-0.4 -1.4,-0.4 -0.1,-0.4 -0.4,-0.6 -0.7,-0.8 -0.4,-0.3 -0.6,-0.7 0.1,-0.8 0.1,0.7 0.6,0.9 1.4,1 -0.4,-0.5 -0.9,-0.8 -1.4,-1 -0.6,-0.5 -1.5,-0.8 -1.9,-1.5 -0.4,-0.6 -1.1,0 -1.5,-0.5 0.3,-0.3 0.4,-0.6 0.2,-1 -0.1,-0.2 -0.3,-0.4 -0.4,-0.2 -0.2,0.4 -0.7,0.9 0.1,1.1 0,0.5 0,1.3 0.1,1.4 1.3,0.8 2.4,1.7 3.8,2.3 1.2,1.1 2.5,1.9 4,2.6 0.2,-1.3 -0.5,-1.7 -1.3,-2.2 -0.3,-0.2 -0.5,-0.4 -0.8,-0.5 -0.2,-0.1 -0.4,-0.3 -0.5,-0.1 -0.1,0.2 0,0.4 0.2,0.6 z m -3,-63.9 c -0.5,-0.3 -1.1,-0.5 -1.3,0.4 0,0 -0.2,0.2 -0.3,0.2 -0.8,0.2 -1,1 -1.5,1.4 0.7,0 1,-0.7 1.6,-0.9 0.5,0 1.2,0 1,-1 h 0.5 c 0.1,0.2 0.2,0.3 0.4,0.2 2.1,-0.9 4.1,-1.8 6.2,-2.6 -1.1,-0.3 -2.3,0.6 -3.3,-0.2 -0.2,0.3 0.3,0.6 0,0.8 -0.6,0.3 -0.8,1 -1.5,1.1 -0.6,0 -1.2,0.4 -1.8,0.7 v 0 z m -14.7,55.6 c -1.8,-1 -3.8,-1.7 -5.8,-2.3 1.1,0.5 2.2,1.1 3.3,1.5 0.9,0.2 1.6,0.7 2.5,0.8 0.1,0.2 0.2,0.4 0.4,0.4 1.4,0.5 2,1.5 2,2.9 0,1.4 0,0.7 0.4,0.8 0.3,-0.6 0,-1.1 0,-1.6 0,-0.5 -0.1,-0.5 0.2,-0.5 0.3,0 0.3,0.2 0.3,0.4 0.1,0.5 0.3,0.9 0.7,1.3 -0.3,0.2 -0.3,0.5 -0.4,0.8 -0.4,0.9 -0.7,1.8 -1.2,2.6 -1.9,2.8 -4.3,5.3 -6.9,7.5 -2.7,2.2 -4.9,4.8 -7.2,7.4 -2.6,3 -4,6.6 -5.4,10.3 -1,2.6 -1.5,5.3 -1.9,8 -0.5,3.3 -0.8,6.6 -1,9.9 -0.1,2.2 0.2,4.3 0.3,6.5 0.2,2.8 0.8,5.6 1.3,8.4 0.6,2.9 1.3,5.7 1.9,8.5 0.3,1.2 0.1,2.5 1.3,3.3 0.2,0.1 0.1,0.3 0,0.5 -0.1,0.2 -0.1,0.4 0,0.6 0.7,1.3 1.1,2.8 1.8,4.1 1,1.8 1.9,3.6 2.9,5.4 0.1,0.2 0.3,0.5 0.2,0.8 -0.4,1.2 1.2,1.8 0.8,2.9 h 0.1 c 0.8,0.6 1.1,1.4 1.5,2.2 1,1.6 2.2,3.2 3,4.9 0.8,1.6 1.9,3.2 2.2,5 0.1,0.4 0.3,0.6 0.6,0.7 0.3,0.1 0.6,0.4 0.3,0.6 -0.8,0.6 -0.2,0.6 0.3,0.7 0.2,0.1 0.4,0.2 0.3,0.4 -0.1,0.5 -0.1,0.8 0.6,0.8 0.7,0 0.2,0.3 0.3,0.4 0.3,0.9 0.8,1.9 1.2,2.8 1.6,3.4 3.1,6.8 3,10.7 v 0.4 c 0.4,0.5 0.8,1 0,1.6 -0.1,0 0,0.2 0,0.3 0.4,0.9 0.6,1.8 0.9,2.7 0.7,2 1.5,3.9 1.7,6 0.2,1.7 0.8,3.3 0.5,5.1 -0.1,0.4 -0.1,0.7 -0.2,1.1 -0.1,0.4 -0.1,0.7 0.4,0.8 0.5,0.1 0.4,-0.4 0.4,-0.7 0,-0.3 -0.1,-0.7 0,-1.1 0.2,-1 -0.6,-2.1 0.3,-3.1 0.1,-0.1 0.1,-0.4 -0.1,-0.4 -0.7,0 -0.5,-0.5 -0.5,-0.8 0,-1.6 -0.5,-3.1 -1,-4.6 -0.2,-0.6 -0.6,-1.1 -0.7,-1.6 -0.1,-1 -0.4,-2 -0.3,-3 0,-0.6 0,-1.3 -0.3,-1.8 -0.4,-0.7 -0.3,-1.3 -0.3,-2.1 0,-0.8 0.4,-1.7 -0.2,-2.4 -0.4,-0.5 -0.6,-0.8 0.1,-1.1 -0.2,-0.3 -0.6,-0.4 -0.7,-0.7 -0.3,-1 -0.9,-1.8 -1.2,-2.8 -1.3,-3.2 -3,-6.3 -4.2,-9.5 -0.4,-1.1 -0.8,-2.3 -1.5,-3.3 -0.8,-1.2 -1.4,-2.5 -2.2,-3.7 -1.1,-1.5 -1.5,-3.4 -2.8,-4.9 -0.1,-0.1 -0.1,-0.3 -0.2,-0.5 -0.8,-1.2 -0.8,-2.7 -1.5,-3.9 -1,-1.6 -1.6,-3.5 -2.5,-5.3 -1.1,-2 -2.2,-4.1 -2.9,-6.3 -0.7,-2.4 -1.2,-4.9 -1.9,-7.3 -0.8,-3.1 -1.3,-6.2 -1.7,-9.4 -0.5,-3.9 -0.6,-7.8 -0.2,-11.7 0.3,-3.1 0.8,-6.1 1.5,-9.1 0.5,-2.2 1,-4.4 1.9,-6.5 1.1,-2.6 2.3,-5.2 4,-7.5 1.6,-2.3 3.3,-4.4 5.2,-6.4 2.7,-2.7 6,-4.9 8.3,-8.1 1.1,-1.6 2,-3.1 2.2,-5 0.3,-0.5 1.1,-1.1 0.3,-1.5 -1.5,-0.9 -2.9,-1.9 -4.5,-2.3 z m 58.899995,-33.1 c 0.3,-1.9 -0.5,-3.6 -1,-5.4 -0.3,0.2 -0.2,0.4 -0.2,0.6 0.2,1 0.4,1.9 0.7,2.9 0.1,0.6 0,1.4 0.5,1.9 -0.1,0.8 -0.1,1.7 0,2.5 0.2,1.6 0.3,3.2 0,4.8 -0.1,1.1 -0.3,2.1 -0.5,3.2 0,0.2 -0.1,0.4 0.1,0.5 0.3,0 0.3,-0.2 0.4,-0.4 0.1,-0.2 0.1,-0.4 0.1,-0.5 -0.1,-0.8 0.1,-1.5 0.3,-2.2 0.1,-0.5 0.2,-1 0.2,-1.5 0,-1.4 -0.2,-2.7 -0.1,-4.1 0.1,-0.8 0.1,-1.6 -0.5,-2.3 z m -22.6,-13.9 c 0.4,-0.2 0.5,-0.6 0.6,-1 0.3,-1.7 0.4,-3.5 0.3,-5.2 0,-0.2 0,-0.5 -0.3,-0.5 -0.3,0 -0.4,0.3 -0.4,0.5 -0.3,1.4 -0.8,2.8 -0.7,4.2 0,0.3 -0.1,0.7 0.2,0.9 0.4,0.4 0.3,0.8 0.3,1.1 -0.6,0 -1,0 -0.7,0.8 0.1,0.3 -0.1,0.6 -0.2,0.9 -0.2,0.4 -0.3,0.8 -0.5,1.2 0.7,-0.8 1.4,-1.7 1.4,-2.9 z m -32.099995,-0.7 c -0.3,-0.4 -0.6,-0.2 -0.9,0 -0.7,0.3 -1,1.1 -1.7,1.4 -0.4,0.2 -0.6,0.3 -0.4,0.7 0.2,0.4 0,0.3 -0.1,0.4 -0.9,0.2 -1.1,1 -1.4,1.7 -0.1,0.2 -0.2,0.3 -0.4,0.4 -1.1,0.5 -1.8,2.1 -1.6,3.2 1.8,-2.9 4.2,-5.2 6.5,-7.8 0.8,-0.9 2.1,-1.4 2.7,-2.8 -0.7,0.3 -0.9,0.9 -1.5,1 -1.4,0.2 -1.5,0.4 -1.2,1.8 z m 18,-13 v 0 c -1.2,-0.3 -2.2,-0.1 -3.1,0.4 h -0.3 c -0.7,0 -1.3,0.2 -1.9,0.5 -0.4,0.2 -0.9,0.4 -1.3,0.3 -0.7,-0.3 -1,0 -1.3,0.6 h -0.2 c -0.3,-0.2 0.3,-0.5 -0.1,-0.7 -0.2,0 -0.3,0.4 -0.3,0.6 -0.1,1.1 -1.1,1.1 -1.8,1.4 -0.4,0.2 -0.6,-0.8 -0.9,-0.2 -0.2,0.4 0.7,0.4 0.7,0.9 -0.5,0 -1,0.3 -1.6,0 -0.6,-0.3 -1,0 -1.3,0.5 -0.1,0.3 -0.1,0.7 -0.5,0.9 -1,0.6 -1.7,1.5 -2.9,1.8 -0.5,0.2 -1.1,0.4 -1.2,1.1 0,0.2 -0.1,0.3 -0.3,0.3 -0.2,0 -0.2,-0.2 -0.2,-0.3 0,-0.2 0.1,-0.4 -0.3,-0.5 -1,2.7 -3.7,3.7 -5.4,5.8 -0.1,-0.3 0,-0.9 -0.4,-0.7 -0.5,0.3 -1.3,-0.4 -1.6,0.4 0.4,0.3 1.7,0 0.6,1 -0.2,0.2 0,0.3 0.1,0.5 0.1,0 0.1,0.4 0,0.4 -0.7,0 -1.2,0.8 -1.9,0.5 -0.3,0 -0.6,0 -0.7,0.3 -0.1,0.3 0.2,0.4 0.4,0.5 0.2,0.1 0.7,0.3 0.3,0.5 -1.1,0.6 -1.2,1.9 -1.9,2.7 -0.2,0.2 -0.2,0.5 -0.5,0.4 -0.3,-0.2 -0.2,-0.5 -0.1,-0.7 0.1,-0.4 0.4,-0.8 0.1,-1.3 -0.3,0.6 -0.4,1.2 -0.8,1.5 -0.7,0.5 -0.9,1.2 -0.6,2 0.1,0 0,0.2 -0.1,0.3 h -0.2 c -0.3,-0.2 -0.4,-0.7 -0.8,-0.3 -0.4,0.5 0,0.7 0.4,0.8 0.3,0 0.3,0.3 0,0.5 -0.4,0.2 -0.4,0.5 -0.1,0.9 0.2,0.2 0.1,0.4 -0.1,0.5 -0.2,0 -0.3,0 -0.4,-0.2 -0.1,0 -0.1,-0.4 -0.4,-0.3 -0.2,0 -0.2,0.3 -0.1,0.5 0.1,0.5 -0.1,0.9 -0.2,1.4 -0.1,0.2 -0.1,0.6 -0.3,0.4 -0.7,-0.5 -0.8,0 -1.2,0.4 -0.4,0.4 -0.7,0.8 -0.7,1.4 0,0.6 0.1,0.6 -0.4,0.3 -0.2,0 -0.3,0 -0.2,0.2 0.1,0.5 0,0.9 -0.4,1.2 -0.1,0 -0.1,0.4 0.1,0.5 0.2,0 0.3,0 0.4,-0.2 0.2,-0.3 0.3,-0.7 0.8,-0.8 -0.8,1.5 -1.1,3.3 -2.3,4.5 -0.4,-0.5 -0.7,-0.9 -0.7,-1.8 -0.2,0.5 -0.2,0.7 -0.3,1 -0.1,0.2 -0.5,0.3 -0.5,0.6 1.2,0.7 1.3,0.9 0.4,1.9 -0.2,0.3 -0.2,0.4 0,0.7 0.1,0 0.3,0.3 0,0.6 -0.5,-0.7 -1,-0.6 -1.3,0 -0.2,0.5 -0.4,0.9 -0.9,1.1 v 0 c 0.7,0.7 -0.2,0.8 -0.4,1.1 -0.1,0.3 -0.2,0.6 0,0.8 0.3,0.2 0.5,0 0.6,-0.3 0.2,-0.2 0.2,-0.6 0.3,-0.8 0.1,-0.2 0.2,-0.3 0.4,-0.2 0.2,0 0.2,0.3 0.1,0.4 -0.2,0.6 -0.7,1.2 -0.8,1.9 0,0.3 -0.3,0.4 -0.6,0.2 -0.5,-0.4 -0.5,0 -0.8,0.3 -0.3,0.5 -0.3,1 -0.5,1.5 -0.1,0.3 0.1,0.8 0.4,0.7 0.8,0 0.4,0.2 0.3,0.6 -0.1,0.5 -0.3,0.9 -0.9,0.9 -0.6,0 -0.4,0 -0.3,0.3 0.4,0.5 0.1,0.8 -0.3,1.1 -0.3,0.2 -0.1,0.5 0,0.7 0.3,0.5 0.4,1.1 0.1,1.6 -0.5,0.8 -1.3,1.3 -1.5,2.3 -0.1,0.5 -0.2,0.7 0.1,1 0.7,0.7 1,0.7 1.9,0 1.1,-1 1.4,-2.4 1.8,-3.6 1.4,-3.9 2.8,-7.9 4.3,-11.9 1.5,-4 3.4,-7.8 5.6,-11.4 2.8,-4.5 6.2,-8.6 9.9,-12.4 2.2,-2.3 4.8,-4.2 7.5,-5.9 1.1,-0.7 2.3,-1.1 3.1,-2.1 0.5,-0.2 1.1,-0.3 1.6,-0.6 1.7,-0.9 3.5,-1.6 5.2,-2.3 1.6,-0.7 2.7,-0.7 3.6,-1.3 h 0.9 c 2.4,-0.8 5,-0.7 7.5,-0.7 2.5,0 0.5,0 0.8,-0.2 -0.3,-0.2 -0.7,0 -1,-0.2 -2.5,-0.3 -4.9,0.4 -7.4,0 -0.3,0 -0.8,-0.3 -0.8,0 -0.1,0.5 0.5,0.2 0.8,0.3 0.1,0 0.2,0 0.2,0.2 -0.4,0.3 -0.8,0.2 -1,0.6 v 0 z m 2,37.9 c 0.6,-0.4 1,-0.8 1.3,-1.5 0.7,-1.3 1.5,-2.6 2.3,-3.9 0.6,-0.9 1.1,-1.8 1.6,-2.7 1.3,-2.2 2.8,-4.3 4,-6.5 0.999995,-1.7 1.799995,-3.5 2.999995,-5.2 0.7,-1 1.3,-2.2 1.9,-3.4 0.4,-1 0.9,-2 1.5,-2.8 0.6,-0.8 0.3,-0.9 0.1,-1.4 -0.1,-0.3 -0.4,-0.4 -0.6,0 -0.5,1 -1.1,2 -1.6,3 -0.7,1.4 -1.2,2.9 -2,4.3 -1.3,2.2 -2.599995,4.3 -3.799995,6.5 -0.7,1.2 -1.3,2.6 -2.1,3.7 -0.8,1.1 -1.5,2.4 -2.2,3.6 -1.1,1.8 -2.5,3.4 -3.4,5.3 -0.2,0.4 -0.3,0.7 0,1 -0.6,0 -0.9,0 -1.2,0.7 -0.4,0.9 -0.9,1.8 -1.4,2.6 -1.3,1.8 -2.3,3.6 -3.4,5.5 -1.5,2.6 -3.6,4.8 -4.7,7.8 v 0.2 c -0.7,0.2 -0.4,0.5 -0.2,0.8 0.3,0.5 0.5,0 0.8,0 0.5,-0.4 0.8,-0.8 1.1,-1.4 0.8,-1.5 1.6,-2.8 2.4,-4.3 0.9,-1.6 2.3,-2.9 2.6,-4.8 0,-0.2 0.1,-0.3 0.3,-0.3 0.4,0 0.5,-0.3 0.6,-0.6 0.9,-1.6 1.9,-3.2 2.8,-4.8 0.4,-0.4 0.5,-0.8 0.3,-1.3 v 0 z m -28.3,-15.1 c -0.5,-0.2 -0.3,-0.6 -0.5,-1 -0.4,1.1 -2,1 -1.9,2.5 0,0 -0.1,0.3 -0.2,0.4 -0.6,0.4 -1,0.9 -0.6,1.7 0.1,0 0.1,0.3 -0.1,0.4 h -0.4 c -0.1,0 -0.1,-0.4 -0.4,-0.3 -0.1,0.6 0.5,0.9 0.5,1.5 -0.6,0 -1.1,0.2 -1.4,0.8 -0.4,0.8 -0.5,1.7 -1.4,2.2 -0.1,0 -0.1,0.2 0,0.3 0.6,0.6 0.1,0.8 -0.4,1 -0.3,0.2 -1.2,1.7 -1.1,1.8 1.1,0.8 0,1.3 -0.2,2 -0.1,0.2 0.1,0.7 -0.1,0.6 -0.7,-0.2 -0.4,0.2 -0.4,0.5 -0.1,0.6 -0.3,1.2 -0.1,1.8 v 0.3 c -1.4,-0.3 -0.4,0.4 -0.4,0.7 0,0.3 -0.1,0.4 -0.3,0.5 -0.2,0.1 -0.3,0.3 -0.3,0.6 0.1,0.7 -0.4,0.5 -0.8,0.4 0,0.4 0,0.7 -0.4,0.8 -0.3,0 -0.4,0.5 -0.4,0.8 0,0.3 0,0.5 0.2,0.5 0.9,0.2 0.3,0.8 0.1,1 -0.4,0.7 -0.3,-0.5 -0.7,-0.3 v 0.2 c -0.7,0.5 0.3,1.6 -0.8,1.9 v 0.2 c 0,0.3 0.2,0.5 0.5,0.6 0.4,0 0.4,-0.3 0.5,-0.5 1.2,-2.3 2,-4.7 2.9,-7.1 1,-2.8 2.1,-5.5 3.5,-8.2 1.1,-2.2 2.4,-4.4 3.7,-6.5 0.6,-0.6 1.2,-1.2 1.4,-2 1,-0.7 1.1,-1.2 0.8,-2 -0.1,-0.2 0.1,-0.5 -0.3,-0.4 -0.3,0 -0.3,0.3 -0.3,0.6 0,0.5 -0.2,1.1 -0.2,1.8 v 0 z m 52.899995,180 c 0.7,1.1 1,2.4 1.6,3.6 0.3,0.7 0.7,1.5 1.2,2 0.9,0.9 1.9,1.6 2.4,2.7 0.8,1.7 1.8,3.4 2.2,5.3 0.1,0.4 0.2,0.7 0.5,0.9 0.1,0.1 0.3,0.1 0.4,0 0.1,-0.1 0.2,-0.3 0.1,-0.4 -0.5,-0.5 -0.5,-1.2 -0.8,-1.8 -1.7,-2.9 -2.3,-6.3 -4.8,-8.7 -0.1,-1.1 -1.2,-1.6 -1.6,-2.5 -0.3,-0.4 -0.6,-0.9 -1.2,-1.1 0,-0.3 0,-0.6 -0.2,-0.8 -1.2,-1.7 -2.5,-3.4 -3.5,-5.3 -1.1,-2 -2.8,-3.7 -3.9,-5.8 -0.8,-1.5 -1.8,-2.8 -2.6,-4.3 -1.2,-2.2 -2,-4.6 -2.9,-6.9 -0.4,-1.2 -0.9,-2.3 -0.8,-3.6 0,-0.2 -0.1,-0.4 -0.2,-0.5 -0.499995,-0.5 -0.599995,-1.2 -0.999995,-1.8 -1,-1.5 -1.4,-3.3 -1.7,-5.1 -0.3,-1.7 -0.9,-3.4 -0.8,-5.1 0.1,-2.5 0.2,-5.1 0.4,-7.6 0,-0.3 0.1,-0.6 0.2,-0.9 0.3,-0.4 0.3,-0.9 0.3,-1.4 0,-1.7 -0.4,-3.4 0.2,-5 0.1,-0.3 0.1,-0.8 -0.2,-1.2 -0.2,0.8 -0.4,1.5 -0.5,2.2 -0.6,3.3 -0.7,6.7 -1.2,10.1 -0.1,0.6 0.5,1.3 -0.4,1.7 v 0.2 c 0.9,0.5 -0.4,1.6 0.6,2 -0.4,0.8 0.2,1.5 0.3,2.3 0.4,2.1 1,4.2 1.6,6.3 0.7,2.6 1.799995,5.2 2.799995,7.7 0.8,2.1 1.4,4.3 2.4,6.3 0.8,1.5 2,2.9 2.8,4.4 0.6,1.1 1.4,2.1 1.9,3.3 0.5,1.1 1.5,2 1.2,3.3 v 0 c 0.5,0.3 1.5,0.1 0.8,1.2 0.8,0 0.9,0.9 1.6,1.2 0.6,0.2 1,0.7 1.4,1.3 0.4,0.6 0.6,1.4 1.4,1.8 z M 97.547255,73.825 c -0.3,0 -0.4,0.4 -0.6,0.6 -1.9,3 -3.7,6.1 -5.6,9.1 -2.3,3.9 -4.7,7.8 -7,11.7 -2.2,3.7 -3.7,7.6 -4.4,11.8 -0.1,0.4 -0.2,0.8 0.1,1.2 0.4,-1.4 0.7,-2.7 1,-4.1 0.4,0.3 0.1,0.8 0.5,1 0.6,-0.6 0.9,-0.4 1,0.4 0,0.2 0.1,0.4 0.3,0.3 0.3,-0.1 0.2,-0.3 0.1,-0.5 -0.2,-0.8 -1,-1.1 -1.3,-1.8 -0.2,-0.3 -0.4,-0.5 -0.3,-0.8 0.4,-1 0.7,-2.1 1.2,-3.1 0.1,0 0.1,-0.5 0.4,-0.3 0.2,0 0.6,0 0.5,0.5 -0.1,0.3 0,0.7 -0.3,0.9 -0.3,0.2 -0.2,-0.3 -0.5,-0.3 -0.1,0.4 -0.6,0.7 -0.1,1.1 0.2,0.2 0.5,0 0.7,-0.2 0.7,-0.7 1.1,-1.6 1.9,-2.2 0.2,-0.2 0.1,-0.4 -0.1,-0.5 -0.3,-0.2 -0.5,-0.5 -0.1,-0.7 0.4,-0.2 0.5,0.2 0.6,0.5 0.2,0.4 0.4,0.7 1,0.7 -0.3,-0.6 -0.6,-1.1 -0.9,-1.7 -0.1,-0.2 -0.3,-0.4 -0.1,-0.6 0.2,-0.2 0.4,0 0.6,0 0.5,0.2 1.1,0.3 1.6,0.5 0.4,-1.3 0.1,-2.9 1.9,-3.6 -0.6,-0.3 -1.1,-0.7 -1.5,0.2 -0.1,0.2 -0.2,0.3 -0.4,0.2 -0.2,0 -0.3,-0.2 -0.3,-0.3 0,-0.5 0,-1.1 0.4,-1.4 0.4,-0.4 0.7,0 1.1,0 0.4,0.2 0.8,0.3 1.2,0 0.3,-0.3 0.1,-0.6 -0.1,-1 -0.3,-0.4 -0.2,-0.7 0.4,-0.8 1.1,0 2.1,0 3.1,0.5 0.5,0.2 1,0 1.1,-0.4 0.2,-0.5 -0.4,-0.4 -0.6,-0.5 -0.8,-0.3 -1.7,-0.4 -2.5,-0.8 -0.8,-0.4 -0.5,-0.3 -0.4,-0.6 0.1,-0.3 0.4,-0.2 0.7,0 0.3,0.2 0.5,0.3 0.8,0.4 h 0.7 c 0.3,-0.2 0.1,-0.4 0,-0.6 -0.2,-0.4 0.1,-0.6 0.5,-0.7 h 1 c 0.4,0 0.7,0.2 0.8,-0.3 0.1,-0.4 -0.3,-0.5 -0.6,-0.5 -0.6,0 -1,0 -1.4,-0.4 -0.2,-0.2 -0.8,-0.2 -0.5,-0.7 0.2,-0.4 0.7,-0.3 1,0 0.4,0.4 0.8,0 1.1,0 0.3,0 0.7,-0.3 0.3,-0.7 -0.4,-0.4 -0.5,0 -0.7,0.2 -0.1,0 -0.2,0.2 -0.4,0.2 -0.2,0 -0.2,-0.2 -0.1,-0.3 0.4,-0.6 0,-0.8 -0.4,-1 -0.4,-0.2 -0.4,-0.3 -0.3,-0.6 0.1,-0.3 0.3,-0.5 0.6,-0.5 0.3,0 0.4,0 0.5,0.4 0.1,0.2 0.2,0.7 0.5,0.4 0.5,-0.4 0.9,0 1.5,0 -0.4,-0.9 0,-1.7 0.1,-2.5 0.1,-0.4 0.3,-0.8 0.7,-0.7 0.4,0 0.2,0.5 0.2,0.8 v 1.2 c 0.1,1 -0.3,1.6 -1.3,1.8 -0.2,0 -0.4,0 -0.4,0.4 0.1,0.3 0.3,0.3 0.6,0.3 0.3,0 0.5,-0.6 0.7,0 0.1,0.3 0.5,0.8 0,1.2 -0.3,0.2 -0.2,0.5 -0.1,0.7 0.3,0.5 0.3,1 0.2,1.6 -0.1,0.8 0.2,1.4 0.4,2.1 0.3,-6.6 0.6,-13.1 0.9,-19.7 -0.3,0.7 -0.5,1.4 -1.1,1.9 v 0.7 0 z m -11.2,-22.4 c -0.4,0 -0.6,-0.4 -1.1,-0.2 -3.3,1.4 -6.4,3.1 -9.3,5.3 -3.1,2.4 -5.6,5.4 -8.1,8.4 -1.1,1.3 -2.1,2.7 -3.1,4.1 -1.2,1.5 -2.2,3.1 -3.2,4.8 -1.2,2 -2.3,4 -3.4,6.2 -1.1,2.2 -2.1,4.5 -2.9,6.9 -1,3 -1.7,6.1 -2.4,9.2 -0.3,1.4 -0.4,1.4 1,1.9 0.2,0 0.4,0.2 0.7,0.3 3.1,1.1 6.2,2 9.2,3.3 2.7,1.1 5.4,2.2 8.1,3.4 0.5,0.2 0.7,0.2 1.1,-0.2 0.4,-0.6 0.9,-1 1.4,-1.5 1.8,-1.8 3.4,-3.9 4.8,-6 1.5,-2.2 2.8,-4.5 4.2,-6.8 2.2,-3.6 4.5,-7.1 6.7,-10.7 2.7,-4.4 5.4,-8.9 8.1,-13.3 0.5,-0.9 1.2,-1.8 1.3,-2.8 0.2,-2.3 0.699995,-4.4 0.899995,-6.7 0.2,-2 0.4,-4.1 -0.1,-6.1 -0.2,-0.9 -0.999995,-1.7 -1.999995,-1.7 h -4 c -0.3,0 -0.7,0 -0.8,0.6 1.8,-0.4 3.5,-0.4 5.2,-0.3 v 0.3 h -2.5 c 0.8,1.1 1.9,0.8 2.6,0.5 0.9,-0.4 0.8,0 1,0.5 0.1,0.3 0.2,0.6 0,1 -0.5,-0.8 -1.2,-0.6 -1.9,-0.4 -0.4,0 -0.8,0.3 -1.1,0.3 -1.8,0 -3.6,0.7 -5.3,0.2 -1.2,-0.3 -2.3,0.4 -3.5,-0.2 -0.3,0 -0.5,0 -0.7,0.3 -0.2,0.3 -0.4,0.5 -0.6,0.8 -0.3,0.4 -0.5,0.3 -0.8,0 -0.3,-0.3 -0.3,-0.5 0.1,-0.7 0.3,-0.3 0.4,-0.6 0.4,-0.8 0.3,0 0.7,0 0.8,-0.4 0,-0.3 -0.3,-0.3 -0.5,-0.3 -0.5,0 -0.3,0.4 -0.3,0.7 v 0 z m -18,174.8 c 1,-0.4 0.8,-1.3 0.7,-2 -0.7,-3.6 -2,-7 -3.5,-10.3 -0.2,-0.4 -0.5,-0.9 -1.1,-0.6 -0.3,0.1 -0.6,0 -0.4,-0.4 0.4,-0.8 0.1,-1.1 -0.7,-1.2 -0.3,0 -0.7,-0.1 -0.4,-0.5 0.4,-0.6 0.2,-1 -0.4,-1.3 -0.3,-0.1 -0.5,-0.3 -0.1,-0.5 0.1,-0.1 0.2,-0.2 0.2,-0.4 -0.3,-0.8 -0.3,-1.7 -0.7,-2.4 -1.2,-2.4 -2.5,-4.8 -4.1,-7 -0.2,-0.3 -0.4,-0.6 -0.8,-0.2 -0.4,0.4 -0.3,0.3 -0.4,0.1 -0.1,-0.1 -0.1,-0.3 -0.1,-0.5 0.2,-0.8 0.1,-1.4 -1,-1.3 -0.3,0 -0.6,-0.1 -0.4,-0.5 0.4,-0.6 0.3,-1.1 -0.4,-1.4 -0.1,-0.1 -0.3,-0.1 -0.3,-0.3 0,-0.2 0.2,-0.3 0.4,-0.3 0.3,-0.1 0.4,-0.3 0.4,-0.6 -0.2,-1 -0.4,-1.9 -0.9,-2.8 -1.2,-2.4 -2.6,-4.7 -3.6,-7.2 -0.2,-0.5 -0.2,-1.3 -1,-1.2 -0.2,0 -0.2,-0.2 -0.1,-0.4 0.2,-0.4 0,-0.8 -0.2,-1.1 -0.3,-0.7 -0.6,-1.3 -0.5,-2.1 0.1,-1.7 -0.5,-3.3 -0.9,-4.9 -1.3,-5.6 -2.5,-11.3 -2.7,-17.1 0,-0.2 0,-0.5 -0.2,-0.5 -0.2,-0.1 -0.3,0.2 -0.5,0.4 -1.2,1.7 -2.4,3.3 -3.5,5.1 -0.5,0.8 -1,1.7 -1.1,2.7 0,0.9 -0.1,0.9 -0.4,1.6 -0.3,1 -0.9,1.6 -1.6,2.4 -0.9,1 -1.1,2.4 -1.6,3.6 -0.6,1.8 -0.9,3.7 -1.2,5.5 -0.1,0.7 0.3,1.3 0.3,2 -0.1,1 0.6,2 0,2.9 -0.1,0.1 0.1,0.3 0.1,0.4 0,0.2 0.1,0.3 -0.1,0.4 -0.9,0.5 -0.8,1.4 -0.8,2.1 -0.1,1.7 0.1,3.5 0.1,5.2 0.1,3.1 0.7,6 2.3,8.7 0.1,0.1 0.1,0.2 0,0.3 -0.7,0.6 -0.1,1.1 0.2,1.6 0.1,0.2 0.4,0.4 0.1,0.5 -1.1,0.5 -0.8,1.4 -0.6,2.1 0.4,1.7 0.8,3.3 1.3,5 0.8,2.7 1.6,5.4 4,7.2 0.1,0.1 0.1,0.2 0,0.3 -0.5,1.2 -0.1,2.4 0.1,3.6 0.5,3.3 2.7,5.8 4.1,8.7 0,0 0.2,0.2 0.3,0.2 0.1,0.1 0.2,0.2 0.1,0.3 -0.5,0.6 -0.1,1.1 0.3,1.5 0.1,0.1 0.3,0.3 0.1,0.4 -0.7,0.5 -0.2,1 0,1.4 0.5,1.5 0.7,3.2 2.2,4.2 0.1,0 0.1,0.2 0.1,0.2 0.1,1 0.8,1.7 1.1,2.7 0.1,0.6 0.1,1.1 0.2,1.7 0.4,1.7 1.3,3.2 2.1,4.8 0.2,0.4 0.5,1.1 1.3,0.9 0.2,0 0.2,0.2 0.2,0.4 0.1,0.8 0.4,1.4 1.4,1.3 0.1,0 0.3,0.1 0.4,0.3 -0.1,0.4 -1.1,0.3 -0.7,0.8 0.5,0.6 0.5,1.2 0.6,1.8 0.3,1.5 1.2,2.9 1.8,4.3 0.9,1.9 1.8,3.9 4.1,4.6 -1.1,1.9 1.1,1.8 1.7,2.7 -0.1,0 -0.2,0.1 -0.3,0.1 -0.7,-0.1 -1,0.2 -0.7,0.9 0.9,2.6 2.2,4.9 3.4,7.3 0.2,0.3 0.3,0.6 0.1,1 0.6,-0.6 1.1,-0.9 1.4,0.1 0,0.1 0.2,0.2 0.3,0.3 0.5,0.3 1.4,0.5 0.5,1.3 -0.1,0.1 0,0.3 0.1,0.5 0.1,0.2 0.3,0.5 0,0.6 -0.5,0.4 -0.2,0.7 -0.1,1.1 0.5,1.7 1.4,3.2 2,4.8 0,0.1 0.1,0.3 0.3,0.3 0.2,0 0.2,-0.1 0.3,-0.2 0.1,-0.3 0.3,-0.7 0.1,-1 -0.2,-0.3 -0.1,-0.5 0.2,-0.6 0.2,-0.1 0.3,-0.4 0.4,-0.6 0.8,-1.6 0.7,-3.4 1.2,-5.1 0.2,-0.5 0,-1 -0.7,-1.1 -0.2,0 -0.4,-0.1 -0.4,-0.3 0,-0.2 0.2,-0.3 0.4,-0.3 0.4,-0.1 0.7,-0.1 0.5,-0.7 -0.1,-0.5 -0.4,-0.5 -0.8,-0.5 -0.4,0 -0.7,0.1 -0.8,-0.2 -0.1,-0.3 0.4,-0.4 0.6,-0.5 0.8,-0.3 1,-0.8 0.6,-1.5 -0.2,-0.5 -0.9,-1 0.2,-1.2 0.1,0 0.2,-0.2 0.1,-0.2 -0.6,-0.9 0.3,-1.4 0.6,-2 0.1,-0.1 0.1,-0.3 0.1,-0.4 0,-0.9 0.1,-1.9 0,-2.8 -0.2,-1.1 0.1,-2.3 -1,-3.2 -0.1,-0.1 -0.1,-0.2 0,-0.3 0.7,-0.8 0.1,-1.5 -0.4,-2.1 0.3,-0.2 0.8,-0.3 0.6,-0.7 -0.3,-0.8 0,-1.4 0.3,-2.1 0.4,-1.1 0,-2.3 0.1,-3.4 0.1,-1.1 -0.1,-2.2 -0.2,-3.2 0,-0.4 -0.2,-0.7 -0.6,-0.8 -0.3,0 -0.5,-0.2 -0.2,-0.5 0.5,-0.6 0.3,-1 -0.5,-1.2 -0.2,0 -0.4,-0.1 -0.4,-0.3 0,-0.2 0.1,-0.3 0.3,-0.4 0.6,-0.1 0.6,-0.5 0.6,-1 0,-0.5 -0.1,-0.7 0,-1 0.5,-1.8 0.4,-3.7 0,-5.5 -0.4,-2.3 -0.6,-4.7 -1.9,-6.8 -0.2,-0.3 -0.3,-0.7 -0.8,-0.6 -0.2,0 -0.4,0.1 -0.5,-0.1 -0.1,-0.2 0.1,-0.3 0.2,-0.5 0.5,-0.7 0.4,-1 -0.4,-1.4 -0.1,-0.1 -0.3,-0.1 -0.3,-0.3 1.1,0 1.2,-0.5 0.2,-1.6 z m 6.1,74 c -0.4,0.2 0.2,0.9 -0.4,0.8 -0.5,0 -0.4,-0.6 -0.5,-1 -0.3,-1.3 -0.7,-2.7 -0.9,-4 -0.2,-1 -0.9,-0.6 -1.4,-0.5 -0.6,0.1 -0.5,0.6 -0.3,1 0.2,0.4 0.3,0.6 -0.2,0.5 -0.6,-0.2 -0.8,0.2 -1,0.6 -0.8,2.5 -1.4,5 -1.9,7.6 -0.2,1 0.3,1.9 0.8,2.7 0.3,0.4 0.5,0.6 -0.1,1 -0.3,0.2 -0.4,0.6 -0.2,0.9 0.1,0.2 0.3,0.3 0.1,0.5 -0.2,0.1 -0.3,0 -0.5,-0.1 -0.5,-0.2 -0.8,-0.2 -0.8,0.5 0,0.7 -0.3,0.4 -0.4,0.2 -0.6,-0.7 -0.7,-0.1 -0.9,0.3 -0.2,0.5 -0.5,0.9 -0.6,1.4 -0.4,1.2 -1,2.4 -1,3.7 0,1.3 -0.3,1.5 0.8,1.6 0.2,0 0.3,0.2 0.2,0.4 -0.3,0.3 -0.9,0.5 -0.4,1.1 0.6,0.7 -0.9,0.4 -0.6,1 v 0 c 0.1,0.6 -0.1,0.8 -0.6,0.6 -0.6,-0.2 -0.8,0.1 -1,0.6 -0.6,1.9 -1.2,3.7 -1.7,5.6 -0.3,1.2 -0.5,2.5 0.6,3.5 0.3,0.2 0.1,0.5 -0.2,0.7 -0.4,0.3 -0.6,0.6 -0.4,1.1 0.2,0.6 -0.1,0.6 -0.5,0.4 -0.3,-0.2 -0.6,-0.3 -0.7,0.1 -0.2,0.5 -0.6,1 -0.7,1.6 -0.2,1.8 -0.6,3.7 -0.6,5.6 0,1.9 -0.6,1.6 0.7,1.8 0,0 0.1,0.1 0.1,0.2 0,0.8 0.6,1 1.3,1.2 0.4,0.1 0.4,0.4 0,0.5 -0.6,0.2 -0.7,0.6 -0.4,1.1 0.1,0.2 0.2,0.7 -0.2,0.6 -0.9,-0.2 -0.7,0.4 -0.7,0.8 0.1,3.7 2,6.3 5.1,8.2 0.3,0.2 0.7,0.8 0.9,-0.2 0,-0.2 0.4,-0.1 0.5,-0.1 0.3,0.1 0.5,0.1 0.7,-0.2 0.5,-0.7 0.9,-0.1 1.2,0.2 0.5,0.3 1,0 1.5,0.4 v 0 c 0,0.5 0.3,0.7 0.7,0.6 3.6,-0.8 5.8,-3.2 7.3,-6.4 0.3,-0.5 0.4,-1.4 -0.1,-1.9 -0.5,-0.5 -0.8,-0.8 0.1,-1.1 0.2,-0.1 0.2,-0.4 0.1,-0.6 -0.3,-0.7 0.1,-0.6 0.5,-0.5 0.2,0 0.4,0.1 0.5,0.1 0.2,0 0.4,-0.1 0.5,-0.3 0.1,-0.3 -0.2,-0.3 -0.4,-0.3 -0.3,0 -0.3,-0.2 -0.3,-0.3 0.1,-0.5 -0.1,-0.6 -0.6,-0.7 0.6,-0.3 0.8,-0.8 0.7,-1.3 -0.3,-2 -0.1,-4 -0.4,-6 -0.2,-1.2 0.3,-2.8 -1.2,-3.6 -0.1,0 -0.1,-0.2 -0.1,-0.2 0.1,-0.5 -0.1,-0.9 -0.5,-1.2 -0.4,-0.3 -0.4,-0.6 0.1,-0.7 0.3,-0.1 0.5,-0.2 0.3,-0.5 -0.3,-0.5 -0.8,-0.9 0.3,-1 0.3,0 0.2,-0.4 0.2,-0.6 0.1,-2.8 -0.3,-5.6 -0.7,-8.4 -0.1,-0.5 -0.2,-1 0.3,-1.6 -0.3,0.1 -0.5,0 -0.6,0.1 -0.7,0.4 -1,0.2 -0.8,-0.6 0.1,-0.4 -0.1,-0.5 -0.4,-0.6 -0.3,-0.1 -0.6,-0.4 -0.2,-0.6 0.4,-0.3 0.4,-0.5 0.2,-0.8 -0.2,-0.3 0.1,-0.4 0.3,-0.5 0.2,0 0.5,0.1 0.7,-0.2 -0.2,-0.2 -0.3,-0.5 -0.3,-0.9 -0.2,-2.8 -0.9,-5.4 -1.3,-8.2 -0.1,-0.4 -0.3,-0.6 -0.7,-0.7 -0.4,0 -0.7,-0.2 -0.6,-0.6 0.2,-0.6 0,-1 -0.6,-1.2 -0.1,-0.1 -0.3,-0.3 -0.1,-0.3 0.8,-0.2 0.9,-0.9 1,-1.5 0,-0.1 0.3,-0.1 0.4,-0.1 0.9,-0.1 1.3,-0.6 1,-1.3 z m -25.3,-151.2 c 4.8,-3 13.6,-20 13.1,-25.3 -5.8,3.2 -13.7,18.4 -13.1,25.3 z m 8.2,-46.9 c -2,-0.7 -4,-1.1 -6,-1.6 -1,-0.2 -1.7,-0.2 -2.5,0.5 -2.7,2 -5.9,2.9 -9.3,3.1 -1.5,0.1 -3,0.1 -4.6,-0.1 -3.1,-0.3 -6.2,-0.2 -9.1,1.2 -2,1 -3.6,2.6 -5.7,3.4 -0.1,0 -0.2,0.2 -0.2,0.3 -0.1,0.4 -0.4,0.4 -0.7,0.3 -0.5,-0.3 -0.8,0 -1.1,0.4 -0.3,0.4 -0.6,0.8 -0.9,1.2 -1.7,1.9 -3.1,4.1 -4.2,6.4 -2,4 -3.7000003,8.1 -4.7000003,12.5 -0.5,2.4 -1.1,4.8 -1.6,7.2 -0.3,1.3 -0.4,2.6 -0.4,3.9 0,1.3 -0.8,1.1 -0.5,1.8 0.2,0.6 0,0.9 -0.7,1.1 0.8,0.3 0.9,0.7 0.4,1.3 v 0.2 c 0.6,0.4 0.2,1 0.2,1.4 0,4.1 0,8.2 -0.3,12.2 0,0.3 0,0.6 0.2,0.8 0.6,0.5 0.3,0.9 -0.4,1.1 0.4,0.2 0.9,0.5 0.7,0.7 -0.7,0.6 0,0.9 0,1.3 0,0.4 0.4,0.8 0.4,1.2 0.5,3.4 1,6.9 1.5,10.3 0.3,1.8 0.3,3.6 0.7,5.5 0.3,1.3 0,2.6 0.4,3.9 -0.9,0.7 0.8,1.5 0,2.2 0.8,0.5 0.6,1.5 1.2000003,2 0,0.1 0.2,0.3 0.4,0.2 0.2,-0.1 0,-0.3 0,-0.5 -0.6000003,-2.4 -1.1000003,-4.9 -1.3000003,-7.4 0,-1.5 -0.6,-3.1 -0.6,-4.6 0,-2.5 -0.4,-4.9 -0.9,-7.4 -0.2,-0.8 -0.3,-1.6 -0.3,-2.4 v -1.1 c -0.6,-2.7 -1.2,-5.4 -0.6,-8.2 0,-0.3 0,-0.6 -0.2,-1 v -0.6 c 0,-3 0.5,-6 0,-9 v -3.2 c 0,-1 0,-2.2 0.3,-3.2 0.3,-0.9 0.2,-1.7 0.6,-2.6 0.9,-2.3 0.8,-4.9 1.4,-7.3 0.4,-2 1,-3.9 1.8000003,-5.7 1,-2.2 1.9,-4.5 2.9,-6.8 0,-0.2 0.2,-0.3 0.5,-0.3 0.7,0 0.9,-0.5 1.2,-1.1 0.2,-0.5 0.4,-1.1 0.7,-1.5 1.3,-1.7 2.7,-3.4 4.4,-4.8 1.2,-1 2.4,-2 3.8,-2.7 1.4,-0.8 2.7,-1.6 4.2,-2 0.8,-0.3 1.8,-0.5 2.6,-0.5 2,0.1 3.9,0.1 5.8,0.8 0.4,0.1 0.8,0.1 1.2,0 -0.1,-0.4 -0.5,-0.1 -0.6,-0.4 0.9,0 1.7,-0.1 2.5,0 1.3,0.2 2.5,-0.3 3.6,-0.7 2.2,-0.6 4.3,-1.6 6.3,-2.8 0.3,-0.2 0.5,-0.2 0.9,-0.2 1.5,0.3 3.1,0.4 4.6,0.9 0.5,0.2 1.2,0.5 1.9,0.4 z m -19.3,191.5 c 0.2,-0.7 -0.3,-1.2 -0.3,-1.8 0,-2.4 -1.2,-4.4 -1.9,-6.6 -1,-2.9 -2.1,-5.8 -2.5,-9 -0.1,-0.7 -0.2,-1.4 -0.4,-2.1 -0.4,-1.4 -1.3,-2.6 -1.7,-4.1 -0.4,-1.5 -1.2,-3 -1.5,-4.6 -0.6,-2.8 -1.7,-5.4 -1.8,-8.3 0,-0.2 -0.1,-0.4 -0.2,-0.6 -0.7,-1.2 -0.9,-2.5 -1.6,-3.7 -0.2,-0.3 -0.4,-0.7 -0.5,-1.2 -0.2,-1.7 -0.8,-3.4 -1,-5.1 -0.1,-0.8 -0.6,-1.6 -0.7,-2.5 -0.2,-1.9 -1,-3.6 -1.4,-5.4 -0.4,-1.6 -0.9,-3.2 -1,-4.8 -0.1,-1.8 -0.6,-3.5 -1.3,-5.2 -0.9,-2.2 -1.3,-4.5 -1.7,-6.8 -0.2,-0.7 -0.2,-1.5 -0.5,-2.2 0,-0.3 -0.2,-0.6 -0.2,-0.9 0.2,-0.8 0,-1.4 -0.3,-2.1 -0.7,-1.8 -1.1,-3.7 -1.6,-5.5 0,-0.2 0,-0.5 -0.4,-0.6 -0.2,0.4 0,0.8 0,1.2 0.4,1.8 0.9,3.7 1.2,5.5 0,0.6 0.8,1 0.7,1.7 v 1.3 c 0.4,1.9 1.1,3.8 1.3,5.8 0.1,0.5 0,1.1 0.4,1.6 0.2,0.3 -0.1,1 0.4,1.4 0,0 0,0.3 -0.1,0.3 -0.2,0.2 -0.1,0.3 0,0.6 0.5,1 1,2 1.2,3 0.3,2.3 0.9,4.5 1.2,6.8 0.1,0.4 -0.1,0.9 0.1,1.3 0.4,0.8 0.8,1.7 1,2.5 0.6,2.7 1.4,5.3 1.9,8.1 0.1,0.6 0.2,1.2 0.4,1.7 0.5,1.3 1.2,2.5 1.6,3.8 1.1,3.8 2.1,7.6 2.9,11.5 0.2,0.7 0.2,1.5 0.5,2.2 0.6,1.2 0.9,2.6 1.7,3.7 0.1,0.2 0.2,0.4 0.3,0.7 0.7,2.8 1.2,5.6 2.4,8.2 0,0.1 0.1,0.2 0,0.3 -0.5,0.8 0.2,1.4 0.4,1.9 0.7,1.8 1.7,3.3 2,5.2 0.5,1.2 0.5,2 1,2.8 z m 45.4,-171.7 c 0.3,0 0.6,0.1 0.8,-0.2 0.2,-0.4 0.1,-0.7 -0.1,-1 -0.1,-0.2 -0.3,-0.4 -0.5,-0.6 -2.5,-2.4 -5.6,-4 -8.6,-5.7 -0.2,-0.1 -0.4,-0.1 -0.6,-0.1 -0.5,0.2 -1.3,0.7 -1.3,1 0.1,0.9 -0.4,1.8 0,2.6 0,0.1 0.2,0.1 0.3,0.2 1.8,0.9 3.6,1.6 5.4,2.4 1.5,0.5 3,1.2 4.6,1.4 z m -34.4,-22.8 c 3,0.9 6,1.5 8.8,2.5 4.3,1.5 8.5,3.2 12.5,5.3 0.2,0.1 0.5,0.4 0.7,0.1 0.3,-0.5 1,-0.8 1.4,-1.2 -0.4,-0.1 -0.6,-0.2 -0.9,-0.4 -4.7,-2.1 -9.5,-4.1 -14.4,-5.7 -2,-0.7 -4.1,-1.3 -6.1,-1.9 h -0.7 c 0.1,0.4 -0.4,0.8 0.3,1.1 -0.6,0 -1.1,-0.3 -1.6,0 z m -4.1,55 c -1.4,1 -2.2,2.4 -3.2,3.6 -1.8,2.3 -2.9,5 -4.5,7.3 -0.1,0.2 -0.6,0.5 0.1,0.7 0.2,0.1 0.1,0.7 -0.3,0.6 -0.7,-0.1 -0.6,0.2 -0.4,0.6 0.2,0.3 0.1,0.9 -0.2,0.8 -1,-0.3 -0.8,0.5 -0.9,0.9 -0.3,1.2 -0.3,2.6 -2.2,3 0.8,0.2 1,0.6 1,1.1 0,0.5 0.1,0.9 -0.7,0.8 -0.2,0 0.2,0.5 0.2,0.9 0,0.6 -0.7,-0.3 -0.6,0.3 0.2,1.3 -0.2,2.5 -0.3,3.7 -0.1,0.7 0.3,1.4 -0.1,1.9 -0.3,0.6 -0.4,1.1 -0.4,1.7 0,1.1 -0.1,2.2 -0.3,3.2 -0.1,1.3 -0.3,2.6 0.2,4 0.2,0.6 0.5,1.4 -0.1,2.1 -0.2,0.2 0,0.5 0.1,0.7 0.4,0.5 0.5,1 0,1.7 0.6,-0.3 1,-0.5 0.8,-1.1 -0.4,-1.2 -0.3,-2.4 -0.3,-3.5 0,-1.7 0.1,-3.4 0.2,-5.1 0,-0.4 -0.2,-0.9 -0.1,-1.3 0.4,-1.1 0.3,-2.1 0.4,-3.2 0.1,-1 0.1,-1.9 0,-2.8 0,-0.7 0.6,-1.1 0.8,-1.7 0.3,-1.1 0.5,-2.3 1,-3.3 0.8,-1.8 1.3,-3.7 2.4,-5.3 0.3,-0.5 0.5,-0.9 0.6,-1.5 0.2,-1.8 1.4,-3.2 2.4,-4.7 1.1,-1.7 2.5,-3.1 3.8,-4.6 0.7,-0.4 0.7,-0.8 0.6,-1.5 z m 13.6,-47.5 c -0.4,0 -0.8,-0.1 -1,0.2 -0.2,0.3 0,0.6 0.2,0.9 0.2,0.3 0.5,0.6 0.8,0.9 2,1.7 4.1,3.1 6.3,4.4 1.3,0.8 1.4,0.7 2.2,-0.6 0.2,-0.3 0.4,-0.6 0.7,-1 0.4,-0.5 0.3,-0.9 -0.3,-1.2 -1.8,-1 -3.6,-1.8 -5.5,-2.6 -1.1,-0.4 -2.3,-0.8 -3.4,-1 z m 46.899995,42.8 c 0.3,0.9 0.6,1.7 0.8,2.6 0.7,3.9 0.3,7.8 -0.3,11.7 -0.6,4.1 -2,8 -3.1,11.9 -0.3,1 -0.7,2 -1,3 -0.4,1 -0.6,2 -1.1,3 -0.5,0.9 -0.6,2.1 -1.299995,2.8 -0.7,0.8 -0.1,2.1 -1.3,2.5 v 0 c 0.7,0.6 -0.1,1 -0.2,1.4 v 2.9 c 0.6,-2.5 1.5,-4.8 2.499995,-7.2 0.8,-2 1.5,-4.1 2.2,-6.1 0.7,-2 1.3,-4 2,-5.9 1,-2.5 1.2,-5.1 2,-7.6 0.6,-1.8 0.7,-3.8 0.6,-5.7 0,-0.4 0,-0.8 0.1,-1.3 0.3,-1.6 0.3,-3.3 0.1,-4.9 0,-0.3 0,-0.7 -0.3,-0.7 -0.8,0 -0.8,-0.7 -1,-1.2 0,-0.3 -0.2,-0.8 -0.7,-1.2 z m -53.399995,-58 c 0.3,0 0.4,-0.2 0.5,-0.5 0.1,-0.3 0.2,-0.6 0.2,-0.9 0.2,-1 0.7,-1.9 1.1,-2.9 0.6,-1.4 0.8,-2.9 1.5,-4.3 1,-1.9 1.9,-3.8 2.9,-5.8 1.3,-2.5 2.5,-5.1 4,-7.5 0.1,-0.2 0.2,-0.4 0.3,-0.7 0,-0.2 0,-0.4 -0.2,-0.4 -0.2,0 -0.2,0 -0.3,0.3 -0.7,1 -1.2,2 -1.9,2.9 -1.1,1.5 -1.9,3.1 -2.8,4.7 -0.2,0.4 -0.4,0.8 -0.2,1.3 0.1,0.3 0.1,0.6 -0.1,0.7 -1.1,0.4 -1,1.5 -1.4,2.2 -0.8,1.4 -1.2,3 -1.8,4.5 -0.7,1.8 -1.5,3.6 -2.2,5.4 -0.1,0.6 0,0.9 0.4,1 z m -29.6,13.9 c 1.2,-0.2 2.2,-0.9 3.2,-1.5 2.5,-1.4 5.3,-2.1 8.1,-2.4 1.5,-0.2 3.1,0 4.7,-0.3 3.8,-0.5 6.7,-2.4 9.2,-5.2 0.4,-0.4 0.7,-0.9 0.9,-1.5 -0.3,0 -0.4,0.2 -0.5,0.3 -0.5,0.8 -1.1,1.4 -1.8,2 -0.8,0.7 -1.8,1.2 -2.5,1.8 -1.1,0.9 -2.4,1.3 -3.7,1.5 -2.3,0.3 -4.6,0.6 -7,0.7 -1.4,0 -2.7,0.5 -4,0.9 -2.4,1 -4.5,2.3 -6.6,3.7 z m 103.499995,185.1 c 0,-1.7 0.4,-3.3 0.7,-4.9 0.1,-0.5 0.2,-1.1 0.1,-1.6 -0.3,-1.6 -0.4,-3.2 -0.8,-4.7 -0.3,-1.4 0.3,-2.7 -0.2,-4.1 -0.1,-0.2 0.1,-0.3 0.2,-0.4 0.1,-0.1 0.3,-0.3 0.2,-0.4 -0.5,-0.4 -0.2,-1 -0.3,-1.5 -0.5,-1.4 -0.5,-3 -0.8,-4.4 -0.3,-1.3 -0.5,-2.7 -0.8,-4 -0.1,-0.5 -0.4,-1 -0.6,-1.5 -0.1,-0.3 -0.4,-0.2 -0.6,-0.2 -0.2,0.1 -0.4,0.1 -0.5,0.3 0,0.1 0.1,0.2 0.2,0.3 0.5,0.2 0.8,0.4 0.3,0.9 -0.1,0.2 0.1,0.3 0.3,0.3 0.6,0 0.8,0.2 0.6,0.9 -0.2,0.3 0.1,0.6 0.3,0.9 0.2,0.3 0.4,0.6 0.5,0.9 0.6,2.7 0.4,5.4 0.6,8.2 0.1,0.9 0.2,1.9 0.4,2.8 0.2,1.2 0.4,2.3 0.3,3.5 -0.1,0.6 -0.3,1.3 -0.1,1.7 0.3,0.8 0.2,1.5 0.2,2.2 -0.2,1.7 -0.2,3.2 -0.2,4.8 z m -50.899995,-32.4 c -0.2,-0.3 -0.9,-0.1 -0.6,-0.5 0.5,-0.7 0,-1.4 0,-2.1 0,-1.4 -0.5,-2.7 -0.5,-4.1 0,-1.4 -0.1,-2.2 -0.2,-3.2 0,-0.2 0,-0.6 -0.4,-0.6 -0.4,0.1 -0.1,0.4 -0.1,0.7 0.3,2.4 0.6,4.8 0.1,7.2 -0.1,0.5 -0.2,0.9 0.4,1.3 0.5,0.3 0.4,0.7 -0.2,0.8 -0.2,0 -0.4,0 -0.4,0.3 0.1,0.1 0.3,0.2 0.4,0.2 0.4,0.3 0.6,0.5 0,0.7 -0.2,0.1 -0.4,0 -0.4,0.2 0,0.3 0.3,0.2 0.5,0.3 0.5,0.2 0.5,0.4 0.1,0.7 -0.3,0.2 -0.3,0.5 -0.2,0.8 0.4,2.2 0.7,4.4 0.3,6.7 -0.1,0.6 0.2,0.9 0.6,1.1 0.4,-1.1 0.1,-2.2 0,-3.2 v -0.3 c 0,-1.2 0.1,-2.5 -0.1,-3.7 -0.1,-0.4 -0.1,-0.7 0.2,-1.2 0.2,-0.3 0.7,-0.7 0.4,-1.2 -0.4,-0.4 -0.3,-0.7 0,-0.9 v 0 z m -60,-48.6 c 0.2,-0.5 0.2,-1 0,-1.6 -0.3,-0.9 -0.5,-1.8 -0.7,-2.7 -0.5,-2.5 -1,-5 -1.3,-7.5 -0.3,-2.4 -1.1,-4.7 -1.6,-7 0,-0.7 -0.3,-1.4 -0.9,-2.1 -0.2,0.6 0.2,1 0.2,1.4 0.4,2.1 0.8,4.1 1.2,6.2 0.5,2.6 1.3,5.2 1,8 v 0.3 c 0.4,0.5 0.5,1.1 0.6,1.6 0.5,1.2 1.4,2.1 1.4,3.4 z m 33.9,-57.4 c -0.1,-0.9 0.8,-0.7 1.2,-1.1 1.3,-1.6 2.6,-3.3 4.1,-4.7 0.8,-0.8 1.4,-1.8 2,-2.8 0.4,-0.7 1.3,-1.2 0.8,-2.2 0,-0.1 0.1,-0.3 -0.1,-0.4 -0.2,-0.1 -0.3,0 -0.4,0.1 -0.4,0.4 -0.7,0.8 -1,1.3 -0.6,1 -0.9,2.2 -1.9,3.1 -0.8,0.8 -1.7,1.7 -2.2,2.8 -0.4,0.7 -0.9,1.2 -1.6,1.6 -0.9,0.5 -1.2,1.3 -0.9,2.3 z m 50.1,-62.7 c 0.8,-4.6 1.699995,-19.6 1.399995,-20.9 -0.599995,0.9 -1.699995,17.9 -1.399995,20.9 z m -10.6,-40.7 c -0.6,-0.2 -1.2,0 -1.9,0.2 -1,0.4 -1.9,0.7 -2.9,1.1 -1.4,0.7 -2.9,1.2 -4.3,1.8 -0.3,0 -0.6,0.3 -0.8,0.6 0.4,0.2 0.7,-0.5 1.1,0 -0.2,0.4 -0.6,0.5 -1,0.5 -0.7,0 -1.2,0.2 -1.6,0.7 -0.1,0.2 -0.4,0.3 -0.6,0.4 -0.9,0.4 -1.5,1.2 -2.4,1.7 -0.3,0.2 -0.4,0.5 -0.1,0.8 0.1,0.2 0.3,0 0.5,0 1.6,-1.1 2.9,-2.7 4.9,-3.3 0.3,0 0.8,-0.2 0.7,-0.5 -0.2,-0.7 0.3,-0.5 0.6,-0.6 h 0.6 c 2.2,-1 4.4,-2.1 6.8,-2.7 0.3,0 0.4,-0.2 0.4,-0.4 z m -25,20.2 c 0.2,-0.3 -0.1,-0.6 0.2,-0.9 0.7,-0.8 1.4,-1.5 2,-2.4 0.5,-0.8 1.2,-1.3 1.9,-1.9 1.5,-1.1 2.1,-3.1 3.6,-4.2 0.2,0 0.3,-0.3 0.1,-0.5 -0.1,0 -0.4,-0.2 -0.5,0 -0.3,0.5 -0.8,0.7 -1.2,1 -1,0.8 -1.1,2.4 -2.6,2.7 -0.1,0 -0.2,0.2 -0.3,0.3 -1.1,1.2 -1.8,2.8 -3.1,3.9 -1,0.8 -0.9,1.5 0,2.1 v 0 z m 9.7,200.3 c 0.7,0.4 0.7,0.9 0.2,1.3 -0.2,0.2 -0.1,0.5 -0.1,0.8 0,1.6 0.4,3.1 0,4.7 -0.4,1.5 -0.4,3.1 -1,4.6 -0.3,0.9 -0.4,0.9 0.6,1.1 0,-0.4 -0.1,-0.7 -0.1,-1.1 0.2,-2.1 0.5,-4.2 1.2,-6.2 0.1,-0.4 0.3,-0.8 0,-1.3 -0.4,-0.6 -0.3,-1 0.5,-1 0.8,0 0.4,0 0.4,-0.2 0,-0.2 -0.1,-0.2 -0.3,-0.3 -0.8,-0.5 -0.8,-0.6 0,-1.1 0.2,-0.1 0.4,-0.2 0.4,-0.5 -0.3,0 -0.7,0 -0.8,-0.4 0,-0.8 -0.5,-0.6 -1,-0.4 z m 22.2,-135 c -0.2,-0.4 -0.4,-0.8 -0.6,-1.2 -0.7,-1.3 -1.3,-2.7 -1,-4.3 0.2,-1.2 0.6,-2.3 1.3,-3.2 0.3,-0.4 0.1,-0.7 -0.2,-1 -0.3,-0.3 -0.4,-0.2 -0.5,0.1 -0.3,0.9 -1,1.6 -1.2,2.6 -0.7,2.7 0.6,4.9 2.2,7 z m 7.799995,5.8 c 0.1,0 0.2,-0.1 0.3,-0.1 -2.2,-3.6 -5.099995,-6.9 -5.199995,-11.4 -0.4,0.6 -0.4,1.2 -0.3,1.8 0.4,2.2 1.5,4.1 2.599995,6 0.9,1.2 1.8,2.5 2.6,3.7 z m -61.899995,165.3 c 0.1,-1.5 0.4,-3.1 -0.7,-4.4 -0.1,-0.1 0,-0.2 -0.1,-0.3 -0.6,-0.7 -0.5,-1.6 -0.9,-2.4 -0.4,-0.8 -0.2,-0.4 -0.5,-0.3 -0.1,0 -0.3,0.2 -0.3,0.3 -0.1,0.3 0.1,0.4 0.3,0.4 0.2,0.1 0.4,0.3 0.3,0.3 -0.7,0.6 0.1,0.9 0.2,1.3 0.5,1.8 1.4,3.4 1.7,5.1 z m 8.7,-201.8 c 1.3,-1.4 2.7,-1.5 4,-0.5 0.2,0.1 0.3,0.1 0.5,0 0.4,-0.4 0.8,-0.2 1.3,-0.1 0.4,0.2 0.8,0.3 1.3,0 -1.1,-0.3 -1.9,-0.6 -2.8,-0.8 -1.4,-0.2 -2.9,-0.6 -4.2,0.6 -0.4,0.4 -1,0.7 -0.8,1.3 0.3,0.6 0.9,0.1 1.4,0 0,0 0,-0.1 0.1,-0.1 -0.2,-0.3 -0.6,0 -0.8,-0.4 z m 56.799995,-26.1 c 0.5,-1.3 -0.4,-3.1 1.4,-3.7 -0.9,-1.6 0.7,-3 0.1,-4.5 -0.7,2.6 -1.8,5.3 -1.5,8.2 z m -46.599995,56.6 c -1,2.2 -2,4.4 -3.2,6.5 0.6,0 0.9,-0.2 1,-0.7 0.2,-0.6 0.4,-0.8 0.9,0 -0.3,-2.1 0.7,-3.9 1.3,-5.8 z m 16.2,-21.1 c 0.2,0.2 0.4,0.2 0.6,0.1 1.2,-0.6 2.2,0 3.2,0.5 0.5,0.3 0.9,0.5 1.4,0.8 1,0.6 2.1,1.3 3.1,1.9 -1.6,-1.4 -3.6,-2.4 -5.3,-3.6 -1.2,-0.7 -2.1,-0.2 -3,0.3 z m 18.4,275.9 c 0,2.9 -0.2,5.7 -1,8.5 1.2,-2.7 1.3,-5.5 1,-8.5 z m -44.5,-281.9 c -0.3,-0.4 -0.8,-0.5 -0.7,-0.9 0.2,-0.9 -0.6,-1.3 -1,-1.8 -0.2,-0.3 -0.5,0 -0.8,0.2 -0.2,0.1 -0.3,0.3 -0.1,0.4 0.7,0.8 1.2,1.9 2.6,2.1 z m 55.999995,-51.2 c 0.3,-0.8 0.4,-1.6 1,-2.2 0.2,-0.2 0.2,-0.5 -0.1,-0.7 -0.3,0 -0.3,-0.4 -0.5,-0.7 -0.2,0.6 -0.3,1.2 -0.6,1.6 -0.5,0.7 -0.4,1.3 0.2,2 z m -35.199995,233 c -0.2,1.4 -0.7,2.6 -1.5,3.8 -0.1,0.2 0,0.4 0.2,0.5 0.2,0.1 0.5,0.2 0.6,-0.1 0.6,-1.3 0.9,-2.7 0.7,-4.2 z m -2.7,10.6 c 0.2,-0.6 0.3,-0.9 0.4,-1.2 0.3,-0.8 0.3,-1.8 0.9,-2.5 0.2,-0.2 0.2,-0.5 -0.2,-0.6 -0.3,-0.1 -0.7,-0.3 -0.9,0.1 -0.2,0.3 0.1,0.3 0.3,0.4 0.3,0.2 0.3,0.4 0,0.5 -0.3,0.2 -0.5,0.4 -0.5,0.8 z m 73.199995,52.3 h -0.1 c -0.1,3.7 0.1,7.3 -0.7,10.9 0,0.2 0,0.4 0.2,0.4 0.2,0 0.2,-0.2 0.3,-0.4 0,-0.6 0,-1.3 0.1,-1.9 0.4,-3 0,-6 0.2,-9 z m -70.299995,-63.7 c 0.1,0 0.2,0.1 0.3,0.1 0.3,-0.9 0.5,-1.7 0.8,-2.6 0.1,-0.3 0.1,-0.6 -0.3,-0.6 -0.4,0 -0.7,0.1 -0.7,0.4 0,0.9 -0.3,1.8 -0.1,2.7 z m 5.1,-185.8 c -0.9,1.4 -2.1,2.2 -3.2,3.3 1.2,0 3.1,-1.8 3.2,-3.3 z m 43.499995,-7 c 1.8,-2.7 2.4,-4.4 2.4,-5.5 -1,1.9 -1.5,3.8 -2.4,5.5 z m -39.999995,7.8 c -0.9,1.2 -1.6,4.3 -1.3,5.3 0.5,-1.8 0.9,-3.5 1.3,-5.3 z m 25.799995,11.7 c 1.5,-1.1 2.7,-2.6 3.8,-4.1 -1.5,1.2 -2.5,2.8 -3.8,4.1 z m -18.099995,-63.9 c 1.2,0.3 2.3,-0.3 3.4,0 0.3,0 0.6,0 0.6,-0.4 0,-0.4 -0.3,-0.5 -0.6,-0.5 -0.3,0 -0.5,0 -0.6,0.2 0.2,0.2 0.6,0 0.9,0.5 -1.3,-0.2 -2.5,-0.5 -3.7,0.3 v 0 z m -13.8,6 c -0.1,-0.2 -0.3,-0.3 -0.5,-0.2 -0.2,0.2 -0.4,0.4 -0.6,0.5 -0.6,0.2 -0.9,0.7 -1.3,1.2 -0.1,0.2 -0.2,0.3 0,0.4 0.3,0 2.4,-1.5 2.4,-1.9 z m 16.6,-10.4 c 1.2,0.7 2.3,0 3.7,0 -1.4,-0.8 -2.5,-0.2 -3.7,0 z m 34.099995,251.9 c -0.4,1.5 -0.7,2.8 -0.9,4.1 0,0.2 -0.2,0.4 0.1,0.5 0.3,0.1 0.3,-0.2 0.4,-0.4 0.2,-1 0.4,-2 0.6,-3 -0.1,-0.3 0,-0.6 -0.2,-1.2 z m -53.299995,-14.2 c 0.5,0.2 1,0 1.3,0.3 0.1,0.1 0.2,0.1 0.3,0 0.2,-0.4 0.1,-0.9 -0.1,-1.3 -0.1,-0.3 -0.3,-0.6 -0.7,-0.7 -0.2,0 -0.4,0 -0.5,0.2 -0.1,0.2 0.1,0.3 0.2,0.4 0.2,0.1 0.6,0.2 0.5,0.5 -0.1,0.3 -0.4,0.2 -0.7,0.3 0,0 0,0.1 -0.3,0.3 z m -28.6,26 c 0,0 -0.1,0 -0.2,0.1 0.4,1.5 0.8,3.1 1,4.6 0,0.2 0,0.5 0.3,0.4 0.2,-0.1 0.2,-0.3 0.2,-0.5 -0.1,-0.3 -0.2,-0.7 -0.3,-1 -0.3,-1.3 -0.7,-2.5 -1,-3.6 z m 48.6,52.8 c -0.1,1.9 -0.2,3.7 -0.4,5.6 h 0.2 c 0.5,-1.8 0.1,-3.7 0.2,-5.6 z m 31.399995,-274.1 c 0.9,-0.6 1.5,-2.3 1.1,-3.3 -0.3,1.2 -0.9,2.1 -1.1,3.3 z m -64.899995,16.9 c 1.4,0.3 2.7,0.9 4.2,1 -1.4,-0.3 -2.7,-1.2 -4.2,-1 z m 31.8,-57.4 c 1.4,0.2 2.7,-0.6 4,-0.7 -1.4,-0.2 -2.7,0.4 -4,0.7 z m -14.7,305.6 c -1.4,1 -2.9,1.8 -4.6,2.4 1.8,-0.3 3.4,-1.1 4.6,-2.4 z m -28.9,-119 c -0.1,0 -0.2,0.1 -0.3,0.1 0.6,1.2 0.8,2.6 1.6,3.7 0.1,0 0.2,-0.1 0.3,-0.1 -0.5,-1.3 -1,-2.5 -1.6,-3.7 z m 27.7,11 v 0 -0.7 c 0,-0.2 -0.1,-0.5 -0.4,-0.6 -0.2,0 -0.4,0 -0.5,0.2 -0.2,0.3 0,0.4 0.2,0.6 0.4,0.3 0.3,0.6 0,0.9 -0.2,0.2 -0.1,0.4 0.2,0.4 0.3,0 0.5,0.1 0.5,-0.2 z m 37.899995,-138 c 0.1,0.1 0.2,0.1 0.3,0.2 0.7,-1 1.7,-1.8 2.1,-3 -0.1,0 -0.1,-0.1 -0.2,-0.1 -0.7,1 -1.5,1.9 -2.2,2.9 z m -63.599995,230.7 h -0.2 v 2.2 c 0,0.3 0,0.7 0.1,1 0,0.1 0.2,0.2 0.3,0.2 0.2,0 0.2,-0.1 0.2,-0.3 -0.5,-1 -0.2,-2.1 -0.4,-3.1 z m -15.5,30.1 c -1.4,-0.4 -2.7,-1.1 -4.2,-1.5 1.3,0.8 2.6,1.5 4.2,1.5 z m 30.4,-262.9 c 1.1,-0.2 1.9,1 3,0.8 -1,-0.4 -1.8,-1.4 -3,-0.8 z m 5.1,4 c -0.3,-0.6 -0.5,-1.1 -0.5,-1.6 0,-0.5 -0.3,-0.8 -0.6,-1.1 -0.3,-0.3 -0.3,-0.2 -0.5,-0.1 -0.2,0.2 -0.2,0.4 0,0.5 0.7,0.3 0.8,0.9 0.8,1.5 0.1,0.5 0.3,0.7 0.8,0.8 z m -13.7,1.4 c -0.3,-0.6 -0.6,-0.7 -1,-1 -0.4,-0.3 -0.1,-0.8 0,-1.4 -0.4,0.5 -1.1,0.6 -0.8,1.1 0.4,0.6 0.9,1.1 1.8,1.3 z m 60.699995,229.2 c 0,0.9 -0.1,1.7 -0.4,2.5 -0.1,0.2 0,0.4 0.2,0.4 0.2,0.1 0.3,0 0.3,-0.2 0,-0.8 0.2,-1.8 -0.1,-2.7 z m -55.499995,-76.4 c 1.2,-0.4 1.2,-0.9 -0.2,-2 -0.1,0.3 -0.2,0.6 -0.3,0.8 0.3,0.2 0.7,-0.2 0.9,0.3 0.1,0.4 -0.4,0.4 -0.4,0.9 z m 18.6,83.1 c 0.7,-0.2 1.1,-1 1.8,-1 0,-0.1 0,-0.2 -0.1,-0.3 -0.1,-0.1 -0.2,-0.2 -0.4,-0.1 -0.5,0.3 -1.3,0.4 -1.3,1.4 z m -19.2,-85.9 c -0.6,-1 -1.1,-2 -1.7,-3 0.5,1.1 0.7,2.3 1.7,3 z m 37.4,7.8 c -0.7,-0.9 -1.6,-1.5 -2.8,-1.5 1.1,0.4 2,0.9 2.8,1.5 z m 9.899995,-198.5 c 0.2,-1 0.4,-2.1 0.7,-3.1 h -0.3 c -0.2,1.1 -0.7,2.1 -0.4,3.2 v 0 z m -59.099995,272.9 c -0.4,0.3 -0.1,0.8 -0.4,1.2 -0.1,0.1 0.3,0.6 0.5,0.5 0.4,-0.2 0.2,-0.8 0.4,-1.2 0.2,-0.2 -0.2,-0.4 -0.5,-0.5 z m 58.799995,-271.7 c -0.5,1.3 -0.7,2.5 -0.4,3.8 -0.2,-1.2 0.4,-2.5 0.4,-3.8 z m -12.599995,24.9 c 0.6,-0.4 1,0.5 1.3,0 0.2,-0.5 -0.3,-0.9 -0.9,-1.5 0,0.6 -0.1,0.9 -0.4,1.5 z m -41.2,-1.2 h -0.1 c -0.2,0.4 -0.4,0.9 -0.7,1.3 -0.1,0.2 -0.2,0.5 0.1,0.6 0.4,0 0.5,0 0.5,-0.4 0,-0.6 0.2,-1.1 0.2,-1.5 z m 57.499995,-29.2 c -0.3,-0.9 0.6,-1.5 0.4,-2.4 -0.4,0.8 -1,1.5 -0.4,2.4 z m -73.999995,139.3 c -0.6,0.7 -0.4,1.5 -0.3,2.3 0,0.1 0.1,0.2 0.2,0.2 0.2,0 0.2,-0.1 0.1,-0.3 -0.1,-0.7 0.1,-1.4 0,-2.2 z m 24.1,123.3 c 0.1,0 0.2,0.1 0.3,0.1 0.5,-0.8 0.6,-1.7 0.6,-2.6 -0.4,0.9 -0.7,1.7 -0.9,2.5 z m -21.1,-34.1 c 0,0 -0.1,0 -0.2,0.1 0.1,0.7 0.2,1.4 0.3,2.1 0,0.2 0.1,0.4 0.3,0.3 0.3,-0.1 0.1,-0.3 0.1,-0.4 -0.1,-0.7 -0.3,-1.4 -0.5,-2.1 z m -2,-84 c 0.4,-1.2 -0.1,-1.7 -1.4,-1.4 0.6,0.3 1.5,0.4 1.4,1.4 z m 68.699995,-95.4 c -0.8,0.3 -1.3,0.9 -1.7,1.7 0.6,-0.5 1.2,-1 1.7,-1.7 z m -29.499995,193.9 c 0.1,-0.9 0,-1.7 -0.1,-2.4 0,-0.2 0,-0.4 -0.3,-0.4 -0.3,0 -0.2,0.3 -0.2,0.4 0.4,0.7 0.3,1.5 0.6,2.4 z m 59.499995,0.3 c 0.4,-0.8 1.1,-1.5 1.1,-2.4 -0.6,0.8 -1.1,1.5 -1.1,2.4 z m -62.799995,-18 c -0.4,0.5 -0.5,1 -0.3,1.5 0.1,0.2 0.2,0.3 0.4,0.3 0.2,0 0.2,-0.1 0.2,-0.3 0,-0.5 -0.2,-1 -0.3,-1.5 z m 39.599995,-6.2 v 0 c -0.1,1.5 -0.1,3.1 -0.1,4.7 h 0.1 z m -12.099995,57.4 c 0.499995,0.1 0.999995,0.5 1.199995,-0.1 0.1,-0.3 0.5,-1 -0.4,-1.4 0.1,0.7 0.3,1.4 -0.799995,1.5 z m -22.6,-20.9 c 0.1,-0.7 0.5,-1.6 -0.3,-2.2 0.1,0.8 0.2,1.5 0.3,2.2 z m 13.4,-227.3 c 0.1,0.6 1,0.8 1.9,0.6 -0.4,-0.9 -1.4,0.3 -1.9,-0.6 z m 21.099995,196.5 c -0.3,1 -0.2,2 -0.5,2.9 0.6,-0.8 0.2,-1.9 0.5,-2.9 z m -11.799995,-6.2 c 0,0 0.100005,0 0,0 0.100005,-1.5 0.100005,-3 0.100005,-4.4 h -0.100005 z m -3.2,-160 c -0.3,-0.4 -0.7,-0.8 -1,-1.2 -0.1,-0.2 -0.3,-0.2 -0.5,0 -0.2,0.2 0,0.3 0.1,0.4 0.4,0.3 0.8,0.6 1.4,0.8 z m -24.1,263.7 c 0.6,0.4 0.5,0.4 0.8,0 0,-0.1 0.2,-0.1 0.3,-0.1 0.2,-0.1 0.4,-0.1 0.4,-0.5 -0.5,0.3 -1,0.2 -1.5,0.6 z m 35.899995,-319.8 c 0.2,-0.8 0.7,-1.3 0.3,-2.3 -0.2,0.8 -0.7,1.4 -0.3,2.3 z m -45.199995,54.2 c -0.6,0.6 -0.3,1.4 -0.4,2.1 0.3,-0.6 0.6,-1.3 0.4,-2.1 z m 56.299995,-26.9 c -0.8,0.5 -1,1.3 -1.3,2 0.5,-0.6 0.9,-1.2 1.3,-1.8 z m -64.599995,16.4 c 0.7,0.4 1.1,0 1.5,-0.3 0.2,-0.1 0,-0.4 -0.2,-0.5 -0.2,-0.1 -0.4,-0.1 -0.4,0.2 0,0.5 -0.5,0.3 -0.9,0.6 z m -49.9000003,188.8 c -0.8,0.3 -1.4,1.2 -1.4,1.9 0.5,-0.7 0.9,-1.3 1.4,-1.9 z M 118.24725,57.325 c 0.7,0.6 1.1,1.1 1.7,1.7 -0.4,-0.8 -0.9,-1.3 -1.7,-1.7 z m -18.899995,234.6 c -0.7,-0.6 -1.2,0.1 -1.8,0.1 0.5,-0.2 0.1,0.9 0.6,0.4 0.3,-0.3 0.7,-0.3 1.2,-0.5 z m -44.4,-223 c -0.5,-0.2 -0.9,-0.4 -1.3,-0.5 0.2,1 0.3,1.1 1.3,0.5 z m -1.8,34.9 c 0.9,0.4 1.3,0.4 1.9,-0.1 -0.8,0 -1.3,0.1 -1.9,0.1 z m 45.1,34.2 c -0.4,-0.7 -0.8,-1.3 -1.5,-1.6 0.5,0.5 0.9,1.2 1.5,1.6 z m 8.299995,-59.2 c -0.5,0.8 -0.3,1.6 -0.3,2.4 0,-0.9 0.3,-1.6 0.3,-2.4 z m -14.499995,41.3 c -0.3,-0.4 -0.4,-0.9 -1,-1.1 0,0 -0.2,0.1 -0.2,0.2 0,0.6 0.7,0.7 1.2,0.9 z m -16.8,-6.5 c 0.4,0.5 0.8,0.6 1.2,0.7 0.2,0.1 0.4,0 0.4,-0.2 0,-0.2 -0.1,-0.3 -0.3,-0.3 -0.4,0 -0.7,0 -1.3,-0.2 z m -20.1,-47.3 c -0.1,0.5 -0.6,0.8 -0.4,1.4 0.2,-0.4 1.1,-0.7 0.4,-1.4 z m 13.6,227.2 c 0.5,0.6 1,0.7 1.7,0.8 -0.5,-0.6 -1,-0.7 -1.7,-0.8 z m 3.1,0.5 c -0.3,0 -0.3,0.2 -0.4,0.4 0,0.4 0.2,0.5 0.5,0.6 0.2,0 0.3,0 0.3,-0.2 -0.1,-0.3 -0.1,-0.6 -0.4,-0.8 z m 15.1,6.7 c 0.2,-1.2 0,-2.1 -0.5,-2.5 0.1,0.8 0.5,1.6 0.5,2.5 z m 11.6,-175.4 c -0.4,1.3 -0.4,1.8 0,2.5 -0.2,-1 0.2,-1.6 0,-2.5 z m 3.399995,8.6 v -1.6 c -0.5,0.3 -0.5,0.8 0,1.6 z m -17.199995,93.5 c -0.6,0.4 -1.1,0.1 -1.6,0.5 0.6,0.2 1.1,0.8 1.6,-0.5 z m -19.5,79.9 c 0.4,0.2 0.9,0.3 1.3,0.1 0,0 0.1,-0.2 0,-0.2 -0.4,-0.4 -0.8,0 -1.2,-0.1 0,0 0,0.1 -0.1,0.2 z m 55.399995,-257.3 c 0.2,0.5 0.4,0.9 1,1 h 0.2 c -0.1,-0.5 -0.5,-0.6 -0.8,-0.9 h -0.4 z m -59.499995,273.8 c 0.1,-0.6 0.8,-1.1 0.4,-2 -0.3,0.7 -0.4,1.4 -0.4,2 z m 26.5,-19.1 c -0.2,0.8 -0.3,1.4 -0.4,2.1 0.8,-0.6 0.7,-1.2 0.4,-2.1 z m -40.1,26.1 c -0.4,-0.5 -0.8,0 -1.2,-0.1 -0.1,0 -0.3,0 -0.3,0.2 0,0.2 0.2,0.3 0.4,0.3 0.3,-0.2 0.7,-0.3 1.1,-0.4 z m -8.5,-114.6 c -0.1,-0.4 -0.2,-0.8 -0.7,-0.9 -0.1,0 -0.3,0.1 -0.3,0.2 0,0.5 0.6,0.5 1,0.7 z m 76.599995,119.9 c 0,-0.6 0.6,-1.1 0.3,-1.8 -0.4,0.6 -0.3,1.2 -0.3,1.8 z m -72.499995,-18.3 c 0.7,-0.1 1.1,-0.8 1.7,-1 -0.8,-0.2 -1.1,0.6 -1.7,1 z m 54.1,-196 c 0.6,-0.3 1.1,-0.6 1.6,-1.4 -0.8,0.4 -1.2,0.9 -1.6,1.4 z m -87.4000003,176.3 c 0.6000003,0.1 1.2000003,-0.1 1.7000003,-0.4 -0.7,-0.2 -1.2,0.2 -1.7000003,0.4 z M 106.24725,82.025 c -0.4,0.3 -0.4,0.7 -0.3,1.1 0,0 0.2,0.2 0.3,0 0.3,-0.3 0.2,-0.7 0.1,-1 0,0 0,0 -0.1,-0.2 v 0 z m -16.299995,184.4 c -0.3,0.4 -0.5,0.7 -0.9,0.6 -0.1,0 -0.3,0 -0.2,0.2 0,0.1 0.1,0.3 0.2,0.2 0.4,-0.2 1,-0.1 0.9,-1 z m -4.2,24.5 c 0,0.6 -0.3,1.2 0.3,1.8 0.2,-0.7 -0.3,-1.3 -0.3,-1.8 z m -5.6,54.1 c 0.9,0.2 1,-0.5 1.2,-1 -0.4,0.3 -0.7,0.8 -1.2,1 z m -18.9,-213.8 c -0.4,0.6 -0.6,1.3 -0.7,2.1 0.4,-0.6 0.4,-1.4 0.7,-2.1 z m 6.1,224.4 c -0.5,-0.4 -1,0.1 -1.5,-0.2 0.5,0.9 1.1,0 1.5,0.2 z m 9.1,-41.1 c 0.6,-1 -0.1,-1.5 -0.2,-2.2 0,0.7 0,1.3 0.2,2.2 z m -71.2000003,12.5 c -0.6,-0.3 -1.1,-0.4 -1.9,-0.3 0.7,0.3 1.2,0.5 1.9,0.3 z m 110.4999953,3.4 h 1.6 c 0,0 0.1,-0.1 0,-0.1 -0.4,-0.4 -0.9,0.1 -1.4,-0.1 0,-0.1 -0.2,-0.1 -0.2,0.2 z M 91.647255,93.325 c 0.2,-0.5 0.2,-0.8 0,-1.2 h -0.3 c 0,0.5 0,0.8 0.3,1.2 z m -8.2,187.9 c 0.1,-0.4 0.1,-0.6 0.2,-0.8 0,-0.3 0.1,-0.5 -0.2,-0.7 h -0.2 c -0.2,0.2 0,0.4 0,0.7 0,0.3 0,0.4 0.2,0.8 z m -17.3,-155.9 c -0.4,0.2 -0.7,0.4 -0.7,0.9 0,0.5 0.1,0.2 0.2,0.2 0.4,0 0.3,-0.6 0.6,-0.7 0,-0.1 0,-0.3 -0.1,-0.4 z m 26.8,-4.6 c -0.3,-0.1 0.1,-0.6 -0.4,-0.7 -0.2,0 -0.3,0.2 -0.3,0.4 0,0.3 0,0.6 0.4,0.6 0.4,0 0.4,0 0.3,-0.3 z m -28.8,151.1 c -0.1,-0.6 -0.4,-1.2 -0.8,-1.6 0.2,0.6 0.3,1.2 0.8,1.6 z m -13.3,-163.7 c 0.2,-0.1 0.4,-0.2 0.3,-0.4 -0.1,-0.3 -0.3,-0.4 -0.6,-0.4 -0.3,0 -0.4,0.1 -0.3,0.3 0.2,0 0.4,0.3 0.6,0.5 z m 20.2,14.4 c 0.5,0.4 1,0.6 1.8,0.7 -0.6,-0.4 -1.1,-0.7 -1.8,-0.7 z m 80.099995,205.6 c -0.5,0.3 -1.1,0.1 -1.6,0.5 0.5,0 1.1,0.1 1.6,-0.5 z M 91.247255,97.425 c 0.2,-1 0.2,-1.2 -0.6,-1.5 0.3,0.4 0.4,0.9 0.6,1.5 z m 0.7,302.4 c -0.5,-0.4 -0.7,-0.7 -1.1,-0.5 -0.1,0 -0.1,0.2 0,0.3 0.3,0.5 0.6,0.1 1.1,0.2 z m -43.6,-159.3 c -0.1,-0.5 0.1,-1.1 -0.5,-1.6 0,0.8 0.2,1.2 0.5,1.6 z m 0.5,-148.4 c -0.2,0.2 -0.3,0.4 -0.3,0.7 0,0.3 0.1,0.2 0.2,0.2 0.3,0 0.4,-0.3 0.4,-0.6 0,-0.3 0,-0.3 -0.3,-0.3 z m 39.5,-46.1 c 0.2,0.5 0.5,0.9 1.4,0.7 z m -25.5,71 c -0.4,0.2 -0.8,0 -1.3,0 0.7,0.8 0.8,0.8 1.3,0 z m 61.099995,178.3 c 1.1,-0.4 1.2,-0.7 0.3,-1.4 0.5,0.7 0,0.9 -0.3,1.4 z M 96.447255,88.225 h -0.3 c 0.2,0.5 0.4,1 0.5,1.5 h 0.2 c 0,-0.5 -0.2,-1 -0.4,-1.5 z"
     id="path1" />
  <path
     class="st0"
     d="m 162.94725,329.225 h 1.7 c -0.1,-0.3 -0.5,-0.2 -0.4,-0.5 0.1,-0.3 0.4,-0.3 0.6,-0.2 0.9,0.4 1.5,1.1 1.9,2 0.3,0.5 0.5,1.1 0.7,1.7 0.3,0.7 0.6,1.3 1.5,1.3 0.9,0 0.7,0.2 0.6,0.7 0,0.2 0,0.4 0.1,0.5 1,0.4 0.5,0.7 0,1.1 -0.1,0.1 -0.2,0.3 -0.2,0.4 0,0.4 0.5,1.1 -0.6,0.8 0,0 -0.1,0.4 -0.2,0.6 -0.4,1.5 -0.2,3.1 -0.2,4.6 0,4.4 -0.1,8.9 -0.2,13.3 0,1.3 -0.2,2.7 -0.2,4 0,1.3 0,0.9 0.5,1.1 0.7,0.4 1.2,0.9 1.6,1.5 0.2,0.3 0.7,0.8 0.3,1.3 -0.3,0.3 0.6,0.8 -0.2,1 0.3,0.9 -1.2,0.6 -1,1.4 0,0.1 -0.3,0.1 -0.4,0 -0.2,-0.1 -0.4,-0.1 -0.5,0 -0.8,0.6 -0.9,0.4 -2.1,0.2 -0.8,-0.1 -0.9,-0.8 -1.5,-0.9 -0.5,-0.1 0.3,-0.6 -0.2,-0.9 -0.7,-0.4 0,-0.5 0.2,-0.7 0.2,-0.2 0.4,-0.5 0,-0.7 -0.5,-0.2 -0.6,-0.4 0,-0.6 0.4,-0.2 0.5,-0.4 0.2,-0.7 -0.4,-0.4 -0.4,-0.7 0.3,-0.6 0.4,0.1 0.8,0 1,-0.4 0.1,-0.2 0.3,-0.3 0.4,-0.2 0.9,0.7 0.7,-0.3 0.7,-0.5 0,-1.3 -0.2,-2.7 -0.1,-4 0.1,-2.9 0.2,-5.8 0.3,-8.7 0.1,-2.7 0.6,-5.4 0.4,-8.2 0,-0.1 0,-0.2 -0.2,-0.3 -0.4,0.1 -0.2,0.6 -0.4,0.9 -0.1,-0.5 -0.1,-1 -0.2,-1.4 0,-0.1 0,-0.3 -0.1,-0.3 -0.8,-0.4 -0.8,-1.4 -1.5,-1.9 -0.1,-0.1 -0.2,-0.1 -0.3,-0.2 0.5,-0.5 0.3,-1.5 0.6,-1.7 0.5,-0.2 0.5,-0.7 0.9,-0.9 0.3,-0.2 0.3,-0.6 0.1,-0.7 -0.6,-0.4 0,0.3 -0.3,0.3 -0.5,0.1 -0.3,-0.3 -0.3,-0.5 -0.1,-1.1 -0.5,-1.8 -1.5,-2.2 -0.7,-0.3 -1.3,-0.2 -1.8,0.4 -1.1,1.4 -1.5,3.1 -2.1,4.7 -0.8,2.2 -1.1,4.6 -2.7,6.4 -0.8,0.9 -1.6,1.9 -3.1,1.6 -0.1,0 -0.2,0 -0.3,-0.1 h -0.1 c 0.2,-0.4 0.5,-0.3 0.8,-0.4 0.7,-0.2 1.3,-0.2 1.4,-1.3 0.1,-0.7 0.9,-1.3 1.4,-1.9 0.5,-0.6 0.8,-1.2 1,-1.9 0.5,-1.8 1.2,-3.5 1.8,-5.2 0.1,-0.3 0.5,-0.7 -0.2,-0.9 -0.2,-0.1 -0.1,-0.6 0.1,-0.5 1.1,0 1.3,-1.1 2,-1.7 z m 3.2,33.5 c 0.2,-0.5 0.2,-0.8 -0.1,-1 -0.1,-0.1 -0.3,-0.1 -0.4,0.1 -0.1,0.4 0.3,0.5 0.5,0.9 z"
     id="path2" />
  <path
     class="st0"
     d="m 128.74725,98.025 c -0.3,-0.5 -0.2,-0.8 0,-1.1 1.3,-2.4 1.9,-5 2.7,-7.5 0.9,-2.8 1.5,-5.7 1.6,-8.6 0.1,-1.5 0.2,-3 0,-4.5 -0.1,-0.6 0.1,-1.2 -0.1,-1.8 0,-0.2 -0.1,-0.5 0.2,-0.5 0.3,0 0.4,0.3 0.4,0.5 0,0.7 0.1,1.4 0.1,2.1 0.1,2.8 -0.1,5.6 -0.7,8.4 -0.4,1.8 -0.6,3.6 -1.2,5.4 -0.8,2.4 -1.6,4.9 -2.7,7.2 -0.1,0 -0.1,0.2 -0.3,0.4 z"
     id="path3" />
  <path
     class="st0"
     d="m 109.64725,123.425 c 0.1,-0.8 0.8,-1.1 1.3,-1.5 0.5,-0.6 1.2,-1.1 1.7,-1.7 0.2,-0.2 0.4,-0.6 0.7,-0.2 0.3,0.3 -0.1,0.4 -0.3,0.6 -0.9,0.9 -1.8,1.7 -2.7,2.6 -0.2,0.2 -0.4,0.2 -0.7,0.2 z"
     id="path4" />
  <path
     class="st0"
     d="m 132.14725,67.225 c 0.9,1.9 0.9,4 1.3,6 h -0.4 c -0.2,-2.1 -0.5,-4.1 -0.9,-6.1 v 0 z"
     id="path5" />
  <path
     class="st0"
     d="m 109.64725,123.425 c -0.7,1.1 -1.6,1.9 -2.8,2.5 -0.2,0.1 -0.3,0.2 -0.4,0 -0.1,-0.2 0.1,-0.3 0.2,-0.3 0.6,-0.2 0.8,-0.8 1.2,-1.2 0.4,-0.5 1.2,-0.7 1.8,-1 z"
     id="path6" />
  <path
     class="st0"
     d="m 119.04725,113.325 c -0.5,1.5 -1.7,2.1 -2.3,3.2 -0.1,0.1 -0.3,0.2 -0.4,0.1 -0.2,-0.1 -0.2,-0.4 0,-0.5 0.9,-0.7 1.3,-2 2.7,-2.8 z"
     id="path7" />
  <path
     class="st0"
     d="m 123.14725,107.725 c -0.1,-0.5 0.2,-1 0.5,-1.4 0.3,-0.4 0.7,-0.8 0.8,-1.3 0,-0.1 0.1,-0.3 0.3,-0.3 0.2,0.1 0.2,0.3 0.1,0.4 -0.5,1 -0.8,1.9 -1.7,2.6 z"
     id="path8" />
  <path
     class="st0"
     d="m 151.04725,339.125 c 0.6,1 1.3,2 2.1,3 -1,-0.2 -1.7,-1.3 -2.1,-3 z"
     id="path9" />
  <path
     class="st0"
     d="m 21.547255,308.125 c -0.1,-1 -0.6,-1.9 -0.5,-3.1 0.3,0.9 0.6,1.5 0.9,2.2 0.2,0.5 0.1,0.8 -0.4,0.9 z"
     id="path10" />
  <path
     class="st0"
     d="m 77.347255,399.125 c 0.6,0.7 1.3,1.2 1.9,1.9 0.1,0.1 0.2,0.3 0,0.4 h -0.3 c -0.6,-0.7 -1.3,-1.4 -1.6,-2.3 z"
     id="path11" />
  <path
     class="st0"
     d="m 151.14725,320.825 c -0.2,-0.1 -0.3,-0.2 -0.3,-0.4 -0.2,-1.1 0,-2.2 0.1,-3.2 0,1.1 0.2,2.4 0.2,3.6 z"
     id="path12" />
  <path
     class="st0"
     d="m 123.14725,107.725 c -0.3,0.5 -0.3,1.2 -1.1,1.5 0.1,-0.7 0.5,-1.2 1.1,-1.5 z"
     id="path13" />
  <path
     class="st0"
     d="m 120.44725,108.825 c -0.1,-0.2 -0.2,-0.2 -0.2,-0.2 0,-0.4 0,-0.8 0.3,-1.1 0.3,-0.3 0.2,0 0.3,0.1 0.2,0.5 -0.1,0.8 -0.4,1.2 z"
     id="path14" />
  <path
     class="st0"
     d="m 162.84725,329.325 c -0.7,0.1 -0.9,1 -1.7,1 0.5,-0.5 0.8,-1.4 1.7,-1 0.1,-0.1 0,0 0,0 z"
     id="path15" />
  <path
     class="st0"
     d="m 133.94725,318.225 c -0.3,-0.5 -0.3,-1 -0.1,-1.7 0.3,0.7 0.1,1.2 0.1,1.7 z"
     id="path16" />
  <path
     class="st0"
     d="m 66.347255,68.225 c 0.1,0.3 0.2,0.5 0.2,0.8 -0.1,0.4 0,0.6 0.4,0.7 0.3,0 0.4,0.3 0.2,0.6 -0.1,0.3 -0.4,0.4 -0.7,0.3 -0.3,0 -0.6,-0.2 -0.5,-0.5 0.2,-0.6 0,-1.3 0.4,-1.9 z"
     id="path17" />
  <path
     class="st0"
     d="m 61.447255,75.225 c 0.1,-1.2 1.1,-1.7 1.5,-2.8 0.3,1.5 -0.4,2.3 -1.5,2.8 z"
     id="path18" />
  <path
     class="st0"
     d="m 98.447255,60.425 c -0.1,0.3 -0.2,0.7 -0.6,0.6 -0.4,0 -0.8,-0.3 -0.7,-0.7 0,-0.4 0.4,-0.5 0.7,-0.5 0.3,0 0.6,0.2 0.6,0.6 z"
     id="path19" />
  <path
     class="st0"
     d="m 89.247255,53.425 c -0.1,0.4 -0.3,0.6 -0.7,0.5 -0.4,0 -0.6,-0.2 -0.6,-0.6 0.1,-0.4 0.3,-0.6 0.7,-0.6 0.4,0 0.5,0.3 0.6,0.7 z"
     id="path20" />
  <path
     class="st0"
     d="m 84.647255,70.525 c -0.2,0.4 -0.5,0.6 -0.9,0.6 -0.4,0 -0.4,-0.2 -0.3,-0.4 0.1,-0.4 0.3,-0.7 0.8,-0.7 0.5,0 0.3,0.3 0.4,0.5 z"
     id="path21" />
  <path
     class="st0"
     d="m 63.747255,97.025 c 0,0.4 -0.2,0.6 -0.6,0.6 -0.4,0 -0.5,-0.2 -0.5,-0.5 0,-0.3 0.3,-0.6 0.6,-0.6 0.4,0 0.5,0.2 0.5,0.5 z"
     id="path22" />
  <path
     class="st0"
     d="m 78.947255,77.025 c 0.3,0 0.5,0.2 0.5,0.5 0,0.3 -0.2,0.5 -0.6,0.5 -0.4,0 -0.5,-0.2 -0.5,-0.5 0,-0.3 0.3,-0.4 0.6,-0.5 z"
     id="path23" />
  <path
     class="st0"
     d="m 76.847255,70.625 c 0.3,0 0.6,0.2 0.6,0.6 0,0.4 -0.3,0.4 -0.6,0.4 -0.3,0 -0.5,0 -0.5,-0.5 0.1,-0.3 0.2,-0.5 0.5,-0.5 z"
     id="path24" />
  <path
     class="st0"
     d="m 77.947255,62.725 c 0.3,0 0.5,0.2 0.5,0.5 0,0.3 -0.2,0.5 -0.5,0.5 -0.3,0 -0.5,0 -0.5,-0.4 0,-0.4 0.1,-0.6 0.5,-0.6 z"
     id="path25" />
  <path
     class="st0"
     d="m 92.547255,69.725 c -0.1,0.3 -0.3,0.3 -0.6,0.3 -0.3,0 -0.6,0 -0.5,-0.5 0,-0.3 0.3,-0.4 0.5,-0.4 0.4,0 0.6,0.2 0.6,0.6 z"
     id="path26" />
  <path
     class="st0"
     d="m 65.747255,81.225 c 0,0.3 -0.1,0.5 -0.4,0.4 -0.3,0 -0.4,-0.2 -0.4,-0.5 0,-0.3 0.2,-0.5 0.4,-0.5 0.4,0 0.4,0.4 0.4,0.6 z"
     id="path27" />
  <path
     class="st0"
     d="m 59.647255,90.425 c 0,0.2 -0.1,0.4 -0.3,0.5 -0.3,0 -0.5,-0.2 -0.5,-0.5 0,-0.3 0,-0.4 0.3,-0.4 0.3,0 0.4,0 0.5,0.4 z"
     id="path28" />
  <path
     class="st0"
     d="m 72.547255,77.225 c 0,0.3 -0.2,0.5 -0.4,0.5 -0.3,0 -0.5,0 -0.5,-0.4 0,-0.4 0.1,-0.5 0.4,-0.5 0.3,0 0.5,0.2 0.5,0.4 z"
     id="path29" />
  <path
     class="st0"
     d="m 71.647255,94.525 c -0.2,0 -0.4,0 -0.5,-0.3 0,-0.3 0.2,-0.5 0.5,-0.5 0.3,0 0.4,0.2 0.4,0.4 0,0.3 0,0.4 -0.4,0.4 z"
     id="path30" />
  <path
     class="st0"
     d="m 100.14725,52.525 c 0.2,0.7 0.1,1.1 -0.299995,1.4 h -0.3 c -0.2,-0.5 0.2,-0.8 0.599995,-1.3 v 0 z"
     id="path31" />
  <path
     class="st0"
     d="m 86.847255,77.625 c 0,0.3 -0.1,0.4 -0.4,0.4 -0.3,0 -0.5,0 -0.4,-0.4 0,-0.2 0.1,-0.4 0.4,-0.4 0.3,0 0.4,0.2 0.4,0.4 z"
     id="path32" />
  <path
     class="st0"
     d="m 87.747255,62.425 c 0,0.3 -0.2,0.4 -0.4,0.4 -0.3,0 -0.4,-0.2 -0.4,-0.4 0,-0.2 0.2,-0.3 0.4,-0.3 0.2,0 0.4,0 0.4,0.3 z"
     id="path33" />
  <path
     class="st0"
     d="m 74.047255,84.025 c 0,0.2 -0.1,0.3 -0.3,0.3 -0.2,0 -0.4,-0.2 -0.4,-0.4 0,-0.3 0.2,-0.4 0.4,-0.4 0.2,0 0.3,0.3 0.3,0.5 z"
     id="path34" />
  <path
     class="st0"
     d="m 78.647255,95.025 c 0.1,-0.2 0.2,-0.4 0.4,-0.4 0.2,0 0.3,0 0.3,0.3 0,0.3 -0.2,0.4 -0.5,0.4 0,0 -0.2,0 -0.2,-0.3 z"
     id="path35" />
  <path
     class="st0"
     d="m 61.447255,75.225 c 0.1,0.4 0.3,0.7 -0.2,1 h -0.3 c 0,-0.4 0.1,-0.8 0.5,-1 z"
     id="path36" />
  <path
     class="st0"
     d="m 97.147255,79.425 c 0,0.5 -0.3,0.7 -0.8,0.7 -0.5,0 -0.6,-0.4 -0.6,-0.7 0,-0.5 0.5,-0.7 0.9,-0.7 0.4,0 0.5,0.4 0.5,0.7 z"
     id="path37" />
  <path
     class="st0"
     d="m 97.547255,73.825 c 0.4,0 0.5,0.3 0.5,0.7 0,0.8 0,1.7 -0.1,2.5 -0.2,-0.6 -0.8,-1 -0.3,-1.8 0.2,-0.3 0,-0.9 0,-1.4 v 0 z"
     id="path38" />
  <path
     class="st0"
     d="m 89.647255,89.925 c -0.4,0 -0.6,-0.2 -0.6,-0.5 0,-0.3 0.3,-0.7 0.7,-0.8 0.2,0 0.6,0 0.5,0.3 -0.2,0.4 -0.2,0.9 -0.6,1 z"
     id="path39" />
  <path
     class="st0"
     d="m 94.347255,81.925 c -0.2,0.2 -0.3,0.7 -0.6,0.8 -0.2,0 -0.2,-0.2 -0.2,-0.4 0,-0.3 0.1,-0.6 0.5,-0.6 0.4,0 0.2,0 0.3,0.2 z"
     id="path40" />
  <path
     class="st0"
     d="m 83.447255,113.725 c 0.6,0 1.1,0.4 1.6,0.8 0.1,0.1 0.2,0.2 0.1,0.4 -0.1,0.2 -0.3,0.1 -0.4,0 -0.4,-0.5 -1.2,-0.5 -1.3,-1.2 z"
     id="path41" />
</svg>
