<?xml version="1.0" encoding="UTF-8" standalone="no"?>
<svg
   id="Layer_1"
   version="1.1"
   viewBox="0 0 163 300.9"
   sodipodi:docname="diadumene_lineata_dk.svg"
   width="163"
   height="300.89999"
   inkscape:version="1.4.2 (ebf0e940, 2025-05-08)"
   xmlns:inkscape="http://www.inkscape.org/namespaces/inkscape"
   xmlns:sodipodi="http://sodipodi.sourceforge.net/DTD/sodipodi-0.dtd"
   xmlns="http://www.w3.org/2000/svg"
   xmlns:svg="http://www.w3.org/2000/svg">
  <sodipodi:namedview
     id="namedview1"
     pagecolor="#ffffff"
     bordercolor="#000000"
     borderopacity="0.25"
     inkscape:showpageshadow="2"
     inkscape:pageopacity="0.0"
     inkscape:pagecheckerboard="0"
     inkscape:deskcolor="#d1d1d1"
     inkscape:zoom="4.2059192"
     inkscape:cx="137.06873"
     inkscape:cy="201.73949"
     inkscape:window-width="2560"
     inkscape:window-height="1332"
     inkscape:window-x="0"
     inkscape:window-y="25"
     inkscape:window-maximized="1"
     inkscape:current-layer="Layer_1" />
  <!-- Generator: Adobe Illustrator 29.8.2, SVG Export Plug-In . SVG Version: 2.1.1 Build 3)  -->
  <defs
     id="defs1">
    <style
       id="style1">
      .st0 {
        fill: #030382;
      }
    </style>
  </defs>
  <g
     id="Layer_2"
     transform="translate(0,32)">
    <g
       id="Layer_1-2">
      <path
         class="st0"
         d="m 141.8,88.7 c 6.2,-3 12.9,-5 18.1,-9.8 -11.5,15.6 -30.5,14.6 -47.6,21 4.2,1.1 7.2,1.7 10.1,2.6 7.7,2.2 14.2,6.5 20.3,11.5 5.6,4.6 11.1,9.2 18.3,11.4 -7.8,-0.3 -13.7,-4.3 -19.6,-8.7 -7.3,-5.5 -14.3,-11.5 -23.9,-12.7 -1,0 -1.9,0 -3.2,-0.2 0.3,2.7 2.5,3.7 3.5,5.4 1.1,2 2.5,4 3.4,6.1 0.8,1.8 1.6,4.6 -0.6,5.2 -2.2,0.6 -2.1,-2.4 -2.6,-4 -1.1,-3.5 -3,-6.6 -5.5,-9.2 1.8,9 2.2,16.6 0.3,24.1 -0.5,1.9 -0.5,4.2 -1.6,5.7 -5.8,8.5 -2.5,17.2 -0.9,25.9 2.6,14.5 8.4,28 13.4,41.7 0.6,1.6 0.9,3.2 1.3,4.8 -5.8,-10.5 -9.6,-21.9 -13.1,-33.3 -1.2,-3.9 -2,-7.8 -3.1,-11.7 0.5,10.7 3.2,21.1 7.9,30.7 1.5,3 3,6 3.2,9.4 -7.6,-12.1 -13.1,-25 -14,-39.5 -0.7,-10.4 -3.3,-20.4 -6.4,-30.5 -1.4,4.2 -3.8,8 -2.1,12.9 5.8,16.8 7,34.2 6.3,51.7 -0.4,10 -0.8,19.9 1.3,29.8 1.7,8.1 1.3,8.2 9.6,8.4 9.7,0.2 10.1,-0.3 7.4,-9.6 -0.2,-0.5 -0.2,-1 -0.2,-1.5 1.1,-7.4 -1,-14.6 -1.8,-21.8 3,3.6 3.1,8.2 4.1,12.5 1.5,6.3 -1.5,13.6 4.1,19.4 0.8,-1.5 0.5,-2.8 0.6,-4.1 0.4,-7.9 -1.3,-15.4 -3.8,-22.8 4.9,7.4 7,16.3 5.8,25.1 -0.4,3.9 -3.6,4.8 -7.1,4.8 -10.5,0 -21,0 -31.5,0.1 -12.7,0 -25.3,-0.2 -38,0 -4.5,0.1 -6.5,-1.6 -7.7,-5.8 -2.1,-7.3 -0.2,-14.3 1.1,-21.2 2.6,-14.6 8.3,-28.4 12.4,-42.7 4.3,-15 8,-30 4.8,-45.7 0,-0.3 -0.3,-0.6 -0.4,-0.8 -2,1.2 0,3.9 -2.2,5.4 -3.1,-6 0.9,-11.9 0.2,-19 -5.2,8.1 -3.8,17.3 -9.5,23.8 3.3,-8.1 0.3,-17 4.7,-26.1 l -27.7,15.5 c 7.3,-10.9 18.3,-16.8 29.3,-22.8 -5.5,0 -10.7,2.2 -17,1.9 2.7,-3.3 6.1,-3.4 8.9,-4.7 1.2,-0.5 3,-0.5 2.4,-2.4 -0.5,-1.7 -2.1,-1.4 -3.4,-1 -7.5,2.1 -13,7.2 -18.3,12.6 -2.6,2.7 -5.1,5.6 -8.3,9.1 -0.4,-5 2.1,-7.6 4.3,-9.9 C 33.6,99.8 39.1,93.3 47.7,91.1 48.8,90.8 50.1,90.3 50,88.8 49.9,87.3 48.7,86.5 47.3,86.3 45.2,85.9 43,85.6 40.9,85.5 29.5,85.3 18,85.3 7.1,89.8 c 1.4,-2.3 3.7,-3.1 5.9,-4 8.9,-3.8 18.7,-5.3 28.4,-4.4 2.1,0.2 5.5,1.7 5.7,-1.8 0.2,-3.1 1,-7.2 -3.1,-9.2 C 36.4,66.5 28.4,63.8 20,62.2 13,60.8 6.3,58.4 0.1,54.9 15.3,53.7 29.5,58.8 44.2,62.1 36,52.4 24.5,46.9 14.5,39.5 c 0.3,-0.5 0.6,-1 1,-1.5 L 46.6,56.2 C 47.4,43 46.8,29.8 45,16.7 l 1.7,-0.2 c 0.4,3.1 0.9,6.2 1.2,9.4 0.9,8.6 2.1,17.2 2.3,25.9 0,3.7 1,5.4 5.4,3.3 7.9,-3.6 10.9,-2.3 15,5.2 1.4,2.6 2.5,5.4 4.4,9.6 1.5,-24.1 6.6,-47.8 15.2,-70.3 0.8,4.2 -0.9,8.1 -1.9,12 -3.2,12.5 -4.2,25.3 -6.8,37.8 -1.7,7.8 1.3,15.8 1.7,23.8 0,2.1 1.2,2 2.7,1.1 1.1,-0.8 1.9,-1.9 2.4,-3.1 4.8,-10.2 10.5,-20.1 9.8,-32 0,-0.6 0.3,-1.2 0.6,-1.8 2.1,0.2 2,1.8 2.1,3 0.6,8.6 0.5,17 -4,24.8 -1,1.7 -2.6,3.6 -1.2,5.5 1.4,1.9 3.4,0 5.1,0 6.4,-0.2 8.6,-4.4 9.2,-10 1.4,-14.2 7.4,-27.2 10.5,-41 0.2,-0.9 0.2,-2.1 2,-2.3 -2.7,16.1 -7.2,31.7 -9.6,48.5 6.8,-2.2 10,-7.4 13.3,-12.4 3.3,-5 5.2,-10.5 8,-17.2 1.2,4.1 1.1,6.9 0.3,9.5 -1.6,5.3 -3.3,11.2 -7.5,14.5 -8.4,6.7 -8.2,17.1 -13.8,26.3 21.2,-4.7 40.9,-9 49.7,-31.2 1.8,5.6 -4.4,11.9 -11.8,20.6 -5.6,6.6 -13,10.1 -21,13.1 l 12,-0.7 c -2.2,1.2 -4.6,1.9 -7.1,2 -6.6,0.6 -13.1,1.7 -19.6,3.2 -5.8,1.3 -10.2,4.6 -12,9 8.6,-5.8 17.9,-7.4 27,-9.7 3.9,-1 7.7,-1.9 11.6,-3 1.3,-0.3 2.6,-0.9 0,-1.6 v 0.4 z m -58.5,145 c -1.4,-1.6 -0.7,-2.8 -0.6,-3.9 1.4,-17.2 3.4,-34.4 4,-51.7 0.5,-13.2 0.2,-26.4 -0.6,-39.6 0,-1.5 -0.3,-2.6 -2.1,-2.7 -1.5,0 -2.7,0.5 -2.9,2.1 -0.2,1.2 -0.2,2.3 0,3.5 2.1,12.6 1.2,25.4 -2.7,37.6 -5.3,16.5 -7.8,33.8 -7.4,51.1 0,1.4 0.6,3.2 -1.9,4.6 -0.6,-11.2 0.5,-21.8 1.2,-32.4 0.6,-7.1 2.3,-14.2 4.8,-20.9 5.1,-13.9 5.7,-28.3 3.5,-42.9 -0.2,-1.2 -0.4,-2.7 -1.9,-2.4 -2.2,0.4 -0.8,2 -0.6,3.2 0.4,2.8 2.3,5.3 1.7,8.6 -2.9,-1.8 -3.1,-5.1 -5.7,-7 2.4,14.4 0.3,28.1 -4.3,41.4 -3.6,10.6 -6,21.5 -7.2,32.6 -0.6,5.4 -0.4,10.9 -2.7,17.4 -1,-7.2 0.7,-12.7 1,-18.3 0.6,-12.6 2.2,-24.9 7.4,-36.4 5.1,-11.4 5,-23.3 3.8,-35.3 -0.2,-2.4 0.4,-5.1 -2,-8.4 -0.7,17.2 -5.1,32.3 -10.2,47.3 -3,9 -6.1,18 -8.2,27.2 -1.9,8.2 -4.1,16.5 -1.5,25.1 0.6,2 1.3,3.7 3.9,3.9 4,0.2 8,0.9 11.9,0.9 11.3,-0.2 22.6,-0.6 33.9,-0.9 6.6,-0.2 6.6,-0.1 5.4,-6.4 -1.9,-10 -3.5,-20.1 -2.4,-30.3 0.8,-7 0.4,-13.9 0,-20.9 -0.4,-9.9 -3.3,-19.3 -5.2,-28.9 -0.8,-4.3 -2,-8.7 -2.6,-13.1 0,-0.9 -0.4,-2.1 -1.6,-2.3 -0.7,-0.1 -1.3,0.3 -1.5,1 v 0 c -0.8,3 -2.7,5.9 -2.1,9.1 1.4,7.1 0.6,14.3 0.9,21.4 0.6,17.9 -2.2,35.5 -3.5,53.2 -0.3,4.2 0,8.7 -2.2,13.2 v 0 z M 66.1,85.4 C 59.2,70.2 24.2,53.7 7.6,57.8 c 11.1,3.5 21.9,4.8 31.8,9.2 10,4.4 19,10.7 26.7,18.4 z m 15.1,48.3 c 4.6,-1.1 5,-1.1 5.1,-2.8 0.6,-7.6 0.3,-15.1 -3.7,-22.1 -2.2,1.8 -0.9,4.4 -2,5.8 -2.8,3.5 -2.1,-2.1 -3.3,-2 -3.9,5.4 3.8,12.6 -3.9,16.8 2,0.8 3.4,0 4.9,-0.8 1.5,-0.8 3.1,-2.6 4.8,-0.6 1.7,2 -0.4,3.5 -1.8,5.6 v 0 z M 79.4,50.1 c -1.8,9.7 -3.9,19.4 -2.8,29.4 0.7,6.1 3.6,12.1 0.7,18.3 9.4,-15.5 0,-31.8 2,-47.7 z m -9,28.7 C 69.6,72.6 67.5,66.7 64.3,61.3 62.4,58 56.9,58.1 54.3,60.8 c -1,1.1 -1.1,2 0,3 5.3,5 10.8,10.1 16.1,15 z m 75,0 c -8.9,4.6 -18.6,6.6 -28,9 -8.3,2.2 -15.5,5.5 -20.2,13.8 6.4,-1.6 10,-7.1 15.6,-9.1 5.6,-2 11.4,-3.8 17.1,-5.6 5.7,-1.8 11.4,-3.4 15.5,-8.2 v 0 z"
         id="path1" />
    </g>
  </g>
</svg>
