<svg xmlns="http://www.w3.org/2000/svg" width="391" height="205" viewBox="0 0 391 205">
  <g id="Group_444" data-name="Group 444" transform="translate(-173 -3814)">
    <rect id="Rectangle_52" data-name="Rectangle 52" width="391" height="205" transform="translate(173 3814)" fill="#e5f4ff"/>
    <g id="Layer_2" transform="translate(266.44 3872.962)">
      <g id="Layer_1-2" transform="translate(0 0)">
        <path id="Path_263" data-name="Path 263" d="M68.681,23.13a8.14,8.14,0,0,1,2.711-1.454c.216-.039.589-.354.609.1.02.412.805.707.177,1.179a4.884,4.884,0,0,0-.962,1.237c-.1.157-.255.354-.1.53.216.236.432.039.589-.1a7.422,7.422,0,0,1,2.534-1.237,1.051,1.051,0,0,1,1.1.1,1.482,1.482,0,0,0,1.886-.059c.275-.2.648-.511.982-.255.373.314.079.746-.079,1.08-.255.589-.609,1.159-.9,1.748-.138.275-.236.57.079.786.275.177.511,0,.687-.177a7.652,7.652,0,0,1,2.632-1.827c.452-.177.943-.314,1.257.137.295.412-.236.609-.432.864-.314.452-.707.864-1.041,1.3s-.373.55-.059.786c.255.2.491-.039.687-.216a10.028,10.028,0,0,1,3.005-1.827c.314-.118.589-.275.864.118s.039.609-.177.864c-.393.471-.805.943-1.2,1.434-.216.275-.589.589-.295.943.334.412.668,0,.923-.177a25.127,25.127,0,0,1,3.261-1.611c.2-.1.668-.275.589.059-.138.511,1.257.746.177,1.355a6.079,6.079,0,0,0-2.2,1.748c.452.236.687-.079.943-.236A20.154,20.154,0,0,1,90.72,29c.177-.059.491-.1.452.157-.079.373.432.805-.157,1.12a14.7,14.7,0,0,0-1.65,1.061c-.236.177-.609.255-.57.9a11.656,11.656,0,0,1,3.987-1.395c.393-.1.746-.236,1,.236s-.177.609-.412.825A17.765,17.765,0,0,0,91.6,33.58c1.08-.511,2.2-.962,3.241-1.532.982-.55.786.629,1.3.845.373.157-.255.432-.471.589-.471.393-1.08.648-1.414,1.257a7.822,7.822,0,0,1,3.83-1.021,1.488,1.488,0,0,1,.589,0c.314.079.707.177.746.53s-.354.412-.609.511c-.216.079-.452.1-.57.511.766-.2,1.473-.373,2.2-.55.255-.059.629-.452.766-.079.138.393,1.1.511.275,1.237.864-.059,1.434-.923,2.161-.334.275.216-.2.432-.137.727.334.118.393-.255.609-.373a.945.945,0,0,1,1.1-.02c.314.255-.059.53-.177.786-.412.943-.589,1.964-1,2.946a7.315,7.315,0,0,1,2.259-2.4c.295-.2.57-.57.943-.314.314.216-.079.53-.079.805a20.469,20.469,0,0,1-.53,2.789c.707-1.611,2.2-2.259,3.614-3.32-.118.982-.766,1.709-.53,2.573.354-.039.314-.334.393-.511.2-.432.471-.845.962-.884s.334.55.57.805.275.766.727.668c.354-.079.295-.53.373-.845v-.2c.059-.412,0-1.021.511-1.041.55,0,.452.629.452,1.021a3.443,3.443,0,0,0,.943,2.043,8.71,8.71,0,0,1,1.65-3.5c.236-.373.412-.962.982-.727.55.236-.059.687,0,1.021a.6.6,0,0,0,.1.236c.452-.2.491-.629.609-1.021a5.493,5.493,0,0,1,.354-1,.541.541,0,0,1,.57-.314c.334.079.2.354.177.57,0,.255-.138.629.157.687.412.079.295-.412.412-.629,0-.059.039-.138.039-.2.137-.393-.1-1.021.57-1.1.727-.079.354.707.727,1a2.134,2.134,0,0,0,.275-1.375c0-.471-.1-.982.589-1.021.629-.039.629.412.648.864,0,.118,0,.255.295.314.177-.962-.393-2.043.412-2.868.412.236.589.687.884,1.316.118-.923-.177-1.67.1-2.377.668.157.609.943,1.159,1.179.236-.57-.157-.943-.314-1.395-.138-.354-.354-.825.1-1.061.373-.2.53.255.707.511.137.216.275.55.57.452.393-.157.138-.511.079-.766-.138-.511-.334-1-.491-1.493-.059-.216-.2-.471.059-.609s.412.118.57.275c.295.314.412.825,1.021.864,0-.825-.609-1.375-.766-2.082-.059-.295-.354-.668,0-.884.314-.177.491.216.687.412s.471.589.805.354c.255-.2,0-.55-.118-.805a4.778,4.778,0,0,1-.687-2c.629-.1.943.511,1.532.648.059-1.12-.923-1.827-1.041-2.848.766,0,1,.825,1.827.825-.55-1.061-1.512-1.729-1.866-2.966a6.494,6.494,0,0,1,3.378,1.63c.216.177.354.707.746.393.275-.216,0-.55-.137-.805-.668-1.434-.589-3.084-1.316-4.518a.591.591,0,0,1,.295-.766c.295-.137.412.236.57.412a14.676,14.676,0,0,1,1.552,2.239,21.442,21.442,0,0,0-1.3-3.83c-.2-.393-.334-.845,0-1.061.393-.255.609.275.805.511.53.629.982,1.3,1.493,1.945.157.2.314.511.629.334.216-.137.157-.432.059-.629-.589-1.414-.432-3.064-1.257-4.42-.079-.137-.157-.295,0-.452s.314-.059.452,0a1.646,1.646,0,0,1,.982.845,6.188,6.188,0,0,0,1.886,2.161c-.491-1.591-.53-3.241-1.218-4.734-.137-.295-.491-.687-.039-.943.491-.295.707.2.864.53a28.728,28.728,0,0,0,1.768,2.593c.157.275.393.57.786.432a.662.662,0,0,0,.393-.805c-.275-1.63.57-3.241.039-4.812.589-.295.491,1.1,1.1.334.255-.314.059-.884.53-1.218A7.25,7.25,0,0,0,141.22,8.1c.079.373.059.825.55.943a.936.936,0,0,0,.982-.53,21.615,21.615,0,0,0,2.337-3.732c.1-.255.138-.57.452-.727.295.177.295.511.334.766.1.53.295.727.766.354s.629-.059.786.314c.236.589.432,1.159.668,1.748.137.314.216.845.668.687s.1-.629.059-.943c-.059-.393-.177-.766-.255-1.139a.494.494,0,0,1,.236-.609c.295-.137.373.137.53.295a3.694,3.694,0,0,1,1.041,1.846c.039.177.157.393.373.412s.255-.157.275-.334c.2-1.65,1.512-2.868,1.689-4.557a2.837,2.837,0,0,1,.727,2.75c-.039.295-.157.746.2.884.393.157.471-.334.687-.55a12.605,12.605,0,0,0,2.75-3.595,2.069,2.069,0,0,1,.314,2.161c.864-.314,1-.982,1.277-1.532.079-.177.137-.393.393-.354.2.02.236.216.275.373.236.786.825,1.512.255,2.4a.443.443,0,0,0,0,.55c.236.2.452,0,.589-.177.648-.766,1.277-1.552,1.925-2.337.452.295.275,1.218,1.061.982.53-.157.491-.923,1.218-1.237-.432,1.3.177,2.495-.295,3.712a4.066,4.066,0,0,0,1.964-1.748c.236-.314.295-1.08,1.041-.589.629.432.53.864.157,1.395a1.332,1.332,0,0,0-.295,1.179c1.611-.1,2.279-1.748,3.693-2.3a14.886,14.886,0,0,0,.236,1.532c.039.2.059.55.511.354,1.021-.452,1.316-.412,2.416.2l-1.512,1.021c.9.393,1.434-.079,1.984-.393a14.974,14.974,0,0,0,1.748-1.395c-.216,1.021-.9,1.571-1.139,2.436,1.12-.295,1.532-1.336,2.514-1.67-.589.943.216,2.1-.845,3.025,1.08-.079,1.532-.805,2.161-1.218.255-.157.707-.609.746-.373.079.55,1.041.884.412,1.591-.157.177-.334.314-.471.491-.216.295-.825.491-.589.884.177.314.727.118,1.12.1a7,7,0,0,0,2.141-.687c.177-.059.373-.216.55-.059a.507.507,0,0,1,.059.629,2.226,2.226,0,0,0-.255,1.375L184,12.248c.177-.059.393-.2.55,0s0,.354-.1.53a.288.288,0,0,0-.039.079c-.118.393-.845.629-.511,1.021s.923.059,1.395-.039c.275-.059.589-.314.825-.039.2.236-.079.511-.2.707-.314.55.354,1.08,0,1.63.452-.059.864-.137,1.3-.157.255,0,.668-.275.746.137.059.354.137.884-.491.982-.079,0-.137.118-.255.2.825.746,1.925.236,2.809.609-.118.471-.687.295-.805.707.491.236.884-.118,1.316-.157.118,0,.295,0,.354.079a.447.447,0,0,1-.059.354c-.668.471-.334,1.709-1.709,1.729,1.277.864,2.279.2,3.437.1-.609.943-.845,2-2.22,1.925.648.589,1.355.412,2,.432.511.039,1.041,0,.491.727-.393.511-.1.727.373.805a6.106,6.106,0,0,0,1.2,0c-.236.511-.589,1.1.354.982.236-.039.373.079.275.354a2.374,2.374,0,0,0-.1.354c.746-.275.648.766,1.3.825.255.02.688.589,1.041.9.491.452,1.237.511,1.63.864.943.805,1.846-.314,2.789.177a1.278,1.278,0,0,0,1.591-1c.314.216.157.55.452.648a1.464,1.464,0,0,1,1.532-.746c.609,0,.884,0,.943-.295.236-1.08.786-.53,1.277-.255a2.908,2.908,0,0,1,2.279-2.534,2.443,2.443,0,0,1,1.395-2.691c.354-.118.255-.314.255-.53,0-.746.354-.982,1.08-.707.118-.412-.255-.55-.412-.825-.118-.236-.354-.471-.177-.707.236-.295.452.059.688.118.079,0,.177.039.275.039,0-.432-.727-.648-.354-1.12.255-.334.609,0,.982-.059,0-.412-.393-.962.491-1.021.393,0,.2-.805.216-1.159.118-1.3.668-.884,1.414-.432-.275-1.905,1.1-2.829,2.141-3.928.471-.491.786-1.159,1.434-1.414a15.637,15.637,0,0,0,2.259-1.611c.786-.471.805-.2,1.218-.059a1.564,1.564,0,0,0,2.239-1,16.264,16.264,0,0,1,3.221-5.343A10.376,10.376,0,0,1,232.38-.5c0,.137.039.236,0,.236a13.582,13.582,0,0,0-5.5,5.441,15.038,15.038,0,0,0-1.139,2.809c-.1.255-.236.609.079.805s.57,0,.805-.2c2.691-1.807,5.461-3.477,7.955-5.539.727-.629,1.473-1.218,2.259-1.787a8.008,8.008,0,0,1-2.3,2.436q-3.948,2.829-7.936,5.618a1.952,1.952,0,0,0-.766,1c-.157.412-.2.648.236.962a2.8,2.8,0,0,1,.687,3.2c-.039.079-.177.2-.157.216.864,1.12-.471.825-.805,1.237.746.629.943,1.159-.314,1.355-.255.039-.491.255-.138.55.864.707-.236,1.473,0,2.239.059.2-.648.059-1.12.314,1.12.216.727,1.061.825,1.67.059.452-.687.609-.727,1.139,0,.039-.255.1-.236.118.295,1.493-.9.589-1.375.864.039.059.039.118.079.157.334.216,1.08-.059,1.041.471-.059.687-.864.295-1.316.511.255.373.982.157.962.687,0,.412-.589.118-.825.354.923,1.277-.57.668-.805,1,0,.511.845.471.609.864-.255.452-.923.02-1.395.295.059.511.805.295.864.786-.157.393-.609.137-.825.393.059.354.746.177.57.629-.118.314-.511.2-.805.216a1.288,1.288,0,0,0-.825.2c.314.354,1.179.118,1.08.707s-.9.079-1.257.471c0,.216.2.236.334.314.216.157.334.354.236.589s-.334.157-.53.118a5.729,5.729,0,0,0-1.945.236c.334.216.805.137.825.53s.354.511.629.805c-.845.354-1.689-.02-2.514.295.334.471,1.021.491,1.277,1.061-.432.412-1.1-.039-1.571.412a1.386,1.386,0,0,1,.589,1.2c-.707-.02-1.395-.393-2.18-.177.53.53.373,1.375,1.08,1.846-.687.02-1.2-.589-1.787-.432-.884.216-.57.9-.314,1.591-.805-.079-1.316-.805-2.062-.707,0,.707.805.864.923,1.454-.216.216-.373.039-.55-.039-.314-.138-.668-.491-.982-.177s.275.53.275.9c-.354.2-.668-.039-.982-.137-1.355-.471-1.748-.177-1.65,1.257a2.017,2.017,0,0,0,.1.471c-.432.118-.55-.236-.766-.393s-.354-.471-.668-.511c-.295.236.57,1.08-.55.923-.275-.039.157.511-.1.805-.55-.118-.53-.845-1.041-1.041-.393.236-.275.746-.55,1.12a5.2,5.2,0,0,0-2.4-1.493c.393.687-.118,1.277.039,1.905-.413.1-.491-.2-.648-.393-.236-.295-.432-.805-.864-.668-.491.138-.137.687-.354,1.2-.727-.766-1.257-1.65-2.18-1.964-.53.432,0,1.512-.825,1.571-.589.039-.471-.9-.884-1.277a6.809,6.809,0,0,1-.491-.57c-.373.511-.275,1.08-.393,1.67-.9-.491-.943-1.591-1.768-2.043.177.766-.648.687-.923,1.1-.079.118-.295-.412-.452-.648-.393-.57-.354-1.375-.982-1.886-.295.432.039.786-.059,1.12-.059.2-.138.393-.354.432-.255.059-.314-.177-.393-.354-.039-.1-.059-.177-.1-.275-.157-.432-.314-1.08-.727-1.061a1.374,1.374,0,0,0-1.277.845,13.505,13.505,0,0,0-.9-2.868c-.1-.216-.079-.589-.452-.53-.275.059-.236.373-.236.589a.878.878,0,0,1-.216.727c-.216.177-.432.491-.746.354s-.177-.452-.118-.687a9.062,9.062,0,0,0,.059-2.062c0-.216.079-.511-.236-.57-.275-.039-.354.236-.452.432s-.177.412-.295.629c-.118.236-.275.471-.609.354s-.334-.393-.255-.668a3.781,3.781,0,0,0,.2-2.121c-.295.432-.491.746-.727,1.041-.138.177-.255.452-.53.295-.236-.137-.2-.412-.1-.629a4.428,4.428,0,0,0,.236-2.475c-.589.275-.491.943-.943,1.277-.55-1.061-.039-2.141-.039-3.3-.668.295-.766,1.021-1.414,1.277a1.652,1.652,0,0,1-.059-1.3c.118-.295.314-.687,0-.9s-.491.216-.746.334c-.1.02-.177.039-.275.059-.216-.314-.039-.589.079-.845.177-.373.255-.57-.295-.629-.354-.02-.314-.354-.295-.629.039-.314.2-.629,0-.962-.295,0-.255.275-.334.432-.118.295-.275.57-.629.471-.412-.1-.255-.452-.236-.727.059-.805-.1-.648-.9-1.512-.452-.491-1.218-.962-1.277-1.846a2.609,2.609,0,0,0-.177-.864c-.079-.236-.079-.589-.412-.57-.275,0-.236.354-.314.55a10.293,10.293,0,0,1-.589,1.532c.275-1.257-1.041-1.571-1.336-2.495-.079-.236-.236-.2-.354,0s-.354.216-.393.039c-.236-1.12-1.964-.648-1.866-2.023-.491.275-.118.923-.609.943-.373,0-.55-.412-.687-.746-.039-.1-.1-.255-.138-.255-1.473.2-1.532-1.473-2.514-1.925,0,0-.1.079-.1.118,0,.393.471.923,0,1.159-.412.216-.687-.354-.962-.668a2.871,2.871,0,0,0-.314-.373c-.295-.236-.373-.845-.805-.746-.471.118-.138.609-.2.943-.079.53-.452.471-.825.393a4.538,4.538,0,0,1-2.318-1.768c.177.629.275,1.021.412,1.512-1.179-.157-1.63-1.2-2.495-1.748-.079.53.746,1.1.157,1.336-.884.373-1.316-.57-1.846-1.08-.354.177-.157.412-.118.609.039.275.491.53.177.766-.275.216-.609-.059-.9-.2-.236-.1-.354-.412-.668-.373-.255.373.177.668.079,1.1-.373-.216-.707-.412-1.061-.629s-.766-.668-1.021.137c-.059.216-.334.177-.53.118-.766-.295-1-.079-.609.845a1.892,1.892,0,0,0-2.043.295c-.295.236.314.511.314.923-.629,0-.864-.727-1.414-.746.275,1,.177,1.1-.884.884-.766-.157-1.532-.334-2.416-.53.471.746,1.237.923,1.748,1.473-.491.393-1.041,0-1.512.157-.157.412.354.412.393.766l-1.3.079c.825.589.668.9-.177,1.021-.334.059-.648.216-.295.668.471.57,0,.786-.413,1-.589.314-1.316.118-1.866.53.137.373.452.216.688.255.295.039.648.02.727.373s-.314.491-.55.589c-.491.236-1.061.354-1.571.55-.314.137-.687.2-.923.648H144.8c-2.141,1.179-3.87,2.534-6.128,2.848,1.414.2,2.887-.236,4.4.629a16.141,16.141,0,0,1-4.616,1.787l-.491.059c-.2.039-.393.1-.432.334a.426.426,0,0,0,.314.432c.393.157.805.295,1.2.412a11.593,11.593,0,0,1,3.339,1.139c0,.236-.314.2-.491.2-1.945.079-3.83.9-5.814.373-.2-.059-.412-.059-.491.177a.412.412,0,0,0,.236.55h.039c1.512.629,2.711,1.807,4.321,2.4a.861.861,0,0,1-1.12.334,7.823,7.823,0,0,0-3.005-.314,6.362,6.362,0,0,1-1.905-.412c-.157-.039-.354-.079-.452.079a.326.326,0,0,0,.118.452.28.28,0,0,1,.079.039c.845.334,1.493,1.08,2.436,1.218a.839.839,0,0,1,.707.452,1.157,1.157,0,0,1,.177.648c-.079.275-.393.157-.609.137-1.571-.177-3.221.236-4.734-.53-.2-.1-.471-.138-.589.137s.079.432.255.57c.727.55,1.473,1.08,2.2,1.63.1.079.255.1.354.177.314.295.727.707.55,1.061-.236.452-.668,0-1.021-.079-.923-.216-1.827-.471-2.77-.648a6.184,6.184,0,0,1-1.729-.668c-.216-.1-.471-.393-.668-.059-.157.275.137.393.334.511.923.55,1.414,1.65,2.554,1.945a.456.456,0,0,1,.295.57.078.078,0,0,1-.039.079.6.6,0,0,1-.805.295h-.039c-1.316-.57-2.848-.471-4.046-1.395a.888.888,0,0,0-.982-.2,5.684,5.684,0,0,0,1.964,1.257c.373.216.884.334.766.864-.118.57-.687.629-1.12.491-1.375-.412-2.986-.118-4.125-1.316-.138-.157-.373-.354-.57-.079a.419.419,0,0,0,.1.53c.766.707,1.139,1.748,1.964,2.436.255.216.55.432.255.805s-.57.354-.923.079c-1.237-1-2.887-1.434-3.948-2.711-.059-.079-.216-.059-.432,0a13.974,13.974,0,0,0,1.866,2.77c.2.2.589.373.354.687s-.609.2-.9,0c-1.237-.805-2.809-1.159-3.732-2.455-.118-.157-.295-.432-.55-.255a.527.527,0,0,0-.118.707c.57.923.57,2.1,1.316,2.927.157.2.373.609.039.609s-.786.589-1.12.118c-.786-1.139-1.925-1.964-2.554-3.221-.137-.275-.314-.648-.727-.511s-.334.53-.295.845c.137.943-.334,1.886.1,2.809a.357.357,0,0,1-.137.491h-.039a.951.951,0,0,1-.943-.02c-1.454-1.1-3.005-2.1-3.653-3.948-.138-.393-.334-.962-.943-.786s-.412.707-.373,1.159a3.924,3.924,0,0,1,.039.687c-.079.432-.079,1-.648,1.08-.668.079-.766-.491-.864-.982a14.9,14.9,0,0,0-.884-2.18.566.566,0,0,0-.668-.432.279.279,0,0,0-.118.039.545.545,0,0,0-.393.668v.039a3.355,3.355,0,0,1-.1,1.65c-.079.314-.118.707-.491.766-.432.079-.629-.295-.746-.629a14.943,14.943,0,0,1-.884-2.593c-.059-.412-.079-.943-.687-.884-.53.039-.471.53-.55.9-.118.57-.236,1.159-.393,1.729-.079.275-.1.648-.491.629-.334,0-.491-.334-.57-.609a10.934,10.934,0,0,1-.668-2.848c-.02-.354.079-.805-.393-.864-.511-.059-.491.452-.55.766a8.357,8.357,0,0,1-.746,2.023c-.1.255-.295.471-.589.412-.275-.039-.314-.314-.354-.53a13.594,13.594,0,0,1-.354-2.829c0-.334.118-.727-.216-1.061-.55.491-.236,1.179-.452,1.709-.118.295-.118.648-.216.962a.706.706,0,0,1-.609.452c-.354.039-.393-.275-.471-.53a9.127,9.127,0,0,1-.786-3.221c0-.216,0-.53-.275-.57-.334-.039-.412.295-.432.55a10.847,10.847,0,0,1-.412,1.925c-.079.275-.079.629-.471.629s-.491-.373-.55-.687a17.816,17.816,0,0,1-.786-3.575c-.177.727-.334,1.454-.53,2.161-.059.255,0,.668-.432.648-.393,0-.57-.295-.648-.629a13.128,13.128,0,0,1-.805-3.221.493.493,0,0,0-.334-.53c-.275.805-.55,1.63-.845,2.436-.138.354-.2.864-.707.805-.471-.059-.373-.55-.432-.884a8.5,8.5,0,0,1-.354-3.3c.039-.2.079-.432-.177-.491s-.334.157-.393.354c-.255.845-.491,1.689-.766,2.534-.079.236-.138.55-.471.53s-.354-.354-.393-.589c-.157-1.336-1-2.593-.334-4.046h-.373c-.02.373-.059.746-.079,1.139s0,.786-.02,1.179c-.02.334.2.864-.255.943a1.018,1.018,0,0,1-1.061-.727,7.653,7.653,0,0,1-.884-3.084c0-.255.059-.629-.255-.668-.393-.039-.393.373-.432.648a11.4,11.4,0,0,1-.707,2.141c-.079.236-.118.589-.452.55s-.255-.412-.334-.648c-.373-1.257-1.041-2.475-.511-3.909l-.354-.039c-.354.825-.727,1.65-1.08,2.495-.177.393-.236.884-.805.825s-.491-.55-.491-.923-.157-.53-.55-.393c-.707.236-1.021-.137-1.316-.746a6.954,6.954,0,0,1-.786-2.711,8.56,8.56,0,0,0,.059,2.455c.039.295.412.746-.157.884a.874.874,0,0,1-1.041-.53,10.8,10.8,0,0,1-1.277-3.162.52.52,0,0,0-.314-.412l.118,1.886c0,.236.412.511-.1.707-.393.157-.687.236-1.021-.177-.707-.9-1.552-1.689-1.65-2.946,0-.118-.059-.255-.314-.295.137.884.275,1.729.393,2.593.039.314.432.805,0,.943a1.1,1.1,0,0,1-1.277-.471c-.275-.511-.511-1.061-.786-1.591-.1-.177-.157-.452-.471-.432-.138.491.275.766.452,1.139.079.177.2.354.059.55s-.354.039-.53.039c-.727-.039-1.021-.629-1.454-1.061-.354-.334-.53-.825-1.061-1.12a1.392,1.392,0,0,0,.1,1.277c.079.216.393.491.079.687a.77.77,0,0,1-.825-.157c-.452-.412-.864-.884-1.3-1.336-.138-.137-.2-.354-.432-.354-.177.295.059.491.157.727.118.314.295.629-.059.884-.393.275-.727.118-1.041-.216-.491-.511-1-.982-1.552-1.512-.079.432.216.707.236,1s.609.609-.118.923c-.55.255-.845.295-1.2-.216a1.8,1.8,0,0,0-.766-.766c-.2.236,0,.412.079.589.118.275.471.55.02.825-.393.255-.786.491-1.237.059s-.884-.825-1.355-1.277c-.177.432.118.57.236.786.157.295.629.55.236.9a.919.919,0,0,1-1.179,0c-.648-.432-1.3-.864-2.121-1.395A3.386,3.386,0,0,0,49.412,37c.177.295.53.589.157.943a.855.855,0,0,1-1.08.059c-.491-.275-1.021-.511-1.552-.766-.157.314.02.511.079.707.216.609.393,1.179-.629.786a.592.592,0,0,0-.373,0c-.629,1.179-1.67.491-2.534.589-.216.02-.491-.118-.589.177-.079.2.079.373.177.55.177.314.766.53.471.962s-.786.059-1.179.02c-.236-.02-.491-.2-.746,0,.157.471,1,.236.864.786-.137.629-.825.354-1.257.491a7.536,7.536,0,0,1-3.3-.275c.511.314,1.021.609,1.552.884a1.023,1.023,0,0,1,.727,1.139c-.137.648-.707.373-1.139.373s-.393-.059-.55.1c.511,1.041.412,1.237-.805,1.375a8.956,8.956,0,0,1-4.321-.137l-.039.295c.707.2,1.414.412,2.121.589.471.1.648.334.825.805.255.668-.1.687-.511.687-1.3.02-2.593.452-3.909.059-.177-.059-.452-.1-.511.137-.1.334.236.314.432.393.668.236,1.355.471,2.043.707.295.118.53.275.432.648a.666.666,0,0,1-.589.57c-1.237.039-2.455.471-3.693,0-.236-.1-.53-.236-.707.079s.059.57.314.727c.53.314,1.08.609,1.611.943.236.138.629.255.432.629-.177.314-.177.805-.746.786-.393,0-.786.02-1.316.059.511.412.1.864.275,1.316s-.334.373-.57.393a8.562,8.562,0,0,1-3.968-.53,1.638,1.638,0,0,0,1.12,1.08,1.582,1.582,0,0,1,.923.668c.2.393.314.825-.57.825.982.393.982.668.255,1.218-1.277.982-2.652.373-3.987.412-.354,0-.687-.2-1.061-.039-.059.393.255.412.491.452.943.118,1.434,1.493,1.08,2.436-.2.491-.57.295-.923.255s-.668-.255-.668.491-.746,1.021-1.512.629c-.157,1.375-.236,1.434-2.121,1.355a2.139,2.139,0,0,1,.354,1.08c0,.412.039.687-.491.727a.805.805,0,0,0-.609.275c-.746,1.159-1.866.805-2.907.805-.1.393.177.687.295,1s.177.57-.1.805a.534.534,0,0,1-.766,0h0c-.432-.432-.825-.55-1.2.039-.412.668.137.845.55,1.08,1.237.687,2.475,1.355,3.693,2.043.314.177.727.275.943.766a29.783,29.783,0,0,1-3.85-1.611c-.491-.216-1.041-.491-.786.55-.609-.216-.884-.707-1.277-1.041-.55-.432-.845-.373-.982.354-.216,1.08.177,2.141.059,3.221,0,.216.137.452-.2.648-.393-1.041-.432-2.161-.766-3.379-.825.845-1.08,2.475-2.73,1.454-.648-.412-.216-.864-.393-1.316l-.648.825C6.336,72,5.039,71.8,4.882,70.782c-.039-.275-.511.059-.746.2a3.611,3.611,0,0,1-2.554.786,12.047,12.047,0,0,0,2.671-1.748c.589-.452.766-.746-.137-.923-.1-.02-.2-.138-.334-.255.452-.354.884-.039,1.277-.1.511-.079.884-.275.962-.825s-.393-.55-.707-.629c-1.611-.373-2.554-1.846-4.046-2.455A3.784,3.784,0,0,1-.5,63.672a12.248,12.248,0,0,1,2.377.923c1.12.511,2.239,1.061,3.4,1.552.432.177.943.668,1.316-.118S6.375,64.87,5.9,64.536a4.878,4.878,0,0,1-1.316-.864c.511-.236.9-.746,1.512-.157a.423.423,0,0,0,.629,0c.216-.295-.157-.334-.295-.491-.491-.589-.982-1.179-1.434-1.787-.275-.393.1-.53.354-.746.295-.255.491-.314.687.039a1.079,1.079,0,0,0,1.218.609A14.794,14.794,0,0,1,5.2,58.388c-.1-.157-.295-.334-.079-.511a.314.314,0,0,1,.432.079h0c.412.609,1.061-.02,1.611.55-.177-.9-1.493-1.493-.334-2.279a1.424,1.424,0,0,1,2.141.57A2.085,2.085,0,0,0,8.1,55.383c-.511-.412-1-.884-.57-1.552.314-.491,1.925-.432,2.357,0,.2.2.275.53.786.609-.452-.746-.805-1.454-1.257-2.062a1.118,1.118,0,0,1,0-1.591c.452-.452,1.12-.236,1.591.2.295.255.53.589.805.864.177.177.412.393.687.2s0-.432-.079-.609a16.787,16.787,0,0,1-.943-2.573c-.137-.452-.137-.805.354-1.061s.766-.059,1.061.314c.354.471.746.923,1.12,1.355.177.2.393.393.687.216s.137-.393.1-.609c-.157-1.041-.295-2.062-.432-3.1-.059-.393-.157-.825.373-.962a.877.877,0,0,1,1.159.609,7.632,7.632,0,0,0,1.08,1.748c-.471-.9-.255-1.905-.452-2.848a1.473,1.473,0,0,1,.039-.962c.255-.511.55-.884,1.021-.157s.943,1.395,1.493,2.22a1.545,1.545,0,0,0-.236-1.3,9.708,9.708,0,0,1-.511-2.789c-.039-.412.216-.609.53-.746.354-.157.57.059.727.314.354.55.687,1.1,1.041,1.67.157.236.275.589.629.471.334-.118.2-.432.157-.687a10.758,10.758,0,0,1-.059-2.632c0-.746.079-1.454.923-1.768.255-.1.334-.393.432-.629.393-.9.648-.943,1.277-.177.471.57.864,1.179,1.336,1.846.118-.177.216-.295.2-.334-.746-1.139-.589-2.455-.746-3.693-.059-.471,0-.9.511-1.041s.589.373.707.668a4.717,4.717,0,0,0,1.237,1.846c.118.1.2.295.393.216a.4.4,0,0,0,.236-.491,15.463,15.463,0,0,1,.039-3.811c0-.511-.039-1.041.629-1.12.746-.079.845.432.884,1a3.951,3.951,0,0,0,.727,1.67c-.491-1.355.079-2.671.059-4.007,0-.314.059-.707.491-.707a.762.762,0,0,1,.825.648h0a3.8,3.8,0,0,0,1.061,2.239c.1-.079.2-.137.2-.157-.491-1.414.079-2.691.511-3.968.137-.393.118-.962.687-.923.511.039.687.53.746,1.021a.544.544,0,0,0,.255.452c.1-.884.216-1.768.314-2.652.02-.2,0-.432.216-.511s.314.157.471.255c.727.53.9,1.414,1.395,2.1.157.236.255.609.629.511.314-.1.236-.432.216-.687a8.747,8.747,0,0,1,.707-3.536c.118-.314.079-.864.55-.786a1.071,1.071,0,0,1,.805.884c.1.55.157,1.1.236,1.65.059.354.079.805.55.825.53.02.511-.471.511-.786.039-1.395.864-2.436,1.454-3.595.216-.432.609-.354.943-.275.452.079.236.452.216.727-.079.825-.137,1.63-.2,2.436.354.039.452-.079.432-.2-.373-1.493.53-2.554,1.179-3.712.1-.177.216-.57.452-.255.255.354,1.061-.079.923.727A8.43,8.43,0,0,0,46.9,23.4c0,.314-.039.746.393.786.511.059.511-.412.57-.746a9.931,9.931,0,0,1,1.277-3.182c.177-.334.373-.629.845-.471.432.157.354.471.334.805-.039.648-.02,1.316-.02,1.964s.157.707.55.825c.432.118.589-.236.727-.511a10.35,10.35,0,0,1,2.043-3.2c.177-.157.255-.55.589-.393.295.118.177.452.2.707a7.132,7.132,0,0,1-.177,2.141.631.631,0,0,0,.295.766c.393.177.511-.216.629-.452a10.3,10.3,0,0,1,2.22-2.986c.177-.157.255-.53.589-.354a.677.677,0,0,1,.314.687c-.1.648-.216,1.3-.354,1.925-.079.373-.354.825.1,1.041s.57-.295.766-.57a8.685,8.685,0,0,1,2.848-2.357c.255-.137.57-.275.805,0s0,.491-.118.727l-.766,1.473c-.1.2-.314.432-.039.589.236.137.452-.059.57-.255a12.01,12.01,0,0,1,2.534-2.455c.275-.216.53-.491.943-.255.373.2.589.373.295.825-.452.687-.864,1.395-1.277,2.1-.157.255-.373.53,0,.766.314.2.491-.1.629-.295.825-1.12,2.1-1.493,3.3-2.023a.75.75,0,0,1,.884.216c.334.354-.157.471-.295.668a1.871,1.871,0,0,0-.491.982v.275Z" transform="translate(0.5 0.5)" fill="#030382"/>
      </g>
    </g>
  </g>
</svg>
