<svg xmlns="http://www.w3.org/2000/svg" width="391" height="205" viewBox="0 0 391 205">
  <g id="Group_442" data-name="Group 442" transform="translate(-580 -3592)">
    <rect id="Rectangle_50" data-name="Rectangle 50" width="391" height="205" transform="translate(580 3592)" fill="#e5f4ff"/>
    <g id="Layer_1-2" transform="translate(672.584 3637.828)">
      <path id="Path_264" data-name="Path 264" d="M185.789,180.085c-3.839,1.026-7.221-.456-10.908.19,2.014,1.6,4.409,1.178,6.537,1.862-6.613,1.862-26.149-3.345-25.883-3.649a15.658,15.658,0,0,0-7.906-.836c.532.836.684,1.71,1.672,2.052a4.67,4.67,0,0,1,2.318,1.1c-.8.608-1.748-.076-2.509.418.076.646.95.57,1.14,1.406-3.155.342-6.081,1.786-9.388,1.52-2.394-.19-4.789.19-7.221.19-.57,0-1.6.456-1.444-1.026.076-.684-.912-.19-1.406-.38-.418-.152-1.064.57-1.33-.19a1.376,1.376,0,0,1,.836-1.71c1.368-.608,2.775-1.254,4.181-1.748a3.1,3.1,0,0,0,2.014-1.482,6.473,6.473,0,0,0,1.786-3.269c.19-.95.38-2.661.456-3.649.038-.8.342-1.71-.38-2.319a1.449,1.449,0,0,0-2.052.076c-.418.38-3.763.19-4.295.152-3.193-.266-3.041-3.421-4.485-5.169-.494-.608-.152-1.6.266-2.357,1.824-3.459,3.117-7.183,5.207-10.566a4.37,4.37,0,0,0,.3-4.295,8.782,8.782,0,0,1-.152-6.157,52.983,52.983,0,0,0,1.672-5.739c-.494.57-.988,1.14-1.444,1.748a8.026,8.026,0,0,1-2.7,2.356c-2.509,1.33-3.839.646-4.409-2.09-.342-1.6.114-3.459-1.634-4.637-.532-.342.19-1.064-.152-1.786-1.976,1.216-3.573-.418-5.017-1.178a17.282,17.282,0,0,1-5.511-3.877c-.684-.8-1.444-.038-2.128-.342-1.558-.646-3.155-1.178-4.675-1.862-3-1.368-5.967-2.851-8.97-4.181-.874-.38-1.938-.19-2.927-.456-4.067-1.064-7.906-2.851-11.9-4.181-1.634-.532-2.775-1.748-4.561-.418a2.5,2.5,0,0,1-2.2-.038c-1.862-1.026-3.839-.456-5.7-.722a12.768,12.768,0,0,0-6.537.646,4.915,4.915,0,0,1-4.827-.836c-.19-.152-.494-.38-.646-.3-3.079,1.292-6.347-.608-9.5.57-1.254.456-3.079,1.482-4.257-.608-.266-.456-.76.19-1.14.342-1.634.76-2.775,2.432-4.789,2.585-.494,0-1.064.342-1.444-.076-.494-.532,0-1.064.228-1.558a22.135,22.135,0,0,1,3.8-5.169,7.544,7.544,0,0,0,1.71-2.432,38.09,38.09,0,0,0-3.231,2.813c-2.509,2.737-5.815,3.915-9.236,4.979-.3.076-.608.228-.874-.076-.266-.342-.114-.722.076-1.064a11.582,11.582,0,0,1,2.509-3.079,25.9,25.9,0,0,0,2.661-2.737,17.384,17.384,0,0,1-8.438,3.459c-.456.038-1.064.418-1.368-.19-.266-.57.266-.95.57-1.33,1.824-2.318,4.257-3.953,6.461-5.853.418-.342.988-.532,1.33-1.368-1.1.722-1.976,1.292-2.813,1.9a12.127,12.127,0,0,1-6.2,2.128c-.418.038-.95.152-1.178-.3-.266-.494.152-.836.456-1.14a34.044,34.044,0,0,1,5.587-4.561A133.088,133.088,0,0,1,58.273,84.153c3.269-1.254,6.537-2.927,10.11-3,2.128-.038,3.611-1.064,5.283-1.938,3.687-1.9,7.716-2.813,11.592-4.143.95-.342,1.9-.646,2.889-.912,4.561-1.406,8.78-.19,12.961,1.52,6.917,2.851,12.771,7.6,19.27,11.174a71.6,71.6,0,0,1,12.961,9.16c3.269,2.889,6.2,6.271,9.92,8.666a45.073,45.073,0,0,0,7.678,3.8c.912.342,2.052.608,2.851-.3a3.125,3.125,0,0,0,.76-3.5c-.76-1.786-1.748-3.459-2.661-5.207a22.3,22.3,0,0,1-1.444-17.142c1.71-5.587,5.473-9.122,11.554-10.414,6.651-1.444,12.771-1.33,18.548,2.585a5.635,5.635,0,0,1,1.482,1.178c3.117,3.839,7.222,5.283,12.049,5.283,2.433,0,4.333,2.356,3.5,4.219-.19.456-.152,1.254-1.216.418-.874-.684-2.356-.76-3.611-.836-3.231-.228-6.347-1.026-9.616.456-3.8,1.71-7.868,2.775-11.782,4.143a12.24,12.24,0,0,0-1.938.8c-2.357,1.406-2.395,2.128-.342,3.877a19.624,19.624,0,0,1,4.713,5.435c.418.76.8,1.064,1.52.266,5.4-5.853,12.5-8.628,19.878-10.908,3.877-1.178,7.64-2.7,11.554-3.763a17.962,17.962,0,0,1,6.955-.3,4.121,4.121,0,0,1,3.535,3.725,9.327,9.327,0,0,0,3.269,6.119c2.585,2.242,4.219,5.321,5.967,8.286,2.394,4.1,4.751,8.21,7.107,12.353.3.57,1.026,1.33.456,1.862-.646.57-1.444-.114-2.052-.494-1.33-.836-2.014-2.242-2.927-3.459-.38-.532-.57-1.292-1.748-1.634,1.368,2.432,2.623,4.6,3.839,6.765.342.608,1.254,1.254.456,1.976-.684.608-1.482,0-2.09-.418a19.851,19.851,0,0,1-4.865-5.511,4.868,4.868,0,0,0-1.482-1.6c.418,1.1.76,2.242,1.254,3.307.722,1.672,1.52,3.345,2.319,4.979.19.418.494.8.228,1.254-.342.532-.95.342-1.368.152a9.8,9.8,0,0,1-4.219-3.649c.38,1.064.836,2.052,1.14,3.155.342,1.254-.266,1.672-1.444,1.254a.939.939,0,0,1-.342-.152c-1.6-2.28-4.295-1.976-6.5-2.889-1.292-.532-2.775-.152-4.1-.152a65.24,65.24,0,0,1-6.689-.57,2.589,2.589,0,0,1-1.748-.532c-.152-.114-.456-.3-.456-.3-.836,1.254-2.585.38-3.155.912-1.634,1.672-3.8.038-5.321,1.254-1.71-1.52-2.7,1.178-4.257.76-.076,0-.19.228-.266.228-.8,0-1.786-2.052-2.471.3-.266.912-2.128.57-2.28,1.976,0,.076-.19.152-.3.19-2.7.494-3.345,1.1-4.029,3.763a39.611,39.611,0,0,1-9.844,17.522,13.322,13.322,0,0,0-1.748,3.117c-.8,1.52-1.672,3-2.585,4.409a10.459,10.459,0,0,0-1.824,4.333,7.868,7.868,0,0,1-1.52,3.459c-1.444,2.052-1.938,4.181-.532,6.537a31.642,31.642,0,0,1,1.672,3.839c1.824,4.333,5.207,6.081,9.73,6.157,4.371.076,8.438,1.6,12.619,2.471a5.543,5.543,0,0,1,.722.266h-.038Zm-43.481-4.675a2.464,2.464,0,0,0,1.254.8c2.2.532,4.447,1.216,6.727.76,2.965-.57,5.853-1.52,8.856-1.976.76-.114,1.216-.57.76-1.33a66.15,66.15,0,0,1-4.789-11.06c-.76-1.976-.342-4.181-1.824-6.043-.874-1.1-1.406-1.824-2.775-1.444-1.444.38-2.927.722-2.7,2.737a14.126,14.126,0,0,1-.836,5.207c-.722,2.585-2.775,4.675-4.751,4.485-1.482-.152-1.748.57-1.52,1.6a45.326,45.326,0,0,0,1.634,6.271Z" transform="translate(-23.677 -71.064)" fill="#030382"/>
    </g>
  </g>
</svg>
