<svg xmlns="http://www.w3.org/2000/svg" width="391" height="205" viewBox="0 0 391 205">
  <g id="Group_451" data-name="Group 451" transform="translate(-173 -4260)">
    <rect id="Rectangle_58" data-name="Rectangle 58" width="391" height="205" transform="translate(173 4260)" fill="#e5f4ff"/>
    <g id="Layer_2" transform="translate(327.971 4303.147)">
      <g id="Layer_2-2" transform="translate(0 0)">
        <path id="Path_186" data-name="Path 186" d="M0,67.52c4.233,1.539,7.311,1.924,10-2.693S11.543,57.9,8.85,54.438a10.477,10.477,0,0,0,11.543,1.154c0-3.463,6.541-5.387,1.539-10,2.309,0,2.693,1.154,3.463,1.924s1.924,3.463,3.463,0c.77-1.924,3.848-2.693,5.772-3.848a4.377,4.377,0,0,0,3.078-5.387V36.354c1.539,0,1.154.77,1.924,1.539s.77,1.154,1.924,1.154,2.693-.77,4.233-1.154,2.693,0,4.617-.385c-2.693-1.539-1.154-1.924,0-3.463,4.617-5.387,11.158-3.848,16.545-5.772H68.49a12.647,12.647,0,0,0,6.541,1.539c2.309,0,5,1.539,5.772-1.154s4.233-6.541,1.539-10.774A40.472,40.472,0,0,1,75.416,1.724c0-.77-.385-1.154,0-1.924.385,0,.77,0,.77.77a39.667,39.667,0,0,0,6.926,15.391c3.463,5.387,1.924,10.774-.77,15.776-.77,1.539-1.154,2.309.385,3.078l.77.77c.77,4.617,3.848,3.463,7.311,3.848a12.254,12.254,0,0,1,11.158,5.387A46.994,46.994,0,0,0,114.278,58.67a24.709,24.709,0,0,1-9.619-6.926,23.982,23.982,0,0,1-3.463-4.617c-2.309-4.617-6.541-4.617-10.774-5a3.924,3.924,0,0,0-3.078,1.924c-1.154,3.463-3.463,6.926-2.309,11.158,0,1.539-1.539,1.924-2.309,3.078-1.539,3.078-3.463,6.156-5.387,9.235,0,.385-1.154,3.463-2.693.385-.385-.77-1.154,0-1.539.77L70.8,72.138c-.77,1.154-.77,1.154-1.539,1.154-4.233,0-5,1.924-2.693,6.541-2.309-2.309-4.617.385-6.541-1.539H59.64a14,14,0,0,1-6.156,5.387A3.7,3.7,0,0,0,51.945,88.3a1.192,1.192,0,0,0,.385.77H51.175c-1.924-2.693-3.848-3.463-6.156,0A3.4,3.4,0,0,1,40.4,90.992h-.77c-1.154-.77-1.539.77-1.539,1.539-.77,1.924,0,3.848,0,5.772-1.924,0-2.309-3.848-5-1.924-1.924,1.539-4.233,0-6.541,1.154s-4.617,0-4.617,3.848c-1.924-4.617-6.541-3.848-10-5S7.7,92.146,5.772,90.222A13.605,13.605,0,0,1,4.617,75.985c1.154-3.078,0-4.233-2.309-5.387A2.483,2.483,0,0,1,0,68.29Z" transform="translate(0 0.2)" fill="#030382"/>
      </g>
    </g>
  </g>
</svg>
